<svg xmlns="http://www.w3.org/2000/svg" xmlns:xlink="http://www.w3.org/1999/xlink" width="12.27" height="20.661" viewBox="0 0 12.27 20.661"><defs><style>.a{fill:#fff;}.b{clip-path:url(#a);}</style><clipPath id="a"><path class="a" d="M9.759.412.4,9.4a1.288,1.288,0,0,0,0,1.858l9.364,8.988a1.484,1.484,0,0,0,2.055-2.14L3.972,10.579a.343.343,0,0,1,0-.5l7.842-7.529A1.484,1.484,0,0,0,9.759.412Z" transform="translate(0.571 0.573)"/></clipPath></defs><g transform="translate(-0.571 -0.573)"><path class="a" d="M9.759.412.4,9.4a1.288,1.288,0,0,0,0,1.858l9.364,8.988a1.484,1.484,0,0,0,2.055-2.14L3.972,10.579a.343.343,0,0,1,0-.5l7.842-7.529A1.484,1.484,0,0,0,9.759.412Z" transform="translate(0.571 0.573)"/></g></svg>