<svg xmlns="http://www.w3.org/2000/svg" width="30" height="30" viewBox="0 0 30 30"><defs><style>.a{fill:#ff574c;}.b{fill:#fff;}</style></defs><g transform="translate(-315 -25)"><circle class="a" cx="15" cy="15" r="15" transform="translate(315 25)"/><path class="b" d="M13.66,1.993A1.126,1.126,0,0,0,14,1.167,1.126,1.126,0,0,0,13.66.34a1.174,1.174,0,0,0-1.653,0L7,5.347,1.993.34A1.126,1.126,0,0,0,1.167,0,1.126,1.126,0,0,0,.34.34,1.126,1.126,0,0,0,0,1.167a1.126,1.126,0,0,0,.34.826L5.347,7,.34,12.007a1.174,1.174,0,0,0,0,1.653,1.126,1.126,0,0,0,.826.34,1.126,1.126,0,0,0,.826-.34L7,8.653l5.007,5.007a1.169,1.169,0,0,0,1.653-1.653L8.653,7Z" transform="translate(323 33)"/></g></svg>