<svg xmlns="http://www.w3.org/2000/svg" width="21.88" height="19.994" viewBox="0 0 21.88 19.994"><defs><style>.a{fill:#d59f63;}.b{fill:#cd915a;}.c{fill:#fad7a5;}.d{fill:#f0c891;}.e{fill:#ffe1b4;}.f{fill:#fad098;}.g{fill:#d7af7d;}.h{fill:#64463c;}.i{fill:#ff507d;}.j{fill:#d23c69;}.k{fill:#b48764;}.l{fill:#966d50;}.m{fill:#00aaf0;}.n{fill:#0096dc;}.o{fill:#c39772;}.p{fill:#553732;}.q{fill:#e6af78;}.r{fill:#d29b6e;}.s{fill:#f0c087;}.t{fill:#ffdc64;}.u{fill:#ffc850;}</style></defs><g transform="translate(0 -0.003)"><path class="a" d="M4.527,0h0a4.15,4.15,0,0,1,4.15,4.15h0a42.8,42.8,0,0,0,.377,5.281A13.325,13.325,0,0,1,4.527,10.94,13.326,13.326,0,0,1,0,9.431,42.8,42.8,0,0,0,.377,4.15h0A4.15,4.15,0,0,1,4.527,0Z" transform="translate(12.072 1.512)"/><path class="b" d="M3.018,3.772V2.641A2.641,2.641,0,0,1,5.144.051,4.159,4.159,0,0,0,4.527,0h0A4.15,4.15,0,0,0,.377,4.15,42.8,42.8,0,0,1,0,9.431,13.325,13.325,0,0,0,4.527,10.94V5.281Z" transform="translate(12.072 1.512)"/><path class="c" d="M9.852,3.111,7.265,2.076a.754.754,0,0,1-.474-.7V0H3.772V1.375a.754.754,0,0,1-.474.7L.711,3.111A1.132,1.132,0,0,0,0,4.161v1.5a.377.377,0,0,0,.377.377h0v3.4H9.808a.377.377,0,0,0,.377-.377V6.036h0a.377.377,0,0,0,.377-.377v-1.5A1.132,1.132,0,0,0,9.852,3.111Z" transform="translate(11.317 10.566)"/><g transform="translate(15.085 10.556)"><path class="d" d="M1.886,0V1.132H1.509a.377.377,0,0,0-.377.377V3.773H0V0H1.886Z" transform="translate(4.531 5.669)"/><path class="d" d="M0,1.221a4.121,4.121,0,0,0,1.509.288,4.121,4.121,0,0,0,1.509-.288V0H0V1.221Z" transform="translate(0.004 0.01)"/></g><path class="e" d="M3.4,6.257h0A3.4,3.4,0,0,1,0,2.861V1.7a.376.376,0,0,1,.32-.37A1.946,1.946,0,0,0,1.78.134.223.223,0,0,1,2.119.046c1.6,1.206,4.671.3,4.671,2.816h0A3.4,3.4,0,0,1,3.4,6.257Z" transform="translate(13.204 5.064)"/><path class="f" d="M1.886,2.833V0A.217.217,0,0,0,1.78.1,1.946,1.946,0,0,1,.32,1.3.376.376,0,0,0,0,1.67V2.833a3.389,3.389,0,0,0,4.338,3.26A3.4,3.4,0,0,1,1.886,2.833Z" transform="translate(13.204 5.093)"/><path class="g" d="M1.132,1.132A1.353,1.353,0,0,1,.084.615.377.377,0,1,1,.67.14a.578.578,0,0,0,.923,0,.377.377,0,1,1,.586.475A1.353,1.353,0,0,1,1.132,1.132Z" transform="translate(15.467 8.68)"/><g transform="translate(14.701 6.752)"><path class="h" d="M.377,1.132A.377.377,0,0,1,0,.755V.377a.377.377,0,0,1,.755,0V.755A.377.377,0,0,1,.377,1.132Z" transform="translate(3.03 0.041)"/><path class="h" d="M.377,1.132A.377.377,0,0,1,0,.755V.377a.377.377,0,0,1,.755,0V.755A.377.377,0,0,1,.377,1.132Z" transform="translate(0.012 0.041)"/></g><path class="i" d="M9.851.644,8.242,0A3.018,3.018,0,0,1,5.281,2.437,3.018,3.018,0,0,1,2.321,0L.711.644A1.132,1.132,0,0,0,0,1.694v5.27H8.677v-3.4h1.509a.377.377,0,0,0,.377-.377v-1.5A1.132,1.132,0,0,0,9.851.644Z" transform="translate(11.317 13.033)"/><g transform="translate(12.906 12.991)"><path class="j" d="M6.63,0A3.018,3.018,0,0,1,3.669,2.437,3.018,3.018,0,0,1,.708,0L0,.283A3.771,3.771,0,0,0,3.669,3.192,3.771,3.771,0,0,0,7.338.283Z" transform="translate(0.024 0.041)"/><path class="j" d="M0,2.027a.755.755,0,0,1,.221-.534L1.715,0a1.128,1.128,0,0,1,.172.595v1.5a.377.377,0,0,1-.377.377H0V2.027Z" transform="translate(7.088 1.141)"/></g><path class="k" d="M2.264,4.9H.377A.377.377,0,0,1,0,4.527V0H2.264V4.9Z" transform="translate(0.377 15.093)"/><g transform="translate(0.342 15.085)"><path class="l" d="M0,0V.754H.754a.377.377,0,0,1,.377.377V4.15H2.264V0H0Z" transform="translate(0.035 0.762)"/><rect class="l" width="2.264" height="4.904" transform="translate(8.335 0.007)"/></g><path class="m" d="M10.483.9,7.168,0H4.15L.834.9A1.132,1.132,0,0,0,0,2V5.281a.377.377,0,0,0,.377.377H2.264v4.15h6.79v-5h2.263V2A1.132,1.132,0,0,0,10.483.9Z" transform="translate(0 10.189)"/><path class="n" d="M4.5,0H1.479L0,.4A3.015,3.015,0,0,0,5.976.4Z" transform="translate(2.671 10.189)"/><path class="k" d="M0,0V1.32a1.886,1.886,0,1,0,3.772,0V0Z" transform="translate(3.772 8.868)"/><path class="l" d="M0,.864a4.12,4.12,0,0,0,1.886.457A4.12,4.12,0,0,0,3.772.864V0H0Z" transform="translate(3.772 8.868)"/><path class="o" d="M7.545,2.264V0H.754V2.264a.754.754,0,1,0,0,1.509,3.4,3.4,0,0,0,6.79,0,.754.754,0,0,0,0-1.509Z" transform="translate(1.509 2.266)"/><path class="k" d="M2.641,3.772V0H.754V2.264a.754.754,0,1,0,0,1.509,3.389,3.389,0,0,0,4.338,3.26A3.4,3.4,0,0,1,2.641,3.772Z" transform="translate(1.509 2.266)"/><path class="l" d="M1.132,1.132A1.353,1.353,0,0,1,.084.615.377.377,0,1,1,.67.139a.578.578,0,0,0,.923,0,.377.377,0,1,1,.586.475A1.353,1.353,0,0,1,1.132,1.132Z" transform="translate(4.527 6.794)"/><g transform="translate(3.761 4.872)"><path class="p" d="M.377,1.132A.377.377,0,0,1,0,.755V.377a.377.377,0,0,1,.755,0V.755A.377.377,0,0,1,.377,1.132Z" transform="translate(0.012 0.035)"/><path class="p" d="M.377,1.132A.377.377,0,0,1,0,.755V.377a.377.377,0,0,1,.755,0V.755A.377.377,0,0,1,.377,1.132Z" transform="translate(3.03 0.035)"/></g><path class="h" d="M6.312,4.168a.635.635,0,0,0,.729.37.73.73,0,0,1,.127-.011.747.747,0,0,1,.377.1V2.264A1.5,1.5,0,0,0,6.773.954,1.129,1.129,0,0,0,5.659,0H2.641A2.641,2.641,0,0,0,0,2.641V4.632a.747.747,0,0,1,.377-.1.731.731,0,0,1,.142.014.7.7,0,0,0,.827-.494h0l.093-.371a.375.375,0,0,1,.354-.286,14.023,14.023,0,0,0,3.818-.569.377.377,0,0,1,.5.29l.141.848A1.1,1.1,0,0,0,6.312,4.168Z" transform="translate(1.886 0.003)"/><path class="p" d="M2.263,2.264A2.263,2.263,0,0,1,4.527,0H2.641A2.641,2.641,0,0,0,0,2.641V4.632a.747.747,0,0,1,.377-.1.73.73,0,0,1,.141.014.7.7,0,0,0,.827-.494l.093-.371a.375.375,0,0,1,.354-.286c.124,0,.285-.009.471-.019V2.264Z" transform="translate(1.886 0.003)"/><path class="n" d="M0,.756V4.041a.377.377,0,0,0,.377.377H2.264V3.179a1.886,1.886,0,0,0-.4-1.158L.294,0A1.127,1.127,0,0,0,0,.756Z" transform="translate(0 11.429)"/><path class="q" d="M6.017,1.628,4.785,1.218A.377.377,0,0,1,4.527.86V0H2.263V.86a.377.377,0,0,1-.258.358L.774,1.628A1.132,1.132,0,0,0,0,2.7V3.4a.377.377,0,0,0,.377.377H6.413A.377.377,0,0,0,6.79,3.4V2.7A1.132,1.132,0,0,0,6.017,1.628Z" transform="translate(7.922 16.225)"/><path class="r" d="M.01,0V.86A.368.368,0,0,1,0,.922a3.223,3.223,0,0,0,1.038.208l.1,0A3.372,3.372,0,0,0,2.284.93.368.368,0,0,1,2.273.86V0Z" transform="translate(10.176 16.225)"/><path class="h" d="M3.4,0h0A3.4,3.4,0,0,0,0,3.4V4.527H6.79V3.4A3.4,3.4,0,0,0,3.4,0Z" transform="translate(7.922 8.302)"/><path class="p" d="M4.527.2A3.388,3.388,0,0,0,0,3.4V4.527H2.264V3.4A3.394,3.394,0,0,1,4.527.2Z" transform="translate(7.922 8.302)"/><path class="s" d="M6.036,1.07V.743A.75.75,0,0,0,4.952.077a10.944,10.944,0,0,1-4.2.993.754.754,0,1,0,0,1.509v.266A2.714,2.714,0,0,0,3.314,5.6,2.641,2.641,0,0,0,6.036,2.956V2.579a.754.754,0,0,0,0-1.509Z" transform="translate(7.922 11.005)"/><path class="t" d="M4.264.015l-2,.857-2-.857A.189.189,0,0,0,0,.189V1.88a.189.189,0,0,0,.263.173l2-.857,2,.857a.189.189,0,0,0,.263-.173V.189A.189.189,0,0,0,4.264.015Z" transform="translate(9.054 7.645)"/><path class="q" d="M2.263,2.044V0A9.922,9.922,0,0,1,.754.158a.754.754,0,0,0,0,1.509v.266a2.714,2.714,0,0,0,2.559,2.75,2.642,2.642,0,0,0,.836-.11A2.641,2.641,0,0,1,2.263,2.044Z" transform="translate(7.922 11.917)"/><path class="r" d="M1.132,1.132A1.353,1.353,0,0,1,.084.615.377.377,0,1,1,.67.139a.578.578,0,0,0,.923,0,.377.377,0,1,1,.586.475A1.353,1.353,0,0,1,1.132,1.132Z" transform="translate(10.186 14.339)"/><g transform="translate(9.786 12.821)"><path class="p" d="M.377.975A.356.356,0,0,1,.109.832a.609.609,0,0,1,0-.7.332.332,0,0,1,.536,0,.609.609,0,0,1,0,.7A.357.357,0,0,1,.377.975Z" transform="translate(0.022 0.018)"/><path class="p" d="M.377.975A.356.356,0,0,1,.109.832.492.492,0,0,1,.03.671.618.618,0,0,1,0,.484.619.619,0,0,1,.03.3.489.489,0,0,1,.109.136a.332.332,0,0,1,.536,0A.54.54,0,0,1,.724.3a.618.618,0,0,1,.03.187A.606.606,0,0,1,.645.832.356.356,0,0,1,.377.975Z" transform="translate(2.286 0.018)"/></g><path class="t" d="M6.017.205,5.4,0A2.262,2.262,0,0,1,3.4,1.218,2.262,2.262,0,0,1,1.389,0L.774.205A1.132,1.132,0,0,0,0,1.279v.693a.377.377,0,0,0,.377.377H6.413a.377.377,0,0,0,.377-.377V1.279A1.132,1.132,0,0,0,6.017.205Z" transform="translate(7.922 17.648)"/><circle class="u" cx="0.566" cy="0.566" r="0.566" transform="translate(10.752 8.114)"/></g></svg>