<svg xmlns="http://www.w3.org/2000/svg" width="13.44" height="19.99" viewBox="0 0 13.44 19.99"><defs><style>.a{fill:#ffd6a8;}</style></defs><g transform="translate(-0.023)"><path class="a" d="M.19.538a1.181,1.181,0,1,0,2.122.984A1.181,1.181,0,0,0,1.122,0,1.189,1.189,0,0,0,.19.538Z" transform="translate(10.037 8.652)"/><path class="a" d="M.05.05c.006.159,0-.159,0,0Z" transform="translate(13.412 13.861)"/><path class="a" d="M1.019,3.639A1.935,1.935,0,0,0,3.353.616,1.952,1.952,0,0,0,1.283.111,1.952,1.952,0,0,0,.006,1.781,1.953,1.953,0,0,0,1.019,3.639Z" transform="translate(1.793 1.539)"/><path class="a" d="M.666,3.522a2.022,2.022,0,0,0,3.159-.591A2.022,2.022,0,0,0,1.628.037,2.04,2.04,0,0,0,.076,1.464,2.04,2.04,0,0,0,.666,3.522Z" transform="translate(5.486 0)"/><g transform="translate(5.143 4.245)"><path class="a" d="M3.742,3.1a.35.35,0,0,0,.7-.035c0-.1,0-.208,0-.312a2.767,2.767,0,0,0-.126-.73,3.131,3.131,0,0,0-.24-.581A3.349,3.349,0,0,0,3.054.3,1.536,1.536,0,0,0,2.74.119,1.186,1.186,0,0,0,1.717.113a1.181,1.181,0,0,0-.242.13,3.122,3.122,0,0,0-.273.2,3.364,3.364,0,0,0-.549.564A3.1,3.1,0,0,0,.072,2.251,3.833,3.833,0,0,0,0,3.066a.354.354,0,0,0,.336.347A.354.354,0,0,0,.7,3.1,2.509,2.509,0,0,1,1.046,2v.379L.266,5.525C.231,5.661.208,5.8.473,5.8h.648l.12,2.631a.409.409,0,0,0,.817,0L2.2,5.8h.044l.12,2.631a.409.409,0,0,0,.817,0L3.331,5.8h.634a.232.232,0,0,0,.227-.277L3.4,2.362V2A2.438,2.438,0,0,1,3.742,3.1Z" transform="translate(3.852 6.883)"/><path class="a" d="M3.844,12.546l.269-1.165.037-.723a.769.769,0,0,1-.582-.74,4.054,4.054,0,0,1,.095-.96,3.6,3.6,0,0,1,.347-.9,3.465,3.465,0,0,1,.319-.481,3.622,3.622,0,0,0,.012-.4V3.8a6.3,6.3,0,0,1,.388,1.148,1.514,1.514,0,0,1,1.285-.876A8.266,8.266,0,0,0,5.576,2.8,6.273,6.273,0,0,0,4.754,1.45,5.539,5.539,0,0,0,4.029.712a4.5,4.5,0,0,0-.4-.3A3.106,3.106,0,0,0,3.254.2,2.2,2.2,0,0,0,.849.621L0,1.376A5.921,5.921,0,0,1,1.8,3.4a5.356,5.356,0,0,1,.564,1.657,6.853,6.853,0,0,1,.08,1.18,1.006,1.006,0,0,1-1,.986A.993.993,0,0,1,1.2,7.2s.744,2.714.786,2.888c.057.235.077.723-.467.723h-.9L.549,12.026.673,15a.709.709,0,0,0,.7.671.707.707,0,0,0,.7-.665l.252-4.984L2.532,15a.7.7,0,0,0,1.4.006l.109-2.165A.213.213,0,0,1,3.844,12.546Z" transform="translate(0.037 0.012)"/></g><path class="a" d="M6.569,9.317a.346.346,0,0,0,.268-.126A.329.329,0,0,0,6.91,8.9L5.572,4.049V3.281a3.5,3.5,0,0,1,.423.987,5.253,5.253,0,0,1,.139.812.574.574,0,0,0,1.145-.057c0-.184,0-.368-.009-.552a4.906,4.906,0,0,0-.1-.754A5.022,5.022,0,0,0,6.6,2.243,5.459,5.459,0,0,0,5.626,1,5.488,5.488,0,0,0,5.039.52a3.07,3.07,0,0,0-.5-.306L4.49.194A1.942,1.942,0,0,0,2.814.186a2.267,2.267,0,0,0-.52.3A5.515,5.515,0,0,0,.716,2.174a4.913,4.913,0,0,0-.352.714,4.471,4.471,0,0,0-.233.749A7.155,7.155,0,0,0,.015,4.4,5.968,5.968,0,0,0,0,5.016s0,.005,0,.008a.58.58,0,0,0,.548.569.58.58,0,0,0,.6-.512,5.28,5.28,0,0,1,.139-.812,3.6,3.6,0,0,1,.43-1v.721L.374,8.9a.347.347,0,0,0,.341.414H1.831l.2,4.5a.67.67,0,0,0,1.339.006l.247-4.506h.056l.2,4.5a.67.67,0,0,0,1.339.006l.247-4.506h1.1Z" transform="translate(0.023 5.533)"/></g></svg>