<svg xmlns="http://www.w3.org/2000/svg" width="20" height="17.856" viewBox="0 0 20 17.856"><defs><style>.a{fill:#48c1e1;}.b{fill:#046699;}.c,.e{opacity:0.1;}.d{fill:#a2dff9;}.f{fill:#ef5050;}.g{fill:#c0272d;}.h{fill:#89c947;}.i{fill:#d5e962;}.j{fill:#ffc502;}.k{fill:#368c0e;}.l{fill:#f7931e;}.m{fill:#e6e9ed;}</style></defs><g transform="translate(0 -0.018)"><rect class="a" width="2.022" height="1.35" transform="translate(2.375 1.817)"/><path class="b" d="M2.857,1.651a.2.2,0,0,1-.2.2H.2a.2.2,0,0,1-.2-.2V.2A.2.2,0,0,1,.2,0H2.656a.2.2,0,0,1,.2.2v1.45Z" transform="translate(1.958 0.017)"/><g class="c" transform="translate(1.953)"><path d="M.839,1.651V.2a.2.2,0,0,1,.2-.2H.2A.2.2,0,0,0,0,.2v1.45a.2.2,0,0,0,.2.2H1.04A.2.2,0,0,1,.839,1.651Z" transform="translate(0.005 0.017)"/></g><path class="d" d="M.77,9.652A.039.039,0,0,0,.79,9.6.176.176,0,0,1,.764,9.51c0-.215.478-.446,1.189-.446a2.71,2.71,0,0,1,.645.074h.009a.039.039,0,0,0,.038-.049,7.212,7.212,0,0,1-.212-1.525c0-.006,0-.012,0-.018q0-.111,0-.223a.163.163,0,0,1,.163-.163h.353a.039.039,0,0,0,.039-.043,1.21,1.21,0,0,1-.008-.136,1.248,1.248,0,0,1,.876-1.2.039.039,0,0,0,.023-.054,1.179,1.179,0,0,1,.571-1.583.039.039,0,0,0,.02-.049,1.178,1.178,0,0,1,.351-1.3V1.123A1.125,1.125,0,0,0,3.7,0H1.12A1.125,1.125,0,0,0,0,1.123v9A2.919,2.919,0,0,1,.77,9.652Z" transform="translate(0.978 3.105)"/><path class="b" d="M3.851,3.74a.039.039,0,0,0,.023-.054A1.179,1.179,0,0,1,4.446,2.1a.039.039,0,0,0,.02-.049,1.178,1.178,0,0,1,.351-1.3V0H0V4.156H3.247A1.249,1.249,0,0,1,3.851,3.74Z" transform="translate(0.978 5.15)"/><path class="e" d="M1.21,9.165V1.123A1.125,1.125,0,0,1,2.33,0H1.12A1.125,1.125,0,0,0,0,1.123v9a2.92,2.92,0,0,1,.77-.466A.039.039,0,0,0,.79,9.6.176.176,0,0,1,.764,9.51C.764,9.384.93,9.252,1.21,9.165Z" transform="translate(0.978 3.105)"/><path class="f" d="M.19,2.247a1.192,1.192,0,0,1,.017.2.039.039,0,0,0,.036.039,1.18,1.18,0,0,1,1.04.886A.039.039,0,0,0,1.31,3.4l.011,0a.039.039,0,0,0,.027-.011,1.237,1.237,0,0,1,.733-.33.039.039,0,0,0,.035-.038,2.145,2.145,0,0,1,.627-1.45l.025-.024A2.691,2.691,0,0,0,2.013.062a.211.211,0,0,0-.3,0L0,1.78A1.181,1.181,0,0,1,.19,2.247Z" transform="translate(9.285 4.051)"/><g transform="translate(10.156 4.844)"><path class="g" d="M.378.7A.039.039,0,0,0,.405.725l.011,0A.039.039,0,0,0,.443.716,1.249,1.249,0,0,1,.774.494.292.292,0,0,0,.7.371L.417.086A.293.293,0,0,0,0,.086l0,0A1.177,1.177,0,0,1,.378.7Z" transform="translate(0.033 1.884)"/><path class="g" d="M.7.586h-.4A.293.293,0,0,1,.293,0H.7A.293.293,0,0,1,.7.586Z" transform="translate(0.325 1.128)"/><path class="g" d="M.293.871a.293.293,0,0,1-.207-.5L.37.086A.293.293,0,0,1,.785.5L.5.785A.292.292,0,0,1,.293.871Z" transform="translate(0.269 0.034)"/></g><path class="h" d="M3.03.194A.069.069,0,0,0,2.991.155,2.185,2.185,0,0,0,0,2.158c.041,0,.082-.006.123-.006A1.254,1.254,0,0,1,1.351,3.164,2.189,2.189,0,0,0,3.03.194Z" transform="translate(11.361 4.957)"/><path class="i" d="M1.428.086a.293.293,0,0,0-.414,0L0,1.1a1.255,1.255,0,0,1,.5.333L1.428.5A.293.293,0,0,0,1.428.086Z" transform="translate(11.91 6.081)"/><g transform="translate(3.906 6.602)"><path class="j" d="M1.028,1.868a1.07,1.07,0,0,1,.015.181.039.039,0,0,0,.036.039,1.054,1.054,0,0,1,.449.146.039.039,0,0,0,.049-.008c.033-.038.062-.069.09-.1a1.957,1.957,0,0,1,.832-.5A1.29,1.29,0,1,0,0,.988,1.059,1.059,0,0,1,1.028,1.868Z" transform="translate(9.878 0.036)"/><path class="j" d="M2.055,1.4A2.013,2.013,0,0,1,1.81.648,1.177,1.177,0,0,1,.94,0,1.285,1.285,0,0,0,.01,1.4H2.055Z" transform="translate(0.008 2.24)"/></g><path class="h" d="M.51,1.452a1.054,1.054,0,0,1-.087.636H2.081A2.013,2.013,0,0,0,2.313.178.064.064,0,0,0,2.277.143,2,2,0,0,0,.117.589C.076.631.037.674,0,.718A1.062,1.062,0,0,1,.51,1.452Z" transform="translate(15.306 8.15)"/><path class="i" d="M0,1.079H.362L.94.5A.293.293,0,0,0,.525.086L.1.516A1.052,1.052,0,0,1,0,1.079Z" transform="translate(15.73 9.159)"/><path class="k" d="M5.916,2.167a1.219,1.219,0,0,0-1.082-.948,1.221,1.221,0,0,0-2.24-.67A1.222,1.222,0,0,0,.71,1.936a1.22,1.22,0,0,0,.315,2.312,1.969,1.969,0,0,1,.12-1.009.025.025,0,0,1,.006-.009l.008-.006a1.962,1.962,0,0,1,2.118.438c.027.027.053.055.078.083a2.692,2.692,0,0,1-.032-.411A.172.172,0,0,1,3.5,3.163H5.541c0-.027,0-.055,0-.082A1.291,1.291,0,0,1,5.916,2.167Z" transform="translate(4.697 5.281)"/><g transform="translate(6.016 6.328)"><path class="h" d="M.293,1.212H.288A.293.293,0,0,1,0,.914.932.932,0,0,1,.931,0H.945a.933.933,0,0,1,.672.3.293.293,0,0,1-.433.4A.34.34,0,0,0,.936.586a.345.345,0,0,0-.35.338A.293.293,0,0,1,.293,1.212Z" transform="translate(0.025 0.022)"/><path class="h" d="M.293.952A.293.293,0,0,1,.018.557.853.853,0,0,1,1.6.519a.293.293,0,0,1-.539.229A.264.264,0,0,0,.912.6.268.268,0,0,0,.568.761.293.293,0,0,1,.293.952Z" transform="translate(1.643 0.786)"/></g><path class="k" d="M.057.855H.047s0,.006,0,.008H.439a.211.211,0,0,1,.211.211A2.69,2.69,0,0,1,.14,2.652H3.1A1.1,1.1,0,0,0,2.191,1.1,1.1,1.1,0,0,0,.168.5,1.106,1.106,0,0,0,0,.393,1.252,1.252,0,0,1,.06.776C.06.8.059.828.057.855Z" transform="translate(12.675 7.586)"/><path class="l" d="M2.578,1.375c0-.027,0-.055,0-.082A1.29,1.29,0,1,0,0,1.293c0,.028,0,.055,0,.082Z" transform="translate(10.194 7.069)"/><path class="h" d="M2.337.589A2,2,0,0,0,.178.142.066.066,0,0,0,.156.157.064.064,0,0,0,.142.178,2.013,2.013,0,0,0,.26,1.91H2.92A2.7,2.7,0,0,1,2.4.659Q2.371.623,2.337.589Z" transform="translate(5.664 8.327)"/><path class="i" d="M.486.9h.828L.5.086A.293.293,0,0,0,.086.5Z" transform="translate(6.67 9.336)"/><path class="f" d="M4.853,1.833A2.692,2.692,0,0,0,5.4.211.211.211,0,0,0,5.184,0H.211A.211.211,0,0,0,0,.211,2.692,2.692,0,0,0,.542,1.833Z" transform="translate(7.981 8.405)"/><g transform="translate(8.633 8.828)"><path class="g" d="M.586.5v-.2A.293.293,0,0,0,0,.293V.5Z" transform="translate(1.764 0.914)"/><path class="g" d="M.349.764H.8A.293.293,0,0,0,.785.371L.5.086A.293.293,0,1,0,.086.5Z" transform="translate(2.563 0.646)"/><path class="g" d="M.522.763.785.5A.293.293,0,0,0,.37.086L.086.371A.293.293,0,0,0,.066.763Z" transform="translate(0.634 0.646)"/><path class="g" d="M.7.586h-.4A.293.293,0,0,1,.293,0H.7A.293.293,0,0,1,.7.586Z" transform="translate(0.01 0.034)"/><path class="g" d="M.7.586h-.4A.293.293,0,0,1,.293,0H.7A.293.293,0,0,1,.7.586Z" transform="translate(3.094 0.034)"/></g><path class="m" d="M.264,2.031H.275a.039.039,0,0,0,.039-.039V1.5a.254.254,0,1,1,.508,0v.5a.039.039,0,0,0,.039.039H.871a2.633,2.633,0,0,1,.7-.089c.711,0,1.189.231,1.189.446a.176.176,0,0,1-.025.087.039.039,0,0,0,.019.055A2.706,2.706,0,0,1,4.439,4.608a.039.039,0,0,0,.039.034l.014,0L10.658,2.3a1.045,1.045,0,0,1,1.4.783l.054.29a.039.039,0,0,0,.058.027l2.073-1.224A7.265,7.265,0,0,0,14.512.2a.2.2,0,0,0-.2-.2H.2A.2.2,0,0,0,0,.2,7.283,7.283,0,0,0,.228,2.022Z" transform="translate(3.368 10.227)"/><path class="e" d="M.264,2.031H.275a.039.039,0,0,0,.039-.039V1.5a.254.254,0,1,1,.508,0v.5a.039.039,0,0,0,.039.039H.871a2.542,2.542,0,0,1,.593-.086A7.3,7.3,0,0,1,1.255.2a.2.2,0,0,1,.2-.2H.2A.2.2,0,0,0,0,.2,7.283,7.283,0,0,0,.228,2.022Z" transform="translate(3.368 10.227)"/><path class="h" d="M.293.966A1.359,1.359,0,0,1,.586.85V.293A.293.293,0,0,0,0,.293V.85A1.354,1.354,0,0,1,.293.966Z" transform="translate(3.643 11.432)"/><path class="f" d="M6.928,5.128H5.87a1.043,1.043,0,0,1-1.027-.851l-.01-.056a1.039,1.039,0,0,1,.655-1.16l2.364-.9A2.732,2.732,0,0,0,6.1,0a1.176,1.176,0,0,1-.816.335A.039.039,0,0,0,5.265.4a.861.861,0,0,1,.357.479A.148.148,0,0,1,5.587,1a.376.376,0,0,1-.283.086h0A2.146,2.146,0,0,1,4.35.792,2.406,2.406,0,0,1,3.961.528a.039.039,0,0,0-.05,0,2.4,2.4,0,0,1-.389.264,2.145,2.145,0,0,1-.954.3A.376.376,0,0,1,2.284,1,.148.148,0,0,1,2.249.884.861.861,0,0,1,2.606.4a.039.039,0,0,0-.02-.069A1.175,1.175,0,0,1,1.77,0,2.7,2.7,0,0,0,0,2.474,2.819,2.819,0,0,0,2.93,5.168H6.992C7.036,5.168,7,5.152,6.928,5.128Z" transform="translate(0 12.706)"/><path class="e" d="M1.268,2.474A2.625,2.625,0,0,1,2.445.315,1.028,1.028,0,0,1,1.77,0,2.7,2.7,0,0,0,0,2.474,2.819,2.819,0,0,0,2.93,5.168H4.2A2.819,2.819,0,0,1,1.268,2.474Z" transform="translate(0 12.706)"/><path class="k" d="M4.465.485C4.465.217,3.915,0,3.237,0a2.177,2.177,0,0,0-1,.206,2.177,2.177,0,0,0-1-.206C.55,0,0,.217,0,.485,0,.7.371.89.878.95.568,1.2.425,1.459.552,1.6c.168.189.743.1,1.286-.2a2.448,2.448,0,0,0,.4-.269,2.457,2.457,0,0,0,.4.269c.542.3,1.118.39,1.285.2C4.04,1.459,3.9,1.2,3.587.95,4.095.89,4.465.7,4.465.485Z" transform="translate(1.703 12.13)"/><path class="h" d="M4.522,2.261l-.079-.424a.271.271,0,0,0-.315-.216l-3.036.558L3.03.882A.268.268,0,0,0,3.116.526L2.9.138a.271.271,0,0,0-.374-.1L0,1.527.477,4.1l2.893.52A.271.271,0,0,0,3.686,4.4l.065-.439a.266.266,0,0,0,0-.088.27.27,0,0,0-.206-.214L1.269,3.133,4.3,2.575A.27.27,0,0,0,4.522,2.261Z" transform="translate(15.473 12.089)"/><path class="l" d="M.028,4.575a1.082,1.082,0,0,0,1.066.883l9.139,0A1.08,1.08,0,0,0,11.3,4.18l-.611-3.3A1.084,1.084,0,0,0,9.236.071L.7,3.315a1.078,1.078,0,0,0-.679,1.2Z" transform="translate(4.776 12.416)"/><g class="c" transform="translate(4.766 12.383)"><path d="M.028,4.575A1.073,1.073,0,0,0,.1,4.8a1.128,1.128,0,0,1,.584-.5L9.6.909a1.13,1.13,0,0,1,1.13.189l-.04-.216A1.084,1.084,0,0,0,9.236.071L.7,3.315a1.078,1.078,0,0,0-.679,1.2Z" transform="translate(0.01 0.033)"/></g><g transform="translate(6.68 13.359)"><path class="j" d="M.581.238a.293.293,0,0,0-.575.11L.246,1.609h.6Z" transform="translate(7.225 2.902)"/><path class="j" d="M.581.239A.293.293,0,1,0,.005.347l.173.915h.6Z" transform="translate(5.637 3.249)"/><path class="j" d="M.262,1.251A.293.293,0,0,0,.83,1.107L.551,0,0,.21Z" transform="translate(4.403 0.03)"/><path class="j" d="M.581.241A.293.293,0,1,0,0,.345L.217,1.521h.6Z" transform="translate(2.56 2.991)"/><path class="j" d="M.164.991A.293.293,0,0,0,.737.87L.554,0,0,.211Z" transform="translate(0.022 1.694)"/></g></g></svg>