<svg xmlns="http://www.w3.org/2000/svg" width="14.458" height="20" viewBox="0 0 14.458 20"><defs><style>.a{fill:#e69f5f;}.b{fill:#e09156;}.c{fill:#ffd7a3;}.d{fill:#fdc88e;}.e{fill:#ffe1b2;}.f{fill:#623f33;}.g{fill:#e4b07b;}.h{fill:#ff6473;}.i{fill:#f05467;}.j{fill:#d4445a;}</style></defs><path class="a" d="M14.458,17.277a20.8,20.8,0,0,1-7.229,1.037A20.8,20.8,0,0,1,0,17.277L.91,5.854A6.347,6.347,0,0,1,7.228,0h0a6.347,6.347,0,0,1,6.317,5.854Z"/><path class="b" d="M8.916.275A6.1,6.1,0,0,0,7.106,0h0A6.281,6.281,0,0,0,.895,5.849L0,17.262a15.4,15.4,0,0,0,3.53.81Z"/><path class="c" d="M13,14l-.065-.224a.226.226,0,0,0-.246-.161l-.229-1.718a1.717,1.717,0,0,0-.934-1.309l-.74-.37a.217.217,0,0,0-.29.1L9.035,9.775a.687.687,0,0,1-.469-.652V8.015L10.045,7.4a2.061,2.061,0,0,0,1.268-1.9V5.153a1.031,1.031,0,0,0,0-2.061V2.4c0-.949-.769-2.4-1.717-2.4H3.416C2.468,0,1.7,1.456,1.7,2.4v.687a1.031,1.031,0,0,0,0,2.061V5.5A2.061,2.061,0,0,0,2.967,7.4l1.479.617V9.123a.687.687,0,0,1-.469.652l-1.463.539a.216.216,0,0,0-.289-.1l-.674.337a1.754,1.754,0,0,0-1,1.342L.32,13.612a.226.226,0,0,0-.246.161L.009,14a.227.227,0,0,0,.154.281l.506.148v1.031a.687.687,0,0,0,.687.687h10.3a.687.687,0,0,0,.687-.687V14.426l.506-.148A.227.227,0,0,0,13,14Z" transform="translate(0.723 3.855)"/><path class="d" d="M4.337,0H.324V1.056A.652.652,0,0,1,0,1.617,4.591,4.591,0,0,0,4.337,0Z" transform="translate(4.819 11.807)"/><path class="e" d="M10.546,3.123V2.429c0-.958-.762-2.429-1.7-2.429H2.721c-.939,0-1.7,1.471-1.7,2.429v.694a1.041,1.041,0,0,0,0,2.082v.347A2.083,2.083,0,0,0,2.277,7.474l2.2.934a3.344,3.344,0,0,0,1.308.267h0a3.344,3.344,0,0,0,1.308-.267l2.2-.934a2.083,2.083,0,0,0,1.256-1.922V5.2a1.041,1.041,0,0,0,0-2.082Z" transform="translate(1.446 3.855)"/><path class="f" d="M.361.964h0A.344.344,0,0,1,0,.643V.321A.344.344,0,0,1,.361,0h0A.344.344,0,0,1,.723.321V.643A.344.344,0,0,1,.361.964Z" transform="translate(9.157 7.229)"/><path class="g" d="M1.687.964A2.938,2.938,0,0,1,.148.582.307.307,0,0,1,.059.139.35.35,0,0,1,.527.055a2.267,2.267,0,0,0,1.16.272A2.267,2.267,0,0,0,2.846.055a.35.35,0,0,1,.469.084.307.307,0,0,1-.089.442A2.938,2.938,0,0,1,1.687.964Z" transform="translate(5.542 9.639)"/><path class="c" d="M2.79,5.68a1.675,1.675,0,0,1-.422-1.122V3.051A12.388,12.388,0,0,0,8.193.43L7.778,0A13.458,13.458,0,0,1,1.014,2.014h0A1.033,1.033,0,0,0,0,3.065,1.033,1.033,0,0,0,1.014,4.116v.35a2.1,2.1,0,0,0,1.249,1.94l2.185.943a3.31,3.31,0,0,0,.327.12A14.279,14.279,0,0,1,2.79,5.68Z" transform="translate(1.446 4.819)"/><path class="h" d="M12.53,3.805l-.276-2.082A1.737,1.737,0,0,0,11.316.4L10.573.024a.22.22,0,0,0-.31.146,4.147,4.147,0,0,1-4,3.074,4.147,4.147,0,0,1-4-3.075A.218.218,0,0,0,1.964.023L1.286.364A1.774,1.774,0,0,0,.281,1.723L0,3.845c.912.316,2.472.789,2.472.789v1.39h7.591V4.634Z" transform="translate(0.964 13.976)"/><path class="i" d="M2.41,3.373a2.173,2.173,0,0,0-.4-1.163L.423,0A1.775,1.775,0,0,0,.268.525L0,2.624Z" transform="translate(0.964 15.181)"/><path class="j" d="M.009.4a.233.233,0,0,0,.15.287l2.492.764V1.184A2.194,2.194,0,0,0,2.59.7L.345.009A.219.219,0,0,0,.072.166Z" transform="translate(0.723 17.349)"/><path class="i" d="M0,3.373A2.173,2.173,0,0,1,.4,2.21L1.987,0a1.775,1.775,0,0,1,.154.525l.268,2.1Z" transform="translate(11.084 15.181)"/><path class="j" d="M2.642.4a.233.233,0,0,1-.15.287L0,1.446V1.184A2.194,2.194,0,0,1,.061.7L2.305.009a.219.219,0,0,1,.273.157Z" transform="translate(11.084 17.349)"/><path class="f" d="M.361.964h0A.344.344,0,0,1,0,.643V.321A.344.344,0,0,1,.361,0h0A.344.344,0,0,1,.723.321V.643A.344.344,0,0,1,.361.964Z" transform="translate(4.578 7.229)"/><path class="a" d="M0,4.056.012,6.322A16.775,16.775,0,0,0,7.661,4.408,24.064,24.064,0,0,1,5.135,6.747,19.777,19.777,0,0,0,9.88,4.035h0A4.035,4.035,0,0,0,5.845,0H4.035A4.035,4.035,0,0,0,0,4.056Z" transform="translate(1.687 0.723)"/><path class="b" d="M6.988.194A3.952,3.952,0,0,0,5.761,0H3.977A3.988,3.988,0,0,0,0,4.019L.011,6.265a15.443,15.443,0,0,0,2.631-.228A14.717,14.717,0,0,0,6.988.194Z" transform="translate(1.687 0.723)"/></svg>