<svg xmlns="http://www.w3.org/2000/svg" width="40" height="50.5" viewBox="0 0 40 50.5"><defs><style>.a{fill:#436b1c;}.b{fill:#71ab3d;}.c{fill:#88c057;}.d{fill:#e8a73f;}.e{fill:#cadae4;}.f{fill:#eeaf4b;}.g{fill:#dc3529;}.h{fill:#ed3f32;}.i{fill:#a46f3e;}.j{fill:#dae7ef;}.k{fill:#fff;}.l{fill:#f0c77f;}.m{fill:#fbd490;}</style></defs><path class="a" d="M4.162,4a.832.832,0,0,1-.715-.416A3.3,3.3,0,0,0,.865,1.748.877.877,0,0,1,0,.9.859.859,0,0,1,.813,0C2.581-.053,4.089,1.341,4.875,2.669A.894.894,0,0,1,4.6,3.87.809.809,0,0,1,4.162,4Z" transform="translate(0 14)"/><path class="b" d="M18.056,5.677A3.43,3.43,0,0,0,14.65,2.465h-.016a2.154,2.154,0,0,0-.073-.858A2.231,2.231,0,0,0,12.721.017a2.181,2.181,0,0,0-1.812.625A2.41,2.41,0,0,0,9.279,0,2.453,2.453,0,0,0,6.837,2.465s0,.008,0,.013A3.19,3.19,0,0,0,3.907,5.669,3.256,3.256,0,0,0,4,6.417,3.7,3.7,0,0,0,.982,11.955a2.716,2.716,0,0,0-.146,4.051c2.2-1.815,4.511,4.254,7.232,9.1.9,1.609,10.669-.1,11.447.895C20.4,25.2,20.975,11.183,21,9.952A4.437,4.437,0,0,0,18.056,5.677Z" transform="translate(6)"/><path class="c" d="M18.056,5.677A3.43,3.43,0,0,0,14.65,2.465h-.016a2.154,2.154,0,0,0-.073-.858A2.231,2.231,0,0,0,12.721.017a2.181,2.181,0,0,0-1.812.625A2.41,2.41,0,0,0,9.279,0,2.453,2.453,0,0,0,6.837,2.465s0,.008,0,.013A3.19,3.19,0,0,0,3.907,5.669,3.256,3.256,0,0,0,4,6.417,3.7,3.7,0,0,0,.982,11.955a2.716,2.716,0,0,0-.146,4.051c2.2-1.815,4.511,4.254,7.232,9.1.9,1.609,10.669-.1,11.447.895C20.4,25.2,20.975,11.183,21,9.952A4.437,4.437,0,0,0,18.056,5.677Z" transform="translate(5)"/><path class="d" d="M2.825,24.453l.637-.394a3.628,3.628,0,0,1,3.832,0l.637.394a3.628,3.628,0,0,0,3.832,0l1.8-.826c.265-.761.449-1.312.522-1.557A66.072,66.072,0,0,0,17,4.777c.059-2.354-1.829-6.024-4.966-4.356C8.949,2.059,6.741,8.344,5.189,11.328A66.207,66.207,0,0,0,0,24.878,3.623,3.623,0,0,0,2.825,24.453Z" transform="translate(23)"/><path class="e" d="M1.742,5.453C.915,6.578-.391,7.91.112,10.262l1.352,6.323h0l.624-.382a3.578,3.578,0,0,1,3.753,0l.624.382A3.522,3.522,0,0,0,7.453,17,65.431,65.431,0,0,1,11,6.995c-.678-1.733-2.125-2.313-3.175-2.906l-.018-.01A1.265,1.265,0,0,1,7.6,2.167a1.029,1.029,0,0,0,.22-.877L7.715.8A.993.993,0,0,0,6.537.023L1.217,1.21a1.015,1.015,0,0,0-.756,1.2l.106.494a1,1,0,0,0,.574.709,1.242,1.242,0,0,1,.711,1.66A1.388,1.388,0,0,1,1.742,5.453Z" transform="translate(15 8)"/><path class="f" d="M2.825,24.453l.637-.394a3.628,3.628,0,0,1,3.832,0l.637.394a3.628,3.628,0,0,0,3.832,0l1.8-.826c.265-.761.449-1.312.522-1.557A66.072,66.072,0,0,0,17,4.777c.059-2.354-1.829-6.024-4.966-4.356C8.949,2.059,6.741,8.344,5.189,11.328A66.207,66.207,0,0,0,0,24.878,3.623,3.623,0,0,0,2.825,24.453Z" transform="translate(22)"/><path class="g" d="M1.012,8.487l1.2.757a4.145,4.145,0,0,0,4.464,0l.308-.2a3.539,3.539,0,0,1,3.812,0l.634.4a3.542,3.542,0,0,0,2.251.533,8.5,8.5,0,0,0-.5-6c-2.967-5.521-5.434-4.4-7.809-2a3.845,3.845,0,0,1-1.618.979C1.142,3.744-.78,5.028.313,8.526A.6.6,0,0,1,1.012,8.487Z" transform="translate(1 15)"/><path class="h" d="M1.012,8.487l1.2.757a4.145,4.145,0,0,0,4.464,0l.308-.2a3.539,3.539,0,0,1,3.812,0l.634.4a3.542,3.542,0,0,0,2.251.533,8.5,8.5,0,0,0-.5-6c-2.967-5.521-5.434-4.4-7.809-2a3.845,3.845,0,0,1-1.618.979C1.142,3.744-.78,5.028.313,8.526A.6.6,0,0,1,1.012,8.487Z" transform="translate(0 15)"/><path class="i" d="M.888,5A.864.864,0,0,1,.6,4.951.924.924,0,0,1,.048,3.788,3.329,3.329,0,0,1,4.285,1.632,1.554,1.554,0,0,0,6.269.623.881.881,0,0,1,7.4.049a.924.924,0,0,1,.555,1.163A3.323,3.323,0,0,1,3.715,3.369,1.557,1.557,0,0,0,1.731,4.378.893.893,0,0,1,.888,5Z" transform="translate(26 17)"/><path class="i" d="M.889,5A.864.864,0,0,1,.6,4.951.924.924,0,0,1,.048,3.788,3.4,3.4,0,0,1,1.734,1.8a3.227,3.227,0,0,1,2.552-.172A1.552,1.552,0,0,0,6.27.623.881.881,0,0,1,7.4.049a.924.924,0,0,1,.556,1.163A3.325,3.325,0,0,1,3.714,3.369a1.507,1.507,0,0,0-1.195.08,1.591,1.591,0,0,0-.789.929A.891.891,0,0,1,.889,5Z" transform="translate(28 11)"/><path class="i" d="M.894,4a.976.976,0,0,1-.288-.043A.806.806,0,0,1,.048,2.916,3.023,3.023,0,0,1,3.787,1.223a1.248,1.248,0,0,0,.887-.052A1.094,1.094,0,0,0,5.26.557.914.914,0,0,1,6.394.044a.806.806,0,0,1,.558,1.041A2.776,2.776,0,0,1,5.465,2.642a3.17,3.17,0,0,1-2.252.135,1.188,1.188,0,0,0-1.472.667A.893.893,0,0,1,.894,4Z" transform="translate(30 5)"/><path class="j" d="M1.742,5.453C.915,6.578-.391,7.91.112,10.262l1.352,6.323h0l.624-.382a3.578,3.578,0,0,1,3.753,0l.624.382A3.522,3.522,0,0,0,7.453,17,65.431,65.431,0,0,1,11,6.995c-.678-1.733-2.125-2.313-3.175-2.906l-.018-.01A1.265,1.265,0,0,1,7.6,2.167a1.029,1.029,0,0,0,.22-.877L7.715.8A.993.993,0,0,0,6.537.023L1.217,1.21a1.015,1.015,0,0,0-.756,1.2l.106.494a1,1,0,0,0,.574.709,1.242,1.242,0,0,1,.711,1.66A1.388,1.388,0,0,1,1.742,5.453Z" transform="translate(14 8)"/><path class="k" d="M7.98,2.716,1.666,3.973a1.308,1.308,0,0,1-1.545-.9L.03,2.692a1.191,1.191,0,0,1,.99-1.408L7.334.027a1.308,1.308,0,0,1,1.545.9l.091.378A1.19,1.19,0,0,1,7.98,2.716Z" transform="translate(14 8)"/><path class="l" d="M37,.312l-1.578,23.5A4.323,4.323,0,0,1,31.176,28H5.786a4.323,4.323,0,0,1-4.245-4.187L0,1.082A.645.645,0,0,1,.975.475l1.217.758a4.274,4.274,0,0,0,4.541,0l.313-.2a3.649,3.649,0,0,1,3.878,0l.645.4a3.649,3.649,0,0,0,3.878,0l.645-.4a3.649,3.649,0,0,1,3.878,0l.645.4a3.649,3.649,0,0,0,3.878,0l.645-.4a3.649,3.649,0,0,1,3.878,0l.645.4a3.649,3.649,0,0,0,3.878,0L36.6.026A.286.286,0,0,1,37,.312Z" transform="translate(1 22.5)"/><path class="m" d="M37,.3,35.421,22.963A4.252,4.252,0,0,1,31.176,27H5.786a4.252,4.252,0,0,1-4.245-4.037L0,1.044A.644.644,0,0,1,.975.458l1.217.731a4.409,4.409,0,0,0,4.541,0L7.045,1a3.763,3.763,0,0,1,3.878,0l.645.388a3.763,3.763,0,0,0,3.878,0L16.09,1a3.763,3.763,0,0,1,3.878,0l.645.388a3.763,3.763,0,0,0,3.878,0L25.135,1a3.763,3.763,0,0,1,3.878,0l.645.388a3.763,3.763,0,0,0,3.878,0L36.6.025A.285.285,0,0,1,37,.3Z" transform="translate(0 23)"/></svg>