<svg xmlns="http://www.w3.org/2000/svg" width="45" height="45" viewBox="0 0 45 45"><defs><style>.a{fill:#f29123;}.b{fill:#fff;}</style></defs><circle class="a" cx="22.5" cy="22.5" r="22.5"/><path class="b" d="M16.376,20H1c-1,0-1-.876-1-1.25V1.125C0,.861.063,0,.875,0H4.124C5,0,5,.876,5,1.25v1c0,.238.207.271.431.271.046,0,.094,0,.144,0l.049,0h.014l.053,0,.029,0,.052,0C5.845,2.5,5.921,2.5,6,2.5H16.5a.877.877,0,0,1,.723.316.945.945,0,0,1,.152.809V18.75C17.375,19.364,17.375,20,16.376,20Zm-6.75-5c-.606,0-.876.193-.876.625s.27.625.876.625h5.25c.6,0,.874-.193.875-.625S15.48,15,14.875,15Zm-6.89-2.03a.879.879,0,0,0-.61.282.63.63,0,0,0-.175.454.956.956,0,0,0,.3.67l1.5,1.5a.906.906,0,0,0,1.25,0L6.875,14a.808.808,0,0,0-.126-1.125.6.6,0,0,0-.515-.281.877.877,0,0,0-.609.281L4.25,14.251l-1-1A.6.6,0,0,0,2.735,12.969ZM9.626,7.5c-.606,0-.876.193-.876.625s.27.625.876.625h5.25c.6,0,.874-.193.875-.625s-.27-.625-.875-.625Zm-6.89-2.03a.881.881,0,0,0-.61.281.8.8,0,0,0,.124,1.125l1.5,1.5c.125.25.379.25.625.25a.821.821,0,0,0,.446-.151c.068-.04.119-.068.179-.1L6.875,6.5a.939.939,0,0,0,0-1.124.833.833,0,0,0-1.25,0L4.25,6.751l-1-1A.6.6,0,0,0,2.735,5.469Z" transform="translate(14 13)"/></svg>