<svg xmlns="http://www.w3.org/2000/svg" width="19.574" height="19.574" viewBox="0 0 19.574 19.574"><defs><style>.a{fill:#afd656;}</style></defs><g transform="translate(-0.2 -0.213)"><path class="a" d="M9.787,19.574a9.787,9.787,0,1,1,9.788-9.788A9.8,9.8,0,0,1,9.787,19.574Zm0-18.324a8.537,8.537,0,1,0,8.536,8.537A8.547,8.547,0,0,0,9.788,1.25Z" transform="translate(0.2 0.213)"/><path class="a" d="M1.3,2.6A1.3,1.3,0,1,0,0,1.3,1.3,1.3,0,0,0,1.3,2.6Z" transform="translate(4.987 6.538)"/><path class="a" d="M1.3,2.6A1.3,1.3,0,1,0,0,1.3,1.3,1.3,0,0,0,1.3,2.6Z" transform="translate(12.391 6.538)"/><path class="a" d="M9.662,0a.624.624,0,0,0-.625.625A3.692,3.692,0,0,1,5.143,4.268,3.692,3.692,0,0,1,1.25.625.625.625,0,0,0,0,.625,4.913,4.913,0,0,0,5.143,5.518,4.913,4.913,0,0,0,10.287.625.626.626,0,0,0,9.662,0Z" transform="translate(4.844 10.585)"/></g></svg>