<svg xmlns="http://www.w3.org/2000/svg" xmlns:xlink="http://www.w3.org/1999/xlink" width="49.78" height="42.917" viewBox="0 0 49.78 42.917"><defs><style>.a{fill:none;}.b{fill:#056839;}.c{fill:#f8af41;}.d{fill:#11a651;}.e{clip-path:url(#a);}.f{fill:#08873e;}.g{fill:#057c39;}.h{clip-path:url(#b);}.i{fill:#31a444;}.j{fill:#dc223c;}.k{fill:#e15b56;}.l{fill:#c91d36;}.m{fill:#fefefe;}.n{fill:#912a2a;}.o{fill:#da6aa5;}.p{fill:#e29f70;}.q{clip-path:url(#c);}.r{clip-path:url(#d);}.s{fill:#e19214;}.t{fill:#44ad4d;}.u{clip-path:url(#e);}.v{fill:#049345;}.w{clip-path:url(#f);}.x{fill:#ecc20f;}</style><clipPath id="a"><path class="a" d="M0,0H7.583V12.138H0Z" transform="translate(0.027 0.083)"/></clipPath><clipPath id="b"><path class="a" d="M0,0H9.457V10.54H0Z" transform="translate(0 0.074)"/></clipPath><clipPath id="c"><path class="a" d="M0,0H3.962V1.914H0Z" transform="translate(0.128 0.154)"/></clipPath><clipPath id="d"><path class="a" d="M0,0H3.962V1.914H0Z" transform="translate(0.035 0.154)"/></clipPath><clipPath id="e"><path class="a" d="M0,0H27.816V16.833H0Z" transform="translate(0 0.12)"/></clipPath><clipPath id="f"><path class="a" d="M0,0H18.813V16.723H0Z" transform="translate(0.007 0.123)"/></clipPath></defs><g transform="translate(-12 -481.083)"><g transform="translate(42 481)"><path class="b" d="M0,1.357,2.286,5l.737-1.091L1.785,2.239,4,2.195V0Z" transform="translate(0 24)"/><path class="c" d="M1.5,0,0,1.725l1.308.26-.241.5S.552,2.213.5,2.376a.283.283,0,0,0,.079.342s-.148.455.4.439a2,2,0,0,0,.908-.239l.29-1.487Z" transform="translate(1.233 27.271)"/><path class="b" d="M0,0,4.431,1.25,1.9,4.6l-.816-1L2.454,2.062,0,2.021Z" transform="translate(12.972 24.215)"/><path class="c" d="M.668,0l1.5,1.725-1.308.26.241.5s.515-.276.568-.114a.283.283,0,0,1-.079.342s.149.455-.4.439A2,2,0,0,1,.29,2.918L0,1.431Z" transform="translate(13.515 27.271)"/><path class="d" d="M11.711,9.944c-.7.164-1.587.4-2.161.526A6.848,6.848,0,0,0,7.3,8.337,3.389,3.389,0,0,0,5.86,7.931a3.5,3.5,0,0,0-1.645.523A7.121,7.121,0,0,0,2.167,10.47c-.717-.153-1.436-.3-2.167-.447A23.24,23.24,0,0,1,.341,7.651c.1-.538.218-1.091.345-1.64.045-.2.092-.407.141-.609.041-.169.082-.339.121-.506C1.6,2.274,2.325,0,2.325,0H9.392s.674,2.106,1.3,4.6c.049.193.1.388.145.585s.1.411.147.618c.11.47.214.945.308,1.413a26.04,26.04,0,0,1,.419,2.728" transform="translate(2.664 23.317)"/><g transform="translate(5)"><path class="a" d="M0,0H7.583V12.138H0Z" transform="translate(0.027 0.083)"/><g class="e"><path class="f" d="M5.591,8.5A1.443,1.443,0,0,0,6.53,6.291a1.2,1.2,0,0,0,.292-2.219,1.133,1.133,0,0,0-.146-2.177A1.44,1.44,0,0,0,6.115.2a1.419,1.419,0,0,0-1.9.577A1.431,1.431,0,0,0,1.837,2.263C-.133,2.316-.085,4.681.986,4.912c-1.8,1.148-.752,2.565.122,2.78-1.492,1.283.261,2.049.836,2.636a2.732,2.732,0,0,1,.654,1.15c.393,1.015,1.335.787,1.537-.179.284-1.36,2.079-1.47,1.456-2.8" transform="translate(0.027 0.083)"/></g></g><path class="g" d="M1.888,0S-.18,3.674.013,15.21a16.259,16.259,0,0,0,.215,2.023A.22.22,0,0,0,.666,17.2C.6,15.666.6,10.261.779,8.156A64.477,64.477,0,0,1,1.888,0" transform="translate(7.931 2.739)"/><g transform="translate(10.323 5.409)"><path class="a" d="M0,0H9.457V10.54H0Z" transform="translate(0 0.074)"/><g class="h"><path class="i" d="M4.58,8.443A1.464,1.464,0,0,0,6.523,7,1.215,1.215,0,0,0,7.913,5.234c.744.3,2.07-1.007.99-1.952a1.441,1.441,0,0,0,.385-1.744C8.643.388,7.349,1.088,7.349,1.088a1.438,1.438,0,0,0-2.811.1C2.811.251,1.641,2.316,2.446,3.048.307,3.142.483,4.887,1.127,5.508-.817,5.871.3,7.406.5,8.2A2.7,2.7,0,0,1,.473,9.517c-.181,1.071.749,1.345,1.418.612C2.832,9.1,4.437,9.9,4.58,8.443" transform="translate(0 0.074)"/></g></g><path class="f" d="M8.522,0A31.083,31.083,0,0,0,.891,9.942C.539,10.669.253,11.3.02,11.837a.225.225,0,0,0,.406.191c.74-1.387,1.207-2.424,2.343-4.271A52.312,52.312,0,0,1,8.522,0" transform="translate(8.651 8.265)"/><path class="i" d="M3.449,7.675a1.3,1.3,0,0,1-1.47-1.582A1.083,1.083,0,0,1,1.052,4.31,1.016,1.016,0,0,1,.508,2.432,1.287,1.287,0,0,1,.46.836,1.276,1.276,0,0,1,2.24.754,1.286,1.286,0,0,1,4.7,1.3C6.372.755,7.058,2.762,6.226,3.275c1.867.43,1.42,1.936.75,2.378,1.65.635.409,1.8.105,2.47a2.422,2.422,0,0,0-.2,1.164c-.02.972-.883,1.062-1.349.308-.656-1.061-2.2-.618-2.084-1.92" transform="translate(0.08 6.051)"/><path class="f" d="M0,0A27.631,27.631,0,0,1,5.054,9.986c.188.7.335,1.295.449,1.809a.2.2,0,0,1-.389.1c-.419-1.34-.657-2.329-1.348-4.138A46.5,46.5,0,0,0,0,0" transform="translate(2.477 8.376)"/><path class="j" d="M.011,4.6A5.272,5.272,0,0,0,1.963,9.011C3,10,4.715,10.474,5.336,11.472a1.834,1.834,0,0,1-.91,2.519A2.509,2.509,0,0,0,6.012,13.3a5.453,5.453,0,0,0,1.146-1.483,4.34,4.34,0,0,1,1.713-1.576c1.495-.969,1.9-.947,2.924-2.066C13.354,6.478,14.5,0,6.207,0,1.963,0,.151,2.275.011,4.6" transform="translate(1.971 19.697)"/><path class="k" d="M2.777,1.37a1.379,1.379,0,0,1-1.389,1.37A1.379,1.379,0,0,1,0,1.37,1.379,1.379,0,0,1,1.389,0,1.379,1.379,0,0,1,2.777,1.37" transform="translate(4.485 22.279)"/><path class="l" d="M2.3,0C7.67,1.35,6.541,6.706,5.144,8.342A5.622,5.622,0,0,1,0,10.521a3.223,3.223,0,0,1,1.042.941,1.834,1.834,0,0,1-.91,2.519A2.509,2.509,0,0,0,1.718,13.3a5.453,5.453,0,0,0,1.147-1.483,4.339,4.339,0,0,1,1.712-1.576c1.495-.969,1.9-.947,2.924-2.066C9.035,6.5,10.164.2,2.3,0" transform="translate(6.265 19.706)"/><path class="d" d="M1.27.871a2.42,2.42,0,0,0-.826.511A1.563,1.563,0,0,0,.017,2.693a1.578,1.578,0,0,0,.8,1.13,2.29,2.29,0,0,0,1,.24c1.73.073,3.386-.96,5.107-.774a13.1,13.1,0,0,1,2.5.757,4.25,4.25,0,0,0,2.9.04,2.126,2.126,0,0,0,1.349-2.332A2.129,2.129,0,0,0,12.541.461,4.625,4.625,0,0,0,10.823.039,10.921,10.921,0,0,0,8.258.125,15.234,15.234,0,0,1,6.18.6c-1.7,0-3.254-.4-4.91.276" transform="translate(1.536 21.798)"/><path class="m" d="M1.571.775a.78.78,0,0,1-.786.775A.78.78,0,0,1,0,.775.78.78,0,0,1,.786,0a.78.78,0,0,1,.786.775" transform="translate(4.358 23.249)"/><path class="m" d="M0,.884A.891.891,0,0,1,.9,0a.89.89,0,0,1,.9.884" transform="translate(10.643 23.459)"/><path class="n" d="M3.806.479A2.1,2.1,0,0,1,2.6,1.957a1.848,1.848,0,0,1-.24.082,1.945,1.945,0,0,1-1.656-.3A1.757,1.757,0,0,1,.107.9,1.836,1.836,0,0,1,.054.706C.024.562-.046.223.045.091.162-.08.416.037.6.067A30.333,30.333,0,0,0,3.806.479" transform="translate(5.665 27.211)"/><path class="o" d="M2.254,1.241A1.944,1.944,0,0,1,.6.941,1.757,1.757,0,0,1,0,.1,2.264,2.264,0,0,1,1.265.081a1.341,1.341,0,0,1,.912.712,1.15,1.15,0,0,1,.077.448" transform="translate(5.772 28.009)"/><path class="p" d="M2.609,1.17H0A1.674,1.674,0,0,1,1.3,0c.983-.091,1.3,1.165,1.3,1.165" transform="translate(6.786 24.659)"/><g transform="translate(0.968 32.773)"><path class="a" d="M0,0H3.962V1.914H0Z" transform="translate(0.128 0.154)"/><g class="q"><path class="b" d="M1.9,1.186,0,1.914H3.241A9.849,9.849,0,0,1,3.962.632C3.291.479,2.166.143,1.482,0A7.02,7.02,0,0,1,1.9,1.186" transform="translate(0.128 0.154)"/></g></g><g transform="translate(11.935 32.773)"><path class="a" d="M0,0H3.962V1.914H0Z" transform="translate(0.035 0.154)"/><g class="r"><path class="b" d="M2.066,1.186l1.9.728H.721A9.84,9.84,0,0,0,0,.632C.672.479,1.8.143,2.48,0a6.99,6.99,0,0,0-.415,1.186" transform="translate(0.035 0.154)"/></g></g></g><g transform="translate(12 493)"><path class="s" d="M5.035,2.513c-1.21,1.654-2.555,3.225-3.9,4.794L0,8.636a1.961,1.961,0,0,0,1.966.655,9.7,9.7,0,0,1,.953-.285c.849-.118,1.6.523,2.458.6.988.091,1.881-.578,2.874-.624,1.3-.06,2.461.951,3.754.818.63-.065,1.2-.4,1.833-.44,1.235-.079,2.448.963,3.591.537a.885.885,0,0,0,.515-.426,1.071,1.071,0,0,0,.022-.615,21.725,21.725,0,0,0-1.791-5.707A4.442,4.442,0,0,0,13.8.59,6.791,6.791,0,0,0,11.974.361C10.376.281,8.8,0,7.192,0,6.229,0,6.37.132,6.053.858A8.9,8.9,0,0,1,5.035,2.513" transform="translate(5 13)"/><path class="t" d="M0,1.744A10.3,10.3,0,0,1,3.266,7.293a14.242,14.242,0,0,1,0,4.994A5.2,5.2,0,0,0,6.152,13a5.667,5.667,0,0,0,3.038-.793,19.655,19.655,0,0,1-.38-4.677C8.81,4.2,12,1.744,12,1.744L10.595.515a22.172,22.172,0,0,0-3.152,3.9V0H4.633V4.637A11.064,11.064,0,0,0,1.671.677Z" transform="translate(8 13)"/><path class="i" d="M2,4V0H0L.518,2.4A3.357,3.357,0,0,0,.947,3.478C1.21,3.9,2,4,2,4" transform="translate(14 13)"/><path class="i" d="M7,1.181,5.5,0s-.271.239-.665.618l.717.563S2.133,3.543,2.133,6.743c0,1.12.05,2.007.115,2.686A2.361,2.361,0,0,1,.075,11.961L0,11.968c.23.02.477.032.74.032a6.567,6.567,0,0,0,3.252-.762,17.051,17.051,0,0,1-.407-4.5C3.586,3.543,7,1.181,7,1.181" transform="translate(14 14)"/><path class="i" d="M.849,0h0L.563.173,0,.515A14.183,14.183,0,0,1,2.554,2.929,2.667,2.667,0,0,0,4,4,11.293,11.293,0,0,0,.849,0" transform="translate(9 14)"/><path class="a" d="M0,0H27.816V16.833H0Z" transform="translate(0 0.12)"/><g class="u"><path class="f" d="M6.871,16.8c-2.774.3-4.537-1.713-4.2-3.925A3.7,3.7,0,0,1,.1,8.558c.512-2.147,2.965-2.964,4.773-2.58A4.264,4.264,0,0,1,7.252,1.7a4.565,4.565,0,0,1,4.962.777A5.543,5.543,0,0,1,17.862.1a5.356,5.356,0,0,1,4.183,4.369,3.6,3.6,0,0,1,4.823.7A3.326,3.326,0,0,1,25.941,9.8a3.549,3.549,0,0,1,1.819,3.7,3.662,3.662,0,0,1-3.08,2.821,3.286,3.286,0,0,1-3.554-1.644,3.042,3.042,0,0,1-3.028.009,2.555,2.555,0,0,1-1.413-2.413,3.891,3.891,0,0,1-3.17,1.846c-1.264.145-1.966-.366-3.1-1.491-.212,2.59-1.177,3.918-3.549,4.171" transform="translate(0 0.12)"/></g><path class="v" d="M3,1.5A1.5,1.5,0,1,1,1.5,0,1.5,1.5,0,0,1,3,1.5" transform="translate(7 3)"/><path class="v" d="M3,1.5A1.5,1.5,0,1,1,1.5,0,1.5,1.5,0,0,1,3,1.5" transform="translate(2 8)"/><path class="v" d="M3,1.5A1.5,1.5,0,1,1,1.5,0,1.5,1.5,0,0,1,3,1.5" transform="translate(5 12)"/><g transform="translate(9)"><path class="a" d="M0,0H18.813V16.723H0Z" transform="translate(0.007 0.123)"/><g class="w"><path class="g" d="M16.985,10.015a3.5,3.5,0,0,0,.9-4.728,3.4,3.4,0,0,0-4.7-.718A5.369,5.369,0,0,0,9.108.1,5.3,5.3,0,0,0,3.6,2.53,4.311,4.311,0,0,0,0,1.357,3.759,3.759,0,0,1,3.027,5.144a3.326,3.326,0,0,1,2.789-.623A2.531,2.531,0,0,1,7.6,6.79a2.349,2.349,0,0,1,2.807.923,3.358,3.358,0,0,1-.121,3.086,2.5,2.5,0,0,1,.308,3.257,2.335,2.335,0,0,1-1.448.837c.064.042.127.086.195.121A2.848,2.848,0,0,0,12.291,15a3.157,3.157,0,0,0,3.465,1.68,3.641,3.641,0,0,0,3-2.883,3.683,3.683,0,0,0-1.773-3.786" transform="translate(0.007 0.123)"/></g></g><path class="x" d="M0,3.5,5.13,0,6,.94.6,6Z" transform="translate(17 13)"/><path class="s" d="M2.11,5C2.178,5.008,0,2.572,0,2.572l2.658-.754S2.089.737,2.35.545s.894.8.894.8S3.879,0,4.316,0s-.2,1.4-.2,1.4S5.35.7,5.634,1.011s-1.16,1.013-1.16,1.013S5.971,1.837,6,2.2s-2.515.479-2.515.479Z" transform="translate(20 11)"/><path class="x" d="M6,3.5.87,0,0,.94,5.4,6Z" transform="translate(6 13)"/><path class="s" d="M3.89,5C3.822,5.008,6,2.572,6,2.572L3.342,1.818S3.911.737,3.65.545s-.894.8-.894.8S2.121,0,1.684,0s.2,1.4.2,1.4S.65.7.366,1.011s1.16,1.013,1.16,1.013S.029,1.837,0,2.2s2.515.48,2.515.48Z" transform="translate(3 11)"/><path class="x" d="M0,9.5c.6.157,1.355.385,1.845.5A6.189,6.189,0,0,1,3.771,7.963,2.672,2.672,0,0,1,5,7.575a2.774,2.774,0,0,1,1.405.5A6.479,6.479,0,0,1,8.15,10c.612-.146,1.226-.291,1.85-.427-.05-.684-.154-1.458-.291-2.266-.087-.514-.186-1.042-.294-1.566-.038-.194-.079-.389-.12-.582-.035-.162-.07-.324-.1-.483C8.635,2.172,8.014,0,8.014,0H1.981S1.405,2.011.87,4.395c-.042.184-.084.371-.124.559s-.084.393-.126.59c-.094.449-.182.9-.263,1.349C.192,7.818.062,8.716,0,9.5" transform="translate(9 20)"/><path class="m" d="M2,1A1,1,0,1,1,1,0,1,1,0,0,1,2,1" transform="translate(8 7)"/><path class="m" d="M2,1A1,1,0,1,1,1,0,1,1,0,0,1,2,1" transform="translate(18 7)"/><path class="n" d="M0,.454a2.286,2.286,0,0,0,1.583,1.4,3.068,3.068,0,0,0,.315.078A3.372,3.372,0,0,0,4.073,1.65a1.8,1.8,0,0,0,.786-.8A1.353,1.353,0,0,0,4.929.67c.04-.136.131-.458.013-.584C4.787-.076,4.454.035,4.213.064,3.857.108.027.55,0,.454" transform="translate(13 12)"/><path class="o" d="M0,.948A4.217,4.217,0,0,0,2.2.718,1.673,1.673,0,0,0,3,.076,5.175,5.175,0,0,0,1.317.062,1.939,1.939,0,0,0,.1.606.557.557,0,0,0,0,.948" transform="translate(14 13)"/><path class="s" d="M1.564,1.239,3,2H.546A11.943,11.943,0,0,0,0,.66C.509.5,1.36.149,1.878,0a9.341,9.341,0,0,0-.314,1.239" transform="translate(17 29)"/><path class="s" d="M1.436,1.239,0,2H2.454A11.928,11.928,0,0,1,3,.66C2.491.5,1.64.149,1.122,0a9.315,9.315,0,0,1,.314,1.239" transform="translate(8 29)"/></g></g></svg>