<svg xmlns="http://www.w3.org/2000/svg" width="19.256" height="19.953" viewBox="0 0 19.256 19.953"><defs><style>.a{fill:#d0021b;}</style></defs><g transform="translate(-0.16 -0.023)"><path class="a" d="M13.121,2.274a8.725,8.725,0,0,1,1.027.68L13.9,2.762a8.464,8.464,0,0,1,1.526,1.526l-.191-.246a8.473,8.473,0,0,1,1.095,1.876c-.041-.1-.081-.2-.122-.291a8.56,8.56,0,0,1,.582,2.144c-.015-.107-.028-.216-.042-.326a8.575,8.575,0,0,1,0,2.246c.015-.107.028-.216.042-.326a8.389,8.389,0,0,1-.584,2.139c.041-.1.081-.2.122-.291a8.572,8.572,0,0,1-1.092,1.87l.191-.246A8.525,8.525,0,0,1,13.9,14.359l.246-.191a8.52,8.52,0,0,1-1.87,1.092l.291-.122a8.6,8.6,0,0,1-2.139.584l.326-.042a8.529,8.529,0,0,1-2.258,0l.326.042a8.389,8.389,0,0,1-2.139-.584l.291.122a8.572,8.572,0,0,1-1.87-1.092l.246.191a8.525,8.525,0,0,1-1.522-1.522l.191.246a8.52,8.52,0,0,1-1.092-1.87c.041.1.081.2.122.291a8.6,8.6,0,0,1-.584-2.139c.015.107.028.216.042.326a8.506,8.506,0,0,1,0-2.246c-.015.107-.028.216-.042.326a8.507,8.507,0,0,1,.582-2.144c-.041.1-.081.2-.122.291A8.5,8.5,0,0,1,4.022,4.042l-.191.246A8.624,8.624,0,0,1,5.356,2.762l-.246.191a8.525,8.525,0,0,1,1.027-.68A1.262,1.262,0,0,0,6.7,1.543,1.242,1.242,0,0,0,6.577.6,1.242,1.242,0,0,0,5.846.041a1.3,1.3,0,0,0-.94.122A9.642,9.642,0,0,0,0,8.761a9.624,9.624,0,0,0,4.531,7.974,9.64,9.64,0,0,0,9.315.484,9.527,9.527,0,0,0,1.971-1.284,9.666,9.666,0,0,0,1.606-1.725,9.569,9.569,0,0,0,1.135-2.055,8.346,8.346,0,0,0,.571-2.055A9.7,9.7,0,0,0,19.2,7.522a9.527,9.527,0,0,0-.635-2.546,10.585,10.585,0,0,0-.627-1.294,11.129,11.129,0,0,0-.818-1.168A9.6,9.6,0,0,0,15.288.773a8.631,8.631,0,0,0-.934-.609,1.263,1.263,0,0,0-.94-.122A1.248,1.248,0,0,0,12.683.6a1.226,1.226,0,0,0-.122.94,1.248,1.248,0,0,0,.56.73Z" transform="translate(0.16 1.784)"/><path class="a" d="M2.443,10.448v-8.1c0-.373,0-.745,0-1.115V1.222A1.258,1.258,0,0,0,2.085.359,1.234,1.234,0,0,0,1.223,0,1.233,1.233,0,0,0,.36.359,1.264,1.264,0,0,0,0,1.222v8.1c0,.373,0,.745,0,1.115v.016a1.258,1.258,0,0,0,.358.863,1.249,1.249,0,0,0,.863.358,1.233,1.233,0,0,0,.863-.358A1.265,1.265,0,0,0,2.443,10.448Z" transform="translate(8.569 0.024)"/></g></svg>