<svg xmlns="http://www.w3.org/2000/svg" width="40" height="30.236" viewBox="0 0 40 30.236"><defs><style>.a{fill:#fcf2d0;}.b{fill:#f6e3a3;}.c{fill:#89d47f;}.d{fill:#5ec783;}.e{fill:#8ee2cf;}.f{fill:#6fce91;}.g{fill:#9ca9ba;}.h{fill:#8b97a5;}.i{fill:#d2996f;}.j{fill:#e1b89a;}.k{fill:none;}</style></defs><g transform="translate(0 -0.039)"><path class="a" d="M37.01,3.78l-.722-.409a1.082,1.082,0,0,0-1.117.029L33.525,4.45a.558.558,0,0,1-.851-.392L32.3,1.6a1.1,1.1,0,0,0-.546-.8L31.4.6a4.611,4.611,0,0,0-4.551,0L21.69,3.521a4.611,4.611,0,0,1-4.551,0L11.983.6A4.611,4.611,0,0,0,7.431.6L1.819,3.78A3.6,3.6,0,0,0,0,6.918V25.784a2.3,2.3,0,0,0,3.422,2.027l4.155-2.353a4.443,4.443,0,0,1,4.4.082,1.2,1.2,0,0,0,1.518-.284l.932-1.135a.7.7,0,0,1,1.233.341l.458,2.894a1.219,1.219,0,0,0,.6.871l.415.235a4.611,4.611,0,0,0,4.551,0l5.156-2.921a4.611,4.611,0,0,1,4.551,0l4.009,2.271a2.3,2.3,0,0,0,3.422-2.027V6.918A3.6,3.6,0,0,0,37.01,3.78Z" transform="translate(0.586 0.627)"/><path class="b" d="M4.4,11.783c0-.033,0-.065,0-.1V0C3.438.306,1.764.5.872,1.252c-1.3,1.106-1.2,3.843.652,5.265,1.692,1.3.546,4.034,2.872,5.266Z" transform="translate(35.014 14.725)"/><path class="b" d="M7.431.6,1.818,3.78A3.6,3.6,0,0,0,0,6.917V25.784A2.3,2.3,0,0,0,3.422,27.81l4.009-2.271a4.613,4.613,0,0,1,2.276-.6V0A4.613,4.613,0,0,0,7.431.6Z" transform="translate(0.586 0.627)"/><path class="b" d="M7.431.6,2.276,3.521A4.614,4.614,0,0,1,0,4.122V29.06a4.614,4.614,0,0,0,2.276-.6l5.156-2.921a4.613,4.613,0,0,1,2.276-.6V0A4.613,4.613,0,0,0,7.431.6Z" transform="translate(20 0.627)"/><path class="c" d="M8.045,6.805A.83.83,0,0,0,8.8,5.641C7.872,3.519,5.994,0,4.434,0S1,3.519.071,5.641A.83.83,0,0,0,.824,6.805Z" transform="translate(22.473 15.453)"/><path class="d" d="M7.234,2.613C6.361,1.2,5.343,0,4.434,0,2.875,0,1,3.519.071,5.641A.83.83,0,0,0,.824,6.805H7.234Z" transform="translate(22.473 15.453)"/><path class="d" d="M6.615,4.614a1.493,1.493,0,0,0,.094-2.981,1.445,1.445,0,0,0-.344.019.428.428,0,0,1-.483-.287,2,2,0,0,0-3.787-.009.423.423,0,0,1-.452.284,1.451,1.451,0,0,0-.426.014,1.493,1.493,0,0,0,.259,2.961Z" transform="translate(4.394 7.039)"/><path class="e" d="M7.3,6.176a.753.753,0,0,0,.684-1.057C7.144,3.194,5.44,0,4.024,0S.9,3.194.064,5.119A.753.753,0,0,0,.748,6.176Z" transform="translate(7.495 7.528)"/><path class="f" d="M2.8,5.528V0A15.817,15.817,0,0,0,.064,4.471.753.753,0,0,0,.748,5.528Z" transform="translate(7.495 8.176)"/><path class="g" d="M.346,4.059.08,3.4A1.069,1.069,0,0,1,.9,1.942L1.5,1.848a1.056,1.056,0,0,0,.713-.454L2.747.606A1.363,1.363,0,0,1,4.854.41l.826.84a1.054,1.054,0,0,0,.6.3l1.162.173A1.07,1.07,0,0,1,8.19,3.333l-.515.87a1.054,1.054,0,0,1-.907.519H1.324a1.057,1.057,0,0,1-.978-.663Z" transform="translate(28.197 7.643)"/><path class="h" d="M1.51,0,1.5,0,.9.1A1.069,1.069,0,0,0,.08,1.558l.266.655a1.057,1.057,0,0,0,.978.663H1.51Z" transform="translate(28.197 9.49)"/><g transform="translate(2.656 17.374)"><path class="i" d="M2.1,4.235A2.118,2.118,0,0,1,2.1,0a2.118,2.118,0,0,1,0,4.235Zm0-3.051a.933.933,0,1,0,.923.933A.929.929,0,0,0,2.1,1.184Z" transform="translate(1.611 1.592)"/><path class="i" d="M.586,2.754A.589.589,0,0,1,0,2.161V.592A.589.589,0,0,1,.586,0a.589.589,0,0,1,.586.592V2.161A.589.589,0,0,1,.586,2.754Z" transform="translate(3.12 0.023)"/><path class="i" d="M2.138,1.185H.586A.589.589,0,0,1,0,.592.589.589,0,0,1,.586,0H2.138a.589.589,0,0,1,.586.592A.589.589,0,0,1,2.138,1.185Z" transform="translate(0.059 3.117)"/><path class="i" d="M.586,2.754A.589.589,0,0,1,0,2.161V.592A.589.589,0,0,1,.586,0a.589.589,0,0,1,.586.592V2.161A.589.589,0,0,1,.586,2.754Z" transform="translate(3.12 4.643)"/><path class="i" d="M2.138,1.185H.586A.589.589,0,0,1,0,.592.589.589,0,0,1,.586,0H2.138a.589.589,0,0,1,.586.592A.589.589,0,0,1,2.138,1.185Z" transform="translate(4.629 3.117)"/></g><path class="b" d="M.586,2.42a.581.581,0,0,1-.414-.174.6.6,0,0,1,0-.838L1.394.173a.582.582,0,0,1,.829,0,.6.6,0,0,1,0,.838L1,2.247A.581.581,0,0,1,.586,2.42Z" transform="translate(15.196 18.025)"/><path class="a" d="M.586,2.186a.581.581,0,0,1-.414-.173.6.6,0,0,1,0-.838l.992-1a.581.581,0,0,1,.829,0,.6.6,0,0,1,0,.838L1,2.013a.581.581,0,0,1-.414.173Z" transform="translate(24.267 6.392)"/><path class="a" d="M.586,2.032a.581.581,0,0,1-.414-.173.6.6,0,0,1,0-.838L1.01.174a.582.582,0,0,1,.829,0,.6.6,0,0,1,0,.838L1,1.859A.58.58,0,0,1,.586,2.032Z" transform="translate(3.308 14.089)"/><path class="j" d="M.586,1.651a.581.581,0,0,1-.414-.173.6.6,0,0,1,0-.838L.633.173a.582.582,0,0,1,.829,0,.6.6,0,0,1,0,.838L1,1.478A.581.581,0,0,1,.586,1.651Z" transform="translate(12.451 4.281)"/><path class="i" d="M.586,1.747a.581.581,0,0,1-.414-.173.6.6,0,0,1,0-.838L.728.173a.582.582,0,0,1,.829,0,.6.6,0,0,1,0,.838L1,1.574a.581.581,0,0,1-.414.173Z" transform="translate(34.193 23.288)"/><path class="k" d="M20,30.236a5.2,5.2,0,0,1-2.562-.671l-.415-.235a1.805,1.805,0,0,1-.893-1.294l-.458-2.893a.108.108,0,0,0-.084-.094.13.13,0,0,0-.036-.005.1.1,0,0,0-.084.044l-.932,1.135a1.778,1.778,0,0,1-2.256.422,4.134,4.134,0,0,0-2.03-.552,3.635,3.635,0,0,0-1.8.47L5.568,28.193a.583.583,0,0,1-.8-.227.6.6,0,0,1,.225-.806l2.881-1.633a4.83,4.83,0,0,1,2.374-.622,5.3,5.3,0,0,1,2.6.7.615.615,0,0,0,.78-.147l.932-1.135a1.273,1.273,0,0,1,.985-.472,1.333,1.333,0,0,1,.346.048,1.284,1.284,0,0,1,.932,1.05l.458,2.893a.623.623,0,0,0,.309.448l.415.235a4.056,4.056,0,0,0,3.978,0l5.156-2.921a5.225,5.225,0,0,1,5.125,0l4.009,2.271a1.7,1.7,0,0,0,.838.224,1.683,1.683,0,0,0,.865-.24,1.71,1.71,0,0,0,.8-1.087A4.4,4.4,0,0,1,37.1,23.7a3.148,3.148,0,0,0-.921-2.029,4.566,4.566,0,0,1-1.754-3.48,3.393,3.393,0,0,1,1.08-2.71,6.908,6.908,0,0,1,2.821-1.13h.011l.011,0h.005l.1-.023c.13-.031.253-.06.37-.09V9.548a.586.586,0,1,1,1.172,0V26.371c0,.034,0,.067,0,.1v.022a2.871,2.871,0,0,1-4.29,2.422L31.7,26.644a4.058,4.058,0,0,0-3.979,0l-5.155,2.92A5.2,5.2,0,0,1,20,30.236ZM38.828,15.454l-.2.049a6.2,6.2,0,0,0-2.363.889,2.253,2.253,0,0,0-.661,1.775,3.362,3.362,0,0,0,1.292,2.566,4.188,4.188,0,0,1,1.357,2.727l0,.008v.012a4.9,4.9,0,0,0,.573,1.7ZM2.675,29.281l-.037,0H2.619A2.9,2.9,0,0,1,0,26.372V7.505A4.2,4.2,0,0,1,2.118,3.851L7.731.671a5.223,5.223,0,0,1,5.124,0l5.156,2.92a4.05,4.05,0,0,0,3.978,0L27.145.671a5.223,5.223,0,0,1,5.124,0l.355.2a1.685,1.685,0,0,1,.839,1.221l.369,2.42,1.612-1.028a1.667,1.667,0,0,1,.9-.261,1.625,1.625,0,0,1,.821.217l.722.409a4.193,4.193,0,0,1,2.006,2.687.593.593,0,0,1-.435.713.575.575,0,0,1-.136.016.585.585,0,0,1-.57-.455,3,3,0,0,0-1.438-1.928l-.723-.409a.5.5,0,0,0-.248-.066.464.464,0,0,0-.27.079L34.423,5.539a1.1,1.1,0,0,1-.609.178,1.135,1.135,0,0,1-.476-.1,1.149,1.149,0,0,1-.657-.877L32.3,2.275a.505.505,0,0,0-.253-.369L31.7,1.7a4.056,4.056,0,0,0-3.978,0l-5.156,2.92a5.225,5.225,0,0,1-5.125,0L12.282,1.7A4.058,4.058,0,0,0,8.3,1.7L2.691,4.884A3.014,3.014,0,0,0,1.172,7.505V26.372A1.723,1.723,0,0,0,2.73,28.1a.593.593,0,0,1-.055,1.183Zm3.687-4.549a.59.59,0,0,1-.586-.592V23.078a2.125,2.125,0,0,1-1.425-1.441H3.3a.592.592,0,0,1,0-1.184h1.05a2.128,2.128,0,0,1,1.425-1.441V17.951a.586.586,0,1,1,1.172,0v1.061a2.129,2.129,0,0,1,1.426,1.441H9.423a.592.592,0,0,1,0,1.184H8.374a2.129,2.129,0,0,1-1.426,1.441v1.061A.59.59,0,0,1,6.362,24.731Zm0-4.62a.933.933,0,1,0,.923.933A.929.929,0,0,0,6.362,20.111Zm24.155,2.7H23.3a1.4,1.4,0,0,1-1.181-.647,1.433,1.433,0,0,1-.109-1.349A24.2,24.2,0,0,1,24,17.1c1.046-1.535,2-2.281,2.9-2.281s1.856.746,2.9,2.281a23.978,23.978,0,0,1,2,3.713,1.428,1.428,0,0,1-.109,1.349A1.4,1.4,0,0,1,30.517,22.811Zm-3.61-6.806c-.881,0-2.491,2.224-3.828,5.288a.229.229,0,0,0,.018.224.233.233,0,0,0,.2.109h7.221a.238.238,0,0,0,.218-.333C29.4,18.229,27.788,16.006,26.907,16.006ZM14.8,14.257H8.243a1.325,1.325,0,0,1-1.117-.611,1.353,1.353,0,0,1-.1-1.277c.022-.051.046-.106.072-.163H5.871a2.058,2.058,0,0,1-1.52-.676,2.107,2.107,0,0,1-.535-1.591A2.076,2.076,0,0,1,5.508,8.069a1.832,1.832,0,0,1,.36-.033c.038,0,.076,0,.113,0a2.576,2.576,0,0,1,4.369-.716A2.038,2.038,0,0,1,11.52,6.9c.842,0,1.718.685,2.678,2.094a21.983,21.983,0,0,1,1.818,3.379,1.358,1.358,0,0,1-.1,1.277A1.328,1.328,0,0,1,14.8,14.257ZM11.52,8.08a1.371,1.371,0,0,0-.836.49.573.573,0,0,1-.106.108,13.456,13.456,0,0,0-2.016,3.161.7.7,0,0,1-.031.066c-.143.292-.289.609-.435.942A.155.155,0,0,0,8.108,13a.158.158,0,0,0,.135.074H14.8A.159.159,0,0,0,14.932,13a.156.156,0,0,0,.012-.152C13.739,10.085,12.3,8.08,11.52,8.08ZM5.87,9.221a.9.9,0,0,0-.655,1.507.875.875,0,0,0,.656.292H7.659A18.374,18.374,0,0,1,8.842,8.99a10.684,10.684,0,0,1,.65-.857,1.407,1.407,0,0,0-1.11-.542,1.421,1.421,0,0,0-1.339.959,1.014,1.014,0,0,1-.954.683,1.114,1.114,0,0,1-.119-.007A.934.934,0,0,0,5.87,9.221Zm29.1,3.7H29.521A1.637,1.637,0,0,1,28,11.888l-.266-.655a1.668,1.668,0,0,1,.09-1.447A1.631,1.631,0,0,1,29,8.961l.608-.094a.471.471,0,0,0,.317-.2l.531-.788A1.947,1.947,0,0,1,31.9,7.02c.06-.005.121-.008.181-.008a1.933,1.933,0,0,1,1.388.584l.825.841a.476.476,0,0,0,.265.135l1.163.174a1.642,1.642,0,0,1,1.246.932,1.673,1.673,0,0,1-.076,1.564l-.516.869A1.648,1.648,0,0,1,34.965,12.919ZM32.081,8.2a.447.447,0,0,0-.075,0,.78.78,0,0,0-.577.343l-.532.788a1.649,1.649,0,0,1-1.107.706l-.608.095a.463.463,0,0,0-.337.236.473.473,0,0,0-.026.415l.266.656a.47.47,0,0,0,.436.3h5.444a.472.472,0,0,0,.4-.231l.516-.87a.475.475,0,0,0,.022-.448.467.467,0,0,0-.357-.267l-1.162-.173a1.644,1.644,0,0,1-.926-.473l-.826-.84A.772.772,0,0,0,32.081,8.2Z" transform="translate(0 0.039)"/></g></svg>