<svg xmlns="http://www.w3.org/2000/svg" width="29.901" height="35.375" viewBox="0 0 29.901 35.375"><defs><style>.a{fill:#e95454;}.b{fill:#ed6362;}.c{fill:#ffcc5b;}.d{fill:#fdbc4b;}.e{fill:#ffdb70;}.f{fill:#fff;opacity:0.2;}.g{fill:#ec9922;}</style></defs><g transform="translate(-0.041)"><path class="a" d="M7.725,0,0,14.555l7.015-.648,3.4,6.174L18.136,5.526Z" transform="translate(0.041 15.294)"/><g transform="translate(6.359 15.276)"><path class="b" d="M2.228,13.48a.986.986,0,0,0-.463-1.263L1.32,11.98a.951.951,0,0,1,.915-1.667l1.256.667a.793.793,0,0,0,1.075-.334l.031-.06a.75.75,0,0,0-.289-1.057L.55,7.535A.989.989,0,0,1,.081,6.271a.953.953,0,0,1,1.309-.438l3.486,1.85a.8.8,0,0,0,1.081-.332l.02-.051.006-.011a.835.835,0,0,0-.344-1.136L3.683,5.116a.989.989,0,0,1-.466-1.27.957.957,0,0,1,1.309-.438l2.16,1.147a.806.806,0,0,0,1.095-.372,192292332474.847,192292332474.847,0,0,0,.011-.022.805.805,0,0,0-.306-1.115L5.157,1.81A.987.987,0,0,1,4.693.549.953.953,0,0,1,6,.111l5.749,3.051L4.026,17.718,1.9,13.848A.9.9,0,0,0,2.228,13.48Z" transform="translate(0.064 2.38)"/><path class="b" d="M10.411,0l7.725,14.555-7.015-.648-3.4,6.174L0,5.526Z" transform="translate(5.447 0.017)"/></g><path class="a" d="M9.525,13.478a.986.986,0,0,1,.463-1.263l.445-.237a.951.951,0,0,0-.915-1.667l-1.256.667a.793.793,0,0,1-1.075-.334l-.031-.06a.75.75,0,0,1,.289-1.057l3.759-2a.989.989,0,0,0,.469-1.264.953.953,0,0,0-1.309-.438L6.877,7.681A.8.8,0,0,1,5.8,7.349L5.777,7.3l-.006-.011a.835.835,0,0,1,.344-1.136L8.07,5.114a.989.989,0,0,0,.466-1.27.957.957,0,0,0-1.309-.438L5.064,4.555a.806.806,0,0,1-1.095-.372,128907082140.521,128907082140.521,0,0,0-.011-.022.805.805,0,0,1,.306-1.115L6.6,1.81A.987.987,0,0,0,7.058.549.953.953,0,0,0,5.749.111L0,3.163,7.725,17.718l2.129-3.87A.921.921,0,0,1,9.525,13.478Z" transform="translate(11.808 17.657)"/><circle class="c" cx="12.908" cy="12.908" r="12.908" transform="translate(2.084 0)"/><path class="d" d="M14.621,10.458H6.441A1.163,1.163,0,0,1,5.283,9.3l.009-.08V9.2A1.209,1.209,0,0,1,6.5,7.983h5.669a1.434,1.434,0,0,0,1.459-1.308,1.386,1.386,0,0,0-1.379-1.45H6.247A1.169,1.169,0,0,1,5.1,4V3.969a1.169,1.169,0,0,1,1.149-1.22h6.284a1.431,1.431,0,0,0,1.45-1.3A1.381,1.381,0,0,0,12.6,0H8A12.906,12.906,0,0,0,8,23.875h5.843a1.431,1.431,0,0,0,1.45-1.3,1.38,1.38,0,0,0-1.379-1.449H7.267a1.375,1.375,0,0,1-1.374-1.45,1.428,1.428,0,0,1,1.451-1.3H9.922a1.377,1.377,0,0,0-.04-2.754H5.976a1.149,1.149,0,0,1-1.149-1.158v-.1a1.088,1.088,0,0,1,1.087-1.158h8.628A1.433,1.433,0,0,0,16,11.907,1.381,1.381,0,0,0,14.621,10.458Z" transform="translate(2.121 0.969)"/><path class="e" d="M9.214,18.427a9.213,9.213,0,1,1,9.214-9.213A9.225,9.225,0,0,1,9.214,18.427Z" transform="translate(5.778 3.694)"/><path class="f" d="M11.19,9.187A9.218,9.218,0,0,0,2.505,0H1.647A1.092,1.092,0,0,0,.541.991,1.054,1.054,0,0,0,1.593,2.1h5.07A1.048,1.048,0,0,1,7.71,3.2,1.089,1.089,0,0,1,6.6,4.2H4.637a1.05,1.05,0,0,0,.03,2.1h2.98a.876.876,0,0,1,.876.883v.073a.829.829,0,0,1-.829.883H1.114A1.094,1.094,0,0,0,0,9.127a1.054,1.054,0,0,0,1.052,1.106H7.291a.886.886,0,0,1,.883.883l-.007.061v.013a.922.922,0,0,1-.924.93H2.919a1.094,1.094,0,0,0-1.113,1,1.058,1.058,0,0,0,1.052,1.106h4.58a.891.891,0,0,1,.876.93v.027a.891.891,0,0,1-.876.93H2.645a1.092,1.092,0,0,0-1.106.991,1.053,1.053,0,0,0,1.052,1.106H3.855A9.229,9.229,0,0,0,11.19,9.187Z" transform="translate(13.015 3.721)"/><path class="g" d="M13.461,4.673H8.98L7.594.411a.6.6,0,0,0-1.131,0L5.078,4.673H.6A.6.6,0,0,0,.247,5.749L3.872,8.384,2.487,12.646a.6.6,0,0,0,.916.665l3.625-2.634,3.625,2.634a.6.6,0,0,0,.916-.665L10.185,8.384,13.81,5.749A.6.6,0,0,0,13.461,4.673Z" transform="translate(7.963 6.194)"/></g></svg>