<svg xmlns="http://www.w3.org/2000/svg" width="29.943" height="35.374" viewBox="0 0 29.943 35.374"><defs><style>.a{fill:#e95454;}.b{fill:#ed6362;}.c{fill:#e53e3d;}.d{fill:#ffcc5b;}.e{fill:#ffdb70;}.f{fill:#ec9922;}</style></defs><path class="a" d="M7.725,0,0,14.555l7.015-.648,3.4,6.174L18.136,5.526Z" transform="translate(0.041 15.294)"/><g transform="translate(11.359 15.276)"><path class="b" d="M10.411,0l7.725,14.555-7.015-.648-3.4,6.174L0,5.526Z" transform="translate(0.447 0.017)"/></g><path class="c" d="M1.979,0,6.871,9.233l-3.1-.283L0,1.632Z" transform="translate(23.071 20.616)"/><path class="c" d="M-1.979,0-6.871,9.233l3.1-.283L0,1.632Z" transform="translate(6.871 20.6)"/><circle class="d" cx="12.908" cy="12.908" r="12.908" transform="translate(2.084 0)"/><path class="e" d="M9.214,18.427a9.213,9.213,0,1,1,9.214-9.213A9.225,9.225,0,0,1,9.214,18.427Z" transform="translate(5.778 3.694)"/><path class="f" d="M13.461,4.673H8.98L7.594.411a.6.6,0,0,0-1.131,0L5.078,4.673H.6A.6.6,0,0,0,.247,5.749L3.872,8.384,2.487,12.646a.6.6,0,0,0,.916.665l3.625-2.634,3.625,2.634a.6.6,0,0,0,.916-.665L10.185,8.384,13.81,5.749A.6.6,0,0,0,13.461,4.673Z" transform="translate(7.963 6.194)"/></svg>