<svg xmlns="http://www.w3.org/2000/svg" width="30" height="37.862" viewBox="0 0 30 37.862"><defs><style>.a{fill:#b55c3c;}.b{fill:#cc7556;}.c{fill:#fdd78d;}.d{fill:#fdf7bd;}.e{fill:#f4aa39;}.f{fill:#f5b65d;}.g{fill:#fbc56d;}.h{fill:#f5dc90;}.i{fill:#ffe899;}.j{fill:#fdbf43;}</style></defs><g transform="translate(0 0)"><path class="a" d="M8.069,1.365v22.65A3.226,3.226,0,0,1,2.7,26.48,18.61,18.61,0,0,1,0,23.433V1.365A1.355,1.355,0,0,1,1.345,0H6.724A1.355,1.355,0,0,1,8.069,1.365Z" transform="translate(0 6.828)"/><path class="b" d="M27.31,7.4V23.318A18.6,18.6,0,0,1,24.6,26.34a7.023,7.023,0,0,1-2.8,1.235A17.493,17.493,0,0,1,0,10.569V1.359A1.358,1.358,0,0,1,1.356,0h24.6A1.358,1.358,0,0,1,27.31,1.359Z" transform="translate(2.69 6.828)"/><path class="c" d="M24.621.453V23.642A18.465,18.465,0,0,1,0,23.642V.453A.453.453,0,0,1,.453,0H24.168A.453.453,0,0,1,24.621.453Z" transform="translate(2.69 9.517)"/><path class="d" d="M24.544.456V13.647c0,4.237.361,4.224,1.721,7.093a.368.368,0,0,1-.1.352C22.7,24.536,10.739,27.712,2,24.583a.363.363,0,0,1-.233-.272C.591,18.385,0,16.984,0,10.941V.456A.453.453,0,0,1,.451,0H24.093A.453.453,0,0,1,24.544.456Z" transform="translate(2.69 9.31)"/><path class="e" d="M11.379,3.694v.739a.744.744,0,0,1-.749.739H.749A.744.744,0,0,1,0,4.433V3.694A3.723,3.723,0,0,1,3.743,0H7.636A3.723,3.723,0,0,1,11.379,3.694Z" transform="translate(9.31 5.379)"/><path class="f" d="M2.449,15.1h-1a1.428,1.428,0,0,1-1.061-.467,1.476,1.476,0,0,1-.383-1.118L.5,7.54H3.4l.494,5.979a1.475,1.475,0,0,1-.383,1.118A1.43,1.43,0,0,1,2.449,15.1ZM13.28,1.136H8.027A.377.377,0,0,1,7.653.757V.379A.377.377,0,0,1,8.027,0H13.28a.377.377,0,0,1,.374.379V.757A.377.377,0,0,1,13.28,1.136Z" transform="translate(7.448 16.552)"/><path class="g" d="M5.586,1.108V4.841A1.854,1.854,0,0,1,3.724,6.687V9.813H4.1a.369.369,0,1,1,0,.739H1.49a.369.369,0,1,1,0-.739h.372V6.687A1.854,1.854,0,0,1,0,4.841V1.108A1.111,1.111,0,0,1,1.038,0a.074.074,0,0,1,.08.074v4.21A.557.557,0,0,0,1.7,4.84a.566.566,0,0,0,.532-.569V.554a.559.559,0,0,1,1.117,0V4.287a.556.556,0,0,0,.586.553.566.566,0,0,0,.531-.569V.077A.074.074,0,0,1,4.549,0,1.111,1.111,0,0,1,5.586,1.108Z" transform="translate(6.621 14.069)"/><path class="h" d="M5.643,8.069H.376A.381.381,0,0,1,0,7.685V7.3a.381.381,0,0,1,.376-.384H5.643a.381.381,0,0,1,.376.384v.384A.381.381,0,0,1,5.643,8.069ZM7.9,5.764H.376A.381.381,0,0,1,0,5.379V4.995a.381.381,0,0,1,.376-.384H7.9a.381.381,0,0,1,.376.384v.384A.381.381,0,0,1,7.9,5.764ZM7.148,3.458H.376A.38.38,0,0,1,0,3.074V2.69a.381.381,0,0,1,.376-.384H7.148a.381.381,0,0,1,.376.384v.384A.38.38,0,0,1,7.148,3.458Zm.752-2.3H.376A.381.381,0,0,1,0,.769V.384A.381.381,0,0,1,.376,0H7.9a.381.381,0,0,1,.376.384V.769A.381.381,0,0,1,7.9,1.153Z" transform="translate(15.103 20.483)"/><path class="i" d="M4,1.5c-.3,0-.551-.337-.551-.751S3.7,0,4,0s.551.336.551.75S4.3,1.5,4,1.5Zm-1.724,0c-.3,0-.551-.337-.551-.751S1.972,0,2.276,0s.551.336.551.75S2.58,1.5,2.276,1.5ZM.551,1.5C.247,1.5,0,1.164,0,.75S.247,0,.551,0,1.1.336,1.1.75.855,1.5.551,1.5Z" transform="translate(15.103 30.207)"/><path class="j" d="M9.517,8.689H.751A.754.754,0,0,1,0,7.934c0-.01.065-.977.179-1.675a1.045,1.045,0,0,1,.76-.849l.007,0c-.09-.281-.183-.551-.278-.8A3.4,3.4,0,0,1,3.592.008C3.672,0,3.754,0,3.834,0a3.345,3.345,0,0,1,2.4,1.016A3.424,3.424,0,0,1,6.981,4.63c-.1.248-.189.509-.274.777A3.783,3.783,0,0,1,9.517,8.688ZM3.831,1.512c-.045,0-.091,0-.136,0A1.894,1.894,0,0,0,2.073,4.069c.152.4.289.813.408,1.22H5.17c.12-.405.259-.812.411-1.207A1.9,1.9,0,0,0,5.11,2.02,1.86,1.86,0,0,0,3.831,1.512Z" transform="translate(11.172)"/></g></svg>