<svg xmlns="http://www.w3.org/2000/svg" width="20" height="20" viewBox="0 0 20 20"><defs><style>.a{fill:#f29123;}</style></defs><g transform="translate(-178 -90)"><g transform="translate(178 90)"><path class="a" d="M10,20A10,10,0,1,1,20,10,10.011,10.011,0,0,1,10,20ZM10,1.667A8.334,8.334,0,1,0,18.334,10,8.343,8.343,0,0,0,10,1.667Z"/><path class="a" d="M2.5,1.25A1.25,1.25,0,1,1,1.25,0,1.25,1.25,0,0,1,2.5,1.25" transform="translate(5.834 6.666)"/><path class="a" d="M2.5,1.25A1.25,1.25,0,1,1,1.25,0,1.25,1.25,0,0,1,2.5,1.25" transform="translate(11.666 6.666)"/></g><rect class="a" width="8" height="2" rx="1" transform="translate(184 102)"/></g></svg>