<svg xmlns="http://www.w3.org/2000/svg" xmlns:xlink="http://www.w3.org/1999/xlink" width="18.355" height="19.989" viewBox="0 0 18.355 19.989"><defs><style>.a{fill:url(#a);}.b{fill:url(#b);}.c{fill:url(#c);}.d{fill:url(#d);}.e{fill:url(#e);}</style><linearGradient id="a" x1="0.421" y1="0.368" x2="1.281" y2="1.802" gradientUnits="objectBoundingBox"><stop offset="0" stop-color="#ffc200"/><stop offset="0.268" stop-color="#fb0"/><stop offset="0.659" stop-color="#ffa801"/><stop offset="1" stop-color="#ff9102"/></linearGradient><linearGradient id="b" x1="1.275" y1="1.149" x2="0.129" y2="0.003" gradientUnits="objectBoundingBox"><stop offset="0" stop-color="#ffc200" stop-opacity="0"/><stop offset="0.203" stop-color="#fb0" stop-opacity="0.204"/><stop offset="0.499" stop-color="#ffa700" stop-opacity="0.498"/><stop offset="0.852" stop-color="#f80" stop-opacity="0.851"/><stop offset="1" stop-color="#ff7800"/></linearGradient><linearGradient id="c" x1="0.377" y1="-0.531" x2="0.903" y2="3.885" xlink:href="#a"/><linearGradient id="d" x1="0.354" y1="0.583" x2="0.926" y2="1.18" xlink:href="#a"/><linearGradient id="e" x1="0.948" y1="-0.136" x2="-0.046" y2="1.152" xlink:href="#b"/></defs><g transform="translate(-0.036)"><circle class="a" cx="2.245" cy="2.245" r="2.245" transform="translate(6.968 15.498)"/><path class="b" d="M2.235,0A2.245,2.245,0,0,0,0,2.036L2.444,4.481A2.245,2.245,0,0,0,2.235,0Z" transform="translate(6.978 15.498)"/><path class="c" d="M16.535,0H1.82a1.82,1.82,0,0,0,0,3.64H16.535a1.82,1.82,0,1,0,0-3.64Z" transform="translate(0.036 13.828)"/><path class="d" d="M15.391,13.885H.007a1.433,1.433,0,0,0,1.423-1.43V8.807A6.293,6.293,0,0,1,6.192,2.694a1.788,1.788,0,1,1,3.083,0,6.294,6.294,0,0,1,4.763,6.114v3.648a1.429,1.429,0,0,0,1.353,1.428ZM7.734,1.073a.715.715,0,1,0,.715.715A.716.716,0,0,0,7.734,1.073Z" transform="translate(1.48)"/><path class="e" d="M0,0A1.683,1.683,0,0,0,1.8,1.451H16.513A1.683,1.683,0,0,0,18.31,0Z" transform="translate(0.059 16.01)"/></g></svg>