<svg xmlns="http://www.w3.org/2000/svg" width="18.355" height="19.989" viewBox="0 0 18.355 19.989"><defs><style>.a{fill:#ffe345;}</style></defs><g transform="translate(-0.036)"><circle class="a" cx="2.245" cy="2.245" r="2.245" transform="translate(6.968 15.498)"/><path class="a" d="M2.235,0A2.245,2.245,0,0,0,0,2.036L2.444,4.481A2.245,2.245,0,0,0,2.235,0Z" transform="translate(6.978 15.498)"/><path class="a" d="M16.535,0H1.82a1.82,1.82,0,0,0,0,3.64H16.535a1.82,1.82,0,1,0,0-3.64Z" transform="translate(0.036 13.828)"/><path class="a" d="M15.391,13.885H.007a1.433,1.433,0,0,0,1.423-1.43V8.807A6.293,6.293,0,0,1,6.192,2.694a1.788,1.788,0,1,1,3.083,0,6.294,6.294,0,0,1,4.763,6.114v3.648a1.429,1.429,0,0,0,1.353,1.428ZM7.734,1.073a.715.715,0,1,0,.715.715A.716.716,0,0,0,7.734,1.073Z" transform="translate(1.48)"/><path class="a" d="M0,0A1.683,1.683,0,0,0,1.8,1.451H16.513A1.683,1.683,0,0,0,18.31,0Z" transform="translate(0.059 16.01)"/></g></svg>