<svg xmlns="http://www.w3.org/2000/svg" width="29.942" height="29.944" viewBox="0 0 29.942 29.944"><defs><style>.a{fill:#ffeb49;}.b{fill:#f88f00;}.c{fill:#ffa700;}.d{fill:#ffc900;}.e{fill:#354aa3;}.f{fill:#5068c1;}.g{fill:none;}.h{fill:#a0a0a0;}</style></defs><g transform="translate(-0.001 0)"><path class="a" d="M3.992,0a3.992,3.992,0,0,0,0,7.984H20.959a3.992,3.992,0,0,1,0-7.984Z" transform="translate(0.501 0.502)"/><path class="b" d="M.318,0A10.049,10.049,0,0,0,0,2.5a5.482,5.482,0,0,0,.209,1.5H1.6a.982.982,0,0,0,.971-.777A3.992,3.992,0,0,1,6.487,0Z" transform="translate(14.972 21.461)"/><path class="b" d="M5.779,7.985a5.813,5.813,0,0,1-.834-.055A5.675,5.675,0,0,1,0,3.992H1.392A.993.993,0,0,0,2.365,3.2,3.983,3.983,0,0,1,5.5.08,3.8,3.8,0,0,1,6.258,0,4.016,4.016,0,0,1,9.337,1.592c2.54,3.139-.584,6.393-3.558,6.393Z" transform="translate(15.182 21.461)"/><path class="c" d="M4.945,7.85A5.675,5.675,0,0,1,0,3.912H1.392a.993.993,0,0,0,.973-.788A3.983,3.983,0,0,1,5.5,0,4.231,4.231,0,0,1,7.84,1.512c2.35,2.9-.15,5.908-2.895,6.337Z" transform="translate(15.182 21.541)"/><path class="c" d="M24.951,3.992a8.725,8.725,0,0,1-1.712,4.9,14.554,14.554,0,0,0-2.076.9c-6.577,3.488-8.124,10.829-8.184,11.153a6.13,6.13,0,0,1,.5-.654,18.644,18.644,0,0,1,2.565-2.37,10.9,10.9,0,0,0-1.577,5.529c0,3.493,2.994,5.489,5.988,5.489H5.988C2.994,28.943,0,25.949,0,22.456,0,14.971,4.007,11.827,5.29,7.984H20.959A3.992,3.992,0,0,1,20.21.07,4.076,4.076,0,0,1,20.959,0,3.992,3.992,0,0,1,24.951,3.992Z" transform="translate(0.501 0.502)"/><path class="d" d="M23.454,3.922a8.493,8.493,0,0,1-1.522,4.616c-.065.095-.125.19-.19.284-.21.319-.4.624-.579.9-2.64,4.177-2.2,4.177-2.2,4.177s-6.782,5.814-4.411,3.952a12.353,12.353,0,0,0-1.068,2.37,10,10,0,0,0-.509,3.159c0,3.493,2.994,5.489,5.988,5.489H5.988C2.994,28.874,0,25.879,0,22.386,0,14.9,4.007,11.757,5.29,7.914H20.959A3.992,3.992,0,0,1,20.21,0,3.992,3.992,0,0,1,23.454,3.922Z" transform="translate(0.501 0.572)"/><path class="e" d="M15.959,0C3.388,4.351.185,12.451,0,12.95.12,12.336,2.825,0,15.959,0Z" transform="translate(13.485 8.486)"/><path class="f" d="M15.964,0s-2.5,3.493-8.483,6.986C1.717,10.35.115,12.785,0,12.965a.019.019,0,0,1,.005-.015c.185-.5,3.388-8.6,15.959-12.95Z" transform="translate(13.48 8.486)"/><path class="g" d="M21.458,8.983H4.491A4.491,4.491,0,0,1,4.491,0H21.458a.5.5,0,1,1,0,1,3.493,3.493,0,0,0,0,6.987.5.5,0,1,1,0,1ZM4.491,1a3.493,3.493,0,0,0,0,6.987H18.638a4.487,4.487,0,0,1,0-6.987Z" transform="translate(0.001 0.003)"/><path class="h" d="M2,1H.5a.5.5,0,0,1,0-1H2A.5.5,0,0,1,2,1Z" transform="translate(5.99 1.999)"/><path class="h" d="M.5,2.5a.493.493,0,0,1-.125-.016.5.5,0,0,1-.358-.608A2.5,2.5,0,0,1,2.432,0a.5.5,0,0,1,0,1A1.5,1.5,0,0,0,.985,2.121.5.5,0,0,1,.5,2.5Z" transform="translate(2.06 1.999)"/><path class="g" d="M2.108,4.991H.707a.5.5,0,0,1-.481-.365A6.061,6.061,0,0,1,0,2.994,10.493,10.493,0,0,1,.334.376.5.5,0,0,1,.817,0H6.986a.5.5,0,1,1,0,1A3.51,3.51,0,0,0,3.559,3.811,1.487,1.487,0,0,1,2.108,4.991ZM1.212,1a9.441,9.441,0,0,0-.214,2,4.9,4.9,0,0,0,.1,1H2.11a.48.48,0,0,0,.47-.375A4.485,4.485,0,0,1,4.166,1Z" transform="translate(14.473 20.962)"/><path class="h" d="M9.481,1.8A.5.5,0,0,1,9.2,1.721l-.97-.649a.45.45,0,0,0-.5,0l-.444.3a1.448,1.448,0,0,1-1.608,0l-.443-.3a.45.45,0,0,0-.5,0l-.444.3a1.448,1.448,0,0,1-1.608,0l-.445-.294a.449.449,0,0,0-.5,0l-.971.649A.5.5,0,0,1,.222.892L1.193.244A1.448,1.448,0,0,1,2.8.244l.443.3a.449.449,0,0,0,.5,0l.444-.3a1.448,1.448,0,0,1,1.608,0l.443.3a.449.449,0,0,0,.5,0l.444-.3a1.448,1.448,0,0,1,1.608,0l.97.649a.5.5,0,0,1-.276.912Z" transform="translate(1.998 20.654)"/><path class="h" d="M9.48,1.807A.5.5,0,0,1,9.2,1.723l-.97-.649a.449.449,0,0,0-.5,0l-.444.3a1.447,1.447,0,0,1-1.608,0l-.443-.3a.449.449,0,0,0-.5,0l-.444.3a1.447,1.447,0,0,1-1.608,0l-.443-.3a.449.449,0,0,0-.5,0l-.971.649A.5.5,0,1,1,.222.892L1.193.244A1.447,1.447,0,0,1,2.8.244l.443.3a.449.449,0,0,0,.5,0l.444-.3a1.448,1.448,0,0,1,1.608,0l.443.3a.449.449,0,0,0,.5,0l.444-.3a1.448,1.448,0,0,1,1.608,0l.97.649a.5.5,0,0,1-.278.914Z" transform="translate(2.997 16.66)"/><path class="h" d="M9.48,1.807A.5.5,0,0,1,9.2,1.723l-.97-.649a.45.45,0,0,0-.5,0l-.444.3a1.447,1.447,0,0,1-1.607,0l-.443-.3a.45.45,0,0,0-.5,0l-.444.3a1.447,1.447,0,0,1-1.607,0l-.443-.3a.45.45,0,0,0-.5,0l-.971.649A.5.5,0,1,1,.222.892L1.193.244A1.447,1.447,0,0,1,2.8.244l.443.3a.45.45,0,0,0,.5,0l.444-.3a1.447,1.447,0,0,1,1.607,0l.443.3a.45.45,0,0,0,.5,0l.444-.3a1.447,1.447,0,0,1,1.607,0l.97.649a.5.5,0,0,1-.278.914Z" transform="translate(4.495 13.167)"/><path class="g" d="M.5,13.973a.5.5,0,0,1-.49-.591A19.238,19.238,0,0,1,3.1,6.64,15.816,15.816,0,0,1,8.108,2.072,16.67,16.67,0,0,1,16.467,0a.5.5,0,0,1,.407.789C16.607,1.159,14.1,4.5,8.236,7.916,2.535,11.241.988,13.632.925,13.732A.5.5,0,0,1,.5,13.973ZM15.381,1.028C6.556,1.511,2.963,7.778,1.607,11.47A33.042,33.042,0,0,1,7.735,7.054,31.794,31.794,0,0,0,15.381,1.028Z" transform="translate(12.976 7.987)"/><path class="g" d="M.5,13.971a.5.5,0,0,1-.471-.665C.154,12.951,3.253,4.544,16.3.026a.5.5,0,0,1,.326.943C4.064,5.319,1,13.556.969,13.639a.5.5,0,0,1-.47.332Z" transform="translate(12.976 7.989)"/><path class="g" d="M6.279,8.982A6.353,6.353,0,0,1,.019,4.626.5.5,0,0,1,.5,3.992H1.891A.5.5,0,0,0,2.374,3.6,4.506,4.506,0,0,1,6.754,0a4.471,4.471,0,0,1,3.47,1.777,3.972,3.972,0,0,1,.662,4.369A5.222,5.222,0,0,1,6.279,8.982ZM1.212,4.99a5.464,5.464,0,0,0,4.89,3l.177,0A4.262,4.262,0,0,0,9.986,5.715,2.956,2.956,0,0,0,9.447,2.4,3.488,3.488,0,0,0,6.774,1H6.759A3.52,3.52,0,0,0,3.353,3.8,1.5,1.5,0,0,1,1.891,4.99Z" transform="translate(14.682 20.962)"/><path class="g" d="M20.959,29.944H6.487c-3.4,0-6.487-3.33-6.487-6.986,0-5.211,1.858-8.32,3.5-11.062a19.074,19.074,0,0,0,1.82-3.568.5.5,0,0,1,.472-.34H18.638a4.471,4.471,0,0,1-1.219-5.46A4.489,4.489,0,0,1,22.468.115,4.472,4.472,0,0,1,25.95,4.494a9.118,9.118,0,0,1-1.8,5.181.506.506,0,0,1-.25.194c-5.651,1.957-8.241,6.825-9.282,9.553.493-.464,1.038-.931,1.619-1.387a.5.5,0,0,1,.742.641,10.4,10.4,0,0,0-1.512,5.281c0,3.241,2.828,4.99,5.489,4.99a.5.5,0,0,1,0,1ZM6.142,8.986a21.992,21.992,0,0,1-1.788,3.422C2.781,15.039,1,18.022,1,22.958c0,3.078,2.668,5.988,5.489,5.988H17.3a5.638,5.638,0,0,1-2.828-4.99,10.6,10.6,0,0,1,.635-3.616A8.579,8.579,0,0,0,13.9,21.721a.5.5,0,0,1-.916-.354c.018-.093,1.866-9.311,10.43-12.386a8.025,8.025,0,0,0,1.538-4.487,3.493,3.493,0,1,0-3.494,3.494.5.5,0,1,1,0,1H6.142Z" transform="translate(0.001 0)"/></g></svg>