<svg xmlns="http://www.w3.org/2000/svg" width="20" height="20" viewBox="0 0 20 20"><defs><style>.a{fill:#f22923;}</style></defs><path class="a" d="M10,20A10,10,0,1,1,20,10,10.011,10.011,0,0,1,10,20ZM10,1.667A8.334,8.334,0,1,0,18.334,10,8.343,8.343,0,0,0,10,1.667Z"/><path class="a" d="M2.5,1.25A1.25,1.25,0,1,1,1.25,0,1.25,1.25,0,0,1,2.5,1.25" transform="translate(5.834 6.666)"/><path class="a" d="M2.5,1.25A1.25,1.25,0,1,1,1.25,0,1.25,1.25,0,0,1,2.5,1.25" transform="translate(11.666 6.666)"/><path class="a" d="M.835,2.481A.833.833,0,0,1,.374.953a5.855,5.855,0,0,1,6.4,0,.833.833,0,1,1-.92,1.39,4.157,4.157,0,0,0-4.566,0,.831.831,0,0,1-.459.138Z" transform="translate(6.424 12.519)"/></svg>