<svg xmlns="http://www.w3.org/2000/svg" width="30" height="30" viewBox="0 0 30 30"><defs><style>.a{fill:#d8d8d8;}.b{fill:#fff;}</style></defs><g transform="translate(-324 -32)"><circle class="a" cx="15" cy="15" r="15" transform="translate(324 32)"/><path class="b" d="M17.328,17.133H2.673L0,7.143V5.433H6.427l1.3-4.8A.914.914,0,0,1,8.6,0a.931.931,0,0,1,.238.032A.894.894,0,0,1,9.482,1.1L8.309,5.433h3.382l-1.173-4.3A.889.889,0,0,1,10.612.45a.9.9,0,0,1,.552-.417A.917.917,0,0,1,11.4,0a.9.9,0,0,1,.868.635l1.3,4.8H20V7.377l-2.672,9.755ZM1.873,7.233l2.191,8.1H15.936l2.191-8.1Zm11.936,3.6A1.035,1.035,0,1,1,14.855,9.8,1.041,1.041,0,0,1,13.809,10.833Zm-7.57-.019H6.227a1.035,1.035,0,0,1-.036-2.069h.037a1.035,1.035,0,1,1,.011,2.07Z" transform="translate(329 38.867)"/></g></svg>