<svg xmlns="http://www.w3.org/2000/svg" viewBox="0 0 139.46 222.88"><defs><style>.cls-1{fill:#056939}.cls-2{fill:#f9b041}.cls-5{fill:#deba2b}.cls-6{fill:#e9c22f}.cls-7{fill:#ffdd3a}</style></defs><g id="Laag_4" data-name="Laag 4"><path class="cls-1" d="M42.72 142.46l-28.51 8.15 16.29 21.87 5.25-6.55-8.82-10.03 15.79-.26v-13.18z"/><path class="cls-2" d="M34.93 162.39l-9.68 11.25 8.42 1.7-1.55 3.29s-3.31-1.81-3.66-.75a1.87 1.87 0 0 0 .51 2.23s-1 3 2.55 2.87a12.76 12.76 0 0 0 5.84-1.56l1.87-9.7z"/><path class="cls-1" d="M96.63 142.46l28.5 8.15-16.29 21.87-5.25-6.55 8.83-10.03-15.79-.26v-13.18z"/><path class="cls-2" d="M104.42 162.39l9.67 11.25-8.41 1.7 1.55 3.29s3.31-1.81 3.65-.75a1.86 1.86 0 0 1-.5 2.23s1 3-2.55 2.87a12.76 12.76 0 0 1-5.84-1.56l-1.87-9.7z"/><path d="M81.7 187.15c4.29 3.3 11.18 9.63 14 19a29.57 29.57 0 0 1 1.3 7.16l-14.79.95s-3.94-21.25-8.37-23.2 7.86-3.91 7.86-3.91zm-26.7.03c-4.29 3.29-11.18 9.62-14 19a29.57 29.57 0 0 0-1.25 7.16l14.79 1s3.94-21.25 8.37-23.2-7.91-3.96-7.91-3.96z" fill="#5a8e38"/><path d="M67.16 22.4C48.76 22.86 31.43 184 71.1 183S85.55 22 67.16 22.4z" fill="#fef6b7"/><path class="cls-5" d="M70.87 183c8-.2 14-4.57 18.19-11.72h-11.2c-1.54 7.27-3.81 11.66-6.99 11.72z"/><path class="cls-6" d="M63.22 171.3H51.54c4.62 7.49 10.94 11.92 19.33 11.72-3.23.07-5.74-4.34-7.65-11.72z"/><path class="cls-5" d="M80.27 50.3a3.62 3.62 0 0 0 3.4-4.86c-.41-1.1-.83-2.18-1.25-3.22A3.58 3.58 0 0 0 79.08 40h-2a3.61 3.61 0 0 0-3.56 4.2c.16 1 .33 2 .49 3.06a3.61 3.61 0 0 0 3.57 3zM90.33 126h-2.65a7.19 7.19 0 0 0-7.15 7.2v2.67a7.16 7.16 0 0 0 7.15 7.19h2.54a7.2 7.2 0 0 0 7.16-6.85c0-.9.08-1.82.12-2.74a7.19 7.19 0 0 0-7.17-7.47zm-7.49-50.07h2a5.87 5.87 0 0 0 5.7-7.24l-.48-2a5.88 5.88 0 0 0-5.71-4.48h-1.72a5.86 5.86 0 0 0-5.83 6.5q.11 1 .21 2a5.87 5.87 0 0 0 5.83 5.22zm3.07 15.61a6.6 6.6 0 0 0-6.59 7l.18 3a6.6 6.6 0 0 0 6.59 6.2h3.35a6.62 6.62 0 0 0 6.56-7.39c-.11-1-.23-2-.35-3a6.65 6.65 0 0 0-6.57-5.84zm-8.05 79.76h11.2a51.06 51.06 0 0 0 5.06-12.6h-14.5a106.33 106.33 0 0 1-1.76 12.6zm4.91-109.11a4.65 4.65 0 0 0 4.47-5.95c-.26-.9-.53-1.78-.8-2.65A4.68 4.68 0 0 0 82 50.3h-2.14a4.66 4.66 0 0 0-4.62 5.27c.11.84.22 1.68.33 2.54a4.67 4.67 0 0 0 4.62 4.08z"/><path class="cls-5" d="M85 91.54h2.15a6.59 6.59 0 0 0 6.51-7.7c-.14-.84-.29-1.67-.44-2.49a6.62 6.62 0 0 0-6.51-5.42h-1.95a6.59 6.59 0 0 0-6.58 7.15c.07.8.13 1.6.2 2.4A6.6 6.6 0 0 0 85 91.54zm2.3 16.18a7.16 7.16 0 0 0-7.15 7.44c0 1.31.1 2.63.14 3.93a7.14 7.14 0 0 0 7.15 6.91h2.84a7.13 7.13 0 0 0 7.16-7.42c-.06-1.37-.12-2.75-.2-4.14a7.19 7.19 0 0 0-7.16-6.75zm1.35 35.37h-1.3a7.15 7.15 0 0 0-7.15 6.79l-.06 1.3a7.14 7.14 0 0 0 7.14 7.52h1.13a7.18 7.18 0 0 0 7-5.83l.24-1.29a7.19 7.19 0 0 0-7-8.49z"/><path class="cls-6" d="M60.88 158.7h-14.8a54.72 54.72 0 0 0 5.46 12.6h11.68a109.93 109.93 0 0 1-2.34-12.6zM57.83 40H56a3.58 3.58 0 0 0-3.39 2.38c-.37 1-.73 2.11-1.08 3.22A3.61 3.61 0 0 0 55 50.3h2.5a3.62 3.62 0 0 0 3.59-3.23c.11-1 .22-2.06.34-3a3.61 3.61 0 0 0-3.6-4.07zm-4.3 22.19h-1.59a5.86 5.86 0 0 0-5.76 4.73c-.14.7-.27 1.4-.41 2.11a5.85 5.85 0 0 0 5.77 6.9h1.88a5.87 5.87 0 0 0 5.85-5.55c0-.66.07-1.32.11-2a5.86 5.86 0 0 0-5.85-6.19zm-5.15 45.53h3.28a6.59 6.59 0 0 0 6.6-6.52v-3a6.6 6.6 0 0 0-6.6-6.69h-3.07A6.64 6.64 0 0 0 42 97.67c-.08 1-.15 2-.22 3a6.63 6.63 0 0 0 6.6 7.05zm3.21 18.35h-2.7a7.07 7.07 0 0 0-7.13 7.77c.07.95.16 1.9.25 2.84a7.13 7.13 0 0 0 7.12 6.41h2.59a7.16 7.16 0 0 0 7.15-7.54c0-.87-.09-1.75-.13-2.63a7.16 7.16 0 0 0-7.15-6.85z"/><path class="cls-6" d="M55.66 50.3h-2a4.64 4.64 0 0 0-4.51 3.49c-.23.87-.46 1.75-.68 2.64A4.66 4.66 0 0 0 53 62.19h2.44a4.66 4.66 0 0 0 4.64-4.3c.06-.86.13-1.71.2-2.54a4.65 4.65 0 0 0-4.62-5.05zM50 91.54h2a6.6 6.6 0 0 0 6.6-6.38l.09-2.39a6.6 6.6 0 0 0-6.6-6.84h-1.8a6.61 6.61 0 0 0-6.56 5.7l-.33 2.49a6.6 6.6 0 0 0 6.6 7.42zm1.17 34.53a7.17 7.17 0 0 0 7.15-7.29c0-1.31 0-2.64-.06-4a7.19 7.19 0 0 0-7.15-7.09h-2.76a7.18 7.18 0 0 0-7.17 7.06v4.18a7.17 7.17 0 0 0 7.18 7.11zm1.57 17.02H51.3a7.18 7.18 0 0 0-7 8.74c.09.43.19.86.29 1.29a7.19 7.19 0 0 0 7 5.58h1.26a7.15 7.15 0 0 0 7.15-7.86l-.12-1.23a7.15 7.15 0 0 0-7.14-6.52z"/><path class="cls-7" d="M77.86 171.3H63.22c1.91 7.38 4.42 11.79 7.65 11.72s5.45-4.47 6.99-11.72zM65.1 50.3H70a3.93 3.93 0 0 0 3.87-4.54 436 436 0 0 0-.42-2.51 3.89 3.89 0 0 0-3.9-3.25h-4.17a3.91 3.91 0 0 0-3.89 3.45c-.1.82-.19 1.65-.29 2.51a3.93 3.93 0 0 0 3.9 4.34zm-1.88 121h14.64a106.33 106.33 0 0 0 1.76-12.6H60.88a109.93 109.93 0 0 0 2.34 12.6zm1.25-95.37h7.31A5.21 5.21 0 0 0 77 70.18q-.18-1.7-.36-3.36a5.2 5.2 0 0 0-5.18-4.63h-6.8a5.2 5.2 0 0 0-5.2 4.88c-.07 1.11-.13 2.23-.19 3.36a5.21 5.21 0 0 0 5.2 5.5zm-.42 31.79h9.67a5.79 5.79 0 0 0 5.78-6.15c-.09-1.53-.18-3.06-.28-4.59a5.81 5.81 0 0 0-5.78-5.44h-9.33a5.8 5.8 0 0 0-5.79 5.72q0 2.3-.06 4.59a5.8 5.8 0 0 0 5.79 5.87zM74.72 126H64.49a5.82 5.82 0 0 0-5.78 6.06c.08 1.86.17 3.7.27 5.51a5.79 5.79 0 0 0 5.79 5.47h10a5.79 5.79 0 0 0 5.8-5.75v-5.52a5.81 5.81 0 0 0-5.85-5.77z"/><path class="cls-7" d="M64.6 62.19H71a4.48 4.48 0 0 0 4.44-5q-.2-1.52-.39-3a4.47 4.47 0 0 0-4.44-3.87h-5.77a4.47 4.47 0 0 0-4.46 4.08q-.12 1.47-.24 3a4.48 4.48 0 0 0 4.46 4.79zm9.84 80.9h-8.83a5.8 5.8 0 0 0-5.78 6.3c.14 1.42.27 2.81.42 4.17A5.78 5.78 0 0 0 66 158.7h8.22a5.78 5.78 0 0 0 5.78-5.41q.12-2 .21-4.17a5.79 5.79 0 0 0-5.77-6.03zM64.39 91.54h8.2a5.79 5.79 0 0 0 5.77-6.28c-.11-1.35-.22-2.69-.34-4a5.8 5.8 0 0 0-5.77-5.31h-7.71a5.8 5.8 0 0 0-5.79 5.59c-.06 1.33-.1 2.67-.15 4a5.8 5.8 0 0 0 5.79 6zm-.24 34.51h10.38a5.79 5.79 0 0 0 5.79-6c-.07-2.24-.15-4.51-.24-6.78a5.8 5.8 0 0 0-5.79-5.58H64.05a5.8 5.8 0 0 0-5.8 5.86q0 3.42.09 6.79a5.79 5.79 0 0 0 5.81 5.71z"/><path d="M78.89 184.47l-10-7.31-10 7.31.88 15.63a13.46 13.46 0 0 1 2.61 5.64 6.07 6.07 0 0 0 5.2 5 10 10 0 0 0 1.31.09H69a6 6 0 0 0 5.73-5 13.5 13.5 0 0 1 2.62-5.69z" fill="#318138"/><path d="M77.32 200.1s-10.61-6.66-10.61-25.42 18.67-86.93 65.08-69c-21 5.92-30.09 10.41-30.09 40.81s-2.45 43-24.38 53.61z" fill="#619e3d"/><path d="M59.76 200.1S72 193.44 72 174.68s-18.67-86.93-65.08-69C27.9 111.61 37 116.1 37 146.5s6.35 44.85 22.76 53.6z" fill="#73aa43"/><path class="cls-1" d="M40.86 216.5l-15.2 5.91h26A80 80 0 0 1 57.42 212c-5.38-1.24-14.4-4-19.88-5.13 1.46 4.81 3.28 7.18 3.32 9.63zm55.07.32l15.21 6h-26a81.26 81.26 0 0 0-5.78-10.53c5.39-1.25 14.4-4 19.88-5.19-1.45 4.83-3.24 7.23-3.31 9.72zM73 101.45l-3.69 8.49-7-6-50.8 9.21s9.31 29.55 36.41 23.28c20.4-4.72 22.35-17.65 22.16-23.35 2.35 5.2 9.78 16 30.17 11.24 27.1-6.27 22.49-36.91 22.49-36.91z"/><path d="M93.31 107.62a6.83 6.83 0 0 0-5.12 8.2l13.31-3.08a6.83 6.83 0 0 0-8.19-5.12zM44.25 119a6.83 6.83 0 0 0-5.11 8.2l13.31-3.08a6.83 6.83 0 0 0-8.2-5.12z" fill="#fff"/><path d="M83.28 133.47a13.67 13.67 0 0 1-5.38 11.14A12.41 12.41 0 0 1 65.7 146a11.49 11.49 0 0 1-5.6-5.62c-.41-.87-1.34-2.92-1-3.89.49-1.26 2.25-.88 3.44-1 1.8-.08 20.76-1.35 20.74-2.02z" fill="#912a2a"/><path d="M76.52 145.48a12.36 12.36 0 0 1-10.82.52 11.43 11.43 0 0 1-5-4.47 14.41 14.41 0 0 1 7.9-2c2.58.13 5.27 1.09 6.76 3.2a7.8 7.8 0 0 1 1.16 2.75z" fill="#da6aa6"/></g></svg>