<svg id="Laag_1" data-name="Laag 1" xmlns="http://www.w3.org/2000/svg" viewBox="0 0 139.46 222.88"><defs><style>.cls-1{fill:#056939}.cls-2{fill:#f9b041}.cls-4{fill:#07883e}.cls-6{fill:#31a544}.cls-9{fill:#fff}</style></defs><path class="cls-1" d="M41.29 143.69l-27.47 7.85 15.7 21.08 5.07-6.31-8.51-9.66 15.21-.26v-12.7z"/><path class="cls-2" d="M33.79 162.9l-9.32 10.84 8.11 1.64-1.5 3.17s-3.19-1.74-3.52-.72a1.8 1.8 0 0 0 .49 2.15s-.92 2.86 2.45 2.76a12.21 12.21 0 0 0 5.63-1.5l1.8-9.35z"/><path class="cls-1" d="M97.25 143.69l27.47 7.85-15.7 21.08-5.06-6.31 8.5-9.66-15.21-.26v-12.7z"/><path class="cls-2" d="M104.75 162.9l9.33 10.84-8.08 1.64 1.49 3.17s3.19-1.74 3.53-.72a1.8 1.8 0 0 1-.49 2.15s.92 2.86-2.46 2.76a12.26 12.26 0 0 1-5.63-1.5l-1.8-9.35z"/><path d="M106 208.55c-4.36 1-9.84 2.53-13.4 3.3-3.23-4.66-8-10.23-14-13.4a20.59 20.59 0 0 0-8.9-2.55 21.37 21.37 0 0 0-10.2 3.29c-5.37 3.25-9.7 8.34-12.7 12.66-4.44-1-8.9-1.91-13.43-2.8a148.1 148.1 0 0 1 2.11-14.92c.64-3.38 1.35-6.85 2.14-10.3.28-1.28.57-2.56.88-3.83.25-1.07.51-2.13.75-3.18 4-16.49 8.54-30.78 8.54-30.78h43.78s4.18 13.24 8.06 28.92c.31 1.21.61 2.44.9 3.68s.61 2.58.91 3.88c.68 3 1.33 5.95 1.91 8.88a166.76 166.76 0 0 1 2.65 17.15z" fill="#10a651"/><path class="cls-4" d="M82.66 53.44c5.15-1.3 10.12-7.59 5.82-13.9 4.85-.92 9.15-9.85 1.81-13.94 4.92-.72 7.87-12-.9-13.69 0 0 2.48-7.11-3.49-10.66C78.8-3 74.1 4.88 74.1 4.88c-6.47-6.61-17.67-.64-14.72 9.35-12.21.33-11.91 15.2-5.28 16.64-11.1 7.22-4.66 16.13.76 17.47-9.25 8.07 1.62 12.88 5.14 16.57 1.09 1.13 2.13 2.17 4.06 7.23 2.43 6.38 8.28 5 9.53-1.12 1.79-8.55 12.92-9.24 9.07-17.58z"/><path d="M77.7 16.7s-12.82 23.09-11.63 95.61A104.08 104.08 0 0 0 67.41 125a1.37 1.37 0 0 0 2.72-.23c-.44-9.62-.44-43.59.69-56.82C73.76 33.76 77.7 16.7 77.7 16.7z" fill="#047c39"/><path class="cls-6" d="M109.22 87c5.11 1.48 12.57-1.43 12-9.05 4.65 1.66 12.88-3.87 8.61-11.11 4.61 1.86 12.84-6.33 6.14-12.27 0 0 5.74-4.89 2.39-11-4-7.23-12-2.84-12-2.84-2.24-9-14.93-9.47-17.43.63-10.7-5.89-18 7.09-13 11.7-13.26.58-12.17 11.55-8.17 15.45-12.06 2.29-5.12 11.93-3.91 16.92.37 1.52.74 2.94-.15 8.28-1.12 6.74 4.64 8.46 8.79 3.85 5.89-6.43 15.85-1.41 16.73-10.56z"/><path class="cls-4" d="M123.29 51.43S94.9 74.3 76 113.92c-2.18 4.57-4 8.52-5.39 11.92A1.39 1.39 0 0 0 73.1 127c4.59-8.72 7.48-15.24 14.53-26.85 18.21-29.96 35.66-48.72 35.66-48.72z"/><path class="cls-6" d="M38.71 85.75c-4.74.46-10.83-3.33-9.12-10-4.36.69-10.68-5.53-5.74-11.2-4.37.89-10.25-7.68-3.38-11.8 0 0-4.25-5.24-.29-10 4.7-5.71 11-.52 11-.52 3.45-7.52 14.7-5.88 15.23 3.42 10.39-3.41 14.64 9.2 9.49 12.43C67.5 60.8 64.73 70.27 60.57 73c10.24 4 2.54 11.34.65 15.53-.57 1.32-1.13 2.47-1.22 7.35-.12 6.11-5.47 6.68-8.36 1.94-4.08-6.67-13.64-3.88-12.93-12.07z"/><path class="cls-4" d="M32.18 52.13S53.4 76.92 63.52 114.9a276.8 276.8 0 0 1 2.78 11.37 1.25 1.25 0 0 1-2.41.64c-2.6-8.42-4.07-14.64-8.36-26C44.45 71.5 32.18 52.13 32.18 52.13z"/><path d="M29.11 152.17c-.81 13.67 5.71 21.61 12.1 27.76s17.06 9.19 20.91 15.47c3.13 5.09.49 13.41-5.64 15.83a15.46 15.46 0 0 0 9.84-4.31 34.18 34.18 0 0 0 7.1-9.33c3-5.39 7.07-7.57 10.62-9.9 9.27-6.09 11.77-6 18.13-13 9.67-10.7 16.78-51.41-34.64-51.41-26.32.01-37.53 14.3-38.42 28.89z" fill="#dd223c"/><path d="M69.91 123.35c33.31 8.48 26.31 42.15 17.65 52.43-13 15.45-28.44 14.53-31.9 13.7a19.91 19.91 0 0 1 6.46 5.92c3.13 5.09.49 13.41-5.64 15.83a15.46 15.46 0 0 0 9.84-4.31 34.18 34.18 0 0 0 7.1-9.33c3-5.39 7.07-7.57 10.62-9.9 9.27-6.09 11.77-6 18.13-13 9.51-10.51 16.51-50.08-32.26-51.34z" fill="#ca1d36"/><circle class="cls-9" cx="48.72" cy="150.49" r="4.87"/><path class="cls-9" d="M82.81 152.5a5.56 5.56 0 0 1 11.12 0"/><path d="M75.55 173.53a13.16 13.16 0 0 1-7.48 9.29 11.3 11.3 0 0 1-1.48.52 11.94 11.94 0 0 1-10.27-1.89 11.07 11.07 0 0 1-3.71-5.28c-.13-.4-.24-.8-.33-1.21-.18-.91-.61-3-.06-3.87.73-1.07 2.31-.34 3.44-.15 1.68.3 19.76 3.22 19.89 2.59z" fill="#912a2a"/><path d="M66.59 183.34a11.94 11.94 0 0 1-10.27-1.89 11.07 11.07 0 0 1-3.71-5.28 13.77 13.77 0 0 1 7.84-.12 8.32 8.32 0 0 1 5.66 4.47 7.32 7.32 0 0 1 .48 2.82z" fill="#da6aa6"/><path d="M75.07 161.83H58.9s2-6.75 8.09-7.32 8.08 7.32 8.08 7.32z" fill="#e39f70"/><path class="cls-1" d="M35.37 213.9l-11.75 4.58h20.09a62.54 62.54 0 0 1 4.47-8.06c-4.16-1-11.14-3.07-15.38-4 1.14 3.74 2.54 5.58 2.57 7.48zm68.48 0l11.76 4.58h-20.1a61.07 61.07 0 0 0-4.51-8.06c4.17-1 11.14-3.07 15.38-4-1.1 3.74-2.5 5.58-2.53 7.48z"/></svg>