<svg xmlns="http://www.w3.org/2000/svg" viewBox="0 0 139.46 222.88"><defs><style>.cls-1{fill:#994493}.cls-2{fill:#f9b041}.cls-3{fill:#5c2363}.cls-4{fill:#471f51}.cls-6{fill:#ffebd2}.cls-7{fill:#fff}</style></defs><g id="Laag_7" data-name="Laag 7"><path class="cls-1" d="M108 211.3c-4.59 1.09-10.36 2.67-14.1 3.48-3.41-4.91-8.44-10.77-14.72-14.12a22 22 0 0 0-9.36-2.66 22.66 22.66 0 0 0-10.74 3.46c-5.65 3.43-10.21 8.78-13.37 13.34-4.68-1-9.37-2-14.14-3a154.72 154.72 0 0 1 2.23-15.7c.66-3.56 1.42-7.21 2.25-10.85.29-1.35.6-2.69.92-4 .27-1.12.53-2.24.79-3.35 4.25-17.35 9-32.4 9-32.4h46.12s4.4 13.93 8.49 30.45c.32 1.27.64 2.57.95 3.87l1 4.09c.71 3.11 1.39 6.26 2 9.35A172.73 172.73 0 0 1 108 211.3zm-65.62-69.14l-28.93 8.27 16.53 22.19 5.33-6.64-8.95-10.18 16.02-.27v-13.37z"/><path class="cls-2" d="M34.48 162.38l-9.82 11.42 8.54 1.72-1.58 3.34s-3.36-1.83-3.71-.76a1.91 1.91 0 0 0 .52 2.27s-1 3 2.58 2.9a12.78 12.78 0 0 0 5.93-1.58l1.89-9.84z"/><path class="cls-1" d="M97.08 142.16l28.92 8.27-16.53 22.19-5.32-6.64 8.95-10.18-16.02-.27v-13.37z"/><path class="cls-2" d="M105 162.38l9.82 11.42-8.54 1.72 1.58 3.34s3.35-1.83 3.7-.76a1.9 1.9 0 0 1-.51 2.27s1 3-2.58 2.9a12.78 12.78 0 0 1-5.93-1.58l-1.9-9.84z"/><path class="cls-3" d="M30.93 155.41C34.09 176 47.53 188.94 65 189.52c19.7.65 31.65-5.25 38.23-20.85 7.41-17.58-72.3-13.26-72.3-13.26z"/><path class="cls-4" d="M95.34 181.74c-1.87 1.54-5.89 1.53-8.29 1.68-2.56.16-5.14-1.09-7.68-.85-4 .39-7.91 4.3-11.43 2-2.45-1.6-2.92-5.36-5.12-7.36-3.13-2.86-5.44-.38-8.32-3.53-3.44-3.76-.39-8.6-3.35-12.8-1.69-2.41-5.11-4.15-4.73-8.84.16-2 2.77-4.86 3.4-6.71.8-2.38-.22-4 .12-6.48.43-3.32 1.46-5.11 7.36-7.07 3.49-1.17 4.59-1.45 5.46-5.29 1.08-4.81 3.1-5.22 5-5.14 2.42.11 3.41.85 5.73.78 3.52-.12 4.64-3.92 8.31-3 4 1 4.41 4.23 7.72 6.24 1.85 1.12 4.09.86 6.06 1.76a14.93 14.93 0 0 1 6.33 5.38 32.17 32.17 0 0 1 5.29 14.38c2 14.01-2.59 27.23-11.86 34.85z"/><path class="cls-3" d="M58.09 116.2c-2.24.94-4.57 1.9-6 3.87s-1.73 5-3.26 7c-2.4 3.2-7.78 4.52-7.64 8.73.09 2.93 3 5.28 3.62 8.19.82 4.16-2.5 4.85-1.31 8.95 1.43 4.89 7.15 4.8 9.21 9.51 1.17 2.69.88 6.52 5.09 8.64 1.78.89 5.59.16 7.5.58 2.45.54 3.26 2.23 5.6 3.26 3.06 1.36 5.12 1.4 9.86-2.61 2.81-2.38 3.63-3.17 7.36-1.92 4.67 1.58 6.07.06 7-1.59 1.16-2.12 1-3.36 2.32-5.3 1.92-3 5.75-1.94 6.85-5.57 1.17-3.93-1.33-6-1.33-9.83 0-2.17 1.39-4 1.65-6.1.33-2.73-.77-6.59-2-9.2a33.81 33.81 0 0 0-14.57-15.66c-9.67-5.62-20.86-4.76-29.95-.95z"/><path d="M37.72 127.79c1.41-2.22 3.12-4.39 5.51-5.49 2.54-1.17 5.56-1 8.06-2.25 3.92-2 6.64-7.27 11-6.47 3 .55 4.68 4 7.54 5 4.09 1.48 5.64-1.81 9.57.05 4.7 2.23 3.15 8.07 7.49 10.92 2.49 1.62 6.52 1.92 7.63 6.56.48 2-1.25 5.75-1.29 7.77-.06 2.6 1.48 3.7 1.95 6.25.62 3.35.15 5.47-5.2 9.7-3.16 2.51-4.19 3.22-3.84 7.24.44 5-1.47 6.23-3.41 6.91-2.49.86-3.73.54-6.06 1.54-3.53 1.52-3.46 5.6-7.49 6.15-4.35.6-5.81-2.29-9.82-2.89-2.23-.33-4.42.81-6.71.74a14.84 14.84 0 0 1-8.14-2.63 34 34 0 0 1-11.11-12.71c-5.01-10.09-2.63-25.4 4.32-36.39z" fill="#892a81"/><path class="cls-1" d="M68.3 162.2c.85-2.88-.79-5.5-1.65-8.38-.93-3.13.65-7.19-1.78-9.38-1.64-1.49-4.29-1.16-6.13-2.39-2.39-1.6-2.85-5.39-5.52-6.45s-5.42 1.5-8 3c-2.4 1.4-5.12-.45-7.55.89-3.22 1.78-5.52 5.64-6.87 9.32a30.2 30.2 0 0 0 2.53 15.37 34 34 0 0 0 11.11 12.71 14.76 14.76 0 0 0 8.1 2.63c.32-1.61.61-3.16 2.28-3.74 2.23-.77 5.08.07 6.74-1.6s.93-4.19 2-6.1c1.36-2.6 3.91-3.08 4.74-5.88z"/><path class="cls-6" d="M66.64 124.89c-.37.27-.73.56-1.07.86s-.67.63-1 .94-.63.66-.93 1-.6.69-.87 1-.55.71-.8 1.08l-.73 1.13-.65 1.17c-.21.39-.38.81-.57 1.2a9.4 9.4 0 0 0-.49 1.24c-.14.42-.32.82-.42 1.25l-.35 1.27c-.11.43-.16.87-.24 1.3a11.29 11.29 0 0 0-.18 1.3l-.09 1.37a9.53 9.53 0 0 0 0 1.31v1.87l-.42.36-4.2 3.69c-1.39 1.24-2.79 2.48-4.12 3.74v-1.78c.42.42 1 .9 1.46 1.33s1.06.86 1.62 1.26 1.11.79 1.68 1.16 1.17.72 1.76 1 1.2.66 1.82 1 1.24.57 1.88.82q.47.19 1 .36c.32.12.64.24 1 .33.65.22 1.31.39 2 .57s1.33.3 2 .39 1.36.17 2.05.25 1.37.1 2.06.09 1.38-.05 2.08-.08c.34 0 .69-.06 1-.1s.7-.07 1-.13l1-.17 1-.22c.7-.13 1.37-.34 2-.53s1.35-.44 2-.64c-.63.34-1.25.7-1.9 1s-1.3.61-2 .85c-.34.12-.68.26-1 .37l-1 .3c-.35.11-.7.2-1.06.28l-1.06.23c-.72.11-1.44.25-2.17.3s-1.46.09-2.2.12-1.47 0-2.2-.1-1.33-.18-2.03-.23-1.45-.27-2.16-.46c-.36-.09-.71-.2-1.07-.3l-1-.34a31 31 0 0 1-4.07-1.8c-.65-.34-1.29-.71-1.92-1.09s-1.25-.79-1.84-1.22-1.19-.88-1.76-1.35a19.64 19.64 0 0 1-1.69-1.53l-.89-.91.94-.87c1.39-1.3 2.81-2.54 4.25-3.76q1.06-.92 2.16-1.8c.73-.6 1.45-1.19 2.19-1.78l-.41.92v-1.45a11.32 11.32 0 0 1 .09-1.43l.2-1.43a11 11 0 0 1 .29-1.41c.12-.47.21-.94.36-1.4l.48-1.36a10.17 10.17 0 0 1 .57-1.31 10.32 10.32 0 0 1 .66-1.28c.24-.4.46-.83.73-1.22l.82-1.16c.3-.37.61-.73.91-1.09s.65-.68 1-1 .69-.63 1-.95.73-.58 1.1-.86a14.5 14.5 0 0 1 2.4-1.47z"/><path class="cls-6" d="M43.17 133c-.52 1.09-1 2.19-1.41 3.31s-.79 2.24-1.1 3.38c-.15.57-.3 1.14-.43 1.71s-.24 1.15-.34 1.72a29.18 29.18 0 0 0-.35 3.46 21.65 21.65 0 0 0 .16 3.42 18.39 18.39 0 0 0 .72 3.29 17.16 17.16 0 0 0 3.26 5.8l.58.68-.45.77-1.93 3.27-.07-1.38c.25.33.61.73.94 1.09s.7.71 1.07 1.06a29 29 0 0 0 2.35 1.93 26.79 26.79 0 0 0 2.57 1.66c.44.26.89.5 1.35.73s.92.45 1.39.65 1 .38 1.44.56 1 .35 1.47.49 1 .29 1.5.41 1 .23 1.52.33 1 .19 1.55.25 1 .13 1.57.17 1.06.07 1.59.11 1.06 0 1.6 0c-.52.1-1 .21-1.58.3s-1.07.15-1.61.18l-.8.07h-2.45c-.55 0-1.09-.06-1.63-.13s-1.08-.14-1.62-.25l-1.62-.33c-.54-.11-1.06-.3-1.58-.48s-1-.37-1.56-.57-1-.42-1.52-.66-1-.5-1.47-.78-1-.56-1.42-.87-.92-.62-1.36-1-.88-.69-1.3-1.05-.83-.76-1.23-1.16a15.19 15.19 0 0 1-1.16-1.3l-.51-.65.43-.73 1.91-3.28.12 1.44a18 18 0 0 1-3.59-6.62 18.62 18.62 0 0 1-.65-3.76 20.59 20.59 0 0 1 .1-3.77 23.44 23.44 0 0 1 .71-3.66c.16-.6.34-1.18.54-1.77s.41-1.15.66-1.71a31.22 31.22 0 0 1 1.62-3.33 25.62 25.62 0 0 1 2.02-3z"/><path class="cls-6" d="M78.94 137.56c-32-1.67-43.54 30-43.58 30.1a33.68 33.68 0 0 0 4.35 5.26c6.71-32.61 39.23-35.36 39.23-35.36z"/><path class="cls-4" d="M33.71 216.94l-12.38 4.82h21.16a65.35 65.35 0 0 1 4.71-8.49c-4.39-1-11.73-3.23-16.19-4.18 1.19 3.91 2.67 5.84 2.7 7.85zm72.1 0l12.38 4.82H97a65.92 65.92 0 0 0-4.7-8.49c4.38-1 11.72-3.23 16.19-4.18-1.17 3.91-2.64 5.84-2.68 7.85z"/><circle class="cls-7" cx="47.03" cy="139.42" r="5.13"/><path class="cls-7" d="M82.93 141.54a5.85 5.85 0 1 1 11.7 0"/><path d="M75.28 163.68a13.85 13.85 0 0 1-7.87 9.79 12.11 12.11 0 0 1-1.57.54A12.53 12.53 0 0 1 55 172a11.56 11.56 0 0 1-3.91-5.56 11 11 0 0 1-.34-1.28c-.2-1-.65-3.19-.07-4.07.77-1.13 2.43-.35 3.62-.15 1.81.33 20.84 3.41 20.98 2.74z" fill="#912a2a"/><path d="M65.84 174A12.53 12.53 0 0 1 55 172a11.56 11.56 0 0 1-3.91-5.56 14.52 14.52 0 0 1 8.26-.13c2.52.72 5 2.28 6 4.71a7.71 7.71 0 0 1 .49 2.98z" fill="#da6aa6"/><path d="M74.78 151.36h-17s2.1-7.11 8.52-7.71 8.48 7.71 8.48 7.71z" fill="#e39f70"/></g></svg>