<svg xmlns="http://www.w3.org/2000/svg" viewBox="0 0 139.46 222.88"><defs><style>.cls-1{fill:#5a8e38}.cls-2{fill:#f9b041}.cls-3{fill:#056939}.cls-9{fill:#fff}</style></defs><g id="Laag_2" data-name="Laag 2"><path class="cls-1" d="M40.66 146.61l-25.77 7.37 14.73 19.78 4.75-5.92-7.98-9.07 14.27-.24v-11.92z"/><path class="cls-2" d="M33.62 164.64l-8.74 10.17 7.6 1.53-1.4 3s-3-1.63-3.3-.67a1.68 1.68 0 0 0 .46 2s-.87 2.69 2.3 2.59a11.37 11.37 0 0 0 5.28-1.41l1.69-8.77z"/><path class="cls-1" d="M98.79 146.61l25.78 7.37-14.73 19.78-4.75-5.92 7.98-9.07-14.28-.24v-11.92z"/><path class="cls-2" d="M105.83 164.64l8.75 10.17-7.58 1.53 1.41 3s3-1.63 3.3-.67a1.68 1.68 0 0 1-.46 2s.87 2.69-2.3 2.59a11.37 11.37 0 0 1-5.28-1.41l-1.67-8.78z"/><path class="cls-1" d="M79.67 182.34c3.87 3 10.1 8.7 12.68 17.18a26.34 26.34 0 0 1 1.12 6.48l-13.37.86s-3.56-19.21-7.57-21 7.14-3.52 7.14-3.52zm-24.18.02c-3.88 3-10.11 8.7-12.68 17.18a26.87 26.87 0 0 0-1.13 6.46l13.37.86s3.57-19.21 7.57-21-7.13-3.5-7.13-3.5z"/><path class="cls-3" d="M42.74 208.87L29 214.22h23.5a71.86 71.86 0 0 1 5.22-9.41c-4.87-1.12-13-3.58-18-4.63 1.34 4.33 2.98 6.47 3.02 8.69zm49.79.29l13.75 5.41H82.79a74.3 74.3 0 0 0-5.23-9.57c4.87-1.13 13-3.62 18-4.69-1.35 4.43-2.99 6.6-3.03 8.85z"/><path d="M98.93 139.93c-5.87-6.74-16-9.76-24.5-6.64-1.8.66-9.2.66-11 0-8.48-3.12-18.64-.1-24.51 6.64-7 8-9.16 18.7-7.66 28.78 1.89 12.83 9.05 21.61 22.31 25.56 7.41 2.2 10.26 1 15.35 1s7.94 1.18 15.35-1c13.26-4 20.42-12.73 22.31-25.56 1.51-10.08-.67-20.78-7.65-28.78z" fill="#e12828"/><circle cx="50.06" cy="150.55" r="7.5" fill="#e55e42"/><path d="M98.93 139.93c-5.87-6.74-16-9.76-24.5-6.64-1.8.66-9.2.66-11 0a20.66 20.66 0 0 0-8.71-1.16c4.84 1.05 5 7.18 20.16 6.05 14.09-1 24.49 19.87 16.48 37.09-5 10.69-22 17.93-44.27 16.43a38.72 38.72 0 0 0 6.48 2.57c7.41 2.2 10.26 1 15.35 1s7.94 1.18 15.35-1c13.26-4 20.42-12.73 22.31-25.56 1.51-10.08-.67-20.78-7.65-28.78z" fill="#c32221"/><path d="M68.66 130.08A10.14 10.14 0 0 0 60 124a10.86 10.86 0 0 1 3.75 6.3c-2-1.11-7.33-1.92-10.27.17 3.91.44 6.08 1.32 8.35 3.93a7 7 0 0 0-1.92 3.1 17.3 17.3 0 0 0 .12 3.81c2.41-3.42 8.17-1.67 8.43-5.25 0 0 5.93 1.13 8.2 5.23.44-5.41-2.18-6.37-2.18-6.37 2.5-1.8 7.19-.52 9.86.31-1.74-2.57-5.57-4.76-9-4.29a8.39 8.39 0 0 1 6.78-4.25c-4.37-1.51-10.58-1.44-13.43 3.35z" fill="#07883e"/><path d="M71.53 115.89c-4.73 3.74-4.22 12.82-3.66 17.17a1.16 1.16 0 0 0 1.23-.1c0-2.63.22-6.73 1.19-9.47 1.41-4 3.63-5.15 3.63-5.15a2.21 2.21 0 0 0-2.39-2.45z" fill="#047c39"/><path class="cls-3" d="M72.46 144.58l-4.32 7.17-5.6-6.21-46.63 2.21s4.84 27.6 29.87 25.2c18.84-1.81 22.13-13.16 22.64-18.3 1.48 4.94 6.87 15.47 25.71 13.66 25-2.4 24.53-30.41 24.53-30.41z"/><circle class="cls-9" cx="51.14" cy="160.16" r="4.62"/><circle class="cls-9" cx="82.48" cy="157.08" r="4.62"/><path d="M83.08 172.94a12.32 12.32 0 0 1-7 8.72 10.1 10.1 0 0 1-1.4.49 11.18 11.18 0 0 1-9.68-1.78 10.29 10.29 0 0 1-3.48-5 10.62 10.62 0 0 1-.31-1.14c-.17-.84-.58-2.84 0-3.63.68-1 2.16-.31 3.22-.13 1.57.32 18.57 3.07 18.65 2.47z" fill="#912a2a"/><path d="M74.67 182.15a11.18 11.18 0 0 1-9.67-1.78 10.29 10.29 0 0 1-3.48-5 13 13 0 0 1 7.36-.12 7.85 7.85 0 0 1 5.3 4.2 6.82 6.82 0 0 1 .49 2.7z" fill="#da6aa6"/></g></svg>