<svg xmlns="http://www.w3.org/2000/svg" width="14.753" height="20"><defs><style>.c{fill:#bababa}.d{fill:#e2e2e2}</style><clipPath id="a"><path fill="none" d="M0 0h14.753v20H0z"/></clipPath></defs><g clip-path="url(#a)"><path class="c" d="M.6 14.448a3.112 3.112 0 0 1 1.545-1.738 2.888 2.888 0 0 1 2.077.2c3.322 1.283 6.078-1.518 8.378-.2 2.383 1.367 2.538 6.176 1.675 6.567-.44.2-.783-.912-2.077-1.407-2.726-1.044-4.788 2.51-8.51 2.01-.31-.042-2.765-.405-3.488-2.144a4.216 4.216 0 0 1 .4-3.288"/><path class="d" d="M7.549 7.177a5.978 5.978 0 0 1 3.8 1.239 3.918 3.918 0 0 1 1.123 1.987 6.665 6.665 0 0 1 .1 2.3 10.387 10.387 0 0 1-2.847 6.052 3.817 3.817 0 0 1-2.1 1.22 2.913 2.913 0 0 1-2.358-.922 9.767 9.767 0 0 1-2.268-3.362 9.113 9.113 0 0 1-.907-3.952v-.082A4.414 4.414 0 0 1 4.2 7.864a7.3 7.3 0 0 1 3.349-.687"/><path class="c" d="M7.513 2.089c.925 1.6.922 3.337-.008 3.873s-2.432-.327-3.357-1.93S3.226.7 4.156.159s2.433.327 3.358 1.93"/><path class="d" d="M10.326 4.147c-.515 1.044-1.462 1.629-2.115 1.307s-.766-1.429-.251-2.469 1.462-1.634 2.115-1.312.765 1.43.251 2.474"/><path d="M9.18 10.357a.612.612 0 0 1 .6.591.633.633 0 0 1-.578.623.666.666 0 0 1-.622-.62.62.62 0 0 1 .6-.594m-3.073.679a.625.625 0 0 1-.616.615.626.626 0 0 1-.584-.615.639.639 0 0 1 .6-.6.616.616 0 0 1 .6.6m1.377.91c-.403-.008-.596-.135-.687-.393-.014-.056.035-.133.054-.2.064.022.146.026.189.07.283.319.3.319.618 0 .039-.046.128-.044.195-.062.015.069.067.171.04.2-.149.16-.317.301-.409.385m-2.592-.006c0 .13-.255.235-.57.235s-.569-.106-.569-.235.255-.235.57-.235.57.1.57.235m6.03 0c0 .13-.255.235-.57.235s-.569-.106-.569-.235.255-.235.57-.235.57.1.57.235" fill="#fff"/><path class="c" d="M3.485 13.112c0 .259-.39.469-.871.469s-.871-.21-.871-.469.39-.469.871-.469.871.21.871.469m9.381-.067c0 .259-.39.469-.871.469s-.871-.21-.871-.469.39-.469.871-.469.871.21.871.469"/></g></svg>