<svg xmlns="http://www.w3.org/2000/svg" width="20" height="20"><defs><clipPath id="a"><path fill="none" d="M0 0h20v20H0z"/></clipPath></defs><g clip-path="url(#a)"><path d="M9.306 20a.666.666 0 0 1-.566-.32c-.162-.256-.876-1.459-1.086-1.921l-1.5-.62c-.523.2-1.939.556-2.128.6a.661.661 0 0 1-.148.017.667.667 0 0 1-.472-.2l-.972-.972a.667.667 0 0 1-.181-.62l.008-.032c.343-1.338.511-1.878.592-2.1l-.62-1.5c-.49-.225-1.741-.97-1.922-1.085A.672.672 0 0 1 0 10.686V9.311a.669.669 0 0 1 .318-.565c.2-.128 1.445-.87 1.922-1.086l.62-1.5c-.2-.528-.557-1.94-.6-2.128a.658.658 0 0 1 .18-.62l.972-.977a.664.664 0 0 1 .474-.2.677.677 0 0 1 .146.016l.032.008c1.338.343 1.878.511 2.1.592l1.5-.62c.23-.5.99-1.773 1.086-1.922A.665.665 0 0 1 9.311 0h1.377a.666.666 0 0 1 .565.318c.128.2.87 1.445 1.086 1.922l1.5.62c.526-.2 1.939-.557 2.128-.6a.663.663 0 0 1 .62.18l.977.972a.667.667 0 0 1 .181.62l-.008.032c-.343 1.338-.511 1.878-.592 2.1l.62 1.5c.5.23 1.773.99 1.922 1.086a.662.662 0 0 1 .313.561v1.377a.664.664 0 0 1-.32.571c-.191.121-1.432.865-1.921 1.086l-.62 1.5c.2.523.556 1.939.6 2.128a.67.67 0 0 1-.18.62l-.972.971a.664.664 0 0 1-.474.2.677.677 0 0 1-.146-.016l-.032-.008c-1.338-.343-1.878-.511-2.1-.592l-1.5.62c-.225.49-.97 1.741-1.085 1.922a.672.672 0 0 1-.567.311H9.306zM10 5.638a4.357 4.357 0 0 0-4.353 4.354 4.391 4.391 0 0 0 1.273 3.083 4.358 4.358 0 1 0 3.088-7.437z" fill="#e2e2e2"/></g></svg>