<svg xmlns="http://www.w3.org/2000/svg" viewBox="0 0 139.46 222.88"><defs><style>.cls-1{fill:#dd223c;}.cls-2{fill:#f9b041;}.cls-3{fill:#ca1d36;}.cls-4{fill:#eac31f;}.cls-5{fill:#d4b21c;}.cls-6{fill:#bf9419;}.cls-7{fill:#fdf187;}.cls-8{fill:#07883e;}.cls-9{fill:#047c39;}.cls-10{fill:#fff;}.cls-11{fill:#912a2a;}.cls-12{fill:#da6aa6;}</style></defs><title>Tekengebied 5</title><g id="Laag_5" data-name="Laag 5"><polygon class="cls-1" points="41.75 143.89 14.28 151.75 29.98 172.83 35.04 166.52 26.54 156.85 41.75 156.59 41.75 143.89"/><path class="cls-2" d="M34.25,163.1l-9.33,10.84L33,175.58l-1.49,3.17S28.35,177,28,178a1.79,1.79,0,0,0,.48,2.15s-.92,2.87,2.46,2.76a12.26,12.26,0,0,0,5.63-1.5l1.8-9.34Z"/><polygon class="cls-1" points="97.71 143.89 125.18 151.75 109.48 172.83 104.42 166.52 112.92 156.85 97.71 156.59 97.71 143.89"/><path class="cls-2" d="M105.21,163.1l9.32,10.84-8.1,1.64,1.49,3.17s3.19-1.74,3.52-.72a1.78,1.78,0,0,1-.49,2.15s.93,2.87-2.45,2.76a12.21,12.21,0,0,1-5.63-1.5l-1.8-9.34Z"/><path class="cls-1" d="M106.41,208.75c-4.36,1-9.84,2.54-13.4,3.31-3.23-4.66-8-10.23-14-13.41a20.87,20.87,0,0,0-8.9-2.55,21.55,21.55,0,0,0-10.21,3.29c-5.37,3.26-9.69,8.34-12.69,12.67-4.44-1-8.9-1.92-13.43-2.81a145.5,145.5,0,0,1,2.11-14.91c.63-3.39,1.35-6.86,2.14-10.31.28-1.28.57-2.56.87-3.83.26-1.06.51-2.13.76-3.18,4-16.48,8.53-30.77,8.53-30.77H92s4.17,13.23,8.06,28.92c.3,1.21.61,2.44.9,3.67s.61,2.59.91,3.89c.68,3,1.32,5.94,1.91,8.88A167,167,0,0,1,106.41,208.75Z"/><path class="cls-3" d="M35.83,214.11l-11.76,4.57h20.1a61.82,61.82,0,0,1,4.47-8.06c-4.17-1-11.14-3.07-15.38-4C34.4,210.37,35.8,212.2,35.83,214.11Z"/><path class="cls-3" d="M104.31,214.11l11.76,4.57H96a63.32,63.32,0,0,0-4.47-8.06c4.17-1,11.14-3.07,15.38-4C105.74,210.37,104.34,212.2,104.31,214.11Z"/><path class="cls-4" d="M109.85,138.69c-.37-4.62-1.93-9.15-5.72-12.17s-11.21-2-11.21-2a25,25,0,0,0-4.44-4.57c-5.09-3.62-15.83-3-19.37,1.89-3.54-4.89-14.27-5.51-19.37-1.89a25.2,25.2,0,0,0-4.43,4.57s-7.35-1-11.21,2-5.36,7.55-5.72,12.17c-1.24,15.53,2.75,33.33,8,45.52,3.45,8,10.36,7,14.27,5.34,1.11,3,3,6,6.06,6.87,5.29,1.48,9.38-.15,12.36,0v0c3-.15,7.06,1.48,12.35,0,3.07-.86,5-3.87,6.06-6.87,3.92,1.63,10.82,2.63,14.28-5.34C107.09,172,111.08,154.22,109.85,138.69Z"/><path class="cls-5" d="M50.69,189.55c-5-25.18-5.09-48.76-1-55.46,2.76-4.55,1.21-7.49,1.21-7.49l0-1.13-5.19-1.39-.38.49s-7.35-1-11.21,2-5.36,7.53-5.72,12.15c-1.24,15.52,2.75,33.29,8,45.46C39.87,192.17,46.78,191.17,50.69,189.55Z"/><path class="cls-6" d="M104.13,126.6c-3.86-3.08-11.21-2-11.21-2A25,25,0,0,0,88.48,120c-5.09-3.61-15.83-3-19.37,1.89-3.54-4.88-14.27-5.5-19.37-1.89a25.2,25.2,0,0,0-4.43,4.57s-7.35-1-11.21,2c-.24.18-.44.39-.66.59,3.91-.59,9.83,1.23,16.21,6.9,0,0,4.27-6.24,14.89-2.77a16.71,16.71,0,0,0,9,.46c9-2.15,13.49,1.29,16.22,6.63,2.34,4.6,2.26,31.15-2.26,51.14,3.92,1.62,10.82,2.62,14.28-5.34,5.28-12.17,9.27-29.94,8-45.46C109.48,134.13,107.92,129.61,104.13,126.6Z"/><circle class="cls-7" cx="59.84" cy="144.61" r="6.47" transform="translate(-84.72 84.67) rotate(-45)"/><path class="cls-8" d="M65.64,119.47c-.46,6.12-2.78,9.54-4.18,11.08a22.33,22.33,0,0,1,3.08.77,16.71,16.71,0,0,0,9,.46,24.83,24.83,0,0,1,3.11-.54,62,62,0,0,1-3.13-8.88,24.34,24.34,0,0,1-.6-3,14.41,14.41,0,0,1,5-13.38c-3.41-9.33-11.09-5.44-11.09-5.44s-1.75,4.33-1.16,15A29.66,29.66,0,0,1,65.64,119.47Z"/><path class="cls-9" d="M77.54,105.05c0-.09-.08-.18-.13-.27s-.18-.39-.28-.57l-.15-.28c-.09-.17-.19-.33-.29-.49s-.1-.17-.15-.24-.23-.33-.34-.49l-.12-.16c-.16-.19-.31-.38-.48-.55l-.1-.11-.39-.38-.17-.14-.34-.28-.18-.13-.36-.23-.16-.1a6.12,6.12,0,0,0-1.05-.48l-.11,0-.42-.13-.13,0-.42-.09-.11,0a4.1,4.1,0,0,0-.49-.06h0a7.68,7.68,0,0,0-1.52,0h0c5.07,1.52,2,5.94.7,14a36.68,36.68,0,0,0-.45,6.8,13.54,13.54,0,0,1-4.78,10.92,16.55,16.55,0,0,0,8.47.3,24.83,24.83,0,0,1,3.11-.54c0-.09-.08-.2-.13-.3l-.19-.46-.15-.34c-.07-.19-.15-.38-.24-.59s-.1-.27-.16-.4-.17-.44-.26-.68l-.18-.46-.27-.75c-.07-.17-.13-.34-.19-.51s-.19-.56-.29-.85-.11-.35-.17-.53-.21-.65-.31-1l-.15-.47c-.15-.51-.3-1-.44-1.55a24.34,24.34,0,0,1-.6-3,15,15,0,0,1,.54-6.85,8.29,8.29,0,0,1,.31-.83,14.26,14.26,0,0,1,1.32-2.49c.19-.27.38-.54.59-.81a17.44,17.44,0,0,1,2.21-2.4C77.8,105.66,77.67,105.35,77.54,105.05Z"/><circle class="cls-10" cx="51.82" cy="157.06" r="4.87"/><circle class="cls-10" cx="86.09" cy="156.99" r="4.87"/><path class="cls-11" d="M80.34,171.67A13.15,13.15,0,0,1,72.87,181a10.94,10.94,0,0,1-1.49.52,11.92,11.92,0,0,1-10.26-1.89,10.93,10.93,0,0,1-3.71-5.28,12.15,12.15,0,0,1-.33-1.22c-.19-.9-.62-3-.06-3.86.73-1.07,2.3-.34,3.43-.15C62.14,169.38,80.21,172.3,80.34,171.67Z"/><path class="cls-12" d="M71.38,181.48a11.92,11.92,0,0,1-10.26-1.89,10.93,10.93,0,0,1-3.71-5.28,13.77,13.77,0,0,1,7.84-.12,8.32,8.32,0,0,1,5.65,4.47A7.32,7.32,0,0,1,71.38,181.48Z"/></g></svg>