<svg xmlns="http://www.w3.org/2000/svg" viewBox="0 0 139.46 222.88"><defs><style>.cls-1{fill:#056939;}.cls-2{fill:#f9b041;}.cls-3{fill:#5a8e38;}.cls-4{fill:#fef6b7;}.cls-5{fill:#deba2b;}.cls-6{fill:#e9c22f;}.cls-7{fill:#ffdd3a;}.cls-8{fill:#318138;}.cls-9{fill:#619e3d;}.cls-10{fill:#73aa43;}.cls-11{fill:#fff;}.cls-12{fill:#912a2a;}.cls-13{fill:#da6aa6;}</style></defs><title>Tekengebied 6</title><g id="Laag_4" data-name="Laag 4"><polygon class="cls-1" points="42.72 142.46 14.21 150.61 30.5 172.48 35.75 165.93 26.93 155.9 42.72 155.64 42.72 142.46"/><path class="cls-2" d="M34.93,162.39l-9.68,11.25,8.42,1.7-1.55,3.29s-3.31-1.81-3.66-.75a1.87,1.87,0,0,0,.51,2.23s-1,3,2.55,2.87a12.76,12.76,0,0,0,5.84-1.56l1.87-9.7Z"/><polygon class="cls-1" points="96.63 142.46 125.13 150.61 108.84 172.48 103.59 165.93 112.42 155.9 96.63 155.64 96.63 142.46"/><path class="cls-2" d="M104.42,162.39l9.67,11.25-8.41,1.7,1.55,3.29s3.31-1.81,3.65-.75a1.86,1.86,0,0,1-.5,2.23s1,3-2.55,2.87a12.76,12.76,0,0,1-5.84-1.56l-1.87-9.7Z"/><path class="cls-3" d="M81.7,187.15c4.29,3.3,11.18,9.63,14,19A29.57,29.57,0,0,1,97,213.31l-14.79.95s-3.94-21.25-8.37-23.2S81.7,187.15,81.7,187.15Z"/><path class="cls-3" d="M55,187.18c-4.29,3.29-11.18,9.62-14,19a29.57,29.57,0,0,0-1.25,7.16l14.79,1s3.94-21.25,8.37-23.2S55,187.18,55,187.18Z"/><path class="cls-4" d="M67.16,22.4C48.76,22.86,31.43,184,71.1,183S85.55,22,67.16,22.4Z"/><path class="cls-5" d="M70.87,183c8-.2,14-4.57,18.19-11.72H77.86C76.32,178.55,74.05,182.94,70.87,183Z"/><path class="cls-6" d="M63.22,171.3H51.54c4.62,7.49,10.94,11.92,19.33,11.72C67.64,183.09,65.13,178.68,63.22,171.3Z"/><path class="cls-5" d="M80.27,50.3a3.62,3.62,0,0,0,3.4-4.86c-.41-1.1-.83-2.18-1.25-3.22A3.58,3.58,0,0,0,79.08,40h-2a3.61,3.61,0,0,0-3.56,4.2c.16,1,.33,2,.49,3.06a3.61,3.61,0,0,0,3.57,3Z"/><path class="cls-5" d="M90.33,126H87.68a7.19,7.19,0,0,0-7.15,7.2v2.67a7.16,7.16,0,0,0,7.15,7.19h2.54a7.2,7.2,0,0,0,7.16-6.85c0-.9.08-1.82.12-2.74A7.19,7.19,0,0,0,90.33,126Z"/><path class="cls-5" d="M82.84,75.93h2a5.87,5.87,0,0,0,5.7-7.24l-.48-2a5.88,5.88,0,0,0-5.71-4.48H82.63a5.86,5.86,0,0,0-5.83,6.5q.11,1,.21,2A5.87,5.87,0,0,0,82.84,75.93Z"/><path class="cls-5" d="M85.91,91.54a6.6,6.6,0,0,0-6.59,7l.18,3a6.6,6.6,0,0,0,6.59,6.2h3.35A6.62,6.62,0,0,0,96,100.35c-.11-1-.23-2-.35-3a6.65,6.65,0,0,0-6.57-5.84Z"/><path class="cls-5" d="M77.86,171.3h11.2a51.06,51.06,0,0,0,5.06-12.6H79.62A106.33,106.33,0,0,1,77.86,171.3Z"/><path class="cls-5" d="M82.77,62.19a4.65,4.65,0,0,0,4.47-5.95c-.26-.9-.53-1.78-.8-2.65A4.68,4.68,0,0,0,82,50.3H79.86a4.66,4.66,0,0,0-4.62,5.27c.11.84.22,1.68.33,2.54a4.67,4.67,0,0,0,4.62,4.08Z"/><path class="cls-5" d="M85,91.54h2.15a6.59,6.59,0,0,0,6.51-7.7c-.14-.84-.29-1.67-.44-2.49a6.62,6.62,0,0,0-6.51-5.42H84.76a6.59,6.59,0,0,0-6.58,7.15c.07.8.13,1.6.2,2.4A6.6,6.6,0,0,0,85,91.54Z"/><path class="cls-5" d="M87.3,107.72a7.16,7.16,0,0,0-7.15,7.44c0,1.31.1,2.63.14,3.93A7.14,7.14,0,0,0,87.44,126h2.84a7.13,7.13,0,0,0,7.16-7.42c-.06-1.37-.12-2.75-.2-4.14a7.19,7.19,0,0,0-7.16-6.75Z"/><path class="cls-5" d="M88.65,143.09h-1.3a7.15,7.15,0,0,0-7.15,6.79l-.06,1.3a7.14,7.14,0,0,0,7.14,7.52h1.13a7.18,7.18,0,0,0,7-5.83l.24-1.29A7.19,7.19,0,0,0,88.65,143.09Z"/><path class="cls-6" d="M60.88,158.7H46.08a54.72,54.72,0,0,0,5.46,12.6H63.22A109.93,109.93,0,0,1,60.88,158.7Z"/><path class="cls-6" d="M57.83,40H56a3.58,3.58,0,0,0-3.39,2.38c-.37,1-.73,2.11-1.08,3.22A3.61,3.61,0,0,0,55,50.3h2.5a3.62,3.62,0,0,0,3.59-3.23c.11-1,.22-2.06.34-3A3.61,3.61,0,0,0,57.83,40Z"/><path class="cls-6" d="M53.53,62.19H51.94a5.86,5.86,0,0,0-5.76,4.73c-.14.7-.27,1.4-.41,2.11a5.85,5.85,0,0,0,5.77,6.9h1.88a5.87,5.87,0,0,0,5.85-5.55c0-.66.07-1.32.11-2A5.86,5.86,0,0,0,53.53,62.19Z"/><path class="cls-6" d="M48.38,107.72h3.28a6.59,6.59,0,0,0,6.6-6.52c0-1,0-2,0-3a6.6,6.6,0,0,0-6.6-6.69H48.59A6.64,6.64,0,0,0,42,97.67c-.08,1-.15,2-.22,3A6.63,6.63,0,0,0,48.38,107.72Z"/><path class="cls-6" d="M51.59,126.07h-2.7a7.07,7.07,0,0,0-7.13,7.77c.07.95.16,1.9.25,2.84a7.13,7.13,0,0,0,7.12,6.41h2.59a7.16,7.16,0,0,0,7.15-7.54c0-.87-.09-1.75-.13-2.63A7.16,7.16,0,0,0,51.59,126.07Z"/><path class="cls-6" d="M55.66,50.3h-2a4.64,4.64,0,0,0-4.51,3.49c-.23.87-.46,1.75-.68,2.64A4.66,4.66,0,0,0,53,62.19h2.44a4.66,4.66,0,0,0,4.64-4.3c.06-.86.13-1.71.2-2.54A4.65,4.65,0,0,0,55.66,50.3Z"/><path class="cls-6" d="M50,91.54h2a6.6,6.6,0,0,0,6.6-6.38l.09-2.39a6.6,6.6,0,0,0-6.6-6.84H50.29a6.61,6.61,0,0,0-6.56,5.7l-.33,2.49A6.6,6.6,0,0,0,50,91.54Z"/><path class="cls-6" d="M51.17,126.07a7.17,7.17,0,0,0,7.15-7.29c0-1.31,0-2.64-.06-4a7.19,7.19,0,0,0-7.15-7.09H48.35a7.18,7.18,0,0,0-7.17,7.06c0,1.4,0,2.79,0,4.18a7.17,7.17,0,0,0,7.18,7.11Z"/><path class="cls-6" d="M52.74,143.09H51.3a7.18,7.18,0,0,0-7,8.74c.09.43.19.86.29,1.29a7.19,7.19,0,0,0,7,5.58h1.26A7.15,7.15,0,0,0,60,150.84l-.12-1.23A7.15,7.15,0,0,0,52.74,143.09Z"/><path class="cls-7" d="M77.86,171.3H63.22c1.91,7.38,4.42,11.79,7.65,11.72S76.32,178.55,77.86,171.3Z"/><path class="cls-7" d="M65.1,50.3H70a3.93,3.93,0,0,0,3.87-4.54c-.14-.85-.28-1.69-.42-2.51A3.89,3.89,0,0,0,69.55,40H65.38a3.91,3.91,0,0,0-3.89,3.45c-.1.82-.19,1.65-.29,2.51A3.93,3.93,0,0,0,65.1,50.3Z"/><path class="cls-7" d="M63.22,171.3H77.86a106.33,106.33,0,0,0,1.76-12.6H60.88A109.93,109.93,0,0,0,63.22,171.3Z"/><path class="cls-7" d="M64.47,75.93h7.31A5.21,5.21,0,0,0,77,70.18q-.18-1.7-.36-3.36a5.2,5.2,0,0,0-5.18-4.63H64.66a5.2,5.2,0,0,0-5.2,4.88c-.07,1.11-.13,2.23-.19,3.36A5.21,5.21,0,0,0,64.47,75.93Z"/><path class="cls-7" d="M64.05,107.72h9.67a5.79,5.79,0,0,0,5.78-6.15c-.09-1.53-.18-3.06-.28-4.59a5.81,5.81,0,0,0-5.78-5.44H64.11a5.8,5.8,0,0,0-5.79,5.72q0,2.3-.06,4.59A5.8,5.8,0,0,0,64.05,107.72Z"/><path class="cls-7" d="M74.72,126H64.49a5.82,5.82,0,0,0-5.78,6.06c.08,1.86.17,3.7.27,5.51a5.79,5.79,0,0,0,5.79,5.47h10a5.79,5.79,0,0,0,5.8-5.75q0-2.72,0-5.52A5.81,5.81,0,0,0,74.72,126Z"/><path class="cls-7" d="M64.6,62.19H71a4.48,4.48,0,0,0,4.44-5q-.2-1.52-.39-3a4.47,4.47,0,0,0-4.44-3.87H64.84a4.47,4.47,0,0,0-4.46,4.08q-.12,1.47-.24,3A4.48,4.48,0,0,0,64.6,62.19Z"/><path class="cls-7" d="M74.44,143.09H65.61a5.8,5.8,0,0,0-5.78,6.3c.14,1.42.27,2.81.42,4.17A5.78,5.78,0,0,0,66,158.7h8.22A5.78,5.78,0,0,0,80,153.29q.12-2,.21-4.17A5.79,5.79,0,0,0,74.44,143.09Z"/><path class="cls-7" d="M64.39,91.54h8.2a5.79,5.79,0,0,0,5.77-6.28c-.11-1.35-.22-2.69-.34-4a5.8,5.8,0,0,0-5.77-5.31H64.54a5.8,5.8,0,0,0-5.79,5.59c-.06,1.33-.1,2.67-.15,4A5.8,5.8,0,0,0,64.39,91.54Z"/><path class="cls-7" d="M64.15,126.05H74.53a5.79,5.79,0,0,0,5.79-6c-.07-2.24-.15-4.51-.24-6.78a5.8,5.8,0,0,0-5.79-5.58H64.05a5.8,5.8,0,0,0-5.8,5.86q0,3.42.09,6.79A5.79,5.79,0,0,0,64.15,126.05Z"/><path class="cls-8" d="M78.89,184.47l-10-7.31-10,7.31.88,15.63a13.46,13.46,0,0,1,2.61,5.64,6.07,6.07,0,0,0,5.2,5,10,10,0,0,0,1.31.09H69a6,6,0,0,0,5.73-5,13.5,13.5,0,0,1,2.62-5.69Z"/><path class="cls-9" d="M77.32,200.1s-10.61-6.66-10.61-25.42,18.67-86.93,65.08-69c-21,5.92-30.09,10.41-30.09,40.81S99.25,189.49,77.32,200.1Z"/><path class="cls-10" d="M59.76,200.1S72,193.44,72,174.68s-18.67-86.93-65.08-69C27.9,111.61,37,116.1,37,146.5S43.35,191.35,59.76,200.1Z"/><path class="cls-1" d="M40.86,216.5l-15.2,5.91h26A80,80,0,0,1,57.42,212c-5.38-1.24-14.4-4-19.88-5.13C39,211.68,40.82,214.05,40.86,216.5Z"/><path class="cls-1" d="M95.93,216.82l15.21,6h-26a81.26,81.26,0,0,0-5.78-10.53c5.39-1.25,14.4-4,19.88-5.19C97.79,211.93,96,214.33,95.93,216.82Z"/><path class="cls-1" d="M73,101.45l-3.69,8.49-7-6-50.8,9.21s9.31,29.55,36.41,23.28c20.4-4.72,22.35-17.65,22.16-23.35,2.35,5.2,9.78,16,30.17,11.24,27.1-6.27,22.49-36.91,22.49-36.91Z"/><path class="cls-11" d="M93.31,107.62a6.83,6.83,0,0,0-5.12,8.2l13.31-3.08A6.83,6.83,0,0,0,93.31,107.62Z"/><path class="cls-11" d="M44.25,119a6.83,6.83,0,0,0-5.11,8.2l13.31-3.08A6.83,6.83,0,0,0,44.25,119Z"/><path class="cls-12" d="M83.28,133.47a13.67,13.67,0,0,1-5.38,11.14A12.41,12.41,0,0,1,65.7,146a11.49,11.49,0,0,1-5.6-5.62c-.41-.87-1.34-2.92-1-3.89.49-1.26,2.25-.88,3.44-1C64.34,135.41,83.3,134.14,83.28,133.47Z"/><path class="cls-13" d="M76.52,145.48A12.36,12.36,0,0,1,65.7,146a11.43,11.43,0,0,1-5-4.47,14.41,14.41,0,0,1,7.9-2c2.58.13,5.27,1.09,6.76,3.2A7.8,7.8,0,0,1,76.52,145.48Z"/></g></svg>