<svg id="Laag_1" data-name="Laag 1" xmlns="http://www.w3.org/2000/svg" viewBox="0 0 139.46 222.88"><defs><style>.cls-1{fill:#056939;}.cls-2{fill:#f9b041;}.cls-3{fill:#10a651;}.cls-4{fill:#07883e;}.cls-5{fill:#047c39;}.cls-6{fill:#31a544;}.cls-7{fill:#dd223c;}.cls-8{fill:#ca1d36;}.cls-9{fill:#fff;}.cls-10{fill:#912a2a;}.cls-11{fill:#da6aa6;}.cls-12{fill:#e39f70;}</style></defs><title>Tekengebied 3</title><polygon class="cls-1" points="41.29 143.69 13.82 151.54 29.52 172.62 34.59 166.31 26.08 156.65 41.29 156.39 41.29 143.69"/><path class="cls-2" d="M33.79,162.9l-9.32,10.84,8.11,1.64-1.5,3.17s-3.19-1.74-3.52-.72a1.8,1.8,0,0,0,.49,2.15s-.92,2.86,2.45,2.76a12.21,12.21,0,0,0,5.63-1.5l1.8-9.35Z"/><polygon class="cls-1" points="97.25 143.69 124.72 151.54 109.02 172.62 103.96 166.31 112.46 156.65 97.25 156.39 97.25 143.69"/><path class="cls-2" d="M104.75,162.9l9.33,10.84L106,175.38l1.49,3.17s3.19-1.74,3.53-.72a1.8,1.8,0,0,1-.49,2.15s.92,2.86-2.46,2.76a12.26,12.26,0,0,1-5.63-1.5l-1.8-9.35Z"/><path class="cls-3" d="M106,208.55c-4.36,1-9.84,2.53-13.4,3.3-3.23-4.66-8-10.23-14-13.4a20.59,20.59,0,0,0-8.9-2.55,21.37,21.37,0,0,0-10.2,3.29c-5.37,3.25-9.7,8.34-12.7,12.66-4.44-1-8.9-1.91-13.43-2.8a148.1,148.1,0,0,1,2.11-14.92c.64-3.38,1.35-6.85,2.14-10.3.28-1.28.57-2.56.88-3.83.25-1.07.51-2.13.75-3.18,4-16.49,8.54-30.78,8.54-30.78H91.57s4.18,13.24,8.06,28.92c.31,1.21.61,2.44.9,3.68s.61,2.58.91,3.88c.68,3,1.33,5.95,1.91,8.88A166.76,166.76,0,0,1,106,208.55Z"/><path class="cls-4" d="M82.66,53.44c5.15-1.3,10.12-7.59,5.82-13.9,4.85-.92,9.15-9.85,1.81-13.94,4.92-.72,7.87-12-.9-13.69,0,0,2.48-7.11-3.49-10.66C78.8-3,74.1,4.88,74.1,4.88c-6.47-6.61-17.67-.64-14.72,9.35-12.21.33-11.91,15.2-5.28,16.64C43,38.09,49.44,47,54.86,48.34,45.61,56.41,56.48,61.22,60,64.91c1.09,1.13,2.13,2.17,4.06,7.23,2.43,6.38,8.28,5,9.53-1.12C75.38,62.47,86.51,61.78,82.66,53.44Z"/><path class="cls-5" d="M77.7,16.7S64.88,39.79,66.07,112.31A104.08,104.08,0,0,0,67.41,125a1.37,1.37,0,0,0,2.72-.23c-.44-9.62-.44-43.59.69-56.82C73.76,33.76,77.7,16.7,77.7,16.7Z"/><path class="cls-6" d="M109.22,87c5.11,1.48,12.57-1.43,12-9.05,4.65,1.66,12.88-3.87,8.61-11.11,4.61,1.86,12.84-6.33,6.14-12.27,0,0,5.74-4.89,2.39-11-4-7.23-12-2.84-12-2.84-2.24-9-14.93-9.47-17.43.63-10.7-5.89-18,7.09-13,11.7-13.26.58-12.17,11.55-8.17,15.45-12.06,2.29-5.12,11.93-3.91,16.92.37,1.52.74,2.94-.15,8.28-1.12,6.74,4.64,8.46,8.79,3.85C98.38,91.13,108.34,96.15,109.22,87Z"/><path class="cls-4" d="M123.29,51.43S94.9,74.3,76,113.92c-2.18,4.57-4,8.52-5.39,11.92A1.39,1.39,0,0,0,73.1,127c4.59-8.72,7.48-15.24,14.53-26.85C105.84,70.19,123.29,51.43,123.29,51.43Z"/><path class="cls-6" d="M38.71,85.75c-4.74.46-10.83-3.33-9.12-10-4.36.69-10.68-5.53-5.74-11.2-4.37.89-10.25-7.68-3.38-11.8,0,0-4.25-5.24-.29-10,4.7-5.71,11-.52,11-.52,3.45-7.52,14.7-5.88,15.23,3.42,10.39-3.41,14.64,9.2,9.49,12.43C67.5,60.8,64.73,70.27,60.57,73c10.24,4,2.54,11.34.65,15.53C60.65,89.85,60.09,91,60,95.88c-.12,6.11-5.47,6.68-8.36,1.94C47.56,91.15,38,93.94,38.71,85.75Z"/><path class="cls-4" d="M32.18,52.13S53.4,76.92,63.52,114.9c1.16,4.38,2.07,8.14,2.78,11.37a1.25,1.25,0,0,1-2.41.64c-2.6-8.42-4.07-14.64-8.36-26C44.45,71.5,32.18,52.13,32.18,52.13Z"/><path class="cls-7" d="M29.11,152.17c-.81,13.67,5.71,21.61,12.1,27.76s17.06,9.19,20.91,15.47c3.13,5.09.49,13.41-5.64,15.83a15.46,15.46,0,0,0,9.84-4.31,34.18,34.18,0,0,0,7.1-9.33c3-5.39,7.07-7.57,10.62-9.9,9.27-6.09,11.77-6,18.13-13,9.67-10.7,16.78-51.41-34.64-51.41C41.21,123.29,30,137.58,29.11,152.17Z"/><path class="cls-8" d="M69.91,123.35c33.31,8.48,26.31,42.15,17.65,52.43-13,15.45-28.44,14.53-31.9,13.7a19.91,19.91,0,0,1,6.46,5.92c3.13,5.09.49,13.41-5.64,15.83a15.46,15.46,0,0,0,9.84-4.31,34.18,34.18,0,0,0,7.1-9.33c3-5.39,7.07-7.57,10.62-9.9,9.27-6.09,11.77-6,18.13-13C111.68,164.18,118.68,124.61,69.91,123.35Z"/><circle class="cls-9" cx="48.72" cy="150.49" r="4.87"/><path class="cls-9" d="M82.81,152.5a5.56,5.56,0,0,1,11.12,0"/><path class="cls-10" d="M75.55,173.53a13.16,13.16,0,0,1-7.48,9.29,11.3,11.3,0,0,1-1.48.52,11.94,11.94,0,0,1-10.27-1.89,11.07,11.07,0,0,1-3.71-5.28c-.13-.4-.24-.8-.33-1.21-.18-.91-.61-3-.06-3.87.73-1.07,2.31-.34,3.44-.15C57.34,171.24,75.42,174.16,75.55,173.53Z"/><path class="cls-11" d="M66.59,183.34a11.94,11.94,0,0,1-10.27-1.89,11.07,11.07,0,0,1-3.71-5.28,13.77,13.77,0,0,1,7.84-.12,8.32,8.32,0,0,1,5.66,4.47A7.32,7.32,0,0,1,66.59,183.34Z"/><path class="cls-12" d="M75.07,161.83H58.9s2-6.75,8.09-7.32S75.07,161.83,75.07,161.83Z"/><path class="cls-1" d="M35.37,213.9l-11.75,4.58H43.71a62.54,62.54,0,0,1,4.47-8.06c-4.16-1-11.14-3.07-15.38-4C33.94,210.16,35.34,212,35.37,213.9Z"/><path class="cls-1" d="M103.85,213.9l11.76,4.58H95.51A61.07,61.07,0,0,0,91,210.42c4.17-1,11.14-3.07,15.38-4C105.28,210.16,103.88,212,103.85,213.9Z"/></svg>