<svg xmlns="http://www.w3.org/2000/svg" viewBox="0 0 139.46 222.88"><defs><style>.cls-1{fill:#994493;}.cls-2{fill:#f9b041;}.cls-3{fill:#5c2363;}.cls-4{fill:#471f51;}.cls-5{fill:#892a81;}.cls-6{fill:#ffebd2;}.cls-7{fill:#fff;}.cls-8{fill:#912a2a;}.cls-9{fill:#da6aa6;}.cls-10{fill:#e39f70;}</style></defs><title>Tekengebied 6 kopie</title><g id="Laag_7" data-name="Laag 7"><path class="cls-1" d="M108,211.3c-4.59,1.09-10.36,2.67-14.1,3.48-3.41-4.91-8.44-10.77-14.72-14.12A22,22,0,0,0,69.82,198a22.66,22.66,0,0,0-10.74,3.46c-5.65,3.43-10.21,8.78-13.37,13.34-4.68-1-9.37-2-14.14-3a154.72,154.72,0,0,1,2.23-15.7c.66-3.56,1.42-7.21,2.25-10.85.29-1.35.6-2.69.92-4,.27-1.12.53-2.24.79-3.35,4.25-17.35,9-32.4,9-32.4H92.88s4.4,13.93,8.49,30.45c.32,1.27.64,2.57.95,3.87l1,4.09c.71,3.11,1.39,6.26,2,9.35A172.73,172.73,0,0,1,108,211.3Z"/><polygon class="cls-1" points="42.38 142.16 13.45 150.43 29.98 172.62 35.31 165.98 26.36 155.8 42.38 155.53 42.38 142.16"/><path class="cls-2" d="M34.48,162.38,24.66,173.8l8.54,1.72-1.58,3.34s-3.36-1.83-3.71-.76a1.91,1.91,0,0,0,.52,2.27s-1,3,2.58,2.9a12.78,12.78,0,0,0,5.93-1.58l1.89-9.84Z"/><polygon class="cls-1" points="97.08 142.16 126 150.43 109.47 172.62 104.15 165.98 113.1 155.8 97.08 155.53 97.08 142.16"/><path class="cls-2" d="M105,162.38l9.82,11.42-8.54,1.72,1.58,3.34s3.35-1.83,3.7-.76a1.9,1.9,0,0,1-.51,2.27s1,3-2.58,2.9a12.78,12.78,0,0,1-5.93-1.58l-1.9-9.84Z"/><path class="cls-3" d="M30.93,155.41C34.09,176,47.53,188.94,65,189.52c19.7.65,31.65-5.25,38.23-20.85C110.64,151.09,30.93,155.41,30.93,155.41Z"/><path class="cls-4" d="M95.34,181.74c-1.87,1.54-5.89,1.53-8.29,1.68-2.56.16-5.14-1.09-7.68-.85-4,.39-7.91,4.3-11.43,2-2.45-1.6-2.92-5.36-5.12-7.36-3.13-2.86-5.44-.38-8.32-3.53-3.44-3.76-.39-8.6-3.35-12.8-1.69-2.41-5.11-4.15-4.73-8.84.16-2,2.77-4.86,3.4-6.71.8-2.38-.22-4,.12-6.48.43-3.32,1.46-5.11,7.36-7.07,3.49-1.17,4.59-1.45,5.46-5.29,1.08-4.81,3.1-5.22,5-5.14,2.42.11,3.41.85,5.73.78,3.52-.12,4.64-3.92,8.31-3,4,1,4.41,4.23,7.72,6.24,1.85,1.12,4.09.86,6.06,1.76a14.93,14.93,0,0,1,6.33,5.38,32.17,32.17,0,0,1,5.29,14.38C109.2,160.9,104.61,174.12,95.34,181.74Z"/><path class="cls-3" d="M58.09,116.2c-2.24.94-4.57,1.9-6,3.87s-1.73,5-3.26,7c-2.4,3.2-7.78,4.52-7.64,8.73.09,2.93,3,5.28,3.62,8.19.82,4.16-2.5,4.85-1.31,8.95,1.43,4.89,7.15,4.8,9.21,9.51,1.17,2.69.88,6.52,5.09,8.64,1.78.89,5.59.16,7.5.58,2.45.54,3.26,2.23,5.6,3.26,3.06,1.36,5.12,1.4,9.86-2.61,2.81-2.38,3.63-3.17,7.36-1.92,4.67,1.58,6.07.06,7-1.59,1.16-2.12,1-3.36,2.32-5.3,1.92-3,5.75-1.94,6.85-5.57,1.17-3.93-1.33-6-1.33-9.83,0-2.17,1.39-4,1.65-6.1.33-2.73-.77-6.59-2-9.2a33.81,33.81,0,0,0-14.57-15.66C78.37,111.53,67.18,112.39,58.09,116.2Z"/><path class="cls-5" d="M37.72,127.79c1.41-2.22,3.12-4.39,5.51-5.49,2.54-1.17,5.56-1,8.06-2.25,3.92-2,6.64-7.27,11-6.47,3,.55,4.68,4,7.54,5,4.09,1.48,5.64-1.81,9.57.05,4.7,2.23,3.15,8.07,7.49,10.92,2.49,1.62,6.52,1.92,7.63,6.56.48,2-1.25,5.75-1.29,7.77-.06,2.6,1.48,3.7,1.95,6.25.62,3.35.15,5.47-5.2,9.7-3.16,2.51-4.19,3.22-3.84,7.24.44,5-1.47,6.23-3.41,6.91-2.49.86-3.73.54-6.06,1.54-3.53,1.52-3.46,5.6-7.49,6.15-4.35.6-5.81-2.29-9.82-2.89-2.23-.33-4.42.81-6.71.74a14.84,14.84,0,0,1-8.14-2.63,34,34,0,0,1-11.11-12.71C28.39,154.09,30.77,138.78,37.72,127.79Z"/><path class="cls-1" d="M68.3,162.2c.85-2.88-.79-5.5-1.65-8.38-.93-3.13.65-7.19-1.78-9.38-1.64-1.49-4.29-1.16-6.13-2.39-2.39-1.6-2.85-5.39-5.52-6.45s-5.42,1.5-8,3c-2.4,1.4-5.12-.45-7.55.89-3.22,1.78-5.52,5.64-6.87,9.32a30.2,30.2,0,0,0,2.53,15.37,34,34,0,0,0,11.11,12.71,14.76,14.76,0,0,0,8.1,2.63c.32-1.61.61-3.16,2.28-3.74,2.23-.77,5.08.07,6.74-1.6s.93-4.19,2-6.1C64.92,165.48,67.47,165,68.3,162.2Z"/><path class="cls-6" d="M66.64,124.89c-.37.27-.73.56-1.07.86s-.67.63-1,.94-.63.66-.93,1-.6.69-.87,1-.55.71-.8,1.08l-.73,1.13-.65,1.17c-.21.39-.38.81-.57,1.2a9.4,9.4,0,0,0-.49,1.24c-.14.42-.32.82-.42,1.25l-.35,1.27c-.11.43-.16.87-.24,1.3a11.29,11.29,0,0,0-.18,1.3L58.25,141a9.53,9.53,0,0,0,0,1.31l0,1.32v.55l-.42.36-4.2,3.69c-1.39,1.24-2.79,2.48-4.12,3.74l0-1.78c.42.42,1,.9,1.46,1.33s1.06.86,1.62,1.26,1.11.79,1.68,1.16,1.17.72,1.76,1,1.2.66,1.82,1,1.24.57,1.88.82q.47.19,1,.36c.32.12.64.24,1,.33.65.22,1.31.39,2,.57s1.33.3,2,.39,1.36.17,2.05.25,1.37.1,2.06.09,1.38-.05,2.08-.08c.34,0,.69-.06,1-.1s.7-.07,1-.13l1-.17,1-.22c.7-.13,1.37-.34,2-.53s1.35-.44,2-.64c-.63.34-1.25.7-1.9,1s-1.3.61-2,.85c-.34.12-.68.26-1,.37l-1,.3c-.35.11-.7.2-1.06.28l-1.06.23c-.72.11-1.44.25-2.17.3s-1.46.09-2.2.12-1.47,0-2.2-.1S64,160.05,63.3,160s-1.45-.27-2.16-.46c-.36-.09-.71-.2-1.07-.3l-1-.34A31,31,0,0,1,55,157.1c-.65-.34-1.29-.71-1.92-1.09s-1.25-.79-1.84-1.22-1.19-.88-1.76-1.35a19.64,19.64,0,0,1-1.69-1.53l-.89-.91.94-.87c1.39-1.3,2.81-2.54,4.25-3.76q1.06-.92,2.16-1.8c.73-.6,1.45-1.19,2.19-1.78l-.41.92,0-1.45a11.32,11.32,0,0,1,.09-1.43l.2-1.43a11,11,0,0,1,.29-1.41c.12-.47.21-.94.36-1.4l.48-1.36a10.17,10.17,0,0,1,.57-1.31,10.32,10.32,0,0,1,.66-1.28c.24-.4.46-.83.73-1.22l.82-1.16c.3-.37.61-.73.91-1.09s.65-.68,1-1,.69-.63,1-.95.73-.58,1.1-.86A14.5,14.5,0,0,1,66.64,124.89Z"/><path class="cls-6" d="M43.17,133c-.52,1.09-1,2.19-1.41,3.31s-.79,2.24-1.1,3.38c-.15.57-.3,1.14-.43,1.71s-.24,1.15-.34,1.72a29.18,29.18,0,0,0-.35,3.46A21.65,21.65,0,0,0,39.7,150a18.39,18.39,0,0,0,.72,3.29,17.16,17.16,0,0,0,3.26,5.8l.58.68-.45.77-1.93,3.27-.07-1.38c.25.33.61.73.94,1.09s.7.71,1.07,1.06a29,29,0,0,0,2.35,1.93,26.79,26.79,0,0,0,2.57,1.66c.44.26.89.5,1.35.73s.92.45,1.39.65,1,.38,1.44.56,1,.35,1.47.49,1,.29,1.5.41,1,.23,1.52.33,1,.19,1.55.25,1,.13,1.57.17,1.06.07,1.59.11,1.06,0,1.6,0c-.52.1-1,.21-1.58.3s-1.07.15-1.61.18l-.8.07-.82,0c-.54,0-1.08,0-1.63,0s-1.09-.06-1.63-.13-1.08-.14-1.62-.25-1.08-.22-1.62-.33-1.06-.3-1.58-.48-1-.37-1.56-.57-1-.42-1.52-.66-1-.5-1.47-.78-1-.56-1.42-.87-.92-.62-1.36-1-.88-.69-1.3-1.05-.83-.76-1.23-1.16a15.19,15.19,0,0,1-1.16-1.3l-.51-.65.43-.73,1.91-3.28.12,1.44A18,18,0,0,1,38.17,154a18.62,18.62,0,0,1-.65-3.76,20.59,20.59,0,0,1,.1-3.77,23.44,23.44,0,0,1,.71-3.66c.16-.6.34-1.18.54-1.77s.41-1.15.66-1.71A31.22,31.22,0,0,1,41.15,136,25.62,25.62,0,0,1,43.17,133Z"/><path class="cls-6" d="M78.94,137.56c-32-1.67-43.54,30-43.58,30.1a33.68,33.68,0,0,0,4.35,5.26C46.42,140.31,78.94,137.56,78.94,137.56Z"/><path class="cls-4" d="M33.71,216.94l-12.38,4.82H42.49a65.35,65.35,0,0,1,4.71-8.49c-4.39-1-11.73-3.23-16.19-4.18C32.2,213,33.68,214.93,33.71,216.94Z"/><path class="cls-4" d="M105.81,216.94l12.38,4.82H97a65.92,65.92,0,0,0-4.7-8.49c4.38-1,11.72-3.23,16.19-4.18C107.32,213,105.85,214.93,105.81,216.94Z"/><circle class="cls-7" cx="47.03" cy="139.42" r="5.13"/><path class="cls-7" d="M82.93,141.54a5.85,5.85,0,1,1,11.7,0"/><path class="cls-8" d="M75.28,163.68a13.85,13.85,0,0,1-7.87,9.79,12.11,12.11,0,0,1-1.57.54A12.53,12.53,0,0,1,55,172a11.56,11.56,0,0,1-3.91-5.56,11,11,0,0,1-.34-1.28c-.2-1-.65-3.19-.07-4.07.77-1.13,2.43-.35,3.62-.15C56.11,161.27,75.14,164.35,75.28,163.68Z"/><path class="cls-9" d="M65.84,174A12.53,12.53,0,0,1,55,172a11.56,11.56,0,0,1-3.91-5.56,14.52,14.52,0,0,1,8.26-.13c2.52.72,5,2.28,6,4.71A7.71,7.71,0,0,1,65.84,174Z"/><path class="cls-10" d="M74.78,151.36h-17s2.1-7.11,8.52-7.71S74.78,151.36,74.78,151.36Z"/></g></svg>