<svg xmlns="http://www.w3.org/2000/svg" xmlns:xlink="http://www.w3.org/1999/xlink" width="32.905" height="39.644" viewBox="0 0 32.905 39.644"><defs><style>.a{fill:none;}.b{clip-path:url(#a);}.c{fill:#eac31c;}.d{fill:#d4b21a;}.e{fill:#be931a;}.f{fill:#fff584;}.g{clip-path:url(#b);}.h{fill:#00873e;}.i{fill:#007b38;}</style><clipPath id="a"><path class="a" d="M0,0H32.9V32.367H0Z" transform="translate(0 0.257)"/></clipPath><clipPath id="b"><path class="a" d="M0,0H6.612V13.223H0Z" transform="translate(0.232 0.072)"/></clipPath></defs><g transform="translate(0 -0.284)"><g transform="translate(0 7.304)"><path class="a" d="M0,0H32.9V32.367H0Z" transform="translate(0 0.257)"/><g class="b"><path class="c" d="M32.814,8.592a6.831,6.831,0,0,0-2.3-4.96c-1.551-1.254-4.5-.825-4.5-.825A10.194,10.194,0,0,0,24.232.942c-2.047-1.474-6.357-1.219-7.779.771C15.03-.277,10.72-.532,8.673.942A10.194,10.194,0,0,0,6.891,2.807s-2.952-.429-4.5.825a6.831,6.831,0,0,0-2.3,4.96A42.478,42.478,0,0,0,3.32,27.137c1.388,3.248,4.162,2.842,5.734,2.178a4.142,4.142,0,0,0,2.433,2.8c2.126.6,3.766-.06,4.964,0v-.025l0,.025c1.2-.06,2.838.6,4.964,0a4.142,4.142,0,0,0,2.433-2.8c1.573.663,4.346,1.07,5.734-2.178a42.478,42.478,0,0,0,3.23-18.545" transform="translate(0 0.257)"/></g></g><path class="d" d="M9.054,26.675C7.06,16.417,7.007,6.809,8.636,4.08a3.265,3.265,0,0,0,.484-3.055L9.13.567,7.045,0c-.1.124-.154.2-.154.2s-2.952-.429-4.5.824A6.818,6.818,0,0,0,.09,5.979,42.378,42.378,0,0,0,3.32,24.5c1.388,3.244,4.161,2.838,5.734,2.176" transform="translate(0 10.199)"/><path class="e" d="M28.394,3.627c-1.551-1.252-4.5-.824-4.5-.824A10.182,10.182,0,0,0,22.108.941c-2.047-1.472-6.357-1.218-7.779.77C12.907-.277,8.6-.531,6.55.941A10.171,10.171,0,0,0,4.768,2.8s-2.953-.429-4.5.824c-.1.077-.176.162-.265.244,1.571-.243,3.951.5,6.513,2.811,0,0,1.714-2.546,5.981-1.131a6.609,6.609,0,0,0,3.627.188c3.6-.875,5.416.525,6.512,2.7.942,1.873.911,12.691-.905,20.835,1.573.662,4.346,1.068,5.734-2.176a42.382,42.382,0,0,0,3.23-18.52,6.819,6.819,0,0,0-2.3-4.954" transform="translate(2.123 7.597)"/><path class="f" d="M5.2,2.638A2.62,2.62,0,0,1,2.6,5.276,2.62,2.62,0,0,1,0,2.638,2.62,2.62,0,0,1,2.6,0,2.62,2.62,0,0,1,5.2,2.638" transform="translate(10.129 15.925)"/><g transform="translate(13.144 0.211)"><path class="a" d="M0,0H6.612V13.223H0Z" transform="translate(0.232 0.072)"/><g class="g"><path class="h" d="M1.68,8.039A7.41,7.41,0,0,1,0,12.554a8.713,8.713,0,0,1,1.241.311,6.615,6.615,0,0,0,3.627.188,9.538,9.538,0,0,1,1.25-.222A25.522,25.522,0,0,1,4.859,9.215,9.978,9.978,0,0,1,4.617,8a5.926,5.926,0,0,1,2-5.454C5.243-1.256,2.16.327,2.16.327s-.7,1.765-.466,6.119A12.468,12.468,0,0,1,1.68,8.039" transform="translate(0.232 0.072)"/></g></g><path class="i" d="M5,2.163c-.016-.038-.034-.074-.051-.111-.037-.08-.074-.159-.112-.233-.02-.039-.041-.077-.062-.115q-.057-.1-.115-.2c-.021-.034-.041-.068-.062-.1-.045-.069-.091-.134-.138-.2-.015-.021-.03-.044-.046-.064Q4.317,1.024,4.22.917L4.176.873c-.051-.054-.1-.1-.155-.153L3.952.66C3.907.621,3.861.584,3.815.549L3.744.5C3.7.462,3.646.43,3.6.4L3.536.362a2.6,2.6,0,0,0-.423-.2L3.07.149C3.013.129,2.956.112,2.9.1L2.846.083Q2.763.062,2.681.047L2.637.04C2.571.028,2.5.019,2.44.013h0a3.143,3.143,0,0,0-.613.005h0c2.037.62.817,2.42.281,5.692A15.286,15.286,0,0,0,1.919,8.48,5.551,5.551,0,0,1,0,12.93a6.566,6.566,0,0,0,3.4.122,9.538,9.538,0,0,1,1.25-.222L4.6,12.709l-.08-.188-.056-.138c-.032-.077-.063-.155-.1-.24-.021-.053-.043-.108-.065-.164-.035-.089-.069-.179-.106-.274l-.071-.19c-.037-.1-.073-.2-.111-.306-.025-.069-.049-.137-.073-.209-.039-.111-.077-.227-.116-.344-.024-.072-.047-.142-.071-.215-.042-.131-.083-.266-.124-.4-.02-.066-.04-.128-.06-.195-.06-.205-.119-.415-.175-.63A10.015,10.015,0,0,1,3.154,8a6.231,6.231,0,0,1,.215-2.79q.056-.171.125-.342a5.734,5.734,0,0,1,.533-1.012q.109-.167.234-.332a7.552,7.552,0,0,1,.888-.978c-.048-.134-.1-.259-.151-.38" transform="translate(14.84 0.285)"/></g></svg>