<svg xmlns="http://www.w3.org/2000/svg" width="29.847" height="44.896" viewBox="0 0 29.847 44.896"><defs><style>.a{fill:#fff8b5;}.b{fill:#deba2b;}.c{fill:#e9c32d;}.d{fill:#ffdd39;}.e{fill:#308037;}.f{fill:#609e3e;}.g{fill:#72aa43;}</style></defs><g transform="translate(0 0)"><path class="a" d="M4.8,0C.4.108-3.738,38.5,5.74,38.27S9.195-.107,4.8,0" transform="translate(9.605 0)"/><path class="b" d="M0,2.792A5.062,5.062,0,0,0,4.346,0H1.67C1.3,1.728.76,2.773,0,2.792" transform="translate(15.291 35.478)"/><path class="c" d="M2.79,0H0A5.146,5.146,0,0,0,4.618,2.792C3.845,2.811,3.245,1.759,2.79,0" transform="translate(10.673 35.478)"/><path class="b" d="M1.613,2.457A.862.862,0,0,0,2.424,1.3Q2.277.9,2.126.531A.858.858,0,0,0,1.329,0H.863A.86.86,0,0,0,.012,1q.059.355.116.728a.863.863,0,0,0,.853.728Z" transform="translate(15.924 4.191)"/><path class="b" d="M2.343,0H1.708A1.714,1.714,0,0,0,0,1.716q0,.32,0,.635A1.709,1.709,0,0,0,1.71,4.065h.607A1.714,1.714,0,0,0,4.025,2.434q.017-.324.029-.653A1.714,1.714,0,0,0,2.343,0" transform="translate(17.598 24.692)"/><path class="b" d="M1.451,3.275h.475A1.4,1.4,0,0,0,3.288,1.55q-.057-.243-.116-.482A1.4,1.4,0,0,0,1.81,0H1.4A1.4,1.4,0,0,0,.008,1.549q.025.235.05.472A1.4,1.4,0,0,0,1.451,3.275" transform="translate(16.7 9.48)"/><path class="b" d="M1.578,0A1.574,1.574,0,0,0,0,1.67q.022.353.043.707A1.575,1.575,0,0,0,1.621,3.855h.8A1.58,1.58,0,0,0,3.991,2.1q-.041-.353-.085-.707A1.584,1.584,0,0,0,2.337,0Z" transform="translate(17.307 16.474)"/><path class="b" d="M0,3H2.677A12.115,12.115,0,0,0,3.884,0H.42A25.542,25.542,0,0,1,0,3" transform="translate(16.961 32.476)"/><path class="b" d="M1.807,2.832A1.109,1.109,0,0,0,2.876,1.414q-.094-.319-.192-.63A1.115,1.115,0,0,0,1.62,0H1.112A1.11,1.11,0,0,0,.01,1.256q.039.3.078.605a1.113,1.113,0,0,0,1.1.971Z" transform="translate(16.326 6.648)"/><path class="b" d="M1.626,3.719h.513A1.574,1.574,0,0,0,3.7,1.883q-.052-.3-.107-.593A1.579,1.579,0,0,0,2.035,0H1.578A1.573,1.573,0,0,0,.006,1.7q.024.285.048.571A1.576,1.576,0,0,0,1.626,3.719" transform="translate(17.032 12.755)"/><path class="b" d="M1.709,0A1.708,1.708,0,0,0,0,1.772q.017.471.032.938a1.707,1.707,0,0,0,1.71,1.653h.678a1.7,1.7,0,0,0,1.71-1.768q-.02-.49-.049-.985A1.713,1.713,0,0,0,2.372,0Z" transform="translate(17.508 20.329)"/><path class="b" d="M2.036,0H1.725A1.706,1.706,0,0,0,.017,1.619Q.01,1.774,0,1.928A1.7,1.7,0,0,0,1.71,3.719h.269A1.712,1.712,0,0,0,3.661,2.331q.03-.153.057-.308A1.713,1.713,0,0,0,2.036,0" transform="translate(17.502 28.757)"/><path class="c" d="M3.534,0H0A12.868,12.868,0,0,0,1.3,3h2.79a26.407,26.407,0,0,1-.56-3" transform="translate(9.369 32.476)"/><path class="c" d="M1.543,0H1.112A.858.858,0,0,0,.3.566Q.169.938.042,1.334A.863.863,0,0,0,.866,2.457h.6a.863.863,0,0,0,.858-.77q.039-.373.081-.728A.86.86,0,0,0,1.543,0" transform="translate(10.632 4.191)"/><path class="c" d="M1.877,0H1.5A1.4,1.4,0,0,0,.12,1.128q-.049.25-.1.5A1.4,1.4,0,0,0,1.4,3.275H1.85a1.4,1.4,0,0,0,1.4-1.322q.013-.238.027-.472A1.4,1.4,0,0,0,1.877,0" transform="translate(9.271 9.48)"/><path class="c" d="M1.581,3.855h.785A1.575,1.575,0,0,0,3.944,2.3q0-.354.009-.707A1.575,1.575,0,0,0,2.375,0H1.632A1.582,1.582,0,0,0,.056,1.461Q.028,1.814,0,2.167A1.58,1.58,0,0,0,1.581,3.855" transform="translate(8.335 16.474)"/><path class="c" d="M2.355,0H1.71a1.688,1.688,0,0,0-1.7,1.851q.027.342.06.679a1.7,1.7,0,0,0,1.7,1.526h.62a1.707,1.707,0,0,0,1.707-1.8q-.016-.312-.03-.627A1.71,1.71,0,0,0,2.355,0" transform="translate(8.329 24.7)"/><path class="c" d="M1.747,0H1.272A1.114,1.114,0,0,0,.194.831q-.082.311-.161.631A1.11,1.11,0,0,0,1.115,2.832H1.7A1.113,1.113,0,0,0,2.806,1.807Q2.83,1.5,2.855,1.2A1.11,1.11,0,0,0,1.747,0" transform="translate(9.911 6.648)"/><path class="c" d="M1.58,3.719h.49A1.576,1.576,0,0,0,3.647,2.2q.01-.287.02-.571A1.573,1.573,0,0,0,2.091,0H1.658A1.578,1.578,0,0,0,.092,1.358q-.041.3-.079.593A1.574,1.574,0,0,0,1.58,3.719" transform="translate(8.715 12.755)"/><path class="c" d="M2.391,4.371A1.707,1.707,0,0,0,4.1,2.636q-.008-.471-.013-.947A1.717,1.717,0,0,0,2.376,0H1.718A1.711,1.711,0,0,0,.005,1.683q-.007.5,0,.994A1.709,1.709,0,0,0,1.715,4.372Z" transform="translate(8.193 20.329)"/><path class="c" d="M2.055,0H1.71A1.712,1.712,0,0,0,.041,2.083q.034.155.069.307A1.715,1.715,0,0,0,1.78,3.719h.3a1.705,1.705,0,0,0,1.7-1.871q-.014-.146-.028-.293A1.709,1.709,0,0,0,2.055,0" transform="translate(8.904 28.757)"/><path class="d" d="M3.5,0H0C.455,1.759,1.055,2.811,1.828,2.792S3.129,1.728,3.5,0" transform="translate(13.464 35.478)"/><path class="d" d="M.936,2.457H2.1a.937.937,0,0,0,.925-1.082q-.049-.306-.1-.6A.934.934,0,0,0,2,0H1a.932.932,0,0,0-.93.821q-.035.293-.068.6A.937.937,0,0,0,.936,2.457" transform="translate(12.975 4.191)"/><path class="d" d="M.56,3h3.5a25.538,25.538,0,0,0,.42-3H0A26.4,26.4,0,0,0,.56,3" transform="translate(12.903 32.476)"/><path class="d" d="M1.245,3.275H2.992A1.244,1.244,0,0,0,4.23,1.9q-.042-.4-.086-.8A1.242,1.242,0,0,0,2.907,0H1.291A1.241,1.241,0,0,0,.049,1.163q-.025.4-.047.8A1.244,1.244,0,0,0,1.245,3.275" transform="translate(12.516 9.48)"/><path class="d" d="M1.385,3.855H3.694A1.384,1.384,0,0,0,5.076,2.391Q5.044,1.843,5.009,1.3A1.385,1.385,0,0,0,3.627,0H1.4A1.384,1.384,0,0,0,.014,1.363Q.005,1.91,0,2.458a1.384,1.384,0,0,0,1.384,1.4" transform="translate(12.277 16.474)"/><path class="d" d="M3.827,0,1.384,0A1.386,1.386,0,0,0,0,1.446q.029.665.065,1.312a1.382,1.382,0,0,0,1.383,1.3H3.828A1.381,1.381,0,0,0,5.213,2.693q.005-.648,0-1.316A1.386,1.386,0,0,0,3.827,0" transform="translate(12.383 24.695)"/><path class="d" d="M1.069,2.832H2.6a1.069,1.069,0,0,0,1.06-1.2Q3.615,1.27,3.568.921A1.066,1.066,0,0,0,2.508,0H1.127A1.066,1.066,0,0,0,.062.972Q.032,1.321,0,1.68A1.069,1.069,0,0,0,1.069,2.832" transform="translate(12.724 6.648)"/><path class="d" d="M3.5,0H1.385A1.381,1.381,0,0,0,.006,1.5q.047.508.1.994A1.379,1.379,0,0,0,1.482,3.719H3.446A1.379,1.379,0,0,0,4.828,2.43q.029-.485.052-.993A1.382,1.382,0,0,0,3.5,0" transform="translate(12.648 28.757)"/><path class="d" d="M1.385,3.719H3.342a1.384,1.384,0,0,0,1.38-1.5q-.039-.481-.081-.957A1.385,1.385,0,0,0,3.261,0H1.419A1.384,1.384,0,0,0,.035,1.33Q.017,1.807,0,2.288A1.385,1.385,0,0,0,1.385,3.719" transform="translate(12.359 12.755)"/><path class="d" d="M1.409,4.368l2.48,0A1.383,1.383,0,0,0,5.272,2.945q-.023-.8-.056-1.616A1.385,1.385,0,0,0,3.832,0H1.385A1.384,1.384,0,0,0,0,1.4q.007.814.023,1.618A1.383,1.383,0,0,0,1.409,4.368" transform="translate(12.275 20.329)"/><path class="e" d="M4.782,1.744,2.391,0,0,1.744.211,5.466A3.21,3.21,0,0,1,.834,6.812,1.448,1.448,0,0,0,2.077,8a2.369,2.369,0,0,0,.314.023h.021a1.421,1.421,0,0,0,1.369-1.2,3.2,3.2,0,0,1,.624-1.358Z" transform="translate(12.425 36.874)"/><path class="f" d="M2.533,23.2S0,21.618,0,17.149,4.461-3.565,15.549.71c-5.024,1.409-7.19,2.481-7.19,9.724S7.774,20.676,2.533,23.2" transform="translate(14.298 19.136)"/><path class="g" d="M12.637,23.2s2.912-1.587,2.912-6.055S11.088-3.565,0,.71c5.024,1.409,7.19,2.481,7.19,9.724S8.715,21.12,12.637,23.2" transform="translate(0 19.136)"/></g></svg>