<svg xmlns="http://www.w3.org/2000/svg" xmlns:xlink="http://www.w3.org/1999/xlink" width="39.983" height="34.646" viewBox="0 0 39.983 34.646"><defs><style>.a{fill:none;}.b{clip-path:url(#a);}.c{fill:#e12727;}.d{fill:#e55d42;}.e{fill:#cc2322;}.f{fill:#37b34a;}.g{clip-path:url(#b);}.h{fill:#31a444;}.i{clip-path:url(#c);}.j{clip-path:url(#d);}.k{clip-path:url(#e);}</style><clipPath id="a"><path class="a" d="M0,0H25.439V23.476H0Z" transform="translate(0 0.114)"/></clipPath><clipPath id="b"><path class="a" d="M0,0H5.235V6.573H0Z" transform="translate(0.038 0.072)"/></clipPath><clipPath id="c"><path class="a" d="M0,0H37.716V25.92H0Z" transform="translate(0.058 0.048)"/></clipPath><clipPath id="d"><path class="a" d="M0,0H8.408V4.962H0Z" transform="translate(0.025 0.092)"/></clipPath><clipPath id="e"><path class="a" d="M0,0H6.719V8.386H0Z" transform="translate(0.024 0.054)"/></clipPath></defs><g transform="translate(0 -0.282)"><g transform="translate(0 3.88)"><path class="a" d="M0,0H25.439V23.476H0Z" transform="translate(0 0.114)"/><g class="b"><path class="c" d="M.54,23.335a.609.609,0,0,1-.076-1.2,28,28,0,0,0,9.144-4.281c2.5-1.863,3.9-4.927,4.925-7.485.651-1.622,1.632-5.362,2.291-6.994C17.744,1.1,20.881-1.693,24.26,1.31c2.163,1.922.835,6.531.063,8.342-2.164,5.073-6.368,10.832-11.976,12.428A30.7,30.7,0,0,1,.54,23.335" transform="translate(0 0.114)"/></g></g><path class="d" d="M6.7,16.746a18.843,18.843,0,0,0,5.359-7.514c.343-.854.744-2.17,1.169-3.564.4-1.306.786-2.666,1.121-3.428C15.2.3,15.939.005,15.939.005,14.248-.106,12.933,1.549,12.5,2.619c-.312.772-.723,2.122-1.121,3.428-.425,1.394-.85,2.7-1.169,3.564A16.245,16.245,0,0,1,0,19.677a14.243,14.243,0,0,0,6.7-2.932" transform="translate(5.446 5.209)"/><path class="e" d="M24.316,9.633c.772-1.81,2.1-6.419-.063-8.342A4.736,4.736,0,0,0,21.572,0h0c2.775.806,1.552,6.617-.655,11.134A21.635,21.635,0,0,1,0,22.784a.59.59,0,0,0,.533.532A30.694,30.694,0,0,0,12.34,22.06c5.609-1.6,9.813-7.355,11.976-12.428" transform="translate(0.007 4.014)"/><path class="f" d="M5.187,3.407a1.93,1.93,0,0,0-.729-1,1.686,1.686,0,0,1-.69-.9C3.86,2.674,1.745,2.774,1.745,2.774a1.127,1.127,0,0,0,.228-.912c-.068-.62.2-.779.2-.779l-.829.062A1.9,1.9,0,0,1,0,.738,2.129,2.129,0,0,0,1.025.591,6.06,6.06,0,0,1,3.866.01,3.737,3.737,0,0,1,6.98,2.747c-.154-.237-.626-.242-1.065-.43A2.454,2.454,0,0,1,5.3,1.831a2.006,2.006,0,0,1-.117,1.575" transform="translate(18.293 3.448)"/><g transform="translate(20 0.211)"><path class="a" d="M0,0H5.235V6.573H0Z" transform="translate(0.038 0.072)"/><g class="g"><path class="h" d="M5.235,5.913a3.8,3.8,0,0,0-2.846-2.7V3.207a2.085,2.085,0,0,1,.552-1.844A2.348,2.348,0,0,1,3.983.67S4.3.225,3.6,0A3.018,3.018,0,0,0,1.861,3.159s0,.008,0,.012C2.346,4.661.649,5.207.649,5.207A1.484,1.484,0,0,1,.43,4.249a.4.4,0,0,0-.11.13,1.041,1.041,0,0,0-.092.65A1.128,1.128,0,0,1,0,5.941s2.115-.1,2.023-1.268a1.683,1.683,0,0,0,.69.9,1.931,1.931,0,0,1,.729,1A2.006,2.006,0,0,0,3.559,5a2.454,2.454,0,0,0,.611.486c.438.187.91.193,1.065.43" transform="translate(0.038 0.071)"/></g></g><path class="c" d="M.546,24.426a.8.8,0,0,1,.226-1.555A36.679,36.679,0,0,0,13.65,19.856c3.7-1.714,6.326-5.263,8.332-8.265,1.272-1.9,3.538-6.433,4.823-8.348C28.6.569,33.373-2.161,36.9,2.6c2.256,3.05-.69,8.6-2.167,10.713-4.142,5.919-11.084,12.166-18.706,12.695A40.223,40.223,0,0,1,.546,24.426" transform="translate(2.028 8.786)"/><path class="d" d="M9.379,19.086a24.663,24.663,0,0,0,8.9-8.184c.67-1,1.539-2.582,2.459-4.253C21.6,5.081,22.461,3.442,23.1,2.556,24.716.295,25.74.121,25.74.121c-2.139-.6-4.271,1.166-5.113,2.421-.608.906-1.5,2.526-2.362,4.092-.92,1.672-1.818,3.233-2.459,4.253A21.26,21.26,0,0,1,0,21.032a18.648,18.648,0,0,0,9.379-1.946" transform="translate(9.523 10.375)"/><g transform="translate(1.972 8.961)"><path class="a" d="M0,0H37.716V25.92H0Z" transform="translate(0.058 0.048)"/><g class="i"><path class="e" d="M34.727,13.094C36.2,10.982,39.15,5.431,36.894,2.381A6.214,6.214,0,0,0,33.8,0h0c3.341,1.785.207,8.9-3.84,14.1C23.107,22.9,10.542,26.661,0,23.377a.774.774,0,0,0,.541.826,40.222,40.222,0,0,0,15.477,1.586c7.622-.529,14.564-6.776,18.706-12.7" transform="translate(0.058 0.048)"/></g></g><g transform="translate(31.549 8.114)"><path class="a" d="M0,0H8.408V4.962H0Z" transform="translate(0.025 0.092)"/><g class="j"><path class="f" d="M5.931,4.962a2.533,2.533,0,0,0-.666-1.475A2.211,2.211,0,0,1,4.624,2.14c-.2,1.523-2.935,1.079-2.935,1.079a1.475,1.475,0,0,0,.538-1.108c.079-.813.469-.945.469-.945l-1.08-.145A2.5,2.5,0,0,1,0,.135,2.784,2.784,0,0,0,1.354.225a7.932,7.932,0,0,1,3.8.024A4.9,4.9,0,0,1,8.408,4.6c-.134-.345-.738-.481-1.25-.839a3.223,3.223,0,0,1-.652-.789,2.628,2.628,0,0,1-.575,1.989" transform="translate(0.025 0.092)"/></g></g><g transform="translate(33.239 4.727)"><path class="a" d="M0,0H6.719V8.386H0Z" transform="translate(0.024 0.054)"/><g class="k"><path class="h" d="M6.72,8.025A4.978,4.978,0,0,0,3.8,3.8l0-.011A2.729,2.729,0,0,1,5.006,1.57,3.069,3.069,0,0,1,6.527.962S7.05.478,6.214,0c-2.845.464-3.08,3.58-3.08,3.58s0,.011,0,.017c.217,2.041-2.106,2.283-2.106,2.283a1.944,1.944,0,0,1-.022-1.288.519.519,0,0,0-.176.137,1.364,1.364,0,0,0-.293.808A1.474,1.474,0,0,1,0,6.644s2.739.444,2.935-1.079a2.21,2.21,0,0,0,.641,1.346,2.532,2.532,0,0,1,.666,1.475A2.628,2.628,0,0,0,4.817,6.4a3.223,3.223,0,0,0,.652.789c.512.358,1.115.494,1.25.839" transform="translate(0.024 0.054)"/></g></g></g></svg>