<svg xmlns="http://www.w3.org/2000/svg" xmlns:xlink="http://www.w3.org/1999/xlink" width="34.831" height="44.496" viewBox="0 0 34.831 44.496"><defs><style>.a{fill:none;}.b{clip-path:url(#a);}.c{fill:#6daf44;}.d{fill:#609e3e;}.e{fill:#87c558;}.f{fill:#528a34;}</style><clipPath id="a"><path class="a" d="M0,0H34.83V44.5H0Z" transform="translate(0 0.251)"/></clipPath></defs><g transform="translate(0 -0.253)"><g transform="translate(0 0.002)"><path class="a" d="M0,0H34.83V44.5H0Z" transform="translate(0 0.251)"/><g class="b"><path class="c" d="M26.431,1.043C28.209-.131,30.2-.533,32.08,1c3.229,2.642,3.035,7.648,2.3,11.232a54.587,54.587,0,0,1-6.62,16.779C23.812,35.425,18.6,41.39,11.033,43.9,7.609,45.035,1.475,44.912.2,40.276c-.706-2.568.475-5.548,3.136-7.974,2.1-1.916,4.475-3.528,6.426-5.538a39.119,39.119,0,0,0,5.688-6.9A101.059,101.059,0,0,0,20.705,9.305C22.1,6.233,23.461,3,26.431,1.043" transform="translate(0 0.251)"/></g></g><path class="d" d="M32.014,1A4,4,0,0,0,28.691.06c2.2.711,3.083,2.464,3.307,5.992.883,13.878-22.6,46.48-32,33.557a5.545,5.545,0,0,0,.134.665C1.409,44.91,7.543,45.033,10.967,43.9c7.562-2.509,12.779-8.474,16.73-14.886a54.588,54.588,0,0,0,6.62-16.779c.731-3.583.925-8.589-2.3-11.232" transform="translate(0.066 0.255)"/><path class="e" d="M10.428,2.586A1.81,1.81,0,0,0,8.968.069C6.378-.548,1.718,3.138.528,5.145-.584,7.021.081,8.929,2.33,8.827c3.862-.176,7.194-3.478,8.1-6.241" transform="translate(3.172 30.295)"/><path class="e" d="M1.157,1.02A.641.641,0,1,1,.123.264a.641.641,0,1,1,1.034.756" transform="translate(27.498 19.535)"/><path class="e" d="M1.157,1.02A.641.641,0,1,1,.123.264a.641.641,0,1,1,1.034.756" transform="translate(17.807 18.808)"/><path class="e" d="M1.157,1.02A.64.64,0,1,1,.123.264.638.638,0,0,1,1.016.123a.644.644,0,0,1,.141.9" transform="translate(29.314 1.845)"/><path class="e" d="M1.157,1.02A.64.64,0,1,1,.123.264a.64.64,0,1,1,1.034.756" transform="translate(29.304 8.231)"/><path class="e" d="M1.157,1.02A.641.641,0,1,1,.123.264.638.638,0,0,1,1.016.123a.644.644,0,0,1,.141.9" transform="translate(32.201 13.048)"/><path class="e" d="M1.157,1.02A.641.641,0,1,1,.123.264a.641.641,0,1,1,1.034.756" transform="translate(16.88 34.18)"/><path class="e" d="M1.157,1.02A.641.641,0,1,1,.123.264a.641.641,0,1,1,1.034.756" transform="translate(23.589 13.896)"/><path class="e" d="M1.157,1.02A.641.641,0,1,1,.123.264a.641.641,0,1,1,1.034.756" transform="translate(23.859 31.046)"/><path class="e" d="M1.157,1.02A.641.641,0,1,1,.123.264a.641.641,0,1,1,1.034.756" transform="translate(14.821 39.203)"/><path class="e" d="M1.157,1.02A.641.641,0,1,1,.123.264a.641.641,0,1,1,1.034.756" transform="translate(7.878 40.932)"/><path class="e" d="M1.157,1.02A.64.64,0,1,1,.123.264a.64.64,0,1,1,1.034.756" transform="translate(15.179 25.496)"/><path class="e" d="M1.157,1.02A.641.641,0,1,1,.123.264a.641.641,0,1,1,1.034.756" transform="translate(10.061 28.401)"/><path class="e" d="M1.157,1.02A.641.641,0,1,1,.123.264a.641.641,0,1,1,1.034.756" transform="translate(20.777 24.806)"/><path class="e" d="M1.157,1.02A.64.64,0,1,1,.123.264.638.638,0,0,1,1.016.123a.644.644,0,0,1,.141.9" transform="translate(23.821 6.129)"/><path class="f" d="M7.507,43.171c-.332,0-.665-.016-.989-.048a10.1,10.1,0,0,1-5.008-1.881A7.126,7.126,0,0,1,.5,40.353a2.969,2.969,0,0,1-.41-.539.492.492,0,0,1-.08-.337c.006-.106.014-.221.031-.337a5.7,5.7,0,0,1,.982-2.475,18.319,18.319,0,0,1,3.719-3.722c.766-.615,1.55-1.215,2.308-1.8.579-.444,1.178-.9,1.756-1.357a36.85,36.85,0,0,0,6.959-6.757,35.012,35.012,0,0,0,2.434-3.789c.641-1.13,1.26-2.319,1.946-3.74C21.155,13.4,22.029,11.38,22.8,9.6l.007-.016.354-.817c.785-1.813,1.614-3.707,2.375-5.177A11.182,11.182,0,0,1,27.581.565,2.2,2.2,0,0,1,28.4.06,1.188,1.188,0,0,1,28.64.012L28.723,0s.057,0,.166,0l.165,0a3.471,3.471,0,0,1,2.277.959,5.213,5.213,0,0,1,1.191,1.727,12.384,12.384,0,0,1,.813,5.6,29.145,29.145,0,0,1-1.408,7.248,48.78,48.78,0,0,1-3.415,8.046,74.949,74.949,0,0,1-5.124,8.3,37.1,37.1,0,0,1-6.955,7.735,18,18,0,0,1-4.611,2.713A11.947,11.947,0,0,1,7.507,43.171ZM28.839.016c-.076,0-.115,0-.115,0l-.083.009a1.308,1.308,0,0,0-.239.05,2.167,2.167,0,0,0-.806.5,11.159,11.159,0,0,0-2.024,3.027C24.823,5.071,24,6.972,23.224,8.794l-.355.831c-.762,1.786-1.626,3.81-2.631,5.927a43.941,43.941,0,0,1-4.382,7.555,36.9,36.9,0,0,1-7,6.749c-.58.453-1.181.91-1.763,1.351-.761.578-1.546,1.174-2.313,1.784a17.8,17.8,0,0,0-3.713,3.7A5.627,5.627,0,0,0,.1,39.148c0,.046-.009.094-.014.141a.686.686,0,0,0,.059.494,2.848,2.848,0,0,0,.4.525,7.057,7.057,0,0,0,1.007.878,10.034,10.034,0,0,0,4.973,1.849c.31.029.627.044.944.044a11.85,11.85,0,0,0,4.313-.847,17.9,17.9,0,0,0,4.57-2.712A36.25,36.25,0,0,0,23.275,31.8a74.541,74.541,0,0,0,5.108-8.286A52.012,52.012,0,0,0,31.809,15.5a28.993,28.993,0,0,0,1.453-7.213,12.337,12.337,0,0,0-.778-5.581A5.168,5.168,0,0,0,31.309.984,3.447,3.447,0,0,0,29.054.019C28.964.016,28.892.016,28.839.016Z" transform="translate(0.034 0.305)"/><path class="f" d="M6,41.811a9.241,9.241,0,0,1-2.669-.385A8.5,8.5,0,0,1,.019,39.587L0,39.569l.01-.025A4.051,4.051,0,0,1,.9,38.235a10.554,10.554,0,0,1,1.186-1.041c.861-.66,1.786-1.252,2.6-1.775l.441-.279c1.6-1.01,3.254-2.054,4.815-3.179a39.626,39.626,0,0,0,4.829-4.022,31.335,31.335,0,0,0,2.124-2.318c.65-.772,1.21-1.567,1.874-2.526l.855-1.321c.1-.168.2-.336.3-.5.168-.279.342-.566.5-.856.5-.889.987-1.83,1.444-2.8a53.409,53.409,0,0,0,2.328-5.851l1-2.993c.315-.939.663-1.911,1.064-2.971.881-2.311,1.667-4.155,2.475-5.8l0-.005.006,0a4.074,4.074,0,0,1,1.6,1,5.622,5.622,0,0,1,1.073,1.567,9.522,9.522,0,0,1,.8,3.707,17.478,17.478,0,0,1-.31,3.8,27.527,27.527,0,0,1-.957,3.691A45.024,45.024,0,0,1,27.9,20.751a71.873,71.873,0,0,1-3.962,6.505c-.694,1.025-1.435,2.07-2.2,3.107s-1.53,2.048-2.326,3.015c-.712.886-1.519,1.788-2.539,2.84a28.909,28.909,0,0,1-2.866,2.508,17.976,17.976,0,0,1-3.256,1.967,12.134,12.134,0,0,1-3.649,1.055A9.931,9.931,0,0,1,6,41.811ZM.1,39.547h0a8.52,8.52,0,0,0,3.261,1.786,9.15,9.15,0,0,0,2.6.371,9.847,9.847,0,0,0,1.131-.066A12.05,12.05,0,0,0,10.7,40.58a18.27,18.27,0,0,0,3.228-1.963,28.678,28.678,0,0,0,2.849-2.5c1.014-1.047,1.818-1.946,2.528-2.831.8-.974,1.554-1.98,2.319-3.011s1.491-2.061,2.2-3.1a73.2,73.2,0,0,0,3.953-6.493,44.942,44.942,0,0,0,3.076-6.945,27.668,27.668,0,0,0,.974-3.673,17.348,17.348,0,0,0,.33-3.781,9.453,9.453,0,0,0-.778-3.694,5.62,5.62,0,0,0-1.058-1.564A4.055,4.055,0,0,0,28.742.019c-.8,1.656-1.573,3.5-2.434,5.807-.4,1.09-.746,2.063-1.046,2.975l-.98,3a53.424,53.424,0,0,1-2.3,5.878c-.395.859-.857,1.749-1.454,2.8-.165.3-.345.593-.519.879-.1.156-.194.318-.288.478l-.863,1.321c-.559.8-1.193,1.706-1.89,2.526A30.988,30.988,0,0,1,14.83,28a39.728,39.728,0,0,1-4.855,4.009c-1.363.971-2.8,1.886-4.185,2.77q-.54.344-1.075.687c-.942.607-1.787,1.16-2.59,1.781A10.461,10.461,0,0,0,.951,38.286,4.027,4.027,0,0,0,.1,39.547Z" transform="translate(0.019 0.306)"/><path class="f" d="M3.259,40.107A9.352,9.352,0,0,1,.031,39.6.045.045,0,0,1,0,39.577a.046.046,0,0,1,0-.036.045.045,0,0,1,.016-.021,5.394,5.394,0,0,1,1.454-.776,11.3,11.3,0,0,1,1.553-.392l.038-.008A17.819,17.819,0,0,0,6.208,37.5a19.744,19.744,0,0,0,2.93-1.423,24.772,24.772,0,0,0,2.713-1.813,31.65,31.65,0,0,0,4.667-4.559,48.93,48.93,0,0,0,3.861-5.28c1.122-1.755,2.183-3.616,3.242-5.691,1.023-2.008,1.932-4.016,2.7-5.969.393-.993.764-2.032,1.1-3.087.384-1.229.655-2.234.853-3.164a25.4,25.4,0,0,0,.512-3.236,13.123,13.123,0,0,0-.059-3.27A.009.009,0,0,1,28.738,0l.006,0A3.863,3.863,0,0,1,29.769,1.41a7.263,7.263,0,0,1,.525,1.673,12.5,12.5,0,0,1,.122,3.5A29.1,29.1,0,0,1,28.78,13.4a54.3,54.3,0,0,1-6.372,12.468,57.967,57.967,0,0,1-4.286,5.548c-.8.911-1.611,1.768-2.408,2.546a31.224,31.224,0,0,1-2.626,2.318,21.72,21.72,0,0,1-2.923,1.925,16.4,16.4,0,0,1-3.226,1.348,13.173,13.173,0,0,1-3.451.552ZM.15,39.542h0a9.52,9.52,0,0,0,3.166.484h.171a13.066,13.066,0,0,0,3.435-.531,16.12,16.12,0,0,0,3.221-1.33,21.7,21.7,0,0,0,2.906-1.935,31.067,31.067,0,0,0,2.612-2.323c.792-.779,1.6-1.638,2.395-2.552A57.986,57.986,0,0,0,22.315,25.8a60.181,60.181,0,0,0,3.568-6.023,52.137,52.137,0,0,0,2.806-6.413,29.284,29.284,0,0,0,1.67-6.788,12.483,12.483,0,0,0-.1-3.49,7.266,7.266,0,0,0-.513-1.669,3.91,3.91,0,0,0-1-1.393,13.355,13.355,0,0,1,.077,3.254,25.368,25.368,0,0,1-.491,3.246c-.191.931-.456,1.94-.833,3.176-.335,1.068-.7,2.111-1.085,3.1A66.864,66.864,0,0,1,20.5,24.5,49.324,49.324,0,0,1,16.627,29.8a31.893,31.893,0,0,1-4.692,4.576,24.713,24.713,0,0,1-2.729,1.821,19.573,19.573,0,0,1-2.955,1.421,17.974,17.974,0,0,1-3.167.837l-.038.007a11.078,11.078,0,0,0-1.541.381,5.261,5.261,0,0,0-1.356.7Z" transform="translate(0.017 0.307)"/></g></svg>