<svg xmlns="http://www.w3.org/2000/svg" xmlns:xlink="http://www.w3.org/1999/xlink" width="47.684" height="44.63" viewBox="0 0 47.684 44.63"><defs><style>.a{fill:none;}.b{clip-path:url(#a);}.c{fill:#37b34a;}.d{fill:#31a444;}.e{clip-path:url(#b);}.f{fill:#00873e;}.g{fill:#009345;}.h{clip-path:url(#c);}.i{fill:#007b38;}</style><clipPath id="a"><path class="a" d="M0,0H21.242V21.852H0Z" transform="translate(0.31 0.005)"/></clipPath><clipPath id="b"><path class="a" d="M0,0H47.684V29.6H0Z" transform="translate(0 0.048)"/></clipPath><clipPath id="c"><path class="a" d="M0,0H33.077V28.774H0Z" transform="translate(0.012 0.048)"/></clipPath></defs><g transform="translate(0 -0.321)"><g transform="translate(13.622 23.095)"><path class="a" d="M0,0H21.242V21.852H0Z" transform="translate(0.31 0.005)"/><g class="b"><path class="c" d="M0,2.931s4.974,4,5.781,9.327a22.756,22.756,0,0,1,0,8.394,9.56,9.56,0,0,0,5.109,1.2,10.414,10.414,0,0,0,5.378-1.332,31.454,31.454,0,0,1-.672-7.862c0-5.6,5.647-9.727,5.647-9.727L18.755.866a37.768,37.768,0,0,0-5.579,6.552V0H8.2V7.795A18.785,18.785,0,0,0,2.958,1.138Z" transform="translate(0.31 0.005)"/></g></g><path class="d" d="M2.4,7.418V0H0L.622,4.459A8.457,8.457,0,0,0,1.137,6.45,1.827,1.827,0,0,0,2.4,7.418" transform="translate(24.706 23.099)"/><path class="d" d="M11.576,2.066,9.089,0s-.448.419-1.1,1.081l1.186.985S3.528,6.2,3.528,11.793c0,1.958.082,3.509.19,4.7A4.066,4.066,0,0,1,.123,20.918L0,20.93c.381.035.788.056,1.224.056A10.416,10.416,0,0,0,6.6,19.654a31.468,31.468,0,0,1-.672-7.862c0-5.6,5.646-9.727,5.646-9.727" transform="translate(23.598 23.965)"/><path class="d" d="M1.414,0h0L.937.289,0,.857c.99.92,2.99,2.182,4.25,4.017A4.439,4.439,0,0,0,6.657,6.656,18.8,18.8,0,0,0,1.414,0" transform="translate(15.476 24.238)"/><g transform="translate(0 0.273)"><path class="a" d="M0,0H47.684V29.6H0Z" transform="translate(0 0.048)"/><g class="e"><path class="f" d="M11.778,29.548c-4.754.519-7.777-3.011-7.2-6.9a6.5,6.5,0,0,1-4.4-7.6c.878-3.776,5.082-5.212,8.183-4.537a7.539,7.539,0,0,1,4.075-7.524,7.675,7.675,0,0,1,8.505,1.366A9.4,9.4,0,0,1,30.621.178a9.317,9.317,0,0,1,7.17,7.683A6.065,6.065,0,0,1,46.059,9.1a5.941,5.941,0,0,1-1.589,8.136,6.291,6.291,0,0,1,3.117,6.514,6.342,6.342,0,0,1-5.279,4.96c-2.569.336-4.972-.574-6.092-2.891-1.329,1.11-3.643.8-5.191.016A4.513,4.513,0,0,1,28.6,21.588c-.966,2-3.21,2.984-5.434,3.246-2.167.255-3.37-.644-5.307-2.621-.364,4.554-2.017,6.89-6.083,7.335" transform="translate(0 0.048)"/></g></g><path class="g" d="M4.981,2.468A2.491,2.491,0,1,1,2.49,0,2.48,2.48,0,0,1,4.981,2.468" transform="translate(12.131 6.374)"/><path class="g" d="M4.981,2.468A2.49,2.49,0,1,1,2.49,0a2.479,2.479,0,0,1,2.49,2.468" transform="translate(3.29 14.788)"/><path class="g" d="M4.981,2.468A2.491,2.491,0,1,1,2.49,0,2.48,2.48,0,0,1,4.981,2.468" transform="translate(8.951 21.77)"/><g transform="translate(14.595 0.273)"><path class="a" d="M0,0H33.077V28.774H0Z" transform="translate(0.012 0.048)"/><g class="h"><path class="i" d="M29.863,17.232A5.941,5.941,0,0,0,31.452,9.1a6.065,6.065,0,0,0-8.268-1.235A9.317,9.317,0,0,0,16.014.178,9.4,9.4,0,0,0,6.331,4.354,7.685,7.685,0,0,0,0,2.334,6.5,6.5,0,0,1,5.322,8.851a5.944,5.944,0,0,1,4.9-1.072,4.373,4.373,0,0,1,3.132,3.9,4.178,4.178,0,0,1,4.935,1.589,5.667,5.667,0,0,1-.213,5.309c1.584,1.107,1.788,4.134.541,5.6a4.126,4.126,0,0,1-2.545,1.44c.113.072.223.148.343.208,1.548.781,3.863,1.094,5.191-.016,1.12,2.316,3.523,3.227,6.092,2.891a6.342,6.342,0,0,0,5.279-4.96,6.292,6.292,0,0,0-3.117-6.514" transform="translate(0.012 0.048)"/></g></g></g></svg>