<svg xmlns="http://www.w3.org/2000/svg" xmlns:xlink="http://www.w3.org/1999/xlink" width="23.907" height="44.65" viewBox="0 0 23.907 44.65"><defs><style>.a{fill:none;}.b{fill:#007b38;}.c{fill:#88bc6e;}.d{fill:#54a94e;}.e{fill:#72aa43;}.f{clip-path:url(#a);}.g{clip-path:url(#b);}</style><clipPath id="a"><path class="a" d="M0,0H3.1V5.923H0Z" transform="translate(0.024 0.175)"/></clipPath><clipPath id="b"><path class="a" d="M0,0H1.61V4.263H0Z" transform="translate(0.061 0.104)"/></clipPath></defs><g transform="translate(0 -0.246)"><path class="b" d="M.8,0,0,34.088H5.449L4.646,0Z" transform="translate(9.316 10.808)"/><g transform="translate(0 0.142)"><path class="c" d="M.628,2.825h2.14C2.727.776,0,0,0,0Z" transform="translate(9.31 14.66)"/><path class="d" d="M2.24,2.957H0C.043.812,2.9,0,2.9,0Z" transform="translate(12.048 19.363)"/><path class="e" d="M.684,3.074H3.013C2.968.844,0,0,0,0Z" transform="translate(8.973 24.336)"/><path class="c" d="M2.457,3.218H0C.047.883,3.154,0,3.154,0Z" transform="translate(12.142 30.653)"/><path class="b" d="M4.845,23.319,4.344,0H.5L0,23.319Z" transform="translate(0.673 21.435)"/><path class="b" d="M.8,0C-.569,3.062.08,4.21.8,4.263,1.529,4.209,2.179,3.062.8,0" transform="translate(2.291 11.009)"/><path class="d" d="M.993,0C-.513,3.176-.068,4.664.764,4.991c.839.18,1.6-1.41.229-4.991" transform="translate(1.329 12.033)"/><path class="e" d="M.753,0C2.258,3.176,1.813,4.664.982,4.991.142,5.171-.617,3.581.753,0" transform="translate(3.117 12.033)"/><path class="c" d="M1.012,0c-1.632,3.822-1.034,5.459,0,5.565,1.035-.106,1.632-1.743,0-5.565" transform="translate(2.083 13.477)"/><path class="c" d="M.906,0C-.575,3.01-.006,5.14.948,5.713,1.923,6.115,2.257,3.944.906,0" transform="translate(0.437 13.865)"/><path class="e" d="M1.344,0C-.6,3.074-.144,4.729.891,5.353c1.1.4,2-1.175.454-5.353" transform="translate(0.698 14.952)"/><path class="b" d="M.9,0c1.481,3.01.913,5.141-.042,5.713C-.12,6.115-.454,3.944.9,0" transform="translate(3.951 13.865)"/><path class="d" d="M.828,0c1.946,3.074,1.489,4.73.454,5.353-1.1.4-2-1.175-.454-5.353" transform="translate(3.321 14.952)"/><path class="b" d="M.245,0C-.5,3.216.556,5.373,2.021,5.759A4.129,4.129,0,0,0,3.1,5.916,43.992,43.992,0,0,0,.245,0" transform="translate(0 16.404)"/><path class="c" d="M2.854,0c.745,3.215-.31,5.373-1.776,5.759A4.118,4.118,0,0,1,0,5.916,43.888,43.888,0,0,1,2.854,0" transform="translate(3.092 16.404)"/><path class="b" d="M1.161,0c-1.842,3.672-1.224,5.72,0,5.849C2.386,5.72,3,3.672,1.161,0" transform="translate(1.934 16.254)"/><path class="d" d="M.742,0c-1.569,2.314-.45,4.253,1.5,4.622A8.107,8.107,0,0,0,.742,0" transform="translate(0.857 17.697)"/><path class="e" d="M1.508,0C3.078,2.313,1.96,4.253.014,4.623A8.112,8.112,0,0,1,1.508,0" transform="translate(3.092 17.697)"/><path class="c" d="M.628,2.825h2.14C2.727.776,0,0,0,0Z" transform="translate(0.365 25.509)"/><path class="d" d="M2.24,2.957H0C.043.812,2.9,0,2.9,0Z" transform="translate(3.103 30.213)"/><path class="b" d="M4.845,23.319,4.344,0H.5L0,23.319Z" transform="translate(18.389 21.435)"/><path class="b" d="M.8,0C-.569,3.062.081,4.21.8,4.263,1.529,4.209,2.179,3.062.8,0" transform="translate(20.006 11.009)"/><path class="d" d="M.993,0C-.513,3.176-.068,4.664.764,4.991c.839.18,1.6-1.41.229-4.991" transform="translate(19.044 12.033)"/><path class="e" d="M.753,0c1.505,3.176,1.06,4.664.229,4.991C.142,5.171-.617,3.581.753,0" transform="translate(20.832 12.033)"/><path class="c" d="M1.012,0c-1.632,3.822-1.034,5.459,0,5.565,1.035-.106,1.632-1.743,0-5.565" transform="translate(19.799 13.477)"/><path class="c" d="M.906,0C-.575,3.01-.006,5.14.948,5.713,1.923,6.115,2.257,3.944.906,0" transform="translate(18.153 13.865)"/><path class="e" d="M1.344,0C-.6,3.074-.144,4.729.891,5.353c1.1.4,2-1.175.454-5.353" transform="translate(18.414 14.952)"/><path class="b" d="M.9,0c1.481,3.01.913,5.141-.042,5.713C-.12,6.115-.454,3.944.9,0" transform="translate(21.667 13.865)"/><path class="d" d="M.828,0c1.946,3.074,1.489,4.73.454,5.353-1.1.4-2-1.175-.454-5.353" transform="translate(21.036 14.952)"/><path class="b" d="M.245,0C-.5,3.216.556,5.373,2.021,5.759A4.129,4.129,0,0,0,3.1,5.916,44.028,44.028,0,0,0,.245,0" transform="translate(17.716 16.404)"/><g transform="translate(20.784 16.23)"><path class="a" d="M0,0H3.1V5.923H0Z" transform="translate(0.024 0.175)"/><g class="f"><path class="c" d="M2.854,0c.745,3.215-.31,5.373-1.776,5.759A4.119,4.119,0,0,1,0,5.916,43.888,43.888,0,0,1,2.854,0" transform="translate(0.024 0.175)"/></g></g><path class="b" d="M1.161,0c-1.842,3.672-1.224,5.72,0,5.849C2.386,5.72,3,3.672,1.161,0" transform="translate(19.65 16.254)"/><path class="d" d="M.742,0c-1.569,2.314-.45,4.253,1.5,4.622A8.1,8.1,0,0,0,.742,0" transform="translate(18.573 17.697)"/><path class="e" d="M1.508,0C3.078,2.313,1.96,4.253.014,4.623A8.112,8.112,0,0,1,1.508,0" transform="translate(20.808 17.697)"/><path class="c" d="M.628,2.825h2.14C2.727.776,0,0,0,0Z" transform="translate(18.08 25.509)"/><path class="d" d="M2.24,2.957H0C.043.812,2.9,0,2.9,0Z" transform="translate(20.819 30.213)"/><g transform="translate(11.134)"><path class="a" d="M0,0H1.61V4.263H0Z" transform="translate(0.061 0.104)"/><g class="g"><path class="b" d="M.8,0C-.569,3.062.08,4.21.8,4.263,1.529,4.21,2.179,3.062.8,0" transform="translate(0.061 0.104)"/></g></g><path class="d" d="M.993,0C-.513,3.176-.068,4.664.764,4.991c.839.18,1.6-1.41.229-4.991" transform="translate(10.233 1.128)"/><path class="e" d="M.753,0c1.506,3.176,1.061,4.664.23,4.991-.84.18-1.6-1.41-.23-4.991" transform="translate(12.021 1.128)"/><path class="c" d="M1.012,0c-1.632,3.822-1.034,5.459,0,5.565,1.035-.106,1.632-1.743,0-5.565" transform="translate(10.987 2.572)"/><path class="c" d="M.906,0C-.575,3.01-.007,5.14.948,5.714,1.923,6.115,2.258,3.945.906,0" transform="translate(9.341 2.961)"/><path class="e" d="M1.344,0C-.6,3.074-.144,4.729.891,5.353c1.1.4,2-1.175.454-5.353" transform="translate(9.602 4.047)"/><path class="b" d="M.9,0c1.481,3.01.913,5.141-.042,5.714C-.12,6.115-.454,3.945.9,0" transform="translate(12.855 2.961)"/><path class="d" d="M.828,0c1.946,3.074,1.489,4.73.454,5.353-1.1.4-2-1.175-.454-5.353" transform="translate(12.225 4.047)"/><path class="b" d="M.245,0C-.5,3.216.556,5.373,2.021,5.759A4.126,4.126,0,0,0,3.1,5.916,44.029,44.029,0,0,0,.245,0" transform="translate(8.904 5.499)"/><path class="c" d="M2.854,0c.745,3.215-.31,5.373-1.776,5.759A4.108,4.108,0,0,1,0,5.916,43.8,43.8,0,0,1,2.854,0" transform="translate(11.996 5.499)"/><path class="b" d="M1.161,0c-1.842,3.672-1.224,5.72,0,5.849C2.386,5.72,3,3.672,1.161,0" transform="translate(10.839 5.349)"/><path class="d" d="M.742,0c-1.569,2.314-.45,4.253,1.5,4.622A8.1,8.1,0,0,0,.742,0" transform="translate(9.762 6.793)"/><path class="e" d="M1.508,0c1.57,2.313.453,4.253-1.494,4.623A8.108,8.108,0,0,1,1.508,0" transform="translate(11.996 6.792)"/></g></g></svg>