<svg xmlns="http://www.w3.org/2000/svg" xmlns:xlink="http://www.w3.org/1999/xlink" width="40" height="40" viewBox="0 0 40 40"><defs><style>.a{fill:none;}.b{fill:#3c8235;}.c{fill:#006129;}.d{clip-path:url(#a);}.e{fill:#6daf44;}.f{fill:#8bc762;}.g{fill:#ffecd2;}</style><clipPath id="a"><path class="a" d="M0,0H33.652V35.226H0Z" transform="translate(0 0.204)"/></clipPath></defs><path class="b" d="M0,.244C1.642,10.968,8.609,17.7,17.672,18c10.215.34,16.413-2.733,19.822-10.853C41.338-2,0,.244,0,.244" transform="translate(0 21.972)"/><path class="c" d="M25.209,32.528c-.964.8-3.036.793-4.272.871-1.316.082-2.644-.568-3.956-.44-2.052.2-4.072,2.227-5.885,1.034-1.263-.831-1.5-2.777-2.635-3.816-1.612-1.481-2.8-.2-4.287-1.83-1.772-1.949-.2-4.458-1.721-6.639C1.582,20.46-.18,19.557.015,17.123c.083-1.03,1.426-2.518,1.749-3.477.416-1.233-.109-2.05.062-3.362.224-1.722.755-2.646,3.791-3.665,1.8-.6,2.365-.751,2.812-2.743.558-2.495,1.6-2.708,2.57-2.664,1.245.056,1.756.442,2.951.4,1.813-.06,2.392-2.03,4.282-1.535C20.276.615,20.5,2.275,22.2,3.316c.955.582,2.1.448,3.123.911a7.719,7.719,0,0,1,3.258,2.794,16.744,16.744,0,0,1,2.722,7.454c1.039,7.243-1.326,14.1-6.1,18.053" transform="translate(8.451 3.38)"/><path class="b" d="M8.827,1.6A6.687,6.687,0,0,0,5.715,3.617C4.948,4.714,4.807,6.2,4,7.271,2.747,8.944-.07,9.632,0,11.826c.05,1.528,1.6,2.754,1.9,4.276.426,2.169-1.31,2.53-.686,4.668.745,2.553,3.742,2.5,4.82,4.961.616,1.406.464,3.4,2.668,4.507.933.467,2.926.082,3.925.3,1.283.284,1.712,1.166,2.934,1.7,1.6.706,2.682.73,5.166-1.365,1.47-1.24,1.9-1.656,3.852-1,2.448.821,3.181.032,3.657-.832.609-1.107.547-1.751,1.212-2.765,1.009-1.538,3.016-1.009,3.587-2.9.618-2.05-.7-3.11-.693-5.131,0-1.131.726-2.056.864-3.18a10.01,10.01,0,0,0-1.051-4.8,17.7,17.7,0,0,0-7.63-8.173C19.449-.84,13.592-.39,8.827,1.6" transform="translate(5.07)"/><g transform="translate(0 0.563)"><path class="a" d="M0,0H33.652V35.226H0Z" transform="translate(0 0.204)"/><g class="d"><path class="e" d="M3.648,7.376A7.173,7.173,0,0,1,6.515,4.545c1.323-.605,2.893-.518,4.2-1.164,2.04-1.011,3.459-3.75,5.7-3.339,1.562.286,2.435,2.042,3.929,2.578,2.128.765,2.937-.933,4.984.028,2.443,1.147,1.638,4.165,3.9,5.632,1.294.839,3.391.994,3.974,3.389.247,1.014-.651,2.967-.675,4.01-.03,1.34.77,1.908,1.017,3.226.323,1.729.077,2.822-2.708,5.006-1.648,1.293-2.184,1.661-2,3.736.23,2.6-.768,3.217-1.778,3.564-1.295.445-1.942.282-3.155.8-1.839.782-1.8,2.89-3.9,3.175-2.268.308-3.03-1.183-5.114-1.492-1.166-.173-2.3.416-3.495.382a7.8,7.8,0,0,1-4.239-1.356,17.646,17.646,0,0,1-5.786-6.56C-1.212,20.951.027,13.049,3.648,7.376" transform="translate(0 0.204)"/></g></g><path class="f" d="M19.595,14.047c.442-1.5-.409-2.88-.857-4.383-.488-1.638.335-3.763-.929-4.909-.857-.777-2.238-.606-3.2-1.249C13.362,2.671,13.127.685,11.731.135,10.295-.431,8.906.919,7.573,1.7c-1.253.732-2.671-.24-3.94.464A9.125,9.125,0,0,0,.053,7.035a15.862,15.862,0,0,0,1.32,8.044,17.815,17.815,0,0,0,5.794,6.648,7.663,7.663,0,0,0,4.22,1.371c.172-.837.322-1.653,1.193-1.954,1.159-.4,2.649.039,3.511-.837.793-.806.488-2.19,1.021-3.189.723-1.357,2.051-1.595,2.484-3.071" transform="translate(0 11.831)"/><path class="g" d="M10.388,0c-.2.145-.383.295-.562.455S9.474.783,9.3.947s-.332.344-.49.521-.311.359-.455.548-.292.372-.421.57-.26.393-.383.592l-.344.613c-.111.205-.2.422-.3.632a5.456,5.456,0,0,0-.257.647,6.915,6.915,0,0,0-.22.658l-.182.668c-.057.223-.082.455-.126.68a5.029,5.029,0,0,0-.093.684l-.049.689a5.731,5.731,0,0,0-.006.69l.011.69,0,.288-.218.192L3.564,12.246c-.73.65-1.464,1.3-2.164,1.959l.025-.936c.224.223.5.476.771.7s.556.449.847.66.585.415.887.61.611.376.924.553.631.341.955.5.652.3.986.43c.165.07.333.132.5.191s.337.123.51.172c.34.115.687.206,1.035.3.35.076.7.158,1.058.208.355.066.714.087,1.073.131.36.022.722.052,1.084.044.364.012.725-.022,1.09-.038.182-.013.363-.036.545-.053s.364-.037.544-.07l.544-.089.54-.116c.365-.068.717-.18,1.077-.276s.707-.23,1.067-.339c-.328.179-.655.366-.995.528s-.685.318-1.043.442c-.177.066-.354.137-.534.2l-.547.161c-.182.058-.367.1-.553.143s-.372.088-.559.125c-.378.057-.756.127-1.14.153-.382.044-.767.051-1.153.064-.385,0-.772-.01-1.156-.051-.386-.026-.768-.087-1.151-.143-.381-.071-.761-.143-1.136-.242-.189-.044-.374-.1-.559-.158s-.371-.112-.553-.178A15.714,15.714,0,0,1,4.253,16.9q-.514-.269-1.009-.573c-.329-.2-.655-.412-.969-.639s-.623-.46-.923-.709a11.224,11.224,0,0,1-.886-.8L0,13.7l.491-.458c.733-.683,1.475-1.333,2.231-1.97q.564-.48,1.137-.948c.383-.312.762-.624,1.15-.932l-.214.48.024-.757a6.459,6.459,0,0,1,.045-.754l.106-.75a5.764,5.764,0,0,1,.154-.74c.064-.244.11-.492.189-.731l.249-.713a5.993,5.993,0,0,1,.3-.69,6.018,6.018,0,0,1,.344-.668c.129-.215.246-.435.385-.643l.432-.61c.155-.195.319-.382.478-.572s.342-.359.511-.537.364-.334.545-.5S8.942.9,9.137.756A7.855,7.855,0,0,1,10.388,0" transform="translate(8.451 6.197)"/><path class="g" d="M2.936,0c-.273.557-.51,1.124-.727,1.7S1.8,2.847,1.641,3.434c-.077.293-.158.585-.223.879s-.124.589-.172.885a14.4,14.4,0,0,0-.183,1.775,11.127,11.127,0,0,0,.081,1.755,9.422,9.422,0,0,0,.375,1.69A8.814,8.814,0,0,0,3.2,13.4l.3.349-.232.394L2.271,15.82l-.04-.709c.131.167.314.376.486.558s.362.369.554.545a13.355,13.355,0,0,0,1.211.991A13.693,13.693,0,0,0,5.8,18.06c.228.132.459.257.695.375s.474.231.719.331.491.2.739.29.5.181.756.253.513.145.773.21.523.116.787.169.53.1.8.127.538.066.809.09.543.033.817.054.548.011.825.024c-.27.055-.541.11-.815.154s-.55.08-.827.1l-.417.034c-.139.008-.278.007-.418.011-.279.011-.559,0-.84-.009s-.561-.033-.84-.067-.559-.072-.837-.126-.554-.114-.831-.175c-.273-.077-.547-.151-.816-.243s-.537-.188-.8-.291-.526-.22-.784-.342-.51-.257-.758-.4-.495-.287-.732-.446-.473-.323-.7-.495-.453-.352-.669-.541-.427-.386-.632-.591a7.433,7.433,0,0,1-.6-.67l-.261-.332.22-.377.985-1.685.064.742A9.218,9.218,0,0,1,.024,8.834,10.429,10.429,0,0,1,.075,6.9,11.783,11.783,0,0,1,.438,5.021c.085-.306.179-.609.283-.907s.212-.594.338-.883a15.842,15.842,0,0,1,.836-1.683A12.168,12.168,0,0,1,2.936,0" transform="translate(3.38 10.704)"/><path class="g" d="M22.535.034C5.961-.844.017,15.782,0,15.83a17.571,17.571,0,0,0,2.25,2.762C5.717,1.473,22.535.034,22.535.034" transform="translate(2.254 12.958)"/></svg>