<svg xmlns="http://www.w3.org/2000/svg" xmlns:xlink="http://www.w3.org/1999/xlink" width="37.725" height="39.757" viewBox="0 0 37.725 39.757"><defs><style>.a{fill:none;}.b{clip-path:url(#a);}.c{fill:#e12727;}.d{fill:#e55d42;}.e{clip-path:url(#b);}.f{fill:#c32120;}.g{fill:#00873e;}.h{fill:#007b38;}</style><clipPath id="a"><path class="a" d="M0,0H37.724V31.693H0Z" transform="translate(0 0.101)"/></clipPath><clipPath id="b"><path class="a" d="M0,0H29.668V31.693H0Z" transform="translate(0.253 0.101)"/></clipPath></defs><g transform="translate(0 0)"><g transform="translate(0 7.962)"><path class="a" d="M0,0H37.724V31.693H0Z" transform="translate(0 0.101)"/><g class="b"><path class="c" d="M33.713,3.926A11.326,11.326,0,0,0,21.582.614a15.086,15.086,0,0,1-5.439,0A11.327,11.327,0,0,0,4.012,3.926,17.829,17.829,0,0,0,.221,18.282C1.16,24.677,4.7,29.058,11.266,31.026c3.665,1.1,5.077.509,7.6.509s3.931.589,7.6-.509c6.564-1.968,10.107-6.349,11.045-12.744A17.828,17.828,0,0,0,33.713,3.926" transform="translate(0 0.101)"/></g></g><path class="d" d="M7.423,3.739A3.711,3.711,0,1,1,3.711,0,3.725,3.725,0,0,1,7.423,3.739" transform="translate(5.809 13.547)"/><g transform="translate(7.804 7.962)"><path class="a" d="M0,0H29.668V31.693H0Z" transform="translate(0.253 0.101)"/><g class="e"><path class="f" d="M25.656,3.926A11.326,11.326,0,0,0,13.526.614a15.086,15.086,0,0,1-5.439,0A10.181,10.181,0,0,0,3.78.036c2.393.525,2.476,3.579,9.978,3.018,6.971-.521,12.118,9.908,8.152,18.5-2.464,5.334-10.872,8.943-21.91,8.2a19.058,19.058,0,0,0,3.21,1.279c3.665,1.1,5.077.509,7.6.509s3.931.589,7.6-.509c6.564-1.968,10.107-6.349,11.045-12.744A17.827,17.827,0,0,0,25.656,3.926" transform="translate(0.253 0.101)"/></g></g><path class="g" d="M7.5,3.009A5.013,5.013,0,0,0,3.224,0,5.4,5.4,0,0,1,5.081,3.14C4.1,2.585,1.453,2.183,0,3.227A5.487,5.487,0,0,1,4.131,5.185,3.511,3.511,0,0,0,3.18,6.73a8.6,8.6,0,0,0,.059,1.9C4.433,6.926,7.283,7.8,7.413,6.012c0,0,2.937.566,4.059,2.611.216-2.7-1.08-3.177-1.08-3.177,1.238-.9,3.556-.261,4.878.152a5.041,5.041,0,0,0-4.48-2.138,4.158,4.158,0,0,1,3.358-2.122C11.985.588,8.913.621,7.5,3.009" transform="translate(11.227 4.068)"/><path class="h" d="M1.985,0C-.356,1.865-.1,6.4.174,8.562a.584.584,0,0,0,.612-.046A16.3,16.3,0,0,1,1.375,3.79a4.648,4.648,0,0,1,1.8-2.566A1.1,1.1,0,0,0,1.985,0" transform="translate(18.162 0)"/></g></svg>