<svg xmlns="http://www.w3.org/2000/svg" xmlns:xlink="http://www.w3.org/1999/xlink" width="19.599" height="23.999" viewBox="0 0 19.599 23.999"><defs><style>.a{fill:none;}.b{clip-path:url(#a);}.c{fill:#d3d3d3;}</style><clipPath id="a"><rect class="a" width="19.599" height="23.999"/></clipPath></defs><g class="b" transform="translate(0 0)"><path class="c" d="M3.263,24h0c-.077-.908-.136-1.858-.176-2.824-.015-.393-.035-.7-.056-1.03v-.019l0-.035,0-.041v-.019c-.021-.31-.037-.571-.051-.848a1.016,1.016,0,0,0-.3-.588,3.656,3.656,0,0,1-.545-.5l-.158-.163c-.249-.25-.485-.5-.7-.75C1.1,17,.993,16.866.9,16.751a4.952,4.952,0,0,1-.748-1.229A1.5,1.5,0,0,1,0,14.854a.644.644,0,0,1,.418-.58.544.544,0,0,1,.2-.04.659.659,0,0,1,.464.236c.083.082.161.172.227.25.03.035.06.07.09.1.12.136.238.279.352.417l.035.042.005.006a4.87,4.87,0,0,0,1.832,1.592,2.572,2.572,0,0,0,.81.184c.079,0,.149.005.214.005a2.421,2.421,0,0,0,.427-.031,3.69,3.69,0,0,0,2.508-2.022c.113-.193.218-.4.32-.591l0-.009.014-.028.014-.027.014-.029.016-.032c.093-.177.2-.382.314-.578.146-.252.245-.342.379-.342a.538.538,0,0,1,.207.052.921.921,0,0,1,.337.4.788.788,0,0,1,.03.262,6.591,6.591,0,0,1-.315,1.659,6.364,6.364,0,0,1-1.7,2.523.847.847,0,0,0-.266.708c.029.787.049,1.456.061,2.105A14.294,14.294,0,0,1,3.264,24Zm5.729-1.661a3.126,3.126,0,0,1-2.058-.581c.105-.111.355-.388.437-.479l.031-.035V21.09c-.01-.676-.031-1.334-.06-2.115a.466.466,0,0,1,.148-.415,6.724,6.724,0,0,0,1.795-2.678,7.218,7.218,0,0,0,.336-1.756,1.1,1.1,0,0,0-.141-.655,1.125,1.125,0,0,0-.4-.363A.96.96,0,0,0,8.66,13a.863.863,0,0,0-.714.535c-.124.211-.241.436-.35.647-.06.115-.122.23-.208.386l0,.007a2.858,2.858,0,0,0,.044-.493A2.793,2.793,0,0,0,5.855,11.56a7.461,7.461,0,0,0-.21-2.009,6.086,6.086,0,0,0-.82-1.593,10.414,10.414,0,0,1-.548-.915A14.23,14.23,0,0,1,3.046,3.615,13.615,13.615,0,0,1,2.759,1.53a2.342,2.342,0,0,1,.1-.967A.73.73,0,0,1,3.477.007,1.047,1.047,0,0,1,3.6,0a.71.71,0,0,1,.659.385A19.19,19.19,0,0,1,5.213,2.46l.005.013.049.12.04.1c.032.078.064.156.1.234A8.718,8.718,0,0,0,8.1,6.8a13.3,13.3,0,0,0,5.624,2.155,18.22,18.22,0,0,0,1.975.278l.049,0c.41.031.834.064,1.057.458.211.373.353,1.085-.015,1.428a1.706,1.706,0,0,1-.807.318c-.107.022-.2.042-.271.062a7.483,7.483,0,0,1-1.667.251l-.091,0c-.118,0-.245-.007-.38-.015l-.04,0c-.157-.01-.3-.018-.443-.018a1.43,1.43,0,0,0-.764.161c-.373.232-.313.939-.274,1.407l0,.035c.008.093.012.159.014.213.043,1.045,1.288,6.7,1.7,7.086a.139.139,0,0,1,.033.166C13.59,21.331,11.033,22.339,8.993,22.339Zm5.75-1.918v0l0-.017,0-.012a5.893,5.893,0,0,0-.005-2.325,8.879,8.879,0,0,0-1.707-3.708l-.018-.021,0,0a3.939,3.939,0,0,1-.592-.972,1.189,1.189,0,0,1-.12-.528.518.518,0,0,1,.33-.46.42.42,0,0,1,.155-.031.531.531,0,0,1,.367.186c.063.062.123.132.174.192.025.03.05.059.076.088.1.115.2.237.3.356l.011.013a3.858,3.858,0,0,0,1.448,1.256,2.057,2.057,0,0,0,.641.146c.075,0,.127,0,.175,0a1.917,1.917,0,0,0,.332-.025,2.921,2.921,0,0,0,1.981-1.6c.1-.165.187-.336.273-.5l.013-.025c.078-.15.169-.325.266-.494a.347.347,0,0,1,.312-.174.444.444,0,0,1,.31.128.47.47,0,0,1,.131.341,4.134,4.134,0,0,1-.249,1.312,5.011,5.011,0,0,1-1.343,1.993.671.671,0,0,0-.209.56c.013.379.027,1.575.037,2.449v.029l0,.21c0,.313.006.571.008.714a21.437,21.437,0,0,0-3.1.923ZM4.617,15.713a1.636,1.636,0,1,1,1.635-1.636A1.638,1.638,0,0,1,4.617,15.713Zm11.264-1.485a1.231,1.231,0,0,1-1.129-1.176.94.94,0,0,1,.242-.751,1.217,1.217,0,0,1,.87-.424h.016a1.1,1.1,0,0,1,1.13,1.175A1.155,1.155,0,0,1,15.881,14.228ZM10.773,6.7a2.534,2.534,0,1,1,2.534-2.534A2.536,2.536,0,0,1,10.773,6.7Z" transform="translate(0 0)"/></g></svg>