<svg xmlns="http://www.w3.org/2000/svg" xmlns:xlink="http://www.w3.org/1999/xlink" width="14.753" height="20" viewBox="0 0 14.753 20"><defs><style>.a{fill:none;}.b{clip-path:url(#a);}.c{fill:#bababa;}.d{fill:#e2e2e2;}.e{fill:#fff;}</style><clipPath id="a"><rect class="a" width="14.753" height="20"/></clipPath></defs><g class="b" transform="translate(0 0)"><g transform="translate(0 0)"><path class="c" d="M.6,2.1A3.112,3.112,0,0,1,2.145.362a2.888,2.888,0,0,1,2.077.2C7.544,1.845,10.3-.956,12.6.362c2.383,1.367,2.538,6.176,1.675,6.567-.44.2-.783-.912-2.077-1.407-2.726-1.044-4.788,2.51-8.51,2.01C3.378,7.49.923,7.127.2,5.388A4.216,4.216,0,0,1,.6,2.1" transform="translate(0 12.348)"/><path class="d" d="M5.457,0a5.978,5.978,0,0,1,3.8,1.239A3.918,3.918,0,0,1,10.38,3.226a6.665,6.665,0,0,1,.1,2.3,10.387,10.387,0,0,1-2.847,6.052,3.817,3.817,0,0,1-2.1,1.22,2.913,2.913,0,0,1-2.358-.922A9.767,9.767,0,0,1,.907,8.514,9.113,9.113,0,0,1,0,4.562c0-.032,0-.052,0-.082A4.414,4.414,0,0,1,2.108.687,7.3,7.3,0,0,1,5.457,0" transform="translate(2.092 7.177)"/><path class="c" d="M4.057,2.089c.925,1.6.922,3.337-.008,3.873S1.617,5.635.692,4.032-.23.7.7.159s2.433.327,3.358,1.93" transform="translate(3.456 0)"/><path class="d" d="M2.689,2.562C2.174,3.606,1.227,4.191.574,3.869S-.192,2.44.323,1.4,1.785-.234,2.438.088s.765,1.43.251,2.474" transform="translate(7.637 1.585)"/><path class="e" d="M.6,0a.612.612,0,0,1,.6.591.633.633,0,0,1-.578.623A.666.666,0,0,1,0,.594.62.62,0,0,1,.6,0" transform="translate(8.58 10.357)"/><path class="e" d="M1.2.6a.625.625,0,0,1-.616.615A.626.626,0,0,1,0,.6.639.639,0,0,1,.6,0a.616.616,0,0,1,.6.6" transform="translate(4.907 10.436)"/><path class="e" d="M.687.593C.284.585.091.458,0,.2-.014.144.035.067.054,0,.118.022.2.026.243.07c.283.319.3.319.618,0C.9.024.989.026,1.056.008c.015.069.067.171.04.2C.947.368.779.509.687.593" transform="translate(6.797 11.353)"/><path class="e" d="M1.139.235c0,.13-.255.235-.57.235S0,.364,0,.235.255,0,.57,0s.57.1.57.235" transform="translate(3.753 11.705)"/><path class="e" d="M1.139.235c0,.13-.255.235-.57.235S0,.364,0,.235.255,0,.57,0s.57.1.57.235" transform="translate(9.784 11.705)"/><path class="c" d="M1.742.469c0,.259-.39.469-.871.469S0,.728,0,.469.39,0,.871,0s.871.21.871.469" transform="translate(1.743 12.643)"/><path class="c" d="M1.742.469c0,.259-.39.469-.871.469S0,.728,0,.469.39,0,.871,0s.871.21.871.469" transform="translate(11.124 12.576)"/></g></g></svg>