<svg xmlns="http://www.w3.org/2000/svg" xmlns:xlink="http://www.w3.org/1999/xlink" width="21.053" height="20" viewBox="0 0 21.053 20"><defs><style>.a{fill:none;}.b{clip-path:url(#a);}.c{fill:#d8d8d8;}</style><clipPath id="a"><rect class="a" width="21.053" height="20"/></clipPath></defs><g class="b"><path class="c" d="M20,20H1.053A1.054,1.054,0,0,1,0,18.948V7.368H21.053V18.948A1.054,1.054,0,0,1,20,20ZM21.053,6.842H0V3.685A1.054,1.054,0,0,1,1.053,2.632H3.685V4.21a1.579,1.579,0,1,0,3.157,0V2.632H14.21V4.21a1.579,1.579,0,1,0,3.158,0V2.632H20a1.054,1.054,0,0,1,1.053,1.053V6.841ZM15.79,5.263A1.054,1.054,0,0,1,14.737,4.21V1.053a1.053,1.053,0,1,1,2.105,0V4.21A1.054,1.054,0,0,1,15.79,5.263Zm-10.526,0A1.054,1.054,0,0,1,4.21,4.21V1.053a1.053,1.053,0,1,1,2.106,0V4.21A1.054,1.054,0,0,1,5.263,5.263Z" transform="translate(0 0)"/></g></svg>