<svg xmlns="http://www.w3.org/2000/svg" width="39.898" height="29.365"><defs><style>.a{fill:none}.c{fill:#e2e2e2}.d{fill:#fff}.e{fill:#9b9797}.g{fill:#f4f2f2}.k{fill:#d68a12}</style><clipPath id="a"><path class="a" d="M0 0h23.594v23.594H0z" transform="translate(0 .13)"/></clipPath><clipPath id="b"><path class="a" d="M0 0h13.938v7.165H0z" transform="translate(.033 .13)"/></clipPath><clipPath id="c"><path class="a" d="M0 0h18v18H0z" transform="translate(.083 .05)"/></clipPath></defs><path class="a" d="M0 0h23.594v23.594H0z"/><g clip-path="url(#a)" transform="translate(0 -.13)"><path class="c" d="M13.635 23.724c-3.15 0-6.215-1.522-9.112-4.523C1.383 16.17-.135 12.96.009 9.66a12.276 12.276 0 0 1 2.512-6.58A15.041 15.041 0 0 1 4.855.542a9.181 9.181 0 0 0 5.221 5.55 3.047 3.047 0 0 0 1.058.2c3.39 0 5.679-6.1 5.7-6.158a9.419 9.419 0 0 1 4.107 2.65 9.427 9.427 0 0 1 2.651 4.108 17.462 17.462 0 0 0-3.538 1.875c-1.529 1.084-3.191 2.812-2.425 4.885a9.249 9.249 0 0 0 5.55 5.22s0 .005-.007.01a15.521 15.521 0 0 1-2.659 2.418 12.017 12.017 0 0 1-6.878 2.424zM11.482 9.236a2.982 2.982 0 1 0 2.109.873 2.963 2.963 0 0 0-2.109-.873z"/></g><path class="d" d="M13.636 23.594a10.107 10.107 0 0 1-3.5-.639v-8.21a2.992 2.992 0 0 0 1.353.324 2.982 2.982 0 0 0 0-5.963 2.988 2.988 0 0 0-1.352.324V5.982a3.028 3.028 0 0 0 1 .176c2.072 0 3.717-2.223 4.736-4.093v21.27a10.084 10.084 0 0 1-2.237.259zm-4.869-1.248a16.163 16.163 0 0 1-3.758-2.788V.835a9.4 9.4 0 0 0 3.758 4.5v17.011z"/><path class="e" d="M4.856.412a6.963 6.963 0 0 0 .323.818 8.777 8.777 0 0 1-.635.629C3.3 3.141.808 6.2.842 10.039c.026 2.883 1.458 5.718 4.266 8.426l.021.021c2.707 2.805 5.542 4.24 8.426 4.266 3.838.034 6.9-2.461 8.178-3.7.237-.232.444-.443.624-.638a6.964 6.964 0 0 0 .824.325s-8.651 10.7-18.658.333C-5.845 9.063 4.856.412 4.856.412"/><path class="a" d="M3.804 0h13.938v7.165H3.804z"/><g clip-path="url(#b)" transform="translate(3.771 -.13)"><path class="g" d="M1.085.542a9.185 9.185 0 0 0 5.221 5.55C10.318 7.576 13.065.13 13.065.13a5.5 5.5 0 0 1 .906.308C8.568 13.024 2.327 5.114.033 1.546a12.087 12.087 0 0 1 1.052-1"/></g><path class="c" d="M22.051 14.866l3.349-3.349L15.315 1.433a2.368 2.368 0 0 0-3.348 3.349z"/><path d="M11.967 1.433a2.364 2.364 0 0 1 .628-.45 2.368 2.368 0 0 0 .45 2.72l10.085 10.08-1.079 1.079L11.967 4.783a2.368 2.368 0 0 1 0-3.35" fill="#bcbbbb"/><path class="g" d="M11.853 1.555c.036-.042.074-.083.113-.122a2.368 2.368 0 0 1 3.349 0l10.084 10.084-.236.236L15.08 1.668a2.368 2.368 0 0 0-3.227-.113"/><path class="a" d="M21.901 11.368h18v18h-18z"/><g clip-path="url(#c)" transform="translate(21.818 11.318)"><path d="M17.383 17.35a2.368 2.368 0 0 0 0-3.349L3.432.05.083 3.399 14.037 17.35a2.368 2.368 0 0 0 3.349 0" fill="#efa522"/></g><path class="d" d="M38.978 25.549L25.024 11.595l.226-.227 13.954 13.954a2.368 2.368 0 0 1 0 3.349 2.963 2.963 0 0 1-.117.109 2.368 2.368 0 0 0-.109-3.232"/><path class="k" d="M22.944 13.675l13.958 13.954a2.369 2.369 0 0 0 2.745.438 2.369 2.369 0 0 1-3.787.6l-13.958-13.95z"/><path class="k" d="M25.778 18.546l3.376-3.376a.92.92 0 0 1 1.3 1.3l-3.377 3.375a.92.92 0 0 1-1.3-1.3m2.606 2.607l3.376-3.377a.92.92 0 0 1 1.3 1.3l-3.377 3.375a.92.92 0 0 1-1.3-1.3m2.333 2.333l3.376-3.376a.92.92 0 0 1 1.3 1.3l-3.377 3.375a.92.92 0 0 1-1.3-1.3"/><path d="M25.778 18.547l.944-.944 1.3 1.3-.944.944a.92.92 0 0 1-1.3-1.3m2.605 2.605l.944-.944 1.3 1.3-.944.944a.92.92 0 0 1-1.3-1.3m2.332 2.332l.944-.944 1.3 1.3-.944.944a.92.92 0 0 1-1.3-1.3" fill="#bf7408"/><path class="g" d="M13.734 2.047a.5.5 0 0 1 .707 0l9.005 9.005a.5.5 0 1 1-.707.707l-9-9a.5.5 0 0 1 0-.707"/><path class="e" d="M9.001 10.351c.063-.062.127-.121.195-.177a2.981 2.981 0 0 0 4.2 4.2 2.955 2.955 0 0 1-.178.195 2.982 2.982 0 0 1-4.217-4.218"/></svg>