<svg xmlns="http://www.w3.org/2000/svg" width="79.166" height="23.001"><defs><style>.a{fill:#aeaeae}</style></defs><path class="a" d="M67.666 23a11.514 11.514 0 0 0 11.5-11.5A11.514 11.514 0 0 0 67.666 0a11.542 11.542 0 0 0-8.2 3.375 11.391 11.391 0 0 0-3.382 8.125 11.369 11.369 0 0 0 3.416 8.125A11.542 11.542 0 0 0 67.666 23zm0-20.5a9.011 9.011 0 0 1 9 9 9.011 9.011 0 0 1-9 9 9.011 9.011 0 0 1-9-9 9.011 9.011 0 0 1 9-9z"/><path class="a" d="M65.25 13.916a3.263 3.263 0 0 0 2.415 1 3.737 3.737 0 0 0 2.415-1 1.153 1.153 0 0 1 1.752-.166 1.153 1.153 0 0 1 .166 1.751 5.821 5.821 0 0 1-4.333 1.92 5.616 5.616 0 0 1-4.332-1.92 1.3 1.3 0 0 1 .166-1.751 1.3 1.3 0 0 1 1.751.166zm4.418-5a1.667 1.667 0 1 0 3.333 0 1.667 1.667 0 0 0-3.333 0m-7.419 0a1.667 1.667 0 1 0 3.333 0 1.667 1.667 0 0 0-3.333 0m-48.665 0a1.667 1.667 0 1 0 3.333 0 1.667 1.667 0 0 0-3.333 0m-7.419 0a1.667 1.667 0 1 0 3.333 0 1.667 1.667 0 0 0-3.333 0"/><path class="a" d="M11.501 23a11.422 11.422 0 0 0 8.157-3.375 11.441 11.441 0 0 0 3.343-8.125A11.514 11.514 0 0 0 11.501 0a11.514 11.514 0 0 0-11.5 11.5 11.513 11.513 0 0 0 11.5 11.5zm0-20.5a9.011 9.011 0 0 1 9 9 9.011 9.011 0 0 1-9 9 9.121 9.121 0 0 1-9-9 9.011 9.011 0 0 1 9-9z"/><path class="a" d="M11.5 12.751a5.616 5.616 0 0 1 4.334 1.917 1.3 1.3 0 0 1-.166 1.752 1.3 1.3 0 0 1-1.752-.169 3.263 3.263 0 0 0-2.416-1 3.737 3.737 0 0 0-2.415 1 1.192 1.192 0 0 1-1 .5 1.615 1.615 0 0 1-.833-.251 1.153 1.153 0 0 1-.165-1.749 6.227 6.227 0 0 1 4.413-2zm30.082-3.835a1.667 1.667 0 1 0 3.333 0 1.667 1.667 0 0 0-3.333 0m-7.33 0a1.667 1.667 0 1 0 3.333 0 1.667 1.667 0 0 0-3.333 0"/><path class="a" d="M39.584 23a11.514 11.514 0 0 0 11.5-11.5A11.514 11.514 0 0 0 39.584 0a11.514 11.514 0 0 0-11.5 11.5 11.513 11.513 0 0 0 11.5 11.5zm0-20.5a9.011 9.011 0 0 1 9 9 9.011 9.011 0 0 1-9 9 9.121 9.121 0 0 1-9-9 9.011 9.011 0 0 1 9-9z"/><path class="a" d="M36.501 13.499h6.165a1.281 1.281 0 0 1 1.25 1.25 1.281 1.281 0 0 1-1.25 1.25h-6.165a1.281 1.281 0 0 1-1.25-1.25 1.283 1.283 0 0 1 1.25-1.25z"/></svg>