<svg xmlns="http://www.w3.org/2000/svg" width="19.574" height="19.574"><defs><style>.a{fill:#afd656}</style></defs><path class="a" d="M9.787 19.574a9.787 9.787 0 1 1 9.788-9.788 9.8 9.8 0 0 1-9.788 9.788zm0-18.324a8.537 8.537 0 1 0 8.536 8.537A8.547 8.547 0 0 0 9.788 1.25z"/><path class="a" d="M6.087 8.925a1.3 1.3 0 1 0-1.3-1.3 1.3 1.3 0 0 0 1.3 1.3zm7.404 0a1.3 1.3 0 1 0-1.3-1.3 1.3 1.3 0 0 0 1.3 1.3zm.815 1.447a.624.624 0 0 0-.625.625 3.692 3.692 0 0 1-3.894 3.643 3.692 3.692 0 0 1-3.893-3.643.625.625 0 0 0-1.25 0 4.913 4.913 0 0 0 5.143 4.893 4.913 4.913 0 0 0 5.144-4.893.626.626 0 0 0-.625-.625z"/></svg>