<svg xmlns="http://www.w3.org/2000/svg" width="20" height="20"><defs><style>.a{fill:#f22923}</style></defs><path class="a" d="M10 20a10 10 0 1 1 10-10 10.011 10.011 0 0 1-10 10zm0-18.333A8.334 8.334 0 1 0 18.334 10 8.343 8.343 0 0 0 10 1.667z"/><path class="a" d="M8.334 7.916a1.25 1.25 0 1 1-1.25-1.25 1.25 1.25 0 0 1 1.25 1.25m5.832 0a1.25 1.25 0 1 1-1.25-1.25 1.25 1.25 0 0 1 1.25 1.25M7.259 15a.833.833 0 0 1-.461-1.528 5.855 5.855 0 0 1 6.4 0 .833.833 0 1 1-.92 1.39 4.157 4.157 0 0 0-4.566 0 .831.831 0 0 1-.459.138z"/></svg>