<svg xmlns="http://www.w3.org/2000/svg" width="39.884" height="39.884"><defs><style>.a{fill:none}.b{fill:#2cf4e1}.c{fill:#00e0d6}.e{fill:#fff}.f{fill:#706e6c}.g{fill:#494745}.i{fill:#15e5cc}</style><clipPath id="a"><path class="a" d="M0 0h8.095v8.095H0z" transform="translate(.134 .107)"/></clipPath></defs><path class="b" d="M12.9 5.945L0 0l5.945 12.9s4.6.681 13.308 10.675l.719-.719c-6.336-6.639-12.144-10.293-13.42-10.684L1.746 1.746l10.426 4.806c.391 1.276 4.045 7.084 10.682 13.42l.719-.719C13.579 10.545 12.9 5.945 12.9 5.945"/><path class="c" d="M21.739 24.772l3.032-3.032q-1-.888-1.918-1.768l-2.882 2.882q.879.918 1.768 1.918"/><path class="c" d="M12.172 6.552L1.747 1.747l4.805 10.425c1.276.391 7.084 4.045 13.42 10.682l2.882-2.882c-6.636-6.336-10.29-12.144-10.682-13.42"/><path d="M12.898 5.945L.044.02l21.381 21.381 2.148-2.148C13.579 10.545 12.898 5.945 12.898 5.945" fill="#02c6b7"/><path class="e" d="M6.687 6.175l14.982 14.982-.512.512L6.167 6.675c-.254-.254-.5-.519-.726-.795L3.274 3.275l2.6 2.159q.422.352.811.74"/><path class="f" d="M26.062 13.049c4.327 2.241-.931 5.377-2.506 6.22l-4.287 4.287c-.843 1.575-3.979 6.833-6.22 2.506 0 0-.045 11.3 9.541 9.091 0 0-4.77-2.88-2.835-5.806 0 0 2.481-1.654 3.855-1.555a1.028 1.028 0 0 1 .511.16c1.125.765 7.651 7.651 7.651 7.651l3.832-3.832s-6.887-6.522-7.655-7.651a1.027 1.027 0 0 1-.16-.511c-.1-1.374 1.555-3.855 1.555-3.855 2.929-1.935 5.805 2.836 5.805 2.836 2.209-9.586-9.087-9.541-9.087-9.541"/><path class="g" d="M26.063 13.049c4.327 2.241-.931 5.377-2.506 6.22l-2.089 2.089 12.274 12.274 1.861-1.861s-6.885-6.522-7.65-7.651a1.028 1.028 0 0 1-.16-.511c-.099-1.374 1.555-3.854 1.555-3.854 2.925-1.935 5.805 2.835 5.805 2.835 2.206-9.586-9.09-9.541-9.09-9.541"/><path class="a" d="M31.789 31.789h8.095v8.095h-8.095z"/><g clip-path="url(#a)" transform="translate(31.655 31.682)"><path class="f" d="M.134 3.913L.59 8.034l7.639.167L8.061.563 3.94.107z"/></g><path class="g" d="M39.884 39.86l-.167-7.615-4.122-.456-1.891 1.891z"/><path class="b" d="M33.56 38.279l-.237-2.146 2.81-2.81 2.146.238.106 4.824z"/><path class="i" d="M38.384 38.34l-.1-4.78-2.151-.237-1.383 1.383z"/><path class="b" d="M23.805 20.314l-1.57 1.84-1.84 1.57-.96 4.642s3.491-2.355 5.358-1.624c.662.26 1.387.518 2.044.745.4.138.779.264 1.1.371l-.082-.252-.186-.554-.1-.3a53.24 53.24 0 0 0-.745-2.044c-.732-1.863 1.623-5.354 1.623-5.354z"/><path class="i" d="M23.803 20.314l-1.569 1.84-.031.026 5.65 5.65.086.029-.084-.252-.186-.554-.1-.3a53.24 53.24 0 0 0-.745-2.044c-.732-1.864 1.622-5.355 1.622-5.355z"/><path d="M12.898 5.945L.044.02 1.79 1.766l10.382 4.786c.391 1.276 4.045 7.084 10.682 13.42l.719-.719C13.579 10.545 12.898 5.945 12.898 5.945" fill="#04aa9a"/><path class="b" d="M0 0l5.945 12.9s4.6.681 13.308 10.675l.719-.719c-6.336-6.639-12.144-10.293-13.42-10.684L1.746 1.746l.044.02L.044.02z"/><path d="M30.708 34.489c.644.672 1.063 1.119 1.063 1.119l3.837-3.837s-.447-.419-1.119-1.063z" fill="#9b9997"/><path class="f" d="M32.644 32.551l1.076 1.1 1.883-1.881s-.437-.425-1.102-1.076z"/><path class="e" d="M16.319 11.878a48.549 48.549 0 0 0 3.635 4.016l-.426.695-2.215 3.616-.453.74a55.67 55.67 0 0 0-3.841-3.679l.334-.545 2.63-4.294zm-3.42-5.933a10.112 10.112 0 0 0 1.556 3.336l-.358.585-3.088 5.042-.312.508c-3.134-2.278-4.752-2.517-4.752-2.517l-.571-1.238.538-.877 3.399-5.551.45-.734z"/></svg>