<svg xmlns="http://www.w3.org/2000/svg" width="39.876" height="39.863"><defs><style>.a{fill:none}.b{fill:#e2e2e2}.c{fill:#f4712f}.e{fill:#fcbe00}.f{fill:#d85921}.g{fill:#dda300}.j{fill:#fff}</style><clipPath id="a"><path class="a" d="M0 0h7.058v7.051H0z" transform="translate(.091 .082)"/></clipPath><clipPath id="b"><path class="a" d="M0 0h23.393v26.96H0z" transform="translate(0 .137)"/></clipPath></defs><path class="b" d="M0 0l1.716 8.583L20.093 26.96l2.6-.427.7-.7.5-.5.723-.723L1.078 1.065.017 0z"/><path class="c" d="M31.001 25.67l1.658-1.66c3.676.269 6.1-4.661 6.1-4.661-2.066 1.615-7.13-.939-7.13-.939l.224 2.2-2.286 2.282c-.876.877-2.21.3-3.033-.2l-3.829 3.83c.5.822 1.076 2.156.2 3.033l-2.283 2.286-2.2-.224s2.554 5.064.941 7.126c0 0 4.93-2.42 4.661-6.1l1.659-1.659 1.658.134 5.742 5.742.047-.026-.3-4.007-.01-.01h.01v-.007l.01.01 4.007.3.031-.056-5.74-5.74z"/><path class="a" d="M32.818 32.812h7.058v7.051h-7.058z"/><g clip-path="url(#a)" transform="translate(32.727 32.73)"><path class="c" d="M.11.092L.1.082v.01H.091l.01.01.3 4.007-.047.026.04.04.271 2.958h6.484V.649L4.191.382 4.148.338l-.03.056z"/></g><path class="e" d="M34.366 34.352l-.006-.006v.006h-.005l.006.005.171 2.264-.027.014.023.023.151 1.671h3.663v-3.663l-1.671-.151-.024-.024-.017.032z"/><path class="f" d="M31.63 18.41l.224 2.2-2.286 2.282c-.877.877-2.211.305-3.033-.2l-1.918 1.918 8.211 8.211v-.011l.01.01 4.007.3.031-.056-5.74-5.74-.134-1.654 1.658-1.66c3.676.269 6.1-4.661 6.1-4.661-2.066 1.615-7.13-.939-7.13-.939"/><path class="f" d="M36.917 33.112l-.042-.044-.03.056-4.008-.302-.01-.01v.01l7.042 7.041h.007v-6.484z"/><path class="g" d="M36.671 34.515l-.023-.024-.018.032-2.263-.171-.009-.006v.006l3.978 3.977h.007v-3.663z"/><path d="M.017.004l1.062 1.062 7.094 1.418 17.9 17.9-.289 3.067.752-.752.428-2.6L8.583 1.717z" fill="#9b9797"/><path class="a" d="M0 0h23.393v26.96H0z"/><g clip-path="url(#b)" transform="translate(0 -.137)"><path class="j" d="M2.483 8.309l-1.422-7.11h.017L.017.137H0L1.716 8.72l18.377 18.377 2.6-.427.7-.7-3.013.235z"/></g><path d="M8.172 2.484L1.078 1.065 24.62 24.607l.71-.71.45-.45.289-3.067z" fill="#c4c2c2"/><path class="b" d="M1.061 1.062l1.422 7.111 17.9 17.9 3.013-.235.5-.5.723-.723L1.078 1.062z"/><path class="j" d="M8.583 1.717l4.09 4.09-3.769 9.963-6.183-6.183 3.18-8.407zm4.637 18.369l3.769-9.963 5.082 5.081-3.77 9.964z"/><path class="f" d="M29.064 29.051l-3.653-3.653-1.04 3.033 1.627 1.607 1.858.221z"/><path class="c" d="M29.064 29.051l-3.653-3.653 3.033-1.04 1.607 1.627.221 1.859z"/><path class="e" d="M28.675 28.662l-2.874-2.874-.818 2.386 1.28 1.264 1.462.174z"/><path class="g" d="M28.675 28.662l-2.874-2.874 2.386-.818 1.264 1.28.174 1.462z"/></svg>