<svg xmlns="http://www.w3.org/2000/svg" width="39.644" height="39.751"><defs><style>.a{fill:none}.b{fill:#13c1d8}.c{fill:#fff}.d{fill:#0fa9b5}</style><clipPath id="a"><path class="a" d="M0 0h8.109v8.109H0z" transform="translate(.024 .092)"/></clipPath><clipPath id="b"><path class="a" d="M0 0h29.586v29.587H0z" transform="translate(0 .067)"/></clipPath><clipPath id="c"><path class="a" d="M0 0h20.394v29.587H0z" transform="translate(0 .067)"/></clipPath><clipPath id="d"><path class="a" d="M.063.063h.125v.125H.063z" transform="translate(.188 .063)"/></clipPath></defs><path class="b" d="M24.359 29.119l7.82 7.82 4.76-4.76-7.82-7.82z"/><path class="c" d="M24.359 29.119l7.82 7.82.372-.373-7.82-7.819z"/><path class="d" d="M27.052 26.425l7.82 7.82 2.066-2.067-7.819-7.819z"/><path class="a" d="M31.535 31.536h8.109v8.109h-8.109z"/><g clip-path="url(#a)" transform="translate(31.511 31.444)"><path class="b" d="M6.055.092L.024 6.123l1.14 1.14a3.2 3.2 0 0 0 4.532 0l1.5-1.5a3.2 3.2 0 0 0 0-4.532z"/></g><path class="d" d="M38.172 32.143l-.606-.607-6.031 6.031.607.607z"/><path class="d" d="M34.893 34.208l1.14 1.14a3.206 3.206 0 0 1 .51 3.868 3.207 3.207 0 0 0 .664-.51l1.5-1.5a3.2 3.2 0 0 0 0-4.532l-1.142-1.138z"/><path class="a" d="M0 0h29.586v29.587H0z"/><g clip-path="url(#b)" transform="translate(0 -.067)"><path d="M0 .067l.77 10.627 18.959 18.96 9.857-9.857L10.627.838z" fill="#e2e2e2"/></g><path d="M.21.015L24.755 24.56l4.831-4.831L10.627.77z" fill="#c4c2c2"/><path class="a" d="M0 0h20.394v29.587H0z"/><g clip-path="url(#c)" transform="translate(0 -.067)"><path d="M0 .067l.77 10.627 18.959 18.96.665-.665L1.682 10.277l-.666-9.194.21.015L.21.082z" fill="#f4f2f2"/></g><path class="a" d="M.107 39.627h.125v.125H.107z"/><path d="M.21.015l1.016 1.016 8.984.651 18.712 18.712.665-.665L10.627.77z" fill="#9b9797"/><path class="b" d="M22.794 31.324l8.529-8.529-2.401-2.4-8.528 8.528z"/><path class="b" d="M30.899 18.356L18.328 30.927l.745 3.283 2.864.326 12.571-12.571-.475-2.837z"/><path class="d" d="M30.913 18.343l-1.883 1.883 3.134.772.475 2.837 1.883-1.883-.475-2.837z"/><path class="d" d="M32.091 18.633l-1.178-.29-12.571 12.571.271 1.2z"/><path class="c" d="M18.625 30.63l-.283.283.745 3.283 2.864.326.283-.283-2.864-.326z"/><path d="M11.513 1.656l4.7 4.7L8.395 18.25l-4.7-4.694zm6.085 6.085l6.489 6.489-7.818 11.9-6.489-6.489z" fill="#fbfbfb"/></svg>