<?xml version="1.0" standalone="no"?>
<!DOCTYPE svg PUBLIC "-//W3C//DTD SVG 20010904//EN"
 "http://www.w3.org/TR/2001/REC-SVG-20010904/DTD/svg10.dtd">
<svg version="1.0" xmlns="http://www.w3.org/2000/svg"
 width="800.000000pt" height="800.000000pt" viewBox="0 0 800.000000 800.000000"
 preserveAspectRatio="xMidYMid meet">
<metadata>
Created by potrace 1.11, written by Peter Selinger 2001-2013
</metadata>
<g transform="translate(0.000000,800.000000) scale(0.100000,-0.100000)"
fill="#000000" stroke="none">
<path d="M2870 7953 c-14 -3 -58 -20 -98 -38 -138 -64 -239 -201 -288 -390
-28 -106 -25 -384 4 -521 90 -419 336 -857 634 -1126 200 -182 432 -309 608
-333 202 -28 366 30 476 171 17 21 36 49 43 61 21 41 42 44 117 18 106 -38
220 -33 329 13 126 53 296 201 386 337 117 176 198 389 218 575 23 218 -38
427 -157 531 -83 74 -219 106 -333 79 -185 -42 -388 -209 -522 -427 -27 -46
-54 -83 -58 -83 -4 0 -16 19 -26 43 -219 515 -599 922 -986 1055 -89 31 -116
36 -212 38 -60 1 -121 0 -135 -3z"/>
<path d="M3696 5139 c-422 -43 -859 -182 -1102 -351 -344 -237 -592 -714 -655
-1258 -7 -67 -10 -185 -7 -326 l5 -221 -56 -28 c-200 -97 -352 -276 -511 -600
-123 -252 -186 -420 -232 -625 -20 -90 -23 -132 -23 -295 0 -228 17 -311 95
-471 142 -292 381 -490 780 -647 310 -122 619 -176 940 -164 183 7 242 15 411
53 l115 26 80 -46 c98 -57 243 -110 347 -126 123 -20 290 -8 415 30 157 48
341 144 458 240 151 124 226 195 329 313 33 38 65 74 71 81 24 26 151 187 193
245 l44 61 92 0 c235 0 494 -87 691 -233 38 -28 141 -122 229 -209 113 -111
174 -163 208 -178 47 -21 47 -21 90 -2 83 37 141 165 173 383 23 157 15 535
-15 729 -95 613 -340 1108 -684 1380 l-61 47 3 274 c2 236 0 293 -18 414 -65
435 -234 762 -525 1017 -293 257 -668 409 -1166 474 -147 19 -582 27 -714 13z
m1086 -1255 c88 -30 157 -124 158 -214 0 -95 -83 -207 -171 -230 -89 -24 -192
20 -253 108 -43 60 -48 157 -14 221 40 74 126 129 204 131 17 0 51 -7 76 -16z
m-1454 -26 c35 -8 60 -25 97 -62 101 -101 101 -221 0 -322 -82 -82 -179 -96
-273 -37 -87 54 -133 173 -103 265 15 44 74 114 114 135 67 34 98 38 165 21z
m980 -550 c29 -29 -2 -120 -59 -175 -51 -48 -142 -86 -205 -86 -73 0 -149 39
-213 108 -53 58 -69 101 -51 134 20 38 90 22 90 -19 0 -35 122 -130 167 -130
72 0 163 63 184 128 6 20 14 40 16 45 7 11 58 8 71 -5z"/>
</g>
</svg>
