<svg xmlns="http://www.w3.org/2000/svg" width="13.44" height="19.99"><defs><style>.a{fill:#ffd6a8}</style></defs><path class="a" d="M10.204 9.19a1.181 1.181 0 1 0 2.122.984 1.181 1.181 0 0 0-1.19-1.522 1.189 1.189 0 0 0-.932.538zm3.235 4.721c.006.159 0-.159 0 0zM2.789 5.178a1.935 1.935 0 0 0 2.334-3.023 1.952 1.952 0 0 0-2.07-.505 1.952 1.952 0 0 0-1.277 1.67 1.953 1.953 0 0 0 1.013 1.858z"/><path class="a" d="M6.129 3.522a2.022 2.022 0 0 0 3.159-.591A2.022 2.022 0 0 0 7.091.037a2.04 2.04 0 0 0-1.552 1.427 2.04 2.04 0 0 0 .59 2.058zm6.585 10.706a.35.35 0 0 0 .7-.035v-.312a2.767 2.767 0 0 0-.126-.73 3.131 3.131 0 0 0-.24-.581 3.349 3.349 0 0 0-1.022-1.142 1.536 1.536 0 0 0-.314-.181 1.186 1.186 0 0 0-1.023-.006 1.181 1.181 0 0 0-.242.13 3.122 3.122 0 0 0-.273.2 3.364 3.364 0 0 0-.549.564 3.1 3.1 0 0 0-.581 1.244 3.833 3.833 0 0 0-.072.815.354.354 0 0 0 .336.347.354.354 0 0 0 .364-.313 2.509 2.509 0 0 1 .346-1.1v.379l-.78 3.146c-.035.136-.058.275.207.275h.648l.12 2.631a.409.409 0 0 0 .817 0l.142-2.631h.044l.12 2.631a.409.409 0 0 0 .817 0l.15-2.631h.634a.232.232 0 0 0 .227-.277l-.792-3.161v-.362a2.438 2.438 0 0 1 .342 1.1z"/><path class="a" d="M9.001 16.803l.269-1.165.037-.723a.769.769 0 0 1-.582-.74 4.054 4.054 0 0 1 .095-.96 3.6 3.6 0 0 1 .347-.9 3.465 3.465 0 0 1 .319-.481 3.622 3.622 0 0 0 .012-.4V8.057a6.3 6.3 0 0 1 .388 1.148 1.514 1.514 0 0 1 1.285-.876 8.266 8.266 0 0 0-.438-1.272 6.273 6.273 0 0 0-.822-1.35 5.539 5.539 0 0 0-.725-.738 4.5 4.5 0 0 0-.4-.3 3.106 3.106 0 0 0-.375-.212 2.2 2.2 0 0 0-2.405.421l-.849.755a5.921 5.921 0 0 1 1.8 2.024 5.356 5.356 0 0 1 .564 1.657 6.853 6.853 0 0 1 .08 1.18 1.006 1.006 0 0 1-1 .986.993.993 0 0 1-.244-.023s.744 2.714.786 2.888c.057.235.077.723-.467.723h-.9l-.07 1.215.124 2.974a.709.709 0 0 0 .7.671.707.707 0 0 0 .7-.665l.252-4.984.207 4.978a.7.7 0 0 0 1.4.006l.109-2.165a.213.213 0 0 1-.197-.295z"/><path class="a" d="M6.569 14.85a.346.346 0 0 0 .268-.126.329.329 0 0 0 .073-.291L5.572 9.582v-.768a3.5 3.5 0 0 1 .423.987 5.253 5.253 0 0 1 .139.812.574.574 0 0 0 1.145-.057c0-.184 0-.368-.009-.552a4.906 4.906 0 0 0-.1-.754 5.022 5.022 0 0 0-.57-1.474 5.459 5.459 0 0 0-.974-1.243 5.488 5.488 0 0 0-.587-.48 3.07 3.07 0 0 0-.5-.306l-.049-.02a1.942 1.942 0 0 0-1.676-.008 2.267 2.267 0 0 0-.52.3A5.515 5.515 0 0 0 .716 7.707a4.913 4.913 0 0 0-.352.714 4.471 4.471 0 0 0-.233.749 7.155 7.155 0 0 0-.116.763 5.968 5.968 0 0 0-.015.616v.008a.58.58 0 0 0 .548.569.58.58 0 0 0 .6-.512 5.28 5.28 0 0 1 .139-.812 3.6 3.6 0 0 1 .43-1v.721l-1.343 4.91a.347.347 0 0 0 .341.414h1.116l.2 4.5a.67.67 0 0 0 1.339.006l.247-4.506h.056l.2 4.5a.67.67 0 0 0 1.339.006l.247-4.506h1.1z"/></svg>