<svg xmlns="http://www.w3.org/2000/svg" width="21.88" height="19.994"><defs><style>.h{fill:#64463c}.k{fill:#b48764}.l{fill:#966d50}.n{fill:#0096dc}.p{fill:#553732}.q{fill:#e6af78}.r{fill:#d29b6e}.t{fill:#ffdc64}</style></defs><g transform="translate(0 -.003)"><path d="M16.599 1.512a4.15 4.15 0 0 1 4.15 4.15 42.8 42.8 0 0 0 .377 5.281 13.325 13.325 0 0 1-4.527 1.509 13.326 13.326 0 0 1-4.527-1.509 42.8 42.8 0 0 0 .377-5.281 4.15 4.15 0 0 1 4.15-4.15z" fill="#d59f63"/><path d="M15.09 5.284V4.153a2.641 2.641 0 0 1 2.126-2.59 4.159 4.159 0 0 0-.617-.051 4.15 4.15 0 0 0-4.15 4.15 42.8 42.8 0 0 1-.377 5.281 13.325 13.325 0 0 0 4.527 1.509V6.793z" fill="#cd915a"/><path d="M21.169 13.677l-2.587-1.035a.754.754 0 0 1-.474-.7v-1.376h-3.019v1.375a.754.754 0 0 1-.474.7l-2.587 1.036a1.132 1.132 0 0 0-.711 1.05v1.5a.377.377 0 0 0 .377.377v3.4h9.431a.377.377 0 0 0 .377-.377v-3.025a.377.377 0 0 0 .377-.377v-1.5a1.132 1.132 0 0 0-.71-1.048z" fill="#fad7a5"/><path d="M21.502 16.225v1.132h-.377a.377.377 0 0 0-.377.377v2.264h-1.132v-3.773h1.886zm-6.413-4.438a4.121 4.121 0 0 0 1.509.288 4.121 4.121 0 0 0 1.509-.288v-1.221h-3.018v1.221z" fill="#f0c891"/><path d="M16.604 11.321a3.4 3.4 0 0 1-3.4-3.396V6.764a.376.376 0 0 1 .32-.37 1.946 1.946 0 0 0 1.46-1.196.223.223 0 0 1 .339-.088c1.6 1.206 4.671.3 4.671 2.816a3.4 3.4 0 0 1-3.39 3.395z" fill="#ffe1b4"/><path d="M15.09 7.926V5.093a.217.217 0 0 0-.106.1 1.946 1.946 0 0 1-1.46 1.2.376.376 0 0 0-.32.37v1.163a3.389 3.389 0 0 0 4.338 3.26 3.4 3.4 0 0 1-2.452-3.26z" fill="#fad098"/><path d="M16.599 9.812a1.353 1.353 0 0 1-1.048-.517.377.377 0 1 1 .586-.475.578.578 0 0 0 .923 0 .377.377 0 1 1 .586.475 1.353 1.353 0 0 1-1.047.517z" fill="#d7af7d"/><path class="h" d="M18.108 7.925a.377.377 0 0 1-.377-.377V7.17a.377.377 0 0 1 .755 0v.378a.377.377 0 0 1-.378.377zm-3.018 0a.377.377 0 0 1-.377-.377V7.17a.377.377 0 0 1 .755 0v.378a.377.377 0 0 1-.378.377z"/><path d="M21.168 13.677l-1.609-.644a3.018 3.018 0 0 1-2.961 2.437 3.018 3.018 0 0 1-2.96-2.437l-1.61.644a1.132 1.132 0 0 0-.711 1.05v5.27h8.677v-3.4h1.509a.377.377 0 0 0 .377-.377v-1.5a1.132 1.132 0 0 0-.712-1.043z" fill="#ff507d"/><path d="M19.56 13.032a3.018 3.018 0 0 1-2.961 2.437 3.018 3.018 0 0 1-2.961-2.437l-.708.283a3.771 3.771 0 0 0 3.669 2.909 3.771 3.771 0 0 0 3.669-2.909zm.434 3.127a.755.755 0 0 1 .221-.534l1.494-1.493a1.128 1.128 0 0 1 .172.595v1.5a.377.377 0 0 1-.377.377h-1.51v-.445z" fill="#d23c69"/><path class="k" d="M2.641 19.993H.754a.377.377 0 0 1-.377-.373v-4.527h2.264v4.9z"/><path class="l" d="M.377 15.847v.754h.754a.377.377 0 0 1 .377.377v3.019h1.133v-4.15H.377zm8.3-.755h2.264v4.904H8.677z"/><path d="M10.483 11.089l-3.315-.9H4.15l-3.316.9a1.132 1.132 0 0 0-.834 1.1v3.281a.377.377 0 0 0 .377.377h1.887v4.15h6.79v-5h2.263v-2.808a1.132 1.132 0 0 0-.834-1.1z" fill="#00aaf0"/><path class="n" d="M7.171 10.189H4.15l-1.479.4a3.015 3.015 0 0 0 5.976 0z"/><path class="k" d="M3.772 8.868v1.32a1.886 1.886 0 1 0 3.772 0v-1.32z"/><path class="l" d="M3.772 9.732a4.12 4.12 0 0 0 1.886.457 4.12 4.12 0 0 0 1.886-.457v-.864H3.772z"/><path d="M9.054 4.53V2.266H2.263V4.53a.754.754 0 1 0 0 1.509 3.4 3.4 0 0 0 6.79 0 .754.754 0 0 0 0-1.509z" fill="#c39772"/><path class="k" d="M4.15 6.038V2.266H2.263V4.53a.754.754 0 1 0 0 1.509 3.389 3.389 0 0 0 4.338 3.26A3.4 3.4 0 0 1 4.15 6.038z"/><path class="l" d="M5.659 7.926a1.353 1.353 0 0 1-1.048-.517.377.377 0 1 1 .586-.476.578.578 0 0 0 .923 0 .377.377 0 1 1 .586.475 1.353 1.353 0 0 1-1.047.518z"/><path class="p" d="M4.15 6.039a.377.377 0 0 1-.377-.377v-.378a.377.377 0 0 1 .755 0v.378a.377.377 0 0 1-.378.377zm3.018 0a.377.377 0 0 1-.377-.377v-.378a.377.377 0 0 1 .755 0v.378a.377.377 0 0 1-.378.377z"/><path class="h" d="M8.198 4.171a.635.635 0 0 0 .729.37.73.73 0 0 1 .127-.011.747.747 0 0 1 .377.1V2.267a1.5 1.5 0 0 0-.772-1.31A1.129 1.129 0 0 0 7.545.003H4.527a2.641 2.641 0 0 0-2.641 2.641v1.991a.747.747 0 0 1 .377-.1.731.731 0 0 1 .142.014.7.7 0 0 0 .827-.494l.093-.371a.375.375 0 0 1 .354-.286 14.023 14.023 0 0 0 3.818-.569.377.377 0 0 1 .5.29l.141.848a1.1 1.1 0 0 0 .06.204z"/><path class="p" d="M4.149 2.267A2.263 2.263 0 0 1 6.413.003H4.527a2.641 2.641 0 0 0-2.641 2.641v1.991a.747.747 0 0 1 .377-.1.73.73 0 0 1 .141.014.7.7 0 0 0 .827-.494l.093-.371a.375.375 0 0 1 .354-.286c.124 0 .285-.009.471-.019V2.267z"/><path class="n" d="M0 12.185v3.285a.377.377 0 0 0 .377.377h1.887v-1.239a1.886 1.886 0 0 0-.4-1.158l-1.57-2.021a1.127 1.127 0 0 0-.294.756z"/><path class="q" d="M13.939 17.853l-1.232-.41a.377.377 0 0 1-.258-.358v-.86h-2.264v.86a.377.377 0 0 1-.258.358l-1.231.41a1.132 1.132 0 0 0-.774 1.072v.7a.377.377 0 0 0 .377.377h6.036a.377.377 0 0 0 .377-.377v-.7a1.132 1.132 0 0 0-.773-1.072z"/><path class="r" d="M10.186 16.225v.86a.368.368 0 0 1-.01.062 3.223 3.223 0 0 0 1.038.208h.1a3.372 3.372 0 0 0 1.146-.2.368.368 0 0 1-.011-.07v-.86z"/><path class="h" d="M11.322 8.302a3.4 3.4 0 0 0-3.4 3.4v1.127h6.79v-1.127a3.4 3.4 0 0 0-3.39-3.4z"/><path class="p" d="M12.449 8.502a3.388 3.388 0 0 0-4.527 3.2v1.127h2.264v-1.127a3.394 3.394 0 0 1 2.263-3.2z"/><path d="M13.958 12.075v-.327a.75.75 0 0 0-1.084-.666 10.944 10.944 0 0 1-4.2.993.754.754 0 1 0 0 1.509v.266a2.714 2.714 0 0 0 2.562 2.755 2.641 2.641 0 0 0 2.722-2.644v-.377a.754.754 0 0 0 0-1.509z" fill="#f0c087"/><path class="t" d="M13.318 7.66l-2 .857-2-.857a.189.189 0 0 0-.264.174v1.691a.189.189 0 0 0 .263.173l2-.857 2 .857a.189.189 0 0 0 .263-.173V7.834a.189.189 0 0 0-.262-.174z"/><path class="q" d="M10.185 13.961v-2.044a9.922 9.922 0 0 1-1.509.158.754.754 0 0 0 0 1.509v.266a2.714 2.714 0 0 0 2.559 2.75 2.642 2.642 0 0 0 .836-.11 2.641 2.641 0 0 1-1.886-2.529z"/><path class="r" d="M11.318 15.471a1.353 1.353 0 0 1-1.048-.517.377.377 0 1 1 .586-.476.578.578 0 0 0 .923 0 .377.377 0 1 1 .586.475 1.353 1.353 0 0 1-1.047.518z"/><path class="p" d="M10.185 13.814a.356.356 0 0 1-.268-.143.609.609 0 0 1 0-.7.332.332 0 0 1 .536 0 .609.609 0 0 1 0 .7.357.357 0 0 1-.268.143zm2.264 0a.356.356 0 0 1-.268-.143.492.492 0 0 1-.079-.161.618.618 0 0 1-.03-.187.619.619 0 0 1 .03-.184.489.489 0 0 1 .079-.164.332.332 0 0 1 .536 0 .54.54 0 0 1 .079.164.618.618 0 0 1 .03.187.606.606 0 0 1-.109.345.356.356 0 0 1-.268.143z"/><path class="t" d="M13.939 17.853l-.617-.205a2.262 2.262 0 0 1-2 1.218 2.262 2.262 0 0 1-2.011-1.218l-.615.205a1.132 1.132 0 0 0-.774 1.074v.693a.377.377 0 0 0 .377.377h6.036a.377.377 0 0 0 .377-.377v-.693a1.132 1.132 0 0 0-.773-1.074z"/><circle cx=".566" cy=".566" r=".566" transform="translate(10.752 8.114)" fill="#ffc850"/></g></svg>