<svg xmlns="http://www.w3.org/2000/svg" width="20" height="17.856"><defs><style>.b{fill:#046699}.e{opacity:.1}.f{fill:#ef5050}.g{fill:#c0272d}.h{fill:#89c947}.i{fill:#d5e962}.j{fill:#ffc502}.k{fill:#368c0e}.l{fill:#f7931e}</style></defs><path fill="#48c1e1" d="M2.375 1.799h2.022v1.35H2.375z"/><path class="b" d="M4.815 1.65a.2.2 0 0 1-.2.2H2.158a.2.2 0 0 1-.2-.2V.199a.2.2 0 0 1 .2-.2h2.456a.2.2 0 0 1 .2.2v1.45z"/><path d="M2.797 1.65V.199a.2.2 0 0 1 .2-.2h-.839a.2.2 0 0 0-.2.2v1.45a.2.2 0 0 0 .2.2h.84a.2.2 0 0 1-.201-.199z"/><path d="M1.748 12.739a.039.039 0 0 0 .02-.052.176.176 0 0 1-.026-.09c0-.215.478-.446 1.189-.446a2.71 2.71 0 0 1 .645.074h.009a.039.039 0 0 0 .038-.049 7.212 7.212 0 0 1-.212-1.525v-.241a.163.163 0 0 1 .163-.163h.353a.039.039 0 0 0 .039-.043 1.21 1.21 0 0 1-.008-.136 1.248 1.248 0 0 1 .876-1.2.039.039 0 0 0 .023-.054 1.179 1.179 0 0 1 .571-1.583.039.039 0 0 0 .02-.049 1.178 1.178 0 0 1 .351-1.3V4.21a1.125 1.125 0 0 0-1.121-1.123h-2.58A1.125 1.125 0 0 0 .978 4.21v9a2.919 2.919 0 0 1 .77-.471z" fill="#a2dff9"/><path class="b" d="M4.829 8.872a.039.039 0 0 0 .023-.054 1.179 1.179 0 0 1 .572-1.586.039.039 0 0 0 .02-.049 1.178 1.178 0 0 1 .351-1.3v-.751H.978v4.156h3.247a1.249 1.249 0 0 1 .604-.416z"/><path class="e" d="M2.188 12.252V4.21a1.125 1.125 0 0 1 1.12-1.123h-1.21A1.125 1.125 0 0 0 .978 4.21v9a2.92 2.92 0 0 1 .77-.466.039.039 0 0 0 .02-.057.176.176 0 0 1-.026-.09c0-.126.166-.258.446-.345z"/><path class="f" d="M9.475 6.28a1.192 1.192 0 0 1 .017.2.039.039 0 0 0 .036.039 1.18 1.18 0 0 1 1.04.886.039.039 0 0 0 .027.028h.011a.039.039 0 0 0 .027-.011 1.237 1.237 0 0 1 .733-.33.039.039 0 0 0 .035-.038 2.145 2.145 0 0 1 .627-1.45l.025-.024a2.691 2.691 0 0 0-.755-1.485.211.211 0 0 0-.3 0L9.285 5.813a1.181 1.181 0 0 1 .19.467z"/><path class="g" d="M10.567 7.41a.039.039 0 0 0 .027.025h.011a.039.039 0 0 0 .027-.009 1.249 1.249 0 0 1 .331-.222.292.292 0 0 0-.074-.123l-.283-.285a.293.293 0 0 0-.417 0 1.177 1.177 0 0 1 .378.614zm.614-.87h-.4a.293.293 0 0 1-.007-.586h.407a.293.293 0 0 1 0 .586zm-.463-.809a.293.293 0 0 1-.207-.5l.284-.285a.293.293 0 0 1 .415.414l-.285.285a.292.292 0 0 1-.207.086z"/><path class="h" d="M14.391 5.133a.069.069 0 0 0-.039-.039 2.185 2.185 0 0 0-2.991 2.003c.041 0 .082-.006.123-.006a1.254 1.254 0 0 1 1.228 1.012 2.189 2.189 0 0 0 1.679-2.97z"/><path class="i" d="M13.338 6.149a.293.293 0 0 0-.414 0L11.91 7.163a1.255 1.255 0 0 1 .5.333l.928-.933a.293.293 0 0 0 0-.414z"/><path class="j" d="M14.812 8.488a1.07 1.07 0 0 1 .015.181.039.039 0 0 0 .036.039 1.054 1.054 0 0 1 .449.146.039.039 0 0 0 .049-.008l.09-.1a1.957 1.957 0 0 1 .832-.5 1.29 1.29 0 1 0-2.499-.638 1.059 1.059 0 0 1 1.028.88zm-8.843 1.736a2.013 2.013 0 0 1-.245-.752 1.177 1.177 0 0 1-.87-.648 1.285 1.285 0 0 0-.93 1.4h2.045z"/><path class="h" d="M15.816 9.584a1.054 1.054 0 0 1-.087.636h1.658a2.013 2.013 0 0 0 .232-1.91.064.064 0 0 0-.036-.035 2 2 0 0 0-2.16.446c-.041.042-.08.085-.117.129a1.062 1.062 0 0 1 .51.734z"/><path class="i" d="M15.73 10.22h.362l.578-.579a.293.293 0 0 0-.415-.414l-.425.43a1.052 1.052 0 0 1-.1.563z"/><path class="k" d="M10.613 7.43a1.219 1.219 0 0 0-1.082-.948 1.221 1.221 0 0 0-2.24-.67 1.222 1.222 0 0 0-1.884 1.387 1.22 1.22 0 0 0 .315 2.312 1.969 1.969 0 0 1 .12-1.009.025.025 0 0 1 .006-.009l.008-.006a1.962 1.962 0 0 1 2.118.438c.027.027.053.055.078.083a2.692 2.692 0 0 1-.032-.411.172.172 0 0 1 .177-.171h2.041v-.082a1.291 1.291 0 0 1 .375-.914z"/><path class="h" d="M6.334 7.544h-.005a.293.293 0 0 1-.288-.298.932.932 0 0 1 .931-.914h.014a.933.933 0 0 1 .672.3.295.295 0 0 1-.433.4.34.34 0 0 0-.248-.114.345.345 0 0 0-.35.338.293.293 0 0 1-.293.288zm1.618.504a.293.293 0 0 1-.275-.395.853.853 0 0 1 1.582-.038.293.293 0 0 1-.539.229.264.264 0 0 0-.149-.148.268.268 0 0 0-.344.161.293.293 0 0 1-.275.191z"/><path class="k" d="M12.732 8.423h-.01v.008h.392a.211.211 0 0 1 .211.211 2.69 2.69 0 0 1-.51 1.578h2.96a1.1 1.1 0 0 0-.909-1.552 1.1 1.1 0 0 0-2.023-.6 1.106 1.106 0 0 0-.168-.107 1.252 1.252 0 0 1 .06.383l-.003.079z"/><path class="l" d="M12.772 8.426v-.082a1.29 1.29 0 1 0-2.578 0v.082z"/><path class="h" d="M8.001 8.898a2 2 0 0 0-2.159-.447.066.066 0 0 0-.022.015.064.064 0 0 0-.014.021 2.013 2.013 0 0 0 .118 1.732h2.66a2.7 2.7 0 0 1-.52-1.251q-.029-.036-.063-.07z"/><path class="i" d="M7.156 10.218h.828l-.814-.814a.293.293 0 0 0-.414.414z"/><path class="f" d="M12.834 10.22a2.692 2.692 0 0 0 .547-1.622.211.211 0 0 0-.216-.211H8.192a.211.211 0 0 0-.211.211 2.692 2.692 0 0 0 .542 1.622z"/><path class="g" d="M10.983 10.224v-.2a.293.293 0 0 0-.586-.007v.207zm.562-.004h.451a.293.293 0 0 0-.015-.393l-.285-.285a.293.293 0 1 0-.414.414zm-1.756-.001l.263-.263a.293.293 0 0 0-.415-.414l-.284.285a.293.293 0 0 0-.02.392zm-.446-.789h-.4a.293.293 0 0 1-.007-.586h.407a.293.293 0 0 1 0 .586zm3.084 0h-.4a.293.293 0 0 1-.007-.586h.407a.293.293 0 0 1 0 .586z"/><path d="M3.632 12.24h.011a.039.039 0 0 0 .039-.039v-.492a.254.254 0 1 1 .508 0v.5a.039.039 0 0 0 .039.039h.01a2.633 2.633 0 0 1 .7-.089c.711 0 1.189.231 1.189.446a.176.176 0 0 1-.025.087.039.039 0 0 0 .019.055 2.706 2.706 0 0 1 1.685 2.07.039.039 0 0 0 .039.034h.014l6.166-2.342a1.045 1.045 0 0 1 1.4.783l.054.29a.039.039 0 0 0 .058.027l2.073-1.224a7.265 7.265 0 0 0 .269-1.976.2.2 0 0 0-.2-.2H3.568a.2.2 0 0 0-.2.2 7.283 7.283 0 0 0 .228 1.822z" fill="#e6e9ed"/><path class="e" d="M3.632 12.24h.011a.039.039 0 0 0 .039-.039v-.492a.254.254 0 1 1 .508 0v.5a.039.039 0 0 0 .039.039h.01a2.542 2.542 0 0 1 .593-.086 7.3 7.3 0 0 1-.209-1.753.2.2 0 0 1 .2-.2H3.568a.2.2 0 0 0-.2.2 7.283 7.283 0 0 0 .228 1.822z"/><path class="h" d="M3.936 12.38a1.359 1.359 0 0 1 .293-.116v-.557a.293.293 0 0 0-.586 0v.557a1.354 1.354 0 0 1 .293.116z"/><path class="f" d="M6.928 17.816H5.87a1.043 1.043 0 0 1-1.027-.851l-.01-.056a1.039 1.039 0 0 1 .655-1.16l2.364-.9A2.732 2.732 0 0 0 6.1 12.688a1.176 1.176 0 0 1-.816.335.039.039 0 0 0-.019.065.861.861 0 0 1 .357.479.148.148 0 0 1-.035.121.376.376 0 0 1-.283.086 2.146 2.146 0 0 1-.954-.294 2.406 2.406 0 0 1-.389-.264.039.039 0 0 0-.05 0 2.4 2.4 0 0 1-.389.264 2.145 2.145 0 0 1-.954.3.376.376 0 0 1-.284-.092.148.148 0 0 1-.035-.116.861.861 0 0 1 .357-.484.039.039 0 0 0-.02-.069 1.175 1.175 0 0 1-.816-.331A2.7 2.7 0 0 0 0 15.162a2.819 2.819 0 0 0 2.93 2.694h4.062c.044 0 .008-.016-.064-.04z"/><path class="e" d="M1.268 15.162a2.625 2.625 0 0 1 1.177-2.159 1.028 1.028 0 0 1-.675-.315A2.7 2.7 0 0 0 0 15.162a2.819 2.819 0 0 0 2.93 2.694H4.2a2.819 2.819 0 0 1-2.932-2.694z"/><path class="k" d="M6.168 12.597c0-.268-.55-.485-1.228-.485a2.177 2.177 0 0 0-1 .206 2.177 2.177 0 0 0-1-.206c-.687 0-1.237.217-1.237.485 0 .215.371.405.878.465-.31.25-.453.509-.326.65.168.189.743.1 1.286-.2a2.448 2.448 0 0 0 .4-.269 2.457 2.457 0 0 0 .4.269c.542.3 1.118.39 1.285.2.117-.141-.023-.4-.336-.65.508-.06.878-.25.878-.465z"/><path class="h" d="M19.995 14.332l-.079-.424a.271.271 0 0 0-.315-.216l-3.036.558 1.938-1.297a.268.268 0 0 0 .086-.356l-.216-.388a.271.271 0 0 0-.374-.1l-2.526 1.489.477 2.573 2.893.52a.271.271 0 0 0 .316-.22l.065-.439a.266.266 0 0 0 0-.088.27.27 0 0 0-.206-.214l-2.276-.526 3.031-.558a.27.27 0 0 0 .222-.314z"/><path class="l" d="M4.804 16.973a1.082 1.082 0 0 0 1.066.883h9.139a1.08 1.08 0 0 0 1.067-1.278l-.611-3.3a1.084 1.084 0 0 0-1.453-.809l-8.536 3.244a1.078 1.078 0 0 0-.679 1.2z"/><path d="M4.804 16.973a1.073 1.073 0 0 0 .072.225 1.128 1.128 0 0 1 .584-.5l8.916-3.391a1.13 1.13 0 0 1 1.13.189l-.04-.216a1.084 1.084 0 0 0-1.454-.811l-8.536 3.244a1.078 1.078 0 0 0-.679 1.2z" opacity=".1"/><path class="j" d="M14.486 16.481a.293.293 0 0 0-.575.11l.24 1.261h.6zm-1.588.348a.293.293 0 1 0-.576.108l.173.915h.6zm-1.553-2.207a.293.293 0 0 0 .568-.144l-.279-1.107-.551.21zm-1.524 1.951a.295.295 0 1 0-.581.104l.217 1.176h.6zm-2.955-.547a.293.293 0 0 0 .573-.121l-.183-.87-.554.211z"/></svg>