<svg xmlns="http://www.w3.org/2000/svg" width="45" height="45"><circle cx="22.5" cy="22.5" r="22.5" fill="#f29123"/><path d="M30.376 33H15c-1 0-1-.876-1-1.25V14.125c0-.264.063-1.125.875-1.125h3.249c.876 0 .876.876.876 1.25v1c0 .238.207.271.431.271h.341c.073-.021.149-.021.228-.021h10.5a.877.877 0 0 1 .723.316.945.945 0 0 1 .152.809V31.75c0 .614 0 1.25-.999 1.25zm-6.75-5c-.606 0-.876.193-.876.625s.27.625.876.625h5.25c.6 0 .874-.193.875-.625S29.48 28 28.875 28zm-6.89-2.03a.879.879 0 0 0-.61.282.63.63 0 0 0-.175.454.956.956 0 0 0 .3.67l1.5 1.5a.906.906 0 0 0 1.25 0L20.875 27a.808.808 0 0 0-.126-1.125.6.6 0 0 0-.515-.281.877.877 0 0 0-.609.281l-1.375 1.376-1-1a.6.6 0 0 0-.515-.282zm6.89-5.47c-.606 0-.876.193-.876.625s.27.625.876.625h5.25c.6 0 .874-.193.875-.625s-.27-.625-.875-.625zm-6.89-2.03a.881.881 0 0 0-.61.281.8.8 0 0 0 .124 1.125l1.5 1.5c.125.25.379.25.625.25a.821.821 0 0 0 .446-.151 4.54 4.54 0 0 1 .179-.1l1.875-1.875a.939.939 0 0 0 0-1.124.833.833 0 0 0-1.25 0l-1.375 1.375-1-1a.6.6 0 0 0-.515-.282z" fill="#fff"/></svg>