<svg xmlns="http://www.w3.org/2000/svg" width="49.78" height="42.917"><defs><style>.a{fill:none}.b{fill:#056839}.c{fill:#f8af41}.d{fill:#11a651}.f{fill:#08873e}.g{fill:#057c39}.i{fill:#31a444}.m{fill:#fefefe}.n{fill:#912a2a}.o{fill:#da6aa5}.s{fill:#e19214}.x{fill:#ecc20f}</style><clipPath id="a"><path class="a" d="M0 0h7.583v12.138H0z" transform="translate(.027 .083)"/></clipPath><clipPath id="b"><path class="a" d="M0 0h9.457v10.54H0z" transform="translate(0 .074)"/></clipPath><clipPath id="c"><path class="a" d="M0 0h3.962v1.914H0z" transform="translate(.128 .154)"/></clipPath><clipPath id="d"><path class="a" d="M0 0h3.962v1.914H0z" transform="translate(.035 .154)"/></clipPath><clipPath id="e"><path class="a" d="M0 0h27.816v16.833H0z" transform="translate(0 .12)"/></clipPath><clipPath id="f"><path class="a" d="M0 0h18.813v16.723H0z" transform="translate(.007 .123)"/></clipPath></defs><path class="b" d="M30 25.274l2.286 3.643.737-1.091-1.238-1.67L34 26.112v-2.195z"/><path class="c" d="M32.733 27.188l-1.5 1.725 1.308.26-.241.5s-.515-.272-.567-.109a.283.283 0 0 0 .079.342s-.148.455.4.439a2 2 0 0 0 .908-.239l.29-1.487z"/><path class="b" d="M42.972 24.132l4.431 1.25-2.531 3.35-.816-1 1.37-1.538-2.454-.041z"/><path class="c" d="M44.183 27.188l1.5 1.725-1.308.26.241.5s.515-.276.568-.114a.283.283 0 0 1-.079.342s.149.455-.4.439a2 2 0 0 1-.9-.234l-.29-1.487z"/><path class="d" d="M44.375 33.178c-.7.164-1.587.4-2.161.526a6.848 6.848 0 0 0-2.25-2.133 3.389 3.389 0 0 0-1.44-.406 3.5 3.5 0 0 0-1.645.523 7.121 7.121 0 0 0-2.048 2.016c-.717-.153-1.436-.3-2.167-.447a23.24 23.24 0 0 1 .341-2.372c.1-.538.218-1.091.345-1.64.045-.2.092-.407.141-.609l.121-.506c.652-2.622 1.377-4.896 1.377-4.896h7.067s.674 2.106 1.3 4.6c.049.193.1.388.145.585s.1.411.147.618c.11.47.214.945.308 1.413a26.04 26.04 0 0 1 .419 2.728"/><path class="a" d="M35.027 0h7.583v12.138h-7.583z"/><g clip-path="url(#a)" transform="translate(35 -.083)"><path class="f" d="M5.618 8.583a1.443 1.443 0 0 0 .939-2.209 1.2 1.2 0 0 0 .292-2.219 1.133 1.133 0 0 0-.146-2.177A1.44 1.44 0 0 0 6.142.283a1.419 1.419 0 0 0-1.9.577 1.431 1.431 0 0 0-2.378 1.486c-1.97.053-1.922 2.418-.851 2.649-1.8 1.148-.752 2.565.122 2.78-1.492 1.283.261 2.049.836 2.636a2.732 2.732 0 0 1 .654 1.15c.393 1.015 1.335.787 1.537-.179.284-1.36 2.079-1.47 1.456-2.8"/></g><path class="g" d="M39.819 2.656s-2.068 3.674-1.875 15.21a16.259 16.259 0 0 0 .215 2.023.22.22 0 0 0 .438-.033c-.066-1.534-.066-6.939.113-9.044a64.477 64.477 0 0 1 1.109-8.156"/><path class="a" d="M40.323 5.4h9.457v10.54h-9.457z"/><g clip-path="url(#b)" transform="translate(40.323 5.326)"><path class="i" d="M4.58 8.517a1.464 1.464 0 0 0 1.943-1.443 1.215 1.215 0 0 0 1.39-1.766c.744.3 2.07-1.007.99-1.952a1.441 1.441 0 0 0 .385-1.744c-.645-1.15-1.939-.45-1.939-.45a1.438 1.438 0 0 0-2.811.1C2.811.325 1.641 2.39 2.446 3.122.307 3.216.483 4.961 1.127 5.582-.817 5.945.3 7.48.5 8.274a2.7 2.7 0 0 1-.027 1.317c-.181 1.071.749 1.345 1.418.612.941-1.029 2.546-.229 2.689-1.686"/></g><path class="f" d="M47.173 8.182a31.083 31.083 0 0 0-7.631 9.942 50.069 50.069 0 0 0-.871 1.895.225.225 0 0 0 .406.191c.74-1.387 1.207-2.424 2.343-4.271a52.312 52.312 0 0 1 5.753-7.757"/><path class="i" d="M33.529 13.643a1.3 1.3 0 0 1-1.47-1.582 1.083 1.083 0 0 1-.927-1.783 1.016 1.016 0 0 1-.544-1.878 1.287 1.287 0 0 1-.048-1.596 1.276 1.276 0 0 1 1.78-.082 1.286 1.286 0 0 1 2.46.546c1.672-.545 2.358 1.462 1.526 1.975 1.867.43 1.42 1.936.75 2.378 1.65.635.409 1.8.105 2.47a2.422 2.422 0 0 0-.2 1.164c-.02.972-.883 1.062-1.349.308-.656-1.061-2.2-.618-2.084-1.92"/><path class="f" d="M32.477 8.293a27.631 27.631 0 0 1 5.054 9.986c.188.7.335 1.295.449 1.809a.2.2 0 0 1-.389.1c-.419-1.34-.657-2.329-1.348-4.138a46.5 46.5 0 0 0-3.766-7.757"/><path d="M31.982 24.214a5.272 5.272 0 0 0 1.952 4.411c1.037.989 2.752 1.463 3.373 2.461a1.834 1.834 0 0 1-.91 2.519 2.509 2.509 0 0 0 1.586-.691 5.453 5.453 0 0 0 1.146-1.483 4.34 4.34 0 0 1 1.713-1.576c1.495-.969 1.9-.947 2.924-2.066 1.559-1.697 2.705-8.175-5.588-8.175-4.244 0-6.056 2.275-6.196 4.6" fill="#dc223c"/><path d="M37.262 23.566a1.379 1.379 0 0 1-1.389 1.37 1.379 1.379 0 0 1-1.388-1.37 1.379 1.379 0 0 1 1.389-1.37 1.379 1.379 0 0 1 1.388 1.37" fill="#e15b56"/><path d="M38.565 19.623c5.37 1.35 4.241 6.706 2.844 8.342a5.622 5.622 0 0 1-5.144 2.179 3.223 3.223 0 0 1 1.042.941 1.834 1.834 0 0 1-.91 2.519 2.509 2.509 0 0 0 1.586-.681 5.453 5.453 0 0 0 1.147-1.483 4.339 4.339 0 0 1 1.712-1.576c1.495-.969 1.9-.947 2.924-2.066 1.534-1.675 2.663-7.975-5.201-8.175" fill="#c91d36"/><path class="d" d="M32.806 22.586a2.42 2.42 0 0 0-.826.511 1.563 1.563 0 0 0-.427 1.311 1.578 1.578 0 0 0 .8 1.13 2.29 2.29 0 0 0 1 .24c1.73.073 3.386-.96 5.107-.774a13.1 13.1 0 0 1 2.5.757 4.25 4.25 0 0 0 2.9.04 2.126 2.126 0 0 0 1.349-2.332 2.129 2.129 0 0 0-1.132-1.293 4.625 4.625 0 0 0-1.718-.422 10.921 10.921 0 0 0-2.565.086 15.234 15.234 0 0 1-2.078.475c-1.7 0-3.254-.4-4.91.276"/><path class="m" d="M35.929 23.941a.78.78 0 0 1-.786.775.78.78 0 0 1-.785-.775.78.78 0 0 1 .786-.775.78.78 0 0 1 .786.775m4.713.319a.891.891 0 0 1 .9-.884.89.89 0 0 1 .9.884"/><path class="n" d="M39.471 27.607a2.1 2.1 0 0 1-1.206 1.478 1.848 1.848 0 0 1-.24.082 1.945 1.945 0 0 1-1.656-.3 1.757 1.757 0 0 1-.597-.839 1.836 1.836 0 0 1-.053-.194c-.03-.144-.1-.483-.009-.615.117-.171.371-.054.555-.024a30.333 30.333 0 0 0 3.206.412"/><path class="o" d="M38.026 29.167a1.944 1.944 0 0 1-1.654-.3 1.757 1.757 0 0 1-.6-.841 2.264 2.264 0 0 1 1.265-.019 1.341 1.341 0 0 1 .912.712 1.15 1.15 0 0 1 .077.448"/><path d="M39.395 25.746h-2.609a1.674 1.674 0 0 1 1.3-1.17c.983-.091 1.3 1.165 1.3 1.165" fill="#e29f70"/><path class="a" d="M31.096 32.844h3.962v1.914h-3.962z"/><g clip-path="url(#c)" transform="translate(30.968 32.69)"><path class="b" d="M2.028 1.34l-1.9.728h3.241A9.849 9.849 0 0 1 4.09.786C3.419.633 2.294.297 1.61.154a7.02 7.02 0 0 1 .418 1.186"/></g><path class="a" d="M41.97 32.844h3.962v1.914H41.97z"/><g clip-path="url(#d)" transform="translate(41.935 32.69)"><path class="b" d="M2.101 1.34l1.9.728H.756A9.84 9.84 0 0 0 .035.786c.672-.153 1.8-.489 2.48-.632A6.99 6.99 0 0 0 2.1 1.34"/></g><path class="s" d="M10.035 27.43c-1.21 1.654-2.555 3.225-3.9 4.794L5 33.553a1.961 1.961 0 0 0 1.966.655 9.7 9.7 0 0 1 .953-.285c.849-.118 1.6.523 2.458.6.988.091 1.881-.578 2.874-.624 1.3-.06 2.461.951 3.754.818.63-.065 1.2-.4 1.833-.44 1.235-.079 2.448.963 3.591.537a.885.885 0 0 0 .515-.426 1.071 1.071 0 0 0 .022-.615 21.725 21.725 0 0 0-1.791-5.707 4.442 4.442 0 0 0-2.375-2.559 6.791 6.791 0 0 0-1.826-.229c-1.598-.08-3.174-.361-4.782-.361-.963 0-.822.132-1.139.858a8.9 8.9 0 0 1-1.018 1.655"/><path d="M8 26.661a10.3 10.3 0 0 1 3.266 5.549 14.242 14.242 0 0 1 0 4.994 5.2 5.2 0 0 0 2.886.713 5.667 5.667 0 0 0 3.038-.793 19.655 19.655 0 0 1-.38-4.677c0-3.33 3.19-5.786 3.19-5.786l-1.405-1.229a22.172 22.172 0 0 0-3.152 3.9v-4.415h-2.81v4.637a11.064 11.064 0 0 0-2.962-3.96z" fill="#44ad4d"/><path class="i" d="M16 28.917v-4h-2l.518 2.4a3.357 3.357 0 0 0 .429 1.078c.263.422 1.053.522 1.053.522m5-1.819l-1.5-1.181s-.271.239-.665.618l.717.563s-3.419 2.362-3.419 5.562c0 1.12.05 2.007.115 2.686a2.361 2.361 0 0 1-2.173 2.532l-.075.007c.23.02.477.032.74.032a6.567 6.567 0 0 0 3.252-.762 17.051 17.051 0 0 1-.407-4.5C17.586 29.46 21 27.098 21 27.098M9.849 25.917l-.286.173-.563.342a14.183 14.183 0 0 1 2.554 2.414A2.667 2.667 0 0 0 13 29.917a11.293 11.293 0 0 0-3.151-4"/><path class="a" d="M0 12.037h27.816V28.87H0z"/><g clip-path="url(#e)" transform="translate(0 11.917)"><path class="f" d="M6.871 16.92c-2.774.3-4.537-1.713-4.2-3.925A3.7 3.7 0 0 1 .1 8.678c.512-2.147 2.965-2.964 4.773-2.58A4.264 4.264 0 0 1 7.252 1.82a4.565 4.565 0 0 1 4.962.777A5.543 5.543 0 0 1 17.862.22a5.356 5.356 0 0 1 4.183 4.369 3.6 3.6 0 0 1 4.823.7 3.326 3.326 0 0 1-.927 4.631 3.549 3.549 0 0 1 1.819 3.7 3.662 3.662 0 0 1-3.08 2.821 3.286 3.286 0 0 1-3.554-1.644 3.042 3.042 0 0 1-3.028.009 2.555 2.555 0 0 1-1.413-2.413 3.891 3.891 0 0 1-3.17 1.846c-1.264.145-1.966-.366-3.1-1.491-.212 2.59-1.177 3.918-3.549 4.171"/></g><path d="M10 16.417a1.5 1.5 0 1 1-1.5-1.5 1.5 1.5 0 0 1 1.5 1.5m-5 5a1.5 1.5 0 1 1-1.5-1.5 1.5 1.5 0 0 1 1.5 1.5m3 4a1.5 1.5 0 1 1-1.5-1.5 1.5 1.5 0 0 1 1.5 1.5" fill="#049345"/><path class="a" d="M9.007 12.04H27.82v16.723H9.007z"/><g clip-path="url(#f)" transform="translate(9 11.917)"><path class="g" d="M16.992 10.138a3.5 3.5 0 0 0 .9-4.728 3.4 3.4 0 0 0-4.7-.718A5.369 5.369 0 0 0 9.115.223a5.3 5.3 0 0 0-5.508 2.43 4.311 4.311 0 0 0-3.6-1.173 3.759 3.759 0 0 1 3.027 3.787 3.326 3.326 0 0 1 2.789-.623 2.531 2.531 0 0 1 1.784 2.269 2.349 2.349 0 0 1 2.807.923 3.358 3.358 0 0 1-.121 3.086 2.5 2.5 0 0 1 .308 3.257 2.335 2.335 0 0 1-1.448.837c.064.042.127.086.195.121a2.848 2.848 0 0 0 2.95-.014 3.157 3.157 0 0 0 3.465 1.68 3.641 3.641 0 0 0 3-2.883 3.683 3.683 0 0 0-1.773-3.786"/></g><path class="x" d="M17 28.417l5.13-3.5.87.94-5.4 5.06z"/><path class="s" d="M22.11 27.917c.068.008-2.11-2.428-2.11-2.428l2.658-.754s-.569-1.081-.308-1.273.894.8.894.8.635-1.345 1.072-1.345-.2 1.4-.2 1.4 1.234-.7 1.518-.389-1.16 1.013-1.16 1.013 1.497-.187 1.526.176-2.515.479-2.515.479z"/><path class="x" d="M12 28.417l-5.13-3.5-.87.94 5.4 5.06z"/><path class="s" d="M6.89 27.917C6.822 27.925 9 25.489 9 25.489l-2.658-.754s.569-1.081.308-1.273-.894.8-.894.8-.635-1.345-1.072-1.345.2 1.4.2 1.4-1.234-.7-1.518-.389 1.16 1.013 1.16 1.013-1.497-.187-1.526.176 2.515.48 2.515.48z"/><path class="x" d="M9 41.417c.6.157 1.355.385 1.845.5a6.189 6.189 0 0 1 1.926-2.037A2.672 2.672 0 0 1 14 39.492a2.774 2.774 0 0 1 1.405.5 6.479 6.479 0 0 1 1.745 1.925A96.573 96.573 0 0 1 19 41.49a24.645 24.645 0 0 0-.291-2.266 45.03 45.03 0 0 0-.294-1.566 37.486 37.486 0 0 0-.12-.582c-.035-.162-.07-.324-.1-.483a92.864 92.864 0 0 0-1.181-4.676h-6.033s-.576 2.011-1.111 4.395a38.77 38.77 0 0 0-.124.559l-.126.59c-.094.449-.182.9-.263 1.349A27.797 27.797 0 0 0 9 41.417"/><path class="m" d="M10 19.917a1 1 0 1 1-1-1 1 1 0 0 1 1 1m10 0a1 1 0 1 1-1-1 1 1 0 0 1 1 1"/><path class="n" d="M13 24.371a2.286 2.286 0 0 0 1.583 1.4 3.068 3.068 0 0 0 .315.078 3.372 3.372 0 0 0 2.175-.282 1.8 1.8 0 0 0 .786-.8 1.353 1.353 0 0 0 .07-.18c.04-.136.131-.458.013-.584-.155-.162-.488-.051-.729-.022-.356.044-4.186.486-4.213.39"/><path class="o" d="M14 25.865a4.217 4.217 0 0 0 2.2-.23 1.673 1.673 0 0 0 .8-.642 5.175 5.175 0 0 0-1.683-.014 1.939 1.939 0 0 0-1.217.544.557.557 0 0 0-.1.342"/><path class="s" d="M18.564 42.156l1.436.761h-2.454a11.943 11.943 0 0 0-.546-1.34c.509-.16 1.36-.511 1.878-.66a9.341 9.341 0 0 0-.314 1.239m-9.128 0L8 42.917h2.454a11.928 11.928 0 0 1 .546-1.34c-.509-.16-1.36-.511-1.878-.66a9.315 9.315 0 0 1 .314 1.239"/></svg>