<svg xmlns="http://www.w3.org/2000/svg" width="40" height="30.236"><defs><style>.a{fill:#fcf2d0}.b{fill:#f6e3a3}.i{fill:#d2996f}</style></defs><path class="a" d="M37.596 4.368l-.722-.409a1.082 1.082 0 0 0-1.117.029l-1.646 1.05a.558.558 0 0 1-.851-.392l-.374-2.458a1.1 1.1 0 0 0-.546-.8l-.354-.2a4.611 4.611 0 0 0-4.551 0l-5.159 2.921a4.611 4.611 0 0 1-4.551 0l-5.156-2.921a4.611 4.611 0 0 0-4.552 0l-5.612 3.18A3.6 3.6 0 0 0 .586 7.506v18.866a2.3 2.3 0 0 0 3.422 2.027l4.155-2.353a4.443 4.443 0 0 1 4.4.082 1.2 1.2 0 0 0 1.518-.284l.932-1.135a.7.7 0 0 1 1.233.341l.458 2.894a1.219 1.219 0 0 0 .6.871l.415.235a4.611 4.611 0 0 0 4.551 0l5.156-2.921a4.611 4.611 0 0 1 4.551 0l4.009 2.271a2.3 2.3 0 0 0 3.422-2.027V7.506a3.6 3.6 0 0 0-1.812-3.138z"/><path class="b" d="M39.414 26.469V14.686c-.962.306-2.636.5-3.528 1.252-1.3 1.106-1.2 3.843.652 5.265 1.692 1.3.546 4.034 2.872 5.266zM8.017 1.188l-5.613 3.18A3.6 3.6 0 0 0 .586 7.505v18.867a2.3 2.3 0 0 0 3.422 2.026l4.009-2.271a4.613 4.613 0 0 1 2.276-.6V.588a4.613 4.613 0 0 0-2.276.6zm19.414 0l-5.155 2.921A4.614 4.614 0 0 1 20 4.71v24.938a4.614 4.614 0 0 0 2.276-.6l5.156-2.921a4.613 4.613 0 0 1 2.276-.6V.588a4.613 4.613 0 0 0-2.277.6z"/><path d="M30.518 22.219a.83.83 0 0 0 .755-1.164c-.928-2.122-2.806-5.641-4.366-5.641s-3.434 3.519-4.363 5.641a.83.83 0 0 0 .753 1.164z" fill="#89d47f"/><path d="M29.707 18.027c-.873-1.413-1.891-2.613-2.8-2.613-1.559 0-3.434 3.519-4.363 5.641a.83.83 0 0 0 .753 1.164h6.41zm-18.698-6.413a1.493 1.493 0 0 0 .094-2.981 1.445 1.445 0 0 0-.344.019.428.428 0 0 1-.483-.287 2 2 0 0 0-3.787-.009.423.423 0 0 1-.452.284 1.451 1.451 0 0 0-.426.014 1.493 1.493 0 0 0 .259 2.961z" fill="#5ec783"/><path d="M14.795 13.665a.753.753 0 0 0 .684-1.057c-.84-1.925-2.544-5.119-3.96-5.119s-3.124 3.194-3.96 5.119a.753.753 0 0 0 .684 1.057z" fill="#8ee2cf"/><path d="M10.295 13.665V8.137a15.817 15.817 0 0 0-2.736 4.471.753.753 0 0 0 .684 1.057z" fill="#6fce91"/><path d="M28.543 11.663l-.266-.659a1.069 1.069 0 0 1 .82-1.458l.6-.094a1.056 1.056 0 0 0 .713-.454l.534-.788a1.363 1.363 0 0 1 2.107-.196l.826.84a1.054 1.054 0 0 0 .6.3l1.162.173a1.07 1.07 0 0 1 .748 1.61l-.515.87a1.054 1.054 0 0 1-.907.519h-5.444a1.057 1.057 0 0 1-.978-.663z" fill="#9ca9ba"/><path d="M29.707 9.451h-.01l-.6.1a1.069 1.069 0 0 0-.82 1.458l.266.655a1.057 1.057 0 0 0 .978.663h.186z" fill="#8b97a5"/><path class="i" d="M6.367 23.162a2.118 2.118 0 0 1 0-4.235 2.118 2.118 0 0 1 0 4.235zm0-3.051a.933.933 0 1 0 .923.933.929.929 0 0 0-.923-.933z"/><path class="i" d="M6.362 20.112a.589.589 0 0 1-.586-.593V17.95a.589.589 0 0 1 .586-.592.589.589 0 0 1 .586.592v1.569a.589.589 0 0 1-.586.593zm-1.509 1.525H3.301a.589.589 0 0 1-.586-.593.589.589 0 0 1 .586-.592h1.552a.589.589 0 0 1 .586.592.589.589 0 0 1-.586.593zm1.509 3.095a.589.589 0 0 1-.586-.593V22.57a.589.589 0 0 1 .586-.592.589.589 0 0 1 .586.592v1.569a.589.589 0 0 1-.586.593zm3.061-3.095H7.871a.589.589 0 0 1-.586-.593.589.589 0 0 1 .586-.592h1.552a.589.589 0 0 1 .586.592.589.589 0 0 1-.586.593z"/><path class="b" d="M15.782 20.406a.581.581 0 0 1-.414-.174.6.6 0 0 1 0-.838l1.222-1.235a.582.582 0 0 1 .829 0 .6.6 0 0 1 0 .838l-1.223 1.236a.581.581 0 0 1-.414.173z"/><path class="a" d="M24.853 8.539a.581.581 0 0 1-.414-.173.6.6 0 0 1 0-.838l.992-1a.581.581 0 0 1 .829 0 .6.6 0 0 1 0 .838l-.993 1a.581.581 0 0 1-.414.173zM3.894 16.082a.581.581 0 0 1-.414-.173.6.6 0 0 1 0-.838l.838-.847a.582.582 0 0 1 .829 0 .6.6 0 0 1 0 .838l-.839.847a.58.58 0 0 1-.414.173z"/><path d="M13.037 5.893a.581.581 0 0 1-.414-.173.6.6 0 0 1 0-.838l.461-.467a.582.582 0 0 1 .829 0 .6.6 0 0 1 0 .838l-.462.467a.581.581 0 0 1-.414.173z" fill="#e1b89a"/><path class="i" d="M34.779 24.996a.581.581 0 0 1-.414-.173.6.6 0 0 1 0-.838l.556-.563a.582.582 0 0 1 .829 0 .6.6 0 0 1 0 .838l-.557.563a.581.581 0 0 1-.414.173z"/><path d="M20 30.236a5.2 5.2 0 0 1-2.562-.671l-.415-.235a1.805 1.805 0 0 1-.893-1.294l-.458-2.893a.108.108 0 0 0-.084-.094.13.13 0 0 0-.036-.005.1.1 0 0 0-.084.044l-.932 1.135a1.778 1.778 0 0 1-2.256.422 4.134 4.134 0 0 0-2.03-.552 3.635 3.635 0 0 0-1.8.47l-2.882 1.63a.583.583 0 0 1-.8-.227.6.6 0 0 1 .225-.806l2.881-1.633a4.83 4.83 0 0 1 2.374-.622 5.3 5.3 0 0 1 2.6.7.615.615 0 0 0 .78-.147l.932-1.135a1.273 1.273 0 0 1 .985-.472 1.333 1.333 0 0 1 .346.048 1.284 1.284 0 0 1 .932 1.05l.458 2.893a.623.623 0 0 0 .309.448l.415.235a4.056 4.056 0 0 0 3.978 0l5.156-2.921a5.225 5.225 0 0 1 5.125 0l4.009 2.271a1.7 1.7 0 0 0 .838.224 1.683 1.683 0 0 0 .865-.24 1.71 1.71 0 0 0 .8-1.087A4.4 4.4 0 0 1 37.1 23.7a3.148 3.148 0 0 0-.921-2.029 4.566 4.566 0 0 1-1.754-3.48 3.393 3.393 0 0 1 1.08-2.71 6.908 6.908 0 0 1 2.821-1.13h.027l.1-.023c.13-.031.253-.06.37-.09v-4.69a.586.586 0 1 1 1.172 0v16.945a2.871 2.871 0 0 1-4.29 2.422L31.7 26.644a4.058 4.058 0 0 0-3.979 0l-5.155 2.92a5.2 5.2 0 0 1-2.566.672zm18.828-14.782l-.2.049a6.2 6.2 0 0 0-2.363.889 2.253 2.253 0 0 0-.661 1.775 3.362 3.362 0 0 0 1.292 2.566 4.188 4.188 0 0 1 1.357 2.727v.02a4.9 4.9 0 0 0 .573 1.7zM2.675 29.281h-.056A2.9 2.9 0 0 1 0 26.372V7.505a4.2 4.2 0 0 1 2.118-3.654L7.731.671a5.223 5.223 0 0 1 5.124 0l5.156 2.92a4.05 4.05 0 0 0 3.978 0l5.156-2.92a5.223 5.223 0 0 1 5.124 0l.355.2a1.685 1.685 0 0 1 .839 1.221l.369 2.42 1.612-1.028a1.667 1.667 0 0 1 .9-.261 1.625 1.625 0 0 1 .821.217l.722.409a4.193 4.193 0 0 1 2.006 2.687.593.593 0 0 1-.435.713.575.575 0 0 1-.136.016.585.585 0 0 1-.57-.455 3 3 0 0 0-1.438-1.928l-.723-.409a.5.5 0 0 0-.248-.066.464.464 0 0 0-.27.079l-1.65 1.053a1.1 1.1 0 0 1-.609.178 1.135 1.135 0 0 1-.476-.1 1.149 1.149 0 0 1-.657-.877L32.3 2.275a.505.505 0 0 0-.253-.369L31.7 1.7a4.056 4.056 0 0 0-3.978 0l-5.156 2.92a5.225 5.225 0 0 1-5.125 0L12.282 1.7a4.058 4.058 0 0 0-3.982 0L2.691 4.884a3.014 3.014 0 0 0-1.519 2.621v18.867A1.723 1.723 0 0 0 2.73 28.1a.593.593 0 0 1-.055 1.183zm3.687-4.549a.59.59 0 0 1-.586-.592v-1.062a2.125 2.125 0 0 1-1.425-1.441H3.3a.592.592 0 0 1 0-1.184h1.05a2.128 2.128 0 0 1 1.425-1.441v-1.061a.586.586 0 1 1 1.172 0v1.061a2.129 2.129 0 0 1 1.426 1.441h1.05a.592.592 0 0 1 0 1.184H8.374a2.129 2.129 0 0 1-1.426 1.441v1.061a.59.59 0 0 1-.586.592zm0-4.62a.933.933 0 1 0 .923.933.929.929 0 0 0-.923-.934zm24.155 2.7H23.3a1.4 1.4 0 0 1-1.181-.647 1.433 1.433 0 0 1-.109-1.349A24.2 24.2 0 0 1 24 17.1c1.046-1.535 2-2.281 2.9-2.281s1.856.746 2.9 2.281a23.978 23.978 0 0 1 2 3.713 1.428 1.428 0 0 1-.109 1.349 1.4 1.4 0 0 1-1.174.649zm-3.61-6.806c-.881 0-2.491 2.224-3.828 5.288a.229.229 0 0 0 .018.224.233.233 0 0 0 .2.109h7.221a.238.238 0 0 0 .218-.333c-1.336-3.065-2.948-5.288-3.829-5.288zM14.8 14.257H8.243a1.325 1.325 0 0 1-1.117-.611 1.353 1.353 0 0 1-.1-1.277l.072-.163H5.871a2.058 2.058 0 0 1-1.52-.676 2.107 2.107 0 0 1-.535-1.591 2.076 2.076 0 0 1 1.692-1.87 1.832 1.832 0 0 1 .36-.033h.113a2.576 2.576 0 0 1 4.369-.716 2.038 2.038 0 0 1 1.17-.42c.842 0 1.718.685 2.678 2.094a21.983 21.983 0 0 1 1.818 3.379 1.358 1.358 0 0 1-.1 1.277 1.328 1.328 0 0 1-1.116.607zM11.52 8.08a1.371 1.371 0 0 0-.836.49.573.573 0 0 1-.106.108 13.456 13.456 0 0 0-2.016 3.161.7.7 0 0 1-.031.066c-.143.292-.289.609-.435.942a.155.155 0 0 0 .012.153.158.158 0 0 0 .135.074H14.8a.159.159 0 0 0 .132-.074.156.156 0 0 0 .012-.152C13.739 10.085 12.3 8.08 11.52 8.08zM5.87 9.221a.9.9 0 0 0-.655 1.507.875.875 0 0 0 .656.292h1.788a18.374 18.374 0 0 1 1.183-2.03 10.684 10.684 0 0 1 .65-.857 1.407 1.407 0 0 0-1.11-.542 1.421 1.421 0 0 0-1.339.959 1.014 1.014 0 0 1-.954.683 1.114 1.114 0 0 1-.119-.007.934.934 0 0 0-.1-.005zm29.1 3.7h-5.449A1.637 1.637 0 0 1 28 11.888l-.266-.655a1.668 1.668 0 0 1 .09-1.447A1.631 1.631 0 0 1 29 8.961l.608-.094a.471.471 0 0 0 .317-.2l.531-.788A1.947 1.947 0 0 1 31.9 7.02c.06-.005.121-.008.181-.008a1.933 1.933 0 0 1 1.388.584l.825.841a.476.476 0 0 0 .265.135l1.163.174a1.642 1.642 0 0 1 1.246.932 1.673 1.673 0 0 1-.076 1.564l-.516.869a1.648 1.648 0 0 1-1.411.808zM32.081 8.2a.447.447 0 0 0-.075 0 .78.78 0 0 0-.577.343l-.532.788a1.649 1.649 0 0 1-1.107.706l-.608.095a.463.463 0 0 0-.337.236.473.473 0 0 0-.026.415l.266.656a.47.47 0 0 0 .436.3h5.444a.472.472 0 0 0 .4-.231l.516-.87a.475.475 0 0 0 .022-.448.467.467 0 0 0-.357-.267l-1.162-.173a1.644 1.644 0 0 1-.926-.473l-.826-.84a.772.772 0 0 0-.551-.237z" fill="none"/></svg>