<svg xmlns="http://www.w3.org/2000/svg" width="29.901" height="35.375"><defs><style>.a{fill:#e95454}.b{fill:#ed6362}</style></defs><g transform="translate(-.041)"><path class="a" d="M7.766 15.294L.041 29.849l7.015-.648 3.4 6.174 7.721-14.555z"/><path class="b" d="M8.651 31.136a.986.986 0 0 0-.463-1.263l-.445-.237a.951.951 0 0 1 .915-1.667l1.256.667a.793.793 0 0 0 1.075-.334l.031-.06a.75.75 0 0 0-.289-1.057l-3.758-1.994a.989.989 0 0 1-.469-1.264.953.953 0 0 1 1.309-.438l3.486 1.85a.8.8 0 0 0 1.081-.332l.02-.051.006-.011a.835.835 0 0 0-.344-1.136l-1.956-1.037a.989.989 0 0 1-.466-1.27.957.957 0 0 1 1.309-.438l2.16 1.147a.806.806 0 0 0 1.095-.372 192292332474.847 192292332474.847 0 0 0 .011-.022.805.805 0 0 0-.306-1.115l-2.329-1.236a.987.987 0 0 1-.464-1.261.953.953 0 0 1 1.307-.438l5.749 3.051-7.723 14.556-2.126-3.87a.9.9 0 0 0 .328-.368z"/><path class="b" d="M22.217 15.293l7.725 14.555-7.015-.648-3.4 6.174-7.721-14.555z"/><path class="a" d="M21.333 31.135a.986.986 0 0 1 .463-1.263l.445-.237a.951.951 0 0 0-.915-1.667l-1.256.667a.793.793 0 0 1-1.075-.334l-.031-.06a.75.75 0 0 1 .289-1.057l3.759-2a.989.989 0 0 0 .469-1.264.953.953 0 0 0-1.309-.438l-3.487 1.856a.8.8 0 0 1-1.077-.332l-.023-.049-.006-.011a.835.835 0 0 1 .344-1.136l1.955-1.039a.989.989 0 0 0 .466-1.27.957.957 0 0 0-1.309-.438l-2.163 1.149a.806.806 0 0 1-1.095-.372 128907082140.521 128907082140.521 0 0 0-.011-.022.805.805 0 0 1 .306-1.115l2.336-1.236a.987.987 0 0 0 .458-1.261.953.953 0 0 0-1.309-.438l-5.749 3.052 7.725 14.555 2.129-3.87a.921.921 0 0 1-.329-.37z"/><circle cx="12.908" cy="12.908" r="12.908" transform="translate(2.084)" fill="#ffcc5b"/><path d="M16.742 11.427h-8.18a1.163 1.163 0 0 1-1.158-1.158l.009-.08v-.02a1.209 1.209 0 0 1 1.208-1.217h5.669a1.434 1.434 0 0 0 1.459-1.308 1.386 1.386 0 0 0-1.379-1.45H8.368a1.169 1.169 0 0 1-1.147-1.225v-.031a1.169 1.169 0 0 1 1.149-1.22h6.284a1.431 1.431 0 0 0 1.45-1.3A1.381 1.381 0 0 0 14.721.969h-4.6a12.906 12.906 0 0 0 0 23.875h5.843a1.431 1.431 0 0 0 1.45-1.3 1.38 1.38 0 0 0-1.379-1.449H9.388a1.375 1.375 0 0 1-1.374-1.45 1.428 1.428 0 0 1 1.451-1.3h2.578a1.377 1.377 0 0 0-.04-2.754H8.097a1.149 1.149 0 0 1-1.149-1.158v-.1a1.088 1.088 0 0 1 1.087-1.158h8.628a1.433 1.433 0 0 0 1.458-1.299 1.381 1.381 0 0 0-1.379-1.449z" fill="#fdbc4b"/><path d="M14.992 22.121a9.213 9.213 0 1 1 9.214-9.213 9.225 9.225 0 0 1-9.214 9.213z" fill="#ffdb70"/><path d="M24.205 12.908a9.218 9.218 0 0 0-8.685-9.187h-.858a1.092 1.092 0 0 0-1.106.991 1.054 1.054 0 0 0 1.052 1.109h5.07a1.048 1.048 0 0 1 1.047 1.1 1.089 1.089 0 0 1-1.11 1h-1.963a1.05 1.05 0 0 0 .03 2.1h2.98a.876.876 0 0 1 .876.883v.073a.829.829 0 0 1-.829.883h-6.58a1.094 1.094 0 0 0-1.114.988 1.054 1.054 0 0 0 1.052 1.106h6.239a.886.886 0 0 1 .883.883l-.007.061v.013a.922.922 0 0 1-.924.93h-4.324a1.094 1.094 0 0 0-1.113 1 1.058 1.058 0 0 0 1.052 1.106h4.58a.891.891 0 0 1 .876.93v.027a.891.891 0 0 1-.876.93H15.66a1.092 1.092 0 0 0-1.106.991 1.053 1.053 0 0 0 1.052 1.106h1.264a9.229 9.229 0 0 0 7.335-9.023z" fill="#fff" opacity=".2"/><path d="M21.424 10.867h-4.481l-1.386-4.262a.6.6 0 0 0-1.131 0l-1.385 4.262H8.563a.6.6 0 0 0-.353 1.076l3.625 2.635-1.385 4.262a.6.6 0 0 0 .916.665l3.625-2.634 3.625 2.634a.6.6 0 0 0 .916-.665l-1.384-4.262 3.625-2.635a.6.6 0 0 0-.349-1.076z" fill="#ec9922"/></g></svg>