<svg xmlns="http://www.w3.org/2000/svg" width="29.943" height="35.374"><path d="M7.766 15.294L.041 29.849l7.015-.648 3.4 6.174 7.721-14.555z" fill="#e95454"/><path d="M22.217 15.293l7.725 14.555-7.015-.648-3.4 6.174-7.721-14.555z" fill="#ed6362"/><path d="M25.05 20.616l4.892 9.233-3.1-.283-3.771-7.318zM4.892 20.6L0 29.833l3.1-.283 3.771-7.318z" fill="#e53e3d"/><circle cx="12.908" cy="12.908" r="12.908" transform="translate(2.084)" fill="#ffcc5b"/><path d="M14.992 22.121a9.213 9.213 0 1 1 9.214-9.213 9.225 9.225 0 0 1-9.214 9.213z" fill="#ffdb70"/><path d="M21.424 10.867h-4.481l-1.386-4.262a.6.6 0 0 0-1.131 0l-1.385 4.262H8.563a.6.6 0 0 0-.353 1.076l3.625 2.635-1.385 4.262a.6.6 0 0 0 .916.665l3.625-2.634 3.625 2.634a.6.6 0 0 0 .916-.665l-1.384-4.262 3.625-2.635a.6.6 0 0 0-.349-1.076z" fill="#ec9922"/></svg>