<svg xmlns="http://www.w3.org/2000/svg" width="30" height="37.862"><path d="M8.069 8.193v22.65A3.226 3.226 0 0 1 2.7 33.308 18.61 18.61 0 0 1 0 30.261V8.193a1.355 1.355 0 0 1 1.345-1.365h5.379a1.355 1.355 0 0 1 1.345 1.365z" fill="#b55c3c"/><path d="M30 14.228v15.918a18.6 18.6 0 0 1-2.71 3.022 7.023 7.023 0 0 1-2.8 1.235 17.493 17.493 0 0 1-21.8-17.006v-9.21a1.358 1.358 0 0 1 1.356-1.359h24.6A1.358 1.358 0 0 1 30 8.187z" fill="#cc7556"/><path d="M27.311 9.97v23.189a18.465 18.465 0 0 1-24.621 0V9.97a.453.453 0 0 1 .453-.453h23.715a.453.453 0 0 1 .453.453z" fill="#fdd78d"/><path d="M27.234 9.766v13.191c0 4.237.361 4.224 1.721 7.093a.368.368 0 0 1-.1.352c-3.465 3.444-15.426 6.62-24.165 3.491a.363.363 0 0 1-.233-.272c-1.176-5.926-1.767-7.327-1.767-13.37V9.766a.453.453 0 0 1 .451-.456h23.642a.453.453 0 0 1 .451.456z" fill="#fdf7bd"/><path d="M20.689 9.073v.739a.744.744 0 0 1-.749.739h-9.881a.744.744 0 0 1-.749-.739v-.739a3.723 3.723 0 0 1 3.743-3.694h3.893a3.723 3.723 0 0 1 3.743 3.694z" fill="#f4aa39"/><path d="M9.897 31.652h-1a1.428 1.428 0 0 1-1.061-.467 1.476 1.476 0 0 1-.383-1.118l.495-5.975h2.9l.494 5.979a1.475 1.475 0 0 1-.383 1.118 1.43 1.43 0 0 1-1.062.463zm10.831-13.964h-5.253a.377.377 0 0 1-.374-.379v-.378a.377.377 0 0 1 .374-.379h5.253a.377.377 0 0 1 .374.379v.378a.377.377 0 0 1-.374.379z" fill="#f5b65d"/><path d="M12.207 15.177v3.733a1.854 1.854 0 0 1-1.862 1.846v3.126h.376a.37.37 0 1 1 0 .739h-2.61a.37.37 0 1 1 0-.739h.372v-3.126a1.854 1.854 0 0 1-1.862-1.846v-3.733a1.111 1.111 0 0 1 1.038-1.108.074.074 0 0 1 .08.074v4.21a.557.557 0 0 0 .582.556.566.566 0 0 0 .532-.569v-3.717a.559.559 0 0 1 1.117 0v3.733a.556.556 0 0 0 .586.553.566.566 0 0 0 .531-.569v-4.194a.074.074 0 0 1 .083-.077 1.111 1.111 0 0 1 1.037 1.108z" fill="#fbc56d"/><path d="M20.746 28.552h-5.267a.381.381 0 0 1-.376-.384v-.385a.381.381 0 0 1 .376-.384h5.267a.381.381 0 0 1 .376.384v.384a.381.381 0 0 1-.376.385zm2.257-2.305h-7.524a.381.381 0 0 1-.376-.385v-.384a.381.381 0 0 1 .376-.384h7.524a.381.381 0 0 1 .376.384v.384a.381.381 0 0 1-.376.385zm-.752-2.306h-6.772a.38.38 0 0 1-.376-.384v-.384a.381.381 0 0 1 .376-.384h6.772a.381.381 0 0 1 .376.384v.384a.38.38 0 0 1-.376.384zm.752-2.3h-7.524a.381.381 0 0 1-.376-.389v-.385a.381.381 0 0 1 .376-.384h7.524a.381.381 0 0 1 .376.384v.385a.381.381 0 0 1-.376.384z" fill="#f5dc90"/><path d="M19.103 31.707c-.3 0-.551-.337-.551-.751s.251-.749.551-.749.551.336.551.75-.251.75-.551.75zm-1.724 0c-.3 0-.551-.337-.551-.751s.247-.749.551-.749.551.336.551.75-.247.75-.551.75zm-1.725 0c-.304 0-.551-.336-.551-.75s.247-.75.551-.75.549.336.549.75-.245.75-.549.75z" fill="#ffe899"/><path d="M20.689 8.689h-8.766a.754.754 0 0 1-.751-.755c0-.01.065-.977.179-1.675a1.045 1.045 0 0 1 .76-.849h.007c-.09-.281-.183-.551-.278-.8A3.4 3.4 0 0 1 14.764.008c.08-.008.162-.008.242-.008a3.345 3.345 0 0 1 2.4 1.016 3.424 3.424 0 0 1 .747 3.614c-.1.248-.189.509-.274.777a3.783 3.783 0 0 1 2.81 3.281zm-5.686-7.177h-.136a1.894 1.894 0 0 0-1.622 2.557c.152.4.289.813.408 1.22h2.689c.12-.405.259-.812.411-1.207a1.9 1.9 0 0 0-.471-2.062 1.86 1.86 0 0 0-1.279-.508z" fill="#fdbf43"/></svg>