<svg xmlns="http://www.w3.org/2000/svg" width="39.618" height="50"><path d="M10.656 10.816v29.915a4.26 4.26 0 0 1-7.088 3.255A24.576 24.576 0 0 1 0 39.961V10.816a1.79 1.79 0 0 1 1.776-1.8h7.1a1.79 1.79 0 0 1 1.78 1.8z" fill="#b55c3c"/><path d="M39.618 18.789V39.81a24.561 24.561 0 0 1-3.582 3.99 9.274 9.274 0 0 1-3.692 1.631A23.1 23.1 0 0 1 3.552 22.974V10.81a1.793 1.793 0 0 1 1.791-1.794h32.483a1.793 1.793 0 0 1 1.791 1.794z" fill="#cc7556"/><path d="M36.066 13.168V43.79a24.384 24.384 0 0 1-32.514 0V13.168a.6.6 0 0 1 .6-.6h31.316a.6.6 0 0 1 .598.6z" fill="#fdd78d"/><path d="M35.964 12.895v17.42c0 5.595.477 5.578 2.272 9.366a.486.486 0 0 1-.128.464c-4.582 4.55-20.374 8.75-31.919 4.614a.48.48 0 0 1-.307-.36c-1.55-7.824-2.33-9.675-2.33-17.655V12.895a.6.6 0 0 1 .6-.6h31.22a.6.6 0 0 1 .592.6z" fill="#fdf7bd"/><path d="M27.322 11.983v.976a.982.982 0 0 1-.989.976H13.284a.982.982 0 0 1-.989-.976v-.976a4.917 4.917 0 0 1 4.943-4.879h5.141a4.917 4.917 0 0 1 4.943 4.879z" fill="#f4aa39"/><path d="M13.071 41.804h-1.32a1.888 1.888 0 0 1-1.4-.617 1.949 1.949 0 0 1-.506-1.477l.65-7.894h3.832l.652 7.895a1.947 1.947 0 0 1-.505 1.476 1.887 1.887 0 0 1-1.403.617zm14.302-18.446h-6.937a.5.5 0 0 1-.5-.5v-.5a.5.5 0 0 1 .5-.5h6.936a.5.5 0 0 1 .5.5v.5a.5.5 0 0 1-.499.5z" fill="#f5b65d"/><path d="M16.12 20.042v4.93a2.448 2.448 0 0 1-2.459 2.438v4.128h.492a.488.488 0 1 1 0 .975H10.71a.488.488 0 1 1 0-.975h.492V27.41a2.448 2.448 0 0 1-2.459-2.438v-4.93a1.468 1.468 0 0 1 1.37-1.463.1.1 0 0 1 .105.1v5.56a.735.735 0 0 0 .773.731.748.748 0 0 0 .7-.751V19.31a.738.738 0 0 1 1.476 0v4.93a.735.735 0 0 0 .773.731.748.748 0 0 0 .7-.751v-5.541a.1.1 0 0 1 .11-.1 1.468 1.468 0 0 1 1.37 1.463z" fill="#fbc56d"/><path d="M27.397 37.705h-6.952a.5.5 0 0 1-.5-.508v-.507a.5.5 0 0 1 .5-.508h6.952a.5.5 0 0 1 .5.508v.508a.5.5 0 0 1-.5.507zm2.98-3.045h-9.932a.5.5 0 0 1-.5-.511v-.5a.5.5 0 0 1 .5-.508h9.935a.5.5 0 0 1 .5.508v.5a.5.5 0 0 1-.503.511zm-.993-3.044h-8.939a.5.5 0 0 1-.5-.508v-.507a.5.5 0 0 1 .5-.508h8.939a.5.5 0 0 1 .5.508v.507a.5.5 0 0 1-.5.508zm.993-3.045h-9.932a.5.5 0 0 1-.5-.507v-.507a.5.5 0 0 1 .5-.508h9.935a.5.5 0 0 1 .5.508v.508a.5.5 0 0 1-.503.506z" fill="#f5dc90"/><path d="M25.228 41.872c-.4 0-.727-.445-.727-.991s.326-.99.727-.99.728.444.728.99-.327.991-.728.991zm-2.278 0c-.4 0-.727-.445-.727-.991s.322-.99.727-.99.728.444.728.99-.326.991-.728.991zm-2.278 0c-.401 0-.727-.445-.727-.991s.326-.99.727-.99.728.444.728.99-.326.991-.728.991z" fill="#ffe899"/><path d="M27.322 11.475H15.746a1 1 0 0 1-.992-1c0-.01.084-1.275.236-2.209a1.381 1.381 0 0 1 1.005-1.121h.009a20.394 20.394 0 0 0-.367-1.065 4.5 4.5 0 0 1 3.86-6.069C19.603 0 19.71 0 19.815 0a4.419 4.419 0 0 1 3.178 1.342 4.516 4.516 0 0 1 .98 4.771c-.126.327-.245.662-.363 1.026a5 5 0 0 1 3.712 4.335zM19.812 2h-.179a2.5 2.5 0 0 0-2.141 3.37c.2.532.381 1.074.538 1.612h3.551c.159-.536.342-1.073.544-1.594a2.5 2.5 0 0 0 .167-.9A2.487 2.487 0 0 0 19.812 2z" fill="#fdbf43"/></svg>