<svg xmlns="http://www.w3.org/2000/svg" width="20" height="20"><defs><style>.a{fill:#f29123}</style></defs><g transform="translate(-178 -90)"><path class="a" d="M188 110a10 10 0 1 1 10-10 10.011 10.011 0 0 1-10 10zm0-18.333a8.334 8.334 0 1 0 8.334 8.333A8.343 8.343 0 0 0 188 91.667z"/><path class="a" d="M186.334 97.916a1.25 1.25 0 1 1-1.25-1.25 1.25 1.25 0 0 1 1.25 1.25m5.832 0a1.25 1.25 0 1 1-1.25-1.25 1.25 1.25 0 0 1 1.25 1.25"/><rect class="a" width="8" height="2" rx="1" transform="translate(184 102)"/></g></svg>