<svg xmlns="http://www.w3.org/2000/svg" width="18.355" height="19.989"><defs><style>.a{fill:#ffe345}</style></defs><g transform="translate(-.036)"><circle class="a" cx="2.245" cy="2.245" r="2.245" transform="translate(6.968 15.498)"/><path class="a" d="M9.213 15.498a2.245 2.245 0 0 0-2.235 2.036l2.444 2.445a2.245 2.245 0 0 0-.209-4.481z"/><path class="a" d="M16.571 13.828H1.856a1.82 1.82 0 0 0 0 3.64h14.715a1.82 1.82 0 1 0 0-3.64z"/><path class="a" d="M16.871 13.885H1.487a1.433 1.433 0 0 0 1.423-1.43V8.807a6.293 6.293 0 0 1 4.762-6.113 1.788 1.788 0 1 1 3.083 0 6.294 6.294 0 0 1 4.763 6.114v3.648a1.429 1.429 0 0 0 1.353 1.428zM9.214 1.073a.715.715 0 1 0 .715.715.716.716 0 0 0-.715-.715zM.059 16.01a1.683 1.683 0 0 0 1.8 1.451h14.713a1.683 1.683 0 0 0 1.797-1.451z"/></g></svg>