<svg xmlns="http://www.w3.org/2000/svg" width="29.942" height="29.944"><defs><style>.b{fill:#f88f00}.c{fill:#ffa700}.g{fill:none}.h{fill:#a0a0a0}</style></defs><path d="M4.492.502a3.992 3.992 0 0 0 0 7.984h16.967a3.992 3.992 0 0 1 0-7.984z" fill="#ffeb49"/><path class="b" d="M15.289 21.461a10.049 10.049 0 0 0-.318 2.5 5.482 5.482 0 0 0 .209 1.5h1.391a.982.982 0 0 0 .971-.777 3.992 3.992 0 0 1 3.916-3.223z"/><path class="b" d="M20.96 29.446a5.813 5.813 0 0 1-.834-.055 5.675 5.675 0 0 1-4.945-3.938h1.392a.993.993 0 0 0 .973-.792 3.983 3.983 0 0 1 3.135-3.12 3.8 3.8 0 0 1 .758-.08 4.016 4.016 0 0 1 3.079 1.592c2.54 3.139-.584 6.393-3.558 6.393z"/><path class="c" d="M20.126 29.391a5.675 5.675 0 0 1-4.945-3.938h1.392a.993.993 0 0 0 .973-.788 3.983 3.983 0 0 1 3.135-3.124 4.231 4.231 0 0 1 2.34 1.512c2.35 2.9-.15 5.908-2.895 6.337z"/><path class="c" d="M25.451 4.494a8.725 8.725 0 0 1-1.712 4.9 14.554 14.554 0 0 0-2.076.9c-6.577 3.488-8.124 10.829-8.184 11.153a6.13 6.13 0 0 1 .5-.654 18.644 18.644 0 0 1 2.565-2.37 10.9 10.9 0 0 0-1.577 5.529c0 3.493 2.994 5.489 5.988 5.489H6.488C3.494 29.445.5 26.451.5 22.958c0-7.485 4.007-10.629 5.29-14.472h15.669A3.992 3.992 0 0 1 20.71.572a4.076 4.076 0 0 1 .749-.07 3.992 3.992 0 0 1 3.992 3.992z"/><path d="M23.954 4.494a8.493 8.493 0 0 1-1.522 4.616c-.065.095-.125.19-.19.284-.21.319-.4.624-.579.9-2.64 4.177-2.2 4.177-2.2 4.177s-6.782 5.814-4.411 3.952a12.353 12.353 0 0 0-1.068 2.37 10 10 0 0 0-.509 3.159c0 3.493 2.994 5.489 5.988 5.489H6.488C3.494 29.446.5 26.451.5 22.958c0-7.486 4.007-10.629 5.29-14.472h15.669A3.992 3.992 0 0 1 20.71.572a3.992 3.992 0 0 1 3.244 3.922z" fill="#ffc900"/><path d="M29.443 8.486c-12.571 4.351-15.774 12.451-15.959 12.95.12-.614 2.825-12.95 15.959-12.95z" fill="#354aa3"/><path d="M29.443 8.486s-2.5 3.493-8.483 6.986c-5.764 3.364-7.366 5.799-7.481 5.979a.019.019 0 0 1 .005-.015c.185-.5 3.388-8.6 15.959-12.95z" fill="#5068c1"/><path class="g" d="M21.458 8.986H4.491a4.491 4.491 0 0 1 0-8.983h16.967a.5.5 0 1 1 0 1 3.493 3.493 0 0 0 0 6.987.5.5 0 1 1 0 1zM4.491 1.003a3.493 3.493 0 0 0 0 6.987h14.147a4.487 4.487 0 0 1 0-6.987z"/><path class="h" d="M7.989 2.999h-1.5a.5.5 0 0 1 0-1h1.5a.5.5 0 0 1 0 1zm-5.43 1.5a.493.493 0 0 1-.125-.016.5.5 0 0 1-.358-.608 2.5 2.5 0 0 1 2.415-1.876.5.5 0 0 1 0 1A1.5 1.5 0 0 0 3.044 4.12a.5.5 0 0 1-.485.379z"/><path class="g" d="M16.58 25.953h-1.401a.5.5 0 0 1-.481-.365 6.061 6.061 0 0 1-.226-1.632 10.493 10.493 0 0 1 .334-2.618.5.5 0 0 1 .483-.376h6.169a.5.5 0 1 1 0 1 3.51 3.51 0 0 0-3.427 2.811 1.487 1.487 0 0 1-1.451 1.18zm-.896-3.991a9.441 9.441 0 0 0-.214 2 4.9 4.9 0 0 0 .1 1h1.012a.48.48 0 0 0 .47-.375 4.485 4.485 0 0 1 1.586-2.625z"/><path class="h" d="M11.478 22.454a.5.5 0 0 1-.281-.079l-.97-.649a.45.45 0 0 0-.5 0l-.444.3a1.448 1.448 0 0 1-1.608 0l-.443-.3a.45.45 0 0 0-.5 0l-.444.3a1.448 1.448 0 0 1-1.608 0l-.445-.294a.449.449 0 0 0-.5 0l-.971.649a.5.5 0 0 1-.545-.835l.971-.648a1.448 1.448 0 0 1 1.607 0l.443.3a.449.449 0 0 0 .5 0l.444-.3a1.448 1.448 0 0 1 1.608 0l.443.3a.449.449 0 0 0 .5 0l.444-.3a1.448 1.448 0 0 1 1.608 0l.97.649a.5.5 0 0 1-.276.912zm.998-3.987a.5.5 0 0 1-.28-.084l-.97-.649a.449.449 0 0 0-.5 0l-.444.3a1.447 1.447 0 0 1-1.608 0l-.443-.3a.449.449 0 0 0-.5 0l-.444.3a1.447 1.447 0 0 1-1.608 0l-.443-.3a.449.449 0 0 0-.5 0l-.971.649a.5.5 0 1 1-.547-.831l.971-.648a1.447 1.447 0 0 1 1.607 0l.443.3a.449.449 0 0 0 .5 0l.444-.3a1.448 1.448 0 0 1 1.608 0l.443.3a.449.449 0 0 0 .5 0l.444-.3a1.448 1.448 0 0 1 1.608 0l.97.649a.5.5 0 0 1-.278.914zm1.498-3.493a.5.5 0 0 1-.28-.084l-.97-.649a.45.45 0 0 0-.5 0l-.444.3a1.447 1.447 0 0 1-1.607 0l-.443-.3a.45.45 0 0 0-.5 0l-.444.3a1.447 1.447 0 0 1-1.607 0l-.443-.3a.45.45 0 0 0-.5 0l-.971.649a.5.5 0 1 1-.549-.831l.971-.648a1.447 1.447 0 0 1 1.607 0l.443.3a.45.45 0 0 0 .5 0l.444-.3a1.447 1.447 0 0 1 1.607 0l.443.3a.45.45 0 0 0 .5 0l.444-.3a1.447 1.447 0 0 1 1.607 0l.97.649a.5.5 0 0 1-.278.914z"/><path class="g" d="M13.475 21.96a.5.5 0 0 1-.49-.591 19.238 19.238 0 0 1 3.09-6.742 15.816 15.816 0 0 1 5.008-4.568 16.67 16.67 0 0 1 8.359-2.072.5.5 0 0 1 .407.789c-.267.37-2.774 3.711-8.638 7.127-5.701 3.325-7.248 5.716-7.311 5.816a.5.5 0 0 1-.425.241zM28.356 9.015c-8.825.483-12.418 6.75-13.774 10.442a33.042 33.042 0 0 1 6.128-4.416 31.794 31.794 0 0 0 7.646-6.026z"/><path class="g" d="M13.475 21.96a.5.5 0 0 1-.471-.665c.125-.355 3.224-8.762 16.271-13.28a.5.5 0 0 1 .326.943c-12.562 4.35-15.626 12.587-15.657 12.67a.5.5 0 0 1-.47.332zm7.485 7.984a6.353 6.353 0 0 1-6.26-4.356.5.5 0 0 1 .481-.634h1.391a.5.5 0 0 0 .483-.392 4.506 4.506 0 0 1 4.38-3.6 4.471 4.471 0 0 1 3.47 1.777 3.972 3.972 0 0 1 .662 4.369 5.222 5.222 0 0 1-4.607 2.836zm-5.067-3.992a5.464 5.464 0 0 0 4.89 3h.177a4.262 4.262 0 0 0 3.707-2.275 2.956 2.956 0 0 0-.539-3.315 3.488 3.488 0 0 0-2.673-1.4h-.015a3.52 3.52 0 0 0-3.406 2.8 1.5 1.5 0 0 1-1.462 1.19z"/><path class="g" d="M20.959 29.944H6.487c-3.4 0-6.487-3.33-6.487-6.986 0-5.211 1.858-8.32 3.5-11.062a19.074 19.074 0 0 0 1.82-3.568.5.5 0 0 1 .472-.34h12.846a4.471 4.471 0 0 1-1.219-5.46A4.489 4.489 0 0 1 22.468.115a4.472 4.472 0 0 1 3.482 4.379 9.118 9.118 0 0 1-1.8 5.181.506.506 0 0 1-.25.194c-5.651 1.957-8.241 6.825-9.282 9.553a23.923 23.923 0 0 1 1.619-1.387.5.5 0 0 1 .742.641 10.4 10.4 0 0 0-1.512 5.281c0 3.241 2.828 4.99 5.489 4.99a.5.5 0 0 1 0 1zM6.142 8.986a21.992 21.992 0 0 1-1.788 3.422C2.781 15.039 1 18.022 1 22.958c0 3.078 2.668 5.988 5.489 5.988H17.3a5.638 5.638 0 0 1-2.828-4.99 10.6 10.6 0 0 1 .635-3.616 8.579 8.579 0 0 0-1.207 1.381.5.5 0 0 1-.916-.354c.018-.093 1.866-9.311 10.43-12.386a8.025 8.025 0 0 0 1.538-4.487 3.493 3.493 0 1 0-3.494 3.494.5.5 0 1 1 0 1H6.142z"/></svg>