<svg xmlns="http://www.w3.org/2000/svg" width="79.166" height="23.001" viewBox="0 0 79.166 23.001"><defs><style>.a{fill:#aeaeae;}</style></defs><g transform="translate(79.583 -0.166) rotate(180)"><path class="a" d="M-11.5,23A11.514,11.514,0,0,0,0,11.5,11.514,11.514,0,0,0-11.5,0a11.542,11.542,0,0,0-8.2,3.375A11.391,11.391,0,0,0-23.082,11.5a11.369,11.369,0,0,0,3.416,8.125A11.542,11.542,0,0,0-11.5,23Zm0-20.5a9.011,9.011,0,0,1,9,9,9.011,9.011,0,0,1-9,9,9.011,9.011,0,0,1-9-9A9.011,9.011,0,0,1-11.5,2.5Z" transform="translate(0.417 -0.166) rotate(-180)"/><path class="a" d="M-7.077.495a3.263,3.263,0,0,0,2.415,1,3.737,3.737,0,0,0,2.415-1A1.153,1.153,0,0,1-.495.329,1.153,1.153,0,0,1-.329,2.08,5.821,5.821,0,0,1-4.662,4,5.616,5.616,0,0,1-8.994,2.08,1.3,1.3,0,0,1-8.828.329,1.3,1.3,0,0,1-7.077.495Z" transform="translate(7.256 -13.587) rotate(-180)"/><path class="a" d="M-3.333,1.665A1.667,1.667,0,1,0,0,1.665a1.667,1.667,0,0,0-3.333,0" transform="translate(6.582 -7.417) rotate(-180)"/><path class="a" d="M-3.333,1.665A1.667,1.667,0,1,0,0,1.665a1.667,1.667,0,0,0-3.333,0" transform="translate(14.001 -7.417) rotate(-180)"/><path class="a" d="M-3.333,1.665A1.667,1.667,0,1,0,0,1.665a1.667,1.667,0,0,0-3.333,0" transform="translate(62.666 -7.417) rotate(-180)"/><path class="a" d="M-3.333,1.665A1.667,1.667,0,1,0,0,1.665a1.667,1.667,0,0,0-3.333,0" transform="translate(70.085 -7.417) rotate(-180)"/><path class="a" d="M-11.5,23a11.422,11.422,0,0,0,8.157-3.375A11.441,11.441,0,0,0,0,11.5,11.514,11.514,0,0,0-11.5,0,11.514,11.514,0,0,0-23,11.5,11.513,11.513,0,0,0-11.5,23Zm0-20.5a9.011,9.011,0,0,1,9,9,9.011,9.011,0,0,1-9,9,9.121,9.121,0,0,1-9-9A9.011,9.011,0,0,1-11.5,2.5Z" transform="translate(56.582 -0.166) rotate(-180)"/><path class="a" d="M-4.6,0A5.616,5.616,0,0,1-.266,1.917,1.3,1.3,0,0,1-.432,3.669,1.3,1.3,0,0,1-2.184,3.5,3.263,3.263,0,0,0-4.6,2.5a3.737,3.737,0,0,0-2.415,1,1.192,1.192,0,0,1-1,.5,1.615,1.615,0,0,1-.833-.251A1.153,1.153,0,0,1-9.013,2,6.227,6.227,0,0,1-4.6,0Z" transform="translate(63.483 -12.917) rotate(-180)"/><path class="a" d="M-3.333,1.665A1.667,1.667,0,1,0,0,1.665a1.667,1.667,0,0,0-3.333,0" transform="translate(34.668 -7.417) rotate(-180)"/><path class="a" d="M-3.333,1.665A1.667,1.667,0,1,0,0,1.665a1.667,1.667,0,0,0-3.333,0" transform="translate(41.998 -7.417) rotate(-180)"/><path class="a" d="M-11.5,23A11.514,11.514,0,0,0,0,11.5,11.514,11.514,0,0,0-11.5,0,11.514,11.514,0,0,0-23,11.5,11.513,11.513,0,0,0-11.5,23Zm0-20.5a9.011,9.011,0,0,1,9,9,9.011,9.011,0,0,1-9,9,9.121,9.121,0,0,1-9-9A9.011,9.011,0,0,1-11.5,2.5Z" transform="translate(28.499 -0.166) rotate(-180)"/><path class="a" d="M-7.415,0H-1.25A1.281,1.281,0,0,1,0,1.25,1.281,1.281,0,0,1-1.25,2.5H-7.415a1.281,1.281,0,0,1-1.25-1.25A1.283,1.283,0,0,1-7.415,0Z" transform="translate(35.667 -13.665) rotate(-180)"/></g></svg>