<svg xmlns="http://www.w3.org/2000/svg" xmlns:xlink="http://www.w3.org/1999/xlink" width="180.42" height="199.997" viewBox="0 0 180.42 199.997"><defs><style>.a{fill:none;}.b{fill:#ffcdb0;}.c{fill:#d4a082;}.d{fill:#ffc756;}.e{fill:#fff;}.f{fill:#5c380f;}.g{clip-path:url(#a);}.h{fill:#f3f2f2;}.i{fill:#331e05;}.j{fill:#bf8c6f;}.k{fill:#ccc;}.l{fill:#edb037;}.m{fill:#e6cfba;}.n{fill:#b38e6c;}.o{fill:#fbb03b;}.p{fill:#ff8c94;}.q{fill:#bfc435;}.r{fill:#947050;}.s{clip-path:url(#b);}.t{fill:#b0d4f5;}.u{fill:#86b0d6;}.v{fill:#ffedc9;}.w{fill:#f2dbaf;}.x{fill:#c9676e;}.y{fill:#8c6239;}.z{fill:#662d91;}.aa{fill:#d4145a;}.ab{fill:#5c3918;}.ac{fill:#e01e65;}.ad{fill:#d2d920;}.ae{fill:#9e9790;}.af{fill:#45423f;}.ag{fill:#00538a;}.ah{fill:#dae051;}.ai{fill:#6e4b2a;}.aj{fill:#4f2e10;}.ak{fill:#0065a8;}.al{fill:#603813;}.am{fill:#0071bc;}.an{fill:#f2e7da;}.ao{fill:#fcf3f0;}.ap{fill:#b8cfde;}.aq{fill:#99aebd;}.ar{fill:#e6f1fa;}</style><clipPath id="a"><path class="a" d="M0,0H32.381V29.566H0Z" transform="translate(0.164 0.003)"/></clipPath><clipPath id="b"><path class="a" d="M0,0H152.278V18.711H0Z"/></clipPath></defs><g transform="translate(0 -0.003)"><path class="b" d="M3.9,0c.084,1.974.209,4.978-3.9,8.026,3.4,4.721,11.245,5.623,14.685-.172C12.21,6.18,10.28,4.464,10.28.386A58.253,58.253,0,0,0,3.9,0" transform="translate(90.21 48.951)"/><path class="c" d="M4.565,5.589a6.861,6.861,0,0,0,3.128-1.3A8.148,8.148,0,0,1,6.833.378,55.466,55.466,0,0,0,.676,0,8.558,8.558,0,0,1,0,4.29a9.41,9.41,0,0,0,4.565,1.3" transform="translate(93.007 49.65)"/><path class="d" d="M9.848,46.853h0a31.512,31.512,0,0,1-4.729-.464C2.849,43.771,1.614,38.259.977,34.1A89.026,89.026,0,0,1,0,20.7,52.857,52.857,0,0,1,1.12,10.959C1.8,7.729,2.659,5.415,3.471,4.61A13.983,13.983,0,0,1,7.546,2.193,29.531,29.531,0,0,0,10.784.545,10.071,10.071,0,0,0,18,3.793,6.493,6.493,0,0,0,24.183,0c5.667,3.165,8.653,6.619,9.13,10.561.2,1.624.273,10.777.248,18.978-.024,7.675-.147,16.748-.417,17.061-.138.16-1.795.241-4.925.241-6.186,0-16.194-.321-16.294-.324C11.912,46.529,11.565,46.853,9.848,46.853ZM7.7,19.444c-.956,3.182-1.342,10.5.254,14.269.211-.512.414-.994.61-1.461C10.7,27.179,11.768,24.632,7.7,19.444Z" transform="translate(79.021 55.944)"/><path class="e" d="M.095.5C-.349,4.2,2.6,19.174,3.872,26.129c.445,4.2-2.222,2.506-2.222,2.506A24.889,24.889,0,0,0,0,31.831c1.27,3.885,4.19,12.595,4.19,12.595s21.078.794,21.459-.083.19-12.135.063-14.642S18.284,9.462,18.284,9.462,5.269,9.712,4,9.775C2.539,6.893,1.4,0,1.4,0Z" transform="translate(86.713 57.343)"/><path class="b" d="M3.317.588C1.479-.534.081-.16,0,2.667S3.557,5.369,4.2,3.748C3.117,1.3,3.317.588,3.317.588" transform="translate(83.217 39.86)"/><path class="b" d="M.879.588C2.717-.534,4.114-.16,4.195,2.667S.639,5.369,0,3.748C1.079,1.3.879.588.879.588" transform="translate(105.594 38.462)"/><path class="f" d="M6.857.27C3.718-.767-2.271,1.155.9,6.525s9.929,1.342,9.577-3.235S6.857.27,6.857.27" transform="translate(81.119 44.755)"/><path class="b" d="M11.484,0C5.354,0,0,1.17,0,8.195c.34,3.68-.341,8.446,1.786,11.54S8.594,25.3,11.569,25.17c2.807-.125,7.741-4.432,8.422-6.606s0-11.54-.425-12.961A8.643,8.643,0,0,0,11.484,0" transform="translate(86.713 25.874)"/><g transform="translate(77.622)"><path class="a" d="M0,0H32.381V29.566H0Z" transform="translate(0.164 0.003)"/><g class="g"><path class="h" d="M7.758,29.566C7.631,27,7.568,23.74,6.747,23.239S1.817,17.789.552,11.9C-.206,6.2-.4,5.135,1.374,4.759S2.385,3.38,4.282,2.065A13.14,13.14,0,0,1,13.13.123c3.54.5,3.982.376,5.183.125a14.979,14.979,0,0,1,8.6.94c3.413,1.629,3.476,2.443,3.224,4.26,1.391.94,2.718.814,2.086,4.886a98.26,98.26,0,0,1-3.729,13.093,38.246,38.246,0,0,0-.885,5.826c-2.907-2.882-11.061-6.64-19.847.313" transform="translate(0.164 0.002)"/></g></g><path class="f" d="M1.714,6.608c-1.595,2.3-2.68,5.267-.447,10.256,1.021.384,1.552.618,1.552.618.787-1,2.318-7.313,1.106-9.552C6.158,5.5,10.2,5.607,10.2,5.607c4.657,3.2,8.868,4.989,11.612,4.03a21.076,21.076,0,0,1,.957,6.866c2.3-2.239,2.1-4.878.468-8.316a9.4,9.4,0,0,0-9.23-5.33c-3.573-3.412-8.571-4.8-9.017,1.791A9.917,9.917,0,0,0,1.714,6.608" transform="translate(83.916 23.077)"/><path class="i" d="M7.691,5.58a2.6,2.6,0,0,1-1.43-.526A12.618,12.618,0,0,1,3.589,2.573c-.467-.524-.911-1.014-1.349-1.416A2.7,2.7,0,0,0,1,.354a.738.738,0,0,0-.763.4C.112.961.062,1.1.023,1.091S-.023.934.061.669A1.114,1.114,0,0,1,.344.23.94.94,0,0,1,1.032,0a1.7,1.7,0,0,1,.8.27,7.853,7.853,0,0,1,.718.54A14.506,14.506,0,0,1,3.963,2.24a18.086,18.086,0,0,0,2.5,2.522c.718.543,1.259.739,1.231.818" transform="translate(90.21 25.175)"/><path class="i" d="M9.09,4.873a4.185,4.185,0,0,1-1.555-.227,10.274,10.274,0,0,1-3.417-1.56A15.3,15.3,0,0,1,2.566,1.8a11.854,11.854,0,0,0-1.3-.94A6.258,6.258,0,0,1,0,.009a4.2,4.2,0,0,1,1.45.566,9.07,9.07,0,0,1,1.424.9c.492.411.969.835,1.55,1.24A12.749,12.749,0,0,0,7.648,4.331a6.85,6.85,0,0,1,1.443.542" transform="translate(94.406 23.776)"/><path d="M1.391,1.306c-.052.166-.542.131-.961-.294C.025.59-.077.121.053.023S.521.2.842.533s.61.6.549.773" transform="translate(88.811 39.86)"/><path d="M3.483,1.288c-.062.061-.288-.041-.631-.2A5.927,5.927,0,0,0,1.53.6.987.987,0,0,0,.479.937C.432,1,.386,1.064.34,1.118a1.752,1.752,0,0,1-.1.155C.178,1.358.122,1.4.079,1.4S.01,1.328,0,1.217a1.41,1.41,0,0,1,0-.2C.024.935.05.845.083.746A1.6,1.6,0,0,1,.266.434,1.256,1.256,0,0,1,.627.154,1.624,1.624,0,0,1,1.651.031,3.221,3.221,0,0,1,3.112.753c.3.264.428.479.371.535" transform="translate(90.21 39.86)"/><path d="M.008,1.306C-.053,1.133.242.859.557.533s.648-.619.788-.51.028.567-.376.989c-.419.425-.909.46-.961.294" transform="translate(104.196 39.86)"/><path d="M.014,1.288c-.058-.055.068-.271.371-.535A3.222,3.222,0,0,1,1.846.031,1.623,1.623,0,0,1,2.87.154a1.256,1.256,0,0,1,.361.28,1.6,1.6,0,0,1,.183.312c.034.1.059.189.078.267a1.411,1.411,0,0,1,0,.2c-.007.112-.033.174-.075.181s-.1-.039-.163-.124a1.645,1.645,0,0,1-.1-.155C3.111,1.065,3.064,1,3.017.937A.987.987,0,0,0,1.966.6a5.926,5.926,0,0,0-1.322.486c-.342.16-.569.262-.631.2" transform="translate(100.699 39.161)"/><path d="M2.794.091c.054.154-.65.384-1.421.662a4.589,4.589,0,0,0-.881.416c-.2.124-.3.243-.4.229S-.063,1.2.1.94A1.962,1.962,0,0,1,1.077.261c.9-.321,1.674-.305,1.717-.171" transform="translate(90.21 34.266)"/><path d="M2.074,1.348C1.957,1.514,1.53,1.241.989.97.454.682,0,.477,0,.246S.573-.144,1.207.194s.989.993.867,1.154" transform="translate(102.797 33.566)"/><path class="j" d="M2.743,1.388c-.1.05-.265-.077-.5-.25A2.088,2.088,0,0,0,1.337.723a1.015,1.015,0,0,0-.8.306c-.2.187-.343.35-.448.313C0,1.313-.053,1.091.089.75A1.259,1.259,0,0,1,.53.226,1.325,1.325,0,0,1,1.423.009a1.684,1.684,0,0,1,1.225.8c.177.31.18.535.1.579" transform="translate(96.503 41.958)"/><path class="j" d="M6.282.01c.063.042-.12.375-.659.724A4.025,4.025,0,0,1,4.582,1.2a5.756,5.756,0,0,1-1.412.2,5.736,5.736,0,0,1-1.417-.174A4.1,4.1,0,0,1,.7.788C.149.454-.05.129.011.084.086.021.395.224.934.43A6.18,6.18,0,0,0,3.162.817,7.246,7.246,0,0,0,4.408.683a5.671,5.671,0,0,0,.967-.3C5.906.165,6.2-.05,6.282.01" transform="translate(94.406 45.455)"/><path class="e" d="M1.517,0C.756.6,0,1.126,0,1.126,1.163,6.4,4.364,11.232,7.692,4.116,4.805,3.73,2.64,3.215,1.517,0" transform="translate(89.51 55.245)"/><path class="e" d="M5.868,0A10.968,10.968,0,0,0,7.692,1.073C6.476,6.407,3.48,11.263,0,4.065,3.017,3.675,4.694,3.252,5.868,0" transform="translate(97.203 55.944)"/><path class="i" d="M2.752,6.946c0,.027-.144.064-.408.039a1.932,1.932,0,0,1-1.03-.438A3.226,3.226,0,0,1,.38,5.215,4.834,4.834,0,0,1,0,3.29,2.825,2.825,0,0,1,.245,2.266a3.293,3.293,0,0,1,.549-.81A4.683,4.683,0,0,1,2.1.484,3.162,3.162,0,0,1,3.5.012a8.122,8.122,0,0,1-1.222.76,5.1,5.1,0,0,0-1.135.967A2.562,2.562,0,0,0,.49,3.314,4.96,4.96,0,0,0,.8,5.062,3.187,3.187,0,0,0,1.547,6.3a2.086,2.086,0,0,0,.839.507c.229.076.369.1.367.142" transform="translate(83.916 46.154)"/><path class="i" d="M1.393,3.47c-.025.059-.31.032-.629-.235a2.269,2.269,0,0,1-.7-1.3C-.171.811.323-.07.472,0,.617.056.43.862.635,1.841A3.169,3.169,0,0,0,1.08,3c.175.265.352.4.313.475" transform="translate(86.713 48.252)"/><path class="i" d="M.085,5.594c-.07,0-.122-.36-.05-.931A7.537,7.537,0,0,1,.69,2.511,7.782,7.782,0,0,1,1.944.578c.432-.444.8-.629.849-.566s-.211.3-.534.761A15.221,15.221,0,0,0,1.191,2.7C.448,4.243.23,5.6.085,5.594" transform="translate(85.315 30.769)"/><path class="i" d="M.018,5.592c-.064-.028.042-.372.31-.882S1.022,3.534,1.462,2.8A9.7,9.7,0,0,0,2.395.862C2.565.345,2.6,0,2.686,0c.064,0,.163.355.078.936a5.946,5.946,0,0,1-.834,2.1A21.5,21.5,0,0,1,.654,4.887c-.346.455-.567.735-.636.7" transform="translate(85.315 32.867)"/><path class="i" d="M6.293.24C6.314.3,5.983.454,5.4.563A10.047,10.047,0,0,1,3.125.685,6.89,6.89,0,0,1,0,.035,27.873,27.873,0,0,1,3.152.223c.862.041,1.642.043,2.2.016s.913-.065.936,0" transform="translate(100.699 32.168)"/><path class="i" d="M1.4.032C1.416.1,1.3.2,1.158.425a6.673,6.673,0,0,0-.493.923,6.708,6.708,0,0,0-.354,1C.24,2.6.235,2.772.173,2.8S0,2.632,0,2.307A2.9,2.9,0,0,1,.268,1.141,2.684,2.684,0,0,1,.938.185c.234-.2.445-.214.459-.153" transform="translate(90.21 25.874)"/><path class="i" d="M1.372.059c.114.148-.16.51-.507.825s-.6.562-.774.507S-.017.79.421.4c.42-.378.846-.481.951-.342" transform="translate(90.909 27.273)"/><path class="j" d="M.053.653C-.015.626-.057.439.178.209A.917.917,0,0,1,.731,0a1.434,1.434,0,0,1,.663.151,1.247,1.247,0,0,1,.692.82c.052.281-.074.442-.156.427s-.155-.139-.281-.279A1.908,1.908,0,0,0,1.071.666,1.488,1.488,0,0,0,.717.543.784.784,0,0,0,.444.551c-.168.041-.3.144-.39.1" transform="translate(84.615 40.559)"/><path class="j" d="M2.1.17c-.008.2-.534.4-1.035.905C.535,1.554.353,2.083.158,2.1c-.093,0-.191-.2-.148-.519A1.859,1.859,0,0,1,.577.53,1.835,1.835,0,0,1,1.606.006c.3-.033.491.065.492.163" transform="translate(106.993 39.86)"/><path class="k" d="M19.579,2.047c-.05.1-1.072-.374-2.833-.77a25.11,25.11,0,0,0-6.995-.6,23.436,23.436,0,0,0-3.829.511c-1.159.255-2.19.581-3.058.844A12.737,12.737,0,0,1,0,2.782,14.047,14.047,0,0,1,2.7,1.6,27.365,27.365,0,0,1,5.772.61,20.845,20.845,0,0,1,9.715.032a21.245,21.245,0,0,1,7.16.806,7.348,7.348,0,0,1,2.7,1.21" transform="translate(85.315 20.979)"/><path class="k" d="M5.587,16.781a7.478,7.478,0,0,1-1.508-2.143A36.686,36.686,0,0,1,1.541,8.8c-.4-1.175-.785-2.3-1.047-3.362A14.866,14.866,0,0,1,.057,2.566,5.393,5.393,0,0,1,.116.59C.272.114.535-.027.55,0,.59.042.416.23.355.653A6.749,6.749,0,0,0,.5,2.521a17.9,17.9,0,0,0,.554,2.758c.282,1.018.677,2.128,1.079,3.3a59.1,59.1,0,0,0,2.337,5.84,18.462,18.462,0,0,1,1.115,2.367" transform="translate(81.119 2.797)"/><path class="k" d="M.047,13.986a6.914,6.914,0,0,1,.085-2.122c.135-1.3.4-3.072.568-5.03a23.705,23.705,0,0,0-.021-5A3.994,3.994,0,0,0,.322.434C.165.148-.009.068.009.017c0-.036.238-.04.5.258A3.314,3.314,0,0,1,1.1,1.748,17.762,17.762,0,0,1,1.307,6.9a49.613,49.613,0,0,1-.75,5.045,7.82,7.82,0,0,1-.51,2.045" transform="translate(103.497 0.699)"/><path class="k" d="M.023,13.985C-.148,13.928.662,10.852,1.414,7l.546-2.72a19.309,19.309,0,0,0,.364-2.2A10.524,10.524,0,0,1,2.56,0,4.9,4.9,0,0,1,2.8,2.1a13.888,13.888,0,0,1-.231,2.291c-.135.837-.3,1.769-.5,2.735C1.312,11.015.2,14.048.023,13.985" transform="translate(105.594 4.196)"/><path class="k" d="M4.177,11.187c-.16.082-1.556-2.248-2.7-5.371S-.139.038.036,0c.2-.046.954,2.512,2.089,5.587s2.231,5.512,2.052,5.6" transform="translate(86.713 10.49)"/><path class="l" d="M2.783,8.386c-.067.053-.546-.256-1.115-.925A7.118,7.118,0,0,1,.228,4.488,10.351,10.351,0,0,1,.05,1.3C.13.487.262,0,.362,0S.525.505.581,1.3a20.55,20.55,0,0,0,.384,3.06A9.6,9.6,0,0,0,2.119,7.218c.423.691.751,1.1.664,1.168" transform="translate(85.315 68.531)"/><path class="m" d="M.275,0,0,77.622H140.709L141.259,0Z" transform="translate(6.993 122.378)"/><path class="n" d="M22.692,24.475h0c-.261-.044-1.252-1.767-2.211-3.841A26.031,26.031,0,0,1,18.373,14.5c-.538-.1-1.013-.2-1.453-.3-1.055,1.28-6.406,7.7-8.029,8.264l-.006-.021c-.2-.872-1.952-8.622-1.61-12.019l-.011-.006c-.2-.121-.409-.247-.615-.377-.921.537-4.124,2.387-6.649,3.636L.027,6.056.049,0h141.21l-.032,4.622h-.057l-.564.006c.234.468.433.9.611,1.334l-.044,6.255c-2.5-.332-7.01-1.623-8.684-2.971-.149.1-.3.2-.452.3l-.127.084c.022.234.049.5.079.8.29,2.872.83,8.217-.14,10.19a16.588,16.588,0,0,1-4.431-2.486c-1.115-.781-3.806-2.765-4.72-4.31l-.224.061-.068.018c-.47,1.955-2.089,8.42-3.165,9.476h-.022c-.62,0-1.95-1.171-3.309-2.916a15.267,15.267,0,0,1-2.85-5.213c-.256.006-.515.006-.734.006-.836,2.367-4.342,8.344-5.615,8.506a13.25,13.25,0,0,1-1.9-3.71,24.438,24.438,0,0,1-1.694-5.864c-.5-.119-.94-.234-1.351-.349-1.052,1.155-6.383,6.939-7.927,7.4l0-.021c-.148-.829-1.432-8.19-.952-11.363-.237-.157-.413-.277-.571-.389-1.332.693-8.056,4.151-9.5,4.154a.393.393,0,0,1,.011-.049c.276-1.1,1.262-4.959,2.386-8.379l-17.941.182-8.159.082a15.87,15.87,0,0,1,1.062,4.919,1.609,1.609,0,0,1-.712.1c-2.127,0-8.009-1.187-10.15-2.745-.161.123-.327.244-.488.361l-.109.079c.036.247.079.53.126.842.46,3.035,1.315,8.683.388,10.828a17.671,17.671,0,0,1-4.835-2.412c-1.225-.772-4.187-2.74-5.239-4.334-.065.022-.13.043-.2.064l-.111.036c-.4,2.1-1.778,9.052-2.863,10.226l-.052,0c-.685,0-2.124-1.162-3.668-2.959a16.211,16.211,0,0,1-3.272-5.355c-.256.018-.516.031-.768.044h-.013c-.764,2.557-4.172,9.084-5.515,9.32Zm113.749-19.8h0l-20.253.206-.667.006L93.5,5.108h-.135l-4.244.043a29.193,29.193,0,0,0,9.956,6.566,35.536,35.536,0,0,0,13.377,2.636,34.8,34.8,0,0,0,23.99-9.683Zm-86.3.877L33.25,5.719l-.154,0-29.624.3a31.334,31.334,0,0,0,10.041,5.9A37.843,37.843,0,0,0,26.49,14.228,36.544,36.544,0,0,0,50.137,5.548Z" transform="translate(6.993 122.378)"/><path class="o" d="M3.072,0A115.054,115.054,0,0,0,0,12.587C1.66,12.5,9.79,7.53,9.79,7.53S5.761,5.9,3.072,0" transform="translate(1.399 123.077)"/><path class="p" d="M.075,0C-.414,3.544,1.644,12.587,1.644,12.587,3.429,11.941,9.79,3.87,9.79,3.87,6.767,3.539,2.039,1.1.075,0" transform="translate(11.888 130.769)"/><path class="q" d="M0,0C.072,2.921,3.745,10.4,4.286,10.49,5.624,10.248,9.2,3.256,9.79.822,5.066,1.9,0,0,0,0" transform="translate(23.077 134.965)"/><path class="e" d="M0,1.926c.576,3.113,5.514,8.693,6.914,8.561C8.152,9.14,9.79,0,9.79,0Z" transform="translate(33.566 133.566)"/><path class="o" d="M0,4.907c1.15,2.477,8.886,6.964,10.085,6.981C11.153,9.415,9.8,2.15,9.519,0,6.458,3.33,0,4.907,0,4.907" transform="translate(43.357 128.671)"/><path class="p" d="M0,7.407C1.908,9.4,10.355,10.9,11.189,10.389,10.986,4.971,7.111-.315,6.867.015S0,7.407,0,7.407" transform="translate(53.846 120.28)"/><path class="e" d="M.44,2.386C7.49,15.759,38.895,25.287,58.341,0c.658.016.306.42.306.42C44.667,23.555,7.605,20.035.04,3.061c-.2-.5.4-.675.4-.675" transform="translate(3.497 118.881)"/><path class="q" d="M3.586,0A108.261,108.261,0,0,0,0,11.888c1.624,0,9.79-4.364,9.79-4.364S5.934,5.769,3.586,0" transform="translate(87.413 122.378)"/><path class="e" d="M.148,0c-.619,3.3.906,11.888.906,11.888,1.7-.524,8.038-7.8,8.038-7.8C6.268,3.637,1.94,1.127.148,0" transform="translate(97.203 130.07)"/><path class="o" d="M0,0C-.065,2.675,3.022,9.681,3.523,9.79,4.781,9.631,8.431,3.4,9.091,1.2A18.6,18.6,0,0,1,0,0" transform="translate(107.692 134.266)"/><path class="p" d="M0,1.37C.418,4.342,5.035,9.849,6.429,9.79,7.722,8.572,9.79,0,9.79,0Z" transform="translate(117.483 134.266)"/><path class="q" d="M0,4.174c.975,2.377,8.106,6.944,9.243,7.015C10.372,8.915,9.43,2.031,9.265,0,6.2,2.987,0,4.174,0,4.174" transform="translate(127.273 130.07)"/><path class="e" d="M0,6.952C1.719,9,9.672,10.88,10.489,10.419,10.549,5.083,7.117-.3,6.871.013S0,6.952,0,6.952" transform="translate(136.364 122.378)"/><path class="e" d="M.436,0C6.423,12.794,35.444,23.092,54.879.372c.617.043.266.4.266.4C40.941,21.735,6.33,16.789.029.612-.134.14.436,0,.436,0" transform="translate(90.21 120.979)"/><path class="r" d="M152.448.8l-.214,2.9s-20.385.2-30.545.2S74.68,4.3,68.507,4.168,36.483,3.9,28.251,4.032C22.9,4.12.171,3.693.171,3.693L0,.8S26.451.638,29.988.434,62.58-.187,70.115.095c9.067.339,40.255.679,45.529.339S151.7.616,152.448.8" transform="translate(0 119.58)"/><g transform="translate(0 101.399)"><path class="a" d="M0,0H152.278V18.711H0Z"/><g class="s"><path class="n" d="M20.726,0,0,18.711H152.278L146.969.34Z" transform="translate(0)"/></g></g><path class="n" d="M33.566.285a4.932,4.932,0,0,1-1.318.139c-.849.044-2.078.086-3.6.123C25.616.621,21.42.675,16.785.693S7.954.689,4.916.639C3.4.613,2.168.581,1.319.544A4.935,4.935,0,0,1,0,.415,4.918,4.918,0,0,1,1.319.276C2.168.231,3.4.19,4.916.153,7.952.079,12.148.024,16.781.006s8.829,0,11.867.054c1.519.026,2.748.058,3.6.1a4.91,4.91,0,0,1,1.321.129" transform="translate(11.189 162.238)"/><path class="n" d="M3.5.185C3.515.359,2.752.6,1.775.678S0,.607,0,.43.774.111,1.727.034,3.476.006,3.5.185" transform="translate(13.986 160.839)"/><path class="n" d="M22.378,1.166a11.983,11.983,0,0,1-3.285.232c-2.03.015-4.833-.095-7.92-.292L3.273.579A14.891,14.891,0,0,1,0,.236,11.922,11.922,0,0,1,3.285,0c2.03-.015,4.833.092,7.921.288l7.9.53a14.826,14.826,0,0,1,3.273.346" transform="translate(16.084 151.049)"/><path class="n" d="M4.2.35C4.2.543,3.256.7,2.1.7S0,.543,0,.35.939,0,2.1,0,4.2.157,4.2.35" transform="translate(31.469 150.35)"/><path class="n" d="M45.455.291A8.466,8.466,0,0,1,43.667.41L38.8.522c-4.111.1-9.786.318-16.059.561s-11.962.361-16.08.3C4.6,1.354,2.934,1.3,1.784,1.228A8.447,8.447,0,0,1,0,1.048a8.439,8.439,0,0,1,1.789-.1L6.658.865C10.768.8,16.443.594,22.716.352S34.676-.031,38.794.006c2.059.017,3.725.056,4.875.12a8.382,8.382,0,0,1,1.785.166" transform="translate(12.587 179.72)"/><path class="n" d="M4.2.125c.03.15-.91.371-2.066.474A5.536,5.536,0,0,1,0,.615C-.047.469.879.169,2.054.065A4.706,4.706,0,0,1,4.2.125" transform="translate(30.769 178.322)"/><path class="n" d="M33.566.474c0,.18-7.517.271-16.786.2S0,.406,0,.226s7.517-.272,16.786-.2,16.782.27,16.781.451" transform="translate(34.965 173.427)"/><path class="n" d="M53.846.028a10.788,10.788,0,0,1-2.1.388C50.392.6,48.423.8,45.986.969c-4.873.339-11.615.469-19.053.42s-14.171-.2-19.044-.3L2.117.947A10.68,10.68,0,0,1,0,.8,10.486,10.486,0,0,1,2.117.631C3.48.572,5.453.535,7.89.511,12.766.462,19.5.529,26.936.576S41.1.586,45.966.395C48.4.3,50.367.188,51.727.1A10.524,10.524,0,0,1,53.846.028" transform="translate(90.21 172.727)"/><path class="n" d="M37.063.333A5.96,5.96,0,0,1,35.608.48c-.938.05-2.3.095-3.972.132-3.355.075-7.989.1-13.106.083L5.43.625C3.754.612,2.4.593,1.459.571A5.993,5.993,0,0,1,0,.464,5.917,5.917,0,0,1,1.454.3C2.391.241,3.748.185,5.425.136,8.779.036,13.415-.012,18.532,0s9.749.069,13.1.12c1.676.026,3.033.056,3.971.088a5.9,5.9,0,0,1,1.457.122" transform="translate(106.294 166.434)"/><path class="n" d="M3.5.176c.02.167-.748.381-1.715.476S.018.691,0,.524.751.142,1.715.046,3.477.008,3.5.176" transform="translate(129.371 163.636)"/><path class="n" d="M32.168.285c0,.189-7.2.372-16.083.408S0,.6,0,.415,7.2.042,16.082.006,32.167.095,32.168.285" transform="translate(72.727 159.441)"/><path class="n" d="M3.495.185C3.541.372,2.753.709,1.753.7S.005.5,0,.318C0,.115.8-.009,1.751,0s1.7,0,1.744.185" transform="translate(77.622 158.042)"/><path class="n" d="M2.092.14c.063.172-.4.507-1.014.551S0,.57,0,.392.477.073,1.033.027s1-.059,1.059.113" transform="translate(80.42 155.944)"/><path class="n" d="M36.364.023a7.264,7.264,0,0,1-1.409.226c-.912.114-2.237.244-3.879.381-3.281.275-7.832.526-12.862.651S8.63,1.41,5.335,1.389c-1.648-.011-2.981-.03-3.9-.054A7.393,7.393,0,0,1,0,1.243a7.3,7.3,0,0,1,1.43-.116c.921-.04,2.254-.078,3.9-.116L18.193.745C23.214.621,27.753.43,31.037.252L34.927.042A7.41,7.41,0,0,1,36.364.023" transform="translate(70.629 148.252)"/><path class="n" d="M4.2.333C4.2.526,3.254.671,2.1.695S.02.654,0,.464.919.025,2.088,0,4.2.144,4.2.333" transform="translate(86.014 147.552)"/><path class="n" d="M2.1.236C2.13.423,1.663.673,1.063.7S0,.555,0,.368.473.028,1.038,0,2.064.048,2.1.236" transform="translate(93.007 144.755)"/><path class="n" d="M46.154.1a10.276,10.276,0,0,1-1.812.151L39.4.455l-16.31.58c-6.371.209-12.143.337-16.323.358-2.09.011-3.781,0-4.95-.022A10.282,10.282,0,0,1,0,1.27a10.243,10.243,0,0,1,1.813-.139L6.757.958,23.066.419C29.437.21,35.208.062,39.387.019c2.089-.022,3.78-.025,4.95-.007A10.184,10.184,0,0,1,46.154.1" transform="translate(55.944 190.21)"/><path class="n" d="M3.5.153c.015.156-.73.375-1.7.5s-1.8,0-1.8-.164S.759.191,1.71.07,3.479-.013,3.5.153" transform="translate(90.21 188.811)"/><path class="n" d="M27.972.135a28.48,28.48,0,0,1-4.089.425c-2.526.209-6.007.577-9.864.954s-7.366.591-9.909.583c-1.271,0-2.3-.033-3.01-.1A3.228,3.228,0,0,1,0,1.839a30.826,30.826,0,0,1,4.1-.27c2.528-.127,6.012-.425,9.865-.8S21.317.106,23.858.031a18.517,18.517,0,0,1,4.114.1" transform="translate(106.993 192.308)"/><path class="n" d="M2.1.175c.031.167-.413.381-.991.478S.033.692,0,.525.414.143.993.047,2.066.008,2.1.175" transform="translate(125.175 191.608)"/><path class="n" d="M2.08.1c.109.145-.3.467-.936.565S-.008.615,0,.45.459.154.987.068,1.973-.046,2.08.1" transform="translate(128.671 189.51)"/><path class="r" d="M15.7,15.379a102.569,102.569,0,0,0,16.966-3.192,21.7,21.7,0,0,0,3.528-.84c1.008-.5,5.711.168,6.047-.5s1.847-2.857.672-3.361S36.2,5.3,38.213,3.953A28.217,28.217,0,0,0,42.577.022L34.336,0C25.2,2.86.67,10.338.67,10.338c-2.436,1.68,1.6,5.208,15.034,5.041" transform="translate(79.021 102.098)"/><path class="r" d="M7.822,14.508C13,14,20.186,14.635,21.953,13.617s1.514-2.8,2.019-2.8c.406,0,3.5.082,4.7.115L27.565,7.1l-4.225.663s-2.776-2.418-2.4-2.418c.278,0,3.881-.753,5.782-1.155l-.764-2.643c-2.582.309-7.289,1-7.289,1A27.353,27.353,0,0,0,15.392,0L0,13.235c1.262,1.145,2.649,1.782,7.822,1.273" transform="translate(121.678 103.497)"/><path class="r" d="M0,14.058l12.359.628,6.894-2.51s7.23.837,10.761-2.008c7.9,2.845,19.547,1.632,24.886-2.008C60.189,4.552,59.4,0,59.4,0S24.8,5.481,20.767,5.983,3.447,11.422,0,14.058" transform="translate(16.084 102.797)"/><path class="t" d="M13.915.1C10.775.5,4.93-.644,2.778.6S1.323,5.312.564,7.979-1.271,15.3,5.5,14.618s9.808.062,14.047-.062,4.809-1.8,3.8-5.087a32.888,32.888,0,0,0-4.493-8.438C18.281.472,16.826-.272,13.915.1" transform="translate(119.58 102.797)"/><path class="u" d="M.221,2.1C.331,1.4.4.694.478,0,.369.673.3,1.383.221,2.1" transform="translate(120.28 106.294)"/><path class="u" d="M19.675,3.652c-4.24.124-7.278-.619-14.049.062C1.01,4.178.042,2.169.132,0-.31,2.524.095,5.371,5.5,4.828c6.771-.681,9.809.062,14.049-.062,3.212-.094,4.314-1.077,4.222-2.973-.373,1.167-1.59,1.786-4.1,1.859" transform="translate(119.58 112.587)"/><path class="v" d="M1.44.034C-.629.256-.633,3.219,2.509,2.746,4.953,2.379,4.862-.334,1.44.034" transform="translate(122.378 108.392)"/><path class="v" d="M1.681.043C-.733.32-.739,4.023,2.927,3.433,5.778,2.973,5.673-.417,1.681.043" transform="translate(121.678 111.888)"/><path class="v" d="M1.441.026C-.628.192-.634,2.414,2.509,2.06,4.952,1.784,4.863-.25,1.441.026" transform="translate(123.077 104.196)"/><path class="v" d="M1.44.034C-.629.256-.633,3.219,2.509,2.746,4.953,2.379,4.862-.334,1.44.034" transform="translate(129.371 108.392)"/><path class="v" d="M1.681.043C-.733.32-.739,4.023,2.927,3.433,5.778,2.973,5.673-.417,1.681.043" transform="translate(128.671 111.888)"/><path class="v" d="M1.441.026C-.628.192-.634,2.414,2.509,2.06,4.952,1.784,4.863-.25,1.441.026" transform="translate(128.671 104.196)"/><path class="v" d="M1.388.059C-.674.355-.563,3.3,2.563,2.721,4.994,2.267,4.8-.431,1.388.059" transform="translate(135.664 108.392)"/><path class="v" d="M1.619.074C-.786.444-.657,4.131,2.989,3.4,5.826,2.834,5.6-.538,1.619.074" transform="translate(135.664 112.587)"/><path class="v" d="M1.395.063C-.668.369-.572,3.316,2.556,2.717,4.989,2.251,4.806-.443,1.395.063" transform="translate(134.266 104.196)"/><path class="w" d="M16.142,11.189a2.187,2.187,0,0,1-1.61-.573A1.525,1.525,0,0,1,14.1,9.5a2.088,2.088,0,0,0,1.755.745,4.471,4.471,0,0,0,.876-.094A2.078,2.078,0,0,0,18.582,8.51,1.3,1.3,0,0,1,18.8,9.795a2.264,2.264,0,0,1-1.779,1.3A4.494,4.494,0,0,1,16.142,11.189ZM2.129,11.056a2.3,2.3,0,0,1-1.7-.6A1.523,1.523,0,0,1,0,9.348a2.183,2.183,0,0,0,1.84.769,4.658,4.658,0,0,0,.735-.062A2.042,2.042,0,0,0,4.495,8.429,1.3,1.3,0,0,1,4.7,9.738a2.243,2.243,0,0,1-1.836,1.255A4.662,4.662,0,0,1,2.129,11.056Zm7.245-.042a2.3,2.3,0,0,1-1.7-.6,1.521,1.521,0,0,1-.434-1.111,2.185,2.185,0,0,0,1.841.77,4.561,4.561,0,0,0,.733-.062C11.147,9.8,11.683,9,11.738,8.386A1.3,1.3,0,0,1,11.946,9.7a2.243,2.243,0,0,1-1.836,1.255A4.588,4.588,0,0,1,9.374,11.013Zm6.067-4.461a1.941,1.941,0,0,1-1.459-.531,1.366,1.366,0,0,1-.369-1.029,1.847,1.847,0,0,0,1.539.621,3.906,3.906,0,0,0,.785-.084A1.892,1.892,0,0,0,17.59,4.1a1.162,1.162,0,0,1,.244,1.17,2.013,2.013,0,0,1-1.607,1.2A3.928,3.928,0,0,1,15.441,6.552ZM9.2,6.526h0A2,2,0,0,1,7.655,5.97,1.362,1.362,0,0,1,7.29,4.937a1.926,1.926,0,0,0,1.617.651,4.2,4.2,0,0,0,.657-.056,1.858,1.858,0,0,0,1.709-1.4,1.167,1.167,0,0,1,.233,1.193A1.988,1.988,0,0,1,9.854,6.47,4.229,4.229,0,0,1,9.2,6.526ZM2.863,6.484h0a2,2,0,0,1-1.538-.556A1.363,1.363,0,0,1,.958,4.893a1.923,1.923,0,0,0,1.618.651,4.207,4.207,0,0,0,.655-.055,1.861,1.861,0,0,0,1.71-1.4A1.167,1.167,0,0,1,5.173,5.28,1.988,1.988,0,0,1,3.522,6.428,4.211,4.211,0,0,1,2.863,6.484ZM3.5,2.1a1.916,1.916,0,0,1-1.526-.565A1.012,1.012,0,0,1,1.764.674a1.949,1.949,0,0,0,1.452.485,4.346,4.346,0,0,0,.6-.045,1.791,1.791,0,0,0,1.552-1,.879.879,0,0,1,.29.931,1.772,1.772,0,0,1-1.552,1.01A4.4,4.4,0,0,1,3.5,2.1Zm5.34,0a1.913,1.913,0,0,1-1.526-.565A1.008,1.008,0,0,1,7.1.674a1.943,1.943,0,0,0,1.452.485,4.408,4.408,0,0,0,.6-.045,1.789,1.789,0,0,0,1.552-1,.879.879,0,0,1,.29.931,1.77,1.77,0,0,1-1.552,1.01A4.485,4.485,0,0,1,8.841,2.1Zm5.584-.058A1.8,1.8,0,0,1,12.985,1.5a1,1,0,0,1-.209-.856,1.836,1.836,0,0,0,1.362.458,4.419,4.419,0,0,0,.738-.071A1.8,1.8,0,0,0,16.381,0a.872.872,0,0,1,.3.909,1.787,1.787,0,0,1-1.512,1.06A4.389,4.389,0,0,1,14.424,2.04Z" transform="translate(121.678 104.895)"/><path class="v" d="M12.9,2.519C9.054,3.027.536,5.247.031,7.657s5.174,3.235,9.653,3.806,8.959.7,11.609-.444S31.452,7.34,33.912,6.325s4.858-1.966,5.237-3.488-8.265-4-15.836-2.22a67.6,67.6,0,0,1-10.41,1.9" transform="translate(79.72 104.895)"/><path class="w" d="M38.759,0c-.814,1.146-2.837,1.959-4.91,2.816-2.461,1.017-9.969,3.56-12.619,4.7S14.1,8.537,9.622,7.965C5.856,7.484,1.246,6.823.17,5.19a1.39,1.39,0,0,0-.139.359c-.5,2.416,5.174,3.242,9.653,3.814s8.959.7,11.609-.445,10.158-3.687,12.619-4.7,4.858-1.971,5.237-3.5C39.2.494,39.061.249,38.759,0" transform="translate(79.72 106.993)"/><path class="p" d="M4.965,2.8A21.284,21.284,0,0,0,.753,1.584C-.6,1.238-.191-1.015,2.438.544A13.3,13.3,0,0,0,5.594,1.873" transform="translate(87.413 101.399)"/><path class="p" d="M3.659,0C1.183,0-1.8,4.617,1.375,6.052s17.829,5.3,20.177,5.8S26.5,7.051,24.407,5.8,6.007,0,3.659,0" transform="translate(90.21 101.399)"/><path class="x" d="M4.062.594C3.068-.992.864.886.216,2.848S.432,7.022,2.074,6.062A4.986,4.986,0,0,0,4.062.761" transform="translate(111.189 106.993)"/><path class="p" d="M.752,0C.3-.093-.413,1.529.3,1.724a5.892,5.892,0,0,1,2.9,1.2c.866.681,2.434,1.062,2.391-.682-.03-1.2-1.252-1.156-2.481-1.2A2.755,2.755,0,0,1,.752,0" transform="translate(113.287 109.091)"/><path class="y" d="M.5.527a5.2,5.2,0,0,1,7.188,3C5.391,5.5,1.166,5.733,0,1.548.252,1.516.5.527.5.527" transform="translate(124.476 70.629)"/><path class="z" d="M0,1.469c1.265,1.61,2.221-.322,2.085-.8S1.538-.077.684.02" transform="translate(123.077 70.629)"/><path class="y" d="M2.774.305C2.961,1.581,2.026,3.2,0,4.2.935.554.218-.628,2.774.305" transform="translate(120.979 69.93)"/><path class="b" d="M3.067,0C5.2,2.713,13.99,11.1,8.955,16.783c-.768-.424-.683-5.171-1.963-6.866S.294,1.653.016,1.378,3.067,0,3.067,0" transform="translate(116.783 75.524)"/><path class="d" d="M6.421,9.79C7.35,8.818,8.861,7.8,9.79,8.723,7.593,4.791,4.647.5,3.042,0A9.583,9.583,0,0,0,0,2.677Z" transform="translate(116.783 75.524)"/><path class="b" d="M20.594,0,15.758,1.275C13.335,3.4,4.568,12.58,0,20.28H5.483c3.373-3.444,8.494-8.354,8.494-8.354s10.117-1.786,10.5-8.29A13.872,13.872,0,0,1,20.594,0" transform="translate(96.503 76.923)"/><path class="c" d="M1.762,2.791a13.694,13.694,0,0,0,5.93-1.458A11.606,11.606,0,0,1,6.488,0L1.782,1.147C1.364,1.486.749,2.027,0,2.722a12.5,12.5,0,0,0,1.762.069" transform="translate(110.49 76.923)"/><path class="aa" d="M0,6.6c.874,2.427,3.871,5.944,3.871,5.944,1.061-.934,2.373-2.272,2.373-2.272.562,6.411,1.436,13.2,1.436,13.2l16.8.311c-.687-3.423-4.808-16.058-5.37-17.739S15.547,1.183,13.736,0C11.176,3.423,8.71,3.361,7.212.56,5.276,1.369,0,6.6,0,6.6" transform="translate(104.895 78.322)"/><path class="p" d="M.073.959C-.119,5.244.009,18.183,1.165,24.066c12.581.81,17.716.17,17.716.17-.77-3.133-2.525-9.762-2.525-9.762-4.044,2.046-6.911-.917-7.553-4.817a21.988,21.988,0,0,1,.77-8.5L8.161,0c-1.669,4.6-.77,6.267-1.476,6.778s-4.814.767-5.071.064S.972.384.972.384Z" transform="translate(110.49 78.322)"/><path class="b" d="M2.593,1.181C-.65,4.185-.4,7.941.909,10.069s1.746,2.754,1,4.82.811,5.571,6.549,5.383,9.979-3.505,10.727-8.263c3.056.438,4.553-2.253,3.617-3.756S19.495,6.063,18.622,8C18.31,3,10.763-2.45,2.593,1.181" transform="translate(103.497 58.042)"/><path class="y" d="M.435,9.36c2.214.593,5.807-.932,9.233-6.012a6.9,6.9,0,0,0,5.6,2.583,4.958,4.958,0,0,0,2.59,2.286c-.167,2.54-.376,3.047.251,2.963s1.086-2.413,1.086-2.413L20.28,7.412C18.692,2.079,14.389.639,9.793.089S-1.821,1.4.435,9.36" transform="translate(102.797 57.343)"/><path class="h" d="M0,13.438c1.947-.5,10.345.785,14.861,4.045,1.409-5.365,4.308-8.317,4-12.155C18.708,3.476,8.108-2.989.9,1.634c-1.16,1.4.674,8.543-.9,11.8" transform="translate(107.692 44.755)"/><path class="ab" d="M7.683.009c.066.059-.2.527-.81,1.129A13.419,13.419,0,0,1,4.231,3.1c-.548.324-1.081.609-1.565.86s-.9.5-1.295.67a2.77,2.77,0,0,1-.991.268C.132,4.9,0,4.845,0,4.8c.007-.1.482-.166,1.15-.615.336-.208.729-.513,1.214-.8l1.527-.9A30.617,30.617,0,0,0,6.562.758C7.22.277,7.608-.061,7.683.009" transform="translate(103.497 60.839)"/><path class="ab" d="M4.89.032c.089.154-.971.748-2.345,1.245a9.206,9.206,0,0,1-2.537.8C-.1,1.932.9,1.227,2.3.723A7.243,7.243,0,0,1,4.89.032" transform="translate(104.196 59.441)"/><path class="ab" d="M6.294,2.476c.008.094-.373.237-1.015.3a6.148,6.148,0,0,1-2.5-.307,5.184,5.184,0,0,1-2.2-1.444C.117.489-.05.063.013.01.088-.059.375.241.868.632A7.115,7.115,0,0,0,2.961,1.776c1.759.6,3.321.475,3.332.7" transform="translate(114.685 59.441)"/><path class="ab" d="M5.59.034c.042.062-.213.253-.721.409A7.13,7.13,0,0,1,2.822.7,5.957,5.957,0,0,1,0,.243,10.135,10.135,0,0,1,2.822.15,18.493,18.493,0,0,0,4.749.067c.487-.048.8-.105.841-.033" transform="translate(116.084 62.937)"/><path class="c" d="M.763,2.738c-.015.047-.074.068-.181.056a.584.584,0,0,1-.411-.262A1.052,1.052,0,0,1,.024,1.7,2,2,0,0,1,.382.89,2.127,2.127,0,0,1,1.516.034c.362-.1.6.037.581.128-.014.107-.186.169-.413.349a3.871,3.871,0,0,0-.8.834,1.249,1.249,0,0,0-.326.914c.057.222.252.377.209.478" transform="translate(123.077 66.434)"/><path class="c" d="M2.082.783c-.055.079-.22.054-.443,0a2.721,2.721,0,0,0-.773-.1A.422.422,0,0,0,.62.774a.569.569,0,0,0-.15.24c-.077.2-.116.372-.214.385C.176,1.41.043,1.277,0,.969A.877.877,0,0,1,.138.389.883.883,0,0,1,.8,0,1.452,1.452,0,0,1,1.852.356c.208.184.282.354.23.427" transform="translate(109.091 71.329)"/><path class="c" d="M3.426,0c.082.021.111.278-.015.674a2.281,2.281,0,0,1-.352.664,1.912,1.912,0,0,1-.805.628,1.769,1.769,0,0,1-1.1.076,2.005,2.005,0,0,1-.746-.367c-.345-.288-.45-.531-.39-.583s.306.065.659.221a1.678,1.678,0,0,0,1.3.091,2.519,2.519,0,0,0,1-.909c.219-.307.357-.52.455-.494" transform="translate(110.49 73.427)"/><path d="M3.47.067c.052.031.024.139-.048.3a2.12,2.12,0,0,1-.161.3,2.658,2.658,0,0,1-.5.514L2.334.941C2.225.881,2.168.853,2.079.808A3.281,3.281,0,0,0,1.575.6,1.087,1.087,0,0,0,.9.585C.85.6.813.623.765.639a.562.562,0,0,0-.1.07A1.036,1.036,0,0,0,.49.9c-.2.268-.149.442-.216.493-.033.023-.13,0-.2-.122A.624.624,0,0,1,.038.759,1.011,1.011,0,0,1,.213.433.954.954,0,0,1,.388.261,1.559,1.559,0,0,1,.619.132,1.709,1.709,0,0,1,1.812.084a2.951,2.951,0,0,1,.634.281c.083.048.189.115.235.148A.13.13,0,0,0,2.7.545c.019,0,.037.014.163-.1.1-.081.184-.166.267-.23.165-.13.29-.182.34-.152" transform="translate(113.287 69.231)"/><path d="M.014.68c.051-.048.2.006.439.08L.646.818C.7.833.825.87.815.856.843.849.852.833.833.818.829.817.825.8.822.8v0l0-.037L.829.678A.439.439,0,0,1,.864.519.728.728,0,0,1,1.248.105,1.112,1.112,0,0,1,1.736,0a1.319,1.319,0,0,1,.716.206c.351.225.384.484.318.509C2.69.759,2.534.621,2.247.546A1.2,1.2,0,0,0,1.764.5c-.172.025-.293.089-.315.182a.09.09,0,0,0-.011.051l0,.029c0,.005,0,.007,0,.016l.014.052c.04.138.072.271.122.405l-.158.083a.553.553,0,0,1-.2.073,1.079,1.079,0,0,1-.474-.076,1.392,1.392,0,0,1-.3-.138,1.909,1.909,0,0,1-.188-.131C.038.875-.034.725.014.68" transform="translate(104.895 71.329)"/><path class="y" d="M2.783,1.343c-.051.1-.237.062-.492-.051s-.572-.3-.908-.413C.726.647.06.8,0,.563-.022.459.112.289.387.151A1.535,1.535,0,0,1,1.561.087,2.267,2.267,0,0,1,2.544.8c.2.246.29.447.239.541" transform="translate(113.287 65.734)"/><path class="y" d="M1.387.08C1.466.235,1.134.5.823.8a3.5,3.5,0,0,0-.348.379c-.085.1-.149.206-.244.22S.024,1.312,0,1.1A.924.924,0,0,1,.326.386c.46-.422.995-.454,1.061-.306" transform="translate(104.895 67.832)"/><path class="ab" d="M5.594,1.036c.026.172-1.284.518-2.937.285A5.566,5.566,0,0,1,.646.65C.175.367-.044.1.007.028S.371.059.851.209A12.32,12.32,0,0,0,2.76.642c1.522.217,2.815.19,2.834.393" transform="translate(125.874 72.727)"/><path class="ab" d="M2.787,1.311c-.088.206-.688.017-1.454-.238S-.054.385,0,.147C.058-.075.7-.043,1.5.225S2.88,1.1,2.787,1.311" transform="translate(127.273 72.028)"/><path class="b" d="M11.575.41c-1.492,1.981-7.646,12.2-8.765,12.817S.2,13.6.076,14.032s1.057.681,1.057.681c-1.74,1.053-1.43,3.034.622.743C.7,17.313,1.319,18.3,2.935,15.641c-.746,1.61-.435,2.972,1.057.433a4.281,4.281,0,0,0,1.927-1.486c.311-.557,7.459-7.616,9.7-11.764S11.327.286,11.575.41" transform="translate(106.294 89.51)"/><path class="ac" d="M5.006,0C3.992.127,0,8.973,0,8.973c1.113-.7,4.843,1.776,5.235,3.615C8.049,8.212,9.03,1.11,5.006,0" transform="translate(116.783 81.119)"/><path class="b" d="M11.189,0H5.075C4.482.893,2.54,3.131,2.057,3.986-1.286,5.176,0,5.865,2.014,5.2c-2.1,1.586-.45,2.129.9.5-1.672,2,.729,1.586,2.015-.585.386,1.5,1.393,1.8,1.072-.459C6.737,3.808,9.471,1.669,11.189,0" transform="translate(92.308 95.105)"/><path class="j" d="M.583.011C.662.066.6.261.593.541A8.672,8.672,0,0,0,.684,1.709,2.766,2.766,0,0,1,.5,3.031C.374,3.337.257,3.51.168,3.5S.036,3.263.045,2.939A7.94,7.94,0,0,0,.028,1.761,2.744,2.744,0,0,1,.142.427C.3.078.519-.039.583.011" transform="translate(125.874 86.713)"/><path class="k" d="M12.585,2.78c-.087.177-2.718-1.1-6.213-1.757A23.6,23.6,0,0,0,3.9.685C3.11.623,2.424.512,1.85.485A5.669,5.669,0,0,0,.509.532C.2.586.032.656,0,.613S.108.425.43.282A3.993,3.993,0,0,1,1.854.009c.609-.032,1.319.032,2.087.057a17.5,17.5,0,0,1,2.56.3c3.617.685,6.183,2.273,6.084,2.417" transform="translate(108.392 55.245)"/><path class="k" d="M.6,0A16.646,16.646,0,0,1,.62,3.854,14.34,14.34,0,0,1,.258,7.692,11.336,11.336,0,0,1,.021,3.827C.1,1.686.435-.025.6,0" transform="translate(110.49 47.552)"/><path class="k" d="M.608,0C.74.022.733.867.56,1.815S.25,3.5.127,3.5s-.194-.861-.016-1.83S.486-.019.608,0" transform="translate(112.587 52.448)"/><path class="k" d="M2.046,0a9.224,9.224,0,0,1-.632,3.647A10.691,10.691,0,0,1,.033,6.991a12.481,12.481,0,0,1,.84-3.567A16.7,16.7,0,0,1,2.046,0" transform="translate(120.28 51.049)"/><path class="k" d="M1.32,0c.159.062.078.749-.252,1.555S.176,2.9.038,2.782s.128-.71.437-1.468S1.148-.062,1.32,0" transform="translate(121.678 55.944)"/><path class="b" d="M1.317.618A16.524,16.524,0,0,1,0,8.053c.864,5.177,8.453,5.049,10.49,0A35.931,35.931,0,0,1,9.255,0Z" transform="translate(47.552 42.657)"/><path class="c" d="M9.091,5.371A38.951,38.951,0,0,1,8.445,0L.326.589A13.714,13.714,0,0,1,0,4.644a21.235,21.235,0,0,0,9.091.726" transform="translate(48.252 43.357)"/><path class="ad" d="M52.834,57.343v0c-.085-1.592-1.343-4.941-3.544-5.95,6.976-9.735,5.465-15.971,2.194-26.157-.027.09-2.87,9.661-2.87,14.084,0,1.286.051,2.857.1,4.376.122,3.785.248,7.7-.351,8.115-.495.344-8.838.694-16.532.694-3.555,0-9.808-.079-11.74-.61-.674-.849-.789-3.624-.768-5.8-6.443-1.179-11.664-3.057-15.1-5.431a12.251,12.251,0,0,1-3.145-2.92A5.7,5.7,0,0,1,.014,34.781c-.139-2.091.775-4.457,1.931-7.452a55.617,55.617,0,0,1,4.648-9.182,45.554,45.554,0,0,1,5.985-7.563,42.875,42.875,0,0,1,7.346-5.96A47.138,47.138,0,0,1,28.655.251c.815,1.779,3.22,3.12,5.6,3.12A4.915,4.915,0,0,0,39.078,0l.015,0c1.1.386,10.8,3.85,13.91,6.7,1.5,1.379,3.8,5.59,6.139,11.265A84.8,84.8,0,0,1,63.889,32.7a19.1,19.1,0,0,1-.907,11.286c-1.652,4.082-4.877,8.327-10.147,13.36ZM16.376,23.223c-3.648,3.864-5.12,7.272-4.374,10.13.921,3.526,4.943,5.269,7.259,5.993A150.94,150.94,0,0,0,16.376,23.223Z" transform="translate(18.881 50.35)"/><path class="e" d="M.278,3c-1.528,8.182,3.735,30.337,3.99,39.026A7.76,7.76,0,0,1,.575,43.846a25.277,25.277,0,0,0-.254,6.47s30.945.212,31.073-.423c.424-3.467-1.083-9.958-1.083-9.958-1.719,0-2.674-3.425-2.547-7.294s.255-26.447,1.4-31.268C27.891.8,26.214,0,26.214,0,25.768,6.659,24.9,14.059,24.9,14.059c-3.247.951-16.173,1.459-19.611.317-1.019-4.757-1.719-13-1.719-13Z" transform="translate(37.063 52.448)"/><path class="b" d="M4.54,14.112c-5.942-3.2-6.55,7.263,1.171,4.8.52,4.279.65,5.316,2.6,6.354s11.387,4.15,16.852-.388C26.4,23.449,26.4,5.553,21.979,1.663S3.109.237,4.54,14.112" transform="translate(37.762 18.881)"/><path class="y" d="M3.056,6.088C-1.35,9.828-.313,13.569,1.932,10.872c-.777,4,1.511,5.088,1.511,5.088.734,3.871,2.376,2.045,2.116-.652,2.592-1.218,2.764-5.915,1.468-8.872,4.924,2.087,6.738,2.261,5.875.783,5.355,2.261,4.923-1.566,4.405-1.914,3.713,1.392,1.727-.87,1.727-.87,5.96,1.3,6.391-2.61.777-2.871C16.185-.7,7.461-1.48,3.056,6.088" transform="translate(38.462 16.783)"/><path class="h" d="M6.892,21.678c2.253-2.236,12.477-6.02,18.283-5.762C22.4,3.274,21.536-.165,18.936.006S4.987.437.048,8.864C-.472,10.5,3.34,17.206,6.892,21.678" transform="translate(33.566 2.797)"/><path class="ae" d="M0,3.355C1.284,5.03,7.028,6.294,13.922,6.294c7.162,0,13.082-1.364,14.05-3.136-.01-.233-.025-.467-.046-.7C28.049-.815.427-1.11,0,3.355" transform="translate(39.86 95.105)"/><path class="af" d="M5.512,13.469C4.553,10.978-.308,2.452.015,1.185S2.667-.4,3.249.552,8.875,16,9.522,18.218s.647,4.306,1.617,4.686,3.492,1.583,4.2,3.419-7.631.443-7.631.443,1.164-3.1,1.035-4.242S7,17.332,5.512,13.469" transform="translate(43.357 74.825)"/><path class="k" d="M27.959,0c-.968,1.819-6.884,3.22-14.04,3.22C7.029,3.22,1.289,1.922.006.2a1.221,1.221,0,0,0,0,.274c.126,2.971,4.142,11.678,9.2,13.246a18.751,18.751,0,0,0,12.174-.083C24.052,12.6,28.237,6.683,27.959,0" transform="translate(39.86 97.902)"/><path class="ag" d="M12.578,0c.039.026-.045.234-.236.593-.1.178-.213.4-.368.643l-.6.771a9.953,9.953,0,0,1-.849.826,5.493,5.493,0,0,1-.538.38,3.473,3.473,0,0,1-.6.355,5.788,5.788,0,0,1-2.982.619,7.152,7.152,0,0,1-2.924-.8A8.964,8.964,0,0,1,1.432,1.968,4.736,4.736,0,0,1,.005.139C.092.062.648.74,1.726,1.568A10.265,10.265,0,0,0,3.735,2.784a7.225,7.225,0,0,0,2.7.687,5.592,5.592,0,0,0,2.695-.5,3.106,3.106,0,0,0,.556-.3,5.366,5.366,0,0,0,.51-.318c.3-.257.607-.458.841-.705l.644-.662.445-.55c.25-.3.41-.457.449-.43" transform="translate(46.853 51.748)"/><path d="M2.726,2.1c-.092.023-.188-.221-.383-.545A1.815,1.815,0,0,0,1.424.679a.872.872,0,0,0-.964.451c-.2.3-.3.548-.393.523C.028,1.644.006,1.573,0,1.445A1.52,1.52,0,0,1,.09.911,1.486,1.486,0,0,1,.573.23,1.12,1.12,0,0,1,1.579.049a1.6,1.6,0,0,1,.8.593,2.3,2.3,0,0,1,.344.721,1.609,1.609,0,0,1,.067.526c-.005.127-.028.2-.069.207" transform="translate(48.951 32.168)"/><path d="M2.7,2.092c-.094.022-.188-.259-.353-.631a1.445,1.445,0,0,0-.14-.281A1.157,1.157,0,0,0,2.03.928.463.463,0,0,0,1.558.794a2.478,2.478,0,0,0-1.031.823c-.249.3-.4.52-.485.474s-.061-.361.133-.8A2.19,2.19,0,0,1,1.437.032a.937.937,0,0,1,.994.384,1.637,1.637,0,0,1,.227.449,1.655,1.655,0,0,1,.1.409c.08.5.012.8-.061.818" transform="translate(58.741 32.168)"/><path class="c" d="M3.054,0c.1,0,.2.487.31,1.289A11.627,11.627,0,0,1,3.4,4.49a3.9,3.9,0,0,1-.671,1.748l-.141.18-.171.156a1.294,1.294,0,0,1-.378.261,1.771,1.771,0,0,1-.8.157A1.714,1.714,0,0,1,.206,6.626c-.2-.176-.23-.328-.191-.349s.147.048.345.121a1.93,1.93,0,0,0,.866.1c.761-.007,1.287-.959,1.454-2.116a25.655,25.655,0,0,0,.169-3.072C2.867.508,2.951,0,3.054,0" transform="translate(53.846 31.469)"/><path class="c" d="M5.588.918c.047.058-.172.342-.676.66a3.575,3.575,0,0,1-.989.434A2.688,2.688,0,0,1,2.52,2a3.784,3.784,0,0,1-1.183-.6A7.13,7.13,0,0,1,.565.747C.163.353-.05.08.01.015s.39.095.867.4a7.882,7.882,0,0,0,1.839.99,3.061,3.061,0,0,0,1.967-.211C5.2,1,5.526.838,5.588.918" transform="translate(51.748 39.161)"/><path class="y" d="M.234,3.5a2.356,2.356,0,0,1,3.949-.215C4.5-.583-1.208-1.656.234,3.5" transform="translate(47.552 26.573)"/><path class="y" d="M3.962,3.5A2.355,2.355,0,0,0,.012,3.282C-.3-.583,5.4-1.656,3.962,3.5" transform="translate(59.441 25.874)"/><path class="c" d="M2.273,2.787c-.095-.058,0-.312-.032-.636a1.5,1.5,0,0,0-.6-1.031A2.36,2.36,0,0,0,.527.568a.314.314,0,0,0-.26.054C.2.674.16.745.1.742S-.006.681,0,.52A.482.482,0,0,1,.117.242a.731.731,0,0,1,.328-.2,1.942,1.942,0,0,1,1.665.5,2.01,2.01,0,0,1,.59.818,1.409,1.409,0,0,1,.052.865c-.14.48-.413.617-.48.566" transform="translate(39.161 33.566)"/><path class="ag" d="M2.187,0c.453-.088.945,1.011.3,3.252S.751,7.433.109,6.905C-.345,4.092.675.708,2.187,0" transform="translate(40.559 90.21)"/><path class="b" d="M1.1,3c2.236.573,3.833.827,5.366-.573S9.337-.817,11.381.392A14.183,14.183,0,0,1,15.47,4.654c.447.7,1.022,2.99.192,3.181s-2.811-1.654-6.452-.382S2.31,8.662.2,7.517C-.373,6.245.393,3.7,1.1,3" transform="translate(39.86 88.112)"/><path class="ah" d="M0,0C2.067,1.31,7.9,1.842,8.392,1.965c-1.406.982-2.48,4.667-1.86,6.427A44.815,44.815,0,0,1,1.158,7.368" transform="translate(34.266 88.112)"/><path class="b" d="M11.25,0c-1.158,1-2.4,2.084-2.4,2.084C6.37,1.167,3.806,1.75,3.723,2.5S7.114,3.917,7.114,3.917C6.784,6.834-.082,9.75,0,10.5s4.384,1.167,6.865-.25c2.4.334,5.212-2.417,7.114-4.917.082-3-.662-4.667-2.73-5.334" transform="translate(57.343 102.098)"/><path class="c" d="M5.584,1.38C5.451,1.524,4.4.8,2.872.658S.06.809,0,.621C-.025.542.265.369.792.215A5.79,5.79,0,0,1,2.956.031,4.607,4.607,0,0,1,5,.741c.45.308.639.578.581.639" transform="translate(50.35 93.007)"/><path class="c" d="M4.18,1.378C4.049,1.509,3.259.99,2.122.768A7.022,7.022,0,0,0,.67.611C.294.608.045.633,0,.54S.173.258.593.124A3.356,3.356,0,0,1,2.263.085,3.619,3.619,0,0,1,3.778.779c.338.278.465.533.4.6" transform="translate(50.35 90.909)"/><path class="c" d="M3.489,1.34c-.1.193-.9-.123-1.8-.469A5.08,5.08,0,0,0,.556.571C.269.533.063.56.009.468-.041.392.114.17.5.06A2.417,2.417,0,0,1,1.938.189c1.024.4,1.634.989,1.551,1.151" transform="translate(50.35 89.51)"/><path class="c" d="M6.977,0c.075.044-.105.507-.541,1.182A9.682,9.682,0,0,1,4.3,3.515a7.919,7.919,0,0,1-1.533.917,5.648,5.648,0,0,1-1.415.413C.509,4.966-.006,4.838,0,4.765c0-.1.5-.144,1.242-.364a7.533,7.533,0,0,0,1.25-.5A10.05,10.05,0,0,0,3.88,3.01,16.331,16.331,0,0,0,6.055.914c.518-.584.839-.959.922-.91" transform="translate(58.741 108.392)"/><path class="c" d="M5.569.006c.081.041-.034.414-.359.962a7.115,7.115,0,0,1-1.694,1.9A6.672,6.672,0,0,1,1.131,4.056c-.674.17-1.11.166-1.13.087-.056-.191,1.567-.579,3.049-1.757S5.375-.1,5.569.006" transform="translate(61.538 109.091)"/><path class="ah" d="M4.721,0A24.882,24.882,0,0,1,0,10.735c2.2,1.022,3.466,4.43,3.55,6.049C10.5,10.05,13.67,4.876,14.685,0Z" transform="translate(67.832 90.909)"/><path class="k" d="M17.482.066A16.473,16.473,0,0,1,14.8.642,54.183,54.183,0,0,0,8.466,2.415,49.689,49.689,0,0,0,2.4,4.957c-.755.376-1.336.727-1.741.97s-.617.4-.651.362S.14,6.043.5,5.71A11.893,11.893,0,0,1,2.165,4.53,33.276,33.276,0,0,1,8.248,1.764a34.942,34.942,0,0,1,6.473-1.6,8.274,8.274,0,0,1,2.762-.1" transform="translate(39.161 14.685)"/><path class="k" d="M4.183,9.087c-.082.057-.4-.455-.738-1.322s-.76-2.08-1.225-3.409A27.083,27.083,0,0,0,.9,1.054,2.324,2.324,0,0,0,.321.265C.155.14.019.169,0,.117-.02.091.125-.06.416.026a1.883,1.883,0,0,1,.847.767A14.7,14.7,0,0,1,2.8,4.12c.471,1.346.818,2.588,1.059,3.486a6.155,6.155,0,0,1,.327,1.481" transform="translate(48.951 2.797)"/><path class="k" d="M1.29,4.895a8.043,8.043,0,0,1-.7-2.435A14.333,14.333,0,0,1,.023.007C.086-.04.292.164.518.575A7.049,7.049,0,0,1,1.142,2.3a4.809,4.809,0,0,1,.147,2.6" transform="translate(53.147 3.497)"/><path class="k" d="M2.766,6.291c-.086.037-.328-.274-.669-.8A18.208,18.208,0,0,1,.907,3.351C.083,1.6-.142.039.081,0A23.849,23.849,0,0,1,1.524,3.092c.394.848.771,1.618,1,2.2s.325.963.24,1" transform="translate(39.86 6.294)"/><path class="k" d="M4.884,8.385c-.176.127-1.643-1.57-3.077-3.877a17.584,17.584,0,0,1-1.6-3.1A2.654,2.654,0,0,1,.006.334.417.417,0,0,1,.164.018C.248-.009.294,0,.3.017S.293.071.266.113A.47.47,0,0,0,.284.327a4.635,4.635,0,0,0,.4.9c.4.762,1.037,1.8,1.746,2.938,1.42,2.285,2.6,4.119,2.459,4.218" transform="translate(35.664 8.392)"/><path class="k" d="M3.476,6.989c-.08.045-.342-.3-.763-.853a27.508,27.508,0,0,1-1.568-2.27A7.909,7.909,0,0,1,.052,1.217C-.076.461.064-.013.139,0c.1.008.127.448.349,1.092a12.684,12.684,0,0,0,1.191,2.4c.55.907,1.076,1.73,1.407,2.371s.466,1.083.39,1.125" transform="translate(34.266 10.49)"/><path class="ag" d="M1.368,9.089A12.385,12.385,0,0,1,.24,4.648,14.8,14.8,0,0,1,.117,0,29.29,29.29,0,0,1,.783,4.54a40.358,40.358,0,0,1,.586,4.549" transform="translate(34.965 67.832)"/><path class="ag" d="M.041,9.79c-.2-.05.328-2.28,1.147-4.955L2.208,1.408C2.468.531,2.638-.014,2.735,0s.09.591-.052,1.508A27.474,27.474,0,0,1,1.848,5.02C1.024,7.712.213,9.833.041,9.79" transform="translate(68.531 70.629)"/><path class="ag" d="M10.489,4.087a4.337,4.337,0,0,1-1.731.09,13.394,13.394,0,0,1-4.087-.87A12.6,12.6,0,0,1,1.131,1.23,7.152,7.152,0,0,1,.252.386C.062.172-.025.04.006.01c.154-.158,2,1.607,4.921,2.73A18.794,18.794,0,0,0,8.812,3.746a5.611,5.611,0,0,1,1.677.341" transform="translate(31.469 86.014)"/><path class="ag" d="M6.993,1.241c0,.086-.409.168-1.063.156a17.177,17.177,0,0,1-2.521-.265A17.315,17.315,0,0,1,.948.538C.329.332-.029.121,0,.041S.425.013,1.058.1s1.5.238,2.463.405S5.35.831,5.977.952s1.014.2,1.016.29" transform="translate(34.266 95.804)"/><path class="ai" d="M1.395,2.349c.026.082-.08.276-.372.4a.6.6,0,0,1-.593-.075,1.2,1.2,0,0,1-.408-.809A3.12,3.12,0,0,1,.184.456C.3.136.421-.028.491,0S.578.258.568.581a7.551,7.551,0,0,0,0,1.151c.024.743.782.4.823.618" transform="translate(43.357 27.972)"/><path class="ai" d="M2.8,3c0,.019-.019.038-.059.056l.047-.028A3.107,3.107,0,0,1,2.23,4.223a2.252,2.252,0,0,1-.4.428,1.043,1.043,0,0,1-.709.242A1.078,1.078,0,0,1,.4,4.5a1.483,1.483,0,0,1-.359-.76,3.935,3.935,0,0,1,.1-1.591A8.006,8.006,0,0,1,.529.975C.8.334,1.02-.028,1.1,0S1.1.459.943,1.12C.868,1.45.775,1.841.7,2.271a4.113,4.113,0,0,0-.052,1.34.892.892,0,0,0,.2.456.546.546,0,0,0,.327.223c.207.046.5-.179.7-.392.415-.442.676-.839.818-.928l.045-.028h0c.04.018.059.037.059.056" transform="translate(40.559 25.175)"/><path class="ai" d="M2.651,2.8c-.1-.01-.15-.238-.312-.525a4.073,4.073,0,0,0-.81-1A5.5,5.5,0,0,0,.488.512C.2.348,0,.27,0,.163s.233-.2.617-.148A2.584,2.584,0,0,1,1.942.7a2.657,2.657,0,0,1,.826,1.384c.086.448-.037.723-.117.708" transform="translate(48.951 22.378)"/><path class="ai" d="M2.895.084C2.9.047,2.973.021,3.1.008a1.075,1.075,0,0,1,.242,0c.048,0,.1.007.155.015L3.736.1c.145.071.33.19.308.383a.5.5,0,0,1-.12.256,1.175,1.175,0,0,1-.279.2A1.071,1.071,0,0,1,3.505,1l-.06.023c-.02.008,0,0-.011.006s0,.007,0,.009.007.006.011.006h0s-.036-.005-.035.01c-.1-.036.3.177.456.338a.978.978,0,0,1,.318.484c.031.133,0,.21-.041.217-.1.017-.212-.2-.577-.392A5.687,5.687,0,0,0,2.559,1.3L.494.662,0,.5l1.542.08L1.894.6,2.13.61l.461.016a1.892,1.892,0,0,0,.287-.03c.084-.013.177-.02.248-.039L3.331.5c.064-.021.06-.008.095-.034S3.435.417,3.414.392L3.369.354,3.254.3c-.071-.035-.14-.061-.2-.086-.11-.05-.171-.1-.165-.134" transform="translate(51.748 20.28)"/><path class="b" d="M7.206,0c-1.622.517-3.2,1.291-3.331,1.206-1.1-.344-4.91.043-2.411.9-1.885.56-1.972,1.464-.131.947-2.016,1.291-.789,1.722.657.818C.412,4.994,1.6,5.166,2.56,4.52s2.016.43,3.331-.646c2.718-.3,3.2-.947,3.2-.947A14.037,14.037,0,0,0,7.206,0" transform="translate(139.161 102.797)"/><path class="q" d="M13.865,0C10.976,1.888,7.253,4.972,0,6.8A6.079,6.079,0,0,1,1.541,10.49c3.659-.063,11.211-2.9,13.009-4.531S14.828.063,13.865,0" transform="translate(144.755 96.503)"/><path class="m" d="M.638,0,15.257.07,15.385,2.8,0,2.587" transform="translate(156.643 148.252)"/><path class="m" d="M4.016,0C3.417,3.964.539,47.255,0,50.842c0,.881,2.1,1.384,2.757.252C3.417,46.563,6.294.252,6.294.252Z" transform="translate(153.147 137.063)"/><path class="m" d="M2.278,0c.6,3.964,3.477,47.255,4.016,50.842,0,.881-2.1,1.384-2.757.252C2.877,46.563,0,.252,0,.252Z" transform="translate(170.629 137.063)"/><path class="m" d="M4.351.217C-.491.943-.873,3.7,1.166,5.881s14.143,4.211,20.9.29c2.676-1.887,3.568-4.792.382-5.083S10.594-.509,4.351.217" transform="translate(153.147 129.371)"/><path class="n" d="M.061.421a3.748,3.748,0,0,0,1.1,3.205C3.2,5.94,15.31,8.1,22.065,3.934,23.594,2.788,24.536,1.291,24.472.16c-.08-.054-.157-.105-.241-.16C18.388,4.959,1.224,3.231.061.421" transform="translate(153.147 132.867)"/><path class="aj" d="M0,.139S2.974-.473,4.176.872s2.91,4.461,1.708,4.706S3.67,3.316.7,3.378" transform="translate(173.427 127.273)"/><path class="ak" d="M10.39,0c.367,1.661-.529,7.33-2.9,14.015,4.037,0,8,.685,8.32,1a4.179,4.179,0,0,1,.856,3.675c-9.665-.083-14.722.747-16.149-.5s.53-14.16.53-14.16S7.249.208,10.39,0" transform="translate(158.042 111.888)"/><path class="al" d="M0,.139S2.974-.473,4.176.872s2.91,4.461,1.708,4.706S3.67,3.316.7,3.378" transform="translate(174.126 130.07)"/><path class="am" d="M10.823,0c.382,1.661-.552,7.33-3.016,14.015,4.206,0,8.338.685,8.666,1a4.047,4.047,0,0,1,.892,3.675C7.3,18.6,2.03,19.434.543,18.188s.552-14.16.552-14.16S7.552.208,10.823,0" transform="translate(158.741 114.685)"/><path class="ad" d="M1.98,1.94C.8,6.195.928,15.331,0,20.962c3.589,2.315,11.449,1.5,13.986-.375C13.12,12.828,12.129,3.379,7.179,0a28.818,28.818,0,0,0-5.2,1.94" transform="translate(155.944 93.706)"/><path class="b" d="M8.265,0C6.739.495,3.77,2.143,3.646,2.061c-1.031-.329-4.619.041-2.268.866-1.773.536-1.856,1.4-.124.907-1.9,1.237-.742,1.649.619.783-1.485,1.072-.371,1.237.536.618s1.9.412,3.134-.618c2.557-.288,4.247-.33,4.247-.33S8.966.618,8.265,0" transform="translate(141.259 108.392)"/><path class="e" d="M11.485,1.1c-.064,2.787-5.3,3.336-5.041,10.62s5.423,6.271,10.592,4.5c.191.887.447,1.773.447,1.773a14.288,14.288,0,0,0-4.275.76c-.51,5.194-1.4,16.658-2.68,17.545C7.274,36.736,0,34.962,0,34.962c1.531-4.434,3.063-15.075,3.382-18.938s.447-9.437.447-9.437L5.934,6.9c1.4-3.04,4.807-5.447,5-6.9a1.851,1.851,0,0,1,.553,1.1" transform="translate(152.448 93.007)"/><path class="ah" d="M0,10.752c1.015.865,1.523,3.4,1.4,4.632C7.867,15.446,13.768,11,15.608,7.417s1.454-7.6-.7-7.411C11.484.316,10.025,8.282,0,10.752" transform="translate(148.951 97.203)"/><path class="c" d="M2.861.074C1.687.867-.507,2.317.106,2.707c.531.337,2.666-.226,3.388-2.493.045-.378-.633-.14-.633-.14" transform="translate(150.35 90.21)"/><path class="b" d="M19.462,16.171C23.186,8.724,23,1.528,12.773.151S1.665,7.1,2.107,12.792c-2.714.25-2.9.814,0,2.879.274.772.295,1.356.484,1.481a6.059,6.059,0,0,0,3.7-.333c-1.346,2.92-2.987,2.669-2.987,2.669,2.272,1.877,11.549,5.069,16.156-3.317" transform="translate(147.552 74.126)"/><path class="f" d="M4.057.144C1.977-.021-.613,1.675.13,2.771c.637,1.3,4.012,3.165,7.9,2.855.573,1.117.892,1.8,2.165,1.924a1.855,1.855,0,0,0,.318,2.358c-.955,1.8-.191,2.917.382,2.917s0-1.924,2.038-2.048,2.611,3.661-1.337,4.406c-1.083,1.241.446.993.637.931-2.038,1.613-.255,4.654,2.165,2.979a10.085,10.085,0,0,0,3.545-12.7C14.882,1.551,7.368-.6,4.057.144" transform="translate(151.049 74.126)"/><path class="h" d="M0,17.492c2.276-.124,8.66,1.182,13.907,6.284a9.062,9.062,0,0,1,3.856-4.169c1.2-.56,6.7-4.106,5.942-7.9a12.889,12.889,0,0,0-4.362-8.337C16.688,1.254,15.234.632,11,.134S4.8.507,3.6,3.058s.063,11.7-3.6,14.434" transform="translate(155.245 56.643)"/><path d="M2.762,1.814c-.085.057-.271-.124-.539-.394S1.565.764,1.206.75C.872.712.6,1.146.473,1.486s-.19.608-.291.612C.1,2.1-.026,1.84,0,1.364A1.8,1.8,0,0,1,.268.549,1.1,1.1,0,0,1,1.225,0a1.4,1.4,0,0,1,.924.456,2.481,2.481,0,0,1,.452.636c.2.393.235.672.16.721" transform="translate(151.049 84.615)"/><path class="f" d="M2.765,1.391c-.072.044-.2-.1-.418-.253A2.666,2.666,0,0,0,1.44.7,2.093,2.093,0,0,0,.478.674C.229.726.06.8.01.721-.033.659.062.434.342.236A1.484,1.484,0,0,1,1.553.055,1.83,1.83,0,0,1,2.605.789c.2.305.223.567.16.6" transform="translate(151.049 81.119)"/><path class="e" d="M0,5.483C.03,3.321,2.861-.779,3.548.129S5.422,2.937,4.636,3.545.587,6.074,0,5.483" transform="translate(169.231 104.895)"/><path class="e" d="M0,.115C1.252-.3,6.311.445,6.294,1.51S4.541,4.3,3.792,4.191.181.692,0,.115" transform="translate(169.231 109.79)"/><path class="e" d="M0,0C.293,1.016,2.188,8.392,2.188,8.392L3.5,8S1.09.437,0,0" transform="translate(169.231 109.79)"/><path class="k" d="M11.183,5.588c-.067.067-.628-.383-1.53-1.1A28.567,28.567,0,0,0,5.985,1.957,15.709,15.709,0,0,0,3.773.952,11.214,11.214,0,0,0,1.852.467,12.577,12.577,0,0,1,0,.234,3.627,3.627,0,0,1,1.9.011a8.965,8.965,0,0,1,2.06.373A12.916,12.916,0,0,1,6.306,1.392,18.091,18.091,0,0,1,9.96,4.147c.837.813,1.284,1.379,1.224,1.44" transform="translate(158.741 69.93)"/><path class="k" d="M2.069,0c.1.037-.062.618-.29,1.55s-.5,2.224-.717,3.672S.682,8,.518,8.955.2,10.5.1,10.489s-.12-.613-.087-1.581A34.468,34.468,0,0,1,.353,5.127a17.8,17.8,0,0,1,.941-3.713c.36-.92.69-1.445.775-1.413" transform="translate(160.14 58.741)"/><path class="k" d="M.06,9.79a4.277,4.277,0,0,1,0-1.6,23.267,23.267,0,0,1,.611-3.8A9.774,9.774,0,0,1,2.249.882,2.89,2.89,0,0,1,3.071.072C3.336-.06,3.505.023,3.5.06c0,.054-.137.074-.3.237a4.8,4.8,0,0,0-.6.877,13.01,13.01,0,0,0-1.332,3.4C.9,5.98.682,7.3.49,8.259S.145,9.8.06,9.79" transform="translate(162.937 56.643)"/><path class="k" d="M6.273,0c.166.058-.649,2.2-2.467,4.347C2.007,6.5.109,7.81.007,7.684-.123,7.539,1.546,6.04,3.291,3.95,5.054,1.871,6.1-.073,6.273,0" transform="translate(168.531 66.434)"/><path class="k" d="M4.882.013c.131.127-.753,1.25-2.158,2.182S.082,3.624,0,3.468C-.082,3.3,1.029,2.534,2.382,1.626S4.757-.116,4.882.013" transform="translate(169.93 72.727)"/><path class="i" d="M1.845.114A2.489,2.489,0,0,1,3.429.1,3.588,3.588,0,0,1,5.056.838a1.525,1.525,0,0,1,.537,1.068,1.854,1.854,0,0,1-.42,1.2,2.948,2.948,0,0,1-1.957,1.04A5.236,5.236,0,0,1,1.475,4.1,2.607,2.607,0,0,1,0,3.5c.033-.08.586.144,1.522.22a5.876,5.876,0,0,0,1.616-.068,2.622,2.622,0,0,0,1.626-.884,1.364,1.364,0,0,0,.318-.839,1.035,1.035,0,0,0-.347-.715A3.665,3.665,0,0,0,3.34.472C2.444.19,1.849.2,1.845.114" transform="translate(155.245 75.524)"/><path class="i" d="M2.707,1.4c-.078,0-.121-.184-.283-.357A1.82,1.82,0,0,0,1.551.593C.74.375.013.361,0,.219S.742-.137,1.686.111A1.555,1.555,0,0,1,2.725.854c.146.338.036.553-.018.544" transform="translate(157.343 74.825)"/><path class="i" d="M4.884,0c.049.024-.052.281-.4.618a3.052,3.052,0,0,1-1.88.77A3.7,3.7,0,0,1,.585.925C.15.67-.036.445.006.41s.317.1.759.27a4.354,4.354,0,0,0,1.8.312A3.424,3.424,0,0,0,4.238.42c.372-.254.58-.452.646-.416" transform="translate(159.441 79.72)"/><path class="i" d="M2.041.005c.141.034.049.661-.636,1.116a1.67,1.67,0,0,1-1,.274C.135,1.374-.01,1.282,0,1.216.03,1.071.574,1.045,1.069.7c.508-.324.818-.758.973-.7" transform="translate(162.238 81.818)"/><path class="i" d="M2.057,2.491c.016.054-.275.2-.834.287a2.175,2.175,0,0,1-.487.01A.9.9,0,0,1,.142,2.53a.64.64,0,0,1-.108-.616A1.64,1.64,0,0,1,.3,1.4,3.98,3.98,0,0,1,1.91.183c.506-.21.875-.207.886-.15S2.516.2,2.112.458A5.152,5.152,0,0,0,.769,1.638c-.2.253-.3.553-.213.651.07.117.407.166.641.167.5,0,.842-.032.86.035" transform="translate(163.636 88.811)"/><path class="c" d="M.25,2.1c-.1.011-.228-.155-.247-.448A1.6,1.6,0,0,1,.371.57,1.655,1.655,0,0,1,.949.117a1.313,1.313,0,0,1,.659-.11c.383.053.521.227.484.3-.039.094-.241.1-.451.175a1.376,1.376,0,0,0-.634.474C.577,1.491.462,2.078.25,2.1" transform="translate(162.937 86.014)"/><path class="i" d="M.468,1.986a.109.109,0,0,1-.075.1.192.192,0,0,1-.228-.063A.77.77,0,0,1,0,1.5,1.972,1.972,0,0,1,.071.938C.256.228.625-.109.688.031A4.206,4.206,0,0,1,.417,1.153a1.47,1.47,0,0,0-.075.561c.027.111.136.187.127.271" transform="translate(165.734 89.51)"/><path class="an" d="M.54.844C-1.58,3.432,3.013,9.2,6.147,6.1S2.873-2,.54.844" transform="translate(31.469 106.294)"/><path class="ao" d="M7.2.939C5.15-1.523-1.64,1.222.367,4.94s9.26-1.091,6.835-4" transform="translate(36.364 108.392)"/><path class="ap" d="M.028,6.392c0,3.535-.064,20.455,0,20.707s10.991.189,11.949.063a13.28,13.28,0,0,0,3.834-2.02c.192-.253.319-18.624.256-18.813s-2.428-2.652-2.492-2.9S13.447.458,13.192.205,2.776-.11,2.712.268s.192,2.588-.064,2.9a28.982,28.982,0,0,0-2.62,3.22" transform="translate(16.084 90.21)"/><path class="aq" d="M0,3.163C0,4.342.374,21.5.738,23.776a14.006,14.006,0,0,0,3.878-2.014c.2-.253.327-18.662.262-18.852S2.39.253,2.324,0A21.246,21.246,0,0,0,0,3.163" transform="translate(27.273 93.706)"/><path class="ar" d="M0,3.251c2.38.135,10.764.321,11.089.214C11.465,3.341,13.031.43,13.282.306A103.817,103.817,0,0,0,2.569.058,28.431,28.431,0,0,0,0,3.217Z" transform="translate(16.084 93.007)"/></g></svg>