<svg xmlns="http://www.w3.org/2000/svg" width="76" height="76" viewBox="0 0 76 76"><defs><style>.a{fill:#fbfbfb;}</style></defs><path class="a" d="M20,10A10,10,0,1,1,10,0,10,10,0,0,1,20,10" transform="translate(30.154)"/><path class="a" d="M12,6A6,6,0,1,1,6,0a6,6,0,0,1,6,6" transform="translate(34.133 64)"/><path class="a" d="M6,3C6,7,0,7,0,3S6-1,6,3" transform="translate(60.215 15.785)"/><path class="a" d="M14,7A7,7,0,1,1,7,0a7,7,0,0,1,7,7" transform="translate(9.785 54.215)"/><path class="a" d="M8,4C8,9.331,0,9.331,0,4S8-1.333,8,4" transform="translate(68 36.001)"/><path class="a" d="M16,8A8,8,0,1,1,8,0a8,8,0,0,1,8,8" transform="translate(0 32)"/><path class="a" d="M10,5c0,6.664-10,6.664-10,0S10-1.667,10,5" transform="translate(58.215 56.214)"/><path class="a" d="M18,9A9,9,0,1,1,9,0a9,9,0,0,1,9,9" transform="translate(7.785 9.785)"/></svg>