<svg xmlns="http://www.w3.org/2000/svg" width="28.299" height="49.459" viewBox="0 0 28.299 49.459"><defs><style>.a{fill:#d8d8d8;}</style></defs><g transform="translate(-0.417 -0.229)"><path class="a" d="M28.072,11.646A14.192,14.192,0,0,0,16.667.241,13.9,13.9,0,0,0,5.052,3.313,14.109,14.109,0,0,0,0,14.147a3.542,3.542,0,1,0,7.084,0,7.2,7.2,0,0,1,2.5-5.416A7.061,7.061,0,1,1,16.3,20.867a8.338,8.338,0,0,0-5.729,8.073v4.531a3.542,3.542,0,1,0,7.084,0l0-4.533a1.347,1.347,0,0,1,.834-1.3,14.038,14.038,0,0,0,9.582-15.989Z" transform="translate(0.417 0.23)"/><path class="a" d="M4.48,0A4.48,4.48,0,1,0,8.96,4.48,4.479,4.479,0,0,0,4.48,0Z" transform="translate(10.103 40.729)"/></g></svg>