<svg xmlns="http://www.w3.org/2000/svg" width="39.618" height="50" viewBox="0 0 39.618 50"><defs><style>.a{fill:#b55c3c;}.b{fill:#cc7556;}.c{fill:#fdd78d;}.d{fill:#fdf7bd;}.e{fill:#f4aa39;}.f{fill:#f5b65d;}.g{fill:#fbc56d;}.h{fill:#f5dc90;}.i{fill:#ffe899;}.j{fill:#fdbf43;}</style></defs><path class="a" d="M10.656,1.8V31.715A4.26,4.26,0,0,1,3.568,34.97,24.576,24.576,0,0,1,0,30.945V1.8A1.79,1.79,0,0,1,1.776,0h7.1A1.79,1.79,0,0,1,10.656,1.8Z" transform="translate(0 9.016)"/><path class="b" d="M36.066,9.773V30.794a24.561,24.561,0,0,1-3.582,3.99,9.274,9.274,0,0,1-3.692,1.631A23.1,23.1,0,0,1,0,13.958V1.794A1.793,1.793,0,0,1,1.791,0H34.274a1.793,1.793,0,0,1,1.791,1.794Z" transform="translate(3.552 9.016)"/><path class="c" d="M32.514.6V31.222A24.384,24.384,0,0,1,0,31.222V.6A.6.6,0,0,1,.6,0H31.916A.6.6,0,0,1,32.514.6Z" transform="translate(3.552 12.568)"/><path class="d" d="M32.412.6v17.42c0,5.595.477,5.578,2.272,9.366a.486.486,0,0,1-.128.464C29.974,32.4,14.182,36.6,2.637,32.464a.48.48,0,0,1-.307-.36C.78,24.28,0,22.429,0,14.449V.6A.6.6,0,0,1,.6,0h31.22A.6.6,0,0,1,32.412.6Z" transform="translate(3.552 12.295)"/><path class="e" d="M15.027,4.879v.976a.982.982,0,0,1-.989.976H.989A.982.982,0,0,1,0,5.855V4.879A4.917,4.917,0,0,1,4.943,0h5.141A4.917,4.917,0,0,1,15.027,4.879Z" transform="translate(12.295 7.104)"/><path class="f" d="M3.235,19.946H1.915a1.888,1.888,0,0,1-1.4-.617,1.949,1.949,0,0,1-.506-1.477L.659,9.958H4.491l.652,7.895a1.947,1.947,0,0,1-.505,1.476A1.887,1.887,0,0,1,3.235,19.946ZM17.537,1.5H10.6a.5.5,0,0,1-.5-.5V.5a.5.5,0,0,1,.5-.5h6.936a.5.5,0,0,1,.5.5V1A.5.5,0,0,1,17.537,1.5Z" transform="translate(9.836 21.858)"/><path class="g" d="M7.377,1.463v4.93A2.448,2.448,0,0,1,4.918,8.831v4.128H5.41a.488.488,0,1,1,0,.975H1.967a.488.488,0,1,1,0-.975h.492V8.831A2.448,2.448,0,0,1,0,6.393V1.463A1.468,1.468,0,0,1,1.37,0a.1.1,0,0,1,.105.1v5.56a.735.735,0,0,0,.773.731.748.748,0,0,0,.7-.751V.731a.738.738,0,0,1,1.476,0v4.93a.735.735,0,0,0,.773.731.748.748,0,0,0,.7-.751V.1A.1.1,0,0,1,6.007,0,1.468,1.468,0,0,1,7.377,1.463Z" transform="translate(8.743 18.579)"/><path class="h" d="M7.452,10.656H.5a.5.5,0,0,1-.5-.508V9.641a.5.5,0,0,1,.5-.508H7.452a.5.5,0,0,1,.5.508v.508A.5.5,0,0,1,7.452,10.656Zm2.98-3.045H.5A.5.5,0,0,1,0,7.1V6.6a.5.5,0,0,1,.5-.508h9.935a.5.5,0,0,1,.5.508V7.1A.5.5,0,0,1,10.432,7.611ZM9.439,4.567H.5A.5.5,0,0,1,0,4.059V3.552a.5.5,0,0,1,.5-.508H9.439a.5.5,0,0,1,.5.508v.507A.5.5,0,0,1,9.439,4.567Zm.993-3.045H.5A.5.5,0,0,1,0,1.015V.508A.5.5,0,0,1,.5,0h9.935a.5.5,0,0,1,.5.508v.508A.5.5,0,0,1,10.432,1.522Z" transform="translate(19.945 27.049)"/><path class="i" d="M5.283,1.981c-.4,0-.727-.445-.727-.991S4.882,0,5.283,0s.728.444.728.99S5.684,1.981,5.283,1.981Zm-2.278,0c-.4,0-.727-.445-.727-.991S2.6,0,3.005,0s.728.444.728.99S3.407,1.981,3.005,1.981Zm-2.278,0C.326,1.981,0,1.536,0,.99S.326,0,.727,0s.728.444.728.99S1.129,1.981.727,1.981Z" transform="translate(19.945 39.891)"/><path class="j" d="M12.568,11.475H.992a1,1,0,0,1-.992-1C0,10.465.084,9.2.236,8.266A1.381,1.381,0,0,1,1.241,7.145l.009,0C1.128,6.76,1.009,6.413.883,6.08A4.5,4.5,0,0,1,4.743.011C4.849,0,4.956,0,5.061,0A4.419,4.419,0,0,1,8.239,1.342a4.516,4.516,0,0,1,.98,4.771c-.126.327-.245.662-.363,1.026a5,5,0,0,1,3.712,4.335ZM5.058,2C5,2,4.938,2,4.879,2a2.5,2.5,0,0,0-2.141,3.37c.2.532.381,1.074.538,1.612H6.827c.159-.536.342-1.073.544-1.594a2.5,2.5,0,0,0,.167-.9A2.487,2.487,0,0,0,5.058,2Z" transform="translate(14.754)"/></svg>