<svg xmlns="http://www.w3.org/2000/svg" width="53.333" height="50" viewBox="0 0 53.333 50"><defs><style>.a{fill:#c5d3dd;}.b{fill:#deecf1;}.c{fill:#ffd396;}.d{fill:#61d7a8;}.e{fill:#00ab94;}</style></defs><path class="a" d="M4.687,9.375A4.69,4.69,0,1,1,9.375,4.687,4.693,4.693,0,0,1,4.687,9.375Zm0-6.251A1.562,1.562,0,1,0,6.25,4.687,1.546,1.546,0,0,0,4.687,3.125Z" transform="translate(21.979 12.5)"/><path class="a" d="M4.688,4.688A4.681,4.681,0,0,1,0,9.375V6.25A1.547,1.547,0,0,0,1.563,4.688,1.547,1.547,0,0,0,0,3.125V0A4.681,4.681,0,0,1,4.688,4.688Z" transform="translate(26.667 12.5)"/><path class="b" d="M46.979,23.438v6.25H0v-6.25a23.49,23.49,0,0,1,46.979,0Z" transform="translate(3.229 18.75)"/><path class="b" d="M23.542,23.438v6.25H0V0A23.535,23.535,0,0,1,23.542,23.438Z" transform="translate(26.667 18.75)"/><path class="a" d="M0,0H53.333V3.125H0Z" transform="translate(0 46.875)"/><path class="c" d="M9.375,15.625H6.25V12.869A4.069,4.069,0,0,0,3.988,9.21,7.181,7.181,0,0,1,0,2.756V0H3.125V2.756A4.069,4.069,0,0,0,5.387,6.415a7.181,7.181,0,0,1,3.988,6.455Z" transform="translate(9.479)"/><path class="c" d="M9.375,15.625H6.25V12.869A4.069,4.069,0,0,0,3.988,9.21,7.181,7.181,0,0,1,0,2.756V0H3.125V2.756A4.069,4.069,0,0,0,5.387,6.415a7.181,7.181,0,0,1,3.988,6.455Z" transform="translate(3.229 3.125)"/><path class="d" d="M23.438,0a10.9,10.9,0,0,0-9.375,5.406A10.9,10.9,0,0,0,4.688,0H0V1.563A10.95,10.95,0,0,0,10.938,12.5h6.25A10.95,10.95,0,0,0,28.125,1.563V0Z" transform="translate(12.604 31.25)"/><path class="e" d="M3.125,12.5H0V5.406A10.9,10.9,0,0,1,9.375,0h4.688V1.563A10.95,10.95,0,0,1,3.125,12.5Z" transform="translate(26.667 31.25)"/><path class="a" d="M0,0H26.667V3.125H0Z" transform="translate(26.667 46.875)"/></svg>