<svg xmlns="http://www.w3.org/2000/svg" width="44.205" height="39.93" viewBox="0 0 44.205 39.93"><defs><style>.a{fill:#fcda4f;}.b{fill:#ccc033;}.c{fill:#99af17;}.d{fill:#eacf32;}.e{fill:#ffeea4;}.f{fill:#fff9dc;}.g{fill:#fff4c1;}.h{fill:#ff624b;}.i{fill:#ff4b34;}.j{fill:#fce575;}.k{fill:#bf6c0d;}.l{fill:#8c4c17;}.m{fill:#db9c2e;}.n{fill:#ffc34c;}.o{fill:#ffd551;}.p{fill:#ffdf74;}.q{fill:#f9bb32;}</style></defs><g transform="translate(-0.095 -0.002)"><path class="a" d="M2.366,12.569l.069-.013A3.106,3.106,0,0,0,4.878,8.907L3.115,0,0,.617Z" transform="translate(13.684 20.039)"/><path class="b" d="M6.662,0C3.1-.074.114,4.157,0,9.45S2.693,19.1,6.26,19.17s6.548-4.155,6.659-9.449S10.229.076,6.662,0Z" transform="translate(10.687 2.257)"/><path class="c" d="M9.843,7.16A14.5,14.5,0,0,0,6.319,0C2.829.2.016,4.49,0,9.7c-.015,5.1,2.653,9.212,6.035,9.453C9.226,17.437,10.9,12.486,9.843,7.16Z" transform="translate(10.687 2.266)"/><path class="a" d="M5.481,11.953l-.069.014A3.105,3.105,0,0,1,1.763,9.523L0,.617,3.115,0Z" transform="translate(10.569 20.655)"/><path class="c" d="M12.974,6.574c-2.12-4.852-6.488-7.627-9.757-6.2s-4.2,6.52-2.081,11.372,6.489,7.627,9.758,6.2S15.094,11.426,12.974,6.574Z" transform="translate(0.095 4.664)"/><path class="d" d="M15.271,9.666C14.063,3.565,9.736-.717,5.606.1S-.893,6.526.315,12.626,5.85,23.01,9.98,22.192,16.478,15.766,15.271,9.666Z" transform="translate(4.041 0.002)"/><path class="b" d="M4.378,11.822c-1-5.06.457-9.781,3.341-11.711A5.352,5.352,0,0,0,5.606.1C1.476.918-.893,6.526.315,12.626S5.85,23.009,9.979,22.191a5.364,5.364,0,0,0,1.95-.815C8.528,20.691,5.379,16.882,4.378,11.822Z" transform="translate(4.041 0.002)"/><path class="e" d="M3.13,3.06A5.648,5.648,0,0,1,.252,2.182a.573.573,0,0,1,.641-.95,4.244,4.244,0,0,0,2.845.621A3.3,3.3,0,0,0,5.818.264a.573.573,0,1,1,.964.618A4.4,4.4,0,0,1,3.96,2.976,4.107,4.107,0,0,1,3.13,3.06Z" transform="translate(8.203 8.969)"/><path class="e" d="M4.627,4.408A7.7,7.7,0,0,1,.2,2.678.573.573,0,0,1,.942,1.8C.964,1.821,3.16,3.645,5.36,3.189A4.767,4.767,0,0,0,8.484.317.573.573,0,1,1,9.509.828,5.832,5.832,0,0,1,5.585,4.312,4.734,4.734,0,0,1,4.627,4.408Z" transform="translate(7.646 12.756)"/><path class="f" d="M1.542.546a.752.752,0,0,0-.9-.53.753.753,0,0,0-.632.83L3.816,24.291a.664.664,0,0,0,.054.174,1.508,1.508,0,0,0,1.751,1l.016,0,.019,0a1.482,1.482,0,0,0,1.212-1.582.642.642,0,0,0-.015-.178Z" transform="translate(10.424 7.149)"/><path class="g" d="M4.791,24.282a.65.65,0,0,1-.054-.174L.929.664a.7.7,0,0,1,.2-.6A.824.824,0,0,0,.64.016a.752.752,0,0,0-.632.83L3.816,24.291a.66.66,0,0,0,.054.174,1.507,1.507,0,0,0,1.751,1l.016,0,.019,0a1.556,1.556,0,0,0,.427-.152A1.482,1.482,0,0,1,4.791,24.282Z" transform="translate(10.424 7.149)"/><path class="h" d="M1.12,19.935A2.13,2.13,0,0,1,.109,17.4L4.943,3.161A4.767,4.767,0,0,1,11.811.623a4.768,4.768,0,0,1,1.5,7.168L3.8,19.446a2.129,2.129,0,0,1-2.685.489Z" transform="translate(26.588 9.382)"/><path class="d" d="M4.51,3.809h0a2.155,2.155,0,0,0,.381-.5A2.231,2.231,0,0,0,3.98.289a2.231,2.231,0,0,0-3.043.832,2.164,2.164,0,0,0-.221.588h0v.006Q.7,1.8.685,1.887L.011,5.838a.787.787,0,0,0,.4.817.787.787,0,0,0,.9-.085l3-2.591A2.156,2.156,0,0,0,4.5,3.814Z" transform="translate(37.705 2.588)"/><g transform="translate(28.544 13.556)"><path class="i" d="M3,2.2a.568.568,0,0,1-.228-.048L.345,1.1A.573.573,0,1,1,.8.048L3.232,1.1A.573.573,0,0,1,3,2.2Z" transform="translate(0.038 8.144)"/><path class="i" d="M3.734,2.519a.571.571,0,0,1-.228-.048L.345,1.1A.573.573,0,0,1,.8.048L3.962,1.42a.573.573,0,0,1-.229,1.1Z" transform="translate(2.93 5.965)"/><path class="i" d="M3,2.2a.566.566,0,0,1-.227-.048L.345,1.1A.573.573,0,1,1,.8.048L3.232,1.1A.573.573,0,0,1,3,2.2Z" transform="translate(2.412 2.168)"/><path class="i" d="M4.933,3.039a.574.574,0,0,1-.228-.047L.345,1.1A.573.573,0,0,1,.8.048L5.162,1.941a.573.573,0,0,1-.229,1.1Z" transform="translate(5.261 0.049)"/></g><path class="b" d="M1.048,6.717c0-.014,0-.028.005-.042l.674-3.951c.007-.057.017-.114.029-.171V2.546h0a2.163,2.163,0,0,1,.22-.588A2.222,2.222,0,0,1,4.767,1,2.3,2.3,0,0,0,3.98.29a2.231,2.231,0,0,0-3.043.832,2.154,2.154,0,0,0-.22.588h0v.007C.7,1.773.693,1.83.685,1.887L.011,5.839a.788.788,0,0,0,.4.817A.8.8,0,0,0,1.048,6.717Z" transform="translate(37.705 2.588)"/><path class="j" d="M4.325,4.774,3.648,1.58a1.753,1.753,0,0,0-.043-.2V1.371h0A1.837,1.837,0,0,0,3.395.894,1.871,1.871,0,0,0,.872.249a1.773,1.773,0,0,0-.6,2.475,1.872,1.872,0,0,0,.335.4h0l0,0c.036.032.073.063.111.093L3.291,5.368a.65.65,0,0,0,.743.066.614.614,0,0,0,.29-.661Z" transform="translate(34.114 3.83)"/><path class="d" d="M2.011,2.631c-.038-.029-.075-.06-.111-.092l0,0h0a1.863,1.863,0,0,1-.335-.4A1.781,1.781,0,0,1,1.737,0,1.813,1.813,0,0,0,.872.248a1.773,1.773,0,0,0-.6,2.475,1.872,1.872,0,0,0,.335.4h0l0,0c.036.032.073.063.111.093L3.291,5.367a.65.65,0,0,0,.743.066.614.614,0,0,0,.29-.661l-.054-.255Z" transform="translate(34.114 3.831)"/><path class="j" d="M6.074,1.8A1.872,1.872,0,0,0,4.188,0a1.839,1.839,0,0,0-.515.077h0l-.006,0a1.813,1.813,0,0,0-.2.071L.406,1.271a.615.615,0,0,0-.406.6.65.65,0,0,0,.451.595L3.632,3.5c.045.017.091.032.137.045h.006a1.868,1.868,0,0,0,.519.07A1.773,1.773,0,0,0,6.074,1.8Z" transform="translate(38.224 7.438)"/><path class="d" d="M5.582,2.116a1.866,1.866,0,0,1-.519-.07h0l-.006,0C5.011,2.031,4.965,2.016,4.92,2L1.739.961A.65.65,0,0,1,1.288.367.612.612,0,0,1,1.4,0L.406.362A.615.615,0,0,0,0,.959a.65.65,0,0,0,.451.594L3.632,2.592c.045.016.091.032.137.045l.006,0h0a1.868,1.868,0,0,0,.519.07,1.8,1.8,0,0,0,1.332-.594Z" transform="translate(38.224 8.348)"/><path class="i" d="M2.634,18.046,7.468,3.807A4.686,4.686,0,0,1,11.854.647L11.811.623A4.767,4.767,0,0,0,4.943,3.161L.109,17.4A2.129,2.129,0,0,0,1.12,19.935,2.164,2.164,0,0,0,3,20.044a2.1,2.1,0,0,1-.37-2Z" transform="translate(26.588 9.382)"/><path class="k" d="M.78,5.191a.55.55,0,0,1-.539-.528L0,.6A.554.554,0,0,1,.541,0h.479a.553.553,0,0,1,.54.6L1.32,4.663A.55.55,0,0,1,.78,5.191Z" transform="translate(21.963 9.957)"/><path class="d" d="M.371,3.7C3.636,5.509,4.526,1.745,4.727.514A.372.372,0,0,0,4.42.082C3.2-.087-.662-.348.1,3.325A.556.556,0,0,0,.371,3.7Z" transform="translate(22.967 9.554)"/><path class="l" d="M.745,4.663.506.6A.554.554,0,0,1,1.033,0H.541A.554.554,0,0,0,0,.6l.24,4.066a.55.55,0,0,0,.539.528.523.523,0,0,0,.252-.065A.564.564,0,0,1,.745,4.663Z" transform="translate(21.963 9.957)"/><path class="h" d="M14.453.114A5.7,5.7,0,0,0,9.621,1.44,5.7,5.7,0,0,0,4.789.114C1.358.852-.69,4.968.213,9.308s4.416,7.26,7.846,6.523a5.137,5.137,0,0,0,1.562-.618,5.137,5.137,0,0,0,1.562.618c3.43.738,6.943-2.183,7.846-6.523S17.883.852,14.453.114Z" transform="translate(13.11 13.314)"/><path class="b" d="M1.081,3.817C.432.677,3.161.412,4.727.507A.371.371,0,0,0,4.42.082C3.2-.087-.661-.348.1,3.325A.558.558,0,0,0,.371,3.7a4.3,4.3,0,0,0,.825.358.568.568,0,0,1-.116-.242Z" transform="translate(22.967 9.554)"/><path class="i" d="M3.162,9.308C2.294,5.136,4.153,1.171,7.346.215a5.2,5.2,0,0,0-2.557-.1C1.358.852-.69,4.968.213,9.308s4.416,7.26,7.846,6.523c.133-.028.263-.063.392-.1-2.472-.718-4.612-3.172-5.288-6.422Z" transform="translate(13.11 13.314)"/><path class="m" d="M0,22.751V.925A.925.925,0,0,1,.925,0H5.3a.925.925,0,0,1,.925.925V22.751a.925.925,0,0,1-.925.924H.925A.925.925,0,0,1,0,22.751Z" transform="translate(3.628 16.171)"/><path class="m" d="M0,22.751V.925A.925.925,0,0,1,.925,0H5.3a.925.925,0,0,1,.925.925V22.751a.925.925,0,0,1-.925.924H.925A.925.925,0,0,1,0,22.751Z" transform="translate(34.639 16.171)"/><path class="n" d="M42,6.205H.955A.955.955,0,0,1,0,5.251V.955A.955.955,0,0,1,.955,0H42a.955.955,0,0,1,.955.955v4.3A.955.955,0,0,1,42,6.205Z" transform="translate(0.764 18.261)"/><path class="n" d="M42,6.205H.955A.955.955,0,0,1,0,5.251V.955A.955.955,0,0,1,.955,0H42a.955.955,0,0,1,.955.955v4.3A.955.955,0,0,1,42,6.205Z" transform="translate(0.764 25.994)"/><path class="n" d="M42,6.205H.955A.955.955,0,0,1,0,5.251V.955A.955.955,0,0,1,.955,0H42a.955.955,0,0,1,.955.955v4.3A.955.955,0,0,1,42,6.205Z" transform="translate(0.764 33.727)"/><path class="o" d="M.573,3.914A.573.573,0,0,1,0,3.341V.573a.573.573,0,0,1,1.146,0V3.341A.573.573,0,0,1,.573,3.914Z" transform="translate(41.433 34.872)"/><path class="p" d="M1.909.955A.955.955,0,1,1,.955,0,.955.955,0,0,1,1.909.955Z" transform="translate(36.755 35.636)"/><path class="p" d="M1.909.955A.955.955,0,1,1,.955,0,.955.955,0,0,1,1.909.955Z" transform="translate(36.755 27.903)"/><path class="p" d="M1.909.955A.955.955,0,1,1,.955,0,.955.955,0,0,1,1.909.955Z" transform="translate(36.755 20.17)"/><path class="q" d="M5.728,5.251V.955A.955.955,0,0,1,6.683,0H.955A.955.955,0,0,0,0,.955v4.3a.955.955,0,0,0,.955.955H6.683A.955.955,0,0,1,5.728,5.251Z" transform="translate(0.764 25.994)"/><path class="q" d="M5.728,5.251V.955A.955.955,0,0,1,6.683,0H.955A.955.955,0,0,0,0,.955v4.3a.955.955,0,0,0,.955.955H6.683A.955.955,0,0,1,5.728,5.251Z" transform="translate(0.764 33.727)"/><path class="q" d="M5.728,5.251V.955A.955.955,0,0,1,6.683,0H.955A.955.955,0,0,0,0,.955v4.3a.955.955,0,0,0,.955.955H6.683a.955.955,0,0,1-.955-.955Z" transform="translate(0.764 18.261)"/><path class="p" d="M1.909.955A.955.955,0,1,1,.955,0,.955.955,0,0,1,1.909.955Z" transform="translate(5.824 20.17)"/><path class="p" d="M1.909.955A.955.955,0,1,1,.955,0,.955.955,0,0,1,1.909.955Z" transform="translate(5.824 27.903)"/><path class="p" d="M1.909.955A.955.955,0,1,1,.955,0,.955.955,0,0,1,1.909.955Z" transform="translate(5.824 35.636)"/><path class="o" d="M.668,1.822V0a.955.955,0,0,0,0,1.822Z" transform="translate(5.824 27.947)"/><path class="o" d="M.668,1.822V0a.955.955,0,0,0,0,1.822Z" transform="translate(5.824 35.679)"/><path class="o" d="M.668,1.822V0a.955.955,0,0,0,0,1.822Z" transform="translate(5.824 20.214)"/><path class="q" d="M3.341,1.671A1.671,1.671,0,1,1,1.671,0,1.671,1.671,0,0,1,3.341,1.671Z" transform="translate(10.976 19.454)"/><path class="q" d="M3.341,1.671A1.671,1.671,0,1,1,1.671,0,1.671,1.671,0,0,1,3.341,1.671Z" transform="translate(16.704 27.187)"/><path class="o" d="M.573,3.914A.573.573,0,0,1,0,3.341V.573a.573.573,0,0,1,1.146,0V3.341A.573.573,0,0,1,.573,3.914Z" transform="translate(41.433 27.139)"/><path class="o" d="M.573,3.914A.573.573,0,0,1,0,3.341V.573a.573.573,0,0,1,1.146,0V3.341A.573.573,0,0,1,.573,3.914Z" transform="translate(41.433 19.12)"/></g></svg>