<svg xmlns="http://www.w3.org/2000/svg" width="36.427" height="39.922" viewBox="0 0 36.427 39.922"><defs><style>.a{fill:#f7b081;}.b{fill:#efe7e4;}.c{fill:#d8d1d0;}.d{fill:#dd9a76;}.e{fill:#f7cb4f;}.f{fill:#fbab00;}.g{fill:#546f7a;}.h{fill:#465a65;}.i{fill:#353535;}.j{fill:#ffc89f;}</style></defs><g transform="translate(-0.032)"><path class="a" d="M12.922,2.77C12.714,1.506,12.047,0,10.044,0a.586.586,0,0,0-.577.488L9.082,2.75a17.442,17.442,0,0,1-.619,2.53C7.746,7.454,6.841,8.569,5.236,9.255c-.771.33-1.4.612-1.648.726h-3A.586.586,0,0,0,0,10.567v10.61a.586.586,0,0,0,.586.586H3.508l1.259,1.019a5.973,5.973,0,0,0,3.747,1.327h3.569a.586.586,0,0,0,.288-1.1v-11.7h-.729l1.226-6.179A6.618,6.618,0,0,0,12.922,2.77Z" transform="translate(14.429 15.802)"/><path class="b" d="M5.137,0H.586A.586.586,0,0,0,0,.586V13.11a.586.586,0,0,0,.586.586H5.137a.586.586,0,0,0,.586-.586V.586A.586.586,0,0,0,5.137,0Z" transform="translate(9.879 24.729)"/><path class="c" d="M0,0V1.748a.586.586,0,0,0,.586.586H5.137a.586.586,0,0,0,.586-.586V0Z" transform="translate(9.879 36.091)"/><path class="d" d="M1.914,11.812A1.687,1.687,0,0,1,3.6,10.125a1.688,1.688,0,0,1,0-3.375,1.687,1.687,0,0,1,0-3.375A1.687,1.687,0,0,1,3.6,0H1.687a1.687,1.687,0,1,0,0,3.375,1.687,1.687,0,1,0,0,3.375,1.688,1.688,0,0,0,0,3.375,1.687,1.687,0,1,0,0,3.375H3.6A1.688,1.688,0,0,1,1.914,11.812Z" transform="translate(23.307 26.422)"/><path class="e" d="M11.5,4.157a1.089,1.089,0,0,0-.884-.745L7.949,3.024,6.758.611a1.1,1.1,0,0,0-1.965,0L3.6,3.024.939,3.411A1.1,1.1,0,0,0,.332,5.28L2.259,7.159,1.8,9.811a1.094,1.094,0,0,0,1.59,1.155L5.776,9.714l2.382,1.252a1.1,1.1,0,0,0,1.59-1.155L9.293,7.159,11.22,5.28A1.089,1.089,0,0,0,11.5,4.157Z" transform="translate(0.286 4.296)"/><path class="f" d="M3.269.009,3.21,0,.2,2.973a.656.656,0,0,0-.189.581l.71,3.96.1.05A1.1,1.1,0,0,0,2.4,6.408L1.949,3.756,3.876,1.877A1.1,1.1,0,0,0,3.269.009Z" transform="translate(7.63 7.698)"/><path class="e" d="M11.5,4.157a1.089,1.089,0,0,0-.884-.745L7.949,3.024,6.758.611a1.1,1.1,0,0,0-1.965,0L3.6,3.024.939,3.411A1.1,1.1,0,0,0,.332,5.28L2.259,7.159,1.8,9.811a1.1,1.1,0,0,0,1.59,1.155L5.776,9.714l2.382,1.252a1.1,1.1,0,0,0,1.59-1.155L9.293,7.159,11.22,5.28A1.089,1.089,0,0,0,11.5,4.157Z" transform="translate(12.608)"/><path class="f" d="M1.968,7.475A1.089,1.089,0,0,0,2.4,6.4L1.949,3.751,3.876,1.872A1.1,1.1,0,0,0,3.269,0L3.245,0,.2,2.967a.656.656,0,0,0-.189.581L.561,6.764l.132.731.121.064a1.09,1.09,0,0,0,1.154-.083Z" transform="translate(19.952 3.408)"/><path class="e" d="M11.5,4.157a1.089,1.089,0,0,0-.884-.745L7.95,3.024,6.758.611a1.1,1.1,0,0,0-1.965,0L3.6,3.024.939,3.411A1.1,1.1,0,0,0,.332,5.28L2.259,7.159,1.8,9.811a1.1,1.1,0,0,0,1.59,1.155L5.776,9.714l2.382,1.252a1.1,1.1,0,0,0,1.59-1.155L9.293,7.159,11.22,5.28A1.089,1.089,0,0,0,11.5,4.157Z" transform="translate(24.907 4.296)"/><path class="f" d="M4.153.752A1.089,1.089,0,0,0,3.269.007L3.222,0,.2,2.971a.657.657,0,0,0-.189.581L.65,7.475l.165.087A1.1,1.1,0,0,0,2.4,6.407L1.949,3.754,3.876,1.876A1.089,1.089,0,0,0,4.153.752Z" transform="translate(32.251 7.7)"/><path class="g" d="M10.432,0H.586A.586.586,0,0,0,0,.586V15.545a.586.586,0,0,0,.586.586h9.846a.586.586,0,0,0,.586-.586V.586A.586.586,0,0,0,10.432,0Z" transform="translate(0.032 23.512)"/><path class="h" d="M0,0V1.661a.586.586,0,0,0,.586.586h9.846a.586.586,0,0,0,.586-.586V0Z" transform="translate(0.032 37.396)"/><circle class="i" cx="0.933" cy="0.933" r="0.933" transform="translate(6.422 35.113)"/><path class="j" d="M8.064,0h-6.1A1.965,1.965,0,0,0,0,1.963v.328A1.965,1.965,0,0,0,1.963,4.254h6.1a1.965,1.965,0,0,0,1.963-1.963V1.963A1.965,1.965,0,0,0,8.064,0Z" transform="translate(24.626 26.422)"/><path class="a" d="M8.064,1.181h-6.1A1.965,1.965,0,0,1,.163,0,1.952,1.952,0,0,0,0,.782V1.11A1.965,1.965,0,0,0,1.963,3.073h6.1A1.965,1.965,0,0,0,10.027,1.11V.782A1.952,1.952,0,0,0,9.864,0,1.965,1.965,0,0,1,8.064,1.181Z" transform="translate(24.626 27.603)"/><path class="j" d="M8.777,0H1.963A1.965,1.965,0,0,0,0,1.963v.328A1.965,1.965,0,0,0,1.963,4.254H8.777a1.965,1.965,0,0,0,1.963-1.963V1.963A1.965,1.965,0,0,0,8.777,0Z" transform="translate(24.626 29.504)"/><path class="a" d="M8.777,1.189H1.963A1.965,1.965,0,0,1,.159,0,1.952,1.952,0,0,0,0,.773V1.1A1.965,1.965,0,0,0,1.963,3.064H8.777A1.965,1.965,0,0,0,10.739,1.1V.773A1.952,1.952,0,0,0,10.58,0,1.965,1.965,0,0,1,8.777,1.189Z" transform="translate(24.626 30.694)"/><path class="j" d="M7.9,0H2.127a2.127,2.127,0,0,0,0,4.254H7.9A2.127,2.127,0,1,0,7.9,0Z" transform="translate(24.626 32.586)"/><path class="a" d="M7.9,1.171H2.127A2.129,2.129,0,0,1,.228,0a2.125,2.125,0,0,0,1.9,3.083H7.9A2.125,2.125,0,0,0,9.8,0,2.128,2.128,0,0,1,7.9,1.171Z" transform="translate(24.626 33.757)"/><path class="j" d="M6.311,0H2.127a2.127,2.127,0,0,0,0,4.254H6.311A2.127,2.127,0,1,0,6.311,0Z" transform="translate(24.626 35.668)"/><path class="a" d="M6.311,1.172H2.127A2.129,2.129,0,0,1,.228,0a2.125,2.125,0,0,0,1.9,3.082H6.311A2.125,2.125,0,0,0,8.21,0,2.129,2.129,0,0,1,6.311,1.172Z" transform="translate(24.626 36.84)"/></g></svg>