<svg xmlns="http://www.w3.org/2000/svg" width="12.27" height="20.661"><defs><style>.a{fill:#fff}</style><clipPath id="a"><path class="a" d="M9.759.412L.4 9.4a1.288 1.288 0 0 0 0 1.858l9.364 8.988a1.484 1.484 0 0 0 2.055-2.14l-7.847-7.527a.343.343 0 0 1 0-.5l7.842-7.529A1.484 1.484 0 0 0 9.759.412z" transform="translate(.571 .573)"/></clipPath></defs><path class="a" d="M9.759.412L.4 9.4a1.288 1.288 0 0 0 0 1.858l9.364 8.988a1.484 1.484 0 0 0 2.055-2.14l-7.847-7.527a.343.343 0 0 1 0-.5l7.842-7.529A1.484 1.484 0 0 0 9.759.412z"/></svg>