<svg xmlns="http://www.w3.org/2000/svg" width="180.42" height="199.997"><defs><style>.a{fill:none}.b{fill:#ffcdb0}.c{fill:#d4a082}.d{fill:#ffc756}.e{fill:#fff}.f{fill:#5c380f}.h{fill:#f3f2f2}.i{fill:#331e05}.j{fill:#bf8c6f}.k{fill:#ccc}.m{fill:#e6cfba}.n{fill:#b38e6c}.o{fill:#fbb03b}.p{fill:#ff8c94}.q{fill:#bfc435}.r{fill:#947050}.v{fill:#ffedc9}.w{fill:#f2dbaf}.y{fill:#8c6239}.ab{fill:#5c3918}.ad{fill:#d2d920}.ag{fill:#00538a}.ah{fill:#dae051}</style><clipPath id="a"><path class="a" d="M0 0h32.381v29.566H0z" transform="translate(.164 .003)"/></clipPath><clipPath id="b"><path class="a" d="M0 0h152.278v18.711H0z"/></clipPath></defs><path class="b" d="M94.11 48.948c.084 1.974.209 4.978-3.9 8.026 3.4 4.721 11.245 5.623 14.685-.172-2.475-1.674-4.405-3.39-4.405-7.468a58.253 58.253 0 0 0-6.38-.386"/><path class="c" d="M97.572 55.236a6.861 6.861 0 0 0 3.128-1.3 8.148 8.148 0 0 1-.86-3.911 55.466 55.466 0 0 0-6.157-.378 8.558 8.558 0 0 1-.676 4.29 9.41 9.41 0 0 0 4.565 1.3"/><path class="d" d="M88.869 102.794a31.512 31.512 0 0 1-4.729-.464c-2.27-2.618-3.505-8.13-4.142-12.289a89.026 89.026 0 0 1-.977-13.4 52.857 52.857 0 0 1 1.12-9.741c.68-3.23 1.539-5.544 2.351-6.349a13.983 13.983 0 0 1 4.075-2.417 29.531 29.531 0 0 0 3.238-1.648 10.071 10.071 0 0 0 7.216 3.248 6.493 6.493 0 0 0 6.183-3.793c5.667 3.165 8.653 6.619 9.13 10.561.2 1.624.273 10.777.248 18.978-.024 7.675-.147 16.748-.417 17.061-.138.16-1.795.241-4.925.241-6.186 0-16.194-.321-16.294-.324-.013.012-.36.336-2.077.336zm-2.148-27.409c-.956 3.182-1.342 10.5.254 14.269.211-.512.414-.994.61-1.461 2.136-5.073 3.204-7.62-.864-12.808z"/><path class="e" d="M86.808 57.84c-.444 3.7 2.505 18.674 3.777 25.629.445 4.2-2.222 2.506-2.222 2.506a24.889 24.889 0 0 0-1.65 3.196c1.27 3.885 4.19 12.595 4.19 12.595s21.078.794 21.459-.083.19-12.135.063-14.642-7.428-20.239-7.428-20.239-13.015.25-14.284.313c-1.461-2.882-2.6-9.775-2.6-9.775z"/><path class="b" d="M86.534 40.445c-1.838-1.122-3.236-.748-3.317 2.079s3.557 2.702 4.2 1.081c-1.083-2.448-.883-3.16-.883-3.16m19.939-1.398c1.838-1.122 3.235-.748 3.316 2.079s-3.556 2.702-4.195 1.081c1.079-2.448.879-3.16.879-3.16"/><path class="f" d="M87.976 45.022c-3.139-1.037-9.128.885-5.957 6.255s9.929 1.342 9.577-3.235-3.62-3.02-3.62-3.02"/><path class="b" d="M98.197 25.871c-6.13 0-11.484 1.17-11.484 8.195.34 3.68-.341 8.446 1.786 11.54s6.808 5.565 9.783 5.435c2.807-.125 7.741-4.432 8.422-6.606s0-11.54-.425-12.961a8.643 8.643 0 0 0-8.082-5.603"/><path class="a" d="M77.786 0h32.381v29.566H77.786z"/><g clip-path="url(#a)" transform="translate(77.622 -.003)"><path class="h" d="M7.922 29.568c-.127-2.566-.19-5.826-1.011-6.327s-4.93-5.45-6.195-11.339c-.758-5.7-.952-6.765.822-7.141s1.011-1.379 2.908-2.694A13.14 13.14 0 0 1 13.294.125c3.54.5 3.982.376 5.183.125a14.979 14.979 0 0 1 8.6.94c3.413 1.629 3.476 2.443 3.224 4.26 1.391.94 2.718.814 2.086 4.886a98.26 98.26 0 0 1-3.729 13.093 38.246 38.246 0 0 0-.885 5.826c-2.907-2.882-11.061-6.64-19.847.313"/></g><path class="f" d="M85.63 29.682c-1.595 2.3-2.68 5.267-.447 10.256a33.75 33.75 0 0 1 1.552.618c.787-1 2.318-7.313 1.106-9.552 2.233-2.43 6.275-2.323 6.275-2.323 4.657 3.2 8.868 4.989 11.612 4.03a21.076 21.076 0 0 1 .957 6.866c2.3-2.239 2.1-4.878.468-8.316a9.4 9.4 0 0 0-9.23-5.33c-3.573-3.412-8.571-4.8-9.017 1.791a9.917 9.917 0 0 0-3.276 1.96"/><path class="i" d="M97.901 30.752a2.6 2.6 0 0 1-1.43-.526 12.618 12.618 0 0 1-2.672-2.481c-.467-.524-.911-1.014-1.349-1.416a2.7 2.7 0 0 0-1.24-.803.738.738 0 0 0-.763.4c-.125.207-.175.346-.214.337s-.046-.157.038-.422a1.114 1.114 0 0 1 .283-.439.94.94 0 0 1 .688-.23 1.7 1.7 0 0 1 .8.27 7.853 7.853 0 0 1 .718.54 14.506 14.506 0 0 1 1.413 1.43 18.086 18.086 0 0 0 2.5 2.522c.718.543 1.259.739 1.231.818m5.592-2.106a4.185 4.185 0 0 1-1.555-.227 10.274 10.274 0 0 1-3.417-1.56 15.3 15.3 0 0 1-1.552-1.286 11.854 11.854 0 0 0-1.3-.94 6.258 6.258 0 0 1-1.266-.851 4.2 4.2 0 0 1 1.45.566 9.07 9.07 0 0 1 1.424.9c.492.411.969.835 1.55 1.24a12.749 12.749 0 0 0 3.224 1.616 6.85 6.85 0 0 1 1.443.542"/><path d="M90.202 41.163c-.052.166-.542.131-.961-.294-.405-.422-.507-.891-.377-.989s.468.177.789.51.61.6.549.773"/><path d="M93.693 41.145c-.062.061-.288-.041-.631-.2a5.927 5.927 0 0 0-1.322-.488.987.987 0 0 0-1.051.337c-.047.063-.093.127-.139.181a1.752 1.752 0 0 1-.1.155c-.062.085-.118.127-.161.127s-.069-.072-.079-.183a1.41 1.41 0 0 1 0-.2c.024-.082.05-.172.083-.271a1.6 1.6 0 0 1 .183-.312 1.256 1.256 0 0 1 .361-.28 1.624 1.624 0 0 1 1.024-.123 3.221 3.221 0 0 1 1.461.722c.3.264.428.479.371.535m10.511.018c-.061-.173.234-.447.549-.773s.648-.619.788-.51.028.567-.376.989c-.419.425-.909.46-.961.294m-3.491-.717c-.058-.055.068-.271.371-.535a3.222 3.222 0 0 1 1.461-.722 1.623 1.623 0 0 1 1.024.123 1.256 1.256 0 0 1 .361.28 1.6 1.6 0 0 1 .183.312c.034.1.059.189.078.267a1.411 1.411 0 0 1 0 .2c-.007.112-.033.174-.075.181s-.1-.039-.163-.124a1.645 1.645 0 0 1-.1-.155c-.043-.05-.09-.115-.137-.178a.987.987 0 0 0-1.051-.337 5.926 5.926 0 0 0-1.322.486c-.342.16-.569.262-.631.2m-7.708-6.09c.054.154-.65.384-1.421.662a4.589 4.589 0 0 0-.881.416c-.2.124-.3.243-.4.229s-.155-.198.008-.458a1.962 1.962 0 0 1 .977-.679c.9-.321 1.674-.305 1.717-.171m11.867.558c-.117.166-.544-.107-1.085-.378-.535-.288-.989-.493-.989-.724s.573-.39 1.207-.052.989.993.867 1.154"/><path class="j" d="M99.246 43.343c-.1.05-.265-.077-.5-.25a2.088 2.088 0 0 0-.906-.415 1.015 1.015 0 0 0-.8.306c-.2.187-.343.35-.448.313-.089-.029-.142-.251 0-.592a1.259 1.259 0 0 1 .441-.524 1.325 1.325 0 0 1 .893-.217 1.684 1.684 0 0 1 1.225.8c.177.31.18.535.1.579m1.437 2.119c.063.042-.12.375-.659.724a4.025 4.025 0 0 1-1.041.466 5.756 5.756 0 0 1-1.412.2 5.736 5.736 0 0 1-1.417-.174 4.1 4.1 0 0 1-1.053-.438c-.551-.334-.75-.659-.689-.704.075-.063.384.14.923.346a6.18 6.18 0 0 0 2.228.387 7.246 7.246 0 0 0 1.246-.134 5.671 5.671 0 0 0 .967-.3c.531-.218.825-.433.907-.373"/><path class="e" d="M91.027 55.242c-.761.6-1.517 1.126-1.517 1.126 1.163 5.274 4.364 10.106 7.692 2.99-2.887-.386-5.052-.901-6.175-4.116m12.044.699a10.968 10.968 0 0 0 1.824 1.073c-1.216 5.334-4.212 10.19-7.692 2.992 3.017-.39 4.694-.813 5.868-4.065"/><path class="i" d="M86.668 53.097c0 .027-.144.064-.408.039a1.932 1.932 0 0 1-1.03-.438 3.226 3.226 0 0 1-.934-1.332 4.834 4.834 0 0 1-.38-1.925 2.825 2.825 0 0 1 .245-1.024 3.293 3.293 0 0 1 .549-.81 4.683 4.683 0 0 1 1.306-.972 3.162 3.162 0 0 1 1.4-.472 8.122 8.122 0 0 1-1.222.76 5.1 5.1 0 0 0-1.135.967 2.562 2.562 0 0 0-.653 1.575 4.96 4.96 0 0 0 .31 1.748 3.187 3.187 0 0 0 .747 1.238 2.086 2.086 0 0 0 .839.507c.229.076.369.1.367.142"/><path class="i" d="M88.106 51.719c-.025.059-.31.032-.629-.235a2.269 2.269 0 0 1-.7-1.3c-.235-1.124.259-2.005.408-1.935.145.056-.042.862.163 1.841a3.169 3.169 0 0 0 .445 1.159c.175.265.352.4.313.475M85.4 36.36c-.07 0-.122-.36-.05-.931a7.537 7.537 0 0 1 .655-2.152 7.782 7.782 0 0 1 1.254-1.933c.432-.444.8-.629.849-.566s-.211.3-.534.761a15.221 15.221 0 0 0-1.068 1.927c-.743 1.543-.961 2.9-1.106 2.894m-.067 2.096c-.064-.028.042-.372.31-.882s.694-1.176 1.134-1.91a9.7 9.7 0 0 0 .933-1.938c.17-.517.205-.862.291-.862.064 0 .163.355.078.936a5.946 5.946 0 0 1-.834 2.1 21.5 21.5 0 0 1-1.276 1.851c-.346.455-.567.735-.636.7m21.659-6.046c.021.06-.31.214-.893.323a10.047 10.047 0 0 1-2.275.122 6.89 6.89 0 0 1-3.125-.65 27.873 27.873 0 0 1 3.152.188c.862.041 1.642.043 2.2.016s.913-.065.936 0M91.61 25.903c.016.068-.1.168-.242.393a6.673 6.673 0 0 0-.493.923 6.708 6.708 0 0 0-.354 1c-.071.252-.076.424-.138.452s-.173-.168-.173-.493a2.9 2.9 0 0 1 .268-1.166 2.684 2.684 0 0 1 .67-.956c.234-.2.445-.214.459-.153m.674 1.426c.114.148-.16.51-.507.825s-.6.562-.774.507-.108-.601.33-.991c.42-.378.846-.481.951-.342"/><path class="j" d="M84.668 41.209c-.068-.027-.11-.214.125-.444a.917.917 0 0 1 .553-.209 1.434 1.434 0 0 1 .663.151 1.247 1.247 0 0 1 .692.82c.052.281-.074.442-.156.427s-.155-.139-.281-.279a1.908 1.908 0 0 0-.578-.453 1.488 1.488 0 0 0-.354-.123.784.784 0 0 0-.273.008c-.168.041-.3.144-.39.1m24.424-1.18c-.008.2-.534.4-1.035.905-.53.479-.712 1.008-.907 1.025-.093 0-.191-.2-.148-.519a1.859 1.859 0 0 1 .567-1.051 1.835 1.835 0 0 1 1.029-.524c.3-.033.491.065.492.163"/><path class="k" d="M104.894 23.023c-.05.1-1.072-.374-2.833-.77a25.11 25.11 0 0 0-6.995-.6 23.436 23.436 0 0 0-3.829.511c-1.159.255-2.19.581-3.058.844a12.737 12.737 0 0 1-2.864.75 14.047 14.047 0 0 1 2.7-1.182 27.365 27.365 0 0 1 3.072-.99 20.845 20.845 0 0 1 3.943-.578 21.245 21.245 0 0 1 7.16.806 7.348 7.348 0 0 1 2.7 1.21m-18.184-3.449a7.478 7.478 0 0 1-1.508-2.143 36.686 36.686 0 0 1-2.538-5.838c-.4-1.175-.785-2.3-1.047-3.362a14.866 14.866 0 0 1-.437-2.872 5.393 5.393 0 0 1 .059-1.976c.156-.476.419-.617.434-.59.04.042-.134.23-.195.653a6.749 6.749 0 0 0 .145 1.868 17.9 17.9 0 0 0 .554 2.758c.282 1.018.677 2.128 1.079 3.3a59.1 59.1 0 0 0 2.337 5.84 18.462 18.462 0 0 1 1.115 2.367m16.84-4.898a6.914 6.914 0 0 1 .085-2.122c.135-1.3.4-3.072.568-5.03a23.705 23.705 0 0 0-.021-5 3.994 3.994 0 0 0-.357-1.4c-.157-.286-.331-.366-.313-.417 0-.036.238-.04.5.258a3.314 3.314 0 0 1 .591 1.473 17.762 17.762 0 0 1 .207 5.152 49.613 49.613 0 0 1-.75 5.045 7.82 7.82 0 0 1-.51 2.045m2.073 3.492c-.171-.057.639-3.133 1.391-6.985l.546-2.72a19.309 19.309 0 0 0 .364-2.2 10.524 10.524 0 0 1 .236-2.08 4.9 4.9 0 0 1 .24 2.1 13.888 13.888 0 0 1-.231 2.291c-.135.837-.3 1.769-.5 2.735-.757 3.889-1.869 6.922-2.046 6.859"/><path class="k" d="M90.89 21.674c-.16.082-1.556-2.248-2.7-5.371s-1.616-5.778-1.441-5.816c.2-.046.954 2.512 2.089 5.587s2.231 5.512 2.052 5.6"/><path d="M88.098 76.914c-.067.053-.546-.256-1.115-.925a7.118 7.118 0 0 1-1.44-2.973 10.351 10.351 0 0 1-.178-3.188c.08-.813.212-1.3.312-1.3s.163.505.219 1.3a20.55 20.55 0 0 0 .384 3.06 9.6 9.6 0 0 0 1.154 2.858c.423.691.751 1.1.664 1.168" fill="#edb037"/><path class="m" d="M7.268 122.375l-.275 77.622h140.709l.55-77.622z"/><path class="n" d="M29.685 146.85c-.261-.044-1.252-1.767-2.211-3.841a26.031 26.031 0 0 1-2.108-6.134c-.538-.1-1.013-.2-1.453-.3-1.055 1.28-6.406 7.7-8.029 8.264l-.006-.021c-.2-.872-1.952-8.622-1.61-12.019l-.011-.006c-.2-.121-.409-.247-.615-.377-.921.537-4.124 2.387-6.649 3.636l.027-7.621.022-6.056h141.21l-.032 4.622h-.057l-.564.006c.234.468.433.9.611 1.334l-.044 6.255c-2.5-.332-7.01-1.623-8.684-2.971l-.452.3-.127.084c.022.234.049.5.079.8.29 2.872.83 8.217-.14 10.19a16.588 16.588 0 0 1-4.431-2.486c-1.115-.781-3.806-2.765-4.72-4.31l-.224.061-.068.018c-.47 1.955-2.089 8.42-3.165 9.476h-.022c-.62 0-1.95-1.171-3.309-2.916a15.267 15.267 0 0 1-2.85-5.213c-.256.006-.515.006-.734.006-.836 2.367-4.342 8.344-5.615 8.506a13.25 13.25 0 0 1-1.9-3.71 24.438 24.438 0 0 1-1.694-5.864c-.5-.119-.94-.234-1.351-.349-1.052 1.155-6.383 6.939-7.927 7.4v-.021c-.148-.829-1.432-8.19-.952-11.363a21.62 21.62 0 0 1-.571-.389c-1.332.693-8.056 4.151-9.5 4.154a.393.393 0 0 1 .011-.049c.276-1.1 1.262-4.959 2.386-8.379l-17.941.182-8.159.082a15.87 15.87 0 0 1 1.062 4.919 1.609 1.609 0 0 1-.712.1c-2.127 0-8.009-1.187-10.15-2.745-.161.123-.327.244-.488.361l-.109.079.126.842c.46 3.035 1.315 8.683.388 10.828a17.671 17.671 0 0 1-4.835-2.412c-1.225-.772-4.187-2.74-5.239-4.334-.065.022-.13.043-.2.064l-.111.036c-.4 2.1-1.778 9.052-2.863 10.226h-.052c-.685 0-2.124-1.162-3.668-2.959a16.211 16.211 0 0 1-3.272-5.355c-.256.018-.516.031-.768.044h-.013c-.764 2.557-4.172 9.084-5.515 9.32zm113.749-19.8l-20.253.206-.667.006-22.021.221h-.135l-4.244.043a29.193 29.193 0 0 0 9.956 6.566 35.536 35.536 0 0 0 13.377 2.636 34.8 34.8 0 0 0 23.99-9.683zm-86.3.877l-16.891.167h-.154l-29.624.3a31.334 31.334 0 0 0 10.041 5.9 37.843 37.843 0 0 0 12.977 2.309 36.544 36.544 0 0 0 23.647-8.68z"/><path class="o" d="M4.471 123.074a115.054 115.054 0 0 0-3.072 12.587c1.66-.087 9.79-5.057 9.79-5.057s-4.029-1.63-6.718-7.53"/><path class="p" d="M11.963 130.766c-.489 3.544 1.569 12.587 1.569 12.587 1.785-.646 8.146-8.717 8.146-8.717-3.023-.331-7.751-2.77-9.715-3.87"/><path class="q" d="M23.077 134.962c.072 2.921 3.745 10.4 4.286 10.49 1.338-.242 4.914-7.234 5.504-9.668-4.724 1.078-9.79-.822-9.79-.822"/><path class="e" d="M33.566 135.489c.576 3.113 5.514 8.693 6.914 8.561 1.238-1.347 2.876-10.487 2.876-10.487z"/><path class="o" d="M43.357 133.575c1.15 2.477 8.886 6.964 10.085 6.981 1.068-2.473-.285-9.738-.566-11.888-3.061 3.33-9.519 4.907-9.519 4.907"/><path class="p" d="M53.846 127.684c1.908 1.993 10.355 3.493 11.189 2.982-.203-5.418-4.078-10.704-4.322-10.374s-6.867 7.392-6.867 7.392"/><path class="e" d="M3.937 121.264c7.05 13.373 38.455 22.901 57.901-2.386.658.016.306.42.306.42-13.98 23.135-51.042 19.615-58.607 2.641-.2-.5.4-.675.4-.675"/><path class="q" d="M90.999 122.375a108.261 108.261 0 0 0-3.586 11.888c1.624 0 9.79-4.364 9.79-4.364s-3.856-1.755-6.204-7.524"/><path class="e" d="M97.351 130.067c-.619 3.3.906 11.888.906 11.888 1.7-.524 8.038-7.8 8.038-7.8-2.824-.451-7.152-2.961-8.944-4.088"/><path class="o" d="M107.692 134.263c-.065 2.675 3.022 9.681 3.523 9.79 1.258-.159 4.908-6.39 5.568-8.59a18.6 18.6 0 0 1-9.091-1.2"/><path class="p" d="M117.483 135.633c.418 2.972 5.035 8.479 6.429 8.42 1.293-1.218 3.361-9.79 3.361-9.79z"/><path class="q" d="M127.273 134.241c.975 2.377 8.106 6.944 9.243 7.015 1.129-2.274.187-9.158.022-11.189-3.065 2.987-9.265 4.174-9.265 4.174"/><path class="e" d="M136.364 129.327c1.719 2.048 9.672 3.928 10.489 3.467.06-5.336-3.372-10.719-3.618-10.406s-6.871 6.939-6.871 6.939"/><path class="e" d="M90.646 120.976c5.987 12.794 35.008 23.092 54.443.372.617.043.266.4.266.4-14.204 20.963-48.815 16.017-55.116-.16-.163-.472.407-.612.407-.612"/><path class="r" d="M152.448 120.377l-.214 2.9s-20.385.2-30.545.2-47.009.4-53.182.268-32.024-.268-40.256-.136c-5.351.088-28.08-.339-28.08-.339L0 120.377s26.451-.162 29.988-.366 32.592-.621 40.127-.339c9.067.339 40.255.679 45.529.339s36.056.182 36.804.366"/><path class="a" d="M0 101.396h152.278v18.711H0z"/><g clip-path="url(#b)" transform="translate(0 101.396)"><path class="n" d="M20.726 0L0 18.711h152.278L146.969.34z"/></g><path class="n" d="M44.755 162.52a4.932 4.932 0 0 1-1.318.139c-.849.044-2.078.086-3.6.123-3.032.074-7.228.128-11.863.146s-8.831-.004-11.869-.054a147.964 147.964 0 0 1-3.597-.095 4.935 4.935 0 0 1-1.319-.129 4.918 4.918 0 0 1 1.319-.139c.849-.045 2.081-.086 3.597-.123 3.036-.074 7.232-.129 11.865-.147s8.829 0 11.867.054c1.519.026 2.748.058 3.6.1a4.91 4.91 0 0 1 1.321.129m-27.272-1.503c.015.174-.748.415-1.725.493s-1.775-.071-1.775-.248.774-.319 1.727-.396 1.749-.028 1.773.151m20.976-8.809a11.983 11.983 0 0 1-3.285.232c-2.03.015-4.833-.095-7.92-.292l-7.9-.527a14.891 14.891 0 0 1-3.273-.343 11.922 11.922 0 0 1 3.285-.236c2.03-.015 4.833.092 7.921.288l7.9.53a14.826 14.826 0 0 1 3.273.346m-2.794-1.513c0 .193-.944.35-2.1.35s-2.1-.157-2.1-.35.939-.35 2.1-.35 2.1.157 2.1.35m22.373 29.311a8.466 8.466 0 0 1-1.788.119l-4.867.112c-4.111.1-9.786.318-16.059.561s-11.962.361-16.08.3c-2.061-.029-3.727-.083-4.877-.155a8.447 8.447 0 0 1-1.784-.18 8.439 8.439 0 0 1 1.789-.1l4.869-.083c4.11-.065 9.785-.271 16.058-.513s11.96-.383 16.078-.346c2.059.017 3.725.056 4.875.12a8.382 8.382 0 0 1 1.785.166m-23.072-1.565c.03.15-.91.371-2.066.474a5.536 5.536 0 0 1-2.134.016c-.047-.146.879-.446 2.054-.55a4.706 4.706 0 0 1 2.146.06m33.562-4.546c0 .18-7.517.271-16.786.2s-16.78-.268-16.78-.448 7.517-.272 16.786-.2 16.782.27 16.781.451m75.524-1.149a10.788 10.788 0 0 1-2.1.388c-1.354.184-3.323.384-5.76.553-4.873.339-11.615.469-19.053.42s-14.171-.2-19.044-.3l-5.772-.142a10.68 10.68 0 0 1-2.117-.147 10.486 10.486 0 0 1 2.117-.169c1.363-.059 3.336-.096 5.773-.12 4.876-.049 11.61.018 19.046.065s14.164.01 19.03-.181c2.434-.095 4.401-.207 5.761-.295a10.524 10.524 0 0 1 2.119-.072m-.699-5.988a5.96 5.96 0 0 1-1.455.147c-.938.05-2.3.095-3.972.132-3.355.075-7.989.1-13.106.083l-13.1-.07a271.47 271.47 0 0 1-3.971-.054 5.993 5.993 0 0 1-1.459-.107 5.917 5.917 0 0 1 1.454-.164 127.4 127.4 0 0 1 3.971-.164c3.354-.1 7.99-.148 13.107-.136s9.749.069 13.1.12c1.676.026 3.033.056 3.971.088a5.9 5.9 0 0 1 1.457.122m-10.483-2.952c.02.167-.748.381-1.715.476s-1.767.039-1.785-.128.751-.382 1.715-.478 1.762-.038 1.785.13m-27.976-4.086c0 .189-7.2.372-16.083.408s-16.085-.093-16.085-.278 7.2-.373 16.082-.409 16.085.089 16.086.279m-23.778-1.499c.046.187-.742.524-1.742.515s-1.748-.2-1.753-.382c0-.203.8-.327 1.751-.318s1.7 0 1.744.185m1.395-2.143c.063.172-.4.507-1.014.551s-1.078-.121-1.078-.299.477-.319 1.033-.365 1-.059 1.059.113m24.481-7.809a7.264 7.264 0 0 1-1.409.226c-.912.114-2.237.244-3.879.381-3.281.275-7.832.526-12.862.651s-9.584.129-12.879.108c-1.648-.011-2.981-.03-3.9-.054a7.393 7.393 0 0 1-1.435-.092 7.3 7.3 0 0 1 1.43-.116c.921-.04 2.254-.078 3.9-.116l12.863-.266c5.021-.124 9.56-.315 12.844-.493l3.89-.21a7.41 7.41 0 0 1 1.437-.019m-16.779-.39c0 .193-.946.338-2.1.362s-2.08-.041-2.1-.231.919-.439 2.088-.464 2.112.144 2.112.333m4.893-2.894c.03.187-.437.437-1.037.464s-1.063-.145-1.063-.332.473-.34 1.038-.368 1.026.048 1.062.236m6.991 45.319a10.276 10.276 0 0 1-1.812.151l-4.942.204-16.31.58c-6.371.209-12.143.337-16.323.358-2.09.011-3.781 0-4.95-.022a10.282 10.282 0 0 1-1.817-.101 10.243 10.243 0 0 1 1.813-.139l4.944-.173 16.309-.539c6.371-.209 12.142-.357 16.321-.4a206.96 206.96 0 0 1 4.95-.007 10.184 10.184 0 0 1 1.817.088m-8.388-1.346c.015.156-.73.375-1.7.5s-1.8 0-1.8-.164.759-.298 1.71-.419 1.769-.083 1.79.083m41.255 3.479a28.48 28.48 0 0 1-4.089.425c-2.526.209-6.007.577-9.864.954s-7.366.591-9.909.583c-1.271 0-2.3-.033-3.01-.1a3.228 3.228 0 0 1-1.1-.158 30.826 30.826 0 0 1 4.1-.27c2.528-.127 6.012-.425 9.865-.8s7.352-.663 9.893-.738a18.517 18.517 0 0 1 4.114.1m-7.69-.656c.031.167-.413.381-.991.478s-1.076.039-1.109-.128.414-.382.993-.478 1.073-.039 1.107.128m3.476-2.173c.109.145-.3.467-.936.565s-1.152-.05-1.144-.215.459-.296.987-.382.986-.114 1.093.032"/><path class="r" d="M94.721 117.474a102.569 102.569 0 0 0 16.966-3.192 21.7 21.7 0 0 0 3.528-.84c1.008-.5 5.711.168 6.047-.5s1.847-2.857.672-3.361-6.713-2.186-4.7-3.533a28.217 28.217 0 0 0 4.364-3.931l-8.241-.022c-9.136 2.86-33.666 10.338-33.666 10.338-2.436 1.68 1.6 5.208 15.034 5.041m34.775.528c5.178-.508 12.364.127 14.131-.891s1.514-2.8 2.019-2.8c.406 0 3.5.082 4.7.115l-1.107-3.832-4.225.663s-2.776-2.418-2.4-2.418c.278 0 3.881-.753 5.782-1.155l-.764-2.643c-2.582.309-7.289 1-7.289 1a27.353 27.353 0 0 0-3.277-2.547l-15.392 13.235c1.262 1.145 2.649 1.782 7.822 1.273m-113.416-1.15l12.359.628 6.894-2.51s7.23.837 10.761-2.008c7.9 2.845 19.547 1.632 24.886-2.008 5.289-3.608 4.5-8.16 4.5-8.16s-34.6 5.481-38.633 5.983-17.32 5.439-20.767 8.075"/><path d="M133.495 102.894c-3.14.4-8.985-.744-11.137.5s-1.455 4.712-2.214 7.379-1.835 7.321 4.936 6.639 9.808.062 14.047-.062 4.809-1.8 3.8-5.087a32.888 32.888 0 0 0-4.493-8.438c-.573-.559-2.028-1.303-4.939-.931" fill="#b0d4f5"/><path d="M120.501 108.391c.11-.7.179-1.406.257-2.1-.109.673-.178 1.383-.257 2.1m18.754 7.845c-4.24.124-7.278-.619-14.049.062-4.616.464-5.584-1.545-5.494-3.714-.442 2.524-.037 5.371 5.368 4.828 6.771-.681 9.809.062 14.049-.062 3.212-.094 4.314-1.077 4.222-2.973-.373 1.167-1.59 1.786-4.1 1.859" fill="#86b0d6"/><path class="v" d="M123.818 108.423c-2.069.222-2.073 3.185 1.069 2.712 2.444-.367 2.353-3.08-1.069-2.712m-.459 3.505c-2.414.277-2.42 3.98 1.246 3.39 2.851-.46 2.746-3.85-1.246-3.39m1.159-7.709c-2.069.166-2.075 2.388 1.068 2.034 2.443-.276 2.354-2.31-1.068-2.034m6.293 4.204c-2.069.222-2.073 3.185 1.069 2.712 2.444-.367 2.353-3.08-1.069-2.712m-.459 3.505c-2.414.277-2.42 3.98 1.246 3.39 2.851-.46 2.746-3.85-1.246-3.39m-.24-7.709c-2.069.166-2.075 2.388 1.068 2.034 2.443-.276 2.354-2.31-1.068-2.034m6.94 4.229c-2.062.296-1.951 3.241 1.175 2.662 2.431-.454 2.237-3.152-1.175-2.662m.231 4.21c-2.405.37-2.276 4.057 1.37 3.326 2.837-.566 2.611-3.938-1.37-3.326m-1.622-8.402c-2.063.306-1.967 3.253 1.161 2.654 2.433-.466 2.25-3.16-1.161-2.654"/><path class="w" d="M137.82 116.081a2.187 2.187 0 0 1-1.61-.573 1.525 1.525 0 0 1-.432-1.116 2.088 2.088 0 0 0 1.755.745 4.471 4.471 0 0 0 .876-.094 2.078 2.078 0 0 0 1.851-1.641 1.3 1.3 0 0 1 .218 1.285 2.264 2.264 0 0 1-1.779 1.3 4.494 4.494 0 0 1-.879.094zm-14.013-.133a2.3 2.3 0 0 1-1.7-.6 1.523 1.523 0 0 1-.429-1.108 2.183 2.183 0 0 0 1.84.769 4.658 4.658 0 0 0 .735-.062 2.042 2.042 0 0 0 1.92-1.626 1.3 1.3 0 0 1 .205 1.309 2.243 2.243 0 0 1-1.836 1.255 4.662 4.662 0 0 1-.735.063zm7.245-.042a2.3 2.3 0 0 1-1.7-.6 1.521 1.521 0 0 1-.434-1.111 2.185 2.185 0 0 0 1.841.77 4.561 4.561 0 0 0 .733-.062c1.333-.211 1.869-1.011 1.924-1.625a1.3 1.3 0 0 1 .208 1.314 2.243 2.243 0 0 1-1.836 1.255 4.588 4.588 0 0 1-.736.058zm6.067-4.461a1.941 1.941 0 0 1-1.459-.531 1.366 1.366 0 0 1-.369-1.029 1.847 1.847 0 0 0 1.539.621 3.906 3.906 0 0 0 .785-.084 1.892 1.892 0 0 0 1.653-1.43 1.162 1.162 0 0 1 .244 1.17 2.013 2.013 0 0 1-1.607 1.2 3.928 3.928 0 0 1-.786.082zm-6.241-.027a2 2 0 0 1-1.545-.556 1.362 1.362 0 0 1-.365-1.033 1.926 1.926 0 0 0 1.617.651 4.2 4.2 0 0 0 .657-.056 1.858 1.858 0 0 0 1.709-1.4 1.167 1.167 0 0 1 .233 1.193 1.988 1.988 0 0 1-1.652 1.145 4.229 4.229 0 0 1-.654.056zm-6.337-.042a2 2 0 0 1-1.538-.556 1.363 1.363 0 0 1-.367-1.035 1.923 1.923 0 0 0 1.618.651 4.207 4.207 0 0 0 .655-.055 1.861 1.861 0 0 0 1.71-1.4 1.167 1.167 0 0 1 .232 1.191 1.988 1.988 0 0 1-1.651 1.148 4.211 4.211 0 0 1-.659.056zm.637-4.384a1.916 1.916 0 0 1-1.526-.565 1.012 1.012 0 0 1-.21-.861 1.949 1.949 0 0 0 1.452.485 4.346 4.346 0 0 0 .6-.045 1.791 1.791 0 0 0 1.552-1 .879.879 0 0 1 .29.931 1.772 1.772 0 0 1-1.552 1.01 4.4 4.4 0 0 1-.606.045zm5.34 0a1.913 1.913 0 0 1-1.526-.565 1.008 1.008 0 0 1-.214-.861 1.943 1.943 0 0 0 1.452.485 4.408 4.408 0 0 0 .6-.045 1.789 1.789 0 0 0 1.552-1 .879.879 0 0 1 .29.931 1.77 1.77 0 0 1-1.552 1.01 4.485 4.485 0 0 1-.601.045zm5.584-.058a1.8 1.8 0 0 1-1.439-.542 1 1 0 0 1-.209-.856 1.836 1.836 0 0 0 1.362.458 4.419 4.419 0 0 0 .738-.071 1.8 1.8 0 0 0 1.505-1.031.872.872 0 0 1 .3.909 1.787 1.787 0 0 1-1.512 1.06 4.389 4.389 0 0 1-.745.071z"/><path class="v" d="M92.62 107.411c-3.846.508-12.364 2.728-12.869 5.138s5.174 3.235 9.653 3.806 8.959.7 11.609-.444 10.159-3.679 12.619-4.694 4.858-1.966 5.237-3.488-8.265-4-15.836-2.22a67.6 67.6 0 0 1-10.41 1.9"/><path class="w" d="M118.479 106.99c-.814 1.146-2.837 1.959-4.91 2.816-2.461 1.017-9.969 3.56-12.619 4.7s-7.13 1.021-11.608.449c-3.766-.481-8.376-1.142-9.452-2.775a1.39 1.39 0 0 0-.139.359c-.5 2.416 5.174 3.242 9.653 3.814s8.959.7 11.609-.445 10.158-3.687 12.619-4.7 4.858-1.971 5.237-3.5c.051-.224-.088-.469-.39-.718"/><path class="p" d="M92.378 104.196a21.284 21.284 0 0 0-4.212-1.216c-1.353-.346-.944-2.599 1.685-1.04a13.3 13.3 0 0 0 3.156 1.329"/><path class="p" d="M93.869 101.396c-2.476 0-5.459 4.617-2.284 6.052s17.829 5.3 20.177 5.8 4.948-4.801 2.855-6.052-18.4-5.8-20.748-5.8"/><path d="M115.251 107.584c-.994-1.586-3.198.292-3.846 2.254s.216 4.174 1.858 3.214a4.986 4.986 0 0 0 1.988-5.301" fill="#c9676e"/><path class="p" d="M114.039 109.088c-.452-.093-1.165 1.529-.452 1.724a5.892 5.892 0 0 1 2.9 1.2c.866.681 2.434 1.062 2.391-.682-.03-1.2-1.252-1.156-2.481-1.2a2.755 2.755 0 0 1-2.358-1.042"/><path class="y" d="M124.976 71.153a5.2 5.2 0 0 1 7.188 3c-2.297 1.973-6.522 2.206-7.688-1.979.252-.032.5-1.021.5-1.021"/><path d="M123.077 72.095c1.265 1.61 2.221-.322 2.085-.8s-.547-.746-1.401-.649" fill="#662d91"/><path class="y" d="M123.753 70.232c.187 1.276-.748 2.895-2.774 3.895.935-3.646.218-4.828 2.774-3.895"/><path class="b" d="M119.85 75.521c2.133 2.713 10.923 11.1 5.888 16.783-.768-.424-.683-5.171-1.963-6.866s-6.698-8.264-6.976-8.539 3.051-1.378 3.051-1.378"/><path class="d" d="M123.204 85.311c.929-.972 2.44-1.99 3.369-1.067-2.197-3.932-5.143-8.223-6.748-8.723a9.583 9.583 0 0 0-3.042 2.677z"/><path class="b" d="M117.097 76.92l-4.836 1.275C109.838 80.32 101.071 89.5 96.503 97.2h5.483c3.373-3.444 8.494-8.354 8.494-8.354s10.117-1.786 10.5-8.29a13.872 13.872 0 0 1-3.883-3.636"/><path class="c" d="M112.252 79.711a13.694 13.694 0 0 0 5.93-1.458 11.606 11.606 0 0 1-1.204-1.333l-4.706 1.147c-.418.339-1.033.88-1.782 1.575a12.5 12.5 0 0 0 1.762.069"/><path d="M104.895 84.919c.874 2.427 3.871 5.944 3.871 5.944 1.061-.934 2.373-2.272 2.373-2.272.562 6.411 1.436 13.2 1.436 13.2l16.8.311c-.687-3.423-4.808-16.058-5.37-17.739s-3.563-4.861-5.374-6.044c-2.56 3.423-5.026 3.361-6.524.56-1.936.809-7.212 6.04-7.212 6.04" fill="#d4145a"/><path class="p" d="M110.563 79.278c-.192 4.285-.064 17.224 1.092 23.107 12.581.81 17.716.17 17.716.17-.77-3.133-2.525-9.762-2.525-9.762-4.044 2.046-6.911-.917-7.553-4.817a21.988 21.988 0 0 1 .77-8.5l-1.412-1.157c-1.669 4.6-.77 6.267-1.476 6.778s-4.814.767-5.071.064-.642-6.458-.642-6.458z"/><path class="b" d="M106.09 59.22c-3.243 3.004-2.993 6.76-1.684 8.888s1.746 2.754 1 4.82.811 5.571 6.549 5.383 9.979-3.505 10.727-8.263c3.056.438 4.553-2.253 3.617-3.756s-3.307-2.19-4.18-.253c-.312-5-7.859-10.45-16.029-6.819"/><path class="y" d="M103.232 66.7c2.214.593 5.807-.932 9.233-6.012a6.9 6.9 0 0 0 5.6 2.583 4.958 4.958 0 0 0 2.59 2.286c-.167 2.54-.376 3.047.251 2.963s1.086-2.413 1.086-2.413l1.085-1.355c-1.588-5.333-5.891-6.773-10.487-7.323s-11.614 1.311-9.358 9.271"/><path class="h" d="M107.692 58.19c1.947-.5 10.345.785 14.861 4.045 1.409-5.365 4.308-8.317 4-12.155-.153-1.852-10.753-8.317-17.961-3.694-1.16 1.4.674 8.543-.9 11.8"/><path class="ab" d="M111.18 60.845c.066.059-.2.527-.81 1.129a13.419 13.419 0 0 1-2.642 1.962c-.548.324-1.081.609-1.565.86s-.9.5-1.295.67a2.77 2.77 0 0 1-.991.268c-.248.002-.38-.053-.38-.098.007-.1.482-.166 1.15-.615.336-.208.729-.513 1.214-.8l1.527-.9a30.617 30.617 0 0 0 2.671-1.727c.658-.481 1.046-.819 1.121-.749m-2.094-1.375c.089.154-.971.748-2.345 1.245a9.206 9.206 0 0 1-2.537.8c-.108-.145.892-.85 2.292-1.354a7.243 7.243 0 0 1 2.59-.691m11.893 2.444c.008.094-.373.237-1.015.3a6.148 6.148 0 0 1-2.5-.307 5.184 5.184 0 0 1-2.2-1.444c-.462-.536-.629-.962-.566-1.015.075-.069.362.231.855.622a7.115 7.115 0 0 0 2.093 1.144c1.759.6 3.321.475 3.332.7m.696 1.054c.042.062-.213.253-.721.409a7.13 7.13 0 0 1-2.047.257 5.957 5.957 0 0 1-2.822-.457 10.135 10.135 0 0 1 2.822-.093 18.493 18.493 0 0 0 1.927-.083c.487-.048.8-.105.841-.033"/><path class="c" d="M123.84 69.169c-.015.047-.074.068-.181.056a.584.584 0 0 1-.411-.262 1.052 1.052 0 0 1-.147-.832 2 2 0 0 1 .358-.81 2.127 2.127 0 0 1 1.134-.856c.362-.1.6.037.581.128-.014.107-.186.169-.413.349a3.871 3.871 0 0 0-.8.834 1.249 1.249 0 0 0-.326.914c.057.222.252.377.209.478m-12.671 2.941c-.055.079-.22.054-.443 0a2.721 2.721 0 0 0-.773-.1.422.422 0 0 0-.246.091.569.569 0 0 0-.15.24c-.077.2-.116.372-.214.385-.08.011-.213-.122-.256-.43a.877.877 0 0 1 .138-.58.883.883 0 0 1 .662-.389 1.452 1.452 0 0 1 1.052.356c.208.184.282.354.23.427m2.743 1.315c.082.021.111.278-.015.674a2.281 2.281 0 0 1-.352.664 1.912 1.912 0 0 1-.805.628 1.769 1.769 0 0 1-1.1.076 2.005 2.005 0 0 1-.746-.367c-.345-.288-.45-.531-.39-.583s.306.065.659.221a1.678 1.678 0 0 0 1.3.091 2.519 2.519 0 0 0 1-.909c.219-.307.357-.52.455-.494"/><path d="M116.757 69.295c.052.031.024.139-.048.3a2.12 2.12 0 0 1-.161.3 2.658 2.658 0 0 1-.5.514l-.427-.24c-.109-.06-.166-.088-.255-.133a3.281 3.281 0 0 0-.504-.208 1.087 1.087 0 0 0-.675-.015c-.05.015-.087.038-.135.054a.562.562 0 0 0-.1.07 1.036 1.036 0 0 0-.175.191c-.2.268-.149.442-.216.493-.033.023-.13 0-.2-.122a.624.624 0 0 1-.036-.512 1.011 1.011 0 0 1 .175-.326.954.954 0 0 1 .175-.172 1.559 1.559 0 0 1 .231-.129 1.709 1.709 0 0 1 1.193-.048 2.951 2.951 0 0 1 .634.281c.083.048.189.115.235.148a.13.13 0 0 0 .019.032c.019 0 .037.014.163-.1.1-.081.184-.166.267-.23.165-.13.29-.182.34-.152m-11.848 2.715c.051-.048.2.006.439.08l.193.058c.054.015.179.052.169.038.028-.007.037-.023.018-.038-.004-.001-.008-.018-.011-.018v-.037l.007-.085a.439.439 0 0 1 .035-.159.728.728 0 0 1 .384-.414 1.112 1.112 0 0 1 .488-.105 1.319 1.319 0 0 1 .716.206c.351.225.384.484.318.509-.08.044-.236-.094-.523-.169a1.2 1.2 0 0 0-.483-.046c-.172.025-.293.089-.315.182a.09.09 0 0 0-.011.051v.045l.014.052c.04.138.072.271.122.405l-.158.083a.553.553 0 0 1-.2.073 1.079 1.079 0 0 1-.474-.076 1.392 1.392 0 0 1-.3-.138 1.909 1.909 0 0 1-.188-.131c-.216-.171-.288-.321-.24-.366"/><path class="y" d="M116.07 67.074c-.051.1-.237.062-.492-.051s-.572-.3-.908-.413c-.657-.232-1.323-.079-1.383-.316-.022-.104.112-.274.387-.412a1.535 1.535 0 0 1 1.174-.064 2.267 2.267 0 0 1 .983.713c.2.246.29.447.239.541m-9.788.837c.079.155-.253.42-.564.72a3.5 3.5 0 0 0-.348.379c-.085.1-.149.206-.244.22s-.207-.087-.231-.299a.924.924 0 0 1 .326-.714c.46-.422.995-.454 1.061-.306"/><path class="ab" d="M131.468 73.76c.026.172-1.284.518-2.937.285a5.566 5.566 0 0 1-2.011-.671c-.471-.283-.69-.55-.639-.622s.364.031.844.181a12.32 12.32 0 0 0 1.909.433c1.522.217 2.815.19 2.834.393"/><path class="ab" d="M130.06 73.336c-.088.206-.688.017-1.454-.238s-1.387-.688-1.333-.926c.058-.222.7-.19 1.5.078s1.38.875 1.287 1.086"/><path class="b" d="M117.869 89.917c-1.492 1.981-7.646 12.2-8.765 12.817s-2.61.373-2.734.805 1.057.681 1.057.681c-1.74 1.053-1.43 3.034.622.743-1.055 1.857-.436 2.844 1.18.185-.746 1.61-.435 2.972 1.057.433a4.281 4.281 0 0 0 1.927-1.486c.311-.557 7.459-7.616 9.7-11.764s-4.292-2.538-4.044-2.414"/><path d="M121.789 81.116c-1.014.127-5.006 8.973-5.006 8.973 1.113-.7 4.843 1.776 5.235 3.615 2.814-4.376 3.795-11.478-.229-12.588" fill="#e01e65"/><path class="b" d="M103.497 95.102h-6.114c-.593.893-2.535 3.131-3.018 3.986-3.343 1.19-2.057 1.879-.043 1.214-2.1 1.586-.45 2.129.9.5-1.672 2 .729 1.586 2.015-.585.386 1.5 1.393 1.8 1.072-.459.736-.848 3.47-2.987 5.188-4.656"/><path class="j" d="M126.457 86.721c.079.055.017.25.01.53a8.672 8.672 0 0 0 .091 1.168 2.766 2.766 0 0 1-.184 1.322c-.126.306-.243.479-.332.469s-.132-.237-.123-.561a7.94 7.94 0 0 0-.017-1.178 2.744 2.744 0 0 1 .114-1.334c.158-.349.377-.466.441-.416"/><path class="k" d="M120.977 58.022c-.087.177-2.718-1.1-6.213-1.757a23.6 23.6 0 0 0-2.472-.338c-.79-.062-1.476-.173-2.05-.2a5.669 5.669 0 0 0-1.341.047c-.309.054-.477.124-.509.081s.108-.188.43-.331a3.993 3.993 0 0 1 1.424-.273c.609-.032 1.319.032 2.087.057a17.5 17.5 0 0 1 2.56.3c3.617.685 6.183 2.273 6.084 2.417"/><path class="k" d="M111.09 47.549a16.646 16.646 0 0 1 .02 3.854 14.34 14.34 0 0 1-.362 3.838 11.336 11.336 0 0 1-.237-3.865c.079-2.141.414-3.852.579-3.827m2.105 4.896c.132.022.125.867-.048 1.815s-.31 1.685-.433 1.685-.194-.861-.016-1.83.375-1.689.497-1.67m9.131-1.399a9.224 9.224 0 0 1-.632 3.647 10.691 10.691 0 0 1-1.381 3.344 12.481 12.481 0 0 1 .84-3.567 16.7 16.7 0 0 1 1.173-3.424m.672 4.895c.159.062.078.749-.252 1.555s-.892 1.345-1.03 1.227.128-.71.437-1.468.673-1.376.845-1.314"/><path class="b" d="M48.869 43.272a16.524 16.524 0 0 1-1.317 7.435c.864 5.177 8.453 5.049 10.49 0a35.931 35.931 0 0 1-1.235-8.053z"/><path class="c" d="M57.343 48.725a38.951 38.951 0 0 1-.646-5.371l-8.119.589a13.714 13.714 0 0 1-.326 4.055 21.235 21.235 0 0 0 9.091.726"/><path class="ad" d="M71.715 107.69c-.085-1.592-1.343-4.941-3.544-5.95 6.976-9.735 5.465-15.971 2.194-26.157-.027.09-2.87 9.661-2.87 14.084 0 1.286.051 2.857.1 4.376.122 3.785.248 7.7-.351 8.115-.495.344-8.838.694-16.532.694-3.555 0-9.808-.079-11.74-.61-.674-.849-.789-3.624-.768-5.8-6.443-1.179-11.664-3.057-15.1-5.431a12.251 12.251 0 0 1-3.145-2.92 5.7 5.7 0 0 1-1.064-2.963c-.139-2.091.775-4.457 1.931-7.452a55.617 55.617 0 0 1 4.648-9.182 45.554 45.554 0 0 1 5.985-7.563 42.875 42.875 0 0 1 7.346-5.96 47.138 47.138 0 0 1 8.731-4.373c.815 1.779 3.22 3.12 5.6 3.12a4.915 4.915 0 0 0 4.823-3.371h.015c1.1.386 10.8 3.85 13.91 6.7 1.5 1.379 3.8 5.59 6.139 11.265a84.8 84.8 0 0 1 4.747 14.735 19.1 19.1 0 0 1-.907 11.286c-1.652 4.082-4.877 8.327-10.147 13.36zM35.257 73.57c-3.648 3.864-5.12 7.272-4.374 10.13.921 3.526 4.943 5.269 7.259 5.993a150.94 150.94 0 0 0-2.885-16.123z"/><path class="e" d="M37.341 55.445c-1.528 8.182 3.735 30.337 3.99 39.026a7.76 7.76 0 0 1-3.693 1.82 25.277 25.277 0 0 0-.254 6.47s30.945.212 31.073-.423c.424-3.467-1.083-9.958-1.083-9.958-1.719 0-2.674-3.425-2.547-7.294s.255-26.447 1.4-31.268a179.109 179.109 0 0 1-2.95-1.373c-.446 6.659-1.314 14.059-1.314 14.059-3.247.951-16.173 1.459-19.611.317-1.019-4.757-1.719-13-1.719-13z"/><path class="b" d="M42.302 32.99c-5.942-3.2-6.55 7.263 1.171 4.8.52 4.279.65 5.316 2.6 6.354s11.387 4.15 16.852-.388c1.237-1.429 1.237-19.325-3.184-23.215s-18.87-1.426-17.439 12.449"/><path class="y" d="M41.518 22.868c-4.406 3.74-3.369 7.481-1.124 4.784-.777 4 1.511 5.088 1.511 5.088.734 3.871 2.376 2.045 2.116-.652 2.592-1.218 2.764-5.915 1.468-8.872 4.924 2.087 6.738 2.261 5.875.783 5.355 2.261 4.923-1.566 4.405-1.914 3.713 1.392 1.727-.87 1.727-.87 5.96 1.3 6.391-2.61.777-2.871-3.626-2.264-12.35-3.044-16.755 4.524"/><path class="h" d="M40.458 24.472c2.253-2.236 12.477-6.02 18.283-5.762C55.966 6.068 55.102 2.629 52.502 2.8s-13.949.431-18.888 8.858c-.52 1.636 3.292 8.342 6.844 12.814"/><path d="M39.86 98.457c1.284 1.675 7.028 2.939 13.922 2.939 7.162 0 13.082-1.364 14.05-3.136-.01-.233-.025-.467-.046-.7.123-3.273-27.499-3.568-27.926.897" fill="#9e9790"/><path d="M48.869 88.291c-.959-2.491-5.82-11.017-5.497-12.284s2.652-1.585 3.234-.633 5.626 15.448 6.273 17.666.647 4.306 1.617 4.686 3.492 1.583 4.2 3.419-7.631.443-7.631.443 1.164-3.1 1.035-4.242-1.743-5.192-3.231-9.055" fill="#45423f"/><path class="k" d="M67.819 97.899c-.968 1.819-6.884 3.22-14.04 3.22-6.89 0-12.63-1.298-13.913-3.02a1.221 1.221 0 0 0 0 .274c.126 2.971 4.142 11.678 9.2 13.246a18.751 18.751 0 0 0 12.174-.083c2.672-1.037 6.857-6.954 6.579-13.637"/><path class="ag" d="M59.431 51.745c.039.026-.045.234-.236.593-.1.178-.213.4-.368.643l-.6.771a9.953 9.953 0 0 1-.849.826 5.493 5.493 0 0 1-.538.38 3.473 3.473 0 0 1-.6.355 5.788 5.788 0 0 1-2.982.619 7.152 7.152 0 0 1-2.924-.8 8.964 8.964 0 0 1-2.049-1.419 4.736 4.736 0 0 1-1.427-1.829c.087-.077.643.601 1.721 1.429a10.265 10.265 0 0 0 2.009 1.216 7.225 7.225 0 0 0 2.7.687 5.592 5.592 0 0 0 2.695-.5 3.106 3.106 0 0 0 .556-.3 5.366 5.366 0 0 0 .51-.318c.3-.257.607-.458.841-.705l.644-.662.445-.55c.25-.3.41-.457.449-.43"/><path d="M51.677 34.265c-.092.023-.188-.221-.383-.545a1.815 1.815 0 0 0-.919-.876.872.872 0 0 0-.964.451c-.2.3-.3.548-.393.523-.039-.009-.061-.08-.067-.208a1.52 1.52 0 0 1 .09-.534 1.486 1.486 0 0 1 .483-.681 1.12 1.12 0 0 1 1.006-.181 1.6 1.6 0 0 1 .8.593 2.3 2.3 0 0 1 .344.721 1.609 1.609 0 0 1 .067.526c-.005.127-.028.2-.069.207m9.769-.004c-.094.022-.188-.259-.353-.631a1.445 1.445 0 0 0-.14-.281 1.157 1.157 0 0 0-.177-.252.463.463 0 0 0-.472-.134 2.478 2.478 0 0 0-1.031.823c-.249.3-.4.52-.485.474s-.061-.361.133-.8a2.19 2.19 0 0 1 1.262-1.259.937.937 0 0 1 .994.384 1.637 1.637 0 0 1 .227.449 1.655 1.655 0 0 1 .1.409c.08.5.012.8-.061.818"/><path class="c" d="M56.9 31.466c.1 0 .2.487.31 1.289a11.627 11.627 0 0 1 .036 3.201 3.9 3.9 0 0 1-.671 1.748l-.141.18-.171.156a1.294 1.294 0 0 1-.378.261 1.771 1.771 0 0 1-.8.157 1.714 1.714 0 0 1-1.033-.366c-.2-.176-.23-.328-.191-.349s.147.048.345.121a1.93 1.93 0 0 0 .866.1c.761-.007 1.287-.959 1.454-2.116a25.655 25.655 0 0 0 .169-3.072c.018-.802.102-1.31.205-1.31m.436 8.61c.047.058-.172.342-.676.66a3.575 3.575 0 0 1-.989.434 2.688 2.688 0 0 1-1.403-.012 3.784 3.784 0 0 1-1.183-.6 7.13 7.13 0 0 1-.772-.653c-.402-.394-.615-.667-.555-.732s.39.095.867.4a7.882 7.882 0 0 0 1.839.99 3.061 3.061 0 0 0 1.967-.211c.517-.194.843-.356.905-.276"/><path class="y" d="M47.786 30.07a2.356 2.356 0 0 1 3.949-.215c.317-3.868-5.391-4.941-3.949.215m15.617-.699a2.355 2.355 0 0 0-3.95-.218c-.312-3.865 5.388-4.938 3.95.218"/><path class="c" d="M41.434 36.35c-.095-.058 0-.312-.032-.636a1.5 1.5 0 0 0-.6-1.031 2.36 2.36 0 0 0-1.114-.552.314.314 0 0 0-.26.054c-.067.052-.107.123-.167.12s-.106-.061-.1-.222a.482.482 0 0 1 .117-.278.731.731 0 0 1 .328-.2 1.942 1.942 0 0 1 1.665.5 2.01 2.01 0 0 1 .59.818 1.409 1.409 0 0 1 .052.865c-.14.48-.413.617-.48.566"/><path class="ag" d="M42.746 90.207c.453-.088.945 1.011.3 3.252s-1.736 4.181-2.378 3.653c-.454-2.813.566-6.197 2.078-6.905"/><path class="b" d="M40.96 91.109c2.236.573 3.833.827 5.366-.573s2.871-3.244 4.915-2.035a14.183 14.183 0 0 1 4.089 4.262c.447.7 1.022 2.99.192 3.181s-2.811-1.654-6.452-.382-6.9 1.209-9.01.064c-.573-1.272.193-3.817.9-4.517"/><path class="ah" d="M34.266 88.109c2.067 1.31 7.9 1.842 8.392 1.965-1.406.982-2.48 4.667-1.86 6.427a44.815 44.815 0 0 1-5.374-1.024"/><path class="b" d="M68.593 102.095c-1.158 1-2.4 2.084-2.4 2.084-2.48-.917-5.044-.334-5.127.416s3.391 1.417 3.391 1.417c-.33 2.917-7.196 5.833-7.114 6.583s4.384 1.167 6.865-.25c2.4.334 5.212-2.417 7.114-4.917.082-3-.662-4.667-2.73-5.334"/><path class="c" d="M55.934 94.384c-.133.144-1.184-.58-2.712-.722s-2.812.151-2.872-.037c-.025-.079.265-.252.792-.406a5.79 5.79 0 0 1 2.164-.184 4.607 4.607 0 0 1 2.044.71c.45.308.639.578.581.639m-1.401-2.1c-.131.131-.921-.388-2.058-.61a7.022 7.022 0 0 0-1.452-.157c-.376-.003-.625.022-.67-.071s.173-.282.593-.416a3.356 3.356 0 0 1 1.67-.039 3.619 3.619 0 0 1 1.515.694c.338.278.465.533.4.6m-.689-1.438c-.1.193-.9-.123-1.8-.469a5.08 5.08 0 0 0-1.133-.3c-.287-.038-.493-.011-.547-.103-.05-.076.105-.298.491-.408a2.417 2.417 0 0 1 1.438.129c1.024.4 1.634.989 1.551 1.151m11.879 17.542c.075.044-.105.507-.541 1.182a9.682 9.682 0 0 1-2.136 2.333 7.919 7.919 0 0 1-1.533.917 5.648 5.648 0 0 1-1.415.413c-.843.121-1.358-.007-1.352-.08 0-.1.5-.144 1.242-.364a7.533 7.533 0 0 0 1.25-.5 10.05 10.05 0 0 0 1.388-.891 16.331 16.331 0 0 0 2.175-2.096c.518-.584.839-.959.922-.91m1.389.701c.081.041-.034.414-.359.962a7.115 7.115 0 0 1-1.694 1.9 6.672 6.672 0 0 1-2.385 1.188c-.674.17-1.11.166-1.13.087-.056-.191 1.567-.579 3.049-1.757s2.325-2.486 2.519-2.38"/><path class="ah" d="M72.553 90.906a24.882 24.882 0 0 1-4.721 10.735c2.2 1.022 3.466 4.43 3.55 6.049 6.95-6.734 10.12-11.908 11.135-16.784z"/><path class="k" d="M56.643 14.748a16.473 16.473 0 0 1-2.682.576 54.183 54.183 0 0 0-6.334 1.773 49.689 49.689 0 0 0-6.066 2.542c-.755.376-1.336.727-1.741.97s-.617.4-.651.362.132-.246.492-.579a11.893 11.893 0 0 1 1.665-1.18 33.276 33.276 0 0 1 6.083-2.766 34.942 34.942 0 0 1 6.473-1.6 8.274 8.274 0 0 1 2.762-.1m-3.51-2.865c-.082.057-.4-.455-.738-1.322s-.76-2.08-1.225-3.409a27.083 27.083 0 0 0-1.32-3.302 2.324 2.324 0 0 0-.579-.789c-.166-.125-.302-.096-.321-.148-.02-.026.125-.177.416-.091a1.883 1.883 0 0 1 .847.767 14.7 14.7 0 0 1 1.537 3.327A48.75 48.75 0 0 1 52.81 10.4a6.155 6.155 0 0 1 .327 1.481m1.3-3.492a8.043 8.043 0 0 1-.7-2.435 14.333 14.333 0 0 1-.567-2.453c.063-.047.269.157.495.568a7.049 7.049 0 0 1 .624 1.725 4.809 4.809 0 0 1 .147 2.6m-11.81 4.188c-.086.037-.328-.274-.669-.8a18.208 18.208 0 0 1-1.19-2.14c-.824-1.751-1.049-3.312-.826-3.351a23.849 23.849 0 0 1 1.443 3.092c.394.848.771 1.618 1 2.2s.325.963.24 1m-2.076 4.191c-.176.127-1.643-1.57-3.077-3.877a17.584 17.584 0 0 1-1.6-3.1 2.654 2.654 0 0 1-.201-1.074.417.417 0 0 1 .158-.316c.084-.027.13-.018.136-.001s-.007.054-.034.096a.47.47 0 0 0 .018.214 4.635 4.635 0 0 0 .4.9c.4.762 1.037 1.8 1.746 2.938 1.42 2.285 2.6 4.119 2.459 4.218m-2.811.704c-.08.045-.342-.3-.763-.853a27.508 27.508 0 0 1-1.568-2.27 7.909 7.909 0 0 1-1.093-2.649c-.128-.756.012-1.23.087-1.217.1.008.127.448.349 1.092a12.684 12.684 0 0 0 1.191 2.4c.55.907 1.076 1.73 1.407 2.371s.466 1.083.39 1.125"/><path class="ag" d="M36.333 76.918a12.385 12.385 0 0 1-1.128-4.441 14.8 14.8 0 0 1-.123-4.648 29.29 29.29 0 0 1 .666 4.54 40.358 40.358 0 0 1 .586 4.549m32.238 3.498c-.2-.05.328-2.28 1.147-4.955l1.02-3.427c.26-.877.43-1.422.527-1.408s.09.591-.052 1.508a27.474 27.474 0 0 1-.835 3.512c-.824 2.692-1.635 4.813-1.807 4.77m-26.614 9.682a4.337 4.337 0 0 1-1.731.09 13.394 13.394 0 0 1-4.087-.87 12.6 12.6 0 0 1-3.54-2.077 7.152 7.152 0 0 1-.879-.844c-.19-.214-.277-.346-.246-.376.154-.158 2 1.607 4.921 2.73a18.794 18.794 0 0 0 3.885 1.006 5.611 5.611 0 0 1 1.677.341m-.699 6.944c0 .086-.409.168-1.063.156a17.177 17.177 0 0 1-2.521-.265 17.315 17.315 0 0 1-2.461-.594c-.619-.206-.977-.417-.948-.497s.425-.028 1.058.059 1.5.238 2.463.405 1.829.326 2.456.447 1.014.2 1.016.29"/><path d="M44.752 30.318c.026.082-.08.276-.372.4a.6.6 0 0 1-.593-.075 1.2 1.2 0 0 1-.408-.809 3.12 3.12 0 0 1 .162-1.409c.116-.32.237-.484.307-.456s.087.258.077.581a7.551 7.551 0 0 0 0 1.151c.024.743.782.4.823.618m-1.389-2.147c0 .019-.019.038-.059.056l.047-.028a3.107 3.107 0 0 1-.558 1.195 2.252 2.252 0 0 1-.4.428 1.043 1.043 0 0 1-.709.242 1.078 1.078 0 0 1-.721-.393 1.483 1.483 0 0 1-.359-.76 3.935 3.935 0 0 1 .1-1.591 8.006 8.006 0 0 1 .388-1.174c.271-.641.491-1.003.571-.975s0 .459-.157 1.12c-.075.33-.168.721-.243 1.151a4.113 4.113 0 0 0-.052 1.34.892.892 0 0 0 .2.456.546.546 0 0 0 .327.223c.207.046.5-.179.7-.392.415-.442.676-.839.818-.928l.045-.028c.04.018.059.037.059.056m8.246-2.995c-.1-.01-.15-.238-.312-.525a4.073 4.073 0 0 0-.81-1 5.5 5.5 0 0 0-1.041-.763c-.288-.164-.488-.242-.488-.349s.233-.2.617-.148a2.584 2.584 0 0 1 1.325.685 2.657 2.657 0 0 1 .826 1.384c.086.448-.037.723-.117.708m3.041-4.806c.005-.037.078-.063.205-.076a1.075 1.075 0 0 1 .242 0c.048 0 .1.007.155.015l.239.077c.145.071.33.19.308.383a.5.5 0 0 1-.12.256 1.175 1.175 0 0 1-.279.2 1.071 1.071 0 0 1-.14.061l-.06.023c-.02.008 0 0-.011.006s0 .007 0 .009.007.006.011.006-.036-.005-.035.01c-.1-.036.3.177.456.338a.978.978 0 0 1 .318.484c.031.133 0 .21-.041.217-.1.017-.212-.2-.577-.392a5.687 5.687 0 0 0-1.007-.401l-2.065-.638-.494-.162 1.542.08.352.02.236.01.461.016a1.892 1.892 0 0 0 .287-.03c.084-.013.177-.02.248-.039l.205-.057c.064-.021.06-.008.095-.034s.009-.049-.012-.074l-.045-.038-.115-.054c-.071-.035-.14-.061-.2-.086-.11-.05-.171-.1-.165-.134" fill="#6e4b2a"/><path class="b" d="M146.367 102.794c-1.622.517-3.2 1.291-3.331 1.206-1.1-.344-4.91.043-2.411.9-1.885.56-1.972 1.464-.131.947-2.016 1.291-.789 1.722.657.818-1.578 1.123-.39 1.295.57.649s2.016.43 3.331-.646c2.718-.3 3.2-.947 3.2-.947a14.037 14.037 0 0 0-1.885-2.927"/><path class="q" d="M158.62 96.5c-2.889 1.888-6.612 4.972-13.865 6.8a6.079 6.079 0 0 1 1.541 3.69c3.659-.063 11.211-2.9 13.009-4.531s.278-5.896-.685-5.959"/><path class="m" d="M157.281 148.249l14.619.07.128 2.73-15.385-.213"/><path class="m" d="M157.163 137.06c-.599 3.964-3.477 47.255-4.016 50.842 0 .881 2.1 1.384 2.757.252.66-4.531 3.537-50.842 3.537-50.842zm15.744 0c.6 3.964 3.477 47.255 4.016 50.842 0 .881-2.1 1.384-2.757.252-.66-4.531-3.537-50.842-3.537-50.842z"/><path class="m" d="M157.498 129.585c-4.842.726-5.224 3.483-3.185 5.664s14.143 4.211 20.9.29c2.676-1.887 3.568-4.792.382-5.083s-11.854-1.597-18.097-.871"/><path class="n" d="M153.208 133.285a3.748 3.748 0 0 0 1.1 3.205c2.039 2.314 14.149 4.474 20.904.308 1.529-1.146 2.471-2.643 2.407-3.774l-.241-.16c-5.843 4.959-23.007 3.231-24.17.421"/><path d="M173.427 127.409s2.974-.612 4.176.733 2.91 4.461 1.708 4.706-2.214-2.262-5.184-2.2" fill="#4f2e10"/><path d="M168.432 111.885c.367 1.661-.529 7.33-2.9 14.015 4.037 0 8 .685 8.32 1a4.179 4.179 0 0 1 .856 3.675c-9.665-.083-14.722.747-16.149-.5s.53-14.16.53-14.16 6.202-3.822 9.343-4.03" fill="#0065a8"/><path d="M174.126 130.206s2.974-.612 4.176.733 2.91 4.461 1.708 4.706-2.214-2.262-5.184-2.2" fill="#603813"/><path d="M169.564 114.682c.382 1.661-.552 7.33-3.016 14.015 4.206 0 8.338.685 8.666 1a4.047 4.047 0 0 1 .892 3.675c-10.065-.09-15.335.744-16.822-.502s.552-14.16.552-14.16 6.457-3.82 9.728-4.028" fill="#0071bc"/><path class="ad" d="M157.924 95.643c-1.18 4.255-1.052 13.391-1.98 19.022 3.589 2.315 11.449 1.5 13.986-.375-.866-7.759-1.857-17.208-6.807-20.587a28.818 28.818 0 0 0-5.2 1.94"/><path class="b" d="M149.524 108.389c-1.526.495-4.495 2.143-4.619 2.061-1.031-.329-4.619.041-2.268.866-1.773.536-1.856 1.4-.124.907-1.9 1.237-.742 1.649.619.783-1.485 1.072-.371 1.237.536.618s1.9.412 3.134-.618c2.557-.288 4.247-.33 4.247-.33s-.824-3.669-1.525-4.287"/><path class="e" d="M163.933 94.104c-.064 2.787-5.3 3.336-5.041 10.62s5.423 6.271 10.592 4.5c.191.887.447 1.773.447 1.773a14.288 14.288 0 0 0-4.275.76c-.51 5.194-1.4 16.658-2.68 17.545-3.254.438-10.528-1.336-10.528-1.336 1.531-4.434 3.063-15.075 3.382-18.938s.447-9.437.447-9.437l2.105.313c1.4-3.04 4.807-5.447 5-6.9a1.851 1.851 0 0 1 .553 1.1"/><path class="ah" d="M148.951 107.952c1.015.865 1.523 3.4 1.4 4.632 6.467.062 12.368-4.384 14.208-7.967s1.454-7.6-.7-7.411c-3.424.31-4.883 8.276-14.908 10.746"/><path class="c" d="M153.211 90.281c-1.174.793-3.368 2.243-2.755 2.633.531.337 2.666-.226 3.388-2.493.045-.378-.633-.14-.633-.14"/><path class="b" d="M167.014 90.294c3.724-7.447 3.538-14.643-6.689-16.02s-11.108 6.949-10.666 12.641c-2.714.25-2.9.814 0 2.879.274.772.295 1.356.484 1.481a6.059 6.059 0 0 0 3.7-.333c-1.346 2.92-2.987 2.669-2.987 2.669 2.272 1.877 11.549 5.069 16.156-3.317"/><path class="f" d="M155.106 74.267c-2.08-.165-4.67 1.531-3.927 2.627.637 1.3 4.012 3.165 7.9 2.855.573 1.117.892 1.8 2.165 1.924a1.855 1.855 0 0 0 .318 2.358c-.955 1.8-.191 2.917.382 2.917s0-1.924 2.038-2.048 2.611 3.661-1.337 4.406c-1.083 1.241.446.993.637.931-2.038 1.613-.255 4.654 2.165 2.979a10.085 10.085 0 0 0 3.545-12.7c-3.061-4.842-10.575-6.993-13.886-6.249"/><path class="h" d="M155.245 74.132c2.276-.124 8.66 1.182 13.907 6.284a9.062 9.062 0 0 1 3.856-4.169c1.2-.56 6.7-4.106 5.942-7.9a12.889 12.889 0 0 0-4.362-8.337c-2.655-2.116-4.109-2.738-8.343-3.236s-6.2.373-7.4 2.924.063 11.7-3.6 14.434"/><path d="M153.811 86.426c-.085.057-.271-.124-.539-.394s-.658-.656-1.017-.67c-.334-.038-.606.396-.733.736s-.19.608-.291.612c-.082.002-.208-.258-.182-.734a1.8 1.8 0 0 1 .268-.815 1.1 1.1 0 0 1 .957-.549 1.4 1.4 0 0 1 .924.456 2.481 2.481 0 0 1 .452.636c.2.393.235.672.16.721"/><path class="f" d="M153.814 82.507c-.072.044-.2-.1-.418-.253a2.666 2.666 0 0 0-.907-.438 2.093 2.093 0 0 0-.962-.026c-.249.052-.418.126-.468.047-.043-.062.052-.287.332-.485a1.484 1.484 0 0 1 1.211-.181 1.83 1.83 0 0 1 1.052.734c.2.305.223.567.16.6"/><path class="e" d="M169.231 110.375c.03-2.162 2.861-6.262 3.548-5.354s1.874 2.808 1.088 3.416-4.049 2.529-4.636 1.938"/><path class="e" d="M169.231 109.902c1.252-.415 6.311.33 6.294 1.395s-1.753 2.79-2.502 2.681-3.611-3.499-3.792-4.076"/><path class="e" d="M169.231 109.787c.293 1.016 2.188 8.392 2.188 8.392l1.312-.392s-2.41-7.563-3.5-8"/><path class="k" d="M169.924 75.515c-.067.067-.628-.383-1.53-1.1a28.567 28.567 0 0 0-3.668-2.531 15.709 15.709 0 0 0-2.212-1.005 11.214 11.214 0 0 0-1.921-.485 12.577 12.577 0 0 1-1.852-.233 3.627 3.627 0 0 1 1.9-.223 8.965 8.965 0 0 1 2.06.373 12.916 12.916 0 0 1 2.346 1.008 18.091 18.091 0 0 1 3.654 2.755c.837.813 1.284 1.379 1.224 1.44m-7.716-16.776c.1.037-.062.618-.29 1.55s-.5 2.224-.717 3.672-.38 2.778-.544 3.733-.318 1.545-.418 1.534-.12-.613-.087-1.581a34.468 34.468 0 0 1 .34-3.781 17.8 17.8 0 0 1 .941-3.713c.36-.92.69-1.445.775-1.413m.788 7.691a4.277 4.277 0 0 1 0-1.6 23.267 23.267 0 0 1 .611-3.8 9.774 9.774 0 0 1 1.578-3.508 2.89 2.89 0 0 1 .822-.81c.265-.132.434-.049.429-.012 0 .054-.137.074-.3.237a4.8 4.8 0 0 0-.6.877 13.01 13.01 0 0 0-1.332 3.4c-.368 1.406-.586 2.726-.778 3.685s-.345 1.541-.43 1.531"/><path class="k" d="M174.804 66.431c.166.058-.649 2.2-2.467 4.347-1.799 2.153-3.697 3.463-3.799 3.337-.13-.145 1.539-1.644 3.284-3.734 1.763-2.079 2.809-4.023 2.982-3.95m.008 6.306c.131.127-.753 1.25-2.158 2.182s-2.642 1.429-2.724 1.273c-.082-.168 1.029-.934 2.382-1.842s2.375-1.742 2.5-1.613"/><path class="i" d="M157.09 75.635a2.489 2.489 0 0 1 1.584-.014 3.588 3.588 0 0 1 1.627.738 1.525 1.525 0 0 1 .537 1.068 1.854 1.854 0 0 1-.42 1.2 2.948 2.948 0 0 1-1.957 1.04 5.236 5.236 0 0 1-1.741-.046 2.607 2.607 0 0 1-1.475-.6c.033-.08.586.144 1.522.22a5.876 5.876 0 0 0 1.616-.068 2.622 2.622 0 0 0 1.626-.884 1.364 1.364 0 0 0 .318-.839 1.035 1.035 0 0 0-.347-.715 3.665 3.665 0 0 0-1.395-.742c-.896-.282-1.491-.272-1.495-.358"/><path class="i" d="M160.05 76.222c-.078 0-.121-.184-.283-.357a1.82 1.82 0 0 0-.873-.45c-.811-.218-1.538-.232-1.551-.374s.742-.356 1.686-.108a1.555 1.555 0 0 1 1.039.743c.146.338.036.553-.018.544m4.275 3.497c.049.024-.052.281-.4.618a3.052 3.052 0 0 1-1.88.77 3.7 3.7 0 0 1-2.019-.463c-.435-.255-.621-.48-.579-.515s.317.1.759.27a4.354 4.354 0 0 0 1.8.312 3.424 3.424 0 0 0 1.673-.572c.372-.254.58-.452.646-.416m-.046 2.099c.141.034.049.661-.636 1.116a1.67 1.67 0 0 1-1 .274c-.27-.021-.415-.113-.405-.179.03-.145.574-.171 1.069-.516.508-.324.818-.758.973-.7m1.413 9.484c.016.054-.275.2-.834.287a2.175 2.175 0 0 1-.487.01.9.9 0 0 1-.594-.258.64.64 0 0 1-.108-.616 1.64 1.64 0 0 1 .266-.514 3.98 3.98 0 0 1 1.61-1.217c.506-.21.875-.207.886-.15s-.28.167-.684.425a5.152 5.152 0 0 0-1.343 1.18c-.2.253-.3.553-.213.651.07.117.407.166.641.167.5 0 .842-.032.86.035"/><path class="c" d="M163.187 88.111c-.1.011-.228-.155-.247-.448a1.6 1.6 0 0 1 .368-1.082 1.655 1.655 0 0 1 .578-.453 1.313 1.313 0 0 1 .659-.11c.383.053.521.227.484.3-.039.094-.241.1-.451.175a1.376 1.376 0 0 0-.634.474c-.43.535-.545 1.122-.757 1.144"/><path class="i" d="M166.202 91.493a.109.109 0 0 1-.075.1.192.192 0 0 1-.228-.063.77.77 0 0 1-.165-.523 1.972 1.972 0 0 1 .071-.562c.185-.71.554-1.047.617-.907a4.206 4.206 0 0 1-.271 1.122 1.47 1.47 0 0 0-.075.561c.027.111.136.187.127.271"/><path d="M32.009 107.135c-2.12 2.588 2.473 8.356 5.607 5.256s-3.274-8.1-5.607-5.256" fill="#f2e7da"/><path d="M43.564 109.328c-2.05-2.462-8.84.283-6.833 4.001s9.26-1.091 6.835-4" fill="#fcf3f0"/><path d="M16.112 96.599c0 3.535-.064 20.455 0 20.707s10.991.189 11.949.063a13.28 13.28 0 0 0 3.834-2.02c.192-.253.319-18.624.256-18.813s-2.428-2.652-2.492-2.9-.128-2.971-.383-3.224-10.416-.315-10.48.063.192 2.588-.064 2.9a28.982 28.982 0 0 0-2.62 3.22" fill="#b8cfde"/><path d="M27.273 96.866c0 1.179.374 18.337.738 20.613a14.006 14.006 0 0 0 3.878-2.014c.2-.253.327-18.662.262-18.852s-2.488-2.657-2.554-2.91a21.246 21.246 0 0 0-2.324 3.163" fill="#99aebd"/><path d="M16.084 96.255c2.38.135 10.764.321 11.089.214.376-.124 1.942-3.035 2.193-3.159a103.817 103.817 0 0 0-10.713-.248 28.431 28.431 0 0 0-2.569 3.159z" fill="#e6f1fa"/></svg>