<svg xmlns="http://www.w3.org/2000/svg" width="14.458" height="20"><defs><style>.a{fill:#e69f5f}.b{fill:#e09156}.c{fill:#ffd7a3}.f{fill:#623f33}.i{fill:#f05467}.j{fill:#d4445a}</style></defs><path class="a" d="M14.458 17.277a20.8 20.8 0 0 1-7.229 1.037A20.8 20.8 0 0 1 0 17.277L.91 5.854A6.347 6.347 0 0 1 7.228 0a6.347 6.347 0 0 1 6.317 5.854z"/><path class="b" d="M8.916.275A6.1 6.1 0 0 0 7.106 0 6.281 6.281 0 0 0 .895 5.849L0 17.262a15.4 15.4 0 0 0 3.53.81z"/><path class="c" d="M13.723 17.855l-.065-.224a.226.226 0 0 0-.246-.161l-.229-1.718a1.717 1.717 0 0 0-.934-1.309l-.74-.37a.217.217 0 0 0-.29.1l-1.461-.543a.687.687 0 0 1-.469-.652V11.87l1.479-.615a2.061 2.061 0 0 0 1.268-1.9v-.347a1.031 1.031 0 0 0 0-2.061v-.692c0-.949-.769-2.4-1.717-2.4h-6.18c-.948 0-1.716 1.456-1.716 2.4v.687a1.031 1.031 0 0 0 0 2.061v.352a2.061 2.061 0 0 0 1.267 1.9l1.479.617v1.106a.687.687 0 0 1-.469.652l-1.463.539a.216.216 0 0 0-.289-.1l-.674.337a1.754 1.754 0 0 0-1 1.342l-.231 1.719a.226.226 0 0 0-.246.161l-.065.227a.227.227 0 0 0 .154.281l.506.148v1.031a.687.687 0 0 0 .687.687h10.3a.687.687 0 0 0 .687-.687v-1.034l.506-.148a.227.227 0 0 0 .151-.278z"/><path d="M9.156 11.807H5.143v1.056a.652.652 0 0 1-.324.561 4.591 4.591 0 0 0 4.337-1.617z" fill="#fdc88e"/><path d="M11.992 6.978v-.694c0-.958-.762-2.429-1.7-2.429H4.167c-.939 0-1.7 1.471-1.7 2.429v.694a1.041 1.041 0 0 0 0 2.082v.347a2.083 2.083 0 0 0 1.256 1.922l2.2.934a3.344 3.344 0 0 0 1.308.267 3.344 3.344 0 0 0 1.308-.267l2.2-.934a2.083 2.083 0 0 0 1.256-1.922v-.352a1.041 1.041 0 0 0 0-2.082z" fill="#ffe1b2"/><path class="f" d="M9.518 8.193a.344.344 0 0 1-.361-.321V7.55a.344.344 0 0 1 .361-.321.344.344 0 0 1 .362.321v.322a.344.344 0 0 1-.362.321z"/><path d="M7.229 10.603a2.938 2.938 0 0 1-1.539-.382.307.307 0 0 1-.089-.443.35.35 0 0 1 .468-.084 2.267 2.267 0 0 0 1.16.272 2.267 2.267 0 0 0 1.159-.272.35.35 0 0 1 .469.084.307.307 0 0 1-.089.442 2.938 2.938 0 0 1-1.539.383z" fill="#e4b07b"/><path class="c" d="M4.236 10.499a1.675 1.675 0 0 1-.422-1.122V7.87a12.388 12.388 0 0 0 5.825-2.621l-.415-.43A13.458 13.458 0 0 1 2.46 6.833a1.033 1.033 0 0 0-1.014 1.051A1.033 1.033 0 0 0 2.46 8.935v.35a2.1 2.1 0 0 0 1.249 1.94l2.185.943a3.31 3.31 0 0 0 .327.12 14.279 14.279 0 0 1-1.985-1.789z"/><path d="M13.494 17.781l-.276-2.082a1.737 1.737 0 0 0-.938-1.323L11.537 14a.22.22 0 0 0-.31.146 4.147 4.147 0 0 1-4 3.074 4.147 4.147 0 0 1-4-3.075.218.218 0 0 0-.299-.146l-.678.341a1.774 1.774 0 0 0-1.005 1.359l-.281 2.122a87.22 87.22 0 0 0 2.472.789V20h7.591v-1.39z" fill="#ff6473"/><path class="i" d="M3.374 18.554a2.173 2.173 0 0 0-.4-1.163l-1.587-2.21a1.775 1.775 0 0 0-.155.525l-.268 2.099z"/><path class="j" d="M.732 17.749a.233.233 0 0 0 .15.287l2.492.764v-.267a2.194 2.194 0 0 0-.061-.484l-2.245-.691a.219.219 0 0 0-.273.157z"/><path class="i" d="M11.084 18.554a2.173 2.173 0 0 1 .4-1.163l1.587-2.21a1.775 1.775 0 0 1 .154.525l.268 2.1z"/><path class="j" d="M13.726 17.749a.233.233 0 0 1-.15.287l-2.492.759v-.262a2.194 2.194 0 0 1 .061-.484l2.244-.691a.219.219 0 0 1 .273.157z"/><path class="f" d="M4.939 8.193a.344.344 0 0 1-.361-.321V7.55a.344.344 0 0 1 .361-.321.344.344 0 0 1 .362.321v.322a.344.344 0 0 1-.362.321z"/><path class="a" d="M1.687 4.779l.012 2.266a16.775 16.775 0 0 0 7.649-1.914A24.064 24.064 0 0 1 6.822 7.47a19.777 19.777 0 0 0 4.745-2.712A4.035 4.035 0 0 0 7.532.723h-1.81a4.035 4.035 0 0 0-4.035 4.056z"/><path class="b" d="M8.675.917A3.952 3.952 0 0 0 7.448.723H5.664a3.988 3.988 0 0 0-3.977 4.019l.011 2.246a15.443 15.443 0 0 0 2.631-.228A14.717 14.717 0 0 0 8.675.917z"/></svg>