<svg xmlns="http://www.w3.org/2000/svg" width="19.256" height="19.953"><defs><style>.a{fill:#d0021b}</style></defs><path class="a" d="M13.121 4.035a8.725 8.725 0 0 1 1.027.68l-.248-.192a8.464 8.464 0 0 1 1.526 1.526l-.191-.246a8.473 8.473 0 0 1 1.095 1.876c-.041-.1-.081-.2-.122-.291a8.56 8.56 0 0 1 .582 2.144c-.015-.107-.028-.216-.042-.326a8.575 8.575 0 0 1 0 2.246c.015-.107.028-.216.042-.326a8.389 8.389 0 0 1-.584 2.139c.041-.1.081-.2.122-.291a8.572 8.572 0 0 1-1.092 1.87l.191-.246A8.525 8.525 0 0 1 13.9 16.12l.246-.191a8.52 8.52 0 0 1-1.87 1.092l.291-.122a8.6 8.6 0 0 1-2.139.584l.326-.042a8.529 8.529 0 0 1-2.258 0l.326.042a8.389 8.389 0 0 1-2.139-.584l.291.122a8.572 8.572 0 0 1-1.87-1.092l.246.191a8.525 8.525 0 0 1-1.522-1.522l.191.246a8.52 8.52 0 0 1-1.092-1.87c.041.1.081.2.122.291a8.6 8.6 0 0 1-.584-2.139c.015.107.028.216.042.326a8.506 8.506 0 0 1 0-2.246c-.015.107-.028.216-.042.326a8.507 8.507 0 0 1 .582-2.144c-.041.1-.081.2-.122.291a8.5 8.5 0 0 1 1.097-1.876l-.191.246a8.624 8.624 0 0 1 1.525-1.526l-.246.191a8.525 8.525 0 0 1 1.027-.68 1.262 1.262 0 0 0 .563-.73 1.242 1.242 0 0 0-.123-.943 1.242 1.242 0 0 0-.731-.559 1.3 1.3 0 0 0-.94.122A9.642 9.642 0 0 0 0 10.522a9.624 9.624 0 0 0 4.531 7.974 9.64 9.64 0 0 0 9.315.484 9.527 9.527 0 0 0 1.971-1.284 9.666 9.666 0 0 0 1.606-1.725 9.569 9.569 0 0 0 1.135-2.055 8.346 8.346 0 0 0 .571-2.055 9.7 9.7 0 0 0 .071-2.578 9.527 9.527 0 0 0-.635-2.546 10.585 10.585 0 0 0-.627-1.294 11.129 11.129 0 0 0-.818-1.168 9.6 9.6 0 0 0-1.832-1.741 8.631 8.631 0 0 0-.934-.609 1.263 1.263 0 0 0-.94-.122 1.248 1.248 0 0 0-.731.558 1.226 1.226 0 0 0-.122.94 1.248 1.248 0 0 0 .56.73z"/><path class="a" d="M10.852 10.449V1.223a1.258 1.258 0 0 0-.358-.863 1.234 1.234 0 0 0-.862-.359 1.233 1.233 0 0 0-.863.359 1.264 1.264 0 0 0-.36.863v9.231a1.258 1.258 0 0 0 .358.863 1.249 1.249 0 0 0 .863.358 1.233 1.233 0 0 0 .863-.358 1.265 1.265 0 0 0 .359-.868z"/></svg>