<svg xmlns="http://www.w3.org/2000/svg" width="30" height="30"><g transform="translate(-315 -25)"><circle cx="15" cy="15" r="15" transform="translate(315 25)" fill="#ff574c"/><path d="M336.66 34.993a1.126 1.126 0 0 0 .34-.826 1.126 1.126 0 0 0-.34-.827 1.174 1.174 0 0 0-1.653 0L330 38.347l-5.007-5.007a1.126 1.126 0 0 0-.826-.34 1.126 1.126 0 0 0-.827.34 1.126 1.126 0 0 0-.34.827 1.126 1.126 0 0 0 .34.826L328.347 40l-5.007 5.007a1.174 1.174 0 0 0 0 1.653 1.126 1.126 0 0 0 .826.34 1.126 1.126 0 0 0 .826-.34L330 41.653l5.007 5.007a1.169 1.169 0 0 0 1.653-1.653L331.653 40z" fill="#fff"/></g></svg>