<svg xmlns="http://www.w3.org/2000/svg" width="21.053" height="20"><defs><clipPath id="a"><path fill="none" d="M0 0h21.053v20H0z"/></clipPath></defs><g clip-path="url(#a)"><path d="M20 20H1.053A1.054 1.054 0 0 1 0 18.948V7.368h21.053v11.58A1.054 1.054 0 0 1 20 20zm1.053-13.158H0V3.685a1.054 1.054 0 0 1 1.053-1.053h2.632V4.21a1.579 1.579 0 1 0 3.157 0V2.632h7.368V4.21a1.579 1.579 0 1 0 3.158 0V2.632H20a1.054 1.054 0 0 1 1.053 1.053v3.156zM15.79 5.263a1.054 1.054 0 0 1-1.053-1.053V1.053a1.053 1.053 0 1 1 2.105 0V4.21a1.054 1.054 0 0 1-1.052 1.053zm-10.526 0A1.054 1.054 0 0 1 4.21 4.21V1.053a1.053 1.053 0 1 1 2.106 0V4.21a1.054 1.054 0 0 1-1.053 1.053z" fill="#afd656"/></g></svg>