<svg xmlns="http://www.w3.org/2000/svg" xmlns:xlink="http://www.w3.org/1999/xlink" width="18.355" height="19.989"><defs><linearGradient id="a" x1=".421" y1=".368" x2="1.281" y2="1.802" gradientUnits="objectBoundingBox"><stop offset="0" stop-color="#ffc200"/><stop offset=".268" stop-color="#fb0"/><stop offset=".659" stop-color="#ffa801"/><stop offset="1" stop-color="#ff9102"/></linearGradient><linearGradient id="b" x1="1.275" y1="1.149" x2=".129" y2=".003" gradientUnits="objectBoundingBox"><stop offset="0" stop-color="#ffc200" stop-opacity="0"/><stop offset=".203" stop-color="#fb0" stop-opacity=".204"/><stop offset=".499" stop-color="#ffa700" stop-opacity=".498"/><stop offset=".852" stop-color="#f80" stop-opacity=".851"/><stop offset="1" stop-color="#ff7800"/></linearGradient><linearGradient id="c" x1=".377" y1="-.531" x2=".903" y2="3.885" xlink:href="#a"/><linearGradient id="d" x1=".354" y1=".583" x2=".926" y2="1.18" xlink:href="#a"/><linearGradient id="e" x1=".948" y1="-.136" x2="-.046" y2="1.152" xlink:href="#b"/></defs><g transform="translate(-.036)"><circle cx="2.245" cy="2.245" r="2.245" transform="translate(6.968 15.498)" fill="url(#a)"/><path d="M2.235 0A2.245 2.245 0 0 0 0 2.036l2.444 2.445A2.245 2.245 0 0 0 2.235 0z" transform="translate(6.978 15.498)" fill="url(#b)"/><path d="M16.535 0H1.82a1.82 1.82 0 0 0 0 3.64h14.715a1.82 1.82 0 1 0 0-3.64z" transform="translate(.036 13.828)" fill="url(#c)"/><path d="M15.391 13.885H.007a1.433 1.433 0 0 0 1.423-1.43V8.807a6.293 6.293 0 0 1 4.762-6.113 1.788 1.788 0 1 1 3.083 0 6.294 6.294 0 0 1 4.763 6.114v3.648a1.429 1.429 0 0 0 1.353 1.428zM7.734 1.073a.715.715 0 1 0 .715.715.716.716 0 0 0-.715-.715z" transform="translate(1.48)" fill="url(#d)"/><path d="M0 0a1.683 1.683 0 0 0 1.8 1.451h14.713A1.683 1.683 0 0 0 18.31 0z" transform="translate(.059 16.01)" fill="url(#e)"/></g></svg>