<svg xmlns="http://www.w3.org/2000/svg" width="30" height="30"><g transform="translate(-324 -32)"><circle cx="15" cy="15" r="15" transform="translate(324 32)" fill="#d8d8d8"/><path d="M346.328 56h-14.655L329 46.01V44.3h6.427l1.3-4.8a.914.914 0 0 1 .873-.633.931.931 0 0 1 .238.032.894.894 0 0 1 .644 1.068l-1.173 4.333h3.382l-1.173-4.3a.889.889 0 0 1 .094-.683.9.9 0 0 1 .552-.417.917.917 0 0 1 .236-.033.9.9 0 0 1 .868.635l1.3 4.8H349v1.942l-2.672 9.755zm-15.455-9.9l2.191 8.1h11.872l2.191-8.1zm11.936 3.6a1.035 1.035 0 1 1 1.046-1.033 1.041 1.041 0 0 1-1.046 1.033zm-7.57-.019h-.012a1.035 1.035 0 0 1-.036-2.069h.037a1.035 1.035 0 1 1 .011 2.07z" fill="#fff"/></g></svg>