<svg xmlns="http://www.w3.org/2000/svg" width="42.904" height="39.538"><defs><style>.a{fill:none}.b{fill:#ac579d}.c{fill:#2a285e}.d{fill:#c973ac}.e{fill:#72a943}.f{fill:#89bc6f}.i{fill:#add193}.j{fill:#54a94d}</style><clipPath id="a"><path class="a" d="M0 0h8.774v10.144H0z" transform="translate(.129 .202)"/></clipPath><clipPath id="b"><path class="a" d="M0 0h7.951v3.936H0z" transform="translate(.24 .22)"/></clipPath></defs><path class="b" d="M3.357 27.071l1.391 1.038 5.633-3.988.892-3.979z"/><path class="c" d="M3.572 25.096L6.3 28.069l-2.466.774v1.478a.647.647 0 0 1-.634-.519l-.207-1.036-1.593.807a1.245 1.245 0 0 1-1.4-.189l2.193-1.676z"/><path class="b" d="M39.547 27.071l-1.391 1.038-5.633-3.988-.892-3.979z"/><path class="c" d="M39.332 25.096L36.6 28.069l2.467.774v1.478a.647.647 0 0 0 .633-.519l.21-1.036 1.59.807a1.245 1.245 0 0 0 1.4-.189l-2.189-1.676z"/><path class="d" d="M31.288 36.095c-1.132.268-2.555.658-3.48.859a11.093 11.093 0 0 0-3.631-3.483 5.409 5.409 0 0 0-2.312-.662 5.585 5.585 0 0 0-2.65.855 11.541 11.541 0 0 0-3.3 3.291c-1.155-.25-2.312-.5-3.489-.73a38.346 38.346 0 0 1 .549-3.873 67.9 67.9 0 0 1 .555-2.677q.109-.5.227-1a142.14 142.14 0 0 1 2.417-8.816h11.379a139.668 139.668 0 0 0 2.329 8.467l.237 1.009c.177.768.344 1.544.5 2.307a43.187 43.187 0 0 1 .675 4.453"/><path class="e" d="M27.778 17.466c2.566 2.685 1.553 5.692.438 7.563a3.737 3.737 0 0 1-3.213 1.826h-3.57s-.665-5.06 6.345-9.389"/><path class="f" d="M21.398 25.717a5.879 5.879 0 0 0-3.48 1.149c1.112.723 1.08 2.784 1.08 2.784v3.391h4.8V29.65s-.032-2.061 1.08-2.784a5.878 5.878 0 0 0-3.48-1.149"/><path d="M23.799 33.041V29.65s-.032-2.061 1.08-2.784a5.877 5.877 0 0 0-3.48-1.149c.9.705.871 1.382.871 3.082s.236 3.326-1.371 4.242h2.9z" fill="#7dac65"/><path class="a" d="M17.012 0h8.774v10.144h-8.774z"/><g clip-path="url(#a)" transform="translate(16.883 -.202)"><path class="i" d="M4.516.202c-7.856 7.315-3.439 10.024 0 10.144 3.439-.119 7.857-2.829 0-10.144"/></g><path class="j" d="M16.567 2.558c-7.888 7.6-3.487 11.138-.143 11.834 3.442.375 7.989-3.276.143-11.834"/><path class="e" d="M26.214 2.558c7.888 7.6 3.487 11.138.143 11.834-3.442.375-7.988-3.276-.143-11.834"/><path class="f" d="M21.398 8.433c-8.042 8.238-3.523 11.572 0 11.765 3.524-.192 8.042-3.526 0-11.765"/><path class="f" d="M10.891 8.247c-5.581 6.595-.488 11.162 2.755 12.156 3.357.684 5.502-3.673-2.755-12.156"/><path class="e" d="M16.132 11.606c-7.855 6.7-3.486 10.233-.159 11.294 3.479.638 8.142-2.4.159-11.294"/><path class="i" d="M32.082 8.247c5.581 6.595.483 11.162-2.754 12.156-3.361.684-5.504-3.673 2.754-12.156"/><path class="j" d="M26.67 11.606c7.855 6.7 3.486 10.233.159 11.294-3.484.638-8.147-2.403-.159-11.294"/><path class="i" d="M6.745 14.851c-.134 7.171 4.615 11.268 9.232 11.761a27.158 27.158 0 0 0 3.468.239c.189-.2-3.137-5.358-12.7-12"/><path class="f" d="M36.047 14.851c.137 7.171-4.612 11.268-9.229 11.761a27.151 27.151 0 0 1-3.463.239c-.191-.2 3.134-5.358 12.692-12"/><path class="i" d="M21.399 14.359c-7.709 7.852-3.387 11.87 0 12.063 3.391-.192 7.708-4.211 0-12.063"/><path class="j" d="M15.054 17.466c-2.566 2.685-1.553 5.692-.44 7.563a3.736 3.736 0 0 0 3.214 1.826h3.57s.665-5.06-6.344-9.389"/><path class="d" d="M20.325 12.291L1.692 7.645s0 12.807 9.268 12.805c4.739 0 7.867-3.716 9.366-6.051 1.498 2.336 4.626 6.046 9.366 6.051 9.266.002 9.266-12.805 9.266-12.805z"/><path d="M13.395 15.888a1.93 1.93 0 1 1-1.93-1.93 1.93 1.93 0 0 1 1.93 1.93m17.165 0a1.93 1.93 0 1 1-1.93-1.93 1.93 1.93 0 0 1 1.93 1.93" fill="#fefefe"/><path d="M15.69 21.148a5.99 5.99 0 0 0 3.329 4.259 4.932 4.932 0 0 0 .662.236 5.189 5.189 0 0 0 4.573-.866 5.057 5.057 0 0 0 1.653-2.421 5.318 5.318 0 0 0 .145-.555c.084-.413.276-1.39.027-1.771-.325-.492-1.025-.154-1.531-.067-.749.134-8.801 1.476-8.858 1.185" fill="#912a2a"/><path d="M19.681 25.643a5.188 5.188 0 0 0 4.573-.866 5.06 5.06 0 0 0 1.653-2.421 6 6 0 0 0-3.494-.055 3.734 3.734 0 0 0-2.518 2.051 3.438 3.438 0 0 0-.214 1.291" fill="#da6aa5"/><path class="c" d="M12.678 37.962l-3.806 1.479h6.5a20.084 20.084 0 0 1 1.447-2.6c-1.347-.313-3.601-.996-4.973-1.287a14.322 14.322 0 0 1 .832 2.408"/><path class="a" d="M26.734 35.602h7.951v3.936h-7.951z"/><g clip-path="url(#b)" transform="translate(26.494 35.382)"><path class="c" d="M4.385 2.658l3.806 1.5h-6.5A20.4 20.4 0 0 0 .24 1.52C1.588 1.206 3.84.515 5.217.22a14.617 14.617 0 0 0-.832 2.438"/></g></svg>