<svg xmlns="http://www.w3.org/2000/svg" viewBox="0 0 110.9 118.94"><defs><style>.cls-1{fill:#dd223c}.cls-2{fill:#f9b041}.cls-10{fill:#fff}</style></defs><g id="Laag_2" data-name="Laag 2"><g id="Laag_5" data-name="Laag 5"><path class="cls-1" d="M27.47 44.15L0 52l15.7 21.08 5.06-6.31-8.5-9.66 15.21-.26v-12.7z"/><path class="cls-2" d="M20 63.36L10.64 74.2l8.11 1.64L17.26 79s-3.19-1.74-3.53-.72a1.8 1.8 0 0 0 .49 2.15s-.92 2.86 2.46 2.76a12.26 12.26 0 0 0 5.63-1.5l1.8-9.35z"/><path class="cls-1" d="M83.43 44.15L110.9 52 95.2 73.08l-5.06-6.31 8.5-9.66-15.21-.26v-12.7z"/><path class="cls-2" d="M90.93 63.36l9.32 10.84-8.11 1.64 1.5 3.16s3.19-1.74 3.52-.72a1.8 1.8 0 0 1-.49 2.15s.92 2.86-2.45 2.76a12.21 12.21 0 0 1-5.63-1.5l-1.8-9.35z"/><path class="cls-1" d="M92.13 109c-4.36 1-9.84 2.53-13.4 3.31-3.23-4.67-8-10.23-14-13.41a20.73 20.73 0 0 0-8.9-2.55 21.44 21.44 0 0 0-10.21 3.29C40.27 102.9 36 108 33 112.32c-4.45-1-8.9-1.92-13.43-2.81a145.12 145.12 0 0 1 2.06-14.91c.63-3.39 1.35-6.86 2.14-10.31.28-1.28.57-2.56.87-3.83q.39-1.6.75-3.18c4-16.48 8.54-30.78 8.54-30.78h43.81s4.18 13.24 8.07 28.92c.3 1.21.61 2.44.9 3.68s.61 2.59.91 3.88c.68 3 1.32 6 1.91 8.88a166.76 166.76 0 0 1 2.6 17.14z"/><path d="M21.55 114.36l-11.76 4.58h20.1a61.07 61.07 0 0 1 4.47-8.06c-4.17-1-11.14-3.07-15.38-4 1.14 3.75 2.54 5.58 2.57 7.48zm68.45 0l11.76 4.58H81.69a62.54 62.54 0 0 0-4.47-8.06c4.16-1 11.14-3.07 15.38-4-1.14 3.75-2.54 5.58-2.6 7.48z" fill="#ca1d36"/><path d="M95.57 39c-.37-4.63-1.93-9.16-5.72-12.18s-11.21-2-11.21-2a25.33 25.33 0 0 0-4.44-4.58c-5.1-3.61-15.83-3-19.37 1.89-3.54-4.88-14.27-5.5-19.37-1.89A25.12 25.12 0 0 0 31 24.75s-7.35-1.05-11.21 2S14.46 34.32 14.1 39c-1.24 15.53 2.75 33.32 8 45.51 3.45 8 10.36 7 14.27 5.35 1.11 3 3 6 6.06 6.86 5.29 1.49 9.38-.14 12.36 0 3-.14 7.06 1.49 12.35 0 3.07-.86 5-3.86 6.06-6.86 3.92 1.63 10.82 2.63 14.28-5.35C92.81 72.27 96.8 54.48 95.57 39z" fill="#eac31f"/><path d="M36.41 89.81c-5-25.18-5.09-48.76-1-55.46 2.76-4.56 1.21-7.5 1.21-7.5v-1.12l-5.19-1.39-.38.49s-7.35-1-11.21 2S14.46 34.39 14.1 39c-1.24 15.51 2.75 33.28 8 45.46 3.49 7.97 10.4 6.97 14.31 5.35z" fill="#d4b21c"/><path d="M89.85 26.85c-3.86-3.07-11.21-2-11.21-2a25.42 25.42 0 0 0-4.44-4.57c-5.1-3.61-15.83-3-19.37 1.89-3.54-4.88-14.27-5.5-19.37-1.89A25.2 25.2 0 0 0 31 24.83s-7.35-1-11.21 2c-.24.19-.44.4-.66.6 3.91-.6 9.83 1.23 16.21 6.9 0 0 4.27-6.25 14.89-2.78a16.71 16.71 0 0 0 9 .47c9-2.15 13.49 1.29 16.21 6.63 2.35 4.6 2.27 31.15-2.25 51.14 3.92 1.62 10.82 2.62 14.28-5.34 5.28-12.18 9.27-29.95 8-45.46-.27-4.6-1.83-9.12-5.62-12.14z" fill="#bf9419"/><circle cx="45.56" cy="44.86" r="6.47" transform="rotate(-45 45.564 44.867)" fill="#fdf187"/><path d="M51.36 19.73c-.46 6.12-2.78 9.54-4.19 11.08a22 22 0 0 1 3.09.76 16.71 16.71 0 0 0 9 .47 23 23 0 0 1 3.11-.55 61.29 61.29 0 0 1-3.13-8.87 24.72 24.72 0 0 1-.6-3 14.42 14.42 0 0 1 5-13.39C60.23-3.08 52.55.8 52.55.8s-1.75 4.33-1.16 15a29.68 29.68 0 0 1-.03 3.93z" fill="#07883e"/><path d="M63.26 5.31c0-.09-.08-.18-.13-.27s-.18-.39-.28-.57l-.15-.29a5.55 5.55 0 0 0-.29-.48l-.15-.25c-.12-.17-.23-.33-.35-.48l-.11-.16c-.16-.2-.32-.38-.48-.56l-.11-.11c-.12-.13-.25-.25-.38-.37l-.17-.15-.34-.27-.18-.13-.37-.22-.15-.11a7.06 7.06 0 0 0-1-.49h-.11L58 .24h-.14a2.71 2.71 0 0 0-.41-.09h-.11L56.89 0a7.76 7.76 0 0 0-1.53 0c5.07 1.52 2 5.93.7 14a37.78 37.78 0 0 0-.46 6.81 13.55 13.55 0 0 1-4.77 10.92 16.66 16.66 0 0 0 8.47.3 23 23 0 0 1 3.11-.55c0-.09-.08-.2-.13-.29s-.12-.3-.2-.47l-.14-.33c-.08-.19-.15-.38-.24-.59s-.11-.27-.16-.41-.17-.43-.26-.67l-.18-.47-.28-.75c-.06-.17-.12-.33-.18-.51l-.29-.84-.17-.53c-.11-.32-.21-.65-.31-1 0-.16-.1-.31-.15-.48-.15-.5-.3-1-.44-1.54a24.72 24.72 0 0 1-.6-3 15.16 15.16 0 0 1 .53-6.85c.1-.28.2-.56.32-.84a14.54 14.54 0 0 1 1.32-2.48c.18-.27.38-.55.59-.82a18.68 18.68 0 0 1 2.21-2.4c-.13-.29-.26-.6-.39-.9z" fill="#047c39"/><circle class="cls-10" cx="37.54" cy="57.31" r="4.87"/><circle class="cls-10" cx="71.81" cy="57.24" r="4.87"/><path d="M66.06 71.93a13.15 13.15 0 0 1-7.47 9.29 10.08 10.08 0 0 1-1.49.51 11.88 11.88 0 0 1-10.26-1.89 11 11 0 0 1-3.72-5.28 11.93 11.93 0 0 1-.32-1.21c-.19-.9-.62-3-.06-3.86.73-1.08 2.3-.34 3.43-.15 1.69.29 19.76 3.22 19.89 2.59z" fill="#912a2a"/><path d="M57.1 81.73a11.88 11.88 0 0 1-10.26-1.89 11 11 0 0 1-3.72-5.28 13.89 13.89 0 0 1 7.88-.12 8.36 8.36 0 0 1 5.65 4.48 7.27 7.27 0 0 1 .45 2.81z" fill="#da6aa6"/></g></g></svg>