<svg xmlns="http://www.w3.org/2000/svg" width="36.162" height="39.845"><defs><style>.a{fill:none}.b{fill:#e19214}.j{fill:#ecc20f}</style><clipPath id="a"><path class="a" d="M0 0h36.161v21.707H0z" transform="translate(0 .155)"/></clipPath><clipPath id="b"><path class="a" d="M0 0h24.953v21.188H0z" transform="translate(.009 .156)"/></clipPath></defs><path class="b" d="M12.777 19.382c-1.533 2.226-3.236 4.341-4.937 6.454L6.4 27.624a2.4 2.4 0 0 0 2.491.882 11.741 11.741 0 0 1 1.209-.384c1.075-.159 2.032.7 3.114.809 1.252.122 2.383-.779 3.64-.84 1.646-.081 3.117 1.28 4.755 1.1.8-.087 1.52-.538 2.322-.592 1.565-.107 3.1 1.3 4.549.723a1.14 1.14 0 0 0 .652-.574 1.528 1.528 0 0 0 .028-.828 30.59 30.59 0 0 0-2.269-7.683c-.629-1.415-1.5-2.9-3.007-3.443a8.124 8.124 0 0 0-2.317-.309c-2.024-.107-4.026-.486-6.057-.486-1.22 0-1.042.177-1.443 1.155a12.136 12.136 0 0 1-1.29 2.228"/><path d="M10.8 18.935s3.747 2.955 4.354 6.895a16.517 16.517 0 0 1 0 6.205 7.3 7.3 0 0 0 3.848.887 7.954 7.954 0 0 0 4.051-.985 22.828 22.828 0 0 1-.507-5.811c.001-4.137 4.254-7.191 4.254-7.191l-1.873-1.527a28.082 28.082 0 0 0-4.2 4.843v-5.483h-3.75v5.762a13.951 13.951 0 0 0-3.949-4.92z" fill="#44ad4d"/><path d="M20.8 22.153v-5.385h-2l.518 3.237a5.516 5.516 0 0 0 .429 1.445 1.537 1.537 0 0 0 1.053.703m6-3.102l-1.891-1.514s-.34.307-.836.792l.9.722s-4.291 3.028-4.291 7.131c0 1.436.063 2.573.144 3.444a3.01 3.01 0 0 1-2.732 3.246l-.094.009c.29.026.6.041.93.041a8.134 8.134 0 0 0 4.088-.976 22.273 22.273 0 0 1-.511-5.763c0-4.1 4.293-7.131 4.293-7.131m-14.1-1.515l-.368.217-.732.427a18.169 18.169 0 0 1 3.32 3.017 3.46 3.46 0 0 0 1.88 1.339 14.259 14.259 0 0 0-4.1-5" fill="#31a444"/><path class="a" d="M0 0h36.161v21.707H0z"/><g clip-path="url(#a)" transform="translate(0 -.155)"><path d="M8.932 21.825c-3.606.381-5.9-2.209-5.461-5.062a4.768 4.768 0 0 1-3.339-5.571C.8 8.423 3.986 7.369 6.338 7.864a5.49 5.49 0 0 1 3.09-5.518 5.971 5.971 0 0 1 6.45 1 7.231 7.231 0 0 1 7.343-3.06 6.932 6.932 0 0 1 5.438 5.635 4.7 4.7 0 0 1 6.27.906 4.268 4.268 0 0 1-1.205 5.966 4.566 4.566 0 0 1 2.364 4.777 4.746 4.746 0 0 1-4 3.637 4.283 4.283 0 0 1-4.62-2.12c-1.007.814-2.762.584-3.937.012a3.291 3.291 0 0 1-1.837-3.112 5.066 5.066 0 0 1-4.121 2.38c-1.644.187-2.555-.472-4.024-1.922-.276 3.34-1.53 5.053-4.613 5.379" fill="#08873e"/></g><path d="M12.8 6.191A1.766 1.766 0 0 1 11 7.922a1.766 1.766 0 0 1-1.8-1.731A1.766 1.766 0 0 1 11 4.46a1.766 1.766 0 0 1 1.8 1.731M6 12.345a1.766 1.766 0 0 1-1.8 1.731 1.766 1.766 0 0 1-1.8-1.731 1.766 1.766 0 0 1 1.8-1.731A1.766 1.766 0 0 1 6 12.345m4.4 5.385a1.766 1.766 0 0 1-1.8 1.731 1.766 1.766 0 0 1-1.8-1.731 1.766 1.766 0 0 1 1.8-1.731 1.766 1.766 0 0 1 1.8 1.731" fill="#049345"/><path class="a" d="M11.209.001h24.953v21.188H11.209z"/><g clip-path="url(#b)" transform="translate(11.2 -.155)"><path d="M22.537 12.845a4.31 4.31 0 0 0 1.2-5.991 4.65 4.65 0 0 0-6.237-.91A6.931 6.931 0 0 0 12.09.287a7.165 7.165 0 0 0-7.3 3.075A5.889 5.889 0 0 0 .009 1.875a4.811 4.811 0 0 1 4.015 4.8 4.568 4.568 0 0 1 3.7-.789 3.238 3.238 0 0 1 2.362 2.87 3.194 3.194 0 0 1 3.723 1.172 4.086 4.086 0 0 1-.161 3.91 3.067 3.067 0 0 1 .408 4.126 3.134 3.134 0 0 1-1.92 1.061c.085.053.168.109.259.153 1.168.575 2.914.805 3.916-.012a4.247 4.247 0 0 0 4.6 2.128 4.738 4.738 0 0 0 3.983-3.652 4.6 4.6 0 0 0-2.352-4.8" fill="#057c39"/></g><path class="j" d="M21.6 21.481l6.5-4.713 1.1 1.266-6.834 6.811z"/><path class="b" d="M28.532 20.229c.082.01-2.532-3.175-2.532-3.175l3.19-.985s-.683-1.414-.37-1.665 1.072 1.046 1.072 1.046.762-1.759 1.287-1.759-.243 1.827-.243 1.827 1.484-.912 1.825-.505-1.392 1.325-1.392 1.325 1.8-.245 1.831.226-3.018.627-3.018.627z"/><path class="j" d="M15.6 21.481l-6.5-4.713L8 18.034l6.834 6.811z"/><path class="b" d="M8.668 20.229c-.082.01 2.532-3.174 2.532-3.174l-3.19-.986s.683-1.414.37-1.665-1.072 1.046-1.072 1.046-.762-1.759-1.287-1.759.243 1.827.243 1.827-1.484-.912-1.825-.505 1.392 1.325 1.392 1.325-1.796-.247-1.831.227 3.018.626 3.018.626z"/><path class="j" d="M12.4 38.054c.769.2 1.734.489 2.362.638a7.883 7.883 0 0 1 2.465-2.586 3.441 3.441 0 0 1 1.573-.493 3.57 3.57 0 0 1 1.8.635 8.248 8.248 0 0 1 2.237 2.443c.784-.186 1.57-.369 2.368-.542-.064-.868-.2-1.851-.372-2.876a54.402 54.402 0 0 0-.377-1.988 35.82 35.82 0 0 0-.154-.739l-.133-.613c-.716-3.178-1.511-5.934-1.511-5.934h-7.723s-.735 2.553-1.422 5.578c-.053.234-.107.47-.158.709l-.161.749c-.12.57-.233 1.146-.336 1.713-.212 1.174-.379 2.313-.458 3.306"/><path d="M13.6 9.653a1.374 1.374 0 0 1-1.4 1.346 1.374 1.374 0 0 1-1.4-1.346 1.374 1.374 0 0 1 1.4-1.346 1.374 1.374 0 0 1 1.4 1.346m12.8 0a1.374 1.374 0 0 1-1.4 1.346 1.374 1.374 0 0 1-1.4-1.346A1.374 1.374 0 0 1 25 8.307a1.374 1.374 0 0 1 1.4 1.346" fill="#fefefe"/><path d="M16.8 16.314a3.125 3.125 0 0 0 1.9 2.158 3.034 3.034 0 0 0 .378.12 3.263 3.263 0 0 0 2.61-.439 2.578 2.578 0 0 0 .943-1.227 2.474 2.474 0 0 0 .083-.281c.048-.21.157-.7.015-.9-.185-.248-.585-.076-.873-.031-.428.066-5.023.747-5.056.6" fill="#912a2a"/><path d="M18.8 18.591a3.325 3.325 0 0 0 2.644-.442 2.594 2.594 0 0 0 .956-1.234 3.916 3.916 0 0 0-2.02-.028 2.12 2.12 0 0 0-1.456 1.046 1.566 1.566 0 0 0-.124.658" fill="#da6aa5"/><path class="b" d="M24.694 38.821l2.106 1.024h-3.6a15.327 15.327 0 0 0-.8-1.803c.746-.215 1.995-.689 2.754-.889a11.732 11.732 0 0 0-.461 1.668m-12.187 0L10.4 39.845H14a15.307 15.307 0 0 1 .8-1.8c-.746-.218-1.995-.692-2.754-.892a11.7 11.7 0 0 1 .461 1.668"/></svg>