<svg xmlns="http://www.w3.org/2000/svg" width="24.694" height="39.615"><defs><style>.a{fill:none}.b{fill:#056839}.c{fill:#f8af41}.g{fill:#ddb92b}.h{fill:#e8c22f}.i{fill:#fedc3a}</style><clipPath id="a"><path class="a" d="M0 0h8.913v31.751H0z" transform="translate(.152 .18)"/></clipPath><clipPath id="b"><path class="a" d="M0 0h12.865v19.251H0z" transform="translate(0 .055)"/></clipPath><clipPath id="c"><path class="a" d="M0 0h6.279v3.109H0z" transform="translate(.178 .173)"/></clipPath></defs><path class="b" d="M7.086 23.732l-5.635 1.611 3.22 4.325 1.039-1.295-1.745-1.983 3.121-.053z"/><path class="c" d="M5.547 27.672l-1.913 2.224 1.663.336-.306.65s-.657-.357-.723-.147a.368.368 0 0 0 .1.44s-.189.587.5.567a2.508 2.508 0 0 0 1.155-.309l.369-1.917z"/><path class="b" d="M17.743 23.732l5.635 1.611-3.22 4.325-1.039-1.295 1.745-1.983-3.121-.052z"/><path class="c" d="M19.282 27.672l1.913 2.224-1.662.336.306.65s.655-.357.722-.147a.368.368 0 0 1-.1.44s.189.587-.5.567a2.509 2.509 0 0 1-1.159-.308l-.369-1.917z"/><path d="M14.792 32.568a7.762 7.762 0 0 1 2.772 3.756 5.852 5.852 0 0 1 .246 1.414l-2.923.189s-.779-4.201-1.655-4.586 1.56-.773 1.56-.773m-5.286.005a7.762 7.762 0 0 0-2.772 3.756 5.85 5.85 0 0 0-.246 1.414l2.923.189s.777-4.201 1.655-4.586-1.56-.773-1.56-.773" fill="#5a8d37"/><path class="a" d="M7.947 0h8.913v31.751H7.947z"/><g clip-path="url(#a)" transform="translate(7.795 -.18)"><path d="M4.122.18c-3.637.09-7.063 31.943.779 31.75S7.759.091 4.122.18" fill="#fdf5b7"/></g><path class="g" d="M12.651 31.75a4.187 4.187 0 0 0 3.6-2.316h-2.218c-.305 1.433-.753 2.3-1.382 2.316"/><path class="h" d="M11.14 29.434H8.831a4.255 4.255 0 0 0 3.821 2.316c-.64.016-1.136-.857-1.512-2.316"/><path class="g" d="M14.509 5.515a.715.715 0 0 0 .671-.961q-.121-.327-.246-.637a.709.709 0 0 0-.659-.44h-.386a.713.713 0 0 0-.7.83l.1.6a.714.714 0 0 0 .706.6zm1.99 14.97h-.526a1.42 1.42 0 0 0-1.413 1.423v.527a1.416 1.416 0 0 0 1.414 1.423h.5a1.42 1.42 0 0 0 1.417-1.354q.014-.269.024-.542a1.42 1.42 0 0 0-1.416-1.477m-1.482-9.904h.393a1.161 1.161 0 0 0 1.128-1.431q-.047-.2-.1-.4a1.159 1.159 0 0 0-1.121-.886h-.341a1.159 1.159 0 0 0-1.152 1.285l.041.392a1.16 1.16 0 0 0 1.152 1.04m.608 3.086a1.3 1.3 0 0 0-1.306 1.385l.035.586a1.3 1.3 0 0 0 1.306 1.229h.659a1.309 1.309 0 0 0 1.3-1.459l-.07-.586a1.312 1.312 0 0 0-1.296-1.155zm-1.592 15.766h2.215a10.074 10.074 0 0 0 .999-2.491h-2.866a21.251 21.251 0 0 1-.348 2.491"/><path class="g" d="M15.007 7.865a.92.92 0 0 0 .88-1.177l-.159-.523a.923.923 0 0 0-.881-.65h-.42a.92.92 0 0 0-.912 1.042l.065.5a.922.922 0 0 0 .913.806zm.429 5.802h.424a1.3 1.3 0 0 0 1.289-1.523q-.043-.247-.089-.492a1.307 1.307 0 0 0-1.286-1.07h-.378a1.3 1.3 0 0 0-1.305 1.414l.039.474a1.305 1.305 0 0 0 1.3 1.2m.469 3.196a1.416 1.416 0 0 0-1.414 1.47l.026.778a1.414 1.414 0 0 0 1.416 1.372h.558a1.408 1.408 0 0 0 1.418-1.468q-.017-.407-.04-.817a1.418 1.418 0 0 0-1.415-1.335zm.267 6.991h-.257a1.413 1.413 0 0 0-1.414 1.343q-.005.129-.014.257a1.412 1.412 0 0 0 1.414 1.485h.222a1.418 1.418 0 0 0 1.393-1.151l.047-.256a1.42 1.42 0 0 0-1.391-1.678"/><path class="h" d="M10.675 26.943H7.751a10.7 10.7 0 0 0 1.079 2.491h2.309a21.962 21.962 0 0 1-.464-2.491m-.601-23.466h-.357a.709.709 0 0 0-.672.469q-.108.309-.214.637a.715.715 0 0 0 .682.932h.493a.715.715 0 0 0 .71-.639q.033-.31.067-.6a.712.712 0 0 0-.709-.799m-.851 4.387h-.315A1.159 1.159 0 0 0 7.77 8.8q-.041.207-.08.417a1.157 1.157 0 0 0 1.141 1.364h.37a1.16 1.16 0 0 0 1.157-1.1l.022-.392a1.159 1.159 0 0 0-1.157-1.225m-1.019 9.003h.649a1.3 1.3 0 0 0 1.305-1.29q0-.293.007-.586a1.3 1.3 0 0 0-1.304-1.324h-.614a1.311 1.311 0 0 0-1.3 1.212q-.028.288-.051.588a1.31 1.31 0 0 0 1.308 1.4m.635 3.625h-.533a1.4 1.4 0 0 0-1.415 1.536q.022.284.049.563a1.41 1.41 0 0 0 1.413 1.266h.513a1.415 1.415 0 0 0 1.413-1.49l-.025-.52a1.417 1.417 0 0 0-1.415-1.355"/><path class="h" d="M9.645 5.515h-.393a.922.922 0 0 0-.892.689q-.067.258-.133.523a.92.92 0 0 0 .9 1.137H9.6a.922.922 0 0 0 .917-.85l.041-.5a.92.92 0 0 0-.917-1m-1.123 8.153h.406a1.306 1.306 0 0 0 1.3-1.261l.017-.474a1.3 1.3 0 0 0-1.301-1.35h-.358a1.306 1.306 0 0 0-1.3 1.127q-.034.245-.066.492a1.3 1.3 0 0 0 1.3 1.466m.24 6.825a1.414 1.414 0 0 0 1.413-1.439q-.007-.387-.011-.787a1.422 1.422 0 0 0-1.414-1.4H8.2a1.418 1.418 0 0 0-1.422 1.4v.821a1.416 1.416 0 0 0 1.419 1.406zm.311 3.365h-.285a1.42 1.42 0 0 0-1.381 1.728l.057.255a1.419 1.419 0 0 0 1.382 1.1h.25a1.413 1.413 0 0 0 1.407-1.55l-.023-.243a1.415 1.415 0 0 0-1.407-1.29"/><path class="i" d="M14.032 29.434h-2.893c.376 1.459.873 2.332 1.512 2.316s1.077-.883 1.381-2.316M11.51 5.515h.96a.776.776 0 0 0 .765-.9q-.04-.254-.081-.5a.773.773 0 0 0-.764-.638h-.824a.772.772 0 0 0-.77.681l-.061.497a.777.777 0 0 0 .77.86m-.365 23.918h2.893a21.208 21.208 0 0 0 .343-2.491h-3.7a21.953 21.953 0 0 0 .464 2.491m.245-18.852h1.445a1.031 1.031 0 0 0 1.025-1.137l-.071-.664a1.028 1.028 0 0 0-1.029-.916h-1.332a1.028 1.028 0 0 0-1.028.965l-.04.665a1.031 1.031 0 0 0 1.03 1.087m-.082 6.286h1.911a1.147 1.147 0 0 0 1.144-1.216q-.026-.454-.056-.908a1.147 1.147 0 0 0-1.144-1.076h-1.843a1.147 1.147 0 0 0-1.145 1.131q-.012.454-.012.908a1.147 1.147 0 0 0 1.145 1.161m2.109 3.621h-2.021a1.148 1.148 0 0 0-1.145 1.2q.024.552.054 1.089a1.145 1.145 0 0 0 1.146 1.081h1.967a1.145 1.145 0 0 0 1.146-1.136v-1.091a1.148 1.148 0 0 0-1.147-1.143"/><path class="i" d="M11.411 7.865h1.268a.886.886 0 0 0 .877-1q-.038-.3-.077-.587a.883.883 0 0 0-.877-.763h-1.143a.883.883 0 0 0-.881.807l-.051.587a.886.886 0 0 0 .882.956m1.948 15.992H11.61a1.144 1.144 0 0 0-1.146 1.245q.039.422.083.825a1.142 1.142 0 0 0 1.143 1.015h1.625a1.142 1.142 0 0 0 1.144-1.069q.024-.4.043-.824a1.145 1.145 0 0 0-1.145-1.192m-1.986-10.19h1.619a1.147 1.147 0 0 0 1.142-1.242l-.067-.794a1.147 1.147 0 0 0-1.14-1.049h-1.526a1.146 1.146 0 0 0-1.145 1.1l-.029.8a1.148 1.148 0 0 0 1.146 1.185m-.049 6.823h2.052a1.145 1.145 0 0 0 1.144-1.181q-.019-.665-.046-1.343a1.147 1.147 0 0 0-1.145-1.1h-2.025a1.147 1.147 0 0 0-1.146 1.158q.006.675.019 1.342a1.146 1.146 0 0 0 1.147 1.124"/><path d="M14.237 32.039l-1.979-1.447-1.978 1.447.175 3.088a2.664 2.664 0 0 1 .515 1.116 1.2 1.2 0 0 0 1.029.985 1.956 1.956 0 0 0 .259.019h.022a1.177 1.177 0 0 0 1.133-.994 2.66 2.66 0 0 1 .516-1.126z" fill="#318038"/><path d="M13.929 35.126s-2.1-1.316-2.1-5.024 3.691-17.185 12.865-13.638c-4.157 1.169-5.949 2.058-5.949 8.067s-.483 8.5-4.82 10.595" fill="#609d3d"/><path class="a" d="M0 15.875h12.865v19.251H0z"/><g clip-path="url(#b)" transform="translate(0 15.82)"><path d="M10.455 19.306s2.41-1.317 2.41-5.024S9.174-2.903 0 .644c4.157 1.169 5.949 2.058 5.949 8.067s1.262 8.865 4.506 10.595" fill="#72a943"/></g><path class="b" d="M6.719 38.368l-3.006 1.17h5.136a15.861 15.861 0 0 1 1.143-2.057c-1.064-.244-2.846-.783-3.93-1.013a11.291 11.291 0 0 1 .657 1.9"/><path class="a" d="M14.332 36.506h6.279v3.109h-6.279z"/><g clip-path="url(#c)" transform="translate(14.154 36.333)"><path class="b" d="M3.451 2.099l3.006 1.183H1.321A16.114 16.114 0 0 0 .178 1.199C1.243.952 3.025.406 4.108.173a11.55 11.55 0 0 0-.657 1.926"/></g><path class="b" d="M13.065 15.626l-.731 1.677-1.393-1.185-10.042 1.82s1.841 5.843 7.2 4.6c4.032-.933 4.417-3.489 4.381-4.617.461 1.029 1.93 3.159 5.962 2.229 5.357-1.242 4.444-7.3 4.444-7.3z"/><path d="M17.086 16.846a1.35 1.35 0 0 0-1.011 1.62l2.631-.609a1.351 1.351 0 0 0-1.62-1.011m-9.697 2.243a1.351 1.351 0 0 0-1.011 1.62l2.631-.609a1.351 1.351 0 0 0-1.62-1.011" fill="#fefefe"/><path d="M15.104 21.955a2.7 2.7 0 0 1-1.063 2.2 2.28 2.28 0 0 1-.273.172 2.444 2.444 0 0 1-2.139.1 2.262 2.262 0 0 1-.986-.884 2.261 2.261 0 0 1-.121-.227c-.08-.172-.264-.578-.191-.77.096-.248.444-.174.683-.191a38.109 38.109 0 0 0 4.09-.4" fill="#912a2a"/><path d="M13.767 24.33a2.445 2.445 0 0 1-2.139.1 2.263 2.263 0 0 1-.986-.887 2.839 2.839 0 0 1 1.562-.39 1.709 1.709 0 0 1 1.338.636 1.5 1.5 0 0 1 .226.541" fill="#da6aa5"/></svg>