<svg xmlns="http://www.w3.org/2000/svg" viewBox="0 0 124.92 200.4"><defs><style>.cls-1{fill:#056939}.cls-2{fill:#f9b041}.cls-5{fill:#deba2b}.cls-6{fill:#e9c22f}.cls-7{fill:#ffdd3a}</style></defs><g id="Laag_2" data-name="Laag 2"><g id="Laag_4" data-name="Laag 4"><path class="cls-1" d="M35.84 120.05l-28.5 8.15 16.29 21.88 5.25-6.55-8.82-10.03 15.78-.27v-13.18z"/><path class="cls-2" d="M28.06 140l-9.68 11.25 8.42 1.7-1.56 3.29s-3.31-1.8-3.65-.74a1.87 1.87 0 0 0 .51 2.23s-1 3 2.54 2.86a12.63 12.63 0 0 0 5.85-1.59l1.86-9.69z"/><path class="cls-1" d="M89.76 120.05l28.5 8.15-16.29 21.88-5.25-6.55 8.82-10.03-15.78-.27v-13.18z"/><path class="cls-2" d="M97.54 140l9.68 11.25-8.42 1.7 1.55 3.29s3.32-1.8 3.66-.74a1.87 1.87 0 0 1-.51 2.23s1 3-2.54 2.86a12.63 12.63 0 0 1-5.85-1.59l-1.86-9.69z"/><path d="M74.83 164.75c4.28 3.3 11.18 9.63 14 19a29.5 29.5 0 0 1 1.25 7.15l-14.79 1s-3.94-21.25-8.37-23.2 7.91-3.95 7.91-3.95zm-26.74.02c-4.29 3.3-11.18 9.63-14 19a29.52 29.52 0 0 0-1.24 7.16l14.79.95s3.94-21.25 8.37-23.2-7.92-3.91-7.92-3.91z" fill="#5a8e38"/><path d="M60.28 0c-18.39.45-35.73 161.59 3.94 160.61S78.68-.45 60.28 0z" fill="#fef6b7"/><path class="cls-5" d="M64 160.61c8-.2 14-4.56 18.19-11.72H71c-1.55 7.26-3.82 11.64-7 11.72z"/><path class="cls-6" d="M56.35 148.89H44.67c4.61 7.5 10.94 11.93 19.33 11.72-3.24.08-5.75-4.33-7.65-11.72z"/><path class="cls-5" d="M73.4 27.9a3.61 3.61 0 0 0 3.39-4.9c-.41-1.11-.82-2.18-1.24-3.22a3.59 3.59 0 0 0-3.34-2.23h-1.95a3.6 3.6 0 0 0-3.56 4.2c.16 1 .32 2 .48 3.05a3.62 3.62 0 0 0 3.57 3.06zm10.06 75.73H80.8a7.18 7.18 0 0 0-7.14 7.2v2.66a7.18 7.18 0 0 0 7.16 7.2h2.54a7.18 7.18 0 0 0 7.15-6.85c0-.91.09-1.82.12-2.74a7.17 7.17 0 0 0-7.17-7.47zM76 53.53h2a5.88 5.88 0 0 0 5.7-7.24c-.16-.68-.32-1.36-.49-2a5.86 5.86 0 0 0-5.7-4.48h-1.75a5.87 5.87 0 0 0-5.83 6.5l.21 2A5.87 5.87 0 0 0 76 53.53zm3 15.61a6.6 6.6 0 0 0-6.59 7l.18 3a6.59 6.59 0 0 0 6.59 6.21h3.34a6.64 6.64 0 0 0 6.58-7.38c-.12-1-.23-2-.36-3a6.62 6.62 0 0 0-6.56-5.84zm-8 79.75h11.2a50.52 50.52 0 0 0 5-12.6H72.74a108.31 108.31 0 0 1-1.74 12.6z"/><path class="cls-5" d="M75.89 39.78a4.65 4.65 0 0 0 4.48-6c-.27-.89-.53-1.77-.81-2.64a4.64 4.64 0 0 0-4.45-3.29H73a4.66 4.66 0 0 0-4.62 5.27c.11.83.22 1.68.33 2.54a4.65 4.65 0 0 0 4.62 4.07zm2.2 29.36h2.14a6.6 6.6 0 0 0 6.52-7.71c-.15-.83-.29-1.66-.45-2.49a6.6 6.6 0 0 0-6.5-5.41h-1.91a6.59 6.59 0 0 0-6.58 7.15c.06.8.13 1.6.2 2.4a6.59 6.59 0 0 0 6.58 6.06zm2.34 16.18a7.16 7.16 0 0 0-7.15 7.43c0 1.32.09 2.63.13 3.94a7.16 7.16 0 0 0 7.16 6.94h2.84a7.14 7.14 0 0 0 7.16-7.43c-.06-1.37-.13-2.75-.21-4.13a7.17 7.17 0 0 0-7.16-6.75zm1.34 35.37h-1.3a7.13 7.13 0 0 0-7.14 6.79c0 .43 0 .87-.07 1.3a7.15 7.15 0 0 0 7.15 7.51h1.12a7.17 7.17 0 0 0 7-5.82q.14-.65.24-1.29a7.18 7.18 0 0 0-7-8.49z"/><path class="cls-6" d="M54 136.29H39.21a54.34 54.34 0 0 0 5.46 12.6h11.68a111.12 111.12 0 0 1-2.35-12.6zm-3-118.7h-1.85A3.58 3.58 0 0 0 45.76 20c-.37 1.05-.73 2.12-1.09 3.23a3.62 3.62 0 0 0 3.45 4.71h2.5a3.62 3.62 0 0 0 3.59-3.23c.11-1.05.22-2.07.34-3.06A3.6 3.6 0 0 0 51 17.59zm-4.34 22.19h-1.6a5.87 5.87 0 0 0-5.76 4.74c-.13.7-.27 1.4-.4 2.11a5.85 5.85 0 0 0 5.77 6.9h1.87A5.87 5.87 0 0 0 52.39 48l.12-2a5.87 5.87 0 0 0-5.85-6.22zM41.5 85.32h3.29a6.6 6.6 0 0 0 6.6-6.53v-3a6.61 6.61 0 0 0-6.61-6.69h-3.1a6.62 6.62 0 0 0-6.6 6.13c-.08 1-.15 2-.22 3a6.63 6.63 0 0 0 6.64 7.09zm3.21 18.34H42a7.1 7.1 0 0 0-7.14 7.77c.08 1 .16 1.91.25 2.85a7.13 7.13 0 0 0 7.12 6.41h2.6a7.16 7.16 0 0 0 7.17-7.54l-.12-2.63a7.17 7.17 0 0 0-7.17-6.86z"/><path class="cls-6" d="M48.79 27.9h-2a4.66 4.66 0 0 0-4.51 3.49c-.23.87-.45 1.75-.67 2.64a4.65 4.65 0 0 0 4.53 5.75h2.43a4.66 4.66 0 0 0 4.64-4.3l.21-2.54a4.65 4.65 0 0 0-4.63-5.04zm-5.7 41.24h2a6.61 6.61 0 0 0 6.6-6.38c0-.8.06-1.6.08-2.4a6.58 6.58 0 0 0-6.59-6.83h-1.77a6.61 6.61 0 0 0-6.55 5.7l-.33 2.49a6.6 6.6 0 0 0 6.56 7.42zm1.2 34.52a7.15 7.15 0 0 0 7.15-7.28v-4a7.2 7.2 0 0 0-7.16-7.09h-2.8a7.17 7.17 0 0 0-7.17 7.06v4.17a7.17 7.17 0 0 0 7.18 7.12zm1.58 17.03h-1.45a7.17 7.17 0 0 0-7 8.74c.09.43.19.86.29 1.29a7.16 7.16 0 0 0 7 5.57H46a7.15 7.15 0 0 0 7.12-7.85l-.12-1.23a7.15 7.15 0 0 0-7.13-6.52z"/><path class="cls-7" d="M71 148.89H56.35c1.9 7.39 4.41 11.8 7.65 11.72s5.45-4.46 7-11.72zM58.22 27.9h4.86A3.92 3.92 0 0 0 67 23.36c-.13-.86-.27-1.69-.41-2.51a3.91 3.91 0 0 0-3.86-3.26h-4.22a3.92 3.92 0 0 0-3.9 3.41c-.09.81-.19 1.65-.28 2.51a3.93 3.93 0 0 0 3.89 4.39zm-1.87 120.99H71a108.31 108.31 0 0 0 1.75-12.6H54a111.12 111.12 0 0 0 2.35 12.6zm1.24-95.36h7.32a5.22 5.22 0 0 0 5.18-5.75l-.36-3.36a5.21 5.21 0 0 0-5.18-4.64h-6.76a5.2 5.2 0 0 0-5.2 4.89c-.07 1.11-.14 2.23-.2 3.36a5.22 5.22 0 0 0 5.2 5.5zm-.41 31.79h9.66a5.81 5.81 0 0 0 5.79-6.15c-.09-1.53-.18-3.06-.28-4.59a5.8 5.8 0 0 0-5.79-5.44h-9.32a5.8 5.8 0 0 0-5.8 5.72l-.06 4.59a5.81 5.81 0 0 0 5.8 5.87zm10.67 18.32H57.62a5.81 5.81 0 0 0-5.79 6.06c.08 1.86.17 3.7.27 5.51a5.81 5.81 0 0 0 5.79 5.47h10a5.8 5.8 0 0 0 5.8-5.75v-5.52a5.81 5.81 0 0 0-5.84-5.77z"/><path class="cls-7" d="M57.73 39.78h6.41a4.47 4.47 0 0 0 4.43-5c-.12-1-.26-2-.39-3a4.46 4.46 0 0 0-4.43-3.87H58A4.47 4.47 0 0 0 53.51 32l-.24 3a4.48 4.48 0 0 0 4.46 4.78zm9.84 80.91h-8.84A5.79 5.79 0 0 0 53 127q.2 2.13.42 4.17a5.78 5.78 0 0 0 5.76 5.13h8.22a5.77 5.77 0 0 0 5.78-5.4c.09-1.36.16-2.75.22-4.17a5.79 5.79 0 0 0-5.83-6.04zM57.52 69.14h8.19a5.82 5.82 0 0 0 5.78-6.29c-.11-1.34-.23-2.68-.34-4a5.81 5.81 0 0 0-5.78-5.31h-7.71a5.8 5.8 0 0 0-5.79 5.58c0 1.34-.1 2.68-.14 4a5.81 5.81 0 0 0 5.79 6.02zm-.25 34.51h10.38a5.79 5.79 0 0 0 5.79-6q-.09-3.37-.23-6.79a5.8 5.8 0 0 0-5.79-5.57H57.17a5.79 5.79 0 0 0-5.79 5.85c0 2.28 0 4.55.09 6.8a5.79 5.79 0 0 0 5.8 5.71z"/><path d="M72 162.07l-10-7.32-10 7.32.89 15.62a13.5 13.5 0 0 1 2.6 5.65 6.06 6.06 0 0 0 5.21 5 9.88 9.88 0 0 0 1.31.1h.09a6 6 0 0 0 5.73-5 13.41 13.41 0 0 1 2.61-5.7z" fill="#318138"/><path d="M70.44 177.69s-10.6-6.66-10.6-25.41 18.67-86.93 65.08-69c-21 5.91-30.1 10.41-30.1 40.81s-2.44 42.99-24.38 53.6z" fill="#619e3d"/><path d="M52.89 177.69s12.19-6.69 12.19-25.41S46.41 65.35 0 83.29C21 89.2 30.09 93.7 30.09 124.1s6.38 44.84 22.8 53.59z" fill="#73aa43"/><path class="cls-1" d="M34 194.1L18.78 200h26a80.49 80.49 0 0 1 5.78-10.41c-5.39-1.23-14.4-4-19.89-5.12 1.46 4.81 3.27 7.17 3.33 9.63zm55.06.31l15.2 6h-26a81.71 81.71 0 0 0-5.78-10.54c5.38-1.25 14.4-4 19.88-5.19-1.45 4.85-3.26 7.25-3.3 9.73zM66.09 79.05l-3.7 8.48-7-6-50.8 9.2S13.86 120.3 41 114c20.39-4.72 22.34-17.65 22.16-23.36 2.34 5.21 9.78 16 30.17 11.25C120.39 95.65 115.77 65 115.77 65z"/><path d="M86.43 85.22a6.83 6.83 0 0 0-5.11 8.19l13.31-3.08a6.83 6.83 0 0 0-8.2-5.11zM37.38 96.57a6.83 6.83 0 0 0-5.12 8.19l13.31-3.08a6.83 6.83 0 0 0-8.19-5.11z" fill="#fff"/><path d="M76.4 111.06a13.62 13.62 0 0 1-5.4 11.15 11.47 11.47 0 0 1-1.38.87 12.39 12.39 0 0 1-10.82.49 11.89 11.89 0 0 1-5.6-5.62c-.4-.87-1.33-2.92-1-3.9.48-1.25 2.25-.87 3.44-1 1.83-.05 20.78-1.31 20.76-1.99z" fill="#912a2a"/><path d="M69.64 123.08a12.39 12.39 0 0 1-10.82.49 11.36 11.36 0 0 1-5-4.48 14.38 14.38 0 0 1 7.9-2c2.58.12 5.27 1.08 6.76 3.2a7.53 7.53 0 0 1 1.16 2.79z" fill="#da6aa6"/></g></g></svg>