<svg xmlns="http://www.w3.org/2000/svg" width="28.424" height="49.43"><defs><style>.a{fill:none}.b{fill:#056839}.c{fill:#f8af41}.d{fill:#11a651}.f{fill:#08873e}.i{fill:#31a444}</style><clipPath id="a"><path class="a" d="M0 0h10.636v17.261H0z" transform="translate(.038 .118)"/></clipPath><clipPath id="b"><path class="a" d="M0 0h13.265v14.989H0z" transform="translate(.001 .105)"/></clipPath><clipPath id="c"><path class="a" d="M0 0h5.558v2.722H0z" transform="translate(.179 .219)"/></clipPath><clipPath id="d"><path class="a" d="M0 0h5.558v2.722H0z" transform="translate(.049 .219)"/></clipPath></defs><path class="b" d="M0 36.096l3.552 4.77L4.7 39.438l-1.927-2.187 3.442-.059v-2.873z"/><path class="c" d="M4.518 38.664l-2.11 2.453 1.834.37-.334.717s-.726-.393-.8-.161a.406.406 0 0 0 .11.486s-.208.648.555.625a2.771 2.771 0 0 0 1.274-.34l.407-2.114z"/><path class="b" d="M18.875 34.318l6.215 1.777-3.552 4.77-1.145-1.428 1.924-2.187-3.442-.058z"/><path class="c" d="M20.572 38.664l2.11 2.453-1.834.37.338.717s.722-.393.8-.162a.406.406 0 0 1-.11.486s.208.648-.555.625a2.771 2.771 0 0 1-1.274-.34l-.411-2.114z"/><path class="d" d="M20.843 47.183c-.986.233-2.226.573-3.031.748a9.663 9.663 0 0 0-3.163-3.034 4.705 4.705 0 0 0-2.014-.577 4.867 4.867 0 0 0-2.308.744 10.057 10.057 0 0 0-2.872 2.867 173.004 173.004 0 0 0-3.039-.636 33.479 33.479 0 0 1 .478-3.374c.143-.766.305-1.551.484-2.332.063-.29.129-.579.2-.867.057-.241.115-.482.17-.719.91-3.728 1.93-6.962 1.93-6.962h9.912s.945 2.995 1.826 6.543c.069.274.137.552.2.832s.137.585.206.879c.154.668.3 1.345.431 2.009a37.508 37.508 0 0 1 .588 3.879"/><path class="a" d="M7.731 0h10.636v17.261H7.731z"/><g clip-path="url(#a)" transform="translate(7.693 -.118)"><path class="f" d="M7.88 12.209a2.058 2.058 0 0 0 1.318-3.145 1.721 1.721 0 0 0 .41-3.155c1.113-.163 1.781-2.7-.205-3.1A2.065 2.065 0 0 0 8.615.4c-1.606-.955-2.669.818-2.669.818a2.012 2.012 0 0 0-3.331 2.119c-2.763.075-2.7 3.439-1.194 3.766-2.523 1.632-1.055 3.648.172 3.953-2.093 1.824.366 2.914 1.172 3.748a3.9 3.9 0 0 1 .917 1.635c.551 1.443 1.873 1.12 2.156-.254.4-1.934 2.916-2.09 2.043-3.975"/></g><path d="M14.452 3.778s-2.901 5.225-2.63 21.631a23.431 23.431 0 0 0 .3 2.877.309.309 0 0 0 .615-.052c-.1-2.177-.1-9.864.158-12.857a92.878 92.878 0 0 1 1.557-11.599" fill="#057c39"/><path class="a" d="M15.16 7.679h13.265v14.989H15.16z"/><g clip-path="url(#b)" transform="translate(15.159 7.574)"><path class="i" d="M6.425 12.112a2.058 2.058 0 0 0 2.727-2.048 1.721 1.721 0 0 0 1.949-2.515c1.043.422 2.9-1.432 1.388-2.776a2.065 2.065 0 0 0 .54-2.48c-.9-1.636-2.718-.641-2.718-.641a2.012 2.012 0 0 0-3.944.141C3.944.462 2.301 3.398 3.432 4.44c-3 .133-2.754 2.614-1.85 3.5-2.728.516-1.157 2.7-.883 3.826a3.9 3.9 0 0 1-.035 1.875c-.254 1.524 1.05 1.913 1.988.87 1.321-1.467 3.572-.33 3.772-2.4"/></g><path class="f" d="M24.767 11.636a44.09 44.09 0 0 0-10.7 14.139 62.41 62.41 0 0 0-1.224 2.694.316.316 0 0 0 .569.272c1.038-1.972 1.693-3.447 3.287-6.073a74.3 74.3 0 0 1 8.068-11.032"/><path class="i" d="M5.63 19.401a1.842 1.842 0 0 1-2.062-2.25 1.54 1.54 0 0 1-1.3-2.534c-.987.2-2.318-1.738-.764-2.671a1.849 1.849 0 0 1-.067-2.27 1.772 1.772 0 0 1 2.5-.116 1.8 1.8 0 0 1 3.446.774c2.348-.774 3.309 2.08 2.143 2.81 2.619.611 1.992 2.754 1.052 3.382 2.315.9.574 2.565.147 3.512a3.485 3.485 0 0 0-.279 1.655c-.028 1.382-1.239 1.51-1.893.438-.921-1.508-3.089-.878-2.924-2.73"/><path class="f" d="M4.154 11.793a39.465 39.465 0 0 1 7.089 14.2c.264.99.47 1.842.63 2.572a.283.283 0 0 1-.546.146c-.588-1.906-.921-3.312-1.891-5.885a66.5 66.5 0 0 0-5.282-11.033"/><path d="M3.459 34.428a7.539 7.539 0 0 0 2.738 6.28c1.461 1.4 3.859 2.08 4.731 3.5a2.623 2.623 0 0 1-1.277 3.585 3.492 3.492 0 0 0 2.225-.976 7.742 7.742 0 0 0 1.608-2.109 6.119 6.119 0 0 1 2.4-2.242c2.1-1.377 2.663-1.347 4.1-2.938 2.191-2.423 3.8-11.635-7.834-11.635-5.953 0-8.496 3.235-8.691 6.535" fill="#dc223c"/><path d="M10.871 33.514a1.948 1.948 0 1 1-1.952-1.948 1.948 1.948 0 0 1 1.952 1.948" fill="#e15b56"/><path d="M12.69 27.906c7.536 1.92 5.952 9.537 3.993 11.863-2.945 3.496-6.435 3.287-7.217 3.099a4.544 4.544 0 0 1 1.462 1.338 2.623 2.623 0 0 1-1.277 3.583 3.492 3.492 0 0 0 2.225-.976 7.743 7.743 0 0 0 1.608-2.107 6.117 6.117 0 0 1 2.4-2.242c2.1-1.377 2.663-1.347 4.1-2.938 2.156-2.382 3.739-11.333-7.294-11.62" fill="#c91d36"/><path class="d" d="M4.615 32.12a3.388 3.388 0 0 0-1.159.726 2.242 2.242 0 0 0-.6 1.865 2.243 2.243 0 0 0 1.122 1.607 3.177 3.177 0 0 0 1.4.341c2.427.1 4.749-1.365 7.164-1.1a18.2 18.2 0 0 1 3.507 1.077 5.885 5.885 0 0 0 4.071.057 3.03 3.03 0 0 0 1.893-3.317 3.016 3.016 0 0 0-1.587-1.84 6.416 6.416 0 0 0-2.411-.6 15.112 15.112 0 0 0-3.6.122 21.121 21.121 0 0 1-2.912.669c-2.39 0-4.564-.569-6.888.392"/><path d="M8.993 34.045a1.1 1.1 0 1 1-1.1-1.1 1.1 1.1 0 0 1 1.1 1.1m6.615.457a1.258 1.258 0 1 1 2.515 0" fill="#fefefe"/><path d="M13.965 39.26a2.973 2.973 0 0 1-1.691 2.1 2.568 2.568 0 0 1-.336.117 2.7 2.7 0 0 1-2.323-.425 2.5 2.5 0 0 1-.839-1.2 2.64 2.64 0 0 1-.074-.273c-.043-.2-.14-.683-.013-.871.165-.243.52-.076.777-.029a42 42 0 0 0 4.5.585" fill="#912a2a"/><path d="M11.938 41.479a2.7 2.7 0 0 1-2.323-.427 2.5 2.5 0 0 1-.839-1.196 3.134 3.134 0 0 1 1.774-.027 1.886 1.886 0 0 1 1.279 1.013 1.655 1.655 0 0 1 .109.637" fill="#da6aa5"/><path d="M13.858 36.613h-3.66a2.364 2.364 0 0 1 1.83-1.657c1.378-.129 1.83 1.657 1.83 1.657" fill="#e29f70"/><path class="a" d="M2.215 46.707h5.558v2.722H2.215z"/><g clip-path="url(#c)" transform="translate(2.036 46.488)"><path class="b" d="M2.84 1.905L.179 2.941h4.547a14.066 14.066 0 0 1 1.011-1.822c-.942-.218-2.52-.7-3.479-.9a10.077 10.077 0 0 1 .582 1.686"/></g><path class="a" d="M17.47 46.707h5.558v2.722H17.47z"/><g clip-path="url(#d)" transform="translate(17.421 46.488)"><path class="b" d="M2.949 1.905l2.658 1.036H1.061A14.053 14.053 0 0 0 .049 1.119c.942-.218 2.52-.7 3.479-.9a10.035 10.035 0 0 0-.579 1.686"/></g></svg>