<svg xmlns="http://www.w3.org/2000/svg" viewBox="0 0 125.63 218.48"><defs><style>.cls-1{fill:#056939}.cls-2{fill:#f9b041}.cls-4{fill:#07883e}.cls-6{fill:#31a544}.cls-9{fill:#fff}</style></defs><g id="Laag_2" data-name="Laag 2"><g id="Laag_1-2" data-name="Laag 1"><path class="cls-1" d="M27.47 143.69L0 151.54l15.7 21.08 5.06-6.31-8.5-9.66 15.21-.26v-12.7z"/><path class="cls-2" d="M20 162.9l-9.33 10.84 8.11 1.64-1.49 3.17s-3.19-1.74-3.53-.72a1.8 1.8 0 0 0 .49 2.15s-.92 2.86 2.46 2.76a12.26 12.26 0 0 0 5.63-1.5l1.8-9.35z"/><path class="cls-1" d="M83.43 143.69l27.47 7.85-15.7 21.08-5.06-6.31 8.5-9.66-15.21-.26v-12.7z"/><path class="cls-2" d="M90.93 162.9l9.32 10.84-8.11 1.64 1.5 3.17s3.19-1.74 3.52-.72a1.8 1.8 0 0 1-.49 2.15s.92 2.86-2.45 2.76a12.21 12.21 0 0 1-5.63-1.5l-1.8-9.35z"/><path d="M92.13 208.55c-4.36 1-9.84 2.53-13.4 3.3-3.23-4.66-8-10.23-14-13.4a20.59 20.59 0 0 0-8.9-2.55 21.44 21.44 0 0 0-10.21 3.29c-5.35 3.25-9.62 8.34-12.62 12.66-4.45-1-8.9-1.91-13.43-2.8a145.29 145.29 0 0 1 2.11-14.92c.63-3.38 1.35-6.85 2.14-10.3.28-1.28.57-2.56.87-3.83q.39-1.6.75-3.18c4-16.49 8.54-30.78 8.54-30.78h43.76s4.18 13.24 8.07 28.92c.3 1.21.61 2.44.9 3.68s.61 2.58.91 3.88c.68 3 1.32 5.95 1.91 8.88a166.76 166.76 0 0 1 2.6 17.15z" fill="#10a651"/><path class="cls-4" d="M68.83 53.44c5.17-1.3 10.17-7.59 5.83-13.9 4.84-.92 9.14-9.85 1.81-13.94 4.92-.72 7.87-12-.91-13.69 0 0 2.48-7.11-3.48-10.66C65-3 60.28 4.88 60.28 4.88c-6.47-6.61-17.67-.64-14.72 9.35-12.22.33-11.92 15.2-5.28 16.64C29.13 38.09 35.62 47 41 48.34c-9.25 8.07 1.61 12.88 5.18 16.57 1.09 1.13 2.12 2.17 4.05 7.23 2.44 6.38 8.28 5 9.53-1.12 1.8-8.55 12.93-9.24 9.07-17.58z"/><path d="M63.87 16.7s-12.82 23.09-11.62 95.61A104.27 104.27 0 0 0 53.58 125a1.37 1.37 0 0 0 2.72-.23c-.44-9.62-.44-43.59.7-56.82 2.93-34.19 6.87-51.25 6.87-51.25z" fill="#047c39"/><path class="cls-6" d="M95.4 87c5.1 1.48 12.57-1.43 12-9.05 4.65 1.66 12.87-3.87 8.61-11.11 4.61 1.86 12.83-6.33 6.14-12.27 0 0 5.74-4.89 2.38-11-4-7.23-12-2.84-12-2.84-2.25-9-14.93-9.47-17.43.63-10.71-5.89-18 7.09-13 11.7-13.2.63-12.1 11.6-8.1 15.5-12.06 2.29-5.11 11.93-3.9 16.92.37 1.52.73 2.94-.16 8.28-1.12 6.74 4.64 8.46 8.79 3.85C84.56 91.13 94.51 96.15 95.4 87z"/><path class="cls-4" d="M109.47 51.43S81.08 74.3 62.16 113.92c-2.18 4.57-4 8.52-5.4 11.92a1.4 1.4 0 0 0 2.52 1.2c4.58-8.72 7.48-15.24 14.53-26.85 18.19-30 35.66-48.76 35.66-48.76z"/><path class="cls-6" d="M24.88 85.75c-4.74.46-10.82-3.33-9.11-10-4.36.69-10.69-5.53-5.75-11.2-4.36.89-10.24-7.68-3.38-11.8 0 0-4.24-5.24-.29-10 4.7-5.71 11-.52 11-.52 3.45-7.52 14.69-5.88 15.23 3.42C43 42.26 47.26 54.87 42.1 58.1c11.58 2.7 8.81 12.17 4.65 14.9 10.23 4 2.54 11.34.65 15.53-.58 1.28-1.13 2.47-1.23 7.31-.12 6.11-5.47 6.68-8.37 1.94-4.06-6.63-13.65-3.84-12.92-12.03z"/><path class="cls-4" d="M18.36 52.13s21.21 24.79 31.33 62.77c1.17 4.38 2.08 8.14 2.79 11.37a1.25 1.25 0 0 1-2.42.64c-2.59-8.42-4.07-14.64-8.35-26C30.63 71.5 18.36 52.13 18.36 52.13z"/><path d="M15.29 152.17c-.81 13.67 5.7 21.61 12.1 27.76s17.06 9.19 20.91 15.47c3.13 5.09.49 13.41-5.64 15.83a15.43 15.43 0 0 0 9.83-4.31 34.41 34.41 0 0 0 7.11-9.33c3-5.39 7.06-7.57 10.62-9.9 9.27-6.09 11.77-6 18.13-13 9.65-10.69 16.77-51.4-34.65-51.4-26.31 0-37.55 14.29-38.41 28.88z" fill="#dd223c"/><path d="M56.09 123.35c33.31 8.48 26.3 42.15 17.65 52.43-13 15.45-28.45 14.53-31.9 13.7a20 20 0 0 1 6.46 5.92c3.13 5.09.49 13.41-5.64 15.83a15.43 15.43 0 0 0 9.83-4.31 34.41 34.41 0 0 0 7.11-9.33c3-5.39 7.06-7.57 10.62-9.9 9.27-6.09 11.77-6 18.13-13 9.51-10.51 16.5-50.08-32.26-51.34z" fill="#ca1d36"/><circle class="cls-9" cx="34.89" cy="150.49" r="4.87"/><path class="cls-9" d="M69 152.5a5.56 5.56 0 1 1 11.11 0"/><path d="M61.72 173.53a13.15 13.15 0 0 1-7.47 9.29 10.94 10.94 0 0 1-1.49.52 11.92 11.92 0 0 1-10.26-1.89 10.93 10.93 0 0 1-3.71-5.28c-.13-.4-.24-.8-.33-1.21-.19-.91-.62-3-.06-3.87.73-1.07 2.3-.34 3.44-.15 1.68.3 19.75 3.22 19.88 2.59z" fill="#912a2a"/><path d="M52.76 183.34a11.92 11.92 0 0 1-10.26-1.89 10.93 10.93 0 0 1-3.71-5.28 13.77 13.77 0 0 1 7.84-.12 8.28 8.28 0 0 1 5.65 4.47 7.32 7.32 0 0 1 .48 2.82z" fill="#da6aa6"/><path d="M61.25 161.83H45.07s2-6.75 8.09-7.32 8.09 7.32 8.09 7.32z" fill="#e39f70"/><path class="cls-1" d="M21.55 213.9l-11.76 4.58h20.1a61.07 61.07 0 0 1 4.47-8.06c-4.17-1-11.14-3.07-15.38-4 1.14 3.74 2.54 5.58 2.57 7.48zm68.45 0l11.76 4.58H81.69a62.54 62.54 0 0 0-4.47-8.06c4.16-1 11.14-3.07 15.38-4-1.14 3.74-2.54 5.58-2.6 7.48z"/></g></g></svg>