<svg xmlns="http://www.w3.org/2000/svg" viewBox="0 0 112.55 108.62"><defs><style>.cls-1{fill:#994493}.cls-2{fill:#f9b041}.cls-3{fill:#5c2363}.cls-4{fill:#471f51}.cls-6{fill:#ffebd2}.cls-7{fill:#fff}</style></defs><g id="Laag_2" data-name="Laag 2"><g id="Laag_7" data-name="Laag 7"><path class="cls-1" d="M94.57 98.16c-4.59 1.08-10.36 2.67-14.11 3.48-3.4-4.91-8.46-10.77-14.72-14.12a21.8 21.8 0 0 0-9.37-2.68 22.62 22.62 0 0 0-10.74 3.46c-5.63 3.43-10.21 8.78-13.37 13.34-4.68-1-9.37-2-14.14-3A154.13 154.13 0 0 1 20.34 83c.67-3.56 1.42-7.21 2.25-10.85.3-1.35.6-2.7.92-4 .27-1.13.54-2.25.8-3.35 4.24-17.36 9-32.4 9-32.4h46.12s4.4 13.93 8.49 30.45c.32 1.27.64 2.57.94 3.87s.64 2.72 1 4.09c.72 3.11 1.4 6.25 2 9.35a172.73 172.73 0 0 1 2.71 18zM28.92 29.02L0 37.28l16.53 22.2 5.33-6.64-8.95-10.18 16.01-.27V29.02z"/><path class="cls-2" d="M21 49.24l-9.79 11.42 8.53 1.72-1.57 3.34s-3.36-1.83-3.71-.76a1.89 1.89 0 0 0 .54 2.26s-1 3 2.59 2.91a13 13 0 0 0 5.93-1.58l1.89-9.84z"/><path class="cls-1" d="M83.63 29.02l28.92 8.26-16.53 22.2-5.33-6.64 8.96-10.18-16.02-.27V29.02z"/><path class="cls-2" d="M91.53 49.24l9.82 11.42-8.54 1.72 1.57 3.34s3.36-1.83 3.71-.76a1.88 1.88 0 0 1-.51 2.26s1 3-2.59 2.91a13 13 0 0 1-5.93-1.58l-1.89-9.84z"/><path class="cls-3" d="M17.47 42.27c3.17 20.6 16.6 33.53 34.08 34.11 19.7.65 31.65-5.25 38.22-20.85 7.41-17.53-72.3-13.26-72.3-13.26z"/><path class="cls-4" d="M81.89 68.6C80 70.14 76 70.13 73.6 70.28c-2.56.16-5.14-1.09-7.69-.85-4 .39-7.9 4.3-11.43 2-2.45-1.61-2.92-5.36-5.11-7.36-3.13-2.86-5.45-.38-8.33-3.53-3.44-3.76-.38-8.6-3.34-12.8-1.7-2.41-5.11-4.15-4.7-8.85.16-2 2.76-4.85 3.39-6.7.81-2.38-.21-3.95.12-6.49.44-3.32 1.47-5.1 7.36-7.06 3.49-1.17 4.6-1.45 5.46-5.29 1.09-4.82 3.11-5.23 5-5.14 2.42.11 3.41.85 5.74.78 3.52-.12 4.64-3.92 8.31-3 4 1 4.4 4.23 7.72 6.24 1.85 1.12 4.08.86 6.06 1.75a15.09 15.09 0 0 1 6.33 5.39 32.15 32.15 0 0 1 5.28 14.38C95.75 47.76 91.16 61 81.89 68.6z"/><path class="cls-3" d="M44.63 3.06C42.4 4 40.07 5 38.69 6.93s-1.73 5-3.27 7c-2.39 3.2-7.77 4.52-7.64 8.73.1 2.92 3.06 5.27 3.63 8.19.81 4.16-2.5 4.85-1.31 9 1.42 4.89 7.15 4.8 9.2 9.51 1.18 2.69.89 6.52 5.1 8.64 1.78.89 5.58.15 7.49.58 2.45.54 3.27 2.23 5.6 3.26 3.07 1.36 5.13 1.4 9.87-2.61 2.81-2.42 3.64-3.23 7.36-1.96 4.67 1.57 6.07.06 7-1.59 1.16-2.13 1-3.36 2.31-5.3 1.93-3 5.76-1.94 6.85-5.57 1.18-3.93-1.33-6-1.32-9.84 0-2.16 1.38-3.94 1.65-6.09.33-2.73-.77-6.59-2-9.2A33.92 33.92 0 0 0 74.61 4c-9.69-5.61-20.88-4.75-29.98-.94z"/><path d="M24.27 14.64c1.41-2.22 3.12-4.38 5.51-5.48s5.55-1 8.06-2.26C41.75 5 44.48-.36 48.79.43c3 .56 4.67 4 7.54 5 4.09 1.48 5.64-1.81 9.57.05 4.69 2.22 3.15 8.07 7.49 10.91C75.88 18 79.9 18.32 81 23c.48 2-1.25 5.75-1.29 7.77-.06 2.6 1.48 3.7 2 6.25.62 3.35.15 5.47-5.2 9.7-3.17 2.51-4.19 3.22-3.84 7.24.44 5-1.48 6.23-3.42 6.91-2.48.86-3.73.54-6.06 1.54-3.53 1.52-3.45 5.6-7.48 6.15-4.35.6-5.82-2.29-9.82-2.89-2.24-.33-4.42.81-6.71.74A14.81 14.81 0 0 1 31 63.74 34.08 34.08 0 0 1 19.9 51c-4.96-10.06-2.58-25.37 4.37-36.36z" fill="#892a81"/><path class="cls-1" d="M54.84 49.06c.85-2.88-.78-5.51-1.64-8.38-.94-3.13.64-7.19-1.78-9.38-1.65-1.49-4.29-1.16-6.14-2.39-2.39-1.6-2.84-5.4-5.52-6.45s-5.41 1.5-8 3c-2.4 1.4-5.12-.46-7.56.89-3.2 1.77-5.48 5.65-6.83 9.3A30.22 30.22 0 0 0 19.9 51 34.08 34.08 0 0 0 31 63.74a14.64 14.64 0 0 0 8.09 2.62c.33-1.6.62-3.16 2.29-3.73 2.22-.77 5.08.07 6.73-1.6s.94-4.19 2-6.1c1.36-2.59 3.89-3.05 4.73-5.87z"/><path class="cls-6" d="M53.19 11.75c-.37.27-.73.56-1.07.86s-.67.63-1 .94-.63.65-.94 1-.59.69-.86 1.05-.56.71-.8 1.08-.5.75-.73 1.13L47.13 19c-.21.39-.38.8-.57 1.2a11 11 0 0 0-.49 1.24 13.1 13.1 0 0 0-.42 1.25l-.34 1.27c-.11.43-.16.87-.24 1.3a9.45 9.45 0 0 0-.18 1.3l-.09 1.31a11.63 11.63 0 0 0 0 1.32V31l-.41.36-4.2 3.69c-1.39 1.24-2.79 2.48-4.12 3.74V37c.43.43 1 .91 1.47 1.34s1.06.86 1.61 1.26 1.12.79 1.69 1.16 1.16.72 1.76 1.05 1.2.65 1.82.95 1.24.57 1.88.82c.31.13.63.25.95.36s.65.24 1 .33c.65.22 1.31.39 2 .57s1.33.3 2 .39 1.36.17 2 .25 1.38.1 2.07.09 1.38-.05 2.07-.08c.35 0 .69-.06 1-.1s.69-.07 1-.13l1-.17 1-.22c.69-.13 1.36-.34 2-.53s1.35-.44 2-.64c-.62.34-1.25.69-1.89 1s-1.31.61-2 .84l-1 .38-1.05.3a9 9 0 0 1-1 .27l-1.06.24c-.72.11-1.44.24-2.17.29s-1.46.1-2.2.13-1.47 0-2.2-.1-1.46-.17-2.19-.27-1.45-.28-2.16-.46c-.36-.09-.72-.2-1.07-.31s-.71-.21-1-.34A29.7 29.7 0 0 1 41.51 44c-.65-.34-1.29-.71-1.92-1.09s-1.25-.79-1.85-1.22-1.18-.92-1.74-1.39a21.43 21.43 0 0 1-1.69-1.53l-.89-.91.94-.87c1.39-1.3 2.81-2.54 4.24-3.76.72-.61 1.44-1.21 2.17-1.8s1.45-1.19 2.19-1.78l-.41.91.05-1.44a13.9 13.9 0 0 1 .08-1.44l.2-1.42a11.57 11.57 0 0 1 .3-1.42c.12-.46.21-.93.36-1.39l.46-1.36a11.83 11.83 0 0 1 .58-1.31 11.82 11.82 0 0 1 .65-1.28c.25-.41.47-.83.74-1.22l.82-1.16c.29-.37.61-.73.91-1.09s.65-.69 1-1 .69-.63 1-.95.73-.58 1.1-.86a14.09 14.09 0 0 1 2.39-1.47z"/><path class="cls-6" d="M29.72 19.85c-.53 1.09-1 2.19-1.41 3.31s-.8 2.24-1.1 3.38c-.15.57-.31 1.14-.43 1.71s-.25 1.15-.34 1.72a27.22 27.22 0 0 0-.35 3.46 21.65 21.65 0 0 0 .15 3.42 19.32 19.32 0 0 0 .76 3.29 17.16 17.16 0 0 0 3.26 5.8l.57.68-.45.76-1.92 3.28-.08-1.38c.26.32.61.73.95 1.09s.7.71 1.07 1.06a27.4 27.4 0 0 0 2.35 1.93A25.6 25.6 0 0 0 35.29 55c.44.26.89.5 1.35.73s.92.45 1.39.64.95.39 1.44.57 1 .35 1.46.49 1 .28 1.5.41 1 .23 1.53.33 1 .19 1.55.25 1 .13 1.57.17 1.06.07 1.59.11 1.06 0 1.6 0c-.53.11-1.05.22-1.58.3s-1.07.16-1.61.19l-.81.07h-2.44c-.55 0-1.09-.06-1.63-.13s-1.09-.14-1.63-.25-1.07-.16-1.57-.28-1.06-.29-1.58-.47-1-.37-1.56-.57-1-.42-1.52-.66-1-.5-1.47-.78-1-.56-1.42-.87-.92-.63-1.36-1-.88-.69-1.3-1.06-.83-.75-1.23-1.15a15.24 15.24 0 0 1-1.17-1.3l-.5-.65.42-.73 1.91-3.28.13 1.44a18.25 18.25 0 0 1-3.6-6.74 18.72 18.72 0 0 1-.64-3.76 20.59 20.59 0 0 1 .1-3.77 22.32 22.32 0 0 1 .7-3.66c.17-.6.35-1.19.55-1.77s.41-1.15.66-1.72a30.11 30.11 0 0 1 1.62-3.27 23.71 23.71 0 0 1 1.98-2.98z"/><path class="cls-6" d="M65.48 24.42c-32-1.67-43.54 30-43.57 30.1a34.15 34.15 0 0 0 4.35 5.26C33 27.17 65.48 24.42 65.48 24.42z"/><path class="cls-4" d="M20.26 103.8l-12.38 4.82H29a65.92 65.92 0 0 1 4.7-8.49C29.36 99.12 22 96.9 17.55 96c1.2 3.86 2.67 5.79 2.71 7.8zm72.1 0l12.38 4.82H83.58a65.35 65.35 0 0 0-4.71-8.49c4.39-1 11.73-3.23 16.19-4.18-1.19 3.91-2.67 5.84-2.7 7.85z"/><circle class="cls-7" cx="33.58" cy="26.28" r="5.13"/><path class="cls-7" d="M69.47 28.39a5.86 5.86 0 0 1 11.71 0"/><path d="M61.82 50.54a13.1 13.1 0 0 1-9.43 10.33 12.58 12.58 0 0 1-10.81-2 11.61 11.61 0 0 1-3.9-5.56 11 11 0 0 1-.35-1.31c-.2-.95-.65-3.19-.06-4.07.77-1.13 2.42-.35 3.62-.15 1.77.35 20.8 3.43 20.93 2.76z" fill="#912a2a"/><path d="M52.39 60.87a12.58 12.58 0 0 1-10.81-2 11.61 11.61 0 0 1-3.9-5.56 14.48 14.48 0 0 1 8.25-.13c2.53.71 5 2.28 6 4.71a7.71 7.71 0 0 1 .46 2.98z" fill="#da6aa6"/><path d="M61.33 38.22h-17s2.1-7.11 8.51-7.71 8.49 7.71 8.49 7.71z" fill="#e39f70"/></g></g></svg>