<svg xmlns="http://www.w3.org/2000/svg" xmlns:xlink="http://www.w3.org/1999/xlink" width="39.898" height="29.365" viewBox="0 0 39.898 29.365"><defs><style>.a{fill:none;}.b{clip-path:url(#a);}.c{fill:#e2e2e2;}.d{fill:#fff;}.e{fill:#9b9797;}.f{clip-path:url(#b);}.g{fill:#f4f2f2;}.h{fill:#bcbbbb;}.i{clip-path:url(#c);}.j{fill:#efa522;}.k{fill:#d68a12;}.l{fill:#bf7408;}</style><clipPath id="a"><path class="a" d="M0,0H23.594V23.594H0Z" transform="translate(0 0.13)"/></clipPath><clipPath id="b"><path class="a" d="M0,0H13.938V7.165H0Z" transform="translate(0.033 0.13)"/></clipPath><clipPath id="c"><path class="a" d="M0,0H18V18H0Z" transform="translate(0.083 0.05)"/></clipPath></defs><g transform="translate(0 -0.135)"><g transform="translate(0 0.005)"><path class="a" d="M0,0H23.594V23.594H0Z" transform="translate(0 0.13)"/><g class="b"><path class="c" d="M13.635,23.594h0c-3.15,0-6.215-1.522-9.112-4.523C1.383,16.04-.135,12.83.009,9.53A12.276,12.276,0,0,1,2.521,2.95,15.041,15.041,0,0,1,4.855.412a9.181,9.181,0,0,0,5.221,5.55,3.047,3.047,0,0,0,1.058.2c3.39,0,5.679-6.1,5.7-6.158a9.419,9.419,0,0,1,4.107,2.65,9.427,9.427,0,0,1,2.651,4.108,17.462,17.462,0,0,0-3.538,1.875c-1.529,1.084-3.191,2.812-2.425,4.885a9.249,9.249,0,0,0,5.55,5.22s0,.005-.007.01a15.521,15.521,0,0,1-2.659,2.418A12.017,12.017,0,0,1,13.635,23.594ZM11.482,9.106a2.982,2.982,0,1,0,2.109.873A2.963,2.963,0,0,0,11.482,9.106Z" transform="translate(0 0.13)"/></g></g><path class="d" d="M8.627,22.759h0a10.107,10.107,0,0,1-3.5-.639V13.91a2.992,2.992,0,0,0,1.353.324,2.982,2.982,0,0,0,0-5.963,2.988,2.988,0,0,0-1.352.324V5.147a3.028,3.028,0,0,0,1,.176C8.2,5.323,9.845,3.1,10.864,1.23V22.5A10.084,10.084,0,0,1,8.627,22.759ZM3.758,21.511h0A16.163,16.163,0,0,1,0,18.723V0A9.4,9.4,0,0,0,3.758,4.5V21.511Z" transform="translate(5.009 0.97)"/><path class="e" d="M4.856,0a6.963,6.963,0,0,0,.323.818,8.777,8.777,0,0,1-.635.629C3.3,2.729.808,5.788.842,9.627.868,12.51,2.3,15.345,5.108,18.053l.021.021c2.707,2.805,5.542,4.24,8.426,4.266,3.838.034,6.9-2.461,8.178-3.7.237-.232.444-.443.624-.638a6.964,6.964,0,0,0,.824.325s-8.651,10.7-18.658.333C-5.845,8.651,4.856,0,4.856,0" transform="translate(0 0.547)"/><g transform="translate(3.771 0.005)"><path class="a" d="M0,0H13.938V7.165H0Z" transform="translate(0.033 0.13)"/><g class="f"><path class="g" d="M1.052.412a9.185,9.185,0,0,0,5.221,5.55C10.285,7.446,13.032,0,13.032,0a5.5,5.5,0,0,1,.906.308C8.535,12.894,2.294,4.984,0,1.416a12.087,12.087,0,0,1,1.052-1" transform="translate(0.033 0.13)"/></g></g><path class="c" d="M10.778,14.127l3.349-3.349L4.042.694A2.368,2.368,0,0,0,.694,4.043Z" transform="translate(11.273 0.874)"/><path class="h" d="M.694.45A2.364,2.364,0,0,1,1.322,0a2.368,2.368,0,0,0,.45,2.72L11.857,12.8l-1.079,1.079L.694,3.8A2.368,2.368,0,0,1,.694.45" transform="translate(11.273 1.118)"/><path class="g" d="M0,.816C.036.774.074.733.113.694a2.368,2.368,0,0,1,3.349,0L13.546,10.778l-.236.236L3.227.929A2.368,2.368,0,0,0,0,.816" transform="translate(11.853 0.874)"/><g transform="translate(21.818 11.453)"><path class="a" d="M0,0H18V18H0Z" transform="translate(0.083 0.05)"/><g class="i"><path class="j" d="M17.3,17.3h0a2.368,2.368,0,0,0,0-3.349L3.349,0,0,3.349,13.954,17.3a2.368,2.368,0,0,0,3.349,0" transform="translate(0.083 0.05)"/></g></g><path class="d" d="M13.954,14.181,0,.227.226,0,14.18,13.954a2.368,2.368,0,0,1,0,3.349c-.038.038-.078.074-.117.109a2.368,2.368,0,0,0-.109-3.232" transform="translate(25.024 11.503)"/><path class="k" d="M1.042,0,15,13.954a2.369,2.369,0,0,0,2.745.438,2.369,2.369,0,0,1-3.787.6L0,1.042Z" transform="translate(21.902 13.81)"/><path class="k" d="M.269,3.645,3.645.269a.918.918,0,0,1,1.3,1.3L1.568,4.944a.918.918,0,0,1-1.3-1.3" transform="translate(25.509 15.036)"/><path class="k" d="M.269,3.646,3.645.269a.918.918,0,0,1,1.3,1.3L1.568,4.944a.918.918,0,0,1-1.3-1.3" transform="translate(28.114 17.641)"/><path class="k" d="M.269,3.645,3.645.269a.918.918,0,0,1,1.3,1.3L1.568,4.944a.918.918,0,0,1-1.3-1.3" transform="translate(30.446 19.973)"/><path class="l" d="M.269.944,1.213,0l1.3,1.3-.944.944a.918.918,0,0,1-1.3-1.3" transform="translate(25.509 17.738)"/><path class="l" d="M.269.944,1.213,0l1.3,1.3-.944.944a.918.918,0,0,1-1.3-1.3" transform="translate(28.114 20.343)"/><path class="l" d="M.269.944,1.213,0l1.3,1.3-.944.944a.918.918,0,0,1-1.3-1.3" transform="translate(30.446 22.675)"/><path class="g" d="M.146.146h0a.5.5,0,0,1,.707,0L9.858,9.151a.5.5,0,1,1-.707.707l-9-9a.5.5,0,0,1,0-.707" transform="translate(13.588 2.036)"/><path class="e" d="M.873.177C.936.115,1,.056,1.068,0a2.981,2.981,0,0,0,4.2,4.2c-.056.067-.115.132-.178.195A2.982,2.982,0,0,1,.873.177" transform="translate(8.128 10.309)"/></g></svg>