<svg xmlns="http://www.w3.org/2000/svg" xmlns:xlink="http://www.w3.org/1999/xlink" width="39.644" height="39.751" viewBox="0 0 39.644 39.751"><defs><style>.a{fill:none;}.b{fill:#13c1d8;}.c{fill:#fff;}.d{fill:#0fa9b5;}.e{clip-path:url(#a);}.f{clip-path:url(#b);}.g{fill:#e2e2e2;}.h{fill:#c4c2c2;}.i{clip-path:url(#c);}.j{fill:#f4f2f2;}.k{clip-path:url(#d);}.l{fill:#9b9797;}.m{fill:#fbfbfb;}</style><clipPath id="a"><path class="a" d="M0,0H8.109V8.109H0Z" transform="translate(0.024 0.092)"/></clipPath><clipPath id="b"><path class="a" d="M0,0H29.586V29.587H0Z" transform="translate(0 0.067)"/></clipPath><clipPath id="c"><path class="a" d="M0,0H20.394V29.587H0Z" transform="translate(0 0.067)"/></clipPath><clipPath id="d"><path class="a" d="M.063.063H.188V.188H.063Z" transform="translate(0.188 0.063)"/></clipPath></defs><g transform="translate(-0.144 -0.144)"><path class="b" d="M0,4.76l7.82,7.82,4.76-4.76L4.76,0Z" transform="translate(24.503 24.503)"/><path class="c" d="M0,.372l7.82,7.82.372-.373L.372,0Z" transform="translate(24.503 28.891)"/><path class="d" d="M0,2.066l7.82,7.82L9.886,7.819,2.067,0Z" transform="translate(27.196 24.503)"/><g transform="translate(0 0.077)"><g transform="translate(31.655 31.511)"><path class="a" d="M0,0H8.109V8.109H0Z" transform="translate(0.024 0.092)"/><g class="e"><path class="b" d="M6.031,0,0,6.031l1.14,1.14a3.2,3.2,0,0,0,4.532,0l1.5-1.5a3.2,3.2,0,0,0,0-4.532Z" transform="translate(0.024 0.092)"/></g></g><path class="d" d="M6.637.607,6.031,0,0,6.031l.607.607Z" transform="translate(31.679 31.603)"/><path class="d" d="M0,2.672l1.14,1.14A3.206,3.206,0,0,1,1.65,7.68a3.207,3.207,0,0,0,.664-.51l1.5-1.5a3.2,3.2,0,0,0,0-4.532L2.672,0Z" transform="translate(35.037 31.603)"/><g transform="translate(0.144)"><path class="a" d="M0,0H29.586V29.587H0Z" transform="translate(0 0.067)"/><g class="f"><path class="g" d="M0,0,.77,10.627,19.729,29.587l9.857-9.857L10.627.771Z" transform="translate(0 0.067)"/></g></g><path class="h" d="M0,0,24.545,24.545l4.831-4.831L10.417.755Z" transform="translate(0.354 0.082)"/><g transform="translate(0.144)"><path class="a" d="M0,0H20.394V29.587H0Z" transform="translate(0 0.067)"/><g class="i"><path class="j" d="M0,0,.77,10.627,19.729,29.587l.665-.665L1.682,10.21,1.016,1.016l.21.015L.21.015Z" transform="translate(0 0.067)"/></g></g><g transform="translate(0 39.568)"><path class="a" d="M.063.063H.188V.188H.063Z" transform="translate(0.188 0.063)"/></g><path class="l" d="M0,0,1.016,1.016,10,1.667,28.712,20.379l.665-.665L10.417.755Z" transform="translate(0.354 0.082)"/><path class="b" d="M2.4,10.929,10.929,2.4,8.528,0,0,8.528Z" transform="translate(20.538 20.462)"/><path class="b" d="M12.571,0,0,12.571l.745,3.283,2.864.326L16.18,3.609,15.705.772Z" transform="translate(18.472 18.423)"/><path class="d" d="M1.883,0,0,1.883l3.134.772.475,2.837L5.492,3.609,5.017.772Z" transform="translate(29.174 18.41)"/><path class="d" d="M13.749.29,12.571,0,0,12.571l.271,1.2Z" transform="translate(18.486 18.41)"/><path class="c" d="M.283,0,0,.283.745,3.566l2.864.326.283-.283L1.028,3.283Z" transform="translate(18.486 30.697)"/><path class="m" d="M7.818,0l4.7,4.7L4.7,16.594,0,11.9Z" transform="translate(3.839 1.723)"/><path class="m" d="M7.818,0l6.489,6.489-7.818,11.9L0,11.9Z" transform="translate(9.924 7.808)"/></g></g></svg>