<svg xmlns="http://www.w3.org/2000/svg" xmlns:xlink="http://www.w3.org/1999/xlink" width="39.876" height="39.863" viewBox="0 0 39.876 39.863"><defs><style>.a{fill:none;}.b{fill:#e2e2e2;}.c{fill:#f4712f;}.d{clip-path:url(#a);}.e{fill:#fcbe00;}.f{fill:#d85921;}.g{fill:#dda300;}.h{fill:#9b9797;}.i{clip-path:url(#b);}.j{fill:#fff;}.k{fill:#c4c2c2;}</style><clipPath id="a"><path class="a" d="M0,0H7.058V7.051H0Z" transform="translate(0.091 0.082)"/></clipPath><clipPath id="b"><path class="a" d="M0,0H23.393V26.96H0Z" transform="translate(0 0.137)"/></clipPath></defs><g transform="translate(0 -0.14)"><path class="b" d="M0,0,1.716,8.583,20.093,26.96l2.6-.427.7-.7.5-.5.723-.723L1.078,1.065.017,0Z" transform="translate(0 0.14)"/><g transform="translate(0 0.003)"><path class="c" d="M12.579,7.26,14.237,5.6c3.676.269,6.1-4.661,6.1-4.661C18.271,2.554,13.207,0,13.207,0l.224,2.2L11.145,4.482c-.876.877-2.21.3-3.033-.2L4.283,8.112c.5.822,1.076,2.156.2,3.033L2.2,13.431,0,13.207s2.554,5.064.941,7.126c0,0,4.93-2.42,4.661-6.1l1.659-1.659,1.658.134,5.742,5.742.047-.026-.3-4.007-.01-.01h.01V14.4l.01.01,4.007.3.031-.056-5.74-5.74Z" transform="translate(18.422 18.547)"/><g transform="translate(32.727 32.867)"><path class="a" d="M0,0H7.058V7.051H0Z" transform="translate(0.091 0.082)"/><g class="d"><path class="c" d="M.019.01.009,0V.01H0l.01.01.3,4.007-.047.026.04.04L.574,7.051H7.058V.567L4.1.3,4.057.256,4.027.312Z" transform="translate(0.091 0.082)"/></g></g><path class="e" d="M.011.006.005,0V.006H0L.006.011.177,2.275.15,2.289l.023.023L.324,3.983H3.987V.32L2.316.169,2.292.145,2.275.177Z" transform="translate(34.355 34.483)"/><path class="f" d="M7.013,0l.224,2.2L4.951,4.482c-.877.877-2.211.305-3.033-.2L0,6.2l8.211,8.211h0V14.4l.01.01,4.007.3.031-.056-5.74-5.74L6.385,7.26,8.043,5.6c3.676.269,6.1-4.661,6.1-4.661C12.077,2.554,7.013,0,7.013,0" transform="translate(24.617 18.547)"/><path class="f" d="M4.09.3,4.048.256,4.018.312.01.01,0,0V.01H0L7.042,7.051h.007V.567Z" transform="translate(32.827 32.949)"/><path class="g" d="M2.313.169,2.29.145,2.272.177.009.006,0,0V.006H0L3.978,3.983h.007V.32Z" transform="translate(34.358 34.483)"/><path class="h" d="M0,0,1.062,1.062,8.156,2.48l17.9,17.9-.289,3.067.752-.752.428-2.6L8.566,1.713Z" transform="translate(0.017 0.141)"/><path class="a" d="M0,0H23.393V26.96H0Z" transform="translate(0 0.137)"/><g class="i"><path class="j" d="M2.483,8.172,1.061,1.062l.017,0L.017,0,0,0,1.716,8.583,20.093,26.96l2.6-.427.7-.7-3.013.235Z" transform="translate(0 0.137)"/></g><path class="k" d="M7.094,1.419,0,0,23.542,23.542l.71-.71.45-.45.289-3.067Z" transform="translate(1.078 1.202)"/><path class="b" d="M0,0,1.422,7.111l17.9,17.9,3.013-.235.5-.5.723-.723L.017,0Z" transform="translate(1.061 1.199)"/><path class="j" d="M5.862.537l4.09,4.09L6.183,14.59,0,8.407,3.18,0Z" transform="translate(2.721 1.317)"/><path class="j" d="M0,9.963,3.769,0,8.851,5.081,5.081,15.045Z" transform="translate(13.22 10.26)"/><path class="f" d="M4.693,3.653,1.04,0,0,3.033,1.627,4.64l1.858.221Z" transform="translate(24.371 25.535)"/><path class="c" d="M3.653,4.693,0,1.04,3.033,0,4.64,1.627l.221,1.859Z" transform="translate(25.411 24.495)"/><path class="e" d="M3.692,2.874.818,0,0,2.386,1.28,3.65l1.462.174Z" transform="translate(24.983 25.925)"/><path class="g" d="M2.874,3.692,0,.818,2.386,0,3.65,1.28l.174,1.462Z" transform="translate(25.801 25.107)"/></g></g></svg>