<svg xmlns="http://www.w3.org/2000/svg" xmlns:xlink="http://www.w3.org/1999/xlink" width="39.884" height="39.884" viewBox="0 0 39.884 39.884"><defs><style>.a{fill:none;}.b{fill:#2cf4e1;}.c{fill:#00e0d6;}.d{fill:#02c6b7;}.e{fill:#fff;}.f{fill:#706e6c;}.g{fill:#494745;}.h{clip-path:url(#a);}.i{fill:#15e5cc;}.j{fill:#04aa9a;}.k{fill:#9b9997;}</style><clipPath id="a"><path class="a" d="M0,0H8.095V8.095H0Z" transform="translate(0.134 0.107)"/></clipPath></defs><g transform="translate(0 0)"><path class="b" d="M12.9,5.945,0,0,5.945,12.9s4.6.681,13.308,10.675l.719-.719C13.636,16.217,7.828,12.563,6.552,12.172L1.746,1.746,12.172,6.552c.391,1.276,4.045,7.084,10.682,13.42l.719-.719C13.579,10.545,12.9,5.945,12.9,5.945" transform="translate(0 0)"/><path class="c" d="M1.768,4.8,4.8,1.768Q3.8.88,2.882,0L0,2.882Q.879,3.8,1.768,4.8" transform="translate(19.971 19.972)"/><path class="c" d="M10.425,4.805,0,0,4.805,10.425c1.276.391,7.084,4.045,13.42,10.682l2.882-2.882C14.471,11.889,10.817,6.081,10.425,4.805" transform="translate(1.747 1.747)"/><path class="d" d="M12.854,5.925,0,0,21.381,21.381l2.148-2.148C13.535,10.525,12.854,5.925,12.854,5.925" transform="translate(0.044 0.02)"/><path class="e" d="M3.413,2.9,18.395,17.882l-.512.512L2.893,3.4c-.254-.254-.5-.519-.726-.795L0,0,2.6,2.159q.422.352.811.74" transform="translate(3.274 3.275)"/><path class="f" d="M13.013,0c4.327,2.241-.931,5.377-2.506,6.22L6.22,10.507C5.377,12.082,2.241,17.34,0,13.013c0,0-.045,11.3,9.541,9.091,0,0-4.77-2.88-2.835-5.806,0,0,2.481-1.654,3.855-1.555a1.028,1.028,0,0,1,.511.16c1.125.765,7.651,7.651,7.651,7.651l3.832-3.832S15.668,12.2,14.9,11.071a1.027,1.027,0,0,1-.16-.511c-.1-1.374,1.555-3.855,1.555-3.855C19.224,4.77,22.1,9.541,22.1,9.541,24.309-.045,13.013,0,13.013,0" transform="translate(13.049 13.049)"/><path class="g" d="M4.595,0c4.327,2.241-.931,5.377-2.506,6.22L0,8.309,12.274,20.583l1.861-1.861S7.25,12.2,6.485,11.071a1.028,1.028,0,0,1-.16-.511C6.226,9.186,7.88,6.706,7.88,6.706c2.925-1.935,5.805,2.835,5.805,2.835C15.891-.045,4.595,0,4.595,0" transform="translate(21.468 13.049)"/><g transform="translate(31.655 31.682)"><path class="a" d="M0,0H8.095V8.095H0Z" transform="translate(0.134 0.107)"/><g class="h"><path class="f" d="M0,3.806.456,7.927l7.639.167L7.927.456,3.806,0Z" transform="translate(0.134 0.107)"/></g></g><path class="g" d="M6.18,8.071,6.013.456,1.891,0,0,1.891Z" transform="translate(33.704 31.789)"/><path class="b" d="M.237,4.956,0,2.81,2.81,0,4.956.238l.106,4.824Z" transform="translate(33.323 33.323)"/><path class="i" d="M3.634,5.017l-.1-4.78L1.383,0,0,1.383Z" transform="translate(34.75 33.323)"/><path class="b" d="M4.37.96,2.8,2.8.96,4.37,0,9.012S3.491,6.657,5.358,7.388c.662.26,1.387.518,2.044.745.4.138.779.264,1.1.371L8.42,8.252c-.058-.174-.12-.36-.186-.554q-.049-.145-.1-.3c-.227-.658-.485-1.382-.745-2.044C6.657,3.491,9.012,0,9.012,0Z" transform="translate(19.435 19.354)"/><path class="i" d="M1.6.96.031,2.8,0,2.826l5.65,5.65.086.029-.084-.252c-.058-.174-.12-.36-.186-.554q-.049-.145-.1-.3c-.227-.658-.485-1.382-.745-2.044C3.889,3.491,6.243,0,6.243,0Z" transform="translate(22.203 19.354)"/><path class="j" d="M12.854,5.925,0,0,1.746,1.746,12.128,6.532c.391,1.276,4.045,7.084,10.682,13.42l.719-.719C13.535,10.525,12.854,5.925,12.854,5.925" transform="translate(0.044 0.02)"/><path class="b" d="M0,0,5.945,12.9s4.6.681,13.308,10.675l.719-.719C13.636,16.217,7.828,12.563,6.552,12.172L1.746,1.746l.044.02L.044.02Z" transform="translate(0 0)"/><path class="k" d="M0,3.781C.644,4.453,1.063,4.9,1.063,4.9L4.9,1.063S4.453.644,3.781,0Z" transform="translate(30.708 30.708)"/><path class="f" d="M0,1.857c.651.665,1.076,1.1,1.076,1.1L2.959,1.076S2.522.651,1.857,0Z" transform="translate(32.644 30.694)"/><g transform="translate(5.324 4.488)"><path class="e" d="M3.3,0A48.549,48.549,0,0,0,6.935,4.016l-.426.695L4.294,8.327l-.453.74C2.427,7.587,1.145,6.377,0,5.388l.334-.545L2.964.549Z" transform="translate(7.695 7.39)"/><path class="e" d="M7.525,1.446A10.112,10.112,0,0,0,9.081,4.782l-.358.585L5.635,10.409l-.312.508C2.189,8.639.571,8.4.571,8.4L0,7.162l.538-.877L3.937.734,4.387,0Z" transform="translate(0.05 0.011)"/></g></g></svg>