<svg xmlns="http://www.w3.org/2000/svg" xmlns:xlink="http://www.w3.org/1999/xlink" width="42.904" height="39.538" viewBox="0 0 42.904 39.538"><defs><style>.a{fill:none;}.b{fill:#ac579d;}.c{fill:#2a285e;}.d{fill:#c973ac;}.e{fill:#72a943;}.f{fill:#89bc6f;}.g{fill:#7dac65;}.h{clip-path:url(#a);}.i{fill:#add193;}.j{fill:#54a94d;}.k{fill:#fefefe;}.l{fill:#912a2a;}.m{fill:#da6aa5;}.n{clip-path:url(#b);}</style><clipPath id="a"><path class="a" d="M0,0H8.774V10.144H0Z" transform="translate(0.129 0.202)"/></clipPath><clipPath id="b"><path class="a" d="M0,0H7.951V3.936H0Z" transform="translate(0.24 0.22)"/></clipPath></defs><g transform="translate(0 -0.26)"><path class="b" d="M0,6.929,1.391,7.967,7.024,3.979,7.916,0Z" transform="translate(3.357 20.402)"/><g transform="translate(0 0.058)"><path class="c" d="M3.572,0,6.3,2.973l-2.466.774V5.225A.647.647,0,0,1,3.2,4.706L2.993,3.67,1.4,4.477A1.245,1.245,0,0,1,0,4.288L2.193,2.612Z" transform="translate(0 25.298)"/><path class="b" d="M7.916,6.929,6.525,7.967.892,3.979,0,0Z" transform="translate(31.631 20.344)"/><path class="c" d="M2.732,0,0,2.973l2.467.774V5.225A.647.647,0,0,0,3.1,4.706l.21-1.036L4.9,4.477a1.245,1.245,0,0,0,1.4-.189L4.111,2.612Z" transform="translate(36.6 25.298)"/><path class="d" d="M18.859,16.236c-1.132.268-2.555.658-3.48.859a11.093,11.093,0,0,0-3.631-3.483,5.409,5.409,0,0,0-2.312-.662,5.585,5.585,0,0,0-2.65.855,11.541,11.541,0,0,0-3.3,3.291c-1.155-.25-2.312-.5-3.489-.73a38.346,38.346,0,0,1,.549-3.873c.164-.879.35-1.781.555-2.677q.109-.5.227-1c.066-.277.132-.553.2-.825C2.574,3.713,3.745,0,3.745,0H15.124s1.085,3.438,2.095,7.512c.079.315.158.634.234.955s.158.672.237,1.009c.177.768.344,1.544.5,2.307a43.187,43.187,0,0,1,.675,4.453" transform="translate(12.429 20.061)"/><path class="e" d="M6.362,0C8.928,2.685,7.915,5.692,6.8,7.563A3.737,3.737,0,0,1,3.587,9.389H.017S-.648,4.329,6.362,0" transform="translate(21.416 17.668)"/><path class="f" d="M3.48,0A5.879,5.879,0,0,0,0,1.149c1.112.723,1.08,2.784,1.08,2.784V7.324h4.8V3.933s-.032-2.061,1.08-2.784A5.878,5.878,0,0,0,3.48,0" transform="translate(17.918 25.919)"/><path class="g" d="M2.9,7.324V3.933S2.868,1.872,3.98,1.149A5.877,5.877,0,0,0,.5,0c.9.705.871,1.382.871,3.082S1.607,6.408,0,7.324H2.9Z" transform="translate(20.899 25.919)"/><g transform="translate(16.883)"><path class="a" d="M0,0H8.774V10.144H0Z" transform="translate(0.129 0.202)"/><g class="h"><path class="i" d="M4.387,0c-7.856,7.315-3.439,10.024,0,10.144,3.439-.119,7.857-2.829,0-10.144" transform="translate(0.129 0.202)"/></g></g><path class="j" d="M4.425,0C-3.463,7.6.938,11.138,4.282,11.834c3.442.375,7.989-3.276.143-11.834" transform="translate(12.142 2.76)"/><path class="e" d="M4.331,0c7.888,7.6,3.487,11.138.143,11.834C1.032,12.209-3.514,8.558,4.331,0" transform="translate(21.883 2.76)"/><path class="f" d="M4.491,0c-8.042,8.238-3.523,11.572,0,11.765,3.524-.192,8.042-3.526,0-11.765" transform="translate(16.907 8.635)"/><path class="f" d="M2.488,0C-3.093,6.595,2,11.162,5.243,12.156,8.6,12.84,10.745,8.483,2.488,0" transform="translate(8.403 8.449)"/><path class="e" d="M4.412,0C-3.443,6.7.926,10.233,4.253,11.294c3.479.638,8.142-2.4.159-11.294" transform="translate(11.72 11.808)"/><path class="i" d="M5.737,0c5.581,6.595.483,11.162-2.754,12.156C-.378,12.84-2.521,8.483,5.737,0" transform="translate(26.345 8.449)"/><path class="j" d="M4.4,0c7.855,6.7,3.486,10.233.159,11.294C1.075,11.932-3.588,8.891,4.4,0" transform="translate(22.27 11.808)"/><path class="i" d="M0,0C-.134,7.171,4.615,11.268,9.232,11.761A27.158,27.158,0,0,0,12.7,12C12.889,11.8,9.563,6.642,0,0" transform="translate(6.745 15.053)"/><path class="f" d="M12.7,0c.137,7.171-4.612,11.268-9.229,11.761A27.151,27.151,0,0,1,.008,12C-.183,11.8,3.142,6.642,12.7,0" transform="translate(23.347 15.053)"/><path class="i" d="M4.309,0C-3.4,7.852.922,11.87,4.309,12.063,7.7,11.871,12.017,7.852,4.309,0" transform="translate(17.09 14.561)"/><path class="j" d="M1.608,0C-.958,2.685.055,5.692,1.168,7.563A3.736,3.736,0,0,0,4.382,9.389h3.57S8.617,4.329,1.608,0" transform="translate(13.446 17.668)"/><path class="d" d="M18.633,4.646,0,0S0,12.807,9.268,12.805c4.739,0,7.867-3.716,9.366-6.051C20.132,9.09,23.26,12.8,28,12.805,37.266,12.807,37.266,0,37.266,0Z" transform="translate(1.692 7.847)"/><path class="k" d="M3.86,1.93A1.93,1.93,0,1,1,1.93,0,1.93,1.93,0,0,1,3.86,1.93" transform="translate(9.535 14.16)"/><path class="k" d="M3.86,1.93A1.93,1.93,0,1,1,1.93,0,1.93,1.93,0,0,1,3.86,1.93" transform="translate(26.7 14.16)"/><path class="l" d="M0,1.379A5.99,5.99,0,0,0,3.329,5.638a4.932,4.932,0,0,0,.662.236,5.189,5.189,0,0,0,4.573-.866,5.057,5.057,0,0,0,1.653-2.421,5.318,5.318,0,0,0,.145-.555c.084-.413.276-1.39.027-1.771C10.064-.231,9.364.107,8.858.194,8.109.328.057,1.67,0,1.379" transform="translate(15.69 19.971)"/><path class="m" d="M0,3.575a5.188,5.188,0,0,0,4.573-.866A5.06,5.06,0,0,0,6.226.288,6,6,0,0,0,2.732.233,3.734,3.734,0,0,0,.214,2.284,3.438,3.438,0,0,0,0,3.575" transform="translate(19.681 22.27)"/><path class="c" d="M3.806,2.408,0,3.887H6.5a20.084,20.084,0,0,1,1.447-2.6C6.6.974,4.346.291,2.974,0a14.322,14.322,0,0,1,.832,2.408" transform="translate(8.872 35.756)"/><g transform="translate(26.494 35.584)"><path class="a" d="M0,0H7.951V3.936H0Z" transform="translate(0.24 0.22)"/><g class="n"><path class="c" d="M4.145,2.438l3.806,1.5h-6.5A20.4,20.4,0,0,0,0,1.3C1.348.986,3.6.295,4.977,0a14.617,14.617,0,0,0-.832,2.438" transform="translate(0.24 0.22)"/></g></g></g></g></svg>