<svg xmlns="http://www.w3.org/2000/svg" xmlns:xlink="http://www.w3.org/1999/xlink" width="36.162" height="39.845" viewBox="0 0 36.162 39.845"><defs><style>.a{fill:none;}.b{fill:#e19214;}.c{fill:#44ad4d;}.d{fill:#31a444;}.e{clip-path:url(#a);}.f{fill:#08873e;}.g{fill:#049345;}.h{clip-path:url(#b);}.i{fill:#057c39;}.j{fill:#ecc20f;}.k{fill:#fefefe;}.l{fill:#912a2a;}.m{fill:#da6aa5;}</style><clipPath id="a"><path class="a" d="M0,0H36.161V21.707H0Z" transform="translate(0 0.155)"/></clipPath><clipPath id="b"><path class="a" d="M0,0H24.953V21.188H0Z" transform="translate(0.009 0.156)"/></clipPath></defs><g transform="translate(0 -0.155)"><path class="b" d="M6.377,3.383C4.844,5.609,3.141,7.724,1.44,9.837L0,11.625a2.4,2.4,0,0,0,2.491.882A11.741,11.741,0,0,1,3.7,12.123c1.075-.159,2.032.7,3.114.809,1.252.122,2.383-.779,3.64-.84,1.646-.081,3.117,1.28,4.755,1.1.8-.087,1.52-.538,2.322-.592,1.565-.107,3.1,1.3,4.549.723a1.14,1.14,0,0,0,.652-.574,1.528,1.528,0,0,0,.028-.828,30.59,30.59,0,0,0-2.269-7.683c-.629-1.415-1.5-2.9-3.007-3.443A8.124,8.124,0,0,0,15.167.486C13.143.379,11.141,0,9.11,0,7.89,0,8.068.177,7.667,1.155a12.136,12.136,0,0,1-1.29,2.228" transform="translate(6.4 16.154)"/><path class="c" d="M0,2.167S3.747,5.122,4.354,9.062a16.517,16.517,0,0,1,0,6.205,7.3,7.3,0,0,0,3.848.887,7.954,7.954,0,0,0,4.051-.985,22.828,22.828,0,0,1-.507-5.811C11.747,5.221,16,2.167,16,2.167L14.127.64a28.082,28.082,0,0,0-4.2,4.843V0H6.177V5.762A13.951,13.951,0,0,0,2.228.842Z" transform="translate(10.8 16.923)"/><path class="d" d="M2,5.385V0H0L.518,3.237A5.516,5.516,0,0,0,.947,4.682,1.537,1.537,0,0,0,2,5.385" transform="translate(18.8 16.923)"/><path class="d" d="M8.8,1.514,6.909,0s-.34.307-.836.792l.9.722S2.682,4.542,2.682,8.645c0,1.436.063,2.573.144,3.444A3.01,3.01,0,0,1,.094,15.335L0,15.344c.29.026.6.041.93.041a8.134,8.134,0,0,0,4.088-.976,22.273,22.273,0,0,1-.511-5.763c0-4.1,4.293-7.131,4.293-7.131" transform="translate(18 17.692)"/><path class="d" d="M1.1,0h0L.732.217,0,.644A18.169,18.169,0,0,1,3.32,3.661,3.46,3.46,0,0,0,5.2,5,14.259,14.259,0,0,0,1.1,0" transform="translate(11.6 17.692)"/><g transform="translate(0)"><path class="a" d="M0,0H36.161V21.707H0Z" transform="translate(0 0.155)"/><g class="e"><path class="f" d="M8.932,21.67c-3.606.381-5.9-2.209-5.461-5.062A4.768,4.768,0,0,1,.132,11.037C.8,8.268,3.986,7.214,6.338,7.709a5.49,5.49,0,0,1,3.09-5.518,5.971,5.971,0,0,1,6.45,1A7.231,7.231,0,0,1,23.221.131a6.932,6.932,0,0,1,5.438,5.635,4.7,4.7,0,0,1,6.27.906,4.268,4.268,0,0,1-1.205,5.966,4.566,4.566,0,0,1,2.364,4.777,4.746,4.746,0,0,1-4,3.637,4.283,4.283,0,0,1-4.62-2.12c-1.007.814-2.762.584-3.937.012a3.291,3.291,0,0,1-1.837-3.112,5.066,5.066,0,0,1-4.121,2.38c-1.644.187-2.555-.472-4.024-1.922-.276,3.34-1.53,5.053-4.613,5.379" transform="translate(0 0.155)"/></g></g><path class="g" d="M3.6,1.731A1.766,1.766,0,0,1,1.8,3.462,1.766,1.766,0,0,1,0,1.731,1.766,1.766,0,0,1,1.8,0,1.766,1.766,0,0,1,3.6,1.731" transform="translate(9.2 4.615)"/><path class="g" d="M3.6,1.731A1.766,1.766,0,0,1,1.8,3.462,1.766,1.766,0,0,1,0,1.731,1.766,1.766,0,0,1,1.8,0,1.766,1.766,0,0,1,3.6,1.731" transform="translate(2.4 10.769)"/><path class="g" d="M3.6,1.731A1.766,1.766,0,0,1,1.8,3.462,1.766,1.766,0,0,1,0,1.731,1.766,1.766,0,0,1,1.8,0,1.766,1.766,0,0,1,3.6,1.731" transform="translate(6.8 16.154)"/><g transform="translate(11.2)"><path class="a" d="M0,0H24.953V21.188H0Z" transform="translate(0.009 0.156)"/><g class="h"><path class="i" d="M22.528,12.689a4.31,4.31,0,0,0,1.2-5.991,4.65,4.65,0,0,0-6.237-.91A6.931,6.931,0,0,0,12.081.131a7.165,7.165,0,0,0-7.3,3.075A5.889,5.889,0,0,0,0,1.719a4.811,4.811,0,0,1,4.015,4.8,4.568,4.568,0,0,1,3.7-.789A3.238,3.238,0,0,1,10.077,8.6,3.194,3.194,0,0,1,13.8,9.772a4.086,4.086,0,0,1-.161,3.91,3.067,3.067,0,0,1,.408,4.126,3.134,3.134,0,0,1-1.92,1.061c.085.053.168.109.259.153,1.168.575,2.914.805,3.916-.012a4.247,4.247,0,0,0,4.6,2.128,4.738,4.738,0,0,0,3.983-3.652,4.6,4.6,0,0,0-2.352-4.8" transform="translate(0.009 0.156)"/></g></g><path class="j" d="M0,4.713,6.5,0,7.6,1.266.766,8.077Z" transform="translate(21.6 16.923)"/><path class="b" d="M2.532,6.538C2.614,6.548,0,3.363,0,3.363l3.19-.985S2.507.964,2.82.713,3.892,1.759,3.892,1.759,4.654,0,5.179,0s-.243,1.827-.243,1.827S6.42.915,6.761,1.322,5.369,2.647,5.369,2.647s1.8-.245,1.831.226S4.182,3.5,4.182,3.5Z" transform="translate(26 13.846)"/><path class="j" d="M7.6,4.713,1.1,0,0,1.266,6.834,8.077Z" transform="translate(8 16.923)"/><path class="b" d="M4.668,6.538C4.586,6.548,7.2,3.364,7.2,3.364L4.01,2.378S4.693.964,4.38.713,3.308,1.759,3.308,1.759,2.546,0,2.021,0s.243,1.827.243,1.827S.78.915.439,1.322,1.831,2.647,1.831,2.647.035,2.4,0,2.874,3.018,3.5,3.018,3.5Z" transform="translate(4 13.846)"/><path class="j" d="M0,12.055c.769.2,1.734.489,2.362.638a7.883,7.883,0,0,1,2.465-2.586A3.441,3.441,0,0,1,6.4,9.614a3.57,3.57,0,0,1,1.8.635,8.248,8.248,0,0,1,2.237,2.443c.784-.186,1.57-.369,2.368-.542-.064-.868-.2-1.851-.372-2.876-.111-.653-.238-1.322-.377-1.988-.049-.247-.1-.494-.154-.739-.045-.205-.09-.411-.133-.613C11.053,2.756,10.258,0,10.258,0H2.535S1.8,2.553,1.113,5.578c-.053.234-.107.47-.158.709s-.107.5-.161.749c-.12.57-.233,1.146-.336,1.713C.246,9.923.079,11.062,0,12.055" transform="translate(12.4 26.154)"/><path class="k" d="M2.8,1.346A1.374,1.374,0,0,1,1.4,2.692,1.374,1.374,0,0,1,0,1.346,1.374,1.374,0,0,1,1.4,0,1.374,1.374,0,0,1,2.8,1.346" transform="translate(10.8 8.462)"/><path class="k" d="M2.8,1.346A1.374,1.374,0,0,1,1.4,2.692,1.374,1.374,0,0,1,0,1.346,1.374,1.374,0,0,1,1.4,0,1.374,1.374,0,0,1,2.8,1.346" transform="translate(23.6 8.462)"/><path class="l" d="M0,.7A3.125,3.125,0,0,0,1.9,2.858a3.034,3.034,0,0,0,.378.12,3.263,3.263,0,0,0,2.61-.439,2.578,2.578,0,0,0,.943-1.227,2.474,2.474,0,0,0,.083-.281c.048-.21.157-.7.015-.9C5.744-.117,5.344.055,5.056.1,4.628.166.033.847,0,.7" transform="translate(16.8 15.769)"/><path class="m" d="M0,1.823a3.325,3.325,0,0,0,2.644-.442A2.594,2.594,0,0,0,3.6.147,3.916,3.916,0,0,0,1.58.119,2.12,2.12,0,0,0,.124,1.165,1.566,1.566,0,0,0,0,1.823" transform="translate(18.8 16.923)"/><path class="b" d="M2.294,1.668,4.4,2.692H.8A15.327,15.327,0,0,0,0,.889C.746.674,1.995.2,2.754,0a11.732,11.732,0,0,0-.461,1.668" transform="translate(22.4 37.308)"/><path class="b" d="M2.106,1.668,0,2.692H3.6a15.307,15.307,0,0,1,.8-1.8C3.654.674,2.405.2,1.646,0a11.7,11.7,0,0,1,.461,1.668" transform="translate(10.4 37.308)"/></g></svg>