<svg xmlns="http://www.w3.org/2000/svg" viewBox="0 0 124.92 200.4"><defs><style>.cls-1{fill:#056939;}.cls-2{fill:#f9b041;}.cls-3{fill:#5a8e38;}.cls-4{fill:#fef6b7;}.cls-5{fill:#deba2b;}.cls-6{fill:#e9c22f;}.cls-7{fill:#ffdd3a;}.cls-8{fill:#318138;}.cls-9{fill:#619e3d;}.cls-10{fill:#73aa43;}.cls-11{fill:#fff;}.cls-12{fill:#912a2a;}.cls-13{fill:#da6aa6;}</style></defs><title>Middel 14</title><g id="Laag_2" data-name="Laag 2"><g id="Laag_4" data-name="Laag 4"><polygon class="cls-1" points="35.84 120.05 7.34 128.2 23.63 150.08 28.88 143.53 20.06 133.5 35.84 133.23 35.84 120.05"/><path class="cls-2" d="M28.06,140l-9.68,11.25,8.42,1.7-1.56,3.29s-3.31-1.8-3.65-.74a1.87,1.87,0,0,0,.51,2.23s-1,3,2.54,2.86A12.63,12.63,0,0,0,30.49,159l1.86-9.69Z"/><polygon class="cls-1" points="89.76 120.05 118.26 128.2 101.97 150.08 96.72 143.53 105.54 133.5 89.76 133.23 89.76 120.05"/><path class="cls-2" d="M97.54,140l9.68,11.25-8.42,1.7,1.55,3.29s3.32-1.8,3.66-.74a1.87,1.87,0,0,1-.51,2.23s1,3-2.54,2.86A12.63,12.63,0,0,1,95.11,159l-1.86-9.69Z"/><path class="cls-3" d="M74.83,164.75c4.28,3.3,11.18,9.63,14,19a29.5,29.5,0,0,1,1.25,7.15l-14.79,1s-3.94-21.25-8.37-23.2S74.83,164.75,74.83,164.75Z"/><path class="cls-3" d="M48.09,164.77c-4.29,3.3-11.18,9.63-14,19a29.52,29.52,0,0,0-1.24,7.16l14.79.95s3.94-21.25,8.37-23.2S48.09,164.77,48.09,164.77Z"/><path class="cls-4" d="M60.28,0C41.89.45,24.55,161.59,64.22,160.61S78.68-.45,60.28,0Z"/><path class="cls-5" d="M64,160.61c8-.2,14-4.56,18.19-11.72H71C69.45,156.15,67.18,160.53,64,160.61Z"/><path class="cls-6" d="M56.35,148.89H44.67c4.61,7.5,10.94,11.93,19.33,11.72C60.76,160.69,58.25,156.28,56.35,148.89Z"/><path class="cls-5" d="M73.4,27.9A3.61,3.61,0,0,0,76.79,23c-.41-1.11-.82-2.18-1.24-3.22a3.59,3.59,0,0,0-3.34-2.23H70.26a3.6,3.6,0,0,0-3.56,4.2c.16,1,.32,2,.48,3.05a3.62,3.62,0,0,0,3.57,3.06Z"/><path class="cls-5" d="M83.46,103.63H80.8a7.18,7.18,0,0,0-7.14,7.2c0,.89,0,1.78,0,2.66a7.18,7.18,0,0,0,7.16,7.2h2.54a7.18,7.18,0,0,0,7.15-6.85c0-.91.09-1.82.12-2.74A7.17,7.17,0,0,0,83.46,103.63Z"/><path class="cls-5" d="M76,53.53h2a5.88,5.88,0,0,0,5.7-7.24c-.16-.68-.32-1.36-.49-2a5.86,5.86,0,0,0-5.7-4.48H75.76a5.87,5.87,0,0,0-5.83,6.5l.21,2A5.87,5.87,0,0,0,76,53.53Z"/><path class="cls-5" d="M79,69.14a6.6,6.6,0,0,0-6.59,7l.18,3a6.59,6.59,0,0,0,6.59,6.21h3.34a6.64,6.64,0,0,0,6.58-7.38c-.12-1-.23-2-.36-3a6.62,6.62,0,0,0-6.56-5.84Z"/><path class="cls-5" d="M71,148.89h11.2a50.52,50.52,0,0,0,5-12.6H72.74A108.31,108.31,0,0,1,71,148.89Z"/><path class="cls-5" d="M75.89,39.78a4.65,4.65,0,0,0,4.48-6c-.27-.89-.53-1.77-.81-2.64a4.64,4.64,0,0,0-4.45-3.29H73a4.66,4.66,0,0,0-4.62,5.27c.11.83.22,1.68.33,2.54a4.65,4.65,0,0,0,4.62,4.07Z"/><path class="cls-5" d="M78.09,69.14h2.14a6.6,6.6,0,0,0,6.52-7.71c-.15-.83-.29-1.66-.45-2.49a6.6,6.6,0,0,0-6.5-5.41H77.89a6.59,6.59,0,0,0-6.58,7.15c.06.8.13,1.6.2,2.4A6.59,6.59,0,0,0,78.09,69.14Z"/><path class="cls-5" d="M80.43,85.32a7.16,7.16,0,0,0-7.15,7.43c0,1.32.09,2.63.13,3.94a7.16,7.16,0,0,0,7.16,6.94h2.84a7.14,7.14,0,0,0,7.16-7.43c-.06-1.37-.13-2.75-.21-4.13a7.17,7.17,0,0,0-7.16-6.75Z"/><path class="cls-5" d="M81.77,120.69h-1.3a7.13,7.13,0,0,0-7.14,6.79c0,.43,0,.87-.07,1.3a7.15,7.15,0,0,0,7.15,7.51h1.12a7.17,7.17,0,0,0,7-5.82q.14-.65.24-1.29A7.18,7.18,0,0,0,81.77,120.69Z"/><path class="cls-6" d="M54,136.29H39.21a54.34,54.34,0,0,0,5.46,12.6H56.35A111.12,111.12,0,0,1,54,136.29Z"/><path class="cls-6" d="M51,17.59H49.15A3.58,3.58,0,0,0,45.76,20c-.37,1.05-.73,2.12-1.09,3.23a3.62,3.62,0,0,0,3.45,4.71h2.5a3.62,3.62,0,0,0,3.59-3.23c.11-1.05.22-2.07.34-3.06A3.6,3.6,0,0,0,51,17.59Z"/><path class="cls-6" d="M46.66,39.78h-1.6a5.87,5.87,0,0,0-5.76,4.74c-.13.7-.27,1.4-.4,2.11a5.85,5.85,0,0,0,5.77,6.9h1.87A5.87,5.87,0,0,0,52.39,48l.12-2A5.87,5.87,0,0,0,46.66,39.78Z"/><path class="cls-6" d="M41.5,85.32h3.29a6.6,6.6,0,0,0,6.6-6.53c0-1,0-2,0-3a6.61,6.61,0,0,0-6.61-6.69h-3.1a6.62,6.62,0,0,0-6.6,6.13c-.08,1-.15,2-.22,3A6.63,6.63,0,0,0,41.5,85.32Z"/><path class="cls-6" d="M44.71,103.66H42a7.1,7.1,0,0,0-7.14,7.77c.08,1,.16,1.91.25,2.85a7.13,7.13,0,0,0,7.12,6.41h2.6A7.16,7.16,0,0,0,52,113.15l-.12-2.63A7.17,7.17,0,0,0,44.71,103.66Z"/><path class="cls-6" d="M48.79,27.9h-2a4.66,4.66,0,0,0-4.51,3.49c-.23.87-.45,1.75-.67,2.64a4.65,4.65,0,0,0,4.53,5.75h2.43a4.66,4.66,0,0,0,4.64-4.3l.21-2.54A4.65,4.65,0,0,0,48.79,27.9Z"/><path class="cls-6" d="M43.09,69.14h2a6.61,6.61,0,0,0,6.6-6.38c0-.8.06-1.6.08-2.4a6.58,6.58,0,0,0-6.59-6.83H43.41a6.61,6.61,0,0,0-6.55,5.7l-.33,2.49A6.6,6.6,0,0,0,43.09,69.14Z"/><path class="cls-6" d="M44.29,103.66a7.15,7.15,0,0,0,7.15-7.28c0-1.32,0-2.64,0-4a7.2,7.2,0,0,0-7.16-7.09H41.48a7.17,7.17,0,0,0-7.17,7.06c0,1.4,0,2.79,0,4.17a7.17,7.17,0,0,0,7.18,7.12Z"/><path class="cls-6" d="M45.87,120.69H44.42a7.17,7.17,0,0,0-7,8.74c.09.43.19.86.29,1.29a7.16,7.16,0,0,0,7,5.57H46a7.15,7.15,0,0,0,7.12-7.85L53,127.21A7.15,7.15,0,0,0,45.87,120.69Z"/><path class="cls-7" d="M71,148.89H56.35c1.9,7.39,4.41,11.8,7.65,11.72S69.45,156.15,71,148.89Z"/><path class="cls-7" d="M58.22,27.9h4.86A3.92,3.92,0,0,0,67,23.36c-.13-.86-.27-1.69-.41-2.51a3.91,3.91,0,0,0-3.86-3.26H58.51A3.92,3.92,0,0,0,54.61,21c-.09.81-.19,1.65-.28,2.51A3.93,3.93,0,0,0,58.22,27.9Z"/><path class="cls-7" d="M56.35,148.89H71a108.31,108.31,0,0,0,1.75-12.6H54A111.12,111.12,0,0,0,56.35,148.89Z"/><path class="cls-7" d="M57.59,53.53h7.32a5.22,5.22,0,0,0,5.18-5.75l-.36-3.36a5.21,5.21,0,0,0-5.18-4.64H57.79a5.2,5.2,0,0,0-5.2,4.89c-.07,1.11-.14,2.23-.2,3.36A5.22,5.22,0,0,0,57.59,53.53Z"/><path class="cls-7" d="M57.18,85.32h9.66a5.81,5.81,0,0,0,5.79-6.15c-.09-1.53-.18-3.06-.28-4.59a5.8,5.8,0,0,0-5.79-5.44H57.24a5.8,5.8,0,0,0-5.8,5.72l-.06,4.59A5.81,5.81,0,0,0,57.18,85.32Z"/><path class="cls-7" d="M67.85,103.64H57.62a5.81,5.81,0,0,0-5.79,6.06c.08,1.86.17,3.7.27,5.51a5.81,5.81,0,0,0,5.79,5.47h10a5.8,5.8,0,0,0,5.8-5.75q0-2.72,0-5.52A5.81,5.81,0,0,0,67.85,103.64Z"/><path class="cls-7" d="M57.73,39.78h6.41a4.47,4.47,0,0,0,4.43-5c-.12-1-.26-2-.39-3a4.46,4.46,0,0,0-4.43-3.87H58A4.47,4.47,0,0,0,53.51,32c-.08,1-.16,2-.24,3A4.48,4.48,0,0,0,57.73,39.78Z"/><path class="cls-7" d="M67.57,120.69H58.73A5.79,5.79,0,0,0,53,127q.2,2.13.42,4.17a5.78,5.78,0,0,0,5.76,5.13h8.22a5.77,5.77,0,0,0,5.78-5.4c.09-1.36.16-2.75.22-4.17A5.79,5.79,0,0,0,67.57,120.69Z"/><path class="cls-7" d="M57.52,69.14h8.19a5.82,5.82,0,0,0,5.78-6.29c-.11-1.34-.23-2.68-.34-4a5.81,5.81,0,0,0-5.78-5.31H57.66a5.8,5.8,0,0,0-5.79,5.58c0,1.34-.1,2.68-.14,4A5.81,5.81,0,0,0,57.52,69.14Z"/><path class="cls-7" d="M57.27,103.65H67.65a5.79,5.79,0,0,0,5.79-6q-.09-3.37-.23-6.79a5.8,5.8,0,0,0-5.79-5.57H57.17a5.79,5.79,0,0,0-5.79,5.85c0,2.28,0,4.55.09,6.8A5.79,5.79,0,0,0,57.27,103.65Z"/><path class="cls-8" d="M72,162.07l-10-7.32-10,7.32.89,15.62a13.5,13.5,0,0,1,2.6,5.65,6.06,6.06,0,0,0,5.21,5,9.88,9.88,0,0,0,1.31.1h.09a6,6,0,0,0,5.73-5,13.41,13.41,0,0,1,2.61-5.7Z"/><path class="cls-9" d="M70.44,177.69s-10.6-6.66-10.6-25.41,18.67-86.93,65.08-69c-21,5.91-30.1,10.41-30.1,40.81S92.38,167.08,70.44,177.69Z"/><path class="cls-10" d="M52.89,177.69S65.08,171,65.08,152.28,46.41,65.35,0,83.29C21,89.2,30.09,93.7,30.09,124.1S36.47,168.94,52.89,177.69Z"/><path class="cls-1" d="M34,194.1,18.78,200h26a80.49,80.49,0,0,1,5.78-10.41c-5.39-1.23-14.4-4-19.89-5.12C32.13,189.28,33.94,191.64,34,194.1Z"/><path class="cls-1" d="M89.06,194.41l15.2,6h-26a81.71,81.71,0,0,0-5.78-10.54c5.38-1.25,14.4-4,19.88-5.19C90.91,189.53,89.1,191.93,89.06,194.41Z"/><path class="cls-1" d="M66.09,79.05l-3.7,8.48-7-6-50.8,9.2S13.86,120.3,41,114c20.39-4.72,22.34-17.65,22.16-23.36,2.34,5.21,9.78,16,30.17,11.25C120.39,95.65,115.77,65,115.77,65Z"/><path class="cls-11" d="M86.43,85.22a6.83,6.83,0,0,0-5.11,8.19l13.31-3.08A6.83,6.83,0,0,0,86.43,85.22Z"/><path class="cls-11" d="M37.38,96.57a6.83,6.83,0,0,0-5.12,8.19l13.31-3.08A6.83,6.83,0,0,0,37.38,96.57Z"/><path class="cls-12" d="M76.4,111.06A13.62,13.62,0,0,1,71,122.21a11.47,11.47,0,0,1-1.38.87,12.39,12.39,0,0,1-10.82.49,11.89,11.89,0,0,1-5.6-5.62c-.4-.87-1.33-2.92-1-3.9.48-1.25,2.25-.87,3.44-1C57.47,113,76.42,111.74,76.4,111.06Z"/><path class="cls-13" d="M69.64,123.08a12.39,12.39,0,0,1-10.82.49,11.36,11.36,0,0,1-5-4.48,14.38,14.38,0,0,1,7.9-2c2.58.12,5.27,1.08,6.76,3.2A7.53,7.53,0,0,1,69.64,123.08Z"/></g></g></svg>