<svg xmlns="http://www.w3.org/2000/svg" xmlns:xlink="http://www.w3.org/1999/xlink" width="24.694" height="39.615" viewBox="0 0 24.694 39.615"><defs><style>.a{fill:none;}.b{fill:#056839;}.c{fill:#f8af41;}.d{fill:#5a8d37;}.e{clip-path:url(#a);}.f{fill:#fdf5b7;}.g{fill:#ddb92b;}.h{fill:#e8c22f;}.i{fill:#fedc3a;}.j{fill:#318038;}.k{fill:#609d3d;}.l{clip-path:url(#b);}.m{fill:#72a943;}.n{clip-path:url(#c);}.o{fill:#fefefe;}.p{fill:#912a2a;}.q{fill:#da6aa5;}</style><clipPath id="a"><path class="a" d="M0,0H8.913V31.751H0Z" transform="translate(0.152 0.18)"/></clipPath><clipPath id="b"><path class="a" d="M0,0H12.865V19.251H0Z" transform="translate(0 0.055)"/></clipPath><clipPath id="c"><path class="a" d="M0,0H6.279V3.109H0Z" transform="translate(0.178 0.173)"/></clipPath></defs><g transform="translate(0 -0.205)"><path class="b" d="M5.635,0,0,1.611,3.22,5.936,4.259,4.641,2.514,2.658l3.121-.053Z" transform="translate(1.451 23.937)"/><g transform="translate(0 0.025)"><path class="c" d="M1.913,0,0,2.224l1.663.336-.306.65S.7,2.853.634,3.063a.368.368,0,0,0,.1.44s-.189.587.5.567a2.508,2.508,0,0,0,1.155-.309l.369-1.917Z" transform="translate(3.634 27.852)"/><path class="b" d="M0,0,5.635,1.611,2.415,5.936,1.376,4.641,3.121,2.658,0,2.606Z" transform="translate(17.743 23.912)"/><path class="c" d="M.849,0,2.762,2.224,1.1,2.56l.306.65s.655-.357.722-.147a.368.368,0,0,1-.1.44s.189.587-.5.567A2.509,2.509,0,0,1,.369,3.762L0,1.845Z" transform="translate(18.433 27.852)"/><path class="d" d="M1.75,0A7.762,7.762,0,0,1,4.522,3.756,5.852,5.852,0,0,1,4.768,5.17l-2.923.189S1.066,1.158.19.773,1.75,0,1.75,0" transform="translate(13.042 32.748)"/><path class="d" d="M3.018,0A7.762,7.762,0,0,0,.246,3.756,5.85,5.85,0,0,0,0,5.17l2.923.189S3.7,1.158,4.578.773,3.018,0,3.018,0" transform="translate(6.488 32.753)"/><g transform="translate(7.795)"><path class="a" d="M0,0H8.913V31.751H0Z" transform="translate(0.152 0.18)"/><g class="e"><path class="f" d="M3.97,0C.333.09-3.093,31.943,4.749,31.75S7.607-.089,3.97,0" transform="translate(0.152 0.18)"/></g></g><path class="g" d="M0,2.316A4.187,4.187,0,0,0,3.6,0H1.382C1.077,1.433.629,2.3,0,2.316" transform="translate(12.651 29.614)"/><path class="h" d="M2.309,0H0A4.255,4.255,0,0,0,3.821,2.316C3.181,2.332,2.685,1.459,2.309,0" transform="translate(8.831 29.614)"/><path class="g" d="M1.334,2.038a.715.715,0,0,0,.671-.961Q1.884.75,1.759.44A.709.709,0,0,0,1.1,0H.714a.713.713,0,0,0-.7.83q.048.294.1.6a.714.714,0,0,0,.706.6Z" transform="translate(13.175 3.657)"/><path class="g" d="M1.939,0H1.413A1.42,1.42,0,0,0,0,1.423q0,.266,0,.527A1.416,1.416,0,0,0,1.414,3.373h.5A1.42,1.42,0,0,0,3.331,2.019q.014-.269.024-.542A1.42,1.42,0,0,0,1.939,0" transform="translate(14.56 20.665)"/><path class="g" d="M1.2,2.717h.393A1.161,1.161,0,0,0,2.721,1.286q-.047-.2-.1-.4A1.159,1.159,0,0,0,1.5,0H1.159A1.159,1.159,0,0,0,.007,1.285q.021.194.041.392A1.16,1.16,0,0,0,1.2,2.717" transform="translate(13.817 8.044)"/><path class="g" d="M1.306,0A1.3,1.3,0,0,0,0,1.385q.018.293.035.586A1.3,1.3,0,0,0,1.341,3.2H2A1.309,1.309,0,0,0,3.3,1.741q-.034-.293-.07-.586A1.312,1.312,0,0,0,1.934,0Z" transform="translate(14.319 13.847)"/><path class="g" d="M0,2.491H2.215A10.074,10.074,0,0,0,3.214,0H.348A21.251,21.251,0,0,1,0,2.491" transform="translate(14.033 27.122)"/><path class="g" d="M1.5,2.35A.92.92,0,0,0,2.38,1.173Q2.3.908,2.221.65A.923.923,0,0,0,1.34,0H.92A.92.92,0,0,0,.008,1.042q.033.248.065.5a.922.922,0,0,0,.913.806Z" transform="translate(13.507 5.695)"/><path class="g" d="M1.345,3.085h.424A1.3,1.3,0,0,0,3.058,1.562q-.043-.247-.089-.492A1.307,1.307,0,0,0,1.683,0H1.305A1.3,1.3,0,0,0,0,1.414q.02.236.039.474a1.305,1.305,0,0,0,1.3,1.2" transform="translate(14.091 10.762)"/><path class="g" d="M1.414,0A1.416,1.416,0,0,0,0,1.47q.014.391.026.778A1.414,1.414,0,0,0,1.442,3.62H2A1.408,1.408,0,0,0,3.418,2.152q-.017-.407-.04-.817A1.418,1.418,0,0,0,1.963,0Z" transform="translate(14.485 17.046)"/><path class="g" d="M1.685,0H1.428A1.413,1.413,0,0,0,.014,1.343Q.009,1.472,0,1.6A1.412,1.412,0,0,0,1.414,3.085h.222A1.418,1.418,0,0,0,3.029,1.934q.024-.127.047-.256A1.42,1.42,0,0,0,1.685,0" transform="translate(14.481 24.037)"/><path class="h" d="M2.924,0H0A10.7,10.7,0,0,0,1.079,2.491H3.388A21.962,21.962,0,0,1,2.924,0" transform="translate(7.751 27.123)"/><path class="h" d="M1.277,0H.92A.709.709,0,0,0,.248.469Q.14.778.034,1.106a.715.715,0,0,0,.682.932h.493a.715.715,0,0,0,.71-.639q.033-.31.067-.6A.712.712,0,0,0,1.277,0" transform="translate(8.797 3.657)"/><path class="h" d="M1.553,0H1.238A1.159,1.159,0,0,0,.1.936q-.041.207-.08.417A1.157,1.157,0,0,0,1.161,2.717h.37a1.16,1.16,0,0,0,1.157-1.1q.011-.2.022-.392A1.159,1.159,0,0,0,1.553,0" transform="translate(7.67 8.044)"/><path class="h" d="M1.308,3.2h.649a1.3,1.3,0,0,0,1.305-1.29q0-.293.007-.586A1.3,1.3,0,0,0,1.965,0H1.351a1.311,1.311,0,0,0-1.3,1.212Q.023,1.5,0,1.8A1.31,1.31,0,0,0,1.308,3.2" transform="translate(6.896 13.847)"/><path class="h" d="M1.948,0H1.415A1.4,1.4,0,0,0,0,1.536q.022.284.049.563A1.41,1.41,0,0,0,1.462,3.365h.513a1.415,1.415,0,0,0,1.413-1.49q-.013-.258-.025-.52A1.417,1.417,0,0,0,1.948,0" transform="translate(6.891 20.672)"/><path class="h" d="M1.445,0H1.052A.922.922,0,0,0,.16.689Q.093.947.027,1.212a.92.92,0,0,0,.9,1.137H1.4a.922.922,0,0,0,.917-.85q.02-.254.041-.5a.92.92,0,0,0-.917-1" transform="translate(8.2 5.695)"/><path class="h" d="M1.308,3.085h.406a1.306,1.306,0,0,0,1.3-1.261q.008-.238.017-.474A1.3,1.3,0,0,0,1.73,0H1.372a1.306,1.306,0,0,0-1.3,1.127q-.034.245-.066.492a1.3,1.3,0,0,0,1.3,1.466" transform="translate(7.21 10.762)"/><path class="h" d="M1.978,3.626A1.414,1.414,0,0,0,3.391,2.187Q3.384,1.8,3.38,1.4A1.422,1.422,0,0,0,1.966,0H1.422A1.418,1.418,0,0,0,0,1.4Q0,1.81,0,2.221A1.416,1.416,0,0,0,1.419,3.627Z" transform="translate(6.778 17.046)"/><path class="h" d="M1.7,0H1.415A1.42,1.42,0,0,0,.034,1.728q.028.129.057.255a1.419,1.419,0,0,0,1.382,1.1h.25A1.413,1.413,0,0,0,3.13,1.533q-.012-.121-.023-.243A1.415,1.415,0,0,0,1.7,0" transform="translate(7.367 24.037)"/><path class="i" d="M2.893,0H0C.376,1.459.873,2.332,1.512,2.316S2.589,1.433,2.893,0" transform="translate(11.139 29.614)"/><path class="i" d="M.775,2.038h.96a.776.776,0,0,0,.765-.9q-.04-.254-.081-.5A.773.773,0,0,0,1.655,0H.831A.772.772,0,0,0,.061.681Q.032.924,0,1.178a.777.777,0,0,0,.77.86" transform="translate(10.735 3.657)"/><path class="i" d="M.464,2.491H3.357A21.208,21.208,0,0,0,3.7,0H0A21.953,21.953,0,0,0,.464,2.491" transform="translate(10.676 27.122)"/><path class="i" d="M1.03,2.717H2.475A1.031,1.031,0,0,0,3.5,1.58q-.035-.335-.071-.664A1.028,1.028,0,0,0,2.4,0H1.068A1.028,1.028,0,0,0,.04.965Q.02,1.294,0,1.63A1.031,1.031,0,0,0,1.03,2.717" transform="translate(10.355 8.044)"/><path class="i" d="M1.145,3.2H3.056A1.147,1.147,0,0,0,4.2,1.984q-.026-.454-.056-.908A1.147,1.147,0,0,0,3,0H1.157A1.147,1.147,0,0,0,.012,1.131Q0,1.585,0,2.039A1.147,1.147,0,0,0,1.145,3.2" transform="translate(10.158 13.847)"/><path class="i" d="M3.166,0,1.145,0A1.148,1.148,0,0,0,0,1.2q.024.552.054,1.089A1.145,1.145,0,0,0,1.2,3.37H3.167A1.145,1.145,0,0,0,4.313,2.234q0-.538,0-1.091A1.148,1.148,0,0,0,3.166,0" transform="translate(10.246 20.668)"/><path class="i" d="M.884,2.35H2.152a.886.886,0,0,0,.877-1q-.038-.3-.077-.587A.883.883,0,0,0,2.075,0H.932A.883.883,0,0,0,.051.807Q.026,1.1,0,1.394a.886.886,0,0,0,.882.956" transform="translate(10.527 5.695)"/><path class="i" d="M2.893,0H1.146A1.144,1.144,0,0,0,0,1.245q.039.422.083.825A1.142,1.142,0,0,0,1.226,3.085H2.851A1.142,1.142,0,0,0,3.995,2.016q.024-.4.043-.824A1.145,1.145,0,0,0,2.893,0" transform="translate(10.464 24.037)"/><path class="i" d="M1.146,3.085H2.765A1.147,1.147,0,0,0,3.907,1.843q-.033-.4-.067-.794A1.147,1.147,0,0,0,2.7,0H1.174A1.146,1.146,0,0,0,.029,1.1Q.014,1.5,0,1.9A1.148,1.148,0,0,0,1.146,3.085" transform="translate(10.225 10.762)"/><path class="i" d="M1.166,3.624l2.052,0A1.145,1.145,0,0,0,4.362,2.443Q4.343,1.778,4.316,1.1A1.147,1.147,0,0,0,3.171,0H1.146A1.147,1.147,0,0,0,0,1.158Q.006,1.833.019,2.5A1.146,1.146,0,0,0,1.166,3.624" transform="translate(10.156 17.046)"/><path class="j" d="M3.957,1.447,1.978,0,0,1.447.175,4.535A2.664,2.664,0,0,1,.69,5.651a1.2,1.2,0,0,0,1.029.985,1.956,1.956,0,0,0,.259.019H2a1.177,1.177,0,0,0,1.133-.994,2.66,2.66,0,0,1,.516-1.126Z" transform="translate(10.28 30.772)"/><path class="k" d="M2.1,19.251S0,17.935,0,14.227,3.691-2.958,12.865.589C8.708,1.758,6.916,2.647,6.916,8.656s-.483,8.5-4.82,10.595" transform="translate(11.829 16.055)"/><g transform="translate(0 16)"><path class="a" d="M0,0H12.865V19.251H0Z" transform="translate(0 0.055)"/><g class="l"><path class="m" d="M10.455,19.251s2.41-1.317,2.41-5.024S9.174-2.958,0,.589C4.157,1.758,5.949,2.647,5.949,8.656s1.262,8.865,4.506,10.595" transform="translate(0 0.055)"/></g></g><path class="b" d="M3.006,1.9,0,3.07H5.136A15.861,15.861,0,0,1,6.279,1.013C5.215.769,3.433.23,2.349,0a11.291,11.291,0,0,1,.657,1.9" transform="translate(3.713 36.648)"/><g transform="translate(14.154 36.513)"><path class="a" d="M0,0H6.279V3.109H0Z" transform="translate(0.178 0.173)"/><g class="n"><path class="b" d="M3.273,1.926,6.279,3.109H1.143A16.114,16.114,0,0,0,0,1.026C1.065.779,2.847.233,3.93,0a11.55,11.55,0,0,0-.657,1.926" transform="translate(0.178 0.173)"/></g></g><path class="b" d="M12.166,2.776l-.731,1.677L10.042,3.268,0,5.088s1.841,5.843,7.2,4.6c4.032-.933,4.417-3.489,4.381-4.617C12.042,6.1,13.511,8.23,17.543,7.3,22.9,6.058,21.987,0,21.987,0Z" transform="translate(0.899 13.03)"/><path class="o" d="M1.046.035A1.35,1.35,0,0,0,.035,1.655l2.631-.609A1.351,1.351,0,0,0,1.046.035" transform="translate(16.04 16.991)"/><path class="o" d="M1.046.035A1.351,1.351,0,0,0,.035,1.655l2.631-.609A1.351,1.351,0,0,0,1.046.035" transform="translate(6.343 19.234)"/><path class="p" d="M4.79,0A2.7,2.7,0,0,1,3.727,2.2a2.28,2.28,0,0,1-.273.172,2.444,2.444,0,0,1-2.139.1,2.262,2.262,0,0,1-.986-.884,2.261,2.261,0,0,1-.121-.227C.128,1.189-.056.783.017.591.113.343.461.417.7.4A38.109,38.109,0,0,0,4.79,0" transform="translate(10.314 22.135)"/><path class="q" d="M3.125,1.177a2.445,2.445,0,0,1-2.139.1A2.263,2.263,0,0,1,0,.39,2.839,2.839,0,0,1,1.562,0,1.709,1.709,0,0,1,2.9.636a1.5,1.5,0,0,1,.226.541" transform="translate(10.642 23.333)"/></g></g></svg>