<svg xmlns="http://www.w3.org/2000/svg" xmlns:xlink="http://www.w3.org/1999/xlink" width="28.424" height="49.43" viewBox="0 0 28.424 49.43"><defs><style>.a{fill:none;}.b{fill:#056839;}.c{fill:#f8af41;}.d{fill:#11a651;}.e{clip-path:url(#a);}.f{fill:#08873e;}.g{fill:#057c39;}.h{clip-path:url(#b);}.i{fill:#31a444;}.j{fill:#dc223c;}.k{fill:#e15b56;}.l{fill:#c91d36;}.m{fill:#fefefe;}.n{fill:#912a2a;}.o{fill:#da6aa5;}.p{fill:#e29f70;}.q{clip-path:url(#c);}.r{clip-path:url(#d);}</style><clipPath id="a"><path class="a" d="M0,0H10.636V17.261H0Z" transform="translate(0.038 0.118)"/></clipPath><clipPath id="b"><path class="a" d="M0,0H13.265V14.989H0Z" transform="translate(0.001 0.105)"/></clipPath><clipPath id="c"><path class="a" d="M0,0H5.558V2.722H0Z" transform="translate(0.179 0.219)"/></clipPath><clipPath id="d"><path class="a" d="M0,0H5.558V2.722H0Z" transform="translate(0.049 0.219)"/></clipPath></defs><g transform="translate(0 -0.226)"><path class="b" d="M0,1.777l3.552,4.77L4.7,5.119,2.773,2.932l3.442-.059V0Z" transform="translate(0 34.545)"/><g transform="translate(0.679 0.108)"><path class="c" d="M2.11,0,0,2.453l1.834.37L1.5,3.54S.774,3.147.7,3.379a.406.406,0,0,0,.11.486s-.208.648.555.625a2.771,2.771,0,0,0,1.274-.34l.407-2.114Z" transform="translate(1.729 38.782)"/><path class="b" d="M0,0,6.215,1.777,2.663,6.547,1.518,5.119,3.442,2.932,0,2.874Z" transform="translate(18.196 34.436)"/><path class="c" d="M.936,0l2.11,2.453-1.834.37.338.717s.722-.393.8-.162a.406.406,0,0,1-.11.486s.208.648-.555.625a2.771,2.771,0,0,1-1.274-.34L0,2.035Z" transform="translate(18.957 38.782)"/><path class="d" d="M16.427,14.142c-.986.233-2.226.573-3.031.748a9.663,9.663,0,0,0-3.163-3.034,4.705,4.705,0,0,0-2.014-.577,4.867,4.867,0,0,0-2.308.744A10.057,10.057,0,0,0,3.039,14.89c-1.006-.218-2.014-.433-3.039-.636a33.479,33.479,0,0,1,.478-3.374c.143-.766.305-1.551.484-2.332.063-.29.129-.579.2-.867.057-.241.115-.482.17-.719C2.242,3.234,3.262,0,3.262,0h9.912S14.119,2.995,15,6.543c.069.274.137.552.2.832s.137.585.206.879c.154.668.3,1.345.431,2.009a37.508,37.508,0,0,1,.588,3.879" transform="translate(3.737 33.159)"/><g transform="translate(7.014)"><path class="a" d="M0,0H10.636V17.261H0Z" transform="translate(0.038 0.118)"/><g class="e"><path class="f" d="M7.842,12.091A2.058,2.058,0,0,0,9.16,8.946a1.721,1.721,0,0,0,.41-3.155c1.113-.163,1.781-2.7-.205-3.1A2.065,2.065,0,0,0,8.577.282C6.971-.673,5.908,1.1,5.908,1.1A2.012,2.012,0,0,0,2.577,3.219c-2.763.075-2.7,3.439-1.194,3.766-2.523,1.632-1.055,3.648.172,3.953-2.093,1.824.366,2.914,1.172,3.748a3.9,3.9,0,0,1,.917,1.635c.551,1.443,1.873,1.12,2.156-.254.4-1.934,2.916-2.09,2.043-3.975" transform="translate(0.038 0.118)"/></g></g><path class="g" d="M2.648,0S-.253,5.225.018,21.631a23.431,23.431,0,0,0,.3,2.877.309.309,0,0,0,.615-.052c-.1-2.177-.1-9.864.158-12.857A92.878,92.878,0,0,1,2.648,0" transform="translate(11.125 3.896)"/><g transform="translate(14.48 7.692)"><path class="a" d="M0,0H13.265V14.989H0Z" transform="translate(0.001 0.105)"/><g class="h"><path class="i" d="M6.424,12.007A2.058,2.058,0,0,0,9.151,9.959,1.721,1.721,0,0,0,11.1,7.444c1.043.422,2.9-1.432,1.388-2.776a2.065,2.065,0,0,0,.54-2.48c-.9-1.636-2.718-.641-2.718-.641a2.012,2.012,0,0,0-3.944.141C3.943.357,2.3,3.293,3.431,4.335c-3,.133-2.754,2.614-1.85,3.5-2.728.516-1.157,2.7-.883,3.826a3.9,3.9,0,0,1-.035,1.875c-.254,1.524,1.05,1.913,1.988.87,1.321-1.467,3.572-.33,3.772-2.4" transform="translate(0.001 0.105)"/></g></g><path class="f" d="M11.953,0a44.09,44.09,0,0,0-10.7,14.139C.756,15.172.355,16.064.029,16.833a.316.316,0,0,0,.569.272c1.038-1.972,1.693-3.447,3.287-6.073A74.3,74.3,0,0,1,11.953,0" transform="translate(12.135 11.754)"/><path class="i" d="M4.838,10.914a1.842,1.842,0,0,1-2.062-2.25,1.54,1.54,0,0,1-1.3-2.534c-.987.2-2.318-1.738-.764-2.671A1.849,1.849,0,0,1,.645,1.189a1.772,1.772,0,0,1,2.5-.116,1.8,1.8,0,0,1,3.446.774C8.939,1.073,9.9,3.927,8.734,4.657c2.619.611,1.992,2.754,1.052,3.382,2.315.9.574,2.565.147,3.512a3.485,3.485,0,0,0-.279,1.655c-.028,1.382-1.239,1.51-1.893.438-.921-1.508-3.089-.878-2.924-2.73" transform="translate(0.113 8.605)"/><path class="f" d="M0,0A39.465,39.465,0,0,1,7.089,14.2c.264.99.47,1.842.63,2.572a.283.283,0,0,1-.546.146c-.588-1.906-.921-3.312-1.891-5.885A66.5,66.5,0,0,0,0,0" transform="translate(3.475 11.911)"/><path class="j" d="M.016,6.535a7.539,7.539,0,0,0,2.738,6.28c1.461,1.4,3.859,2.08,4.731,3.5A2.623,2.623,0,0,1,6.208,19.9a3.492,3.492,0,0,0,2.225-.976,7.742,7.742,0,0,0,1.608-2.109,6.119,6.119,0,0,1,2.4-2.242c2.1-1.377,2.663-1.347,4.1-2.938C18.732,9.212,20.341,0,8.707,0,2.754,0,.211,3.235.016,6.535" transform="translate(2.764 28.011)"/><path class="k" d="M3.9,1.948A1.948,1.948,0,1,1,1.948,0,1.948,1.948,0,0,1,3.9,1.948" transform="translate(6.292 31.684)"/><path class="l" d="M3.224,0c7.536,1.92,5.952,9.537,3.993,11.863C4.272,15.359.782,15.15,0,14.962A4.544,4.544,0,0,1,1.462,16.3,2.623,2.623,0,0,1,.185,19.883a3.492,3.492,0,0,0,2.225-.976A7.743,7.743,0,0,0,4.018,16.8a6.117,6.117,0,0,1,2.4-2.242c2.1-1.377,2.663-1.347,4.1-2.938C12.674,9.238,14.257.287,3.224,0" transform="translate(8.787 28.024)"/><path class="d" d="M1.781,1.239a3.388,3.388,0,0,0-1.159.726,2.242,2.242,0,0,0-.6,1.865A2.243,2.243,0,0,0,1.144,5.437a3.177,3.177,0,0,0,1.4.341c2.427.1,4.749-1.365,7.164-1.1a18.2,18.2,0,0,1,3.507,1.077,5.885,5.885,0,0,0,4.071.057,3.03,3.03,0,0,0,1.893-3.317A3.016,3.016,0,0,0,17.592.655a6.416,6.416,0,0,0-2.411-.6,15.112,15.112,0,0,0-3.6.122A21.121,21.121,0,0,1,8.669.846c-2.39,0-4.564-.569-6.888.392" transform="translate(2.155 30.999)"/><path class="m" d="M2.2,1.1A1.1,1.1,0,1,1,1.1,0,1.1,1.1,0,0,1,2.2,1.1" transform="translate(6.114 33.063)"/><path class="m" d="M0,1.258a1.258,1.258,0,1,1,2.515,0" transform="translate(14.929 33.362)"/><path class="n" d="M5.339.681a2.973,2.973,0,0,1-1.691,2.1,2.568,2.568,0,0,1-.336.117A2.7,2.7,0,0,1,.989,2.473a2.5,2.5,0,0,1-.839-1.2A2.64,2.64,0,0,1,.076,1C.033.8-.064.317.063.129.228-.114.583.053.84.1a42,42,0,0,0,4.5.585" transform="translate(7.947 38.697)"/><path class="o" d="M3.162,1.765A2.7,2.7,0,0,1,.839,1.338,2.5,2.5,0,0,1,0,.142,3.134,3.134,0,0,1,1.774.115,1.886,1.886,0,0,1,3.053,1.128a1.655,1.655,0,0,1,.109.637" transform="translate(8.097 39.832)"/><path class="p" d="M3.66,1.664H0A2.364,2.364,0,0,1,1.83.007C3.208-.122,3.66,1.664,3.66,1.664" transform="translate(9.519 35.067)"/><g transform="translate(1.357 46.606)"><path class="a" d="M0,0H5.558V2.722H0Z" transform="translate(0.179 0.219)"/><g class="q"><path class="b" d="M2.661,1.686,0,2.722H4.547A14.066,14.066,0,0,1,5.558.9C4.616.682,3.038.2,2.079,0a10.077,10.077,0,0,1,.582,1.686" transform="translate(0.179 0.219)"/></g></g><g transform="translate(16.742 46.606)"><path class="a" d="M0,0H5.558V2.722H0Z" transform="translate(0.049 0.219)"/><g class="r"><path class="b" d="M2.9,1.686,5.558,2.722H1.012A14.053,14.053,0,0,0,0,.9C.942.682,2.52.2,3.479,0A10.035,10.035,0,0,0,2.9,1.686" transform="translate(0.049 0.219)"/></g></g></g></g></svg>