<svg xmlns="http://www.w3.org/2000/svg" viewBox="0 0 125.63 218.48"><defs><style>.cls-1{fill:#056939;}.cls-2{fill:#f9b041;}.cls-3{fill:#10a651;}.cls-4{fill:#07883e;}.cls-5{fill:#047c39;}.cls-6{fill:#31a544;}.cls-7{fill:#dd223c;}.cls-8{fill:#ca1d36;}.cls-9{fill:#fff;}.cls-10{fill:#912a2a;}.cls-11{fill:#da6aa6;}.cls-12{fill:#e39f70;}</style></defs><title>Middel 15</title><g id="Laag_2" data-name="Laag 2"><g id="Laag_1-2" data-name="Laag 1"><polygon class="cls-1" points="27.47 143.69 0 151.54 15.7 172.62 20.76 166.31 12.26 156.65 27.47 156.39 27.47 143.69"/><path class="cls-2" d="M20,162.9l-9.33,10.84,8.11,1.64-1.49,3.17s-3.19-1.74-3.53-.72a1.8,1.8,0,0,0,.49,2.15s-.92,2.86,2.46,2.76a12.26,12.26,0,0,0,5.63-1.5l1.8-9.35Z"/><polygon class="cls-1" points="83.43 143.69 110.9 151.54 95.2 172.62 90.14 166.31 98.64 156.65 83.43 156.39 83.43 143.69"/><path class="cls-2" d="M90.93,162.9l9.32,10.84-8.11,1.64,1.5,3.17s3.19-1.74,3.52-.72a1.8,1.8,0,0,1-.49,2.15s.92,2.86-2.45,2.76a12.21,12.21,0,0,1-5.63-1.5l-1.8-9.35Z"/><path class="cls-3" d="M92.13,208.55c-4.36,1-9.84,2.53-13.4,3.3-3.23-4.66-8-10.23-14-13.4a20.59,20.59,0,0,0-8.9-2.55,21.44,21.44,0,0,0-10.21,3.29C40.27,202.44,36,207.53,33,211.85c-4.45-1-8.9-1.91-13.43-2.8a145.29,145.29,0,0,1,2.11-14.92c.63-3.38,1.35-6.85,2.14-10.3.28-1.28.57-2.56.87-3.83q.39-1.6.75-3.18c4-16.49,8.54-30.78,8.54-30.78H77.74s4.18,13.24,8.07,28.92c.3,1.21.61,2.44.9,3.68s.61,2.58.91,3.88c.68,3,1.32,5.95,1.91,8.88A166.76,166.76,0,0,1,92.13,208.55Z"/><path class="cls-4" d="M68.83,53.44C74,52.14,79,45.85,74.66,39.54c4.84-.92,9.14-9.85,1.81-13.94,4.92-.72,7.87-12-.91-13.69,0,0,2.48-7.11-3.48-10.66C65-3,60.28,4.88,60.28,4.88c-6.47-6.61-17.67-.64-14.72,9.35-12.22.33-11.92,15.2-5.28,16.64C29.13,38.09,35.62,47,41,48.34c-9.25,8.07,1.61,12.88,5.18,16.57,1.09,1.13,2.12,2.17,4.05,7.23,2.44,6.38,8.28,5,9.53-1.12C61.56,62.47,72.69,61.78,68.83,53.44Z"/><path class="cls-5" d="M63.87,16.7S51.05,39.79,52.25,112.31A104.27,104.27,0,0,0,53.58,125a1.37,1.37,0,0,0,2.72-.23c-.44-9.62-.44-43.59.7-56.82C59.93,33.76,63.87,16.7,63.87,16.7Z"/><path class="cls-6" d="M95.4,87c5.1,1.48,12.57-1.43,12-9.05,4.65,1.66,12.87-3.87,8.61-11.11,4.61,1.86,12.83-6.33,6.14-12.27,0,0,5.74-4.89,2.38-11-4-7.23-12-2.84-12-2.84-2.25-9-14.93-9.47-17.43.63-10.71-5.89-18,7.09-13,11.7C68.9,53.69,70,64.66,74,68.56c-12.06,2.29-5.11,11.93-3.9,16.92.37,1.52.73,2.94-.16,8.28-1.12,6.74,4.64,8.46,8.79,3.85C84.56,91.13,94.51,96.15,95.4,87Z"/><path class="cls-4" d="M109.47,51.43S81.08,74.3,62.16,113.92c-2.18,4.57-4,8.52-5.4,11.92a1.4,1.4,0,0,0,2.52,1.2c4.58-8.72,7.48-15.24,14.53-26.85C92,70.19,109.47,51.43,109.47,51.43Z"/><path class="cls-6" d="M24.88,85.75c-4.74.46-10.82-3.33-9.11-10-4.36.69-10.69-5.53-5.75-11.2-4.36.89-10.24-7.68-3.38-11.8,0,0-4.24-5.24-.29-10,4.7-5.71,11-.52,11-.52,3.45-7.52,14.69-5.88,15.23,3.42C43,42.26,47.26,54.87,42.1,58.1,53.68,60.8,50.91,70.27,46.75,73c10.23,4,2.54,11.34.65,15.53-.58,1.28-1.13,2.47-1.23,7.31-.12,6.11-5.47,6.68-8.37,1.94C33.74,91.15,24.15,93.94,24.88,85.75Z"/><path class="cls-4" d="M18.36,52.13S39.57,76.92,49.69,114.9c1.17,4.38,2.08,8.14,2.79,11.37a1.25,1.25,0,0,1-2.42.64c-2.59-8.42-4.07-14.64-8.35-26C30.63,71.5,18.36,52.13,18.36,52.13Z"/><path class="cls-7" d="M15.29,152.17c-.81,13.67,5.7,21.61,12.1,27.76s17.06,9.19,20.91,15.47c3.13,5.09.49,13.41-5.64,15.83a15.43,15.43,0,0,0,9.83-4.31,34.41,34.41,0,0,0,7.11-9.33c3-5.39,7.06-7.57,10.62-9.9,9.27-6.09,11.77-6,18.13-13C98,164,105.12,123.29,53.7,123.29,27.39,123.29,16.15,137.58,15.29,152.17Z"/><path class="cls-8" d="M56.09,123.35c33.31,8.48,26.3,42.15,17.65,52.43-13,15.45-28.45,14.53-31.9,13.7a20,20,0,0,1,6.46,5.92c3.13,5.09.49,13.41-5.64,15.83a15.43,15.43,0,0,0,9.83-4.31,34.41,34.41,0,0,0,7.11-9.33c3-5.39,7.06-7.57,10.62-9.9,9.27-6.09,11.77-6,18.13-13C97.86,164.18,104.85,124.61,56.09,123.35Z"/><circle class="cls-9" cx="34.89" cy="150.49" r="4.87"/><path class="cls-9" d="M69,152.5a5.56,5.56,0,1,1,11.11,0"/><path class="cls-10" d="M61.72,173.53a13.15,13.15,0,0,1-7.47,9.29,10.94,10.94,0,0,1-1.49.52,11.92,11.92,0,0,1-10.26-1.89,10.93,10.93,0,0,1-3.71-5.28c-.13-.4-.24-.8-.33-1.21-.19-.91-.62-3-.06-3.87.73-1.07,2.3-.34,3.44-.15C43.52,171.24,61.59,174.16,61.72,173.53Z"/><path class="cls-11" d="M52.76,183.34a11.92,11.92,0,0,1-10.26-1.89,10.93,10.93,0,0,1-3.71-5.28,13.77,13.77,0,0,1,7.84-.12,8.28,8.28,0,0,1,5.65,4.47A7.32,7.32,0,0,1,52.76,183.34Z"/><path class="cls-12" d="M61.25,161.83H45.07s2-6.75,8.09-7.32S61.25,161.83,61.25,161.83Z"/><path class="cls-1" d="M21.55,213.9,9.79,218.48h20.1a61.07,61.07,0,0,1,4.47-8.06c-4.17-1-11.14-3.07-15.38-4C20.12,210.16,21.52,212,21.55,213.9Z"/><path class="cls-1" d="M90,213.9l11.76,4.58H81.69a62.54,62.54,0,0,0-4.47-8.06c4.16-1,11.14-3.07,15.38-4C91.46,210.16,90.06,212,90,213.9Z"/></g></g></svg>