<svg xmlns="http://www.w3.org/2000/svg" viewBox="0 0 109.68 98.68"><defs><style>.cls-1{fill:#5a8e38;}.cls-2{fill:#f9b041;}.cls-3{fill:#056939;}.cls-4{fill:#e12828;}.cls-5{fill:#e55e42;}.cls-6{fill:#c32221;}.cls-7{fill:#07883e;}.cls-8{fill:#047c39;}.cls-9{fill:#fff;}.cls-10{fill:#912a2a;}.cls-11{fill:#da6aa6;}</style></defs><title>Middel 11</title><g id="Laag_2" data-name="Laag 2"><g id="Laag_2-2" data-name="Laag 2"><polygon class="cls-1" points="25.77 30.73 0 38.1 14.73 57.87 19.48 51.95 11.5 42.88 25.77 42.64 25.77 30.73"/><path class="cls-2" d="M18.73,48.75,10,58.92l7.6,1.54-1.4,3s-3-1.63-3.3-.67a1.67,1.67,0,0,0,.45,2s-.86,2.69,2.31,2.6A11.5,11.5,0,0,0,20.93,66l1.69-8.76Z"/><polygon class="cls-1" points="83.9 30.73 109.67 38.1 94.95 57.87 90.2 51.95 98.17 42.88 83.9 42.64 83.9 30.73"/><path class="cls-2" d="M90.94,48.75l8.75,10.17-7.61,1.54,1.4,3s3-1.63,3.31-.67a1.67,1.67,0,0,1-.46,2s.86,2.69-2.3,2.6A11.45,11.45,0,0,1,88.75,66l-1.69-8.76Z"/><path class="cls-1" d="M64.78,66.45c3.87,3,10.1,8.7,12.67,17.18a26.87,26.87,0,0,1,1.13,6.47L65.21,91s-3.56-19.21-7.57-21S64.78,66.45,64.78,66.45Z"/><path class="cls-1" d="M40.6,66.47c-3.88,3-10.11,8.7-12.68,17.18a26.87,26.87,0,0,0-1.13,6.47L40.16,91s3.56-19.21,7.57-21S40.6,66.47,40.6,66.47Z"/><path class="cls-3" d="M27.85,93,14.1,98.33H37.6a72.61,72.61,0,0,1,5.22-9.41c-4.87-1.12-13-3.58-18-4.63C26.17,88.62,27.81,90.77,27.85,93Z"/><path class="cls-3" d="M77.64,93.27l13.75,5.41H67.9a74.63,74.63,0,0,0-5.23-9.52c4.87-1.14,13-3.63,18-4.7C79.32,88.86,77.68,91,77.64,93.27Z"/><path class="cls-4" d="M84,24c-5.87-6.74-16-9.76-24.51-6.64-1.79.66-9.19.66-11,0C40.07,14.28,29.91,17.3,24,24c-7,8-9.15,18.7-7.66,28.79,1.9,12.82,9.06,21.6,22.32,25.55,7.41,2.2,10.26,1,15.35,1s7.94,1.18,15.35-1C82.65,74.43,89.81,65.65,91.7,52.83,93.19,42.74,91,32,84,24Z"/><circle class="cls-5" cx="35.16" cy="34.66" r="7.5"/><path class="cls-6" d="M84,24c-5.87-6.74-16-9.76-24.51-6.64-1.79.66-9.19.66-11,0a20.63,20.63,0,0,0-8.7-1.16c4.84,1.05,5,7.18,20.16,6.05,14.09-1,24.49,19.87,16.47,37.09-5,10.69-22,17.93-44.26,16.43a37.88,37.88,0,0,0,6.48,2.57c7.41,2.2,10.26,1,15.35,1s7.94,1.18,15.35-1C82.65,74.43,89.81,65.65,91.7,52.83,93.19,42.74,91,32,84,24Z"/><path class="cls-7" d="M53.76,14.19a10.09,10.09,0,0,0-8.63-6,10.83,10.83,0,0,1,3.75,6.29c-2-1.11-7.33-1.92-10.27.18,3.91.43,6.08,1.31,8.35,3.92A7.09,7.09,0,0,0,45,21.65a16.68,16.68,0,0,0,.12,3.81c2.41-3.42,8.17-1.67,8.43-5.25,0,0,5.93,1.13,8.2,5.24.44-5.41-2.18-6.37-2.18-6.37,2.5-1.81,7.18-.53,9.85.3-1.74-2.57-5.56-4.76-9-4.29a8.43,8.43,0,0,1,6.79-4.25c-4.37-1.5-10.58-1.44-13.44,3.35Z"/><path class="cls-8" d="M56.64,0C51.91,3.74,52.42,12.82,53,17.17a1.18,1.18,0,0,0,1.23-.09c0-2.64.21-6.74,1.19-9.48C56.81,3.65,59,2.45,59,2.45A2.21,2.21,0,0,0,56.64,0Z"/><path class="cls-3" d="M57.57,28.7l-4.32,7.16-5.6-6.21L1,31.87S5.86,59.46,30.89,57.06C49.73,55.26,53,43.9,53.53,38.76c1.48,5,6.87,15.47,25.71,13.67C104.27,50,103.77,22,103.77,22Z"/><circle class="cls-9" cx="36.24" cy="44.27" r="4.62"/><circle class="cls-9" cx="67.58" cy="41.19" r="4.62"/><path class="cls-10" d="M68.19,57.06a12.32,12.32,0,0,1-7,8.71,9.54,9.54,0,0,1-1.39.49,11.2,11.2,0,0,1-9.63-1.77,10.37,10.37,0,0,1-3.48-5,10.62,10.62,0,0,1-.31-1.14c-.18-.84-.58-2.84,0-3.62.68-1,2.15-.32,3.22-.14C51.11,54.9,68.06,57.65,68.19,57.06Z"/><path class="cls-11" d="M59.78,66.26a11.2,11.2,0,0,1-9.63-1.77,10.37,10.37,0,0,1-3.48-5A13,13,0,0,1,54,59.42a7.81,7.81,0,0,1,5.3,4.2A6.77,6.77,0,0,1,59.78,66.26Z"/></g></g></svg>