<svg xmlns="http://www.w3.org/2000/svg" width="32.905" height="39.644"><defs><style>.a{fill:none}</style><clipPath id="a"><path class="a" d="M0 0h32.9v32.367H0z" transform="translate(0 .257)"/></clipPath><clipPath id="b"><path class="a" d="M0 0h6.612v13.223H0z" transform="translate(.232 .072)"/></clipPath></defs><path class="a" d="M0 7.277h32.9v32.367H0z"/><g clip-path="url(#a)" transform="translate(0 7.02)"><path d="M32.814 8.849a6.831 6.831 0 0 0-2.3-4.96c-1.551-1.254-4.5-.825-4.5-.825a10.194 10.194 0 0 0-1.782-1.865c-2.047-1.474-6.357-1.219-7.779.771-1.423-1.99-5.733-2.245-7.78-.771a10.194 10.194 0 0 0-1.782 1.865s-2.952-.429-4.5.825a6.831 6.831 0 0 0-2.3 4.96A42.478 42.478 0 0 0 3.32 27.394c1.388 3.248 4.162 2.842 5.734 2.178a4.142 4.142 0 0 0 2.433 2.8c2.126.6 3.766-.06 4.964 0v-.025.025c1.2-.06 2.838.6 4.964 0a4.142 4.142 0 0 0 2.433-2.8c1.573.663 4.346 1.07 5.734-2.178a42.478 42.478 0 0 0 3.23-18.545" fill="#eac31c"/></g><path d="M9.054 36.59C7.06 26.332 7.007 16.724 8.636 13.995a3.265 3.265 0 0 0 .484-3.055l.01-.458-2.085-.567c-.1.124-.154.2-.154.2s-2.952-.429-4.5.824A6.818 6.818 0 0 0 .09 15.894a42.378 42.378 0 0 0 3.23 18.521c1.388 3.244 4.161 2.838 5.734 2.176" fill="#d4b21a"/><path d="M30.517 10.94c-1.551-1.252-4.5-.824-4.5-.824a10.182 10.182 0 0 0-1.786-1.862c-2.047-1.472-6.357-1.218-7.779.77-1.422-1.988-5.729-2.242-7.779-.77a10.171 10.171 0 0 0-1.782 1.859s-2.953-.429-4.5.824c-.1.077-.176.162-.265.244 1.571-.243 3.951.5 6.513 2.811 0 0 1.714-2.546 5.981-1.131a6.609 6.609 0 0 0 3.627.188c3.6-.875 5.416.525 6.512 2.7.942 1.873.911 12.691-.905 20.835 1.573.662 4.346 1.068 5.734-2.176a42.382 42.382 0 0 0 3.23-18.52 6.819 6.819 0 0 0-2.3-4.954" fill="#be931a"/><path d="M15.329 18.279a2.62 2.62 0 0 1-2.6 2.638 2.62 2.62 0 0 1-2.6-2.638 2.62 2.62 0 0 1 2.6-2.638 2.62 2.62 0 0 1 2.6 2.638" fill="#fff584"/><path class="a" d="M13.376-.001h6.612v13.223h-6.612z"/><g clip-path="url(#b)" transform="translate(13.144 -.073)"><path d="M1.912 8.111a7.41 7.41 0 0 1-1.68 4.515 8.713 8.713 0 0 1 1.241.311 6.615 6.615 0 0 0 3.627.188 9.538 9.538 0 0 1 1.25-.222 25.522 25.522 0 0 1-1.259-3.616 9.978 9.978 0 0 1-.242-1.215 5.926 5.926 0 0 1 2-5.454C5.475-1.184 2.392.399 2.392.399s-.7 1.765-.466 6.119a12.468 12.468 0 0 1-.014 1.593" fill="#00873e"/></g><path d="M19.84 2.164c-.016-.038-.034-.074-.051-.111a6.363 6.363 0 0 0-.112-.233l-.062-.115-.115-.2-.062-.1a5.876 5.876 0 0 0-.138-.2c-.015-.021-.03-.044-.046-.064q-.097-.116-.194-.223l-.044-.044c-.051-.054-.1-.1-.155-.153l-.069-.06a2.773 2.773 0 0 0-.137-.111l-.071-.049c-.044-.038-.098-.07-.144-.1l-.064-.038a2.6 2.6 0 0 0-.423-.2L17.91.15a1.41 1.41 0 0 0-.17-.049l-.054-.017q-.083-.021-.165-.036l-.044-.007a2.569 2.569 0 0 0-.197-.027 3.143 3.143 0 0 0-.613.005c2.037.62.817 2.42.281 5.692a15.286 15.286 0 0 0-.189 2.77 5.551 5.551 0 0 1-1.919 4.45 6.566 6.566 0 0 0 3.4.122 9.538 9.538 0 0 1 1.25-.222l-.05-.121-.08-.188-.056-.138c-.032-.077-.063-.155-.1-.24l-.065-.164-.106-.274-.071-.19a31.93 31.93 0 0 1-.184-.515c-.039-.111-.077-.227-.116-.344l-.071-.215c-.042-.131-.083-.266-.124-.4l-.06-.195c-.06-.205-.119-.415-.175-.63a10.015 10.015 0 0 1-.238-1.216 6.231 6.231 0 0 1 .215-2.79q.056-.171.125-.342a5.734 5.734 0 0 1 .533-1.012q.109-.167.234-.332a7.552 7.552 0 0 1 .888-.978 7.343 7.343 0 0 0-.151-.38" fill="#007b38"/></svg>