<svg xmlns="http://www.w3.org/2000/svg" width="47.684" height="44.63"><defs><style>.a{fill:none}</style><clipPath id="a"><path class="a" d="M0 0h21.242v21.852H0z" transform="translate(.31 .005)"/></clipPath><clipPath id="b"><path class="a" d="M0 0h47.684v29.6H0z" transform="translate(0 .048)"/></clipPath><clipPath id="c"><path class="a" d="M0 0h33.077v28.774H0z" transform="translate(.012 .048)"/></clipPath></defs><path class="a" d="M13.932 22.779h21.242v21.852H13.932z"/><g clip-path="url(#a)" transform="translate(13.622 22.774)"><path d="M.31 2.936s4.974 4 5.781 9.327a22.756 22.756 0 0 1 0 8.394 9.56 9.56 0 0 0 5.109 1.2 10.414 10.414 0 0 0 5.378-1.332 31.454 31.454 0 0 1-.672-7.862c0-5.6 5.647-9.727 5.647-9.727L19.065.871a37.768 37.768 0 0 0-5.579 6.552V.005H8.51V7.8a18.785 18.785 0 0 0-5.242-6.657z" fill="#37b34a"/></g><path d="M27.106 30.196v-7.418h-2.4l.622 4.459a8.457 8.457 0 0 0 .515 1.991 1.827 1.827 0 0 0 1.263.968m8.068-4.486l-2.487-2.066s-.448.419-1.1 1.081l1.186.985s-5.647 4.134-5.647 9.727c0 1.958.082 3.509.19 4.7a4.066 4.066 0 0 1-3.595 4.425l-.123.012c.381.035.788.056 1.224.056a10.416 10.416 0 0 0 5.376-1.332 31.468 31.468 0 0 1-.672-7.862c0-5.6 5.646-9.727 5.646-9.727M16.89 23.917l-.477.289-.937.568c.99.92 2.99 2.182 4.25 4.017a4.439 4.439 0 0 0 2.407 1.782 18.8 18.8 0 0 0-5.243-6.656" fill="#31a444"/><path class="a" d="M0 0h47.684v29.6H0z"/><g clip-path="url(#b)" transform="translate(0 -.048)"><path d="M11.778 29.596c-4.754.519-7.777-3.011-7.2-6.9a6.5 6.5 0 0 1-4.4-7.6c.878-3.776 5.082-5.212 8.183-4.537a7.539 7.539 0 0 1 4.075-7.524 7.675 7.675 0 0 1 8.505 1.366 9.4 9.4 0 0 1 9.68-4.175 9.317 9.317 0 0 1 7.17 7.683 6.065 6.065 0 0 1 8.268 1.239 5.941 5.941 0 0 1-1.589 8.136 6.291 6.291 0 0 1 3.117 6.514 6.342 6.342 0 0 1-5.279 4.96c-2.569.336-4.972-.574-6.092-2.891-1.329 1.11-3.643.8-5.191.016a4.513 4.513 0 0 1-2.425-4.247c-.966 2-3.21 2.984-5.434 3.246-2.167.255-3.37-.644-5.307-2.621-.364 4.554-2.017 6.89-6.083 7.335" fill="#00873e"/></g><path d="M17.112 8.521a2.491 2.491 0 1 1-2.491-2.468 2.48 2.48 0 0 1 2.491 2.468m-8.841 8.414a2.49 2.49 0 1 1-2.491-2.468 2.479 2.479 0 0 1 2.49 2.468m5.662 6.982a2.491 2.491 0 1 1-2.491-2.468 2.48 2.48 0 0 1 2.491 2.468" fill="#009345"/><path class="a" d="M14.607 0h33.077v28.774H14.607z"/><g clip-path="url(#c)" transform="translate(14.595 -.048)"><path d="M29.875 17.28a5.941 5.941 0 0 0 1.589-8.132 6.065 6.065 0 0 0-8.268-1.235 9.317 9.317 0 0 0-7.17-7.687 9.4 9.4 0 0 0-9.683 4.176 7.685 7.685 0 0 0-6.331-2.02 6.5 6.5 0 0 1 5.322 6.517 5.944 5.944 0 0 1 4.9-1.072 4.373 4.373 0 0 1 3.132 3.9 4.178 4.178 0 0 1 4.935 1.589 5.667 5.667 0 0 1-.213 5.309c1.584 1.107 1.788 4.134.541 5.6a4.126 4.126 0 0 1-2.545 1.44c.113.072.223.148.343.208 1.548.781 3.863 1.094 5.191-.016 1.12 2.316 3.523 3.227 6.092 2.891a6.342 6.342 0 0 0 5.279-4.96 6.292 6.292 0 0 0-3.117-6.514" fill="#007b38"/></g></svg>