<svg xmlns="http://www.w3.org/2000/svg" width="23.907" height="44.65"><defs><style>.a{fill:none}.b{fill:#007b38}.c{fill:#88bc6e}.d{fill:#54a94e}.e{fill:#72aa43}</style><clipPath id="a"><path class="a" d="M0 0h3.1v5.923H0z" transform="translate(.024 .175)"/></clipPath><clipPath id="b"><path class="a" d="M0 0h1.61v4.263H0z" transform="translate(.061 .104)"/></clipPath></defs><path class="b" d="M10.116 10.562l-.8 34.088h5.449l-.803-34.088z"/><path class="c" d="M9.938 17.381h2.14c-.041-2.049-2.768-2.825-2.768-2.825z"/><path class="d" d="M14.288 22.216h-2.24c.043-2.145 2.9-2.957 2.9-2.957z"/><path class="e" d="M9.657 27.306h2.329c-.045-2.23-3.013-3.074-3.013-3.074z"/><path class="c" d="M14.599 33.767h-2.457c.047-2.335 3.154-3.218 3.154-3.218z"/><path class="b" d="M5.518 44.65l-.501-23.319H1.173l-.5 23.319zM3.091 10.905c-1.369 3.062-.72 4.21 0 4.263.729-.054 1.379-1.201 0-4.263"/><path class="d" d="M2.322 11.929c-1.506 3.176-1.061 4.664-.229 4.991.839.18 1.6-1.41.229-4.991"/><path class="e" d="M3.87 11.929c1.505 3.176 1.06 4.664.229 4.991-.84.18-1.599-1.41-.229-4.991"/><path class="c" d="M3.095 13.373c-1.632 3.822-1.034 5.459 0 5.565 1.035-.106 1.632-1.743 0-5.565"/><path class="c" d="M1.343 13.761c-1.481 3.01-.912 5.14.042 5.713.975.402 1.309-1.769-.042-5.713"/><path class="e" d="M2.042 14.848c-1.944 3.074-1.488 4.729-.453 5.353 1.1.4 2-1.175.454-5.353"/><path class="b" d="M4.851 13.761c1.481 3.01.913 5.141-.042 5.713-.978.402-1.312-1.769.042-5.713"/><path class="d" d="M4.149 14.848c1.946 3.074 1.489 4.73.454 5.353-1.1.4-2-1.175-.454-5.353"/><path class="b" d="M.245 16.3c-.745 3.216.311 5.373 1.776 5.759a4.129 4.129 0 0 0 1.079.157A43.992 43.992 0 0 0 .245 16.3"/><path class="c" d="M5.946 16.3c.745 3.215-.31 5.373-1.776 5.759a4.118 4.118 0 0 1-1.078.157A43.888 43.888 0 0 1 5.946 16.3"/><path class="b" d="M3.095 16.15c-1.842 3.672-1.224 5.72 0 5.849 1.225-.129 1.839-2.177 0-5.849"/><path class="d" d="M1.599 17.593c-1.569 2.314-.45 4.253 1.5 4.622a8.107 8.107 0 0 0-1.5-4.622"/><path class="e" d="M4.6 17.593c1.57 2.313.452 4.253-1.494 4.623A8.112 8.112 0 0 1 4.6 17.593"/><path class="c" d="M.993 28.23h2.14C3.092 26.181.365 25.405.365 25.405z"/><path class="d" d="M5.343 33.066h-2.24c.043-2.145 2.9-2.957 2.9-2.957z"/><path class="b" d="M23.234 44.65l-.501-23.319h-3.844l-.5 23.319zm-2.428-33.745c-1.369 3.062-.719 4.21 0 4.263.729-.054 1.379-1.201 0-4.263"/><path class="d" d="M20.037 11.929c-1.506 3.176-1.061 4.664-.229 4.991.839.18 1.6-1.41.229-4.991"/><path class="e" d="M21.585 11.929c1.505 3.176 1.06 4.664.229 4.991-.84.18-1.599-1.41-.229-4.991"/><path class="c" d="M20.811 13.373c-1.632 3.822-1.034 5.459 0 5.565 1.035-.106 1.632-1.743 0-5.565"/><path class="c" d="M19.059 13.761c-1.481 3.01-.912 5.14.042 5.713.975.402 1.309-1.769-.042-5.713"/><path class="e" d="M19.758 14.848c-1.944 3.074-1.488 4.729-.453 5.353 1.1.4 2-1.175.454-5.353"/><path class="b" d="M22.567 13.761c1.481 3.01.913 5.141-.042 5.713-.978.402-1.312-1.769.042-5.713"/><path class="d" d="M21.864 14.848c1.946 3.074 1.489 4.73.454 5.353-1.1.4-2-1.175-.454-5.353"/><path class="b" d="M17.961 16.3c-.745 3.216.311 5.373 1.776 5.759a4.129 4.129 0 0 0 1.079.157 44.028 44.028 0 0 0-2.855-5.916"/><path class="a" d="M20.808 16.301h3.1v5.923h-3.1z"/><g clip-path="url(#a)" transform="translate(20.784 16.126)"><path class="c" d="M2.878.175c.745 3.215-.31 5.373-1.776 5.759a4.119 4.119 0 0 1-1.078.157A43.888 43.888 0 0 1 2.878.175"/></g><path class="b" d="M20.811 16.15c-1.842 3.672-1.224 5.72 0 5.849 1.225-.129 1.839-2.177 0-5.849"/><path class="d" d="M19.315 17.593c-1.569 2.314-.45 4.253 1.5 4.622a8.1 8.1 0 0 0-1.5-4.622"/><path class="e" d="M22.316 17.593c1.57 2.313.452 4.253-1.494 4.623a8.112 8.112 0 0 1 1.494-4.623"/><path class="c" d="M18.708 28.23h2.14c-.041-2.049-2.768-2.825-2.768-2.825z"/><path class="d" d="M23.059 33.066h-2.24c.043-2.145 2.9-2.957 2.9-2.957z"/><path class="a" d="M11.195 0h1.61v4.263h-1.61z"/><g clip-path="url(#b)" transform="translate(11.134 -.104)"><path class="b" d="M.861.104c-1.369 3.062-.72 4.21 0 4.263.729-.053 1.379-1.201 0-4.263"/></g><path class="d" d="M11.226 1.024C9.72 4.2 10.165 5.688 10.997 6.015c.839.18 1.6-1.41.229-4.991"/><path class="e" d="M12.774 1.024c1.506 3.176 1.061 4.664.23 4.991-.84.18-1.6-1.41-.23-4.991"/><path class="c" d="M11.999 2.468c-1.632 3.822-1.034 5.459 0 5.565 1.035-.106 1.632-1.743 0-5.565"/><path class="c" d="M10.247 2.857c-1.481 3.01-.913 5.14.042 5.714.975.401 1.31-1.769-.042-5.714"/><path class="e" d="M10.946 3.943c-1.944 3.074-1.488 4.729-.453 5.353 1.1.4 2-1.175.454-5.353"/><path class="b" d="M13.755 2.857c1.481 3.01.913 5.141-.042 5.714-.978.401-1.312-1.769.042-5.714"/><path class="d" d="M13.053 3.943c1.946 3.074 1.489 4.73.454 5.353-1.1.4-2-1.175-.454-5.353"/><path class="b" d="M9.149 5.395c-.745 3.216.311 5.373 1.776 5.759a4.126 4.126 0 0 0 1.079.157 44.029 44.029 0 0 0-2.855-5.916"/><path class="c" d="M14.85 5.395c.745 3.215-.31 5.373-1.776 5.759a4.108 4.108 0 0 1-1.078.157 43.8 43.8 0 0 1 2.854-5.916"/><path class="b" d="M12 5.245c-1.842 3.672-1.224 5.72 0 5.849 1.225-.129 1.839-2.177 0-5.849"/><path class="d" d="M10.504 6.689c-1.569 2.314-.45 4.253 1.5 4.622a8.1 8.1 0 0 0-1.5-4.622"/><path class="e" d="M13.504 6.688c1.57 2.313.453 4.253-1.494 4.623a8.108 8.108 0 0 1 1.494-4.623"/></svg>