<svg xmlns="http://www.w3.org/2000/svg" width="34.831" height="44.496"><defs><style>.a{fill:none}.f{fill:#528a34}</style><clipPath id="a"><path class="a" d="M0 0h34.83v44.5H0z" transform="translate(0 .251)"/></clipPath></defs><path class="a" d="M0 0h34.83v44.5H0z"/><g clip-path="url(#a)" transform="translate(0 -.251)"><path d="M26.431 1.294C28.209.12 30.2-.282 32.08 1.251c3.229 2.642 3.035 7.648 2.3 11.232a54.587 54.587 0 0 1-6.62 16.779c-3.948 6.414-9.16 12.379-16.727 14.889C7.609 45.286 1.475 45.163.2 40.527c-.706-2.568.475-5.548 3.136-7.974 2.1-1.916 4.475-3.528 6.426-5.538a39.119 39.119 0 0 0 5.688-6.9 101.059 101.059 0 0 0 5.255-10.559c1.395-3.072 2.756-6.305 5.726-8.262" fill="#6daf44"/></g><path d="M32.08 1.002a4 4 0 0 0-3.323-.94c2.2.711 3.083 2.464 3.307 5.992.883 13.878-22.6 46.48-32 33.557a5.545 5.545 0 0 0 .134.665c1.277 4.636 7.411 4.759 10.835 3.626 7.562-2.509 12.779-8.474 16.73-14.886a54.588 54.588 0 0 0 6.62-16.779c.731-3.583.925-8.589-2.3-11.232" fill="#609e3e"/><path d="M13.6 32.628a1.81 1.81 0 0 0-1.46-2.517c-2.59-.617-7.25 3.069-8.44 5.076-1.112 1.876-.447 3.784 1.802 3.682 3.862-.176 7.194-3.478 8.1-6.241m15.053-12.326a.641.641 0 1 1-1.034-.756.641.641 0 1 1 1.034.756m-9.691-.727a.641.641 0 1 1-1.034-.756.641.641 0 1 1 1.034.756M30.471 2.612a.64.64 0 1 1-1.034-.756.638.638 0 0 1 .893-.141.644.644 0 0 1 .141.9m-.01 6.383a.64.64 0 1 1-1.034-.756.64.64 0 1 1 1.034.756m2.897 4.817a.641.641 0 1 1-1.034-.756.638.638 0 0 1 .893-.141.644.644 0 0 1 .141.9M18.037 34.947a.641.641 0 1 1-1.034-.756.641.641 0 1 1 1.034.756m6.709-20.284a.641.641 0 1 1-1.034-.756.641.641 0 1 1 1.034.756m.27 17.15a.641.641 0 1 1-1.034-.756.641.641 0 1 1 1.034.756m-9.038 8.157a.641.641 0 1 1-1.034-.756.641.641 0 1 1 1.034.756m-6.943 1.729a.641.641 0 1 1-1.034-.756.641.641 0 1 1 1.034.756m7.301-15.436a.64.64 0 1 1-1.034-.756.64.64 0 1 1 1.034.756m-5.118 2.905a.641.641 0 1 1-1.034-.756.641.641 0 1 1 1.034.756m10.716-3.595a.641.641 0 1 1-1.034-.756.641.641 0 1 1 1.034.756m3.044-18.677a.64.64 0 1 1-1.034-.756.638.638 0 0 1 .893-.141.644.644 0 0 1 .141.9" fill="#87c558"/><path class="f" d="M7.541 43.223c-.332 0-.665-.016-.989-.048a10.1 10.1 0 0 1-5.008-1.881 7.126 7.126 0 0 1-1.01-.889 2.969 2.969 0 0 1-.41-.539.492.492 0 0 1-.08-.337c.006-.106.014-.221.031-.337a5.7 5.7 0 0 1 .982-2.475 18.319 18.319 0 0 1 3.719-3.722c.766-.615 1.55-1.215 2.308-1.8.579-.444 1.178-.9 1.756-1.357a36.85 36.85 0 0 0 6.959-6.757 35.012 35.012 0 0 0 2.434-3.789 62.627 62.627 0 0 0 1.946-3.74c1.01-2.1 1.884-4.12 2.655-5.9l.007-.016.354-.817c.785-1.813 1.614-3.707 2.375-5.177A11.182 11.182 0 0 1 27.615.617a2.2 2.2 0 0 1 .819-.505 1.188 1.188 0 0 1 .24-.048l.083-.012h.331a3.471 3.471 0 0 1 2.277.959 5.213 5.213 0 0 1 1.191 1.727 12.384 12.384 0 0 1 .813 5.6 29.145 29.145 0 0 1-1.408 7.248 48.78 48.78 0 0 1-3.415 8.046 74.949 74.949 0 0 1-5.124 8.3 37.1 37.1 0 0 1-6.955 7.735 18 18 0 0 1-4.611 2.713 11.947 11.947 0 0 1-4.315.843zM28.873.068h-.115l-.083.009a1.308 1.308 0 0 0-.239.05 2.167 2.167 0 0 0-.806.5 11.159 11.159 0 0 0-2.024 3.027c-.749 1.469-1.572 3.37-2.348 5.192l-.355.831c-.762 1.786-1.626 3.81-2.631 5.927a43.941 43.941 0 0 1-4.382 7.555 36.9 36.9 0 0 1-7 6.749c-.58.453-1.181.91-1.763 1.351-.761.578-1.546 1.174-2.313 1.784a17.8 17.8 0 0 0-3.713 3.7A5.627 5.627 0 0 0 .134 39.2c0 .046-.009.094-.014.141a.686.686 0 0 0 .059.494 2.848 2.848 0 0 0 .4.525 7.057 7.057 0 0 0 1.007.878 10.034 10.034 0 0 0 4.973 1.849c.31.029.627.044.944.044a11.85 11.85 0 0 0 4.313-.847 17.9 17.9 0 0 0 4.57-2.712 36.25 36.25 0 0 0 6.923-7.72 74.541 74.541 0 0 0 5.108-8.286 52.012 52.012 0 0 0 3.426-8.014 28.993 28.993 0 0 0 1.453-7.213 12.337 12.337 0 0 0-.778-5.581 5.168 5.168 0 0 0-1.175-1.722 3.447 3.447 0 0 0-2.255-.965c-.09-.003-.162-.003-.215-.003z"/><path class="f" d="M6.019 41.864a9.241 9.241 0 0 1-2.669-.385A8.5 8.5 0 0 1 .038 39.64l-.019-.018.01-.025a4.051 4.051 0 0 1 .89-1.309 10.554 10.554 0 0 1 1.186-1.041c.861-.66 1.786-1.252 2.6-1.775l.441-.279c1.6-1.01 3.254-2.054 4.815-3.179a39.626 39.626 0 0 0 4.829-4.022 31.335 31.335 0 0 0 2.124-2.318c.65-.772 1.21-1.567 1.874-2.526l.855-1.321c.1-.168.2-.336.3-.5.168-.279.342-.566.5-.856.5-.889.987-1.83 1.444-2.8a53.409 53.409 0 0 0 2.328-5.851l1-2.993c.315-.939.663-1.911 1.064-2.971.881-2.311 1.667-4.155 2.475-5.8V.051h.006a4.074 4.074 0 0 1 1.6 1 5.622 5.622 0 0 1 1.073 1.567 9.522 9.522 0 0 1 .8 3.707 17.478 17.478 0 0 1-.31 3.8 27.527 27.527 0 0 1-.957 3.691 45.024 45.024 0 0 1-3.047 6.988 71.873 71.873 0 0 1-3.962 6.505c-.694 1.025-1.435 2.07-2.2 3.107s-1.53 2.048-2.326 3.015a40.51 40.51 0 0 1-2.539 2.84 28.909 28.909 0 0 1-2.866 2.508 17.976 17.976 0 0 1-3.256 1.967 12.134 12.134 0 0 1-3.649 1.055 9.931 9.931 0 0 1-1.102.063zM.119 39.6a8.52 8.52 0 0 0 3.261 1.786 9.15 9.15 0 0 0 2.6.371 9.847 9.847 0 0 0 1.131-.066 12.05 12.05 0 0 0 3.608-1.058 18.27 18.27 0 0 0 3.228-1.963 28.678 28.678 0 0 0 2.849-2.5 40.26 40.26 0 0 0 2.528-2.831c.8-.974 1.554-1.98 2.319-3.011s1.491-2.061 2.2-3.1a73.2 73.2 0 0 0 3.953-6.493 44.942 44.942 0 0 0 3.076-6.945 27.668 27.668 0 0 0 .974-3.673 17.348 17.348 0 0 0 .33-3.781 9.453 9.453 0 0 0-.778-3.694 5.62 5.62 0 0 0-1.058-1.564A4.055 4.055 0 0 0 28.761.072c-.8 1.656-1.573 3.5-2.434 5.807-.4 1.09-.746 2.063-1.046 2.975l-.98 3a53.424 53.424 0 0 1-2.3 5.878 36.422 36.422 0 0 1-1.454 2.8c-.165.3-.345.593-.519.879-.1.156-.194.318-.288.478l-.863 1.321c-.559.8-1.193 1.706-1.89 2.526a30.988 30.988 0 0 1-2.138 2.317 39.728 39.728 0 0 1-4.855 4.009c-1.363.971-2.8 1.886-4.185 2.77l-1.075.687c-.942.607-1.787 1.16-2.59 1.781A10.461 10.461 0 0 0 .97 38.339 4.027 4.027 0 0 0 .119 39.6z"/><path class="f" d="M3.276 40.161a9.352 9.352 0 0 1-3.228-.507.045.045 0 0 1-.031-.023.046.046 0 0 1 0-.036.045.045 0 0 1 .016-.021 5.394 5.394 0 0 1 1.454-.776 11.3 11.3 0 0 1 1.553-.392l.038-.008a17.819 17.819 0 0 0 3.147-.844 19.744 19.744 0 0 0 2.93-1.423 24.772 24.772 0 0 0 2.713-1.813 31.65 31.65 0 0 0 4.667-4.559 48.93 48.93 0 0 0 3.861-5.28 67.076 67.076 0 0 0 3.242-5.691 68.25 68.25 0 0 0 2.7-5.969 48.06 48.06 0 0 0 1.1-3.087c.384-1.229.655-2.234.853-3.164a25.4 25.4 0 0 0 .512-3.236 13.123 13.123 0 0 0-.059-3.27.009.009 0 0 1 .011-.008h.006a3.863 3.863 0 0 1 1.025 1.41 7.263 7.263 0 0 1 .525 1.673 12.5 12.5 0 0 1 .122 3.5 29.1 29.1 0 0 1-1.636 6.817 54.3 54.3 0 0 1-6.372 12.468 57.967 57.967 0 0 1-4.286 5.548c-.8.911-1.611 1.768-2.408 2.546a31.224 31.224 0 0 1-2.626 2.318 21.72 21.72 0 0 1-2.923 1.925 16.4 16.4 0 0 1-3.226 1.348 13.173 13.173 0 0 1-3.451.552zm-3.109-.565a9.52 9.52 0 0 0 3.166.484h.171a13.066 13.066 0 0 0 3.435-.531 16.12 16.12 0 0 0 3.221-1.33 21.7 21.7 0 0 0 2.906-1.935 31.067 31.067 0 0 0 2.612-2.323c.792-.779 1.6-1.638 2.395-2.552a57.986 57.986 0 0 0 4.259-5.555 60.181 60.181 0 0 0 3.568-6.023 52.137 52.137 0 0 0 2.806-6.413 29.284 29.284 0 0 0 1.67-6.788 12.483 12.483 0 0 0-.1-3.49 7.266 7.266 0 0 0-.513-1.669 3.91 3.91 0 0 0-1-1.393 13.355 13.355 0 0 1 .077 3.254 25.368 25.368 0 0 1-.491 3.246c-.191.931-.456 1.94-.833 3.176a49.067 49.067 0 0 1-1.085 3.1 66.864 66.864 0 0 1-5.914 11.7 49.324 49.324 0 0 1-3.873 5.3 31.893 31.893 0 0 1-4.692 4.576 24.713 24.713 0 0 1-2.729 1.821 19.573 19.573 0 0 1-2.955 1.421 17.974 17.974 0 0 1-3.167.837l-.038.007a11.078 11.078 0 0 0-1.541.381 5.261 5.261 0 0 0-1.356.7z"/></svg>