<svg xmlns="http://www.w3.org/2000/svg" width="29.847" height="44.896"><defs><style>.b{fill:#deba2b}.c{fill:#e9c32d}.d{fill:#ffdd39}</style></defs><path d="M14.405 0c-4.4.108-8.538 38.5.94 38.27S18.8-.107 14.405 0" fill="#fff8b5"/><path class="b" d="M15.291 38.27a5.062 5.062 0 0 0 4.346-2.792h-2.676c-.37 1.728-.91 2.773-1.67 2.792"/><path class="c" d="M13.463 35.478h-2.79a5.146 5.146 0 0 0 4.618 2.792c-.773.019-1.373-1.033-1.828-2.792"/><path class="b" d="M17.537 6.648a.862.862 0 0 0 .811-1.157q-.147-.4-.298-.769a.858.858 0 0 0-.797-.531h-.466a.86.86 0 0 0-.851 1q.059.355.116.728a.863.863 0 0 0 .853.728zm2.404 18.044h-.635a1.714 1.714 0 0 0-1.708 1.716v.635a1.709 1.709 0 0 0 1.71 1.714h.607a1.714 1.714 0 0 0 1.708-1.631q.017-.324.029-.653a1.714 1.714 0 0 0-1.711-1.781m-1.79-11.937h.475a1.4 1.4 0 0 0 1.362-1.725q-.057-.243-.116-.482A1.4 1.4 0 0 0 18.51 9.48h-.41a1.4 1.4 0 0 0-1.392 1.549l.05.472a1.4 1.4 0 0 0 1.393 1.254m.734 3.719a1.574 1.574 0 0 0-1.578 1.67l.043.707a1.575 1.575 0 0 0 1.578 1.478h.8a1.58 1.58 0 0 0 1.57-1.755q-.041-.353-.085-.707a1.584 1.584 0 0 0-1.569-1.393zm-1.924 19.002h2.677a12.115 12.115 0 0 0 1.207-3h-3.464a25.542 25.542 0 0 1-.42 3"/><path class="b" d="M18.133 9.48a1.109 1.109 0 0 0 1.069-1.418q-.094-.319-.192-.63a1.115 1.115 0 0 0-1.064-.784h-.508a1.11 1.11 0 0 0-1.102 1.256l.078.605a1.113 1.113 0 0 0 1.1.971zm.525 6.994h.513a1.574 1.574 0 0 0 1.561-1.836q-.052-.3-.107-.593a1.579 1.579 0 0 0-1.558-1.29h-.457a1.573 1.573 0 0 0-1.572 1.7l.048.571a1.576 1.576 0 0 0 1.572 1.448m.559 3.855a1.708 1.708 0 0 0-1.709 1.772l.032.938a1.707 1.707 0 0 0 1.71 1.653h.678a1.7 1.7 0 0 0 1.71-1.768q-.02-.49-.049-.985a1.713 1.713 0 0 0-1.709-1.61zm.321 8.428h-.311a1.706 1.706 0 0 0-1.708 1.619q-.007.155-.017.309a1.7 1.7 0 0 0 1.71 1.791h.269a1.712 1.712 0 0 0 1.682-1.388q.03-.153.057-.308a1.713 1.713 0 0 0-1.682-2.023"/><path class="c" d="M12.903 32.476H9.369a12.868 12.868 0 0 0 1.3 3h2.79a26.407 26.407 0 0 1-.56-3m-.724-28.285h-.431a.858.858 0 0 0-.812.566q-.131.372-.258.768a.863.863 0 0 0 .824 1.123h.6a.863.863 0 0 0 .858-.77q.039-.373.081-.728a.86.86 0 0 0-.862-.959M11.148 9.48h-.377a1.4 1.4 0 0 0-1.38 1.128l-.1.5a1.4 1.4 0 0 0 1.38 1.647h.45a1.4 1.4 0 0 0 1.4-1.322l.027-.472a1.4 1.4 0 0 0-1.4-1.481M9.916 20.329h.785a1.575 1.575 0 0 0 1.578-1.555q0-.354.009-.707a1.575 1.575 0 0 0-1.578-1.593h-.743a1.582 1.582 0 0 0-1.576 1.461l-.056.706a1.58 1.58 0 0 0 1.581 1.688m.768 4.371h-.645a1.688 1.688 0 0 0-1.7 1.851q.027.342.06.679a1.7 1.7 0 0 0 1.7 1.526h.62a1.707 1.707 0 0 0 1.707-1.8q-.016-.312-.03-.627a1.71 1.71 0 0 0-1.712-1.629"/><path class="c" d="M11.658 6.648h-.475a1.114 1.114 0 0 0-1.078.831q-.082.311-.161.631a1.11 1.11 0 0 0 1.082 1.37h.585a1.113 1.113 0 0 0 1.106-1.025l.049-.607a1.11 1.11 0 0 0-1.108-1.2m-1.363 9.826h.49a1.576 1.576 0 0 0 1.577-1.519l.02-.571a1.573 1.573 0 0 0-1.576-1.629h-.433a1.578 1.578 0 0 0-1.566 1.358q-.041.3-.079.593a1.574 1.574 0 0 0 1.567 1.768m.289 8.226a1.707 1.707 0 0 0 1.709-1.735q-.008-.471-.013-.947a1.717 1.717 0 0 0-1.711-1.689h-.658a1.711 1.711 0 0 0-1.713 1.683q-.007.5 0 .994a1.709 1.709 0 0 0 1.71 1.695zm.375 4.057h-.345a1.712 1.712 0 0 0-1.669 2.083l.069.307a1.715 1.715 0 0 0 1.67 1.329h.3a1.705 1.705 0 0 0 1.7-1.871l-.028-.293a1.709 1.709 0 0 0-1.697-1.555"/><path class="d" d="M16.964 35.478h-3.5c.455 1.759 1.055 2.811 1.828 2.792s1.301-1.064 1.672-2.792m-3.053-28.83h1.164A.937.937 0 0 0 16 5.566q-.049-.306-.1-.6a.934.934 0 0 0-.925-.775h-1a.932.932 0 0 0-.93.821q-.035.293-.068.6a.937.937 0 0 0 .934 1.036m-.448 28.828h3.5a25.538 25.538 0 0 0 .42-3h-4.48a26.4 26.4 0 0 0 .56 3m.298-22.721h1.747a1.244 1.244 0 0 0 1.238-1.375l-.086-.8a1.242 1.242 0 0 0-1.237-1.1h-1.616a1.241 1.241 0 0 0-1.242 1.163q-.025.4-.047.8a1.244 1.244 0 0 0 1.243 1.312m-.099 7.574h2.309a1.384 1.384 0 0 0 1.382-1.464q-.032-.548-.067-1.091a1.385 1.385 0 0 0-1.382-1.3h-2.227a1.384 1.384 0 0 0-1.386 1.363q-.009.547-.014 1.095a1.384 1.384 0 0 0 1.384 1.4m2.549 4.363h-2.443a1.386 1.386 0 0 0-1.384 1.446q.029.665.065 1.312a1.382 1.382 0 0 0 1.383 1.3h2.38a1.381 1.381 0 0 0 1.385-1.365q.005-.648 0-1.316a1.386 1.386 0 0 0-1.386-1.377"/><path class="d" d="M13.793 9.48h1.531a1.069 1.069 0 0 0 1.06-1.2q-.045-.362-.092-.711a1.066 1.066 0 0 0-1.06-.921h-1.381a1.066 1.066 0 0 0-1.065.972l-.062.708a1.069 1.069 0 0 0 1.069 1.152m2.355 19.277h-2.115a1.381 1.381 0 0 0-1.379 1.5q.047.508.1.994a1.379 1.379 0 0 0 1.376 1.225h1.964a1.379 1.379 0 0 0 1.382-1.289q.029-.485.052-.993a1.382 1.382 0 0 0-1.38-1.437m-2.404-12.283h1.957a1.384 1.384 0 0 0 1.38-1.5q-.039-.481-.081-.957a1.385 1.385 0 0 0-1.38-1.262h-1.842a1.384 1.384 0 0 0-1.384 1.33l-.035.958a1.385 1.385 0 0 0 1.385 1.431m-.06 8.223h2.48a1.383 1.383 0 0 0 1.383-1.423q-.023-.8-.056-1.616a1.385 1.385 0 0 0-1.384-1.329H13.66a1.384 1.384 0 0 0-1.385 1.4q.007.814.023 1.618a1.383 1.383 0 0 0 1.386 1.35"/><path d="M17.207 38.618l-2.391-1.744-2.391 1.744.211 3.722a3.21 3.21 0 0 1 .623 1.346 1.448 1.448 0 0 0 1.243 1.188 2.369 2.369 0 0 0 .314.023h.021a1.421 1.421 0 0 0 1.369-1.2 3.2 3.2 0 0 1 .624-1.358z" fill="#308037"/><path d="M16.831 42.336s-2.533-1.582-2.533-6.051 4.461-20.714 15.549-16.439c-5.024 1.409-7.19 2.481-7.19 9.724s-.585 10.242-5.826 12.766" fill="#609e3e"/><path d="M12.637 42.336s2.912-1.587 2.912-6.055S11.088 15.571 0 19.846c5.024 1.409 7.19 2.481 7.19 9.724s1.525 10.686 5.447 12.766" fill="#72aa43"/></svg>