<svg xmlns="http://www.w3.org/2000/svg" width="40" height="40"><defs><style>.a{fill:none}.b{fill:#3c8235}.g{fill:#ffecd2}</style><clipPath id="a"><path class="a" d="M0 0h33.652v35.226H0z" transform="translate(0 .204)"/></clipPath></defs><path class="b" d="M0 22.216C1.642 32.94 8.609 39.672 17.672 39.972c10.215.34 16.413-2.733 19.822-10.853C41.338 19.972 0 22.216 0 22.216"/><path d="M33.66 35.908c-.964.8-3.036.793-4.272.871-1.316.082-2.644-.568-3.956-.44-2.052.2-4.072 2.227-5.885 1.034-1.263-.831-1.5-2.777-2.635-3.816-1.612-1.481-2.8-.2-4.287-1.83-1.772-1.949-.2-4.458-1.721-6.639-.871-1.248-2.633-2.151-2.438-4.585.083-1.03 1.426-2.518 1.749-3.477.416-1.233-.109-2.05.062-3.362.224-1.722.755-2.646 3.791-3.665 1.8-.6 2.365-.751 2.812-2.743.558-2.495 1.6-2.708 2.57-2.664 1.245.056 1.756.442 2.951.4 1.813-.06 2.392-2.03 4.282-1.535 2.044.538 2.268 2.198 3.968 3.239.955.582 2.1.448 3.123.911a7.719 7.719 0 0 1 3.258 2.794 16.744 16.744 0 0 1 2.722 7.454c1.039 7.243-1.326 14.1-6.1 18.053" fill="#006129"/><path class="b" d="M13.897 1.6a6.687 6.687 0 0 0-3.112 2.017C10.018 4.714 9.877 6.2 9.07 7.271c-1.253 1.673-4.07 2.361-4 4.555.05 1.528 1.6 2.754 1.9 4.276.426 2.169-1.31 2.53-.686 4.668.745 2.553 3.742 2.5 4.82 4.961.616 1.406.464 3.4 2.668 4.507.933.467 2.926.082 3.925.3 1.283.284 1.712 1.166 2.934 1.7 1.6.706 2.682.73 5.166-1.365 1.47-1.24 1.9-1.656 3.852-1 2.448.821 3.181.032 3.657-.832.609-1.107.547-1.751 1.212-2.765 1.009-1.538 3.016-1.009 3.587-2.9.618-2.05-.7-3.11-.693-5.131 0-1.131.726-2.056.864-3.18a10.01 10.01 0 0 0-1.051-4.8 17.7 17.7 0 0 0-7.63-8.173C24.519-.84 18.662-.39 13.897 1.6"/><path class="a" d="M0 .767h33.652v35.226H0z"/><g clip-path="url(#a)" transform="translate(0 .563)"><path d="M3.648 7.58a7.173 7.173 0 0 1 2.867-2.831c1.323-.605 2.893-.518 4.2-1.164 2.04-1.011 3.459-3.75 5.7-3.339 1.562.286 2.435 2.042 3.929 2.578 2.128.765 2.937-.933 4.984.028 2.443 1.147 1.638 4.165 3.9 5.632 1.294.839 3.391.994 3.974 3.389.247 1.014-.651 2.967-.675 4.01-.03 1.34.77 1.908 1.017 3.226.323 1.729.077 2.822-2.708 5.006-1.648 1.293-2.184 1.661-2 3.736.23 2.6-.768 3.217-1.778 3.564-1.295.445-1.942.282-3.155.8-1.839.782-1.8 2.89-3.9 3.175-2.268.308-3.03-1.183-5.114-1.492-1.166-.173-2.3.416-3.495.382a7.8 7.8 0 0 1-4.239-1.356 17.646 17.646 0 0 1-5.786-6.56C-1.212 21.155.027 13.253 3.648 7.58" fill="#6daf44"/></g><path d="M19.595 25.878c.442-1.5-.409-2.88-.857-4.383-.488-1.638.335-3.763-.929-4.909-.857-.777-2.238-.606-3.2-1.249-1.247-.835-1.482-2.821-2.878-3.371-1.436-.566-2.825.784-4.158 1.565-1.253.732-2.671-.24-3.94.464a9.125 9.125 0 0 0-3.58 4.871 15.862 15.862 0 0 0 1.32 8.044 17.815 17.815 0 0 0 5.794 6.648 7.663 7.663 0 0 0 4.22 1.371c.172-.837.322-1.653 1.193-1.954 1.159-.4 2.649.039 3.511-.837.793-.806.488-2.19 1.021-3.189.723-1.357 2.051-1.595 2.484-3.071" fill="#8bc762"/><path class="g" d="M18.839 6.197c-.2.145-.383.295-.562.455s-.352.328-.526.492-.332.344-.49.521-.311.359-.455.548-.292.372-.421.57-.26.393-.383.592l-.344.613c-.111.205-.2.422-.3.632a5.456 5.456 0 0 0-.257.647 6.915 6.915 0 0 0-.22.658l-.182.668c-.057.223-.082.455-.126.68a5.029 5.029 0 0 0-.093.684l-.049.689a5.731 5.731 0 0 0-.006.69l.011.69v.288l-.218.192-2.203 1.937c-.73.65-1.464 1.3-2.164 1.959l.025-.936c.224.223.5.476.771.7s.556.449.847.66.585.415.887.61.611.376.924.553.631.341.955.5.652.3.986.43c.165.07.333.132.5.191s.337.123.51.172c.34.115.687.206 1.035.3.35.076.7.158 1.058.208.355.066.714.087 1.073.131.36.022.722.052 1.084.044.364.012.725-.022 1.09-.038.182-.013.363-.036.545-.053s.364-.037.544-.07l.544-.089.54-.116c.365-.068.717-.18 1.077-.276s.707-.23 1.067-.339c-.328.179-.655.366-.995.528s-.685.318-1.043.442c-.177.066-.354.137-.534.2l-.547.161c-.182.058-.367.1-.553.143s-.372.088-.559.125c-.378.057-.756.127-1.14.153-.382.044-.767.051-1.153.064-.385 0-.772-.01-1.156-.051-.386-.026-.768-.087-1.151-.143a15.71 15.71 0 0 1-1.136-.242c-.189-.044-.374-.1-.559-.158s-.371-.112-.553-.178a15.714 15.714 0 0 1-2.13-.931q-.514-.269-1.009-.573c-.329-.2-.655-.412-.969-.639s-.623-.46-.923-.709a11.224 11.224 0 0 1-.886-.8l-.466-.479.491-.458a59.414 59.414 0 0 1 2.231-1.97q.564-.48 1.137-.948c.383-.312.762-.624 1.15-.932l-.214.48.024-.757a6.459 6.459 0 0 1 .045-.754l.106-.75a5.764 5.764 0 0 1 .154-.74c.064-.244.11-.492.189-.731l.249-.713a5.993 5.993 0 0 1 .3-.69 6.018 6.018 0 0 1 .344-.668c.129-.215.246-.435.385-.643l.432-.61c.155-.195.319-.382.478-.572s.342-.359.511-.537.364-.334.545-.5.385-.307.58-.451a7.855 7.855 0 0 1 1.251-.756"/><path class="g" d="M6.316 10.704c-.273.557-.51 1.124-.727 1.7s-.409 1.147-.568 1.734c-.077.293-.158.585-.223.879s-.124.589-.172.885a14.4 14.4 0 0 0-.183 1.775 11.127 11.127 0 0 0 .081 1.755 9.422 9.422 0 0 0 .375 1.69 8.814 8.814 0 0 0 1.681 2.982l.3.349-.232.394-.997 1.677-.04-.709c.131.167.314.376.486.558s.362.369.554.545a13.355 13.355 0 0 0 1.211.991 13.693 13.693 0 0 0 1.318.855 12.9 12.9 0 0 0 1.414.706c.245.1.491.2.739.29s.5.181.756.253.513.145.773.21.523.116.787.169.53.1.8.127.538.066.809.09.543.033.817.054.548.011.825.024c-.27.055-.541.11-.815.154s-.55.08-.827.1l-.417.034c-.139.008-.278.007-.418.011-.279.011-.559 0-.84-.009s-.561-.033-.84-.067-.559-.072-.837-.126-.554-.114-.831-.175c-.273-.077-.547-.151-.816-.243s-.537-.188-.8-.291-.526-.22-.784-.342-.51-.257-.758-.4a12.636 12.636 0 0 1-2.733-2.073 7.433 7.433 0 0 1-.6-.67l-.261-.332.22-.377.985-1.685.064.742a9.218 9.218 0 0 1-2.188-5.4 10.429 10.429 0 0 1 .051-1.934 11.783 11.783 0 0 1 .363-1.879c.085-.306.179-.609.283-.907s.212-.594.338-.883a15.842 15.842 0 0 1 .836-1.683 12.168 12.168 0 0 1 1.041-1.548"/><path class="g" d="M24.789 12.992C8.215 12.114 2.271 28.74 2.254 28.788a17.571 17.571 0 0 0 2.25 2.762c3.467-17.119 20.285-18.558 20.285-18.558"/></svg>