<svg xmlns="http://www.w3.org/2000/svg" width="39.983" height="34.646"><defs><style>.a{fill:none}.c{fill:#e12727}.d{fill:#e55d42}.e{fill:#cc2322}.f{fill:#37b34a}.h{fill:#31a444}</style><clipPath id="a"><path class="a" d="M0 0h25.439v23.476H0z" transform="translate(0 .114)"/></clipPath><clipPath id="b"><path class="a" d="M0 0h5.235v6.573H0z" transform="translate(.038 .072)"/></clipPath><clipPath id="c"><path class="a" d="M0 0h37.716v25.92H0z" transform="translate(.058 .048)"/></clipPath><clipPath id="d"><path class="a" d="M0 0h8.408v4.962H0z" transform="translate(.025 .092)"/></clipPath><clipPath id="e"><path class="a" d="M0 0h6.719v8.386H0z" transform="translate(.024 .054)"/></clipPath></defs><path class="a" d="M0 3.712h25.439v23.476H0z"/><g clip-path="url(#a)" transform="translate(0 3.598)"><path class="c" d="M.54 23.449a.609.609 0 0 1-.076-1.2 28 28 0 0 0 9.144-4.281c2.5-1.863 3.9-4.927 4.925-7.485.651-1.622 1.632-5.362 2.291-6.994.92-2.275 4.057-5.068 7.436-2.065 2.163 1.922.835 6.531.063 8.342-2.164 5.073-6.368 10.832-11.976 12.428A30.7 30.7 0 0 1 .54 23.449"/></g><path class="d" d="M12.146 21.673a18.843 18.843 0 0 0 5.359-7.514c.343-.854.744-2.17 1.169-3.564.4-1.306.786-2.666 1.121-3.428.851-1.94 1.59-2.235 1.59-2.235-1.691-.111-3.006 1.544-3.439 2.614-.312.772-.723 2.122-1.121 3.428-.425 1.394-.85 2.7-1.169 3.564a16.245 16.245 0 0 1-10.21 10.066 14.243 14.243 0 0 0 6.7-2.932"/><path class="e" d="M24.323 13.365c.772-1.81 2.1-6.419-.063-8.342a4.736 4.736 0 0 0-2.681-1.291c2.775.806 1.552 6.617-.655 11.134A21.635 21.635 0 0 1 .007 26.516a.59.59 0 0 0 .533.532 30.694 30.694 0 0 0 11.807-1.256c5.609-1.6 9.813-7.355 11.976-12.428"/><path class="f" d="M23.48 6.573a1.93 1.93 0 0 0-.729-1 1.686 1.686 0 0 1-.69-.9c.092 1.167-2.023 1.267-2.023 1.267a1.127 1.127 0 0 0 .228-.912c-.068-.62.2-.779.2-.779l-.829.062a1.9 1.9 0 0 1-1.344-.407 2.129 2.129 0 0 0 1.025-.147 6.06 6.06 0 0 1 2.841-.581 3.737 3.737 0 0 1 3.114 2.737c-.154-.237-.626-.242-1.065-.43a2.454 2.454 0 0 1-.615-.486 2.006 2.006 0 0 1-.117 1.575"/><path class="a" d="M20.038.001h5.235v6.573h-5.235z"/><g clip-path="url(#b)" transform="translate(20 -.071)"><path class="h" d="M5.273 5.984a3.8 3.8 0 0 0-2.846-2.7v-.006a2.085 2.085 0 0 1 .552-1.844A2.348 2.348 0 0 1 4.021.741s.317-.445-.383-.67A3.018 3.018 0 0 0 1.899 3.23v.012C2.384 4.732.687 5.278.687 5.278a1.484 1.484 0 0 1-.219-.958.4.4 0 0 0-.11.13 1.041 1.041 0 0 0-.092.65 1.128 1.128 0 0 1-.228.912s2.115-.1 2.023-1.268a1.683 1.683 0 0 0 .69.9 1.931 1.931 0 0 1 .729 1 2.006 2.006 0 0 0 .117-1.573 2.454 2.454 0 0 0 .611.486c.438.187.91.193 1.065.43"/></g><path class="c" d="M2.574 32.93a.8.8 0 0 1 .226-1.555 36.679 36.679 0 0 0 12.878-3.015c3.7-1.714 6.326-5.263 8.332-8.265 1.272-1.9 3.538-6.433 4.823-8.348 1.795-2.674 6.568-5.404 10.095-.643 2.256 3.05-.69 8.6-2.167 10.713-4.142 5.919-11.084 12.166-18.706 12.695A40.223 40.223 0 0 1 2.574 32.93"/><path class="d" d="M18.902 29.179a24.663 24.663 0 0 0 8.9-8.184c.67-1 1.539-2.582 2.459-4.253.862-1.568 1.723-3.207 2.362-4.093 1.616-2.261 2.64-2.435 2.64-2.435-2.139-.6-4.271 1.166-5.113 2.421-.608.906-1.5 2.526-2.362 4.092-.92 1.672-1.818 3.233-2.459 4.253A21.26 21.26 0 0 1 9.523 31.125a18.648 18.648 0 0 0 9.379-1.946"/><path class="a" d="M2.03 8.727h37.716v25.92H2.03z"/><g clip-path="url(#c)" transform="translate(1.972 8.679)"><path class="e" d="M34.785 13.142c1.473-2.112 4.423-7.663 2.167-10.713A6.214 6.214 0 0 0 33.858.048c3.341 1.785.207 8.9-3.84 14.1-6.853 8.8-19.418 12.561-29.96 9.277a.774.774 0 0 0 .541.826 40.222 40.222 0 0 0 15.477 1.586c7.622-.529 14.564-6.776 18.706-12.7"/></g><path class="a" d="M31.574 7.924h8.408v4.962h-8.408z"/><g clip-path="url(#d)" transform="translate(31.549 7.832)"><path class="f" d="M5.956 5.054a2.533 2.533 0 0 0-.666-1.475 2.211 2.211 0 0 1-.641-1.347c-.2 1.523-2.935 1.079-2.935 1.079a1.475 1.475 0 0 0 .538-1.108c.079-.813.469-.945.469-.945l-1.08-.145A2.5 2.5 0 0 1 .025.227a2.784 2.784 0 0 0 1.354.09 7.932 7.932 0 0 1 3.8.024 4.9 4.9 0 0 1 3.254 4.351c-.134-.345-.738-.481-1.25-.839a3.223 3.223 0 0 1-.652-.789 2.628 2.628 0 0 1-.575 1.989"/></g><path class="a" d="M33.263 4.499h6.719v8.386h-6.719z"/><g clip-path="url(#e)" transform="translate(33.239 4.445)"><path class="h" d="M6.744 8.079a4.978 4.978 0 0 0-2.92-4.225v-.011A2.729 2.729 0 0 1 5.03 1.624a3.069 3.069 0 0 1 1.521-.608s.523-.484-.313-.962c-2.845.464-3.08 3.58-3.08 3.58v.017c.217 2.041-2.106 2.283-2.106 2.283a1.944 1.944 0 0 1-.022-1.288.519.519 0 0 0-.176.137 1.364 1.364 0 0 0-.293.808 1.474 1.474 0 0 1-.537 1.107s2.739.444 2.935-1.079A2.21 2.21 0 0 0 3.6 6.965a2.532 2.532 0 0 1 .666 1.475 2.628 2.628 0 0 0 .575-1.986 3.223 3.223 0 0 0 .652.789c.512.358 1.115.494 1.25.839"/></g></svg>