<svg xmlns="http://www.w3.org/2000/svg" width="37.725" height="39.757"><defs><style>.a{fill:none}</style><clipPath id="a"><path class="a" d="M0 0h37.724v31.693H0z" transform="translate(0 .101)"/></clipPath><clipPath id="b"><path class="a" d="M0 0h29.668v31.693H0z" transform="translate(.253 .101)"/></clipPath></defs><path class="a" d="M0 8.063h37.724v31.693H0z"/><g clip-path="url(#a)" transform="translate(0 7.962)"><path d="M33.713 4.027A11.326 11.326 0 0 0 21.582.715a15.086 15.086 0 0 1-5.439 0A11.327 11.327 0 0 0 4.012 4.027 17.829 17.829 0 0 0 .221 18.383C1.16 24.778 4.7 29.159 11.266 31.127c3.665 1.1 5.077.509 7.6.509s3.931.589 7.6-.509c6.564-1.968 10.107-6.349 11.045-12.744a17.828 17.828 0 0 0-3.798-14.356" fill="#e12727"/></g><path d="M13.232 17.286a3.711 3.711 0 1 1-3.712-3.739 3.725 3.725 0 0 1 3.712 3.739" fill="#e55d42"/><path class="a" d="M8.057 8.063h29.668v31.693H8.057z"/><g clip-path="url(#b)" transform="translate(7.804 7.962)"><path d="M25.909 4.027A11.326 11.326 0 0 0 13.779.715a15.086 15.086 0 0 1-5.439 0A10.181 10.181 0 0 0 4.033.137c2.393.525 2.476 3.579 9.978 3.018 6.971-.521 12.118 9.908 8.152 18.5-2.464 5.334-10.872 8.943-21.91 8.2a19.058 19.058 0 0 0 3.21 1.279c3.665 1.1 5.077.509 7.6.509s3.931.589 7.6-.509c6.564-1.968 10.107-6.349 11.045-12.744a17.827 17.827 0 0 0-3.799-14.363" fill="#c32120"/></g><path d="M18.727 7.077a5.013 5.013 0 0 0-4.276-3.009 5.4 5.4 0 0 1 1.857 3.14c-.981-.555-3.628-.957-5.081.087a5.487 5.487 0 0 1 4.131 1.958 3.511 3.511 0 0 0-.951 1.545 8.6 8.6 0 0 0 .059 1.9c1.194-1.704 4.044-.83 4.174-2.618 0 0 2.937.566 4.059 2.611.216-2.7-1.08-3.177-1.08-3.177 1.238-.9 3.556-.261 4.878.152a5.041 5.041 0 0 0-4.48-2.138 4.158 4.158 0 0 1 3.358-2.122c-2.163-.75-5.235-.717-6.648 1.671" fill="#00873e"/><path d="M20.147 0c-2.341 1.865-2.085 6.4-1.811 8.562a.584.584 0 0 0 .612-.046 16.3 16.3 0 0 1 .589-4.726 4.648 4.648 0 0 1 1.8-2.566A1.1 1.1 0 0 0 20.147 0" fill="#007b38"/></svg>