<svg xmlns="http://www.w3.org/2000/svg" width="53.333" height="50"><defs><style>.a{fill:#c5d3dd}.b{fill:#9facba}</style></defs><path class="a" d="M26.666 21.875a4.69 4.69 0 1 1 4.688-4.688 4.693 4.693 0 0 1-4.688 4.688zm0-6.251a1.562 1.562 0 1 0 1.563 1.563 1.546 1.546 0 0 0-1.563-1.562z"/><path class="b" d="M31.355 17.188a4.681 4.681 0 0 1-4.688 4.687V18.75a1.547 1.547 0 0 0 1.563-1.562 1.547 1.547 0 0 0-1.563-1.563V12.5a4.681 4.681 0 0 1 4.688 4.688z"/><path d="M50.208 42.188v6.25H3.229v-6.25a23.49 23.49 0 0 1 46.979 0z" fill="#deecf1"/><path class="a" d="M50.209 42.188v6.25H26.667V18.75a23.535 23.535 0 0 1 23.542 23.438z"/><path class="a" d="M0 46.875h53.333V50H0z"/><path d="M18.854 15.625h-3.125v-2.756a4.069 4.069 0 0 0-2.262-3.659 7.181 7.181 0 0 1-3.988-6.454V0h3.125v2.756a4.069 4.069 0 0 0 2.262 3.659 7.181 7.181 0 0 1 3.988 6.455zm-6.25 3.125H9.479v-2.756a4.069 4.069 0 0 0-2.262-3.659 7.181 7.181 0 0 1-3.988-6.454V3.125h3.125v2.756A4.069 4.069 0 0 0 8.616 9.54a7.181 7.181 0 0 1 3.988 6.455z" fill="#ffd396"/><path d="M36.042 31.25a10.9 10.9 0 0 0-9.375 5.406 10.9 10.9 0 0 0-9.375-5.406h-4.688v1.563A10.95 10.95 0 0 0 23.542 43.75h6.25a10.95 10.95 0 0 0 10.937-10.937V31.25z" fill="#61d7a8"/><path d="M29.792 43.75h-3.125v-7.094a10.9 10.9 0 0 1 9.375-5.406h4.688v1.563A10.95 10.95 0 0 1 29.792 43.75z" fill="#00ab94"/><path class="b" d="M26.667 46.875h26.667V50H26.667z"/></svg>