<svg xmlns="http://www.w3.org/2000/svg" width="39" height="50"><path d="M4.162 18a.832.832 0 0 1-.715-.416 3.3 3.3 0 0 0-2.582-1.836A.877.877 0 0 1 0 14.9a.859.859 0 0 1 .813-.9c1.768-.053 3.276 1.341 4.062 2.669A.894.894 0 0 1 4.6 17.87a.809.809 0 0 1-.438.13z" fill="#436b1c"/><path d="M23.056 5.677a3.43 3.43 0 0 0-3.406-3.212h-.016a2.154 2.154 0 0 0-.073-.858 2.231 2.231 0 0 0-1.84-1.59 2.181 2.181 0 0 0-1.812.625A2.41 2.41 0 0 0 14.279 0a2.453 2.453 0 0 0-2.442 2.465v.013a3.19 3.19 0 0 0-2.93 3.191A3.256 3.256 0 0 0 9 6.417a3.7 3.7 0 0 0-3.018 5.538 2.716 2.716 0 0 0-.146 4.051c2.2-1.815 4.511 4.254 7.232 9.1.9 1.609 10.669-.1 11.447.895C25.4 25.2 25.975 11.183 26 9.952a4.437 4.437 0 0 0-2.944-4.275z" fill="#88c057"/><path d="M24.825 24.453l.637-.394a3.628 3.628 0 0 1 3.832 0l.637.394a3.628 3.628 0 0 0 3.832 0l1.8-.826c.265-.761.449-1.312.522-1.557A66.072 66.072 0 0 0 39 4.777c.059-2.354-1.829-6.024-4.966-4.356-3.085 1.638-5.293 7.923-6.845 10.907A66.207 66.207 0 0 0 22 24.878a3.623 3.623 0 0 0 2.825-.425z" fill="#eeaf4b"/><path d="M1.012 23.487l1.2.757a4.145 4.145 0 0 0 4.464 0l.308-.2a3.539 3.539 0 0 1 3.812 0l.634.4a3.542 3.542 0 0 0 2.251.533 8.5 8.5 0 0 0-.5-6c-2.967-5.521-5.434-4.4-7.809-2a3.845 3.845 0 0 1-1.618.979c-2.612.788-4.534 2.072-3.441 5.57a.6.6 0 0 1 .699-.039z" fill="#ed3f32"/><path d="M26.888 22a.864.864 0 0 1-.288-.049.924.924 0 0 1-.552-1.163 3.329 3.329 0 0 1 4.237-2.156 1.554 1.554 0 0 0 1.984-1.009.881.881 0 0 1 1.131-.574.924.924 0 0 1 .555 1.163 3.323 3.323 0 0 1-4.24 2.157 1.557 1.557 0 0 0-1.984 1.009.893.893 0 0 1-.843.622zm2.001-6a.864.864 0 0 1-.289-.049.924.924 0 0 1-.552-1.163 3.4 3.4 0 0 1 1.686-1.988 3.227 3.227 0 0 1 2.552-.172 1.552 1.552 0 0 0 1.984-1.005.881.881 0 0 1 1.13-.574.924.924 0 0 1 .556 1.163 3.325 3.325 0 0 1-4.242 2.157 1.507 1.507 0 0 0-1.195.08 1.591 1.591 0 0 0-.789.929.891.891 0 0 1-.841.622zm2.005-7a.976.976 0 0 1-.288-.043.806.806 0 0 1-.558-1.041 3.023 3.023 0 0 1 3.739-1.693 1.248 1.248 0 0 0 .887-.052 1.094 1.094 0 0 0 .586-.614.914.914 0 0 1 1.134-.513.806.806 0 0 1 .558 1.041 2.776 2.776 0 0 1-1.487 1.557 3.17 3.17 0 0 1-2.252.135 1.188 1.188 0 0 0-1.472.667.893.893 0 0 1-.847.556z" fill="#a46f3e"/><path d="M15.742 12.453c-.827 1.125-2.133 2.457-1.63 4.809l1.352 6.323.624-.382a3.578 3.578 0 0 1 3.753 0l.624.382a3.522 3.522 0 0 0 .988.415A65.431 65.431 0 0 1 25 13.995c-.678-1.733-2.125-2.313-3.175-2.906l-.018-.01a1.265 1.265 0 0 1-.207-1.912 1.029 1.029 0 0 0 .22-.877l-.105-.49a.993.993 0 0 0-1.178-.777l-5.32 1.187a1.015 1.015 0 0 0-.756 1.2l.106.494a1 1 0 0 0 .574.709 1.242 1.242 0 0 1 .711 1.66 1.388 1.388 0 0 1-.11.18z" fill="#dae7ef"/><path d="M21.98 9.716l-6.314 1.257a1.308 1.308 0 0 1-1.545-.9l-.091-.381a1.191 1.191 0 0 1 .99-1.408l6.314-1.257a1.308 1.308 0 0 1 1.545.9l.091.378a1.19 1.19 0 0 1-.99 1.411z" fill="#fff"/><path d="M37 23.3l-1.579 22.663A4.252 4.252 0 0 1 31.176 50H5.786a4.252 4.252 0 0 1-4.245-4.037L0 24.044a.644.644 0 0 1 .975-.586l1.217.731a4.409 4.409 0 0 0 4.541 0L7.045 24a3.763 3.763 0 0 1 3.878 0l.645.388a3.763 3.763 0 0 0 3.878 0L16.09 24a3.763 3.763 0 0 1 3.878 0l.645.388a3.763 3.763 0 0 0 3.878 0l.644-.388a3.763 3.763 0 0 1 3.878 0l.645.388a3.763 3.763 0 0 0 3.878 0l3.064-1.363a.285.285 0 0 1 .4.275z" fill="#fbd490"/><path d="M11.111 38H4.889A.949.949 0 0 1 4 37a.949.949 0 0 1 .889-1h6.222A.949.949 0 0 1 12 37a.949.949 0 0 1-.889 1zm.98 4H3.909A.958.958 0 0 1 3 41a.958.958 0 0 1 .909-1h8.182A.958.958 0 0 1 13 41a.958.958 0 0 1-.909 1zm1.986 4H3.923A.964.964 0 0 1 3 45a.964.964 0 0 1 .923-1h10.154A.964.964 0 0 1 15 45a.964.964 0 0 1-.923 1zM20 46h-2a1 1 0 0 1 0-2h2a1 1 0 0 1 0 2z" fill="#e0b877"/></svg>