<svg xmlns="http://www.w3.org/2000/svg" width="44.205" height="39.93"><defs><style>.a{fill:#fcda4f}.b{fill:#ccc033}.c{fill:#99af17}.d{fill:#eacf32}.h{fill:#ff624b}.i{fill:#ff4b34}.j{fill:#fce575}.o{fill:#ffd551}.p{fill:#ffdf74}.q{fill:#f9bb32}</style></defs><path class="a" d="M15.955 32.606l.069-.013a3.106 3.106 0 0 0 2.443-3.649l-1.763-8.907-3.115.617z"/><path class="b" d="M17.254 2.255c-3.562-.074-6.548 4.157-6.662 9.45s2.693 9.65 6.26 9.72 6.548-4.155 6.659-9.449-2.69-9.645-6.257-9.721z"/><path class="c" d="M20.435 9.424a14.5 14.5 0 0 0-3.524-7.16c-3.49.2-6.303 4.49-6.319 9.7-.015 5.1 2.653 9.212 6.035 9.453 3.191-1.716 4.865-6.667 3.808-11.993z"/><path class="a" d="M15.955 32.606l-.069.014a3.105 3.105 0 0 1-3.649-2.444l-1.763-8.906 3.115-.617z"/><path class="c" d="M12.974 11.236c-2.12-4.852-6.488-7.627-9.757-6.2s-4.2 6.52-2.081 11.372 6.489 7.627 9.758 6.2 4.2-6.52 2.08-11.372z"/><path class="d" d="M19.217 9.666C18.009 3.565 13.682-.717 9.552.1S3.053 6.526 4.261 12.626s5.535 10.384 9.665 9.566 6.498-6.426 5.291-12.526z"/><path class="b" d="M8.324 11.822c-1-5.06.457-9.781 3.341-11.711A5.352 5.352 0 0 0 9.552.1c-4.13.818-6.499 6.426-5.291 12.526s5.535 10.383 9.664 9.565a5.364 5.364 0 0 0 1.95-.815c-3.401-.685-6.55-4.494-7.551-9.554z"/><path d="M11.238 12.027a5.648 5.648 0 0 1-2.878-.878.573.573 0 0 1 .641-.95 4.244 4.244 0 0 0 2.845.621 3.3 3.3 0 0 0 2.08-1.589.573.573 0 1 1 .964.618 4.4 4.4 0 0 1-2.822 2.094 4.107 4.107 0 0 1-.83.084zm.94 5.135a7.7 7.7 0 0 1-4.427-1.73.575.575 0 0 1 .742-.878c.022.021 2.218 1.845 4.418 1.389a4.767 4.767 0 0 0 3.124-2.872.573.573 0 1 1 1.025.511 5.832 5.832 0 0 1-3.924 3.484 4.734 4.734 0 0 1-.958.096z" fill="#ffeea4"/><path d="M11.871 7.693a.752.752 0 0 0-.9-.53.753.753 0 0 0-.632.83l3.806 23.445a.664.664 0 0 0 .054.174 1.508 1.508 0 0 0 1.751 1h.035a1.482 1.482 0 0 0 1.212-1.582.642.642 0 0 0-.015-.178z" fill="#fff9dc"/><path d="M15.12 31.429a.65.65 0 0 1-.054-.174L11.258 7.811a.7.7 0 0 1 .2-.6.824.824 0 0 0-.489-.048.752.752 0 0 0-.632.83l3.808 23.445a.66.66 0 0 0 .054.174 1.507 1.507 0 0 0 1.751 1h.035a1.556 1.556 0 0 0 .427-.152 1.482 1.482 0 0 1-1.292-1.031z" fill="#fff4c1"/><path class="h" d="M27.613 29.315a2.13 2.13 0 0 1-1.011-2.535l4.834-14.239a4.767 4.767 0 0 1 6.868-2.538 4.768 4.768 0 0 1 1.5 7.168l-9.511 11.655a2.129 2.129 0 0 1-2.685.489z"/><path class="d" d="M42.12 6.395a2.155 2.155 0 0 0 .381-.5 2.231 2.231 0 0 0-.911-3.02 2.231 2.231 0 0 0-3.043.832 2.164 2.164 0 0 0-.221.588v.006l-.031.172-.674 3.951a.787.787 0 0 0 .4.817.787.787 0 0 0 .9-.085l3-2.591a2.156 2.156 0 0 0 .189-.165z"/><path class="i" d="M31.487 23.898a.568.568 0 0 1-.228-.048l-2.427-1.052a.573.573 0 1 1 .455-1.052l2.432 1.052a.573.573 0 0 1-.232 1.1zm3.626-1.86a.571.571 0 0 1-.228-.048l-3.161-1.371a.573.573 0 0 1 .455-1.052l3.162 1.372a.573.573 0 0 1-.229 1.1zm-1.252-4.116a.566.566 0 0 1-.227-.048l-2.428-1.052a.573.573 0 1 1 .455-1.052l2.432 1.052a.573.573 0 0 1-.232 1.1zm4.782-1.28a.574.574 0 0 1-.228-.047l-4.36-1.892a.573.573 0 0 1 .455-1.052l4.362 1.893a.573.573 0 0 1-.229 1.1z"/><path class="b" d="M38.658 9.303c0-.014 0-.028.005-.042l.674-3.951c.007-.057.017-.114.029-.171v-.007a2.163 2.163 0 0 1 .22-.588 2.222 2.222 0 0 1 2.791-.958 2.3 2.3 0 0 0-.787-.71 2.231 2.231 0 0 0-3.043.832 2.154 2.154 0 0 0-.22.588v.007c-.017.056-.024.113-.032.17l-.674 3.952a.788.788 0 0 0 .4.817.8.8 0 0 0 .637.061z"/><path class="j" d="M38.344 8.602l-.677-3.194a1.753 1.753 0 0 0-.043-.2v-.009a1.837 1.837 0 0 0-.21-.477 1.871 1.871 0 0 0-2.523-.645 1.773 1.773 0 0 0-.6 2.475 1.872 1.872 0 0 0 .335.4c.036.032.073.063.111.093l2.573 2.151a.65.65 0 0 0 .743.066.614.614 0 0 0 .29-.661z"/><path class="d" d="M36.03 6.46a1.933 1.933 0 0 1-.111-.092 1.863 1.863 0 0 1-.335-.4 1.781 1.781 0 0 1 .172-2.139 1.813 1.813 0 0 0-.865.248 1.773 1.773 0 0 0-.6 2.475 1.872 1.872 0 0 0 .335.4c.036.032.073.063.111.093l2.573 2.151a.65.65 0 0 0 .743.066.614.614 0 0 0 .29-.661l-.054-.255z"/><path class="j" d="M44.203 9.236a1.872 1.872 0 0 0-1.886-1.8 1.839 1.839 0 0 0-.515.077h-.006a1.813 1.813 0 0 0-.2.071l-3.061 1.123a.615.615 0 0 0-.406.6.65.65 0 0 0 .451.595l3.181 1.034c.045.017.091.032.137.045h.006a1.868 1.868 0 0 0 .519.07 1.773 1.773 0 0 0 1.78-1.815z"/><path class="d" d="M43.711 10.462a1.866 1.866 0 0 1-.519-.07h-.006l-.137-.046-3.181-1.039a.65.65 0 0 1-.451-.594.612.612 0 0 1 .112-.367l-.994.362a.615.615 0 0 0-.406.597.65.65 0 0 0 .451.594l3.181 1.039c.045.016.091.032.137.045h.006a1.868 1.868 0 0 0 .519.07 1.8 1.8 0 0 0 1.332-.594z"/><path class="i" d="M29.127 27.426l4.834-14.239a4.686 4.686 0 0 1 4.386-3.16l-.043-.024a4.767 4.767 0 0 0-6.868 2.538L26.602 26.78a2.129 2.129 0 0 0 1.011 2.535 2.164 2.164 0 0 0 1.88.109 2.1 2.1 0 0 1-.37-2z"/><path d="M22.648 15.146a.55.55 0 0 1-.539-.528l-.241-4.063a.554.554 0 0 1 .541-.6h.479a.553.553 0 0 1 .54.6l-.24 4.063a.55.55 0 0 1-.54.528z" fill="#bf6c0d"/><path class="d" d="M23.243 13.252c3.265 1.809 4.155-1.955 4.356-3.186a.372.372 0 0 0-.307-.432c-1.22-.169-5.082-.43-4.32 3.243a.556.556 0 0 0 .271.375z"/><path d="M22.613 14.618l-.239-4.063a.554.554 0 0 1 .527-.6h-.492a.554.554 0 0 0-.541.6l.24 4.066a.55.55 0 0 0 .539.528.523.523 0 0 0 .252-.065.564.564 0 0 1-.286-.466z" fill="#8c4c17"/><path class="h" d="M27.468 13.426a5.7 5.7 0 0 0-4.832 1.326 5.7 5.7 0 0 0-4.832-1.326c-3.431.738-5.479 4.854-4.576 9.194s4.416 7.26 7.846 6.523a5.137 5.137 0 0 0 1.562-.618 5.137 5.137 0 0 0 1.562.618c3.43.738 6.943-2.183 7.846-6.523s-1.146-8.456-4.576-9.194z"/><path class="b" d="M23.953 13.369c-.649-3.14 2.08-3.405 3.646-3.31a.371.371 0 0 0-.307-.425c-1.22-.169-5.081-.43-4.32 3.243a.558.558 0 0 0 .271.375 4.3 4.3 0 0 0 .825.358.568.568 0 0 1-.116-.242z"/><path class="i" d="M16.177 22.62c-.868-4.172.991-8.137 4.184-9.093a5.2 5.2 0 0 0-2.557-.1c-3.431.737-5.479 4.853-4.576 9.193s4.416 7.26 7.846 6.523a5.62 5.62 0 0 0 .392-.1c-2.472-.718-4.612-3.172-5.288-6.422z"/><path d="M3.533 38.92V17.094a.925.925 0 0 1 .925-.925h4.375a.925.925 0 0 1 .925.925V38.92a.925.925 0 0 1-.925.924H4.458a.925.925 0 0 1-.925-.924zm31.011 0V17.094a.925.925 0 0 1 .925-.925h4.375a.925.925 0 0 1 .925.925V38.92a.925.925 0 0 1-.925.924h-4.375a.925.925 0 0 1-.925-.924z" fill="#db9c2e"/><path d="M42.669 24.464H1.624a.955.955 0 0 1-.955-.954v-4.296a.955.955 0 0 1 .955-.955h41.045a.955.955 0 0 1 .955.955v4.3a.955.955 0 0 1-.955.95zm0 7.733H1.624a.955.955 0 0 1-.955-.954v-4.296a.955.955 0 0 1 .955-.955h41.045a.955.955 0 0 1 .955.955v4.3a.955.955 0 0 1-.955.95zm0 7.733H1.624a.955.955 0 0 1-.955-.954V34.68a.955.955 0 0 1 .955-.955h41.045a.955.955 0 0 1 .955.955v4.3a.955.955 0 0 1-.955.95z" fill="#ffc34c"/><path class="o" d="M41.911 38.784a.573.573 0 0 1-.573-.573v-2.768a.573.573 0 0 1 1.146 0v2.768a.573.573 0 0 1-.573.573z"/><path class="p" d="M38.569 36.589a.955.955 0 1 1-.954-.955.955.955 0 0 1 .954.955zm0-7.733a.955.955 0 1 1-.954-.955.955.955 0 0 1 .954.955zm0-7.733a.955.955 0 1 1-.954-.955.955.955 0 0 1 .954.955z"/><path class="q" d="M6.397 31.243v-4.296a.955.955 0 0 1 .955-.955H1.624a.955.955 0 0 0-.955.955v4.3a.955.955 0 0 0 .955.955h5.728a.955.955 0 0 1-.955-.959zm0 7.733V34.68a.955.955 0 0 1 .955-.955H1.624a.955.955 0 0 0-.955.955v4.3a.955.955 0 0 0 .955.955h5.728a.955.955 0 0 1-.955-.959zm0-15.466v-4.296a.955.955 0 0 1 .955-.955H1.624a.955.955 0 0 0-.955.955v4.3a.955.955 0 0 0 .955.955h5.728a.955.955 0 0 1-.955-.955z"/><path class="p" d="M7.638 21.123a.955.955 0 1 1-.954-.955.955.955 0 0 1 .954.955zm0 7.733a.955.955 0 1 1-.954-.955.955.955 0 0 1 .954.955zm0 7.733a.955.955 0 1 1-.954-.955.955.955 0 0 1 .954.955z"/><path class="o" d="M6.397 29.767v-1.822a.955.955 0 0 0 0 1.822zm0 7.732v-1.822a.955.955 0 0 0 0 1.822zm0-15.465v-1.822a.955.955 0 0 0 0 1.822z"/><path class="q" d="M14.222 21.123a1.671 1.671 0 1 1-1.67-1.671 1.671 1.671 0 0 1 1.67 1.671zm5.728 7.733a1.671 1.671 0 1 1-1.67-1.671 1.671 1.671 0 0 1 1.67 1.671z"/><path class="o" d="M41.911 31.051a.573.573 0 0 1-.573-.573V27.71a.573.573 0 0 1 1.146 0v2.768a.573.573 0 0 1-.573.573zm0-8.019a.573.573 0 0 1-.573-.573v-2.768a.573.573 0 0 1 1.146 0v2.768a.573.573 0 0 1-.573.573z"/></svg>