<svg xmlns="http://www.w3.org/2000/svg" width="36.427" height="39.922"><defs><style>.a{fill:#f7b081}.e{fill:#f7cb4f}.f{fill:#fbab00}.j{fill:#ffc89f}</style></defs><g transform="translate(-.032)"><path class="a" d="M27.351 18.572c-.208-1.264-.875-2.77-2.878-2.77a.586.586 0 0 0-.577.488l-.385 2.262a17.442 17.442 0 0 1-.619 2.53c-.717 2.174-1.622 3.289-3.227 3.975-.771.33-1.4.612-1.648.726h-3a.586.586 0 0 0-.588.586v10.61a.586.586 0 0 0 .586.586h2.922l1.259 1.019a5.973 5.973 0 0 0 3.747 1.327h3.569a.586.586 0 0 0 .288-1.1v-11.7h-.729l1.226-6.179a6.618 6.618 0 0 0 .054-2.36z"/><path d="M15.016 24.729h-4.551a.586.586 0 0 0-.586.586v12.524a.586.586 0 0 0 .586.586h4.551a.586.586 0 0 0 .586-.586V25.315a.586.586 0 0 0-.586-.586z" fill="#efe7e4"/><path d="M9.879 36.091v1.748a.586.586 0 0 0 .586.586h4.551a.586.586 0 0 0 .586-.586v-1.748z" fill="#d8d1d0"/><path d="M25.221 38.234a1.687 1.687 0 0 1 1.686-1.687 1.688 1.688 0 0 1 0-3.375 1.688 1.688 0 0 1 0-3.375 1.688 1.688 0 0 1 0-3.375h-1.913a1.688 1.688 0 1 0 0 3.375 1.688 1.688 0 1 0 0 3.375 1.688 1.688 0 0 0 0 3.375 1.688 1.688 0 1 0 0 3.375h1.913a1.688 1.688 0 0 1-1.686-1.688z" fill="#dd9a76"/><path class="e" d="M11.786 8.453a1.089 1.089 0 0 0-.884-.745L8.235 7.32 7.044 4.907a1.1 1.1 0 0 0-1.965 0L3.886 7.32l-2.661.387a1.1 1.1 0 0 0-.607 1.869l1.927 1.879-.459 2.652a1.094 1.094 0 0 0 1.59 1.155l2.386-1.252 2.382 1.252a1.1 1.1 0 0 0 1.59-1.155l-.455-2.652 1.927-1.879a1.089 1.089 0 0 0 .28-1.123z"/><path class="f" d="M10.899 7.707l-.059-.009-3.01 2.973a.656.656 0 0 0-.189.581l.71 3.96.1.05a1.1 1.1 0 0 0 1.579-1.156l-.451-2.652 1.927-1.879a1.1 1.1 0 0 0-.607-1.868z"/><path class="e" d="M24.108 4.157a1.089 1.089 0 0 0-.884-.745l-2.667-.388L19.366.611a1.1 1.1 0 0 0-1.965 0l-1.193 2.413-2.661.387a1.1 1.1 0 0 0-.607 1.869l1.927 1.879-.459 2.652a1.1 1.1 0 0 0 1.59 1.155l2.386-1.252 2.382 1.252a1.1 1.1 0 0 0 1.59-1.155l-.455-2.652 1.927-1.879a1.089 1.089 0 0 0 .28-1.123z"/><path class="f" d="M21.92 10.883a1.089 1.089 0 0 0 .432-1.075l-.451-2.649 1.927-1.879a1.1 1.1 0 0 0-.607-1.872h-.024l-3.045 2.967a.656.656 0 0 0-.189.581l.55 3.216.132.731.121.064a1.09 1.09 0 0 0 1.154-.083z"/><path class="e" d="M36.407 8.453a1.089 1.089 0 0 0-.884-.745l-2.666-.388-1.192-2.413a1.1 1.1 0 0 0-1.965 0L28.507 7.32l-2.661.387a1.1 1.1 0 0 0-.607 1.869l1.927 1.879-.459 2.652a1.1 1.1 0 0 0 1.59 1.155l2.386-1.252 2.382 1.252a1.1 1.1 0 0 0 1.59-1.155l-.455-2.652 1.927-1.879a1.089 1.089 0 0 0 .28-1.123z"/><path class="f" d="M36.404 8.452a1.089 1.089 0 0 0-.884-.745l-.047-.007-3.022 2.971a.657.657 0 0 0-.189.581l.639 3.923.165.087a1.1 1.1 0 0 0 1.585-1.155l-.451-2.653 1.927-1.878a1.089 1.089 0 0 0 .277-1.124z"/><path d="M10.464 23.512H.618a.586.586 0 0 0-.586.586v14.959a.586.586 0 0 0 .586.586h9.846a.586.586 0 0 0 .586-.586V24.098a.586.586 0 0 0-.586-.586z" fill="#546f7a"/><path d="M.032 37.396v1.661a.586.586 0 0 0 .586.586h9.846a.586.586 0 0 0 .586-.586v-1.661z" fill="#465a65"/><circle cx=".933" cy=".933" r=".933" transform="translate(6.422 35.113)" fill="#353535"/><path class="j" d="M32.69 26.422h-6.1a1.965 1.965 0 0 0-1.964 1.963v.328a1.965 1.965 0 0 0 1.963 1.963h6.1a1.965 1.965 0 0 0 1.963-1.963v-.328a1.965 1.965 0 0 0-1.962-1.963z"/><path class="a" d="M32.69 28.784h-6.1a1.965 1.965 0 0 1-1.801-1.181 1.952 1.952 0 0 0-.163.782v.328a1.965 1.965 0 0 0 1.963 1.963h6.1a1.965 1.965 0 0 0 1.964-1.963v-.328a1.952 1.952 0 0 0-.163-.782 1.965 1.965 0 0 1-1.8 1.181z"/><path class="j" d="M33.403 29.504h-6.814a1.965 1.965 0 0 0-1.963 1.963v.328a1.965 1.965 0 0 0 1.963 1.963h6.814a1.965 1.965 0 0 0 1.963-1.963v-.328a1.965 1.965 0 0 0-1.963-1.963z"/><path class="a" d="M33.403 31.883h-6.814a1.965 1.965 0 0 1-1.804-1.189 1.952 1.952 0 0 0-.159.773v.327a1.965 1.965 0 0 0 1.963 1.964h6.814a1.965 1.965 0 0 0 1.962-1.964v-.327a1.952 1.952 0 0 0-.159-.773 1.965 1.965 0 0 1-1.803 1.189z"/><path class="j" d="M32.526 32.586h-5.773a2.127 2.127 0 0 0 0 4.254h5.773a2.127 2.127 0 1 0 0-4.254z"/><path class="a" d="M32.526 34.928h-5.773a2.129 2.129 0 0 1-1.899-1.171 2.125 2.125 0 0 0 1.9 3.083h5.772a2.125 2.125 0 0 0 1.9-3.083 2.128 2.128 0 0 1-1.9 1.171z"/><path class="j" d="M30.937 35.668h-4.184a2.127 2.127 0 0 0 0 4.254h4.184a2.127 2.127 0 1 0 0-4.254z"/><path class="a" d="M30.937 38.012h-4.184a2.129 2.129 0 0 1-1.899-1.172 2.125 2.125 0 0 0 1.9 3.082h4.183a2.125 2.125 0 0 0 1.899-3.082 2.129 2.129 0 0 1-1.899 1.172z"/></g></svg>